<svg width="761" height="399" viewBox="0 0 761 399" fill="none" xmlns="http://www.w3.org/2000/svg">
<path d="M69.3497 255.165C69.1552 255.165 68.9606 255.165 68.7661 255.165C67.9437 254.967 67.0929 255.211 66.2705 255.024C59.8243 254.622 53.9124 252.738 48.7709 248.768C47.4998 247.785 46.3921 246.616 45.8863 245.054C45.0432 242.453 46.5037 240.51 49.2664 240.394C52.3844 240.263 55.3028 241.104 58.164 242.162C63.0176 243.958 67.5157 246.408 71.6299 249.542C72.0553 249.867 72.4652 250.214 73.0333 250.466C72.6935 249.553 72.3407 248.642 72.019 247.723C71.0774 245.029 70.1331 242.337 69.233 239.63C69.0799 239.172 68.888 239.033 68.4106 238.955C64.0759 238.25 59.7023 237.746 55.4533 236.562C51.4195 235.435 47.5569 233.932 44.1093 231.531C42.0107 230.069 40.06 228.443 39.2662 225.867C38.3816 222.995 39.7409 221.096 42.7578 220.931C47.6581 220.664 52.0135 222.36 56.1926 224.624C60.5039 226.961 64.146 230.144 67.5416 233.626C67.8218 233.912 68.0968 234.205 68.5611 234.421C68.3069 233.598 68.0371 232.777 67.7984 231.948C66.8879 228.783 66.1408 225.582 65.6999 222.318C65.5909 221.505 65.2796 221.086 64.4054 220.926C60.0084 220.123 55.6893 219.043 51.627 217.125C47.6581 215.252 44.3169 212.622 41.7487 209.06C40.9031 207.89 40.3946 206.577 40.1741 205.164C39.6994 202.097 41.9329 200.146 45.1729 200.542C48.9499 201.008 51.972 202.884 54.8099 205.185C58.8307 208.445 61.8632 212.555 64.8231 216.724C64.8983 216.829 64.9709 216.935 65.0383 217.03C65.3393 216.979 65.2614 216.773 65.2381 216.639C64.5792 212.982 64.4339 209.279 64.2731 205.581C64.1745 203.314 64.2238 203.337 62.1615 202.462C58.0344 200.715 54.0006 198.782 50.5738 195.838C47.8085 193.463 45.2533 190.9 44.2079 187.264C44.0134 186.59 43.8889 185.882 43.8525 185.185C43.7462 183.146 45.3441 181.499 47.409 181.427C50.5634 181.317 53.1341 182.57 55.3184 184.732C58.0162 187.403 59.8943 190.65 61.8139 193.865C62.727 195.393 63.6298 196.929 64.4339 198.826C64.6596 197.112 64.8775 195.671 65.0332 194.222C65.3393 191.41 65.9956 188.659 66.587 185.9C66.7271 185.251 66.5663 185.002 66.0656 184.703C63.4041 183.126 60.8256 181.433 58.7477 179.106C55.806 175.815 53.9305 171.968 52.8695 167.729C52.688 167.001 52.745 166.167 52.8799 165.413C53.3002 163.071 55.57 161.782 57.9072 162.487C60.1745 163.169 61.5597 164.891 62.7919 166.721C65.1214 170.177 66.3276 174.091 67.3263 178.079C67.4638 178.63 67.6247 179.176 67.7751 179.729C68.1279 179.647 68.0812 179.389 68.1409 179.176C68.4729 178.015 68.6726 176.793 69.1889 175.717C70.4548 173.074 70.1694 170.359 69.9022 167.601C69.2719 161.1 70.7505 155.171 74.9944 150.06C76.0891 148.743 77.4329 147.647 79.119 147.217C82.5302 146.347 85.1943 148.148 85.9181 151.646C86.5407 154.649 85.7806 157.454 84.6651 160.192C82.5795 165.31 79.0697 169.309 74.5897 172.5C73.355 173.378 72.473 174.474 71.9049 175.846C70.9165 178.236 70.2421 180.715 69.8296 183.285C71.316 181.602 72.8336 179.981 74.486 178.486C77.1008 176.121 79.9335 174.132 83.4822 173.414C85.1528 173.077 86.8364 172.933 88.5329 173.314C90.9609 173.859 92.2632 176.016 91.5109 178.37C90.6341 181.119 88.4317 182.552 85.9699 183.666C82.7507 185.12 79.2824 185.522 75.8116 185.892C74.3952 186.044 72.9736 186.144 71.5651 186.348C69.7751 186.608 68.7375 187.735 68.3717 189.436C67.6454 192.825 67.1811 196.253 66.9217 199.709C66.9009 200 66.9191 200.29 66.9191 200.831C67.6739 199.992 68.2576 199.318 68.8724 198.672C72.4211 194.927 76.3407 191.685 81.3499 190.038C83.6975 189.266 86.1412 189.055 88.577 189.606C91.3034 190.223 92.5148 192.671 91.5083 195.416C90.4447 198.322 88.1957 199.982 85.4252 201.124C82.3434 202.398 79.0879 202.792 75.8167 203.106C73.1786 203.358 70.5352 203.528 67.8918 203.723C67.1499 203.777 66.8412 204.104 66.8724 204.876C67.0332 208.78 67.3289 212.668 67.897 216.536C67.9619 216.986 67.9567 217.447 67.9956 218.067C69.5365 216.294 70.9243 214.603 72.4989 213.083C75.3706 210.308 78.5146 207.923 82.3512 206.618C84.5821 205.859 86.8857 205.447 89.2333 206.14C91.2956 206.747 92.4214 208.687 91.9545 210.774C91.184 214.228 88.8364 216.366 85.7936 217.846C82.6962 219.351 79.3551 220.074 75.9594 220.533C73.7078 220.836 71.4509 221.132 69.1863 221.307C68.3043 221.374 68.2784 221.739 68.4055 222.38C69.0177 225.443 69.5936 228.51 70.2473 231.562C70.4989 232.733 70.6234 233.94 71.1267 235.201C72.0968 233.654 73.1786 232.285 74.3537 230.991C77.6974 227.308 81.2747 223.932 86.1879 222.357C87.7806 221.848 89.3915 221.528 91.0751 221.546C95.9494 221.598 96.8158 225.445 95.3605 228.497C93.8274 231.719 90.9947 233.58 87.8273 234.967C83.3889 236.907 78.678 237.774 73.8997 238.402C71.853 238.67 71.8634 238.369 72.447 240.417C74.7765 248.603 77.6793 256.578 81.6404 264.144C81.656 264.175 81.6716 264.203 81.6897 264.231C82.4109 265.585 82.3798 266.346 81.5808 266.82C80.8285 267.265 80.0243 266.897 79.2721 265.574C77.5859 262.613 76.2863 259.47 75.1111 256.287C74.7091 255.201 74.1747 254.774 73.067 254.998C72.8699 255.036 72.6598 255.011 72.4548 255.013C71.4276 255.222 70.377 254.957 69.3497 255.16V255.165Z" fill="#05C5C8"/>
<path d="M707.65 256.165C707.845 256.165 708.039 256.165 708.234 256.165C709.056 255.967 709.907 256.211 710.729 256.024C717.176 255.622 723.088 253.738 728.229 249.768C729.5 248.785 730.608 247.616 731.114 246.054C731.957 243.453 730.496 241.51 727.734 241.394C724.616 241.263 721.697 242.104 718.836 243.162C713.982 244.958 709.484 247.408 705.37 250.542C704.945 250.867 704.535 251.214 703.967 251.466C704.307 250.553 704.659 249.642 704.981 248.723C705.923 246.029 706.867 243.337 707.767 240.63C707.92 240.172 708.112 240.033 708.589 239.955C712.924 239.25 717.298 238.746 721.547 237.562C725.581 236.435 729.443 234.932 732.891 232.531C734.989 231.069 736.94 229.443 737.734 226.867C738.618 223.995 737.259 222.096 734.242 221.931C729.342 221.664 724.986 223.36 720.807 225.624C716.496 227.961 712.854 231.144 709.458 234.626C709.178 234.912 708.903 235.205 708.439 235.421C708.693 234.598 708.963 233.777 709.202 232.948C710.112 229.783 710.859 226.582 711.3 223.318C711.409 222.505 711.72 222.086 712.595 221.926C716.992 221.123 721.311 220.043 725.373 218.125C729.342 216.252 732.683 213.622 735.251 210.06C736.097 208.89 736.605 207.577 736.826 206.164C737.301 203.097 735.067 201.146 731.827 201.542C728.05 202.008 725.028 203.884 722.19 206.185C718.169 209.445 715.137 213.555 712.177 217.724C712.102 217.829 712.029 217.935 711.962 218.03C711.661 217.979 711.739 217.773 711.762 217.639C712.421 213.982 712.566 210.279 712.727 206.581C712.825 204.314 712.776 204.337 714.838 203.462C718.966 201.715 722.999 199.782 726.426 196.838C729.191 194.463 731.747 191.9 732.792 188.264C732.987 187.59 733.111 186.882 733.147 186.185C733.254 184.146 731.656 182.499 729.591 182.427C726.437 182.317 723.866 183.57 721.682 185.732C718.984 188.403 717.106 191.65 715.186 194.865C714.273 196.393 713.37 197.929 712.566 199.826C712.34 198.112 712.122 196.671 711.967 195.222C711.661 192.41 711.004 189.659 710.413 186.9C710.273 186.251 710.434 186.002 710.934 185.703C713.596 184.126 716.174 182.433 718.252 180.106C721.194 176.815 723.069 172.968 724.13 168.729C724.312 168.001 724.255 167.167 724.12 166.413C723.7 164.071 721.43 162.782 719.093 163.487C716.826 164.169 715.44 165.891 714.208 167.721C711.879 171.177 710.672 175.091 709.674 179.079C709.536 179.63 709.375 180.176 709.225 180.729C708.872 180.647 708.919 180.389 708.859 180.176C708.527 179.015 708.327 177.793 707.811 176.717C706.545 174.074 706.831 171.359 707.098 168.601C707.728 162.1 706.249 156.171 702.006 151.06C700.911 149.743 699.567 148.647 697.881 148.217C694.47 147.347 691.806 149.148 691.082 152.646C690.459 155.649 691.219 158.454 692.335 161.192C694.421 166.31 697.93 170.309 702.41 173.5C703.645 174.378 704.527 175.474 705.095 176.846C706.083 179.236 706.758 181.715 707.17 184.285C705.684 182.602 704.166 180.981 702.514 179.486C699.899 177.121 697.066 175.132 693.518 174.414C691.847 174.077 690.164 173.933 688.467 174.314C686.039 174.859 684.737 177.016 685.489 179.37C686.366 182.119 688.568 183.552 691.03 184.666C694.249 186.12 697.718 186.522 701.188 186.892C702.605 187.044 704.026 187.144 705.435 187.348C707.225 187.608 708.262 188.735 708.628 190.436C709.355 193.825 709.819 197.253 710.078 200.709C710.099 201 710.081 201.29 710.081 201.831C709.326 200.992 708.742 200.318 708.128 199.672C704.579 195.927 700.659 192.685 695.65 191.038C693.302 190.266 690.859 190.055 688.423 190.606C685.697 191.223 684.485 193.671 685.492 196.416C686.555 199.322 688.804 200.982 691.575 202.124C694.657 203.398 697.912 203.792 701.183 204.106C703.821 204.358 706.465 204.528 709.108 204.723C709.85 204.777 710.159 205.104 710.128 205.876C709.967 209.78 709.671 213.668 709.103 217.536C709.038 217.986 709.043 218.447 709.004 219.067C707.464 217.294 706.076 215.603 704.501 214.083C701.629 211.308 698.485 208.923 694.649 207.618C692.418 206.859 690.114 206.447 687.767 207.14C685.704 207.747 684.579 209.687 685.046 211.774C685.816 215.228 688.164 217.366 691.206 218.846C694.304 220.351 697.645 221.074 701.041 221.533C703.292 221.836 705.549 222.132 707.814 222.307C708.696 222.374 708.722 222.739 708.595 223.38C707.982 226.443 707.406 229.51 706.753 232.562C706.501 233.733 706.377 234.94 705.873 236.201C704.903 234.654 703.821 233.285 702.646 231.991C699.303 228.308 695.725 224.932 690.812 223.357C689.219 222.848 687.608 222.528 685.925 222.546C681.051 222.598 680.184 226.445 681.639 229.497C683.173 232.719 686.005 234.58 689.173 235.967C693.611 237.907 698.322 238.774 703.1 239.402C705.147 239.67 705.137 239.369 704.553 241.417C702.223 249.603 699.321 257.578 695.36 265.144C695.344 265.175 695.328 265.203 695.31 265.231C694.589 266.585 694.62 267.346 695.419 267.82C696.172 268.265 696.976 267.897 697.728 266.574C699.414 263.613 700.714 260.47 701.889 257.287C702.291 256.201 702.825 255.774 703.933 255.998C704.13 256.036 704.34 256.011 704.545 256.013C705.572 256.222 706.623 255.957 707.65 256.16V256.165Z" fill="#05C5C8"/>
<path d="M340 271.671C397.434 265.061 409 254.776 441.432 254.776C473.865 254.776 487.436 253.439 520.5 242.878C553.564 232.317 598.433 226.001 603.324 254.776C608.216 283.551 646.202 248.323 724.729 271.671C778.635 287.698 770.053 321.517 714.881 354.067C659.709 386.618 618.063 383.251 534 383.251C413.247 383.251 397.609 398.878 335.5 398.878C298.132 398.878 279.633 383.251 188.201 383.251C133.36 383.251 90.6385 371.12 29.4012 359.641C-31.8361 348.161 15.5835 287.797 54.3134 272.844C129.219 243.923 185.049 241.58 243.177 263.099C269.5 272.844 299.606 276.319 340 271.671Z" fill="#FBCDFF"/>
<ellipse cx="183.001" cy="343.977" rx="111.681" ry="13.3234" fill="black" fill-opacity="0.15"/>
<ellipse cx="509.815" cy="348.484" rx="147.341" ry="10.3844" fill="black" fill-opacity="0.15"/>
<path d="M625.577 162.411C640.617 165.325 652.071 173.188 659.299 186.856C665.168 197.946 668.684 209.828 671.008 222.097C673.83 237.009 674.2 252.082 673.477 267.161C672.674 283.83 668.748 299.887 662.005 315.157C654.772 331.525 642.028 342.146 625.722 348.842C614.643 353.392 603.119 355.942 591.167 356.688C574.323 357.746 557.561 356.85 540.821 354.988C526.284 353.375 511.852 351.23 497.876 346.72C491.053 344.517 484.484 341.759 479.107 336.856C473.197 331.467 469.387 324.957 468.89 316.787C468.895 315.422 470.144 315.353 470.954 314.919C478.089 311.121 485.317 307.478 491.758 302.506C493.944 300.817 495.812 298.811 497.737 296.857C499.056 295.521 500.334 295.255 501.976 296.227C509.62 300.725 517.912 303.679 526.307 306.397C542.879 311.028 558.353 309.01 572.369 298.655C576.087 295.909 579.244 292.497 582.563 289.277C584.564 287.334 586.46 285.212 589.062 283.981C589.773 283.824 590.386 283.512 590.965 283.032C598.846 276.539 607.502 271.255 616.667 266.803C620.807 264.79 624.947 262.755 629.318 261.24C622.241 263.623 609.93 269.838 602.356 274.787C601.575 275.296 600.852 276.302 599.696 275.481C599.667 275.412 599.603 275.337 599.615 275.285C600.569 271.509 602.02 267.947 604.287 264.744C605.756 264.357 607.149 264.895 608.566 265.097C613.943 265.86 618.303 264.085 621.9 260.067C626.26 255.193 628.058 249.191 629.492 243.051C630.972 236.719 631.822 230.273 632.25 223.785C632.412 221.334 633.447 219.108 633.632 216.616C633.979 211.996 633.857 207.388 633.95 202.774C633.973 201.548 633.973 200.317 634.482 199.16C637.639 193.702 639.258 187.909 638.258 181.554C637.633 177.553 635.685 174.24 632.944 171.344C630.718 168.985 628.179 166.909 626.26 164.261C625.872 163.729 625.109 163.272 625.589 162.405L625.577 162.411Z" fill="#E56990"/>
<path d="M526.048 306.778C521.139 305.599 516.496 303.65 511.847 301.754C508.25 300.285 504.717 298.66 501.41 296.585C500.525 296.03 499.658 295.625 498.738 296.671C490.973 305.471 480.628 310.467 470.486 315.757C469.919 316.052 469.26 316.214 468.879 316.798C464.207 318.458 459.893 320.915 455.337 322.829C444.807 327.258 434.295 331.715 423.777 336.162C421.8 335.705 422.632 334.421 423.141 333.502C424.957 330.206 427.322 327.315 429.796 324.471C435.243 318.215 441.702 312.913 446.744 306.275C451.006 300.661 454.348 294.544 457.025 288.051C457.349 287.258 457.661 286.449 457.69 285.882C456.586 289.19 455.001 292.607 453.209 295.931C449.242 303.297 444.194 309.843 438.111 315.578C432.641 320.736 427.871 326.523 422.944 332.178C420.961 334.45 419.169 336.884 418.642 339.984C418.053 343.158 417.555 346.349 416.856 349.501C415.983 353.444 413.768 356.092 409.466 356.473C398.936 357.404 388.933 360.636 378.808 363.371C375.085 364.377 371.257 364.522 367.452 363.984C365.532 363.712 363.393 363.279 362.768 361.087C362.115 358.775 363.526 357.092 365.22 355.728C367.354 354.005 369.73 352.64 372.13 351.322C373.009 350.836 373.853 350.298 374.72 349.79C375.154 348.622 376.311 348.396 377.236 347.922C382.168 345.407 387.083 342.874 391.518 339.486C395.097 336.757 397.774 333.369 399.596 329.281C400.064 328.235 400.625 327.24 401.197 326.257C404.025 322.291 405.684 317.723 407.691 313.352C416.578 293.977 424.991 274.376 434.983 255.522C436.434 252.787 438.03 250.121 439.644 247.473C444.136 240.096 451.006 236.892 459.373 236.551C468.994 236.164 478.275 238.257 487.498 240.656C487.914 240.766 488.342 240.824 488.77 240.905C489.706 242.478 491.198 243.212 492.869 243.813C496.738 245.213 500.606 246.618 504.422 248.144C505.555 248.595 506.741 249 507.458 250.11C508.279 252.272 509.002 254.446 508.215 256.788C507.66 257.534 506.833 257.488 506.047 257.499C496.743 257.644 488.301 260.425 480.738 265.831C475.603 269.497 470.087 272.492 464.426 275.226C462.684 275.053 461.506 275.884 460.893 277.718C460.489 278.938 460.026 280.147 459.615 281.771C461.946 280.216 463.917 278.672 465.843 277.077C472.105 272.335 478.142 267.253 484.988 263.35C492.152 259.268 499.848 257.158 508.181 257.84C512.87 258.361 517.513 259.17 522.104 260.257C522.937 260.454 523.787 260.604 524.533 261.072C528.737 266.045 530.269 272.023 530.65 278.302C531.171 286.958 529.563 295.411 527.551 303.783C527.285 304.876 527.141 306.09 526.054 306.801L526.048 306.778Z" fill="#FFCDBA"/>
<path d="M98.2128 278.413C96.7268 278.846 95.8248 278.846 96.0156 276.736C98.0509 254.371 102.231 232.435 108.893 210.978C108.494 209.932 108.979 208.978 109.274 208.035C113.929 193.199 119.549 178.762 127.35 165.261C130.778 159.329 134.45 153.529 139.07 148.407C147.593 138.959 157.903 134.38 170.647 137.629C175.961 138.982 180.772 141.74 184.993 145.36C185.201 146.198 184.663 146.736 184.149 147.221C182.547 148.725 181.281 150.425 180.633 152.558C180.483 153.05 180.228 153.495 179.604 153.489C178.037 152.61 178.528 150.783 177.823 149.742C181.223 160.508 184.686 171.488 188.387 182.393C189.486 185.451 190.249 188.614 191.111 191.736C191.874 194.5 191.643 194.98 189.231 196.535C179.089 201.762 169.15 207.359 159.187 212.921C158.429 213.343 157.62 213.655 156.787 213.916C155.764 213.904 155.099 214.673 154.301 215.112C152.93 215.864 151.976 215.754 151.057 214.332C147.293 208.521 144.037 202.433 141.065 196.188C139.799 193.529 138.538 190.863 137.428 188.128C140.319 195.148 143.702 201.93 147.443 208.533C148.651 210.666 150.062 212.672 151.3 214.777C152.005 215.98 152.682 215.881 153.769 215.413C154.786 214.974 155.567 213.869 156.885 214.17C158.539 215.719 159.094 217.72 159.245 219.888C157.348 223.629 154.81 226.971 152.653 230.556C147.483 239.159 142.551 247.896 138.047 256.869C136.329 260.286 134.34 263.565 132.825 267.086C132.594 267.624 132.224 268.069 131.756 268.427C131.397 268.693 131.004 268.907 130.611 269.115C121.006 273.596 110.951 276.626 100.543 278.522C99.7625 278.667 98.9761 278.835 98.2186 278.413H98.2128Z" fill="#E56990"/>
<path d="M98.212 278.412C109.418 276.319 120.335 273.29 130.697 268.45C130.928 269.873 129.754 270.59 129.072 271.509C124.452 277.759 119.496 283.778 116.016 290.803C119.52 283.813 124.469 277.805 129.078 271.561C129.928 270.405 130.911 269.335 131.472 267.988C133.588 264.808 135.033 261.269 136.78 257.898C143.551 244.854 150.622 231.995 158.903 219.836C160.105 220.154 160.204 221.287 160.568 222.178C163.794 230.053 167.304 237.789 171.803 245.034C174.393 249.202 177.209 253.198 181.234 256.187C184.131 258.338 187.27 259.806 190.878 260.24C192.012 260.379 193.18 260.471 194.157 261.194C194.718 262.038 194.539 263.004 194.579 263.929C194.689 266.878 194.382 269.838 194.891 272.781C195.117 274.082 194.55 275.337 194.197 276.58C191.584 285.773 187.536 294.399 183.685 303.107C180.123 311.173 176.082 318.978 170.935 326.171C168.316 329.837 165.142 332.988 161.788 335.942C159.857 337.642 157.798 339.29 155.034 339.498C145.256 344.164 135.409 343.921 125.689 339.515C111.54 333.109 103.572 321.655 99.8888 306.929C97.628 297.897 97.3331 288.716 98.2062 279.476C98.2409 279.124 98.2062 278.765 98.2062 278.407L98.212 278.412Z" fill="#55408B"/>
<path d="M184.866 145.602C180.419 142.665 175.99 139.566 170.78 138.213C161.078 135.692 152.271 137.71 144.46 144.076C137.382 149.846 132.71 157.478 128.113 165.145C120.076 178.553 114.739 193.124 109.887 207.896C109.552 208.92 109.222 209.949 108.887 210.972C103.533 207.023 99.8032 201.912 97.9529 195.494C97.4961 193.91 97.2012 192.285 97.2127 190.626C97.0219 189.152 97.0335 187.671 97.207 186.197C98.3576 173.806 104.406 164.793 115.67 159.34C117.734 158.34 119.833 157.369 121.787 156.172C126.06 153.564 128.119 149.557 128.963 144.7C130.559 135.49 134.323 127.47 142.031 121.683C146.183 118.566 150.918 116.745 155.978 116.537C171.867 115.889 183.802 108.581 192.938 95.8724C197.147 90.0211 202.785 85.7425 209.897 83.9386C220.404 81.2789 229.794 83.875 238.173 90.5473C242.399 93.9123 246.175 97.7978 248.135 102.834C249.448 106.205 251.443 108.795 253.709 111.484C257.693 116.202 259.735 121.856 260.029 128.072C260.168 130.136 260.232 132.2 260.001 134.264C259.931 138.231 258.648 141.89 256.826 145.319C254.265 150.141 254.085 155.015 255.843 160.092C256.566 162.185 257.242 164.313 257.711 166.481C259.365 174.124 255.878 181.803 249.043 185.787C248.32 186.209 247.603 186.642 246.881 187.064C247.176 187.712 246.603 187.671 246.447 187.446C244.504 184.624 241.573 183.017 238.849 181.149C236.091 174.813 232.373 169.019 228.574 163.278C228.296 162.856 228.002 162.451 228.007 161.913C229.58 159.583 231.818 157.843 233.587 155.68C235.414 153.448 237.213 151.194 239.046 148.968C239.63 148.256 239.711 147.713 239.156 146.88C237.132 143.851 235.889 140.462 234.981 136.953C234.35 134.507 233.755 132.05 232.859 129.685C231.28 125.51 228.522 124.215 224.341 125.661C223.931 125.799 223.515 125.938 223.133 126.135C216.304 129.633 209.637 126.684 205.647 121.608C204.93 120.7 204.231 119.775 203.329 119.046C201.501 117.566 199.408 117.601 197.604 119.11C194.349 121.839 193.724 126.181 196.321 129.552C197.373 130.916 197.546 131.98 196.621 133.42C195.604 134.998 195.28 136.918 194.314 138.537C193.58 139.265 192.753 139.896 191.972 140.572C190.162 141.873 188.509 143.371 186.716 144.7C186.161 145.117 185.722 145.787 184.866 145.608V145.602Z" fill="#11051D"/>
<path d="M194.031 261.298C183.946 260.818 177.47 254.926 172.341 246.93C167.01 238.622 163.003 229.665 159.331 220.547C159.227 220.293 159.048 220.073 158.903 219.842C158.447 217.934 157.822 216.095 156.752 214.43C156.452 214.182 156.452 213.904 156.671 213.609C167.369 207.856 177.823 201.664 188.705 196.263C189.74 196.755 189.931 197.807 190.301 198.721C192.545 204.248 194.701 209.81 197.379 215.147C197.679 215.743 197.905 216.379 198.217 216.968C199.2 218.657 200.119 220.38 200.9 222.161C201.576 223.693 202.658 224.121 204.283 224.271C213.76 225.144 222.757 222.831 231.737 220.362C233.032 219.969 234.321 219.576 235.622 219.206C240.254 217.593 244.886 216.014 249.06 213.332C251.101 212.025 251.986 210.348 251.98 207.949C251.98 206.526 251.344 204.913 252.68 203.682C258.451 210.209 262.695 217.599 264.568 226.138C265.655 231.094 261.943 236.448 256.566 238.286C255.004 238.818 253.385 239.344 251.761 239.471C250.043 239.604 249.847 240.414 249.87 241.83C249.887 243.039 249.691 244.282 249.407 245.462C248.725 248.306 247.094 250.388 244.255 251.394C243.521 252.116 242.613 252.487 241.642 252.793C237.953 253.944 234.246 255.031 230.528 256.1C229.956 256.233 229.389 256.401 228.828 256.569C219.53 258.945 210.134 260.749 200.593 261.813C198.87 262.003 197.141 261.928 195.413 261.876C194.892 261.824 194.412 261.662 194.019 261.304L194.031 261.298Z" fill="#FFCDBA"/>
<path d="M262.73 99.7925C264.626 95.9822 266.095 92.0274 266.991 87.7025C267.61 85.2973 267.13 82.3427 266.685 81.2615C265.875 79.579 264.545 78.8967 262.811 78.6597C254.912 77.5669 247.598 74.9477 241.237 70.0447C236.259 66.2055 232.916 61.1521 230.638 55.3413C228.377 49.5652 227.412 43.5405 227.678 37.3828C228.088 27.8542 230.887 19.2276 237.589 12.0639C244.042 5.1603 251.981 1.6507 261.244 0.569482C267.697 -0.187945 274.167 -0.0780895 280.597 0.25726C294.133 2.73191 301.141 6.17213 309.098 15.5561C312.613 20.9449 314.099 27.0621 314.874 33.4511C315.666 39.9846 315.048 46.3736 313.654 52.6932C311.127 64.1471 303.975 71.6809 293.208 75.9826C289.86 77.3183 286.437 78.3821 282.817 78.6539C281.603 78.7464 281.256 79.5963 281.042 80.5214C279.597 86.737 274.144 95.8897 262.741 99.804L262.73 99.7925Z" fill="#A569E5" fill-opacity="0.22"/>
<path d="M507.076 249.989C501.964 247.566 496.598 245.803 491.296 243.877C489.839 243.345 488.683 242.68 488.775 240.894C488.532 239.148 488.289 237.407 488.046 235.661C488.671 235.008 489.498 235.129 490.278 235.095C491.071 235.06 491.869 235.135 492.655 235.031C493.574 234.91 494.806 234.863 494.841 233.718C494.875 232.493 493.597 232.591 492.713 232.412C491.701 232.209 489.856 232.684 489.891 231.631C489.932 230.301 491.73 230.874 492.782 230.741C493.788 230.614 494.783 230.475 495.76 230.22C496.321 230.076 496.992 229.908 497.102 229.278C497.229 228.526 496.471 228.44 495.968 228.203C495.459 227.965 494.841 227.902 494.453 227.185C494.974 226.347 495.841 226.497 496.662 226.52C497.31 226.543 498.102 226.693 498.287 225.867C498.489 224.999 497.772 224.577 497.078 224.317C495.656 223.791 494.158 223.531 492.678 223.201C491.788 222.999 490.805 222.964 490.088 222.016C490.66 221.137 491.522 221.322 492.337 221.391C493.378 221.478 494.598 221.536 494.777 220.258C494.945 219.067 493.667 218.94 492.828 218.639C491.261 218.078 489.631 217.789 487.971 217.627C487.202 217.552 486.352 217.714 485.797 216.957C485.057 211.123 484.329 205.289 483.571 199.455C482.981 194.928 482.964 194.934 487.503 195.824C488.503 195.824 489.463 196.015 490.429 196.287C495.39 197.692 500.178 199.611 505.156 200.958C505.908 201.161 506.683 201.409 507.105 202.172C510.91 203.901 514.622 202.941 518.322 201.768C518.947 200.924 519.924 200.872 520.826 200.669C531.841 198.166 542.874 195.731 553.935 193.401C556.335 193.211 557.266 193.812 557.515 195.997C558.122 201.357 558.648 206.723 559.226 212.083C559.295 212.73 559.261 213.378 558.896 213.956C557.937 214.846 556.728 214.621 555.595 214.615C552.524 214.586 549.552 215.101 546.638 216.02C546.019 216.217 545.401 216.425 544.863 216.812C544.435 217.124 544.094 217.518 544.192 218.073C544.302 218.68 544.84 218.79 545.343 218.888C545.985 219.009 546.638 218.986 547.286 218.986C549.888 218.986 552.49 218.946 555.092 219.009C556.028 219.032 557.584 218.674 557.63 219.859C557.671 220.9 556.063 220.883 555.126 220.975C552.831 221.201 550.547 221.652 548.222 221.582C546.985 221.548 545.765 221.721 544.585 222.074C543.903 222.276 543.099 222.496 543.175 223.438C543.238 224.236 543.967 224.433 544.591 224.566C547.355 225.161 550.165 225.312 552.975 225.479C554.126 225.549 555.288 225.427 556.439 225.537C557.104 225.601 558.139 225.468 558.11 226.41C558.093 227.127 557.121 227.139 556.503 227.144C553.542 227.196 550.582 227.324 547.621 227.046C546.47 226.936 544.742 226.248 544.476 227.798C544.238 229.18 546.077 229.376 547.199 229.741C549.61 230.521 552.097 230.961 554.629 231.18C556.023 231.302 557.52 231.273 558.763 232.342C558.035 233.418 556.965 233.215 556.005 233.262C554.207 233.354 552.386 233.117 550.599 233.47C549.974 233.591 549.171 233.73 549.113 234.499C549.055 235.291 549.859 235.505 550.46 235.673C553.681 236.563 557.023 236.69 560.307 237.182C561.238 237.321 562.198 237.344 562.823 238.223C563.401 239.506 563.308 240.905 563.505 242.253C563.869 244.785 563.1 245.878 560.568 246.387C554.207 247.664 547.8 248.676 541.405 249.775C535.582 250.775 529.765 251.798 524.001 253.094C523.382 253.296 522.752 253.469 522.11 253.545C519.93 253.805 519.236 253.238 519.01 251.041C517.634 237.679 515.807 224.381 514.061 211.065C513.853 209.492 513.76 207.902 513.517 206.33C513.309 205.023 512.847 204.109 511.32 204.306C509.666 204.514 510.216 205.763 510.32 206.653C511.309 214.898 512.453 223.12 513.54 231.354C514.373 237.65 515.292 243.941 516.096 250.243C516.489 253.319 515.5 254.5 512.951 252.666C510.962 251.845 508.793 251.399 507.076 249.989Z" fill="#55408B"/>
<path d="M558.665 213.985C558.081 207.914 557.497 201.843 556.919 195.772C556.722 193.69 555.334 193.725 553.808 193.98C551.518 192.534 549.014 192.291 546.401 192.702C544.493 193.002 542.579 193.089 540.659 192.771C539.41 192.297 539.676 191.291 539.93 190.401C542.185 182.393 544.683 174.489 549.685 167.643C550.512 166.51 551.599 165.729 552.588 164.81C557.375 163.237 562.285 162.283 567.321 161.965C568.003 162.636 567.72 163.434 567.633 164.214C567.373 166.666 567.344 169.135 567.57 171.569C568.385 180.525 576.075 184.833 584.425 181.19C590.832 178.397 595.174 173.535 598.528 167.631C599.667 165.625 600.685 163.544 601.558 161.399C601.887 160.589 602.269 159.809 603.165 159.45C604.067 159.149 604.958 159.45 605.854 159.496C608.872 160.005 611.81 160.878 614.77 161.641C615.58 161.85 616.447 162.063 616.886 162.925C616.204 164.318 614.782 165.03 613.868 166.25C608.82 172.997 606.6 180.797 605.299 188.926C603.928 197.512 603.518 206.197 604.073 214.846C604.431 220.397 603.928 225.976 604.773 231.498C604.958 232.701 604.865 233.95 604.761 235.175C604.657 236.384 604.056 237.095 602.778 236.875C588.9 234.487 575.202 231.729 565.985 219.466C564.089 216.945 561.602 215.141 558.665 213.967V213.985Z" fill="#FFC446"/>
<path d="M603.391 159.728C602.512 160.155 602.35 161.04 602.009 161.832C599.147 168.545 595.568 174.801 589.427 179.051C585.431 181.814 581.089 183.942 575.919 182.792C572.178 181.959 569.646 179.646 568.171 176.229C566.39 172.118 566.708 167.788 567.211 163.474C567.269 162.977 567.287 162.468 567.321 161.971C572.861 160.901 572.78 160.901 572.884 155.119C572.918 153.229 572.508 152.385 570.525 151.702C563.476 149.274 559.984 143.538 557.873 136.831C555.965 130.772 555.705 124.545 556.294 118.225C556.607 114.86 556.491 111.449 556.566 108.061C558.093 98.3702 568.616 93.6638 576.012 94.7623C579.088 95.2191 582.089 95.9823 584.853 97.5203C590.895 100.891 593.411 106.419 594.371 112.929C594.689 115.103 594.891 117.306 595.729 119.705C596.938 118.537 597.736 117.427 598.777 116.566C601.014 114.716 603.437 113.964 606.184 115.346C608.861 116.693 610.075 119.017 609.954 121.897C609.751 126.69 607.421 130.552 603.125 132.397C600.06 133.715 598.962 135.606 598.713 138.531C598.684 138.89 598.609 139.248 598.528 139.601C598.158 144.099 598.06 148.603 598.719 153.078C599.1 155.651 600.031 157.935 602.778 158.924C603.113 159.045 603.368 159.323 603.385 159.733L603.391 159.728Z" fill="#FFCDBA"/>
<path d="M598.071 139.352C598.227 138.283 598.43 137.219 598.534 136.149C598.719 134.224 599.627 133.108 601.57 132.501C606.294 131.026 609.728 125.817 609.381 121.006C609.046 116.271 604.351 113.762 600.263 116.149C598.742 117.04 597.568 118.295 596.649 119.798C596.406 120.191 596.267 120.867 595.625 120.735C595.024 120.613 595.012 119.948 594.926 119.491C594.376 116.6 593.908 113.686 593.359 110.795C592.017 103.782 588.068 98.9194 581.268 96.5836C574.248 94.1725 567.645 94.7796 561.811 99.7752C559.22 101.995 557.937 105.06 556.566 108.061C556.306 104.875 556.393 101.654 557.179 98.5957C559.533 89.414 566.188 84.6613 574.919 82.6897C580.285 81.4755 585.842 81.7877 591.231 83.0771C597.586 84.6035 602.084 88.778 605.912 93.814C606.12 94.0858 606.311 94.3691 606.56 94.716C607.583 86.8584 601.622 80.5619 591.965 79.4171C595.174 76.8789 598.8 75.8439 602.524 75.3062C613.383 73.7393 624.288 79.9895 628.353 90.0038C630.666 95.7105 630.776 101.695 629.989 107.662C628.844 116.306 625.56 124.36 622.686 132.524C621.565 135.715 620.674 138.971 620.593 142.388C620.379 144.313 620.333 146.233 620.622 148.152C620.946 153.367 622.617 158.114 625.572 162.416C627.15 165.053 629.44 167.065 631.643 169.117C639.825 176.732 640.952 185.688 636.864 195.668C636.344 196.934 636.194 198.455 634.887 199.31C634.054 197.576 634.02 195.714 633.95 193.841C633.725 187.978 632.828 182.236 630.793 176.697C628.833 171.367 625.392 167.429 620.229 164.983C619.015 164.411 617.592 164.133 616.719 162.96C613.128 161.508 609.26 161.011 605.594 159.82C604.767 159.502 604.137 158.953 603.593 158.253C599.257 152.679 597.314 146.412 598.071 139.352Z" fill="#11051D"/>
<path d="M195.256 261.298C206.792 261.125 217.928 258.448 229.076 255.863C230.395 257.633 229.77 259.627 229.562 261.489C229.128 265.415 228.799 269.347 228.423 273.273C227.995 277.701 227.741 282.148 227.243 286.571C226.989 288.855 226.902 291.162 226.792 293.446C226.422 301.193 225.509 308.912 225.341 316.671C225.301 318.597 224.902 320.522 224.977 322.471C225.462 325.379 224.063 327.09 221.45 328.033C216.095 330.479 210.521 331.912 204.588 331.693C203.577 331.658 202.565 331.67 201.807 330.837C200.46 329.733 200.98 328.044 200.535 326.651C200.263 325.807 200.275 324.87 199.697 324.118C198.575 321.563 198.5 318.793 198.182 316.099C196.846 304.871 195.568 293.636 194.955 282.333C194.62 276.152 194.967 269.965 194.464 263.802C194.389 262.911 194.209 261.882 195.262 261.298H195.256Z" fill="#55408B"/>
<path d="M195.256 261.298C194.58 262.749 194.753 264.328 194.967 265.779C195.511 269.45 195.118 273.133 195.314 276.799C195.783 285.408 196.355 294.006 197.35 302.586C198.153 309.501 198.778 316.434 199.94 323.303C199.981 323.551 199.784 323.846 199.691 324.118C192.001 332.849 182.518 338.243 170.89 339.816C165.565 340.539 160.308 340.076 155.029 339.504C157.932 338.139 160.534 336.37 162.928 334.202C169.167 328.541 173.735 321.655 177.609 314.295C183.119 303.824 187.763 292.948 191.914 281.876C193.4 277.915 194.742 273.949 194.088 269.52C193.695 266.831 194.019 264.038 194.025 261.298C194.435 261.298 194.84 261.298 195.251 261.298H195.256Z" fill="#3C2774"/>
<path d="M201.802 330.837C207.96 331.727 213.794 330.461 219.495 328.229C220.091 327.998 220.704 327.796 221.311 327.582C221.519 327.501 221.756 327.472 221.924 327.616C225.804 331.109 230.534 333.121 235.217 335.208C242.341 338.382 249.551 341.354 256.507 344.898C257.525 345.419 258.768 345.419 259.607 346.315C259.3 346.725 258.265 346.28 258.433 347.176C258.948 349.894 257.039 350.715 255.102 351.403C251.887 352.548 248.493 352.981 245.122 353.074C232.783 353.415 220.444 353.409 208.249 351.033C207.266 350.842 206.283 350.576 205.335 350.252C199.876 348.385 198.084 345.211 199.333 339.556C199.986 336.601 200.761 333.676 201.802 330.831V330.837Z" fill="#FFCDBA"/>
<path d="M230.436 255.609C235.05 254.204 239.658 252.799 244.273 251.394C243.284 257.991 242.231 264.582 241.318 271.191C240.294 278.592 239.329 285.998 238.45 293.416C237.588 300.696 236.866 307.992 236.085 315.278C235.94 316.636 235.755 317.989 235.674 319.354C235.605 320.603 234.483 320.366 233.83 320.794C231.332 322.615 228.319 322.655 225.451 323.153C225.104 323.21 224.763 322.985 224.659 322.569C225.058 317.203 225.318 311.826 225.729 306.466C226.105 301.54 226.319 296.596 226.862 291.676C227.128 289.265 227.273 286.808 227.377 284.373C227.568 279.719 228.244 275.105 228.562 270.462C228.857 266.166 229.493 261.899 229.771 257.603C229.817 256.863 229.921 256.175 230.436 255.603V255.609Z" fill="#55408B"/>
<path d="M252.697 203.676C252.651 204.971 252.454 206.283 252.587 207.561C252.922 210.88 251.419 212.933 248.568 214.43C244.434 216.61 240.219 218.535 235.668 219.651C234.882 217.205 235.894 214.846 236.09 212.458C236.825 203.416 236.241 194.639 231.817 186.451C230.886 184.728 229.88 183.092 228.562 181.647C228.047 181.086 227.301 180.577 227.799 179.623C231.863 178.091 235.674 178.623 239.253 181.045C242.283 182.445 244.839 184.439 246.892 187.076C250.933 191.869 252.795 197.431 252.708 203.676H252.697Z" fill="#55408B"/>
<path d="M224.809 322.788C227.816 322.124 230.822 321.459 233.829 320.794C238.449 325.286 243.775 328.807 249.395 331.878C253.043 333.872 256.773 335.723 260.659 337.232C262.266 337.856 263.781 338.694 265.169 339.729C266.244 340.527 267.239 341.51 267.094 342.898C266.944 344.332 265.712 344.979 264.44 345.436C262.873 345.991 261.254 346.263 259.595 346.321C258.323 346.419 257.224 345.922 256.131 345.355C246.972 340.62 237.241 337.128 228.058 332.456C225.566 331.19 223.086 329.854 221.305 327.582C223.23 326.61 224.948 325.5 224.456 322.898C224.508 322.644 224.618 322.598 224.809 322.788Z" fill="#FFB79C"/>
<path d="M401.203 326.246C399.844 331.519 396.907 335.786 392.744 339.215C387.303 343.69 380.942 346.61 374.726 349.778C371.211 349.518 367.655 349.455 364.266 348.397C362.289 347.784 359.64 347.483 359.617 344.69C359.594 342.169 362.11 341.973 363.833 341.389C368.996 339.643 374.241 338.139 379.427 336.451C387.106 333.953 394.409 330.623 401.209 326.246H401.203Z" fill="#FFB79C"/>
<path d="M552.593 164.81C551.229 166.73 549.806 168.614 548.5 170.575C544.267 176.958 542.301 184.243 540.243 191.488C540.127 191.892 540.231 192.181 540.532 192.43C540.306 193.297 539.526 193.39 538.855 193.534C535.715 194.217 532.593 194.968 529.522 195.917C528.979 196.084 528.406 196.217 527.897 195.778C530.06 188.319 532.581 181.022 537.369 174.743C541.266 169.632 546.487 166.545 552.593 164.804V164.81Z" fill="#FFCDBA"/>
<path d="M485.113 217C487.854 217.093 490.577 217.301 493.144 218.382C494.116 218.792 495.446 219.093 495.018 220.544C494.648 221.811 493.434 222.14 492.219 222.129C491.45 222.129 490.681 221.782 489.791 222.1C492.121 222.655 494.37 223.117 496.573 223.742C497.712 224.06 498.811 224.719 498.481 226.182C498.279 227.078 497.597 227.72 496.533 227.35C495.764 227.078 495.012 226.922 493.937 227.269C494.717 227.483 495.243 227.662 495.787 227.766C496.608 227.922 497.441 228.2 497.464 229.13C497.487 230.05 496.631 230.397 495.874 230.686C493.821 231.472 491.653 231.351 489.496 231.657C490.785 231.796 492.086 231.865 493.358 232.097C494.197 232.247 495.128 232.507 495.186 233.623C495.243 234.843 494.289 235.167 493.387 235.444C491.404 236.04 489.369 235.577 487.362 235.704C485.246 234.864 484.433 233.193 484.922 230.692C484.991 230.327 484.847 230.188 484.581 230.038C483.835 229.616 483.835 228.893 483.795 228.159C483.714 226.598 484.327 225.141 483.581 223.401C483.135 222.36 483.54 220.666 483.089 219.197C482.673 217.844 483.777 217.145 485.113 217.012V217Z" fill="#FFB79C"/>
<path d="M527.234 196.13C527.678 195.902 528.134 195.698 528.607 195.542C532.513 194.249 536.574 193.547 540.532 192.43C544.169 192.493 547.772 191.545 551.444 192.204C552.681 192.424 553.392 192.887 553.814 193.979C547.234 195.442 540.654 196.917 534.068 198.368C528.823 199.518 522.75 200.867 517.5 202C508.178 204.727 510.462 203.342 518 200.5C521.713 198.643 524.386 197.589 527.234 196.13Z" fill="#FFB79C"/>
<path d="M418.642 339.978C418 336.237 420.712 334.005 422.695 331.635C428.241 325.009 434.127 318.695 440.268 312.595C447.929 304.986 453.416 295.914 457.198 285.808C457.441 285.166 458.603 282.171 459.563 281.853C459.453 284.969 456.897 289.78 455.683 292.416C451.728 301.002 446.316 308.554 439.533 315.168C433.971 320.591 428.379 326.032 424.222 332.681C423.603 333.664 422.048 334.774 423.771 336.162C421.892 337.209 420.059 338.313 418.642 339.978Z" fill="#FFB79C"/>
<path d="M507.105 202.178C500.571 200.062 494.038 197.946 487.504 195.824C487.214 194.754 486.914 193.69 487.839 192.754C488.706 191.881 489.608 192.517 490.464 192.742C497.599 194.656 504.888 198.721 511 203C510.5 203.5 509 203 507.105 202.172V202.178Z" fill="#FFB79C"/>
<path d="M616.719 162.954C625.514 165.533 630.417 171.661 632.626 180.3C634.222 186.538 634.603 192.916 634.887 199.305C634.297 201.64 634.522 204.034 634.592 206.387C634.719 210.649 634.939 215.054 633.956 219.084C632.204 226.3 632.366 233.742 630.625 240.928C629.555 245.334 628.578 249.775 626.647 253.874C623.814 259.876 619.864 264.727 612.729 265.889C610.584 266.236 608.577 265.704 606.536 265.403C605.75 265.288 604.975 265.172 604.189 265.143C601.396 264.894 598.985 263.518 596.562 262.339C585.234 256.811 574.849 249.908 565.962 240.899C564.933 239.859 563.678 239.171 562.551 238.286C558.786 237.714 555.011 237.199 551.258 236.552C549.905 236.32 547.875 236.245 547.974 234.47C548.083 232.556 550.142 232.735 551.593 232.678C553.889 232.585 556.19 232.655 558.503 232.498C554.791 231.747 550.957 231.706 547.349 230.475C546.54 230.197 545.713 229.949 544.915 229.642C543.909 229.261 543.093 228.625 543.348 227.433C543.619 226.167 544.707 226.017 545.747 226.185C549.043 226.711 552.368 226.572 555.681 226.636C556.381 226.647 557.115 226.838 558.301 226.167C554.693 226.086 551.57 226.213 548.482 225.722C547.066 225.497 545.632 225.41 544.203 225.254C543.076 225.132 542.272 224.606 542.226 223.386C542.174 222.137 542.995 221.536 544.094 221.415C547.17 221.073 550.258 220.825 553.334 220.524C554.75 220.385 556.161 220.206 557.572 219.599C555.739 219.599 553.9 219.593 552.067 219.599C549.83 219.611 547.592 219.605 545.36 219.668C544.313 219.697 543.417 219.449 543.168 218.373C542.926 217.321 543.591 216.616 544.516 216.176C547.76 214.627 551.223 214.089 554.773 214.019C556.069 213.991 557.37 213.996 558.671 213.991C562.464 213.904 564.557 216.668 566.5 219.148C572.062 226.254 579.267 230.66 587.848 233.025C592.763 234.383 597.741 235.476 602.778 236.32C603.911 236.511 604.252 236.257 604.212 235.21C603.957 229.023 603.616 222.843 603.472 216.65C603.333 210.886 603.142 205.127 603.622 199.351C604.038 194.332 604.408 189.325 605.513 184.405C607.068 177.461 609.358 170.835 613.903 165.191C614.683 164.226 615.551 163.411 616.725 162.96L616.719 162.954Z" fill="#FFCDBA"/>
<path d="M526.047 306.779C528.198 298.776 529.794 290.699 530.054 282.373C530.291 274.741 528.632 267.693 524.307 261.333C526.828 260.471 529.407 260.998 531.939 261.148C536.455 261.42 540.977 261.819 545.499 261.824C552.923 261.836 560.243 262.882 567.593 263.594C570.304 263.698 572.571 265.056 574.734 266.444C578.885 269.11 582.528 272.411 585.656 276.239C587.339 278.291 589.536 279.933 590.652 282.443C590.739 283.397 590.114 283.801 589.363 284.102C584.332 288.005 580.036 292.705 575.335 296.967C567.408 304.165 558.011 307.762 547.499 309.005C540.578 309.826 533.853 309.039 527.18 307.287C526.77 307.178 526.302 307.212 526.047 306.773V306.779Z" fill="#55408B"/>
<path d="M590.439 282.5C586.553 278.066 582.818 273.492 578.256 269.688C575.231 267.167 571.97 265.166 568.223 263.969C557.896 262.136 547.367 261.553 537.155 259.014C533.293 258.054 529.627 256.574 526.186 254.556C525.336 254.059 524.342 253.672 524.053 252.556C529.708 250.943 535.536 250.203 541.307 249.145C547.957 247.925 554.624 246.809 561.285 245.675C562.609 245.45 563.147 244.75 563.019 243.444C562.846 241.726 562.707 240.003 562.557 238.28C563.736 238.205 564.627 238.766 565.402 239.576C572.219 246.699 580.117 252.411 588.531 257.476C593.532 260.489 598.887 262.767 604.195 265.143C602.743 268.612 601.292 272.076 599.835 275.545C599.812 276.094 599.488 276.493 599.077 276.782C596.562 278.54 594.174 280.471 591.647 282.217C591.3 282.46 590.896 282.645 590.439 282.506V282.5Z" fill="#FFC446"/>
<path d="M590.439 282.5C593.567 280.182 596.701 277.857 599.829 275.539C603.547 273.365 607.184 271.035 611.006 269.051C617.008 265.935 623.01 262.767 629.486 260.685C629.966 260.529 630.411 260.269 630.903 260.65C630.868 261.454 630.18 261.454 629.683 261.651C616.436 266.796 604.079 273.532 592.734 282.118C591.717 282.887 591.179 284.657 589.357 284.107C589.473 283.408 590.479 283.304 590.433 282.5H590.439Z" fill="#C2466E"/>
<path d="M523.977 253.04C531.06 257.821 539.103 259.689 547.401 260.892C554.345 261.898 561.411 262.227 568.147 264.453C566.447 265.072 564.736 264.442 563.105 264.251C556.247 263.47 549.384 263.1 542.486 262.962C536.397 262.834 530.314 262.221 524.231 261.823C518.767 260.782 513.297 259.741 507.827 258.7C507.509 258.272 507.503 257.833 507.809 257.394C508.145 255.017 507.416 252.29 507 250C509.562 250.266 511.707 252.201 514.101 252.936C514.546 253.075 514.991 253.641 515.459 253.161C515.841 252.774 515.644 252.207 515.581 251.71C514.453 243.407 513.32 235.104 512.192 226.802C511.238 219.777 510.325 212.746 509.319 205.727C509.163 204.617 509.29 204.154 510.516 204.067C513.684 203.842 513.91 203.969 514.338 207.953C515.436 218.065 516.818 228.143 518.212 238.221C518.836 242.76 519.183 247.345 519.542 251.918C519.634 253.138 520.022 253.664 521.219 253.491C522.138 253.358 523.057 253.19 523.977 253.034V253.04Z" fill="#3C2774"/>
<path d="M507.885 256.909C507.891 257.343 507.897 257.782 507.902 258.216C496.864 257.852 487.248 261.587 478.575 268.219C474.544 271.301 469.887 273.731 466.019 277.027C465.92 277.113 465.249 275.893 465.04 275.853C464.519 275.461 464.388 275.396 464.113 275.18C464.339 274.619 464.732 274.174 465.281 273.966C471.312 271.665 476.597 268.022 481.865 264.432C489.763 259.043 498.471 256.857 507.879 256.915L507.885 256.909Z" fill="#FFB79C"/>
<path d="M184.865 145.602C187.23 143.827 189.289 141.665 191.81 140.086C192.775 141.145 192.157 142.278 191.92 143.353C190.809 148.418 190.757 153.506 191.711 158.571C192.4 162.22 193.874 163.231 197.604 163.15C199.801 163.104 200.032 162.688 198.922 160.82C196.395 156.565 194.631 152.026 194.007 147.088C193.648 144.221 193.845 141.335 193.828 138.462C194.909 136.357 195.406 133.987 196.748 132.003C197.158 131.396 196.962 131.09 196.464 130.575C193.834 127.881 193.417 123.845 195.337 120.654C197.864 116.45 202.305 116.167 205.225 120.104C206.745 122.151 208.312 124.071 210.596 125.325C214.528 127.476 218.454 127.574 222.6 125.834C229.152 123.082 231.794 124.406 233.939 131.269C235.373 135.854 235.181 138.716 237.5 143C237.702 143.376 238 144 239.126 146.053C240.252 148.107 240.138 148.626 239.045 149.933C235.576 154.067 232.366 158.432 228.209 161.942C228.053 162.526 227.718 162.977 227.226 163.324C221.455 167.36 215.193 170.1 208.15 167.822C204.155 166.527 200.547 166.007 196.326 166.729C190.22 167.776 185.767 164.243 182.188 159.606C181.662 158.924 181.246 158.149 180.604 157.554C180.043 156.195 178.869 154.969 179.667 153.304C180.575 150.182 182.575 147.805 184.848 145.602H184.865Z" fill="#FFCDBA"/>
<path d="M232.181 220.86C225.382 223.057 218.385 224.398 211.302 225.127C208.405 225.427 205.415 224.71 202.449 224.884C201.495 224.942 201.293 224.149 200.969 223.542C199.83 221.38 198.725 219.194 197.609 217.02C198.396 210.608 200.009 204.358 201.009 198.738C200.171 202.814 199.217 207.619 198.28 212.43C198.078 213.47 198.257 214.812 196.979 215.436C194.036 210.128 192.093 204.381 189.693 198.836C189.329 197.986 189.034 197.108 188.71 196.246C191.087 195.437 191.214 193.841 190.532 191.707C189.555 188.66 188.797 185.544 187.941 182.462C188.011 182.237 188.121 182.028 188.265 181.832C193.244 177.039 198.962 174.159 206.098 174.31C210.111 174.391 214.031 174.691 217.789 176.142C220.305 177.114 222.652 178.357 224.416 180.49C230.158 187.625 231.69 196.182 232.8 204.919C233.349 209.244 233.159 213.563 233.228 217.888C233.245 219.027 232.974 220.021 232.176 220.854L232.181 220.86Z" fill="#55408B"/>
<path d="M156.677 213.603C156.706 213.881 156.729 214.153 156.758 214.424C156.486 214.505 156.186 214.54 155.943 214.673C152.04 216.807 151.982 216.847 149.669 213.17C144.754 205.353 140.573 197.154 137.087 188.603C136.809 187.92 136.584 187.261 137.041 186.215C138.567 189.499 140.024 192.557 141.418 195.639C144.355 202.144 147.871 208.336 151.67 214.372C152.213 215.234 152.658 215.355 153.572 214.922C154.584 214.442 155.393 213.43 156.683 213.592L156.677 213.603Z" fill="#C2466E"/>
<path d="M188.404 182.19C188.248 182.283 188.097 182.375 187.941 182.468C185.519 175.553 183.078 168.649 180.991 161.618C179.846 157.756 178.626 153.917 177.412 150.078C177.128 149.187 176.891 148.337 177.458 147.123C178.522 149.274 178.522 151.512 179.678 153.304C180.089 154.616 180.5 155.935 180.91 157.247C181.65 158.404 182.124 159.681 182.518 160.988C184.235 166.724 186.224 172.373 188.167 178.039C188.618 179.357 189.341 180.751 188.404 182.19Z" fill="#C2466E"/>
<path d="M131.472 267.994C131.027 270.879 128.766 272.654 127.222 274.845C123.371 280.297 119 285.397 116.317 291.607C116.143 292 115.895 292.503 115.397 292.22C114.935 291.96 115.201 291.468 115.38 291.063C117.149 287.097 119.549 283.518 122.116 280.037C124.967 276.169 127.835 272.313 130.697 268.45C130.957 268.294 131.218 268.144 131.478 267.988L131.472 267.994Z" fill="#3C2774"/>
<path d="M188.405 182.19C188.405 180.057 187.647 178.085 186.925 176.142C184.832 170.545 183.143 164.821 181.327 159.138C181.131 158.525 181.05 157.883 180.911 157.253C182.565 158.444 183.374 160.352 184.814 161.763C189.203 166.059 194.205 167.487 200.05 165.475C201.75 164.891 203.098 165.111 204.722 165.96C211.719 169.626 218.392 168.025 224.816 164.255C225.995 163.561 227.082 162.717 228.216 161.942C232.362 168.036 236.56 174.107 239.243 181.045C235.548 179.635 231.766 179.004 227.834 179.854C226.672 180.837 225.388 181.057 223.977 180.456C217.785 175.344 210.476 174.327 202.837 175.015C197.98 175.454 193.829 177.802 190.082 180.855C189.527 181.306 188.96 181.745 188.405 182.19Z" fill="#E56990"/>
<path d="M193.828 138.462C194.851 139.219 194.458 140.329 194.412 141.266C194.076 147.771 195.684 153.784 198.806 159.439C199.049 159.878 199.257 160.346 199.552 160.745C201.53 163.388 203.71 164.446 203.004 165.03C202.553 165.411 202.096 165.006 196.915 164.209C190.572 163.312 190.665 161.636 190.555 155.675C190.468 150.951 190.127 146.181 191.735 141.584C191.891 141.133 191.787 140.584 191.804 140.081C192.475 139.537 193.151 139 193.822 138.456L193.828 138.462Z" fill="#FFB79C"/>
<path d="M223.977 180.456C225.26 180.253 226.55 180.057 227.833 179.854C232.465 184.665 234.911 190.568 236.189 196.98C237.224 202.155 237.166 207.388 236.628 212.638C236.385 214.991 236.143 217.338 235.657 219.657C234.495 220.062 233.332 220.46 232.176 220.865C233.043 216.725 232.795 212.516 232.482 208.388C232.031 202.404 231.216 196.425 229.233 190.678C228.14 187.515 226.746 184.555 224.601 181.976C224.225 181.519 223.838 181.103 223.965 180.456H223.977Z" fill="#3C2774"/>
<path d="M224.81 322.788C224.7 322.852 224.584 322.887 224.457 322.898C224.48 316.498 225.012 310.126 225.561 303.76C225.758 301.471 225.891 299.164 226.001 296.88C226.411 288.409 227.348 279.979 227.869 271.52C228.192 266.299 229.407 261.142 229.071 255.863C229.47 255.47 229.968 255.638 230.436 255.614C229.904 261.044 229.366 266.473 228.834 271.896C228.499 275.325 228.1 278.754 227.869 282.194C227.227 291.734 226.799 301.291 225.995 310.814C225.66 314.804 225.885 318.868 224.81 322.788Z" fill="#3C2774"/>
<path d="M196.979 215.448C198.506 210.637 198.911 205.595 200.085 200.715C200.426 199.293 200.501 197.778 201.6 196.211C202.004 198.379 201.195 200.027 200.9 201.721C200.096 206.387 199.171 211.036 198.257 215.679C198.165 216.153 197.829 216.581 197.61 217.026C197.402 216.5 197.188 215.974 196.979 215.448Z" fill="#3C2774"/>
<path d="M581.702 119.815C581.551 121.191 581.083 122.4 579.499 122.504C577.891 122.614 577.353 121.382 577.417 120.093C577.475 118.792 577.932 117.392 579.568 117.34C581.095 117.294 581.557 118.468 581.708 119.815H581.702Z" fill="#11051D"/>
<path d="M585.125 113.513C584.905 114.351 584.327 114.507 583.679 114.062C581.737 112.732 579.695 112.68 577.521 113.368C577.024 113.524 576.284 113.657 576.064 112.906C575.85 112.189 576.446 111.911 576.989 111.686C579.453 110.639 581.858 110.628 584.148 112.16C584.616 112.472 585.09 112.831 585.131 113.519L585.125 113.513Z" fill="#11051D"/>
<path d="M566.124 119.382C565.956 120.469 565.603 121.752 563.892 121.654C562.423 121.567 562.111 120.463 562.122 119.197C562.14 117.693 562.822 116.566 564.349 116.624C565.678 116.676 566.182 117.815 566.124 119.382Z" fill="#11051D"/>
<path d="M573.537 139.433C571.704 139.612 569.923 139.104 568.218 138.259C567.801 138.057 567.061 137.999 567.477 137.294C567.819 136.716 568.177 137.317 568.53 137.473C571.352 138.681 574.202 139.121 577.059 137.594C577.816 137.19 578.522 136.669 578.978 135.889C579.227 135.467 579.528 134.836 580.1 135.264C580.725 135.733 580.262 136.276 579.898 136.745C578.308 138.797 576.191 139.63 573.543 139.427L573.537 139.433Z" fill="#11051D"/>
<path d="M563.205 109.94C564.72 109.76 565.801 110.448 566.738 111.402C567.079 111.749 567.414 112.189 566.957 112.726C566.535 113.224 565.992 113.183 565.616 112.831C563.904 111.223 562.129 111.426 560.267 112.489C559.891 112.709 559.382 112.813 559.145 112.304C558.955 111.9 559.082 111.472 559.492 111.171C560.626 110.339 561.834 109.743 563.21 109.94H563.205Z" fill="#11051D"/>
<path d="M570.415 119.728C569.432 122.463 568.536 125.233 567.425 127.916C566.691 129.691 566.5 130 568.282 130.674C568.825 130.743 570.458 131.237 571 131.5C568.5 131.5 567.5 131 566.523 130.674C565.934 130.558 566.072 130.055 566.2 129.627C567.24 126.164 568.212 122.677 570.415 119.723V119.728Z" fill="#11051D"/>
<path d="M222.97 142.613C221.669 143.058 220.258 143.099 218.934 142.717C217.812 142.394 216.737 141.856 215.91 140.751C215.314 139.965 215.077 139.063 215.303 138.103C215.436 137.537 215.904 136.669 216.453 137.005C216.708 137.167 216.523 137.999 216.633 138.549C217.205 141.486 219.917 142.301 222.739 141.087C223.167 140.902 223.357 140.746 223.837 140.879C223.843 140.879 223.849 140.879 223.855 140.879C224.404 141.029 224.514 141.775 224.04 142.093C223.745 142.289 223.45 142.446 222.97 142.607V142.613Z" fill="#11051D"/>
<path d="M227.058 137.982C227.064 138.595 226.631 138.734 226.197 138.629C223.826 138.04 221.75 136.727 219.524 135.779C219.183 135.634 219.067 135.235 219.316 134.865C219.518 134.559 219.836 134.201 220.178 134.357C222.433 135.403 224.665 136.502 226.897 137.595C226.989 137.641 227.006 137.849 227.058 137.982Z" fill="#11051D"/>
<path d="M220.039 154.148C223.566 155.958 224.15 153.049 225.353 151.176C226.949 148.696 227.839 145.909 228.88 143.186C228.493 147.632 226.365 151.39 223.907 154.911C222.838 156.449 221.392 154.859 220.039 154.148Z" fill="#11051D"/>
<path d="M206.416 153.564C211.181 153.015 215.355 155.773 217.084 160.751C214.517 156.854 211.175 154.154 206.416 153.564Z" fill="#11051D"/>
<path d="M231.494 149.112C231.558 148.8 231.604 148.366 231.725 147.961C231.887 147.418 232.084 146.73 232.807 146.903C233.501 147.071 233.182 147.684 233.067 148.158C232.703 149.684 233.235 150.806 234.588 151.581C234.958 151.795 235.414 152.072 235.166 152.57C234.871 153.159 234.264 152.963 233.836 152.778C232.321 152.101 231.581 150.858 231.488 149.112H231.494Z" fill="#11051D"/>
<path d="M239.6 147.626C239.519 148.256 239.259 148.725 238.767 148.395C237.235 147.366 235.529 146.499 234.691 144.695C234.529 144.342 234.465 144.007 234.807 143.729C235.148 143.451 235.518 143.504 235.726 143.856C236.507 145.215 237.79 146.013 238.993 146.909C239.265 147.111 239.444 147.435 239.606 147.626H239.6Z" fill="#11051D"/>
<path d="M546.337 100.035C544.441 96.2251 542.972 92.2703 542.076 87.9455C541.457 85.5402 541.937 82.5856 542.382 81.5044C543.192 79.8219 544.522 79.1396 546.256 78.9026C554.155 77.8098 561.469 75.1906 567.83 70.2876C572.808 66.4484 576.151 61.395 578.429 55.5842C580.69 49.8081 581.655 43.7834 581.389 37.6257C580.979 28.0971 578.18 19.4706 571.479 12.3068C565.026 5.40322 557.087 1.89362 547.823 0.812402C541.37 0.0549746 534.9 0.16483 528.47 0.50018C514.934 2.97483 507.926 6.41505 499.969 15.7991C496.454 21.1878 494.968 27.305 494.193 33.694C493.401 40.2275 494.019 46.6165 495.413 52.9361C497.94 64.39 505.093 71.9239 515.859 76.2256C519.207 77.5612 522.63 78.6251 526.25 78.8968C527.464 78.9893 527.811 79.8393 528.025 80.7644C529.47 86.9799 534.923 96.1326 546.326 100.047L546.337 100.035Z" fill="#A569E5" fill-opacity="0.22"/>
<path d="M252.171 239.142C246.661 239.812 241.133 240.009 235.588 239.992C230.095 239.974 224.607 240.055 219.114 239.957C217.218 239.922 215.824 240.529 214.535 241.882C211.95 244.606 209.307 247.283 206.567 249.844C204.15 252.111 201.519 254.134 198.5 255.574C197.864 255.875 197.124 256.401 196.534 255.684C196.043 255.082 196.303 254.319 196.633 253.643C197.061 252.77 197.789 252.215 198.529 251.625C200.426 250.104 202.109 248.37 204.028 246.184C202.536 246.242 201.999 246.704 201.467 247.196C199.668 248.855 197.911 250.567 196.043 252.145C193.73 254.099 191.33 255.921 188.133 256.245C187.306 256.331 186.687 256.117 186.207 255.574C185.589 254.874 186.126 254.198 186.485 253.602C187.023 252.712 187.873 252.151 188.815 251.735C192.417 250.145 195.228 247.358 198.512 245.294C198.992 244.993 199.593 244.426 199.2 243.889C198.645 243.12 198.234 244.004 197.847 244.305C194.164 247.213 190.145 249.601 186.184 252.099C186.045 252.186 185.901 252.261 185.756 252.33C184.322 252.949 182.541 253.741 181.917 252.313C181.402 251.133 183.415 249.52 184.224 248.93C187.682 247.144 190.741 244.721 193.95 242.536C194.36 242.258 194.8 241.738 194.418 241.252C193.921 240.616 193.557 241.316 193.204 241.593C189.74 244.317 186.017 246.629 182.09 248.624C181.362 248.994 180.633 249.387 179.997 248.474C179.465 247.705 179.274 246.936 179.83 246.063C180.188 245.496 180.645 245.086 181.194 244.715C184.293 242.617 187.398 240.518 190.457 238.355C192.331 237.026 194.279 235.782 195.904 234.123C196.494 233.528 197.014 232.886 196.592 232.03C196.135 231.105 195.332 231.325 194.516 231.544C192.984 231.961 191.458 232.29 190.122 233.262C188.381 234.522 186.335 234.499 184.317 234.325C182.495 234.169 181.819 232.475 182.963 231.036C183.362 230.533 183.842 230.035 184.392 229.729C187.688 227.902 191.18 226.722 194.921 226.023C197.147 225.606 200.628 226.26 202.704 224.959C202.716 224.843 201.866 224.808 201.773 224.739C199.495 223.727 196.87 224.548 194.667 224.907C190.619 225.566 186.664 226.745 183.218 229.174C181.72 230.226 180.836 231.591 181.368 233.383C181.882 235.146 183.362 235.609 185.12 235.678C187.254 235.759 189.058 234.967 190.868 234.042C191.695 233.62 192.475 233.03 193.47 233.053C193.811 233.059 194.268 232.978 194.355 233.441C194.395 233.666 194.233 234.002 194.054 234.181C193.649 234.58 193.192 234.944 192.718 235.268C189.22 237.673 185.733 240.096 182.2 242.455C180.917 243.31 179.818 244.374 178.922 245.565C178.332 246.352 177.598 247.462 178.621 248.485C179.494 249.353 180.205 250.665 181.842 250.017C182.015 249.948 182.183 249.867 182.356 249.792C181.68 250.544 181.177 251.104 181.061 252.243C180.87 254.117 184.23 254.296 184.236 254.296C184.559 254.446 184.82 254.66 184.669 255.106C184.056 256.909 185.67 257.17 186.994 257.291C189.393 257.511 191.562 256.788 193.499 255.424C194.516 254.707 194.979 254.672 195.002 256.106C195.037 257.968 196.303 258.141 197.523 257.441C199.454 256.337 201.472 255.389 203.294 254.053C207.804 250.74 211.487 246.571 215.437 242.68C216.431 241.703 217.408 241.212 218.842 241.235C223.827 241.321 228.811 241.321 233.795 241.252C236.958 241.206 240.121 241.466 243.29 240.917C245.152 240.593 247.528 240.229 249.222 239.974L251.414 239.512C251.963 239.5 252.732 239.361 253.276 239.217C253.044 238.887 252.524 239.084 252.142 239.13L252.171 239.142Z" fill="#FFB79C"/>
<path d="M266.892 36.6045C274.066 38.501 278.305 37.3239 277.653 33.2695C277.001 29.2151 271.131 22.8719 265.653 25.2261C260.175 27.5802 255.74 28.7573 254.697 36.6045C253.653 44.4518 244.979 46.7406 256.588 53.0837C268.196 59.4269 286.327 65.0508 292.392 57.9229C298.457 50.795 303.739 37.9124 297.022 29.4766C290.305 21.0409 285.218 10.0548 277.653 15.9402C270.716 21.337 263.724 21.1252 275.936 34.7167C278.379 37.4353 280.476 40.5053 281.734 43.9368C288.968 63.6633 288.038 73.9049 269.631 61.7811C249.675 48.637 244.784 51.8413 244.588 42.5554C244.392 33.2695 255.088 11.6896 267.935 15.9402C280.783 20.1908 289.066 17.248 286.718 26.9263C284.37 36.6045 285.674 37.1277 273.022 45.1057C260.37 53.0837 255.74 50.2718 254.697 57.9229C253.653 65.5739 272.762 64.0699 279.74 64.266C286.718 64.4622 300.413 69.1052 302.305 57.9229C304.196 46.7406 319.717 44.2556 301.196 38.7625C282.674 33.2695 264.153 22.2834 256.588 21.2371C249.023 20.1908 242.957 17.1827 239.566 25.2261C236.175 33.2695 234.479 38.7626 236.175 47.1983C237.871 55.6341 230.501 61.9119 246.284 65.3123C262.066 68.7128 280.406 90.2927 267.935 61.7811C255.465 33.2695 246.675 11.1011 249.414 10.0548C252.153 9.00846 265.457 4.5617 277.653 14.0438C289.848 23.5258 310.714 35.6237 304.196 42.5554C297.678 49.4871 297.297 55.5898 282.283 57.9229C267.269 60.2559 249.414 41.6399 256.588 40.2012C263.762 38.7625 288.74 42.6208 291.087 45.1057C293.435 47.5907 296.239 59.2962 302.305 63.0236C308.37 66.751 344.369 74.5982 358.391 71.7863C372.412 68.9744 408.021 58.3806 409.977 49.2909C411.934 40.2012 401.825 34.0542 396.803 38.7625L394.776 41.1736C394.373 41.6534 393.629 41.6519 393.204 41.1902C392.533 40.4598 391.527 39.4459 390.543 38.7625C388.847 37.5855 386.043 36.9315 382.977 38.7625C379.604 40.7776 374.434 48.964 387.803 55.6341C401.173 62.3042 418.651 65.6393 443.107 61.7811C462.672 58.6945 477.802 51.6451 479.628 47.1983C481.454 42.7516 474.437 38.6187 471.672 47.1983C469.059 55.3056 491.552 61.4431 505.024 63.8784C506.527 64.1501 507.995 64.5143 509.453 64.9719C526.793 70.4173 559.871 76.5199 569.171 61.7811C581.301 42.5554 570.149 22.0218 560.301 14.0438C550.454 6.06577 522.736 -2.3046 509.498 15.9402C499.976 29.4767 497.106 44.3864 502.193 53.0837C507.28 61.7811 545.693 78.3911 557.432 67.0126C569.171 55.6341 576.671 33.2695 560.301 18.4252C543.932 3.58085 518.628 2.86148 508.78 22.2834C498.932 41.7053 500.628 48.4073 509.498 57.9229" stroke="#55408B" stroke-width="2" stroke-linecap="round"/>
<path d="M513.973 204.827C514.05 205.209 517.844 237.075 520 252.5C520.272 254.449 515.717 254.143 515.5 252.5C513.51 237.399 509.436 206.775 509.038 204.827C508.541 202.391 513.478 202.391 513.973 204.827Z" fill="#11051D"/>
</svg>
