<svg width="18" height="32" viewBox="0 0 18 32" fill="none" xmlns="http://www.w3.org/2000/svg">
<path d="M9.20009 17.7255C9.41036 17.0302 9.47006 16.3766 9.582 15.7342C9.80489 14.4557 10.0151 13.1752 10.2436 11.8976C10.3623 11.2354 10.2721 10.6743 9.76091 10.1622C8.71483 9.11477 8.17089 7.79552 7.88936 6.35979C7.6453 5.11586 7.5778 3.85721 7.62144 2.59228C7.63854 2.08121 7.65366 1.56911 7.6979 1.05943C7.72922 0.700475 7.92378 0.5942 8.26037 0.73366C9.19313 1.11974 9.85102 1.825 10.383 2.64877C11.2627 4.01223 11.7594 5.50779 11.8119 7.13589C11.8434 8.11144 11.6886 9.06272 11.416 10.0027C11.168 10.86 10.8534 11.7011 10.7111 12.5866C10.6425 13.0132 10.6154 13.4463 10.6101 13.8958C10.8615 13.4793 11.1134 13.0635 11.364 12.6469C12.4124 10.9039 13.8155 9.5417 15.6601 8.65903C16.1631 8.41829 16.6779 8.19887 17.2337 8.112C17.5739 8.05892 17.7343 8.23404 17.6867 8.5818C17.627 9.01122 17.4408 9.39839 17.2632 9.78548C16.6808 11.0564 15.8743 12.1551 14.7463 13C14.0109 13.5507 13.1942 13.9316 12.2788 14.0296C11.3525 14.1287 10.8419 14.6781 10.5287 15.4877C10.1862 16.3734 9.94047 17.2894 9.69203 18.2044C9.4119 19.2382 9.12697 20.2706 8.92734 21.3236C8.91158 21.4055 8.90144 21.4882 8.88472 21.5943C9.041 21.562 9.07786 21.4331 9.1408 21.3443C9.71613 20.5298 10.3175 19.7332 11.0793 19.0828C12.3786 17.9731 13.8591 17.2629 15.5859 17.1378C16.1372 17.0977 16.3785 17.4124 16.1273 17.9011C14.9512 20.1903 13.2112 21.73 10.5486 21.9918C9.34052 22.1107 8.61015 22.7667 8.39895 23.9663C8.33462 24.3338 8.21675 24.6892 8.16614 25.061C7.91824 26.8961 7.91228 28.7312 8.1306 30.5684C8.15269 30.7528 8.16369 30.939 8.19233 31.1229C8.22905 31.3607 8.14547 31.5349 7.91865 31.6036C7.71305 31.6657 7.53416 31.5215 7.47802 31.2424C7.35729 30.6419 7.2897 30.0332 7.25353 29.4215C7.17978 28.1706 7.26735 26.9284 7.43867 25.6893C7.48549 25.3508 7.51637 25.0084 7.4608 24.6617C7.34347 23.9299 6.94004 23.4787 6.22053 23.2883C5.09386 22.9906 4.05487 22.5063 3.1743 21.7293C2.16351 20.8373 1.42855 19.7481 0.946896 18.4906C0.799543 18.1049 0.966338 17.8732 1.34897 17.9306C3.53434 18.2581 5.36561 19.1747 6.58065 21.1062C7.00333 21.778 7.34664 22.4921 7.70344 23.1982C7.74414 23.2781 7.75997 23.4154 7.86172 23.4047C7.97597 23.3925 7.93674 23.253 7.95435 23.1686C8.19001 22.065 8.38137 20.9502 8.66754 19.8596C8.92838 18.8659 8.67258 18.0122 8.18444 17.1708C7.86433 16.6203 7.37124 16.2905 6.82922 16.0063C5.14323 15.1226 3.77242 13.9016 2.82213 12.2366C2.54967 11.7585 2.32844 11.2567 2.26308 10.7024C2.2227 10.3552 2.36552 10.2026 2.71162 10.2542C4.2322 10.4828 5.57782 11.0773 6.66345 12.1936C7.67969 13.2384 8.21671 14.5422 8.64397 15.9029C8.82721 16.4858 9.00147 17.071 9.2009 17.725L9.20009 17.7255Z" fill="#05C5C8"/>
</svg>
