<svg width="16" height="16" viewBox="0 0 16 16" fill="none" xmlns="http://www.w3.org/2000/svg">
<path d="M7.33569 14.1953C6.83293 14.6163 6.2843 14.9389 5.60827 14.9968C4.73362 15.0718 3.83358 14.5375 3.75881 13.5716C3.71776 13.0422 3.93613 12.6094 4.26905 12.2318C5.22626 11.1474 6.48788 10.7651 7.89367 10.7385C8.68411 10.7233 9.47475 10.7625 10.2911 10.816C10.0294 10.4269 9.69116 10.1703 9.30018 9.96417C8.75241 9.67531 8.23015 9.74188 7.68818 9.96628C6.5972 10.4184 5.46525 10.7352 4.27456 10.8059C3.48603 10.8528 2.70414 10.7922 1.94847 10.5157C1.4638 10.3387 1.02622 10.0867 0.690154 9.67779C0.192948 9.07252 0.1664 8.24045 0.647432 7.63259C1.18725 6.95112 1.92629 6.70156 2.77923 6.70151C4.08579 6.70149 5.28458 7.12277 6.43883 7.70421C7.31928 8.14714 8.13887 8.70071 8.98819 9.20122C9.03339 9.22767 9.07854 9.25483 9.1473 9.29602C9.08385 9.07452 8.93492 8.92984 8.82511 8.76878C8.55202 8.36861 8.1969 8.06098 7.75714 7.83813C6.97888 7.44347 6.22103 7.01027 5.53532 6.4589C4.80073 5.8682 4.11193 5.23419 3.58879 4.44102C3.12664 3.74023 2.77771 2.99315 2.73175 2.1435C2.70484 1.64473 2.76554 1.15992 3.12094 0.77799C3.51875 0.350279 4.02425 0.254567 4.5838 0.376968C5.20666 0.513195 5.73603 0.837559 6.20306 1.26383C7.32312 2.28639 7.96862 3.58766 8.4141 5.00583C8.68383 5.86505 8.80624 6.74874 8.91238 7.63484C8.97387 8.14437 9.24391 8.51848 9.61652 8.84065C9.64572 8.86595 9.67807 8.91124 9.71646 8.88083C9.76128 8.84566 9.7425 8.78625 9.74149 8.73316C9.7266 8.07906 9.55555 7.45288 9.36185 6.83317C9.05686 5.85785 8.93498 4.86716 9.03556 3.85584C9.12058 2.99952 9.32005 2.18045 9.83559 1.47952C10.1664 1.02977 10.587 0.693351 11.162 0.615621C11.8954 0.516626 12.6082 0.98784 12.872 1.72691C13.0801 2.31111 13.0494 2.90113 12.9362 3.49021C12.7363 4.52943 12.2444 5.43487 11.6678 6.29585C11.3635 6.75059 11.049 7.20118 10.7007 7.62172C10.2168 8.20604 10.2028 8.87856 10.2876 9.5822C10.3248 9.89181 10.4616 10.16 10.664 10.4539C10.7377 10.0287 10.8354 9.65122 10.9345 9.27385C11.195 8.28007 11.624 7.37515 12.3398 6.6397C12.7307 6.23783 13.1676 5.87896 13.7081 5.67518C14.8761 5.23464 15.7726 6.16887 15.8193 6.928C15.8499 7.42963 15.6116 7.82257 15.2883 8.17278C15.2618 8.2018 15.2313 8.22686 15.2028 8.25426C15.054 8.40712 14.8908 8.54359 14.7154 8.66567C13.9777 9.21182 13.1437 9.55557 12.2653 9.80815C12.0206 9.87824 11.7669 9.93317 11.552 10.0727C11.1315 10.345 11.0156 10.961 11.2945 11.4309C11.6519 12.0323 12.0793 12.5859 12.4861 13.1537C12.9203 13.7594 13.3648 14.358 13.7998 14.9631C13.8823 15.0779 13.9131 15.2065 13.7839 15.3175C13.6624 15.4221 13.4834 15.416 13.357 15.281C13.2206 15.135 13.0914 14.9803 12.9745 14.8186C12.6355 14.3489 12.304 13.8741 11.9714 13.4003C11.6578 12.9537 11.3483 12.505 11.0336 12.0594C10.891 11.858 10.7342 11.6668 10.5309 11.522C10.1319 11.2375 9.49363 11.2921 9.2381 11.7722C8.87366 12.4554 8.4191 13.0869 7.8999 13.665C7.83439 13.7376 7.75615 13.799 7.68397 13.8653C7.58864 13.997 7.43271 14.0647 7.33601 14.1956L7.33569 14.1953Z" fill="#06C5C8"/>
</svg>
