<svg width="16" height="38" viewBox="0 0 16 38" fill="none" xmlns="http://www.w3.org/2000/svg">
<path d="M4.97551 27.9265C4.92868 27.5798 4.65724 27.4011 4.44219 27.1767C2.46184 25.1082 1.16773 22.656 0.464281 19.8688C0.0819737 18.3529 -0.0719051 16.8116 0.031318 15.2568C0.182329 12.9737 0.908714 10.8789 2.14261 8.95601C3.4329 6.94475 5.02808 5.21222 6.77236 3.61079C8.07507 2.41531 9.44182 1.30334 10.9558 0.389483C11.0733 0.318589 11.1947 0.250609 11.3199 0.195253C12.161 -0.175727 12.4458 -0.047535 12.7469 0.835241C13.0948 1.85495 13.2745 2.91739 13.5296 3.96138C14.1853 6.65244 14.8582 9.33961 15.4871 12.0365C15.9391 13.9778 16.1427 15.9512 15.8904 17.9411C15.5291 20.7875 14.2245 23.129 12.0769 24.9829C10.5629 26.2891 8.81866 27.1321 6.87749 27.5526C6.70641 27.5895 6.53246 27.6254 6.35851 27.6342C6.12339 27.6468 5.99818 27.7604 5.96855 27.9925C5.89783 28.5694 5.98098 29.1404 6.0584 29.7076C6.30212 31.5022 6.73126 33.2523 7.30281 34.9683C7.54366 35.6918 7.85429 36.3871 8.12955 37.097C8.1955 37.267 8.23851 37.4331 8.22321 37.6156C8.20888 37.7768 8.16682 37.9254 8.00052 37.9798C7.84377 38.0323 7.7071 37.9798 7.59432 37.8536C7.32479 37.5554 7.1862 37.1796 7.04475 36.8183C6.15684 34.54 5.49832 32.1966 5.20872 29.7561C5.13703 29.1511 5.0319 28.5499 5.02521 27.9381C5.02521 27.9304 5.01661 27.9168 5.01278 27.9168C5.00036 27.9168 4.98889 27.9236 4.97647 27.9274L4.97551 27.9265Z" fill="#06C5C9"/>
</svg>
