<svg width="16" height="32" viewBox="0 0 16 32" fill="none" xmlns="http://www.w3.org/2000/svg">
<path d="M7.48078 28.844C7.53539 28.844 7.59 28.844 7.64462 28.844C7.87544 28.7912 8.11429 28.8564 8.34511 28.8063C10.1546 28.6992 11.8141 28.1969 13.2573 27.1381C13.6141 26.8759 13.925 26.5644 14.067 26.1478C14.3037 25.454 13.8937 24.9359 13.1182 24.905C12.243 24.87 11.4238 25.0944 10.6206 25.3765C9.25823 25.8555 7.99559 26.5088 6.84073 27.3446C6.72131 27.4311 6.60626 27.5237 6.4468 27.591C6.54218 27.3474 6.64121 27.1044 6.7315 26.8594C6.99583 26.141 7.26088 25.4232 7.51355 24.7012C7.55651 24.5791 7.6104 24.542 7.74438 24.5214C8.96114 24.3334 10.1888 24.1989 11.3815 23.8832C12.5138 23.5827 13.5981 23.1819 14.5658 22.5416C15.1549 22.1519 15.7025 21.7182 15.9253 21.0312C16.1736 20.2654 15.792 19.759 14.9452 19.715C13.5697 19.6437 12.3471 20.0959 11.174 20.6998C9.96381 21.3229 8.94148 22.1718 7.98831 23.1002C7.90967 23.1764 7.83249 23.2546 7.70214 23.3123C7.77351 23.0927 7.84923 22.8738 7.91622 22.6528C8.17181 21.8087 8.38152 20.9551 8.50531 20.0849C8.53589 19.8681 8.62327 19.7562 8.86866 19.7137C10.1029 19.4996 11.3153 19.2113 12.4556 18.7001C13.5697 18.2005 14.5075 17.4992 15.2284 16.5494C15.4658 16.2372 15.6085 15.8872 15.6704 15.5105C15.8037 14.6925 15.1767 14.1723 14.2672 14.278C13.207 14.4022 12.3587 14.9025 11.5621 15.516C10.4335 16.3854 9.58226 17.4813 8.75142 18.593C8.73031 18.6212 8.70992 18.6493 8.69099 18.6747C8.60652 18.661 8.62837 18.6061 8.63492 18.5704C8.81987 17.5953 8.86065 16.6078 8.90579 15.6216C8.93346 15.0171 8.91963 15.0233 9.49852 14.7899C10.657 14.324 11.7893 13.8086 12.7512 13.0236C13.5274 12.3902 14.2447 11.7067 14.5381 10.737C14.5927 10.5572 14.6277 10.3685 14.6379 10.1825C14.6677 9.63905 14.2192 9.19985 13.6396 9.18064C12.7541 9.15113 12.0325 9.48533 11.4194 10.0618C10.6621 10.7741 10.1349 11.6401 9.59609 12.4972C9.33978 12.9048 9.08638 13.3145 8.86065 13.8203C8.7973 13.3632 8.73613 12.979 8.69244 12.5926C8.60652 11.8425 8.4223 11.109 8.25628 10.3733C8.21695 10.2004 8.2621 10.1338 8.40264 10.0542C9.14973 9.63356 9.87352 9.18201 10.4568 8.56165C11.2825 7.68396 11.809 6.65804 12.1068 5.52781C12.1578 5.3336 12.1417 5.11126 12.1039 4.91019C11.9859 4.28572 11.3488 3.94192 10.6927 4.12994C10.0563 4.3118 9.66745 4.77089 9.32158 5.2588C8.66769 6.18042 8.32909 7.22418 8.04875 8.28785C8.01016 8.4347 7.96501 8.58018 7.92278 8.72772C7.82375 8.70576 7.83685 8.63714 7.82011 8.58018C7.7269 8.27069 7.67084 7.94473 7.52593 7.65788C7.17059 6.95312 7.25069 6.22914 7.32569 5.49349C7.50263 3.76006 7.08758 2.17898 5.89631 0.816112C5.58902 0.46476 5.21183 0.172423 4.73853 0.0578219C3.78099 -0.174126 3.03317 0.306239 2.83001 1.23883C2.65525 2.03967 2.86861 2.78767 3.18172 3.51782C3.76716 4.88275 4.75236 5.94916 6.0099 6.80009C6.3565 7.03409 6.60408 7.32643 6.76354 7.69219C7.04097 8.32971 7.2303 8.99055 7.34607 9.6761C6.92884 9.2273 6.50286 8.79498 6.03902 8.39627C5.30503 7.76562 4.50988 7.23516 3.51376 7.0437C3.04482 6.9538 2.57225 6.91538 2.09603 7.01694C1.41447 7.16242 1.04893 7.73749 1.2601 8.36539C1.50622 9.09829 2.12443 9.48053 2.81545 9.77767C3.7191 10.1654 4.69265 10.2724 5.66693 10.3713C6.06451 10.4117 6.46354 10.4385 6.85893 10.4927C7.36136 10.562 7.65263 10.8626 7.7553 11.3162C7.95918 12.22 8.08953 13.134 8.16234 14.0557C8.16817 14.1332 8.16307 14.2107 8.16307 14.3549C7.95118 14.1311 7.78734 13.9514 7.61477 13.7791C6.61864 12.7806 5.51839 11.916 4.11231 11.4768C3.45332 11.2709 2.76739 11.2146 2.08365 11.3615C1.31835 11.5262 0.978299 12.1788 1.26083 12.911C1.55937 13.6858 2.19069 14.1284 2.96837 14.4331C3.83342 14.7728 4.74726 14.8778 5.66547 14.9615C6.40602 15.0287 7.14802 15.074 7.89001 15.1262C8.09827 15.1406 8.18492 15.2277 8.17618 15.4336C8.13103 16.4746 8.04802 17.5115 7.88855 18.543C7.87035 18.663 7.87181 18.7859 7.86088 18.9513C7.42836 18.4784 7.03879 18.0276 6.5968 17.622C5.79072 16.8823 4.90819 16.2461 3.83123 15.8982C3.20502 15.6958 2.55841 15.586 1.89942 15.7706C1.32054 15.9325 1.00451 16.4499 1.13558 17.0065C1.35185 17.9274 2.01083 18.4977 2.86497 18.8922C3.73439 19.2937 4.67226 19.4865 5.62543 19.6087C6.25747 19.6897 6.89097 19.7686 7.52666 19.8152C7.77423 19.8331 7.78151 19.9305 7.74583 20.1014C7.57399 20.918 7.41234 21.736 7.22884 22.5499C7.15821 22.8621 7.12326 23.184 6.98199 23.5202C6.70966 23.1078 6.40602 22.7427 6.07616 22.3975C5.13756 21.4155 4.13342 20.5152 2.75429 20.0952C2.30719 19.9593 1.855 19.8743 1.38243 19.8791C0.0142117 19.8928 -0.228991 20.9187 0.179507 21.7326C0.609851 22.5917 1.405 23.0879 2.29409 23.4578C3.53997 23.9752 4.86231 24.2065 6.20359 24.3739C6.77811 24.4453 6.7752 24.365 6.61136 24.9112C5.95747 27.0941 5.14266 29.2208 4.03076 31.2383C4.02639 31.2465 4.02202 31.2541 4.01692 31.2616C3.81449 31.6226 3.82323 31.8257 4.0475 31.952C4.25867 32.0707 4.4844 31.9726 4.69556 31.6199C5.16887 30.83 5.53368 29.9921 5.86354 29.1432C5.9764 28.8536 6.1264 28.7397 6.43733 28.7994C6.49267 28.8097 6.55165 28.8029 6.60917 28.8035C6.89753 28.8591 7.19243 28.7885 7.48078 28.8427V28.844Z" fill="#05C5C8"/>
</svg>
