<svg width="70" height="73" viewBox="0 0 70 73" fill="none" xmlns="http://www.w3.org/2000/svg">
<path d="M2.31381 65.1262C1.87582 65.1262 1.48935 65.0866 1.15691 65.0065C0.823631 64.9273 0.472071 64.8077 0.101395 64.6485L0 64.4727C0.0423866 64.2302 0.0739688 64.0066 0.0947466 63.8012C0.115524 63.5966 0.138795 63.3664 0.16456 63.1106C0.189493 62.8557 0.202791 62.5983 0.202791 62.3384L1.24002 62.2633C1.24002 62.7237 1.2824 63.0834 1.36635 63.3425C1.45029 63.6023 1.59573 63.7822 1.80268 63.882C2.00879 63.9827 2.28971 64.033 2.64376 64.033C3.04851 64.033 3.37265 63.9456 3.61782 63.769C3.86217 63.5933 3.98434 63.3507 3.98434 63.0413C3.98434 62.807 3.89375 62.6065 3.71257 62.4391C3.53139 62.2716 3.29951 62.1148 3.01693 61.968C2.73435 61.8219 2.43349 61.6726 2.11268 61.5225C1.78356 61.3632 1.46525 61.1834 1.15774 60.9829C0.850226 60.7824 0.596737 60.5432 0.398933 60.2676C0.201129 59.9912 0.101395 59.6571 0.101395 59.2636C0.101395 58.7784 0.24684 58.347 0.537729 57.9707C0.828617 57.5945 1.22506 57.2992 1.72622 57.0855C2.22738 56.8718 2.80749 56.7654 3.4649 56.7654C3.87796 56.7654 4.24698 56.7926 4.57111 56.8471C4.89524 56.9015 5.24348 56.9873 5.61415 57.1045L5.70225 57.2678C5.61748 57.6614 5.55265 58.0235 5.50611 58.3535C5.45957 58.6844 5.42383 59.0375 5.39889 59.4145L4.46306 59.4896L4.3492 59.4145C4.36582 59.2306 4.37414 59.0796 4.37414 58.9624C4.37414 58.5862 4.27939 58.3181 4.0899 58.1588C3.9004 57.9996 3.58209 57.9204 3.13495 57.9204C2.77259 57.9204 2.47505 58.0087 2.24317 58.1844C2.01129 58.3602 1.89576 58.578 1.89576 58.837C1.89576 59.0548 1.97389 59.2446 2.12931 59.4079C2.28555 59.5713 2.49001 59.7198 2.74267 59.8534C2.99532 59.9871 3.26543 60.1257 3.55217 60.2676C3.91453 60.4351 4.26858 60.6191 4.61433 60.8195C4.96007 61.02 5.2468 61.2609 5.47453 61.5414C5.70225 61.8219 5.81611 62.1751 5.81611 62.6024C5.81611 63.1049 5.67067 63.5462 5.37978 63.9266C5.08889 64.3077 4.68248 64.6023 4.15971 64.8118C3.63694 65.0206 3.02192 65.1253 2.31381 65.1253V65.1262Z" fill="#60408B"/>
<path d="M10.5335 64.9763L10.5966 64.2355C10.8751 64.2107 11.0812 64.1835 11.2167 64.1538C11.3513 64.1249 11.4444 64.0804 11.4951 64.0218C11.5458 63.9632 11.5707 63.884 11.5707 63.7833C11.5707 63.7248 11.5666 63.6596 11.5582 63.5886C11.5499 63.5177 11.5333 63.436 11.5075 63.3436L11.2424 62.3775C11.082 62.3693 10.8859 62.3627 10.654 62.3585C10.4221 62.3544 10.2301 62.3519 10.0789 62.3519C9.8769 62.3519 9.66165 62.3627 9.43392 62.3833C9.2062 62.4039 9.0167 62.4229 8.86461 62.4394L8.54879 63.4055C8.49809 63.5895 8.47316 63.719 8.47316 63.7949C8.47316 63.9459 8.51721 64.0498 8.60614 64.1084C8.69423 64.167 8.84799 64.1967 9.0674 64.1967H9.61095L9.67411 64.2841L9.58601 65.0498C9.18958 65.025 8.85048 65.006 8.5679 64.9937C8.28533 64.9813 8.0094 64.9747 7.73929 64.9747C7.51156 64.9747 7.27968 64.9763 7.04365 64.9813C6.80761 64.9854 6.53335 64.9961 6.22168 65.0126L6.30978 64.1967C6.51174 64.1637 6.6763 64.0837 6.80263 63.9582C6.92895 63.8328 7.04282 63.6274 7.14421 63.3428L9.40733 56.9786L11.3422 56.7781L11.4809 56.8408C11.5907 57.2764 11.6962 57.6757 11.7968 58.0395C11.8982 58.4034 12.012 58.8159 12.1384 59.2762C12.2647 59.7366 12.3935 60.2093 12.524 60.6945C12.6545 61.1796 12.7875 61.6507 12.9221 62.1069C13.0567 62.5631 13.1831 62.9707 13.3011 63.3304C13.385 63.6315 13.5014 63.8452 13.6485 63.9706C13.7956 64.096 14.0133 64.1711 14.3001 64.1967L14.3508 64.2841L14.2627 65.0118C13.9003 64.9953 13.5986 64.9846 13.3584 64.9805C13.1182 64.9763 12.9055 64.9738 12.7201 64.9738C12.3661 64.9738 12.0245 64.9821 11.6962 64.9986C11.3671 65.0151 11.0006 65.0407 10.5958 65.0737L10.5327 64.973L10.5335 64.9763ZM9.16797 61.3867H10.078C10.2127 61.3867 10.3706 61.3825 10.5526 61.3743C10.7338 61.366 10.8875 61.3578 11.0139 61.3495L10.2675 58.5502H10.103L9.16714 61.3875L9.16797 61.3867Z" fill="#60408B"/>
<path d="M20.7499 65.1767C20.4797 65.1767 20.2296 65.0785 19.9977 64.8813C19.7658 64.6849 19.5572 64.3937 19.3719 64.0093L18.2715 61.7998H17.3739L17.349 63.2181C17.349 63.5027 17.3681 63.7122 17.4055 63.8459C17.4437 63.9796 17.5276 64.0678 17.6581 64.1099C17.7886 64.152 17.9889 64.1767 18.259 64.185L18.2973 64.2601L18.1834 65.0257C17.9474 65.0174 17.7412 65.0108 17.5634 65.0067C17.3864 65.0026 17.2027 64.9985 17.0132 64.9943C16.8237 64.9902 16.6566 64.9877 16.5137 64.9877C16.2519 64.9795 15.9843 64.9811 15.7108 64.9943C15.4366 65.0067 15.1099 65.0257 14.731 65.0504L14.8448 64.2221C15.1989 64.18 15.4366 64.0885 15.5596 63.9457C15.6817 63.8038 15.7432 63.5522 15.7432 63.1925V58.3348C15.7432 58.0922 15.7158 57.9288 15.661 57.8455C15.6061 57.7622 15.4989 57.7201 15.3385 57.7201C15.2537 57.7201 15.1108 57.7284 14.9088 57.7449L14.8332 57.6442L14.947 56.891C15.1748 56.8992 15.3751 56.9058 15.5479 56.9099C15.7208 56.9141 15.8953 56.9165 16.0724 56.9165H16.5278C16.6541 56.9165 16.8229 56.9149 17.034 56.9099C17.2442 56.9058 17.4578 56.8992 17.6723 56.891C17.8875 56.8827 18.1418 56.8745 18.4369 56.8662C19.3893 56.8662 20.1232 57.0502 20.6368 57.419C21.1513 57.7869 21.4081 58.3182 21.4081 59.0129C21.4081 59.5071 21.2602 59.9584 20.966 60.3684C20.6709 60.7785 20.2495 61.1217 19.7018 61.3981L20.8147 63.1933C21.0507 63.5695 21.2784 63.8442 21.4979 64.015C21.7173 64.1866 21.9616 64.2724 22.2309 64.2724L22.319 64.3855L22.2309 65.0381L20.7515 65.1758L20.7499 65.1767ZM18.5499 60.8337C18.6172 60.809 18.712 60.7628 18.8342 60.696C18.9563 60.6291 19.0785 60.5367 19.2007 60.4196C19.3228 60.3024 19.4284 60.1482 19.5165 59.9551C19.6046 59.7629 19.6495 59.5244 19.6495 59.2398C19.6495 58.7794 19.4932 58.4362 19.1816 58.2102C18.8699 57.9841 18.3887 57.8711 17.7404 57.8711C17.6556 57.8711 17.5991 57.8884 17.57 57.9214C17.5401 57.9552 17.5218 58.0303 17.5135 58.1475C17.4886 58.6582 17.467 59.1136 17.4504 59.5154C17.4337 59.9171 17.4204 60.3148 17.4121 60.7075L18.5499 60.8329V60.8337Z" fill="#60408B"/>
<path d="M26.5423 64.9763L26.6054 64.2355C26.8839 64.2107 27.09 64.1835 27.2254 64.1538C27.3601 64.1249 27.4532 64.0804 27.5039 64.0218C27.5546 63.9632 27.5795 63.884 27.5795 63.7833C27.5795 63.7248 27.5753 63.6596 27.567 63.5886C27.5587 63.5177 27.5421 63.436 27.5163 63.3436L27.2512 62.3775C27.0908 62.3693 26.8947 62.3627 26.6628 62.3585C26.4309 62.3544 26.2389 62.3519 26.0877 62.3519C25.8857 62.3519 25.6704 62.3627 25.4427 62.3833C25.215 62.4039 25.0255 62.4229 24.8734 62.4394L24.5576 63.4055C24.5069 63.5895 24.4819 63.719 24.4819 63.7949C24.4819 63.9459 24.526 64.0498 24.6149 64.1084C24.703 64.167 24.8568 64.1967 25.0762 64.1967H25.6197L25.6829 64.2841L25.5948 65.0498C25.1984 65.025 24.8593 65.006 24.5767 64.9937C24.2941 64.9813 24.0182 64.9747 23.7481 64.9747C23.5204 64.9747 23.2885 64.9763 23.0524 64.9813C22.8164 64.9854 22.5421 64.9961 22.2305 65.0126L22.3186 64.1967C22.5205 64.1637 22.6851 64.0837 22.8114 63.9582C22.9377 63.8328 23.0516 63.6274 23.153 63.3428L25.4161 56.9786L27.3509 56.7781L27.4897 56.8408C27.5994 57.2764 27.705 57.6757 27.8056 58.0395C27.907 58.4034 28.0208 58.8159 28.1471 59.2762C28.2735 59.7366 28.4023 60.2093 28.5328 60.6945C28.6633 61.1796 28.7962 61.6507 28.9309 62.1069C29.0655 62.5631 29.1919 62.9707 29.3099 63.3304C29.3938 63.6315 29.5102 63.8452 29.6573 63.9706C29.8044 64.096 30.0221 64.1711 30.3089 64.1967L30.3596 64.2841L30.2715 65.0118C29.9091 64.9953 29.6074 64.9846 29.3672 64.9805C29.127 64.9763 28.9143 64.9738 28.7289 64.9738C28.3749 64.9738 28.0333 64.9821 27.705 64.9986C27.3759 65.0151 27.0094 65.0407 26.6046 65.0737L26.5414 64.973L26.5423 64.9763ZM25.1768 61.3867H26.0868C26.2215 61.3867 26.3794 61.3825 26.5614 61.3743C26.7426 61.366 26.8963 61.3578 27.0227 61.3495L26.2763 58.5502H26.1118L25.1759 61.3875L25.1768 61.3867Z" fill="#60408B"/>
<path d="M33.0792 64.2476C33.425 64.189 33.6568 64.0884 33.7749 63.9465C33.8929 63.8046 33.9519 63.5529 33.9519 63.1932V58.3982C33.9519 58.1301 33.9245 57.951 33.8696 57.8586C33.8148 57.767 33.7075 57.7208 33.5471 57.7208C33.4624 57.7208 33.3194 57.7291 33.1175 57.7456L33.0418 57.6449L33.1432 56.9041C33.2363 56.9041 33.3726 56.9065 33.5546 56.9107C33.7358 56.9148 33.9336 56.9173 34.1489 56.9173H34.7373C34.847 56.9173 35.0049 56.9156 35.211 56.9107C35.4171 56.9065 35.6299 56.8999 35.8493 56.8917C36.0687 56.8834 36.3297 56.8752 36.6331 56.8669C37.2148 56.8669 37.6994 56.9321 38.0875 57.0616C38.4748 57.1912 38.7848 57.371 39.0167 57.6012C39.2486 57.8314 39.4148 58.0888 39.5162 58.3734C39.6176 58.6581 39.6683 58.9551 39.6683 59.2645C39.6683 59.6407 39.586 60.0012 39.4214 60.3436C39.2569 60.6868 39.0333 60.9896 38.7516 61.2536C38.469 61.5176 38.149 61.7263 37.7908 61.8814C37.4326 62.0365 37.0511 62.1133 36.6464 62.1133H35.5842L35.5593 63.067C35.5593 63.3764 35.5742 63.6107 35.6033 63.7699C35.6324 63.9291 35.6914 64.0356 35.7803 64.09C35.8693 64.1445 35.9931 64.1717 36.1535 64.1717C36.2632 64.1717 36.4527 64.1634 36.7228 64.1469L36.761 64.2096L36.6472 65.0132C36.4111 65.005 36.2067 64.9984 36.0338 64.9942C35.861 64.9901 35.6881 64.986 35.5152 64.9819C35.3423 64.9777 35.1969 64.9753 35.0789 64.9753C34.9185 64.9753 34.7207 64.9794 34.4846 64.9876C34.2486 64.9959 34.0167 65.0066 33.789 65.019C33.5613 65.0314 33.2912 65.0503 32.9795 65.0751L33.0809 64.2468L33.0792 64.2476ZM36.7336 61.1719C37.5174 61.0044 37.9096 60.431 37.9096 59.4526C37.9096 58.9171 37.7575 58.5261 37.4542 58.2786C37.1508 58.0319 36.6705 57.9081 36.0122 57.9081C35.8942 57.9081 35.8202 57.9188 35.7911 57.9395C35.7612 57.9601 35.7429 58.0211 35.7346 58.1218C35.7097 58.5739 35.6856 59.0491 35.6648 59.5466C35.644 60.0449 35.6249 60.5317 35.6083 61.0094L36.7336 61.1727V61.1719Z" fill="#60408B"/>
<path d="M40.388 64.2609C40.7079 64.2105 40.9274 64.1099 41.0454 63.9597C41.1634 63.8088 41.2224 63.5497 41.2224 63.1817L41.2349 58.3743C41.2349 58.1153 41.2049 57.9412 41.1468 57.8537C41.0878 57.7655 40.9656 57.7217 40.7802 57.7217C40.7046 57.7217 40.5733 57.7259 40.388 57.7341L40.3248 57.6335L40.4262 56.9058C40.5276 56.9058 40.6747 56.9083 40.8692 56.9124C41.0628 56.9165 41.2714 56.919 41.495 56.919H42.1208C42.2638 56.919 42.4433 56.9149 42.6586 56.9066C42.8738 56.8984 43.0866 56.8901 43.2969 56.8819C43.5071 56.8736 43.7565 56.8571 44.0432 56.8315L43.9551 57.6978C43.6684 57.7316 43.4598 57.7795 43.3293 57.8422C43.1988 57.9049 43.114 57.9973 43.0766 58.1186C43.0384 58.2399 43.0109 58.4139 42.9943 58.6392C42.9603 59.0913 42.9328 59.5789 42.912 60.1011C42.8913 60.6242 42.8763 61.1538 42.868 61.6893C42.8597 62.2247 42.8555 62.7437 42.8555 63.2461C42.8555 63.4556 42.8746 63.6165 42.912 63.7296C42.9503 63.8426 43.0276 63.9177 43.1464 63.9556C43.2644 63.9936 43.4332 64.0125 43.6526 64.0125C43.9559 64.0125 44.2044 63.9894 44.3989 63.9432C44.5926 63.897 44.7463 63.8055 44.8602 63.6669C44.974 63.5291 45.0646 63.336 45.1319 63.0893C45.1993 62.8427 45.2583 62.5184 45.309 62.1166L46.3329 62.0036L46.421 62.129C46.3454 62.6645 46.2822 63.1454 46.2315 63.5728C46.1808 63.9993 46.1343 64.4597 46.0927 64.9539L45.9664 65.0793C45.5109 65.0628 45.1045 65.0479 44.7463 65.0356C44.3881 65.0232 44.0041 65.0108 43.596 64.9976C43.1871 64.9852 42.7974 64.9786 42.4267 64.9786C42.056 64.9786 41.7186 64.9894 41.3895 65.01C41.0603 65.0306 40.6938 65.062 40.2891 65.104L40.3905 64.2633L40.388 64.2609Z" fill="#60408B"/>
<path d="M50.9463 64.9763L51.0094 64.2355C51.2879 64.2107 51.494 64.1835 51.6294 64.1538C51.7641 64.1249 51.8572 64.0804 51.9079 64.0218C51.9586 63.9632 51.9835 63.884 51.9835 63.7833C51.9835 63.7248 51.9793 63.6596 51.971 63.5886C51.9627 63.5177 51.9461 63.436 51.9203 63.3436L51.6544 62.3775C51.494 62.3693 51.2978 62.3627 51.066 62.3585C50.8341 62.3544 50.6421 62.3519 50.4908 62.3519C50.2889 62.3519 50.0736 62.3627 49.8459 62.3833C49.6182 62.4039 49.4287 62.4229 49.2766 62.4394L48.9607 63.4055C48.9101 63.5895 48.8851 63.719 48.8851 63.7949C48.8851 63.9459 48.9292 64.0498 49.0181 64.1084C49.107 64.167 49.26 64.1967 49.4794 64.1967H50.0229L50.0861 64.2841L49.9971 65.0498C49.6007 65.025 49.2616 65.006 48.979 64.9937C48.6965 64.9813 48.4205 64.9747 48.1504 64.9747C47.9227 64.9747 47.6908 64.9763 47.4548 64.9813C47.2187 64.9854 46.9445 64.9961 46.6328 65.0126L46.7217 64.1967C46.9237 64.1637 47.0883 64.0837 47.2146 63.9582C47.3409 63.8328 47.4548 63.6274 47.5562 63.3428L49.8193 56.9786L51.7541 56.7781L51.8929 56.8408C52.0026 57.2764 52.1082 57.6757 52.2087 58.0395C52.3101 58.4034 52.424 58.8159 52.5503 59.2762C52.6766 59.7366 52.8055 60.2093 52.936 60.6945C53.0664 61.1796 53.1994 61.6507 53.3341 62.1069C53.4687 62.5631 53.595 62.9707 53.713 63.3304C53.797 63.6315 53.9133 63.8452 54.0604 63.9706C54.2076 64.096 54.4253 64.1711 54.712 64.1967L54.7627 64.2841L54.6746 65.0118C54.3123 64.9953 54.0106 64.9846 53.7704 64.9805C53.5302 64.9763 53.3174 64.9738 53.1321 64.9738C52.778 64.9738 52.4365 64.9821 52.1082 64.9986C51.779 65.0151 51.4125 65.0407 51.0078 65.0737L50.9446 64.973L50.9463 64.9763ZM49.5808 61.3867H50.4908C50.6255 61.3867 50.7834 61.3825 50.9654 61.3743C51.1466 61.366 51.3003 61.3578 51.4267 61.3495L50.6803 58.5502H50.5158L49.5799 61.3875L49.5808 61.3867Z" fill="#60408B"/>
<path d="M55.2208 65.0393L54.9175 64.4873L59.3689 57.822L57.725 57.9226C57.3709 57.9564 57.0925 58.0233 56.8905 58.1231C56.6886 58.2237 56.5431 58.383 56.4542 58.6C56.3661 58.8178 56.3046 59.123 56.2705 59.5166L55.2208 59.5916C55.2541 59.2567 55.2857 58.9539 55.3156 58.6816C55.3447 58.4102 55.3704 58.1148 55.3912 57.7964C55.412 57.4787 55.4269 57.1776 55.4353 56.893L55.5616 56.7676L57.8122 56.9054L61.4916 56.9557L61.7068 57.4581C61.1674 58.1775 60.6555 58.8813 60.1701 59.5669C59.6856 60.2533 59.2409 60.8935 58.8362 61.4875C58.4314 62.0816 58.084 62.603 57.7931 63.0501C57.5022 63.4981 57.2812 63.843 57.1291 64.0855L59.1395 63.9478C59.5609 63.9148 59.8875 63.7448 60.1194 63.4395C60.3513 63.1343 60.5175 62.6549 60.6189 62.0023L61.6561 61.9141C61.6054 62.2738 61.5614 62.598 61.5231 62.8868C61.4849 63.1755 61.4517 63.4849 61.4218 63.8157C61.3918 64.1466 61.3694 64.4667 61.3519 64.7761L61.1367 65.0145L56.1675 64.9394L55.2192 65.0401L55.2208 65.0393Z" fill="#60408B"/>
<path d="M66.1836 64.9763L66.2467 64.2355C66.5252 64.2107 66.7313 64.1835 66.8668 64.1538C67.0014 64.1249 67.0945 64.0804 67.1452 64.0218C67.1959 63.9632 67.2208 63.884 67.2208 63.7833C67.2208 63.7248 67.2167 63.6596 67.2083 63.5886C67.2 63.5177 67.1834 63.436 67.1576 63.3436L66.8917 62.3775C66.7313 62.3693 66.5351 62.3627 66.3033 62.3585C66.0714 62.3544 65.8794 62.3519 65.7281 62.3519C65.5262 62.3519 65.3109 62.3627 65.0832 62.3833C64.8555 62.4039 64.666 62.4229 64.5139 62.4394L64.1981 63.4055C64.1474 63.5895 64.1224 63.719 64.1224 63.7949C64.1224 63.9459 64.1665 64.0498 64.2554 64.1084C64.3443 64.167 64.4973 64.1967 64.7167 64.1967H65.2602L65.3234 64.2841L65.2345 65.0498C64.838 65.025 64.4989 65.006 64.2163 64.9937C63.9338 64.9813 63.6578 64.9747 63.3877 64.9747C63.16 64.9747 62.9281 64.9763 62.6921 64.9813C62.4561 64.9854 62.1818 64.9961 61.8701 65.0126L61.959 64.1967C62.161 64.1637 62.3256 64.0837 62.4519 63.9582C62.5782 63.8328 62.6921 63.6274 62.7935 63.3428L65.0566 56.9786L66.9914 56.7781L67.1302 56.8408C67.2399 57.2764 67.3455 57.6757 67.446 58.0395C67.5474 58.4034 67.6613 58.8159 67.7876 59.2762C67.914 59.7366 68.0428 60.2093 68.1733 60.6945C68.3037 61.1796 68.4367 61.6507 68.5714 62.1069C68.706 62.5631 68.8323 62.9707 68.9503 63.3304C69.0343 63.6315 69.1506 63.8452 69.2978 63.9706C69.4449 64.096 69.6626 64.1711 69.9493 64.1967L70 64.2841L69.9119 65.0118C69.5496 64.9953 69.2479 64.9846 69.0077 64.9805C68.7675 64.9763 68.5547 64.9738 68.3694 64.9738C68.0154 64.9738 67.6738 64.9821 67.3455 64.9986C67.0164 65.0151 66.6498 65.0407 66.2451 65.0737L66.1819 64.973L66.1836 64.9763ZM64.8181 61.3867H65.7281C65.8628 61.3867 66.0207 61.3825 66.2027 61.3743C66.3839 61.366 66.5376 61.3578 66.664 61.3495L65.9176 58.5502H65.7531L64.8172 61.3875L64.8181 61.3867Z" fill="#60408B"/>
<path d="M11.0995 70.9849C10.935 71.1375 10.7314 71.2134 10.4895 71.2134H9.89776V72.2818H9.61768V69.5815H10.4895C10.7297 69.5815 10.9333 69.6566 11.0995 69.8076C11.2691 69.9611 11.3539 70.1574 11.3539 70.395C11.3539 70.6326 11.2691 70.8282 11.0995 70.9849ZM10.5294 70.9437C10.6857 70.9437 10.8153 70.8917 10.9175 70.7869C11.0214 70.6805 11.0738 70.5485 11.0738 70.3884C11.0738 70.2284 11.0247 70.0988 10.9258 69.9982C10.8269 69.8975 10.6948 69.8472 10.5302 69.8472H9.89859V70.9428H10.5302L10.5294 70.9437Z" fill="#60408B"/>
<path d="M14.9379 70.2999C14.9379 70.0467 15.0277 69.8569 15.2064 69.7307C15.3851 69.6053 15.5953 69.5417 15.8364 69.5417C16.365 69.5417 16.6791 69.7373 16.7788 70.1292H16.4763C16.4223 69.8965 16.2087 69.7793 15.8372 69.7793C15.5746 69.7793 15.3909 69.8569 15.287 70.0112C15.2471 70.0681 15.228 70.1407 15.228 70.2298C15.228 70.3948 15.3178 70.5235 15.4998 70.6143C15.5854 70.6597 15.7666 70.7174 16.0433 70.7892C16.3201 70.861 16.5212 70.9402 16.6459 71.0276C16.8196 71.1489 16.9068 71.3205 16.9068 71.5416C16.9068 71.813 16.798 72.0185 16.5819 72.1571C16.4007 72.275 16.1763 72.3336 15.9095 72.3336C15.3069 72.3336 14.9579 72.1059 14.8623 71.6505H15.1931C15.2446 71.9368 15.4831 72.0795 15.9095 72.0795C16.2137 72.0795 16.4265 71.9954 16.547 71.8279C16.5943 71.7627 16.6176 71.6744 16.6176 71.5614C16.6176 71.4484 16.5736 71.3576 16.4863 71.2875C16.3608 71.186 16.1214 71.0928 15.769 71.0086C15.2139 70.8808 14.9371 70.6448 14.9371 70.2999H14.9379Z" fill="#60408B"/>
<path d="M20.5884 72.2823V69.582H20.8685V72.2823H20.5884Z" fill="#60408B"/>
<path d="M26.7486 72.0821C26.5167 72.2421 26.2616 72.3222 25.9848 72.3222C25.6083 72.3222 25.2867 72.1844 25.0207 71.9096C24.7597 71.639 24.6284 71.3148 24.6284 70.9369C24.6284 70.7488 24.6633 70.5706 24.7323 70.4032C24.8013 70.2349 24.8977 70.0872 25.0199 69.9601C25.2858 69.6846 25.6066 69.5476 25.984 69.5476C26.2624 69.5476 26.5159 69.6268 26.7436 69.7836C26.9722 69.9411 27.1375 70.1482 27.2398 70.4048H26.9314C26.7843 70.1367 26.5649 69.9601 26.2732 69.8751C26.1784 69.8471 26.0687 69.8331 25.9432 69.8331C25.8177 69.8331 25.6897 69.8628 25.5593 69.9222C25.4288 69.9816 25.3149 70.0616 25.2177 70.1623C25.0107 70.3759 24.9077 70.6342 24.9077 70.9361C24.9077 71.2381 25.0107 71.493 25.2177 71.7067C25.4304 71.9262 25.6856 72.0367 25.984 72.0367C26.1868 72.0367 26.3729 71.9839 26.5416 71.8775C26.7112 71.7719 26.8425 71.6316 26.9356 71.4567H27.2439C27.1434 71.7149 26.978 71.9237 26.7478 72.0821H26.7486Z" fill="#60408B"/>
<path d="M33.5115 71.4639C33.4384 71.633 33.3378 71.7807 33.2115 71.9069C33.0851 72.0331 32.9364 72.1321 32.7652 72.2047C32.5948 72.2773 32.4136 72.3136 32.2216 72.3136C32.0296 72.3136 31.8493 72.2773 31.6797 72.2047C31.5102 72.1321 31.3622 72.0323 31.2359 71.9069C31.1096 71.7815 31.009 71.6338 30.9359 71.4639C30.8627 71.2939 30.8262 71.114 30.8262 70.9243C30.8262 70.7345 30.8627 70.5539 30.9359 70.3847C31.009 70.2156 31.1096 70.0687 31.2359 69.9442C31.3622 69.8196 31.5102 69.7214 31.6797 69.6488C31.8493 69.5762 32.0296 69.5399 32.2216 69.5399C32.4136 69.5399 32.5948 69.5762 32.7652 69.6488C32.9355 69.7214 33.0843 69.8204 33.2115 69.9442C33.3378 70.0687 33.4384 70.2156 33.5115 70.3847C33.5846 70.5539 33.6212 70.7337 33.6212 70.9243C33.6212 71.1149 33.5846 71.2947 33.5115 71.4639ZM33.0137 70.1413C32.7951 69.9244 32.5308 69.8155 32.2216 69.8155C31.9124 69.8155 31.6523 69.9244 31.4337 70.1413C31.2151 70.3583 31.1054 70.619 31.1054 70.9235C31.1054 71.2279 31.2151 71.4927 31.4337 71.7097C31.6523 71.9267 31.9149 72.0356 32.2216 72.0356C32.5283 72.0356 32.7951 71.9267 33.0137 71.7097C33.2322 71.4927 33.3419 71.2304 33.3419 70.9235C33.3419 70.6166 33.2322 70.3583 33.0137 70.1413ZM32.3338 69.3039H32.1102L32.4302 68.7363H32.7743L32.3346 69.3039H32.3338Z" fill="#60408B"/>
<path d="M38.633 72.0043V72.2823H37.3813V69.582H37.6614V72.0043H38.633Z" fill="#60408B"/>
<path d="M44.6624 71.464C44.5892 71.6331 44.4887 71.7808 44.3623 71.907C44.236 72.0324 44.0872 72.1323 43.916 72.2049C43.7457 72.2775 43.5636 72.3138 43.3725 72.3138C43.1813 72.3138 43.0001 72.2775 42.8306 72.2049C42.6611 72.1323 42.5131 72.0324 42.3868 71.907C42.2605 71.7816 42.1599 71.6339 42.0868 71.464C42.0136 71.2949 41.9771 71.1142 41.9771 70.9244C41.9771 70.7347 42.0136 70.554 42.0868 70.3849C42.1599 70.2157 42.2596 70.0689 42.3868 69.9443C42.514 69.8197 42.6611 69.7215 42.8306 69.6489C43.0001 69.5763 43.1805 69.54 43.3725 69.54C43.5645 69.54 43.7457 69.5763 43.916 69.6489C44.0864 69.7215 44.2352 69.8205 44.3623 69.9443C44.4887 70.0689 44.5892 70.2157 44.6624 70.3849C44.7355 70.554 44.7721 70.7338 44.7721 70.9244C44.7721 71.115 44.7355 71.2949 44.6624 71.464ZM44.1645 70.1415C43.946 69.9245 43.6817 69.8156 43.3725 69.8156C43.0633 69.8156 42.8032 69.9245 42.5846 70.1415C42.366 70.3585 42.2563 70.6192 42.2563 70.9236C42.2563 71.228 42.366 71.4929 42.5846 71.7098C42.8032 71.9268 43.0658 72.0357 43.3725 72.0357C43.6792 72.0357 43.946 71.9268 44.1645 71.7098C44.3831 71.4929 44.4928 71.2305 44.4928 70.9236C44.4928 70.6167 44.3831 70.3585 44.1645 70.1415Z" fill="#60408B"/>
<path d="M51.1886 71.1861C51.1296 71.5145 50.9684 71.7842 50.7041 71.9963C50.4398 72.2083 50.1423 72.3139 49.8132 72.3139C49.6212 72.3139 49.44 72.2776 49.2696 72.205C49.0992 72.1324 48.9505 72.0326 48.8233 71.9072C48.697 71.7818 48.5964 71.6341 48.5233 71.4641C48.4501 71.295 48.4136 71.1143 48.4136 70.9221C48.4136 70.7299 48.4501 70.5492 48.5233 70.38C48.5964 70.2109 48.6962 70.0632 48.8233 69.937C48.9496 69.8116 49.0984 69.7118 49.2696 69.6392C49.44 69.5666 49.612 69.5303 49.7857 69.5303C50.1115 69.5303 50.3983 69.6219 50.6476 69.805C50.8969 69.9882 51.0665 70.2291 51.1579 70.5269H50.862C50.7764 70.3083 50.6385 70.1342 50.4481 70.0038C50.2586 69.8735 50.0467 69.8083 49.814 69.8083C49.5048 69.8083 49.2405 69.9172 49.0219 70.1342C48.8034 70.3512 48.6937 70.6135 48.6937 70.9204C48.6937 71.2273 48.8025 71.4881 49.0203 71.7075C49.238 71.927 49.5023 72.0359 49.8132 72.0359C50.06 72.0359 50.2836 71.9657 50.4839 71.8247C50.6842 71.6836 50.8246 71.4963 50.9052 71.262H49.8015V71.0194H51.2177L51.1895 71.1861H51.1886Z" fill="#60408B"/>
<path d="M56.5932 72.2823L56.3015 71.548H55.1064L54.813 72.2823H54.5088L55.7048 69.3955L56.8966 72.2823H56.5924H56.5932ZM56.1993 71.2898L55.7056 70.0473L55.2094 71.2898H56.1993Z" fill="#60408B"/>
<path d="M38.5354 48.9943C35.6301 48.9943 32.7239 48.9943 29.8185 48.9926C29.6685 48.9926 29.4689 49.0616 29.4747 48.7773C29.478 48.601 29.5144 48.5145 29.7141 48.5187C30.2219 48.5287 30.7323 48.5503 31.2384 48.5129C32.1986 48.4422 33.124 48.2543 33.8911 47.5941C34.5754 47.0046 34.8828 46.2339 34.9772 45.3692C35.1404 43.8792 35.0245 42.3818 35.0435 40.8885C35.0626 39.3811 35.0493 37.8729 35.0443 36.3646C35.0443 36.2532 35.1173 36.0811 34.9739 36.0395C34.8024 35.9896 34.7759 36.1825 34.7262 36.2931C34.1786 37.5079 33.3734 38.5364 32.4074 39.4335C31.2658 40.4936 29.9369 41.2618 28.4797 41.8015C27.1815 42.282 25.8427 42.5863 24.4658 42.7493C23.195 42.8998 21.9217 42.978 20.6467 42.9297C18.67 42.8549 16.7124 42.6404 14.8359 41.9511C13.6388 41.5113 12.5486 40.9085 11.5784 40.0596C10.6033 39.2065 9.83951 38.2196 9.39546 37.0057C9.07236 36.1227 8.91827 35.2106 9.04337 34.2528C9.1403 33.5061 9.31096 32.8102 9.76412 32.1949C10.4062 31.3227 11.2934 30.8596 12.3182 30.6243C12.6803 30.5412 13.0448 30.4639 13.4251 30.4797C13.6305 30.488 13.7316 30.5287 13.7142 30.7582C13.662 31.4333 13.7424 32.1076 13.7879 32.7778C13.879 34.1156 14.0663 35.4426 14.444 36.7355C14.7423 37.7565 15.1482 38.7226 15.7779 39.5906C16.7712 40.96 18.0901 41.8031 19.7246 42.2147C20.8447 42.4965 21.9772 42.5306 23.1014 42.4442C24.7293 42.3178 26.2603 41.8339 27.5792 40.8112C28.4697 40.1211 29.1516 39.2772 29.6379 38.247C30.4365 36.5567 30.4705 34.7666 30.3926 32.9648C30.3512 32.0187 30.1151 31.0908 29.7033 30.2319C29.3098 29.4121 28.7307 28.7203 28.0729 28.0959C26.9587 27.0383 25.6257 26.3133 24.2885 25.5982C22.6466 24.7202 20.9433 23.9669 19.2673 23.1579C17.912 22.5044 16.5989 21.7628 15.3404 20.9297C14.4391 20.3327 13.5916 19.6725 12.8435 18.8885C11.334 17.3071 10.2952 15.487 9.97538 13.2862C9.83868 12.3433 9.75584 11.4005 9.79643 10.4518C9.86602 8.81965 10.1982 7.23824 10.943 5.77822C11.6248 4.44208 12.6157 3.35206 13.8327 2.47821C15.4017 1.3516 17.1639 0.693093 19.0502 0.345548C20.6135 0.0578678 22.1926 -0.0543775 23.7766 0.0246099C25.6646 0.118563 27.5328 0.384626 29.299 1.09634C30.7381 1.67586 32.0395 2.48818 33.0511 3.69711C33.8108 4.60505 34.2358 5.65184 34.1836 6.85328C34.1695 7.19001 34.2648 7.27565 34.602 7.27399C38.7227 7.26235 42.8442 7.24655 46.965 7.27898C48.3659 7.28979 49.7626 7.4303 51.1461 7.70717C52.586 7.99485 53.9712 8.41889 55.2743 9.09652C56.5692 9.76999 57.6462 10.6995 58.5658 11.8428C59.7571 13.3253 60.4223 15.0281 60.7645 16.868C60.9749 17.9972 61.0478 19.1495 60.9691 20.2978C60.8457 22.0987 60.4464 23.8314 59.6751 25.4818C59.0918 26.7282 58.3371 27.8415 57.343 28.7735C56.0233 30.0107 54.4956 30.9295 52.7989 31.5589C51.5305 32.0295 50.2183 32.3022 48.8828 32.4984C46.6593 32.8252 44.4233 32.7478 42.1889 32.7595C41.6073 32.7628 41.6894 32.6797 41.6894 33.2766C41.6869 37.1246 41.6794 40.9717 41.6943 44.8196C41.6977 45.725 41.8973 46.6039 42.5178 47.304C43.0447 47.8968 43.7439 48.2161 44.5136 48.3848C45.4398 48.5877 46.3784 48.5087 47.3121 48.5162C47.5333 48.5179 47.6045 48.5894 47.5888 48.8039C47.578 48.9486 47.5208 49.0018 47.3841 48.9943C47.3071 48.9901 47.2292 48.9943 47.1522 48.9943C44.2799 48.9943 41.4069 48.9943 38.5346 48.9943H38.5354ZM34.9027 26.3158C35.0294 26.1844 34.9938 26.0796 34.9938 25.9857C34.9955 21.0627 35.0038 16.1389 34.9872 11.2159C34.9839 10.3711 34.7362 9.57876 34.1239 8.94769C33.8992 8.71599 33.6774 8.71987 33.4587 8.95933C33.4512 8.96765 33.4429 8.9743 33.4355 8.98261C32.2955 10.2364 30.8027 10.5856 29.198 10.6546C28.9975 10.663 28.9577 10.574 28.9618 10.3977C28.9834 9.34512 28.9146 8.29916 28.7688 7.2557C28.5658 5.80067 28.2038 4.39635 27.4499 3.12424C26.9868 2.34268 26.3589 1.70164 25.5387 1.29173C24.0508 0.54759 22.4718 0.431187 20.8513 0.666486C19.9077 0.803675 19.0163 1.08886 18.1911 1.58191C17.4588 2.02008 16.8109 2.53558 16.3263 3.2581C15.4962 4.49446 15.0994 5.86302 15.0347 7.33385C14.9767 8.66334 15.0198 9.9845 15.3984 11.2791C15.9253 13.0791 17.105 14.3696 18.588 15.4138C19.8132 16.2769 21.1255 16.9903 22.4858 17.6222C24.4907 18.5542 26.4947 19.4896 28.4648 20.4923C29.8806 21.2132 31.2451 22.0322 32.4447 23.1039C33.0304 23.6277 33.5598 24.2006 34.037 24.8167C34.3832 25.2632 34.6417 25.777 34.9052 26.3158H34.9027ZM41.7399 20.0059C41.7399 23.5096 41.7399 27.0125 41.7399 30.5162C41.7399 31.0151 41.7424 31.514 41.7382 32.0128C41.7366 32.1741 41.749 32.293 41.9619 32.2856C43.5335 32.2298 45.1125 32.4111 46.6758 32.1026C47.6799 31.9039 48.6649 31.6686 49.5737 31.1673C51.0186 30.3699 52.0019 29.1685 52.6117 27.6619C53.3821 25.7587 53.6456 23.7424 53.7309 21.7112C53.8013 20.045 53.7856 18.3771 53.6332 16.7076C53.5089 15.3482 53.3026 14.0162 52.8884 12.7191C52.5901 11.7871 52.1817 10.9024 51.5488 10.1466C50.1412 8.46711 48.2167 7.90339 46.1489 7.76537C44.8184 7.67641 43.4763 7.75373 42.14 7.73378C41.8261 7.72879 41.7308 7.80611 41.7316 8.13287C41.7432 12.0906 41.7391 16.0482 41.7391 20.0068L41.7399 20.0059Z" fill="#AFA1EC"/>
</svg>
