<svg width="76" height="80" viewBox="0 0 76 80" fill="none" xmlns="http://www.w3.org/2000/svg">
<g clip-path="url(#clip0_153_9590)">
<path d="M0 71.3318C0.378587 71.3257 0.757936 71.3196 1.13652 71.3143C1.10758 71.6044 1.4138 73.5075 1.54482 73.8128C1.68955 74.1499 1.63547 74.5122 1.68041 74.8615C1.86627 76.3173 2.12831 77.7617 2.36293 79.2098C2.44139 79.6966 2.47415 79.7194 2.98071 79.7202C5.75955 79.7217 8.53763 79.7209 11.3165 79.7209C12.1414 79.7209 12.9657 79.7202 13.7906 79.7217C13.9552 79.7217 14.1212 79.7103 14.2819 79.7596C14.3711 79.8037 14.4617 79.8477 14.3871 79.9723C12.3319 79.9784 10.2775 79.9875 8.22227 79.9905C6.35676 79.9935 4.49124 79.9844 2.62649 79.9958C2.34998 79.9973 2.23801 79.9404 2.1923 79.6404C1.9653 78.1467 1.67508 76.6628 1.4854 75.1637C1.4397 74.8007 1.3879 74.4362 1.37495 74.0717C1.36657 73.8424 1.3003 73.7619 1.06492 73.7725C0.710707 73.7885 0.354973 73.7687 0 73.7642C0 72.9539 0 72.1444 0 71.3341L0 71.3318Z" fill="#FBCDFF"/>
<path d="M43.7187 38.0381C42.8175 38.692 41.8775 39.2889 40.7646 39.4901C39.7332 39.6769 38.8283 39.3253 38.0254 38.6722C36.7137 37.6053 35.7402 36.255 34.7918 34.882C34.7202 34.7788 34.6448 34.6778 34.5709 34.576C34.5336 34.5449 34.4863 34.5304 34.4444 34.5069C34.4018 34.4788 34.366 34.4439 34.3332 34.4044C33.7733 33.6116 33.298 32.7648 32.7488 31.9652C32.4807 31.4951 32.1623 31.0562 31.8956 30.5853C31.6808 30.2018 31.4455 29.8297 31.2459 29.4386C30.8521 28.6648 30.8894 28.4818 31.5468 27.8811C31.5757 27.8583 31.6077 27.8393 31.6397 27.8226C32.5972 27.4437 33.1365 26.6448 33.6553 25.8254C33.7185 25.7199 33.7916 25.6204 33.8457 25.5095C34.1184 25.0258 34.3408 24.9878 34.6829 25.4298C35.5269 26.5195 36.4539 27.5371 37.3513 28.5805C37.6971 28.983 38.1214 29.3133 38.4329 29.7477C38.9524 30.293 39.4979 30.8116 40.0257 31.3478C40.1217 31.445 40.2367 31.5278 40.2939 31.6591C40.9993 32.698 41.1021 33.8789 41.1029 35.0848C41.1242 35.1319 41.179 35.0711 41.1326 35.0916C41.045 33.9199 41.0412 32.7284 40.3274 31.7047C40.3777 31.3911 40.6816 31.2749 40.8423 31.0471C41.7953 29.9376 42.7886 28.863 43.7537 27.7642C44.3784 27.0534 45.0411 26.3783 45.6581 25.6614C46.1037 25.1427 46.6476 24.725 47.1473 24.2626C48.5413 23.1842 50.0892 22.4286 51.8137 22.0436C51.9828 22.0056 52.155 21.9206 52.3264 22.039C52.3797 22.197 52.267 22.301 52.1969 22.4149C51.7711 23.1113 51.8351 23.5632 52.4422 24.116C52.9853 24.6111 53.645 24.8868 54.3564 24.9642C55.8319 25.1252 57.2328 24.8815 58.482 24.0188C59.1052 23.589 59.6079 23.0475 60.0017 22.4043C60.087 22.2653 60.1609 22.1157 60.3034 22.02C60.4009 21.973 60.5007 21.9874 60.6012 22.0087C62.4492 22.4119 64.2203 23.005 65.7735 24.1228C67.169 25.1275 68.0701 26.4906 68.6224 28.0991C68.6597 28.2084 68.6849 28.3178 68.6506 28.4332C69.3034 30.3674 69.861 32.3297 70.3767 34.3041C70.7317 35.6635 71.0745 37.0281 71.2573 38.4216C71.4332 39.762 71.5003 41.1099 71.0988 42.4343C70.9495 42.9272 70.6524 43.3061 70.2388 43.5977C68.6963 44.6874 66.9283 45.2676 65.1496 45.822C64.9858 45.8729 64.8045 45.8714 64.6575 45.9754C64.5356 46.1508 64.3376 46.1645 64.1563 46.2047C62.9855 46.4614 61.7918 46.5875 60.6142 46.8123C60.2196 46.8874 60.033 46.769 59.8547 46.409C59.7595 46.2161 59.6917 46.0134 59.6704 45.7985C59.6658 45.7354 59.6818 45.6777 59.7115 45.623C59.777 45.522 59.7808 45.4096 59.7618 45.2965C59.595 44.3146 59.3276 43.363 58.93 42.448C58.8896 42.3546 58.8256 42.2771 58.7601 42.2004C58.7136 42.1131 58.6572 42.0257 58.7281 41.9247C59.6688 41.4562 60.6774 41.1509 61.6402 40.7355C62.5696 40.3353 63.5019 39.9389 64.4656 39.6313C65.2562 39.3792 66.0477 39.1127 66.8841 39.0352C67.054 39.0193 67.2101 39.0443 67.4394 39.1279C66.9664 38.9342 66.5741 39.0876 66.1833 39.1415C65.8588 39.1863 65.5465 39.3002 65.2349 39.4035C65.1222 39.4407 65.0193 39.484 64.9249 39.3747C64.464 38.1741 64.0992 36.9423 63.7305 35.7106C63.3587 34.4689 63.0822 33.2038 62.7486 31.9538C62.7174 31.8361 62.7509 31.71 62.6854 31.6007C62.7867 32.2424 63.0129 32.8537 63.1295 33.4916C63.1302 33.6457 63.0533 33.7232 62.8986 33.73C62.6435 33.7422 62.5056 33.5911 62.4149 33.4012C63.0175 34.1728 63.1074 35.1129 63.1477 36.0523C63.1805 36.8185 63.2117 37.5908 62.9444 38.3388C62.6793 39.0815 62.29 39.7331 61.6524 40.2138C60.8998 40.7811 60.0718 41.2117 59.1935 41.5511C59.0602 41.6028 58.8789 41.602 58.8766 41.8139C58.8142 41.8617 58.741 41.8891 58.6725 41.9247C58.2421 42.1017 57.7736 42.0485 57.3311 42.1495C56.9509 42.11 56.6074 41.9407 56.2463 41.8359C55.6171 41.6529 54.9856 41.6187 54.3427 41.7341C54.2315 41.7539 54.1195 41.7759 54.006 41.7508C53.8346 41.6665 53.8148 41.4919 53.7707 41.3377C53.5353 40.5107 53.3144 39.6799 53.0866 38.8507C52.9579 38.3814 52.9487 38.3799 52.4917 38.5127C50.8715 38.9828 49.2307 39.3671 47.5823 39.7217C47.4116 39.7582 47.2395 39.8235 47.0605 39.7551C46.7512 38.9859 46.6583 38.1627 46.4594 37.3653C46.3627 36.9772 46.301 36.5808 46.2225 36.1882C46.0869 36.072 46.061 35.908 46.0405 35.747C45.927 34.8517 45.8081 33.9563 45.9605 33.0534C46.0633 31.7077 46.5295 30.4494 46.9104 29.1713C47.097 28.5441 47.3217 27.9282 47.5571 27.3161C47.0795 28.5866 46.6468 29.87 46.3132 31.1868C46.2637 31.382 46.2667 31.59 46.1654 31.7715C45.9544 31.7913 46.0809 31.6128 46.042 31.5635C45.9689 32.149 45.7944 32.736 45.6383 33.323C45.4692 33.9563 45.3092 34.5935 45.1058 35.2177C44.888 35.8898 44.5894 36.5299 44.341 37.1883C44.207 37.5445 44.0081 37.8156 43.7156 38.0374L43.7187 38.0381Z" fill="#FFC446"/>
<path d="M21.5719 71.2551C20.7004 70.4767 20.1527 69.5161 19.9532 68.3656C19.7262 67.0587 20.008 65.8246 20.5191 64.6263C20.8893 63.7583 21.4287 62.9852 21.8842 62.1643C22.4768 61.0951 22.6695 59.9324 22.7701 58.7409C22.9064 57.1166 23.0222 55.4899 23.7345 53.9772C24.6112 52.1144 26.0555 50.9419 28.0551 50.49C29.6692 50.1255 31.2971 50.1293 32.848 50.7642C34.1117 51.2813 35.0959 52.1432 35.5765 53.473C35.7693 54.0068 35.6634 54.4845 35.2642 54.8938C35.105 54.8361 35.0974 54.8384 35.0372 54.5916C34.8833 53.9559 34.6015 53.3811 34.2282 52.8472C34.1932 52.7971 34.1665 52.7379 34.1094 52.7128C33.8504 54.7776 32.7649 56.421 31.4311 57.939C31.3473 58.0339 31.2468 58.1114 31.1432 58.1858C30.9626 58.3157 30.7966 58.3141 30.6313 58.1577C30.466 58.0013 30.3121 57.8327 30.1407 57.6816C29.6288 57.2297 29.0629 57.2829 28.6744 57.841C28.2158 58.501 28.3255 59.1958 28.65 59.858C28.9471 60.4633 29.4293 60.8665 30.1529 60.8194C30.4843 60.7982 30.5818 60.9652 30.6138 61.231C30.7676 62.4985 30.8842 63.7674 30.7265 65.044C30.7067 65.2072 30.7242 65.3728 30.6854 65.5345C30.3197 67.2933 29.4727 68.7886 28.1945 70.0454C27.4487 70.7782 26.5636 71.2771 25.5604 71.5741C24.4398 71.6257 23.3193 71.5969 22.1995 71.5908C21.9649 71.5893 21.7547 71.5088 21.6 71.3197C21.5901 71.2984 21.5802 71.2771 21.5703 71.2559L21.5719 71.2551Z" fill="#11051D"/>
<path d="M52.3112 22.0382C50.4868 22.3548 48.8537 23.1044 47.3743 24.2032C47.3043 24.2549 47.2304 24.3004 47.158 24.349C46.8008 24.0316 46.7832 23.5866 46.7436 23.1659C46.6278 21.9281 46.9059 20.7533 47.3743 19.6142C47.7933 18.5966 48.2488 17.5934 48.6053 16.55C48.7638 16.0867 48.7965 15.625 48.7462 15.1329C48.6716 14.4047 48.6845 13.668 48.7485 12.936C48.8049 12.2928 48.8247 11.6754 48.5436 11.0458C48.1391 10.1406 48.3433 9.20048 48.6396 8.30286C49.332 6.20615 50.8525 4.90226 52.8361 4.07831C54.5584 3.36295 56.337 3.32346 58.1401 3.71683C58.1789 3.72291 58.2185 3.73126 58.2566 3.74113C58.9193 3.95756 59.5684 4.20437 60.1458 4.60533C60.1877 4.64558 60.209 4.69798 60.2334 4.74886C61.9351 5.9472 62.8408 7.66952 63.3557 9.61131C63.8311 11.405 64.0901 13.242 64.2912 15.0874C64.4092 16.168 64.5921 17.2395 65.1794 18.1986C65.5945 18.8768 66.1521 19.422 66.7158 19.9642C67.7647 20.9735 68.7474 22.0298 69.3324 23.3914C69.7993 24.4789 70.0111 25.5884 69.6935 26.7594C69.5129 27.4239 69.1138 27.9463 68.6499 28.4308C68.2659 27.354 67.7982 26.328 67.0464 25.4403C66.146 24.3779 65.0263 23.6436 63.7618 23.0953C62.6542 22.6146 61.5039 22.2797 60.321 22.0473C59.835 22.0291 59.5006 21.7602 59.2263 21.3904C58.8249 20.8497 58.6923 20.2133 58.6451 19.5701C58.5804 18.6885 58.5827 17.8022 58.7571 16.9274C58.8455 16.4862 58.8874 16.4649 59.3436 16.5044C59.9652 16.5583 60.5038 16.3282 60.9334 15.9128C61.3554 15.505 61.6411 15 61.7637 14.4062C61.8597 13.9422 61.7591 13.5222 61.5458 13.1273C61.2076 12.5001 60.4832 12.3755 59.9309 12.8335C59.7161 13.0112 59.5371 13.2268 59.3307 13.4136C59.0587 13.6604 58.866 13.6483 58.6238 13.3673C58.457 13.1744 58.3313 12.9527 58.2505 12.7112C58.1805 12.5016 58.0532 12.3657 57.8384 12.3057C57.7166 12.2715 57.5863 12.2381 57.488 12.1621C56.932 11.7316 56.2312 11.683 55.6035 11.4445C55.1708 11.2805 54.7115 11.2706 54.2521 11.2964C54.1143 11.304 53.9459 11.3329 53.9002 11.1567C53.8499 10.9631 53.9947 10.84 54.1478 10.7793C54.6399 10.5841 55.1281 10.6061 55.4321 10.7504C54.8585 10.3646 54.3055 9.66903 53.674 9.05619C53.4934 8.78357 53.2824 8.5322 53.0966 8.26337C52.6928 7.66572 52.3325 7.04605 52.1543 6.33981C52.0895 6.08389 51.9905 6.15375 51.8542 6.28285C51.0589 7.03314 50.3741 7.86545 49.9011 8.85799C49.4867 9.64701 49.3884 10.5226 49.2551 11.3777C49.102 12.3588 48.9702 13.3506 49.003 14.3492C49.0403 15.5035 49.2239 16.632 49.7182 17.6914C50.0206 18.491 50.467 19.1988 51.0764 19.8017C51.4847 20.2057 51.9364 20.5406 52.5138 20.6675C52.6441 20.6963 52.7606 20.7396 52.7553 20.9059C52.7271 21.0935 52.6974 21.2803 52.6479 21.4633C52.5542 21.6653 52.5588 21.925 52.312 22.0374L52.3112 22.0382Z" fill="#11051D"/>
<path d="M65.9715 49.9288C66.0454 50.029 66.1551 50.0397 66.2678 50.0685C68.4868 50.6396 69.9234 52.0263 70.6014 54.2057C71.0204 55.5529 71.1529 56.9403 71.2237 58.3399C71.2771 59.3978 71.2588 60.4594 71.3906 61.5142C71.5559 62.8303 72.214 63.9003 73.0329 64.9027C73.8411 65.8914 74.4832 66.9705 74.6805 68.2577C74.7758 68.8789 74.8451 69.5062 74.6424 70.1243C74.567 70.2033 74.4695 70.22 74.3675 70.2223C71.6061 70.2223 68.8448 70.2314 66.0842 70.2193C66.0385 70.2177 65.9936 70.2101 65.9494 70.1988C65.7338 70.097 65.5541 69.9482 65.3994 69.7682C64.2446 68.5865 63.8782 67.1087 63.7967 65.5239C63.7807 65.211 63.831 64.8943 63.7366 64.586C63.6733 63.5411 63.6848 62.4999 63.8699 61.4671C63.8958 61.1641 64.0923 61.035 64.3635 61.0685C65.3035 61.1839 66.1353 60.0053 66.1665 59.2056C66.1917 58.5723 66.1178 57.9997 65.6013 57.5547C65.2943 57.2904 64.9424 57.2388 64.5912 57.4529C64.3863 57.5782 64.2073 57.7415 63.9773 57.8281C63.684 57.9382 63.4227 57.904 63.214 57.6679C62.7227 57.1105 62.0836 56.6867 61.7095 56.0237C61.6326 55.8871 61.4163 55.7769 61.5922 55.5719C61.8413 55.4982 62.0653 55.6137 62.2923 55.6782C62.8179 55.8278 63.3427 55.9683 63.8912 55.8734C62.2443 55.4079 60.506 55.0677 59.7549 53.2451C59.7526 53.2975 59.8478 53.3712 59.8334 53.4706C59.8105 53.5633 59.7496 53.5967 59.6643 53.5625C59.4997 53.4965 59.3238 53.4577 59.163 53.3871C58.7372 53.2003 58.7586 53.2033 58.5308 53.6316C58.3731 53.9278 58.3518 54.2635 58.2032 54.5581C58.1492 54.6652 58.1545 54.8186 57.9839 54.8338C57.6076 54.7297 57.4438 54.4586 57.4057 54.0941C57.3562 53.6081 57.4445 53.1509 57.7104 52.734C57.8338 52.5556 57.9686 52.3847 58.0913 52.204C59.339 50.8697 60.9219 50.1953 62.6922 49.9052C63.5812 49.7594 64.4739 49.6584 65.3758 49.8149C65.5754 49.8498 65.7773 49.868 65.9715 49.928V49.9288Z" fill="#FFC880"/>
<path d="M65.8933 70.1061C65.9184 70.1076 65.942 70.1152 65.9641 70.1274C66.0479 70.1699 66.1378 70.1555 66.2254 70.1555C68.874 70.1555 71.5218 70.1555 74.1704 70.1555C74.2458 70.1555 74.3227 70.1623 74.3959 70.135C74.4781 70.1312 74.5604 70.1266 74.6419 70.1228C75.246 70.321 75.8379 70.5344 75.9993 71.2589C75.8912 73.2979 75.5712 75.3148 75.3557 77.3424C75.2772 78.0813 75.1698 78.818 75.0952 79.5576C75.0677 79.8265 74.9542 79.9168 74.6831 79.9161C70.1583 79.91 65.6328 79.9115 61.108 79.913C60.9061 79.913 60.7241 79.8971 60.6517 79.6677C60.6083 79.5447 60.622 79.4187 60.6441 79.2941C60.8589 78.1019 61.0471 76.905 61.2779 75.715C61.4249 75.0118 61.546 74.3041 61.6519 73.594C61.7433 72.982 61.8576 72.3752 62.0206 71.7783C62.3314 70.6377 63.1335 70.0066 64.3149 70.0157C64.8413 70.0195 65.3776 69.9147 65.894 70.1061H65.8933Z" fill="#05C5C8"/>
<path d="M3.26562 70.1624C3.28695 69.9391 3.23211 69.7075 3.33799 69.4933C3.43321 69.6186 3.37913 69.7523 3.37532 69.8852C3.39055 68.6929 3.6823 67.5561 4.0647 66.436C4.18124 66.0935 4.39301 65.7852 4.43338 65.4161C5.17379 63.8783 6.20672 62.6063 7.75154 61.8044C8.01891 61.6654 8.28704 61.5227 8.60164 61.5189C9.18286 61.3419 9.78006 61.4087 10.3643 61.4528C11.2982 61.5234 12.2001 61.7687 13.0815 62.0869C13.2384 62.1431 13.3846 62.2092 13.4859 62.3489C14.9112 62.9868 16.0028 64.0013 16.8491 65.2969C17.8104 66.7694 18.7054 68.2798 19.4801 69.8586C19.7208 70.3499 19.7155 70.3522 19.2257 70.6021C19.1366 70.6476 19.0505 70.6978 18.9629 70.7464C18.9172 70.8443 18.8296 70.896 18.7389 70.9408C17.5384 71.5339 16.3493 72.1497 15.142 72.7292C15.0506 72.7732 14.9538 72.8036 14.8548 72.8264C14.4214 73.0018 14.1601 72.8089 13.9102 72.4558C13.0502 71.2407 12.3487 69.9535 12.0318 68.7043C12.4584 70.1335 13.0083 71.7336 14.0176 73.1339C14.0847 73.2273 14.1471 73.3443 14.2675 73.3519C14.5684 73.3709 14.6583 73.5865 14.7527 73.8143C15.0681 74.5753 15.5229 75.2625 15.9197 75.9802C16.146 76.3887 16.3486 76.7699 16.178 77.2491C16.1848 77.2947 16.2465 77.2423 16.1962 77.2355C16.1833 77.2339 16.1833 77.2241 16.1863 77.2043C16.1978 77.1436 16.197 77.0729 16.2945 77.101C16.491 77.4876 16.4149 77.8999 16.4149 78.3054C15.7758 78.6958 15.078 78.7839 14.3498 78.6943C14.1997 78.676 14.0626 78.572 14.0169 78.43C13.9834 78.3252 14.0481 78.1862 13.9514 78.1057C13.7023 77.6022 13.6413 77.0547 13.5713 76.5087C13.6299 76.0994 13.4905 75.7136 13.4258 75.3195C13.3085 74.6034 13.0822 73.9055 13.0685 73.1719C13.0685 73.1559 13.003 73.159 12.9664 73.1635C12.795 72.998 12.8171 72.7679 12.7646 72.5644C12.6351 72.0624 12.5536 71.5392 12.2634 71.0995C11.8611 70.4904 11.2495 70.2452 10.538 70.2239C10.1449 70.2117 9.75188 70.2239 9.3573 70.2239C7.63728 70.2231 5.91802 70.2239 4.19952 70.2239C4.0228 70.2239 3.84531 70.2186 3.67392 70.2733C3.52462 70.2869 3.36998 70.3203 3.26867 70.1616L3.26562 70.1624Z" fill="#563F90"/>
<path d="M60.1648 4.71209C59.5646 4.3453 58.9285 4.05369 58.2597 3.83498C58.0609 3.5054 58.1744 3.14241 58.1599 2.79536C58.1386 2.29264 58.1363 2.27213 57.6518 2.27213C41.8411 2.27213 26.0303 2.26985 10.2195 2.27289C10.1944 2.27289 10.1685 2.27365 10.1449 2.27517C9.86837 2.29947 9.93084 2.51894 9.92932 2.67993C9.91865 3.77955 9.92551 4.87916 9.92398 5.97878C9.92398 6.10484 9.93084 6.23166 9.91179 6.35772C9.89884 6.44505 9.88666 6.54985 9.78382 6.56883C9.69013 6.5863 9.61319 6.51719 9.56749 6.43973C9.43266 6.21039 9.21556 6.01295 9.46313 5.69856C9.61548 5.50567 9.48522 5.2338 9.47227 4.99763C9.47074 4.97257 9.44865 4.93763 9.43037 4.93915C8.89182 4.97333 8.92381 4.41289 8.63892 4.18127C8.52999 4.09242 8.48276 4.1881 8.41421 4.20861C8.31289 4.23974 8.27252 4.30885 8.34412 4.41061C8.43858 4.54502 8.56198 4.65817 8.64349 4.80246C8.68691 4.87992 8.73414 4.96801 8.67167 5.04927C8.61074 5.129 8.49571 5.14343 8.4302 5.09027C8.20016 4.9027 8.09046 5.02269 7.97544 5.22317C7.92745 5.3067 7.82919 5.34543 7.80786 5.18292C7.81014 4.01344 7.82004 2.84548 7.80329 1.67752C7.79719 1.2401 7.85432 0.831546 8.07218 0.449567C8.08894 0.306799 8.21006 0.265791 8.31061 0.20428C8.80803 -0.0280973 9.34201 -0.000758836 9.87066 0.00303818C11.3896 0.0151886 12.9085 -0.00759346 14.4282 0.00303818C16.9343 0.0212638 19.4405 -0.00227764 21.9466 0.00227877C23.5409 0.00531638 25.1353 0.0334143 26.7288 0.0326549C28.0588 0.0318955 29.3888 0.0577151 30.7188 0.0372113C31.818 0.0205044 32.9172 0.0182262 34.0164 0.0098728C35.2421 0.000759968 36.4685 0.0402489 37.6949 0.0379707C39.0097 0.0356925 40.3252 -0.00379645 41.6392 0.0106322C47.4117 0.0736626 53.1834 0.0144292 58.9552 0.0387301C59.3345 0.0402489 59.6514 0.159475 59.8609 0.493612C59.9645 0.561958 60.113 0.591575 60.094 0.764719C60.2646 1.27959 60.2029 1.81118 60.1983 2.33668C60.1915 3.12874 60.2501 3.92155 60.1641 4.71209H60.1648Z" fill="#E56990"/>
<path d="M1.14102 71.9082C1.12274 72.4634 1.12959 73.0329 1.29642 73.5516C1.40001 73.8736 1.53637 74.1667 1.53332 74.5183C1.53027 74.8304 1.57293 75.1456 1.6232 75.4554C1.83878 76.7935 2.07492 78.1277 2.27907 79.4673C2.32325 79.7589 2.43599 79.8417 2.71783 79.841C6.58673 79.8318 10.4556 79.8326 14.3245 79.8311C14.4335 79.7111 14.2727 79.5888 14.2522 79.4552C14.1828 78.9988 14.064 78.553 14.0038 78.1126C13.8378 77.5817 13.7395 77.0365 13.6428 76.4897C13.7037 76.1579 13.5719 75.8495 13.5102 75.5367C13.3548 74.7438 13.2451 73.9404 13.0174 73.162C12.8902 72.679 12.7668 72.1953 12.6357 71.7131C12.4034 70.8542 11.8641 70.3287 10.9706 70.1715C10.4648 70.0826 9.9605 70.1525 9.45546 70.1381C8.72266 70.1798 7.9891 70.1479 7.25554 70.1563C6.05427 70.17 4.853 70.1328 3.65173 70.176C3.52299 70.1715 3.39426 70.1669 3.26553 70.1624C2.89913 70.1639 2.52968 70.1404 2.16557 70.173C1.45943 70.2353 1.13493 70.6119 1.13645 71.3151L1.14102 71.9098V71.9082Z" fill="#05C5C8"/>
<path d="M45.963 48.7115C45.6613 47.8647 45.4678 47.3195 45.1631 46.592C44.4776 44.9562 43.8225 43.3083 43.1582 41.6635C43.0782 41.4652 43.0158 41.2594 42.9503 41.0559C42.7751 40.5168 42.8215 40.4082 43.3936 40.4158C43.9108 40.4226 44.3679 40.2001 44.8676 40.1462C45.3977 40.0884 45.915 39.9366 46.4589 39.9388C46.6607 39.9396 46.8839 39.8895 47.0637 39.7558C47.833 39.5759 48.6024 39.3944 49.3718 39.2151C50.4969 38.9531 51.6197 38.6813 52.7196 38.3251C52.9443 38.2522 53.0434 38.2522 53.1157 38.5355C53.3877 39.6002 53.703 40.6542 54.0016 41.712C54.1928 41.9421 54.0999 42.1077 53.8714 42.2246C53.5012 42.4145 53.1173 42.5747 52.7234 42.7122C51.9731 42.9742 51.2076 43.1906 50.4702 43.4891C50.3064 43.5551 50.1404 43.6197 49.9979 43.726C49.8905 43.8065 49.7549 43.8893 49.8654 44.0601C49.9149 44.1118 49.9652 44.1626 49.9842 44.234C49.8049 44.4598 49.857 44.698 50.1404 44.9486C50.1845 45.0041 50.2181 45.0663 50.2531 45.1271C50.3651 45.3276 50.5334 45.4658 50.7322 45.5744C50.8587 45.6435 51.0118 45.6875 51.0583 45.8523C51.0392 46.2388 51.3287 46.3679 51.6098 46.4887C52.4294 46.8395 53.2833 47.0681 54.1708 47.1615C54.4488 47.1904 54.7215 47.242 54.9957 47.2906C55.4566 47.3726 55.5091 47.3407 55.676 46.9459C55.7453 46.9398 55.7925 46.977 55.8344 47.0256C56.1635 47.7554 56.3303 48.533 56.5108 49.3061C56.5771 49.5893 56.4072 49.7488 56.1581 49.8544C55.0125 50.3404 53.8226 50.6806 52.6023 50.9198C50.9196 51.2501 49.2202 51.3648 47.5078 51.3139C47.331 51.3086 47.152 51.3208 46.9875 51.2342C46.9502 51.2152 46.9167 51.1909 46.8862 51.1621C46.6386 50.7869 46.5251 50.3525 46.3583 49.9417" fill="#FCEEF3"/>
<path d="M9.00544 59.4798C8.15305 59.1054 7.32427 58.7006 6.75677 57.9146C6.29972 57.2813 6.08567 56.5568 5.94018 55.8073C5.88914 55.543 5.80383 55.3631 5.52655 55.218C4.91563 54.8991 4.72444 54.2862 4.6475 53.6491C4.57132 53.0165 4.76176 52.4264 5.07712 51.8918C5.33764 51.4499 5.35211 50.9623 5.44505 50.4877C5.79469 48.7069 6.89312 47.466 8.4128 46.6056C9.81441 45.812 11.3173 45.588 12.85 46.292C12.9878 46.355 13.0663 46.2821 13.1585 46.2517C13.9553 45.9852 14.7635 45.9313 15.5785 46.1257C16.2123 46.2768 16.6457 46.6687 16.8263 47.302C16.8621 47.4288 16.8857 47.526 17.0121 47.602C18.4206 48.4472 18.4991 49.6607 17.2163 50.6586C17.0624 50.8013 16.9969 50.657 16.9253 50.5629C16.872 50.4923 16.8522 50.4026 16.8225 50.3191C16.6457 49.824 16.6328 49.8095 16.2519 50.1475C15.414 50.8909 14.4161 50.9927 13.3641 50.8993C13.2636 50.8902 13.1646 50.8659 13.0633 50.859C12.7799 50.8393 12.7883 51.0261 12.8248 51.2099C12.9277 51.724 12.898 52.2427 12.8896 52.7598C12.8766 53.5701 12.5582 54.2847 12.1271 54.9499C11.9404 55.2385 11.7805 55.2454 11.5009 55.0054C11.2229 54.7677 11.0081 54.4647 10.711 54.2414C10.158 53.826 9.50362 53.9756 9.19968 54.6044C8.7175 55.6 9.30252 57.0634 10.3431 57.4643C10.4375 57.5008 10.535 57.5296 10.6257 57.5752C10.7415 57.6329 10.7879 57.718 10.7658 57.8524C10.6676 58.4493 9.6354 59.4069 9.00468 59.479L9.00544 59.4798Z" fill="#11051D"/>
<path d="M9.00544 59.4798C9.79004 59.094 10.4032 58.5427 10.7361 57.6876C9.56684 57.4636 9.09456 56.6464 8.93383 55.5666C8.83328 54.8877 9.21644 54.1412 9.7649 53.9369C10.1214 53.804 10.439 53.8587 10.7148 54.1078C11.0241 54.3872 11.3173 54.6834 11.6175 54.9727C11.7881 55.1368 11.9123 55.1421 12.0547 54.9158C12.7304 53.8465 12.9498 52.6907 12.7601 51.4491C12.7258 51.2266 12.69 51.0048 12.6451 50.7201C14.1442 50.9456 15.5762 50.9281 16.6686 49.6144C16.7874 49.9295 16.8887 50.1824 16.9786 50.4399C17.0205 50.5606 17.0327 50.6973 17.2163 50.6593C17.4364 51.2873 17.5408 51.9442 17.6604 52.5935C17.8112 53.4114 18.0763 54.1602 18.643 54.7836C18.6484 54.9332 18.768 55.0259 18.8274 55.1489C19.0757 55.6653 18.9645 56.1665 18.4488 56.3989C18.0542 56.5766 17.9674 56.8477 17.9308 57.2206C17.8577 57.9595 17.7632 58.6976 17.4677 59.3909C17.2643 59.8694 16.92 60.2331 16.5284 60.5612L16.5383 60.5543C15.7423 61.0411 14.896 61.0806 14.033 60.7905C13.726 60.6872 13.6338 60.7913 13.6376 61.0624C13.6429 61.4003 13.4479 61.7185 13.5439 62.0633C13.5241 62.1582 13.5051 62.2531 13.4853 62.3488C11.9168 61.7238 10.2928 61.4216 8.60095 61.5188C8.86223 60.8642 8.91174 60.1686 9.00544 59.4805V59.4798Z" fill="#924E34"/>
<path d="M25.6569 71.4777C28.3824 70.4449 29.8678 68.3763 30.5618 65.6447C30.5709 65.6098 30.5976 65.5786 30.6159 65.546C30.6639 65.3728 30.7324 65.2156 30.9556 65.2468C31.4629 65.3174 31.9809 65.3364 32.4593 65.5513C34.014 66.0586 35.3356 66.9524 36.556 68.011C36.8233 68.2426 37.0709 68.4962 37.3284 68.74C37.5836 68.8243 37.8083 68.9496 37.9416 69.1972C38.0162 69.7903 37.8448 70.3499 37.6658 70.8982C37.3809 71.7746 36.882 72.5385 36.3061 73.2524C36.1042 73.465 35.8628 73.6252 35.6099 73.7718C35.2618 73.9731 34.9388 73.9708 34.6333 73.6928C33.7863 73.1362 32.9377 72.5818 32.1561 71.9333C31.872 71.6979 31.6 71.4556 31.4104 71.0326C31.8735 71.9637 32.4936 72.6783 33.0954 73.4073C33.5227 73.9252 33.9485 74.4431 34.4406 74.9026C34.5328 74.9884 34.6287 75.0742 34.6752 75.198C34.7278 75.9057 34.6067 76.6029 34.5564 77.3038C34.5267 77.7169 34.5069 78.1308 34.4543 78.5416C34.4772 78.9168 34.3522 79.279 34.3652 79.6541C34.3698 79.7855 34.3042 79.8926 34.2022 79.9754C33.4618 79.9754 32.7213 79.9769 31.9809 79.9769C31.7364 79.5342 31.7661 79.0269 31.6419 78.556C31.354 77.0562 31.0478 75.5602 30.7393 74.0649C30.6319 73.5455 30.4978 73.0314 30.2815 72.5446C30.008 71.931 29.5235 71.6068 28.8532 71.5946C27.9543 71.5779 27.0555 71.5931 26.1566 71.5878C25.9845 71.587 25.7978 71.6242 25.6554 71.4761L25.6569 71.4777Z" fill="#E56990"/>
<path d="M32.8184 31.9097C33.3546 32.7466 33.8909 33.5834 34.4272 34.4203C34.316 34.5403 34.1674 34.5038 34.0326 34.5038C25.1834 34.5061 16.3335 34.5038 7.48427 34.5099C6.92363 34.5099 6.68825 34.3314 6.5458 33.7581C6.49705 33.6404 6.49172 33.4862 6.48486 33.0139C6.48486 32.723 6.52524 32.5499 6.70044 32.2598C6.95943 31.8459 7.37077 31.9112 7.76459 31.9241C7.80268 31.8937 7.84458 31.8679 7.88952 31.8474C8.27801 31.7631 8.67183 31.811 9.06261 31.8079C9.34674 31.8057 9.4869 31.6978 9.47928 31.4085C9.46481 30.8275 9.55469 30.2504 9.55393 29.6695C9.55165 27.0807 9.55241 24.4926 9.55317 21.9038C9.55317 21.7527 9.54251 21.5993 9.57145 21.4504C9.59735 21.316 9.61487 21.1596 9.82207 21.1991C10.0315 21.5917 9.90357 22.0086 9.90967 22.4164C9.7954 23.0065 9.88148 23.6026 9.85711 24.1957C9.85558 25.1753 9.85634 26.1549 9.85711 27.1346C9.86091 28.664 9.84263 30.1934 9.86777 31.7221C9.88148 31.7662 9.90433 31.8057 9.93709 31.8383C10.0795 31.9196 10.2349 31.8907 10.385 31.8907C17.8135 31.8907 25.2421 31.8937 32.6706 31.8907C32.7209 31.8907 32.7696 31.8968 32.8184 31.9097Z" fill="#E56990"/>
<path d="M37.8549 69.1888C37.7276 68.983 37.4664 68.9337 37.3285 68.7408C37.4336 68.7127 37.4435 68.6284 37.4656 68.538C38.0483 66.1922 38.5557 63.8305 38.9632 61.4482C38.9921 61.2789 38.8992 61.1885 38.8276 61.0761C38.5153 60.5863 38.1603 60.1102 38.0567 59.5277C37.9485 58.9209 37.883 58.3081 37.6339 57.7332C37.57 57.5859 37.6141 57.4219 37.7543 57.3254C37.9158 57.2146 38.0979 57.2343 38.254 57.3399C38.5541 57.5434 38.7248 57.8259 38.7027 58.3028C38.9068 57.6649 38.823 57.1136 38.836 56.5706C38.8474 56.1005 38.916 55.6426 39.082 55.2022C39.1346 55.0639 39.1841 54.8885 39.37 54.8984C39.5375 54.9075 39.5695 55.0776 39.6076 55.2075C39.7166 55.5849 39.7813 55.9646 39.7128 56.3633C39.6792 56.5592 39.7067 56.7658 39.7493 56.9738C39.824 56.361 39.9017 55.7482 39.9733 55.1353C40.003 54.8817 40.0578 54.6387 40.2064 54.426C40.265 54.3418 40.3397 54.2575 40.4509 54.2719C40.5735 54.2878 40.6428 54.3797 40.6779 54.4982C40.7434 54.7184 40.7609 54.9432 40.7594 55.1718C40.7556 55.7261 40.7579 56.2813 40.7746 56.8364C40.8394 56.2684 40.8516 55.6942 40.9673 55.1338C41.0138 54.9113 41.0085 54.5529 41.2857 54.5681C41.5813 54.584 41.5744 54.9455 41.5844 55.187C41.6103 55.812 41.6194 56.4385 41.5394 57.0619C41.6232 56.7217 41.7017 56.38 41.7946 56.0421C41.8319 55.9069 41.9104 55.758 42.0696 55.7702C42.2478 55.7839 42.2494 55.9729 42.2623 56.0982C42.3271 56.7179 42.2379 57.3323 42.164 57.9459C42.0368 59.0113 41.8304 60.0585 41.4632 61.0716C41.4305 61.1627 41.4411 61.2713 41.4419 61.3715C41.4571 63.0399 41.4404 64.7091 41.352 66.3752C41.2713 67.8994 41.157 69.422 41.0527 70.9453C41.0443 71.0699 41.0024 71.1914 40.9757 71.3144C41.0808 71.4594 41.0062 71.6052 40.9681 71.7442C40.8302 72.2545 40.6116 72.7276 40.2848 73.1476C39.683 73.8622 38.8954 74.1044 37.9988 73.9799C37.4877 73.9085 36.9766 73.7802 36.5614 73.4331C36.5287 73.2121 36.5843 73.0094 36.7191 72.8355C37.4108 71.9424 37.7482 70.9111 37.8808 69.81C37.9188 69.4971 38.0102 69.5457 38.1938 69.6794C38.5427 69.9346 38.8543 70.2254 39.0485 70.4996C38.8223 69.9953 38.2639 69.6581 37.8556 69.1858L37.8549 69.1888Z" fill="#FFB387"/>
<path d="M32.4593 65.552C32.0259 65.5748 31.6184 65.41 31.191 65.3766C30.9404 65.3569 30.6906 65.2308 30.6654 65.631C30.6555 65.6272 30.6403 65.6257 30.6372 65.6188C30.6281 65.5961 30.6228 65.571 30.6159 65.5467C30.6654 64.8033 30.7264 64.0598 30.686 63.3156C30.6487 62.6238 30.5854 61.9327 30.526 61.2417C30.5062 61.0154 30.446 60.8992 30.1375 60.928C29.292 61.0062 28.531 60.278 28.333 59.2733C28.2073 58.6346 28.2819 58.0415 28.7649 57.5578C29.1069 57.2153 29.5556 57.1781 29.973 57.4302C30.2602 57.6034 30.4826 57.8479 30.6982 58.0939C30.8414 58.258 30.9358 58.2473 31.0851 58.1144C31.8294 57.4515 32.3946 56.6465 32.8935 55.799C33.3635 55.0009 33.7695 54.1686 33.931 53.2406C33.9783 52.9718 33.9676 52.7045 33.9356 52.3475C34.548 52.9953 34.8771 53.6962 35.114 54.4518C35.1605 54.5999 35.1407 54.7715 35.2641 54.8946C35.3844 55.5879 35.4431 56.2919 35.6488 56.9693C35.7988 57.4651 36.0258 57.9033 36.5438 58.1235C36.732 58.2033 36.8805 58.3483 37.0016 58.5131C37.3368 58.971 37.1593 59.5163 36.6017 59.6211C36.2559 59.6856 36.1949 59.8497 36.1706 60.1557C36.1127 60.8817 36.1218 61.6168 35.8963 62.3238C35.4553 63.7044 34.1154 64.3962 32.7435 63.9269C32.4799 63.8365 32.4281 63.8996 32.4388 64.1524C32.4586 64.6187 32.4548 65.0858 32.4601 65.552H32.4593Z" fill="#FFB387"/>
<path d="M65.9718 49.9287C65.7273 50.0768 65.4858 49.9196 65.2489 49.9037C62.5371 49.7207 60.1018 50.3327 58.1182 52.2973C57.9857 52.0984 58.1556 51.992 58.2614 51.8842C58.7452 51.3914 59.3218 51.0238 59.9259 50.6973C60.0447 50.6327 60.1688 50.5773 60.3098 50.5059C60.1704 50.4489 60.0561 50.4664 59.9518 50.496C59.1908 50.7087 58.4808 50.5348 57.8059 50.1915C57.5477 50.0594 57.2437 50.0503 57.0107 49.849C56.8888 49.7435 56.7539 49.887 56.626 49.9325C56.4264 50.0039 56.284 49.9933 56.3891 49.7191C56.5117 49.5992 56.5148 49.4594 56.4744 49.303C56.3121 48.675 56.1705 48.0386 55.9473 47.4311C55.8353 47.1265 55.9076 47.0164 56.191 46.964C56.2276 46.9572 56.2977 46.9807 56.2786 46.8965C56.3304 46.8144 56.418 46.7924 56.5018 46.7674C57.0465 46.6048 57.5744 46.3998 58.0855 46.1507C58.5189 45.9396 58.9958 45.8553 59.449 45.7027C59.5343 45.6738 59.6219 45.6655 59.7019 45.7232C59.8832 45.9244 59.8283 46.21 59.9677 46.4363C60.1155 46.677 60.2983 46.7803 60.5589 46.7248C61.9171 46.4332 63.3088 46.3246 64.6563 45.9753C65.1628 47.2708 65.6039 48.5884 65.9703 49.9303L65.9718 49.9287Z" fill="#55408B"/>
<path d="M40.2209 73.0815C40.6178 72.5552 40.8517 71.9598 40.9758 71.3174C41.8633 71.3189 42.7507 71.3212 43.6381 71.3227C43.6762 71.2938 43.7181 71.2703 43.7623 71.2528C44.2132 71.2118 44.6634 71.2095 45.1144 71.2566C45.2987 71.3204 45.4899 71.2999 45.6788 71.2999C47.7135 71.3014 49.7488 71.3014 51.7835 71.2999C53.0891 71.3029 54.394 71.2999 55.6988 71.2999C55.9274 71.3136 56.1597 71.2718 56.3844 71.347C56.5063 71.4146 56.5185 71.5292 56.4796 71.6386C56.2861 72.1778 56.0744 72.7109 55.7819 73.206C55.756 73.2493 55.7057 73.2683 55.6577 73.285C55.4345 73.3427 55.2067 73.3586 54.9782 73.3571C51.82 73.3267 48.6618 73.345 45.5036 73.3419C44.0076 73.3404 42.5115 73.3214 41.0147 73.3609C40.742 73.3685 40.3885 73.4414 40.2217 73.0807L40.2209 73.0815Z" fill="#FBCDFF"/>
<path d="M19.122 71.028C19.2088 71.2019 19.3398 71.2573 19.5417 71.2535C20.2181 71.2406 20.8953 71.2528 21.5717 71.2551L21.5595 71.2535C21.7424 71.4966 21.5161 71.4692 21.4034 71.4601C21.0751 71.4328 20.7475 71.432 20.42 71.4404C20.1115 71.448 20.0368 71.5543 20.2105 71.8087C20.4916 72.2218 20.4322 72.5833 20.1427 72.9478C19.9911 73.1384 19.9957 73.367 19.982 73.594C19.9408 74.2494 20.097 74.8956 20.0764 75.5495C19.6483 76.1487 19.1638 76.618 18.361 76.7273C17.571 76.8352 17.0538 76.4911 16.5853 75.952C16.404 75.7431 16.2944 75.4758 16.0575 75.3133C15.7863 74.6557 15.413 74.0489 15.0916 73.4163C15.0512 73.3374 15.0146 73.2584 15.0466 73.1672C15.1959 72.9766 15.4382 72.9463 15.6339 72.8354C16.6356 72.2689 17.6426 71.713 18.6085 71.085C18.7677 70.9817 18.9315 70.8731 19.1212 71.0288L19.122 71.028Z" fill="#924E34"/>
<path d="M58.8065 79.9784C57.3539 79.9784 55.9005 79.9784 54.4478 79.9777C54.4227 79.9465 54.4082 79.9108 54.4044 79.8713C54.4044 79.8319 54.4105 79.7931 54.4219 79.7559C54.8554 78.4141 55.3284 77.0859 55.7809 75.7508C55.8213 75.6324 55.8555 75.5086 55.9614 75.425C56.6957 75.8678 57.4666 76.2391 58.2512 76.5816C58.6001 76.7343 58.9665 76.8406 59.3299 76.953C59.5188 77.0114 59.7313 77.0456 59.8418 77.2469C59.8844 77.6273 59.6803 77.9478 59.5782 78.2918C59.4357 78.7725 59.2179 79.2266 59.0358 79.6937C58.9894 79.8129 58.9277 79.92 58.8065 79.9792V79.9784Z" fill="#FFCDBA"/>
<path d="M14.3072 78.5909C14.6225 78.6661 14.9592 78.6524 15.2799 78.5856C15.6471 78.5097 16.0081 78.4033 16.3723 78.3107C16.4736 78.2348 16.5863 78.2454 16.6975 78.2743C17.7091 78.534 18.7481 78.6676 19.7574 78.9372C19.9768 78.9957 20.1924 79.0633 20.3965 79.1627C20.6487 79.3093 20.6677 79.5652 20.7035 79.8128C20.7035 79.8773 20.6814 79.9343 20.6365 79.9814C18.5531 79.9776 16.4705 79.9746 14.3871 79.9708C14.3666 79.9237 14.346 79.8766 14.3254 79.8295C14.2386 79.3906 14.1662 78.9478 14.0558 78.515" fill="#242970"/>
<path d="M58.8065 79.9783C59.1965 79.0952 59.5454 78.1968 59.8044 77.2658C59.8097 76.8921 59.9072 76.5489 60.1358 76.2474C60.4565 76.2254 60.6484 76.0219 60.819 75.7766C60.9798 75.545 61.1032 75.2799 61.3561 75.087C61.5046 75.3209 61.2936 75.526 61.3721 75.7234C61.1489 77.0197 60.9257 78.3168 60.7033 79.6131C60.7726 79.7543 60.7444 79.8743 60.624 79.9745C60.0185 79.9753 59.4129 79.9768 58.8073 79.9776L58.8065 79.9783Z" fill="#FF8E00"/>
<path d="M46.0642 32.966C46.0299 33.6176 45.9819 34.2646 46.0604 34.9222C46.1106 35.3452 46.1891 35.7652 46.2257 36.1897C45.4136 36.8374 44.6008 37.4845 43.7188 38.0388C44.5978 36.7851 44.9749 35.3308 45.3786 33.8894C45.6041 33.0837 45.8067 32.2712 46.0223 31.4487C46.1266 31.5467 46.0291 31.6933 46.1365 31.77C46.1723 31.9909 46.0992 32.196 46.0535 32.4079C46.0146 32.5886 46.0124 32.7815 46.0634 32.9675L46.0642 32.966Z" fill="#FF9000"/>
<path d="M19.1222 71.0281C18.9447 71.0114 18.7863 71.0645 18.6416 71.164C17.6551 71.8391 16.5932 72.3874 15.5611 72.9843C15.4118 73.0709 15.2312 73.1028 15.0659 73.1605C14.8671 73.0997 14.7742 72.9767 14.829 72.7656C16.0615 72.2219 17.2498 71.5908 18.4473 70.9772C18.6149 70.8914 18.7909 70.823 18.963 70.7463C19.0163 70.8405 19.0697 70.9347 19.123 71.0288L19.1222 71.0281Z" fill="#924E34"/>
<path d="M54.4595 79.8416C54.4618 79.8652 54.4572 79.8872 54.4481 79.9085C54.3049 79.9882 54.1495 79.9464 54.001 79.9472C47.5734 79.9495 41.1465 79.9495 34.7189 79.9502C34.5681 79.9502 34.415 79.9267 34.2657 79.9738L34.2352 79.9829L34.204 79.9768C34.2581 79.5029 34.3121 79.0283 34.367 78.5544C34.4622 78.556 34.4866 78.6289 34.5132 78.6987C34.5673 78.925 34.546 79.1528 34.5132 79.3776C34.479 79.6123 34.5864 79.7042 34.8065 79.7103C34.9078 79.7125 35.0091 79.7156 35.1112 79.7156C41.4558 79.7125 47.8004 79.7216 54.1457 79.711C54.2348 79.711 54.3232 79.7057 54.4108 79.73C54.4687 79.749 54.4854 79.787 54.4611 79.8431L54.4595 79.8416Z" fill="#DEB6E2"/>
<path d="M34.2655 79.9738C34.4125 79.8606 34.5839 79.916 34.7431 79.916C41.2606 79.913 47.7781 79.9138 54.2963 79.9138C54.3466 79.9138 54.3976 79.91 54.4479 79.9084C54.4517 79.9312 54.4517 79.954 54.4479 79.9768C52.2686 79.9821 50.09 79.9905 47.9106 79.992C43.4879 79.9943 39.066 79.992 34.6441 79.9912C34.5176 79.9912 34.392 79.9798 34.2655 79.9738Z" fill="#DEB6E2"/>
<path d="M45.8684 49.0463C45.8951 48.943 45.9263 48.8405 45.9629 48.7114C46.1061 49.0532 46.2401 49.3736 46.3742 49.6948C46.5578 50.1725 46.7414 50.6502 46.9249 51.1278C46.6964 51.1643 46.6629 50.9752 46.5997 50.8355C46.3788 50.3533 46.186 49.8589 46.0093 49.3577C45.825 50.0913 45.7046 50.8347 45.5667 51.5751C45.5477 51.6761 45.5614 51.8174 45.3931 51.8227" fill="#55408B"/>
<path d="M58.1842 3.827C56.2417 3.39717 54.3298 3.4678 52.5145 4.32441C50.5104 5.27062 49.0493 6.72032 48.571 8.96739C48.3927 9.80501 48.3721 10.6274 48.8086 11.4301C49.0425 11.86 48.9275 12.3794 48.8734 12.8479C48.7873 13.5937 48.7568 14.3485 48.8536 15.076C48.9511 15.8111 48.7584 16.4414 48.526 17.0938C48.0781 18.3528 47.4276 19.5337 47.0787 20.83C46.7603 22.0109 46.6712 23.1864 47.1587 24.3491C45.914 25.4631 44.8186 26.7199 43.7042 27.9585C42.7672 28.9997 41.8326 30.0423 40.8971 31.0842C40.7395 31.1738 40.626 31.3136 40.5079 31.4434C40.351 31.6158 40.2283 31.6037 40.0691 31.4404C39.6182 30.9779 39.1573 30.5245 38.698 30.0704C38.5997 29.9732 38.5175 29.8563 38.3857 29.797C37.0976 28.4764 35.894 27.0837 34.7362 25.6492C34.6965 25.5998 34.6592 25.5489 34.6181 25.5019C34.2342 25.0637 34.1854 25.0675 33.9135 25.5603C33.4572 25.2292 33.1974 24.7516 32.9948 24.2534C32.6368 23.3763 32.294 22.4961 31.789 21.6866C31.0897 20.5642 30.088 19.7228 29.1533 18.8206C28.5973 18.2837 27.962 17.8433 27.284 17.4659C27.0281 17.3239 26.7676 17.1978 26.4842 17.1211C26.4004 17.0983 26.3029 17.0512 26.2412 17.1454C26.1879 17.2274 26.232 17.3147 26.277 17.3937C26.3402 17.5038 26.4103 17.6102 26.5009 17.6982C27.0083 18.1911 27.4783 18.7219 28.0275 19.173C28.3398 19.4289 28.6323 19.7114 28.8159 20.0828C28.8128 20.1906 28.7473 20.2498 28.6552 20.2893C28.4388 20.3615 28.1989 20.2658 27.9894 20.3835C27.965 20.407 27.9406 20.4306 27.9178 20.4549C27.7639 20.6151 27.8576 20.8232 27.8127 21.0039C27.7906 21.032 27.7639 21.0563 27.735 21.0776C27.3762 21.2948 27.0966 21.5469 27.2947 22.0246C27.3381 22.1286 27.2741 22.2106 27.2109 22.2972C26.8902 22.7361 26.9092 23.0763 27.2703 23.4765C27.38 23.598 27.4897 23.7317 27.6405 23.7947C27.981 23.9375 28.173 24.2033 28.307 24.5268C28.7405 25.2308 29.3636 25.7471 30.0202 26.2256C30.5321 26.5984 31.0722 26.9356 31.4142 27.4923C31.4919 27.6191 31.613 27.7269 31.597 27.8963C31.5825 27.9289 31.5749 27.9676 31.5528 27.9927C31.1522 28.4407 31.0958 28.9359 31.3837 29.4781C31.5772 29.8411 31.7783 30.1995 31.9764 30.5602C32.0716 30.9232 32.3435 31.1875 32.5126 31.5095C32.6505 31.7722 32.6246 31.8338 32.3237 31.8687C32.198 31.8839 32.0701 31.8763 31.9436 31.8763C24.7855 31.8763 17.6281 31.8763 10.47 31.8763C10.3939 31.8763 10.3177 31.877 10.2415 31.8755C9.81493 31.8641 9.77989 31.8391 9.78979 31.4214C9.85835 28.5379 9.80426 25.653 9.83092 22.7695C9.83626 22.1521 9.89034 21.5385 9.80579 20.9204C9.75627 20.5604 9.87739 20.1967 9.87587 19.8268C9.8652 17.2585 9.81112 14.688 9.88577 12.1219C9.97642 8.99777 9.91167 5.8751 9.94823 2.75244C9.95433 2.23985 9.99851 2.20339 10.5203 2.23073C10.6597 2.23833 10.7991 2.23301 10.9393 2.23301C25.6615 2.23301 40.383 2.23529 55.1052 2.2277C56.017 2.2277 56.9296 2.26187 57.8406 2.22997C58.1324 2.2201 58.2603 2.30895 58.2299 2.61879C58.1903 3.01899 58.2718 3.42527 58.1857 3.82548L58.1842 3.827Z" fill="#55408B"/>
<path d="M52.6988 20.9112C52.6935 20.8642 52.7103 20.7958 52.647 20.7852C51.5296 20.5968 50.8646 19.8154 50.262 18.9634C50.0091 18.6065 49.8057 18.2161 49.6679 17.7969C49.6184 17.4301 49.418 17.1157 49.3129 16.7657C48.9983 15.7131 48.9381 14.6378 48.9762 13.5534C49.0013 12.8365 49.1118 12.1272 49.1994 11.4157C49.223 11.2213 49.268 11.0443 49.4439 10.9289C49.9375 10.4801 50.4921 10.6168 51.0489 10.7641C51.1875 10.8006 51.2965 10.9426 51.4663 10.8879C51.3079 10.5203 50.7899 10.3282 50.2765 10.4186C50.0274 10.4626 49.517 11.822 49.252 11.7992C49.0562 11.727 49.3906 10.3966 49.4165 10.2386C49.5026 9.71081 49.69 9.21569 49.8819 8.72055C50.3969 7.62246 51.1822 6.74003 52.1321 5.90393C52.3187 6.78028 53.2839 8.36591 53.7493 9.07216C53.6091 9.13823 53.4179 9.33263 53.3151 9.16708C53.034 8.716 52.3804 7.22073 52.2113 6.71497C52.1702 6.59119 52.139 6.46285 52.0933 6.36489C52.5221 7.87306 53.4781 9.05925 54.5118 9.99635C54.3594 9.83764 54.0784 9.57488 53.814 9.29618C53.7287 9.20657 53.5596 9.12759 53.7051 8.95749C54.3435 9.61817 54.9757 10.2857 55.7298 10.8924C55.2431 10.8218 54.8066 10.6677 54.3511 10.8119C54.2543 10.8423 54.1515 10.8552 54.0791 10.9274C54.0121 10.9934 53.8955 11.0565 53.9504 11.1734C54.0045 11.2881 54.1088 11.1977 54.1873 11.1932C54.866 11.1567 55.4952 11.3853 56.1465 11.503C56.858 11.6313 57.3645 12.1508 58.0486 12.2662C58.2124 12.2935 58.268 12.3976 58.3091 12.5388C58.3975 12.8411 58.5209 13.1281 58.7372 13.3651C58.9086 13.5526 59.0686 13.6066 59.2544 13.3651C59.4388 13.1251 59.6505 12.9056 59.8958 12.7226C60.5288 12.2518 61.2334 12.3915 61.6326 13.0719C61.8916 13.5131 61.9487 13.9809 61.852 14.4875C61.6417 15.5894 60.7855 16.4437 59.6818 16.6168C59.6071 16.6282 59.521 16.6609 59.4586 16.6366C58.9939 16.4543 58.8713 16.6631 58.8225 17.0983C58.6976 18.2063 58.6351 19.3104 58.8842 20.4062C59.0647 21.2013 59.5187 21.7838 60.3224 22.0503C59.1097 24.3893 56.8488 25.3196 54.377 25.0811C53.5802 25.0044 52.8367 24.6802 52.254 24.0863C51.7284 23.5509 51.6751 23.0892 52.0536 22.4566C52.1374 22.3161 52.2258 22.1787 52.3119 22.0405C52.3957 21.8438 52.4787 21.6471 52.5625 21.4504C53.05 21.8233 53.5886 21.6957 54.1058 21.5696C55.0473 21.3411 55.7664 20.7351 56.4657 20.1063C57.0035 19.6225 57.4369 19.0499 57.6738 18.7173C56.9905 19.5724 55.8708 20.3181 54.5362 20.7495C54.1728 20.8664 53.8034 20.9431 53.4187 20.9363C53.2062 20.9325 52.9975 20.9204 52.7956 21.0449C52.6707 21.1224 52.6516 21.0183 52.7011 20.9135L52.6988 20.9112Z" fill="#FFCDBA"/>
<path d="M59.7032 45.7217C58.6101 45.9533 57.6389 46.5259 56.5755 46.8418C56.4726 46.8722 56.3431 46.8434 56.2639 46.9466C56.1024 47.0226 55.9402 47.097 55.7558 47.0241C55.7299 47.0059 55.704 46.9876 55.6781 46.9702C55.6103 47.0135 55.5349 47.0195 55.4587 47.0112C54.3885 46.8889 53.3091 46.8099 52.2716 46.4955C52.0035 46.4143 51.6561 46.4037 51.5632 46.0331C51.8024 45.9594 52.0416 46.0331 52.2709 46.0695C53.2413 46.2206 54.1783 46.0718 55.1106 45.8288C55.1563 45.7984 55.0596 45.746 55.0931 45.7847C55.1023 45.7954 55.0992 45.806 55.0809 45.8128C54.2209 46.1136 53.3304 46.1887 52.4339 46.0931C51.9981 46.0467 51.5548 46.0217 51.1252 45.9116C51.0833 45.8956 51.0467 45.8721 51.0155 45.8402C50.7298 45.6177 50.2979 45.5683 50.1875 45.14C50.5356 45.0595 50.8852 45.1355 51.2311 45.1468C52.36 45.1841 53.4775 45.1818 54.1607 44.8347C53.3023 45.2881 51.9875 45.1453 50.6887 45.1332C50.4876 45.1317 50.2857 45.0982 50.1075 44.9881C50.013 44.9289 49.9041 44.8833 49.8264 44.8066C49.5583 44.5393 49.6032 44.3548 49.9567 44.228C50.4663 44.1239 50.9827 44.209 51.4977 44.1619C52.4461 44.0746 53.3716 43.9303 54.2293 43.4921C54.2605 43.4762 54.2979 43.4519 54.3131 43.4701C52.8932 44.1232 51.3842 44.2834 49.831 44.1384C49.4455 43.9599 49.7137 43.7913 49.863 43.6774C50.1555 43.4534 50.5166 43.3554 50.8593 43.2309C51.8069 42.8869 52.7858 42.6325 53.7052 42.2087C53.9345 42.1032 54.096 41.9938 54.0023 41.7136C54.78 41.4774 55.5547 41.5101 56.3249 41.7493C56.6707 41.8564 57.0142 41.971 57.3585 42.0819C57.8202 42.17 58.2932 42.1024 58.7541 42.1935C58.9529 42.2345 58.8767 42.4191 58.9186 42.5337C59.24 43.4025 59.4533 44.2994 59.4952 45.2243C59.5059 45.4567 59.7154 45.4916 59.7603 45.6594C59.7413 45.6807 59.723 45.702 59.704 45.724L59.7032 45.7217Z" fill="#FFCDBA"/>
<path d="M31.597 27.8978C31.1224 27.0268 30.2792 26.5521 29.535 25.9651C29.036 25.5718 28.5439 25.1526 28.2461 24.5663C28.2613 24.5564 28.2766 24.5473 28.291 24.5367C28.5028 24.5655 28.6574 24.4706 28.7808 24.3112C28.9545 24.0864 29.1945 23.9398 29.4245 23.7849C29.6942 23.6034 29.832 23.6391 29.9516 23.9337C30.0811 24.2519 30.2472 24.545 30.4262 24.7896C30.1261 24.3552 29.8389 23.8722 29.8457 23.2829C29.8473 23.1212 29.6797 23.147 29.6462 23.0414C29.637 22.4157 29.1686 22.1301 28.7283 21.8347C28.4868 21.6722 28.2392 21.5188 28.0115 21.3381C27.8972 21.2477 27.7479 21.1703 27.7822 20.9804C27.6908 20.7617 27.6946 20.5559 27.866 20.3736C28.1669 20.2856 28.4335 20.3433 28.6757 20.546C28.7824 20.6356 28.9202 20.6987 29.0566 20.7085C29.9097 20.7701 30.513 21.2994 31.1392 21.7892C31.207 21.8423 31.2634 21.9175 31.386 21.9183C31.3395 21.6958 31.1857 21.5727 31.0158 21.4687C30.4978 21.1528 29.9905 20.8179 29.4276 20.5832C29.1648 20.4731 28.9469 20.3099 28.7793 20.0805C28.109 19.3204 27.3137 18.6863 26.6236 17.9466C26.4773 17.7902 26.3356 17.6277 26.2092 17.4545C26.1223 17.336 26.0218 17.1971 26.149 17.0452C26.2663 16.9047 26.4011 16.9882 26.5299 17.0353C27.2718 17.3079 27.9399 17.7119 28.5561 18.2002C29.5113 18.9566 30.3912 19.7988 31.1879 20.7161C31.939 21.5803 32.47 22.5865 32.8417 23.6679C33.0832 24.3689 33.4541 24.9878 33.9127 25.5626C33.854 25.6576 33.7954 25.7525 33.7367 25.8482C33.2073 26.521 32.5736 27.0837 31.8819 27.5849C31.7783 27.6601 31.7166 27.771 31.6678 27.8879C31.6442 27.8925 31.6214 27.8963 31.5978 27.8993L31.597 27.8978Z" fill="#FFCDBA"/>
<path d="M58.1844 3.82695C58.1844 3.44725 58.1669 3.06679 58.1913 2.68861C58.2103 2.39092 58.1151 2.30056 57.8097 2.30207C55.5816 2.31423 53.3535 2.30815 51.1261 2.30815C37.6867 2.30815 24.2465 2.30663 10.807 2.3165C10.5754 2.3165 10.2974 2.13045 10.1245 2.32562C9.95613 2.51547 10.0605 2.81239 10.0597 3.06072C10.0529 5.62902 10.113 8.19959 10.0369 10.7656C9.94318 13.9141 10.0612 17.0633 9.96146 20.2088C9.8571 23.4962 9.94699 26.7837 9.89519 30.0704C9.88833 30.4979 9.82739 30.9232 9.81901 31.353C9.81292 31.6826 9.89595 31.7806 10.2403 31.7798C13.8067 31.7669 17.3725 31.773 20.939 31.773C24.6578 31.773 28.3759 31.773 32.0947 31.7714C32.2417 31.7714 32.3887 31.7714 32.6074 31.7714C32.3994 31.4373 32.2227 31.1654 32.0604 30.886C32.0056 30.7911 31.854 30.7075 31.9774 30.5625C32.2577 31.0113 32.5388 31.4608 32.8191 31.9097C32.7917 31.9172 32.7643 31.9256 32.7376 31.9332C32.6873 31.9385 32.6378 31.9362 32.5883 31.9279C26.112 31.9172 19.6356 31.9264 13.1593 31.9233C12.1705 31.9233 11.1818 31.9248 10.1938 31.9218C10.0453 31.9218 9.88605 31.9583 9.75884 31.8398C9.76036 30.2739 9.76265 28.7088 9.76417 27.1429C9.8213 26.1557 9.77255 25.1677 9.78931 24.1805C9.80378 23.5988 9.76036 23.0163 9.81216 22.4354C9.81216 22.0298 9.81216 21.6236 9.81292 21.218C9.73675 21.1261 9.71085 21.0168 9.71161 20.9021C9.71618 19.7744 9.66895 18.6467 9.73675 17.5197C9.86167 16.7497 9.7756 15.9759 9.78397 15.2036C9.77636 12.977 9.78017 10.7497 9.78093 8.5231C9.78093 8.38413 9.78474 8.2444 9.8114 8.10771C9.93251 7.42728 9.84415 6.73698 9.90052 6.05352C9.91423 5.89177 9.90281 5.7285 9.90205 5.56599C9.90205 4.62585 9.90128 3.68647 9.90281 2.74708C9.90281 2.54812 9.89214 2.34688 9.98736 2.16159C22.1303 2.16083 34.2733 2.16007 46.4155 2.15931C50.2349 2.15931 54.0543 2.1631 57.8729 2.15247C58.1814 2.15171 58.2964 2.21626 58.2728 2.54129C58.2423 2.96959 58.2621 3.40093 58.2606 3.83075C58.2355 3.83075 58.2096 3.83075 58.1844 3.82847V3.82695Z" fill="#55408B"/>
<path d="M58.869 41.7887C58.818 41.7561 58.767 41.7234 58.6786 41.6672C59.1158 41.4789 59.5401 41.3111 59.9507 41.1144C60.6789 40.765 61.3995 40.3937 61.967 39.8044C62.6678 39.0761 63.0182 38.1884 63.0594 37.1845C63.0998 36.1889 63.054 35.2017 62.7676 34.2334C62.645 33.8195 62.3723 33.4968 62.143 33.0989C62.3746 33.1771 62.4195 33.3669 62.5391 33.4847C62.7014 33.6449 62.8735 33.8233 63.0647 33.5112C63.3268 33.7451 63.3009 34.0929 63.39 34.3876C63.7449 35.5662 64.0634 36.7554 64.4503 37.9249C64.4519 38.3403 64.4755 38.7557 64.4602 39.1718C64.4541 39.3374 64.4221 39.4968 64.3467 39.6464C64.2447 39.7976 64.0679 39.809 63.9179 39.8644C62.6404 40.3329 61.4041 40.9048 60.1282 41.3771C59.822 41.4903 59.5081 41.5806 59.2202 41.7439C59.1227 41.7994 59 41.8829 58.8698 41.7895L58.869 41.7887Z" fill="#FF9000"/>
<path d="M59.7595 45.6572C59.4853 45.6693 59.3992 45.5714 59.3939 45.2691C59.3771 44.3639 59.1364 43.4936 58.8637 42.6348C58.8218 42.5034 58.7563 42.3811 58.7799 42.2368C58.77 42.2042 58.7814 42.1806 58.8127 42.1677C58.9353 42.1799 58.9772 42.2801 59.0145 42.3705C59.4167 43.3486 59.7374 44.3495 59.8722 45.4028C59.8867 45.5167 59.9377 45.6336 59.7595 45.6572Z" fill="#FF8956"/>
<path d="M58.869 41.7888C59.9582 41.3917 61.0392 40.9717 62.1086 40.5229C62.827 40.2214 63.556 39.945 64.2804 39.6572C64.4457 39.4962 64.6681 39.4392 64.8677 39.3398C64.9043 39.3322 64.9355 39.3413 64.9614 39.3678C65.177 39.4521 65.3491 39.2995 65.538 39.2524C66.1992 39.0884 66.8528 38.8674 67.5536 39.0967C65.8602 39.0178 64.3954 39.7726 62.8856 40.3338C61.4909 40.8525 60.1426 41.4904 58.7235 41.9475C58.7014 41.9293 58.693 41.9103 58.6998 41.8906C58.7059 41.8708 58.7128 41.861 58.7196 41.861C58.7699 41.8374 58.8202 41.8131 58.8705 41.7896L58.869 41.7888Z" fill="#FF9000"/>
<path d="M64.9608 39.367C64.9417 39.3701 64.9227 39.3716 64.9037 39.3716C64.5906 38.9372 64.4131 38.4565 64.4085 37.9181C63.9119 36.5276 63.5409 35.0999 63.1356 33.6821C63.1189 33.6237 63.0884 33.5682 63.064 33.512C62.9589 32.8027 62.6847 32.1276 62.6656 31.3971C62.8043 31.9401 62.9315 32.4861 63.0823 33.0253C63.6376 35.005 64.1549 36.9954 64.8618 38.9304C64.912 39.0678 64.9913 39.2083 64.9608 39.3678V39.367Z" fill="#FF9000"/>
<path d="M31.6681 27.8864C31.5653 27.7262 31.6635 27.6244 31.7793 27.5394C32.4207 27.0678 33.0507 26.5833 33.5374 25.9424C33.5862 25.8778 33.657 25.852 33.7362 25.8467C33.3089 26.5955 32.7932 27.2652 32.0505 27.7346C31.9309 27.8105 31.8029 27.8553 31.6681 27.8864Z" fill="#FFB79C"/>
<path d="M46.0644 32.966C45.8915 32.5551 46.1101 32.1678 46.1375 31.7684C46.4704 30.1562 47.0211 28.6146 47.6701 27.1034C47.4576 27.7291 47.2474 28.3556 47.0318 28.9806C46.641 30.1121 46.3249 31.2626 46.1025 32.439C46.0697 32.6106 46.0758 32.7906 46.0644 32.966Z" fill="#FF9000"/>
<path d="M40.3398 31.631C41.0932 32.6752 41.1534 33.8712 41.0978 35.0939C41.0117 33.8879 40.9447 32.6767 40.2065 31.6394C40.2469 31.571 40.2919 31.5756 40.3398 31.631Z" fill="#FF9000"/>
<path d="M58.7181 41.8601C58.7197 41.889 58.7204 41.9179 58.722 41.9467C58.7524 42.0204 58.7821 42.094 58.8126 42.1677C58.8019 42.1905 58.7905 42.214 58.7798 42.2368C58.2984 42.249 57.8086 42.3332 57.3577 42.0788C57.7964 41.9156 58.268 41.952 58.7189 41.8594L58.7181 41.8601Z" fill="#FF9000"/>
<path d="M40.3398 31.631C40.2956 31.634 40.2506 31.6363 40.2065 31.6393C39.5994 31.0257 38.9922 30.4121 38.3851 29.7978C38.52 29.7218 38.5527 29.86 38.6106 29.917C39.0616 30.3574 39.5232 30.7895 39.9467 31.2558C40.1966 31.5307 40.3786 31.59 40.6186 31.2634C40.6765 31.1852 40.7237 31.0174 40.8958 31.085C40.7328 31.29 40.5569 31.4806 40.3398 31.631Z" fill="#55408B"/>
<path d="M31.7448 78.5575C31.5658 78.8552 31.7304 79.162 31.7898 79.4316C31.8804 79.8432 31.7083 79.8379 31.4112 79.8379C28.9256 79.8326 26.4401 79.8364 23.9545 79.8364C22.8515 79.8364 21.7477 79.8341 20.6447 79.8333C20.5251 79.6549 20.647 79.3701 20.3888 79.2524C20.2821 78.3054 20.1252 77.366 19.9736 76.4251C19.9279 76.1426 19.851 75.8556 20.0292 75.5868C19.9012 74.8289 19.8464 74.0642 19.8906 73.2972C19.9005 73.1316 19.9325 72.9577 20.1138 72.8134C20.3948 72.5894 20.3811 72.2294 20.1526 71.95C20.0863 71.8695 20.0574 71.7806 20.0216 71.6865C19.9203 71.4214 19.9797 71.3083 20.2753 71.3341C20.6759 71.369 21.0827 71.2771 21.4819 71.3949C21.6174 71.4343 21.5679 71.322 21.5603 71.2551C21.9298 71.5209 22.3541 71.4905 22.7768 71.4875C23.7366 71.4799 24.6972 71.4814 25.6577 71.4799C26.7112 71.4822 27.7647 71.4845 28.8182 71.4875C29.5777 71.4898 30.1048 71.8528 30.4057 72.556C30.8064 73.4931 30.9305 74.4993 31.1438 75.4827C31.3647 76.5034 31.5468 77.5331 31.7464 78.5591L31.7448 78.5575Z" fill="#05C5C8"/>
<path d="M52.6988 20.9113C53.683 20.8293 54.6603 20.7427 55.5515 20.2415C56.49 19.7137 57.3348 19.0819 58.0051 18.2261C57.8307 18.662 57.5694 19.044 57.2677 19.388C56.3788 20.404 55.4053 21.3092 54.0532 21.6912C53.7073 21.7892 53.3531 21.7398 53.0042 21.7945C52.8184 21.8241 52.6439 21.6487 52.5609 21.4475C52.6318 21.2751 52.5731 21.0693 52.6988 20.9106V20.9113Z" fill="#FFB79C"/>
<path d="M45.393 51.8212C45.5187 51.1985 45.6413 50.575 45.7708 49.9531C45.8264 49.6843 45.8942 49.4169 45.9674 49.1056C46.2119 49.4754 46.2675 49.8954 46.4595 50.2508C46.6164 50.5416 46.624 50.913 46.9249 51.1271L46.9165 51.121C47.1344 51.3299 47.42 51.2729 47.6722 51.279C50.2438 51.3458 52.756 50.998 55.2005 50.1839C55.6133 50.0465 55.9843 49.7875 56.4353 49.761C56.3644 50.0024 56.5152 49.9379 56.5983 49.8574C56.8298 49.6319 56.9875 49.6881 57.2389 49.8726C57.4453 50.0237 57.747 50.0959 58.0014 50.1688C58.1903 50.2227 58.3533 50.4087 58.4386 50.3935C58.7517 50.3381 59.01 50.5264 59.3101 50.5059C59.6986 50.4793 60.0802 50.2842 60.5373 50.43C60.3575 50.6244 60.148 50.6738 59.972 50.771C59.3634 51.1081 58.7799 51.4795 58.2901 51.9792C58.2033 52.068 58.0928 52.1462 58.1187 52.2966C58.0159 52.4424 57.9138 52.5882 57.811 52.7348C57.2587 53.3514 57.293 54.2786 57.9001 54.8049C57.9984 54.89 58.0646 54.9796 58.0425 55.0912C57.9321 55.641 58.0182 56.1999 57.9504 56.7513C57.8521 57.5501 57.5771 58.2632 57.0134 58.8525C56.999 58.8875 56.9845 58.9224 56.9624 58.9535C56.5069 59.5937 56.5069 59.6134 57.1109 60.1405C57.2244 60.2399 57.2755 60.3539 57.2922 60.4974C57.4034 61.4239 57.5756 62.3359 57.9869 63.1857C58.1987 63.7651 59.2842 64.2109 59.9652 64.0681C60.2242 64.0142 60.4877 63.9868 60.7437 63.9155C61.0042 63.8426 61.1672 63.9474 61.2167 64.2025C61.2792 64.523 61.251 64.8814 61.4224 65.1601C61.817 65.8018 61.3973 65.6689 61.0811 65.7578C60.9859 65.7843 60.8892 65.8231 60.8221 65.9058C60.7856 65.9582 60.7437 66.0084 60.6866 66.0365C59.2491 66.7427 58.4386 68.0208 57.6525 69.327C57.3593 69.8137 57.1589 70.3491 56.8291 70.8146C56.8001 70.8556 56.759 70.8875 56.7255 70.9263C56.5907 71.2536 56.3461 71.3409 55.9988 71.3394C52.4993 71.3287 48.9991 71.3439 45.4997 71.3219C44.9093 71.3181 44.3129 71.3432 43.7233 71.2558C43.7895 71.0356 43.7842 70.8093 43.7918 70.5823C43.8482 68.8318 43.9518 67.0844 44.0866 65.3386C44.1544 64.4599 44.1841 63.5783 44.2519 62.6996C44.3372 61.5962 44.4408 60.4936 44.5421 59.3917C44.6442 58.2769 44.7349 57.1606 44.8628 56.0488C45.0083 54.7882 45.1896 53.5321 45.3534 52.2738C45.3732 52.1242 45.3808 51.9731 45.3938 51.8227L45.393 51.8212Z" fill="#55408B"/>
<path d="M57.8866 63.1668C57.4547 62.3322 57.3046 61.4247 57.1957 60.5066C57.1812 60.3874 57.2056 60.2636 57.0547 60.1899C56.309 59.8216 56.4469 59.2855 56.8986 58.8906C56.926 58.8663 56.9458 58.8336 56.9694 58.8048C57.8157 58.0347 57.9216 57.0057 57.9544 55.9593C57.9665 55.5674 57.9909 55.1779 58.0252 54.7883C58.189 54.3182 58.3406 53.8436 58.5219 53.3803C58.6399 53.0781 58.8273 53.0781 59.1229 53.2611C59.3164 53.3811 59.5647 53.413 59.7886 53.4844C60.0316 53.5527 60.0339 53.8079 60.1528 53.9696C60.558 54.5225 60.964 55.0662 61.5437 55.4535C61.5963 55.4884 61.6389 55.5378 61.6168 55.6115C61.8499 56.1704 62.2148 56.6458 62.6955 56.9928C62.8988 57.1394 63.0428 57.327 63.1738 57.4986C63.4747 57.8904 63.8046 57.892 64.2586 57.5631C64.5602 57.3444 64.8443 57.1052 65.2534 57.2404C65.811 57.4249 66.1477 57.8661 66.2338 58.3871C66.3754 59.246 66.2345 60.0737 65.5307 60.7109C65.2069 61.004 64.8565 61.1893 64.4056 61.1597C64.2228 61.1475 64.0041 61.1073 63.9683 61.3905C63.8274 62.0254 63.6918 62.6625 63.5646 63.3004C63.4831 63.7075 63.3673 64.1069 63.3079 64.5185C63.2828 64.6939 63.269 64.864 63.2988 65.0387C62.7259 65.2817 62.1615 65.5536 61.5231 65.587C61.3022 65.2073 61.3205 64.7661 61.2085 64.3575C61.0737 63.8669 61.1049 63.8631 60.6357 63.9801C59.9219 64.1585 59.2158 64.2178 58.544 63.8206C58.2674 63.6573 58.0359 63.4531 57.885 63.166L57.8866 63.1668Z" fill="#FFCDBA"/>
<path d="M61.5421 65.5717C62.1271 65.4069 62.6809 65.1457 63.2796 65.0242C63.3794 64.8738 63.4998 64.7774 63.691 64.8731C63.7481 64.9475 63.7618 65.0348 63.7511 65.1237C63.6125 66.2613 63.9789 67.3107 64.327 68.361C64.4382 68.6974 64.6317 68.9951 64.8549 69.273C65.024 69.4842 65.2145 69.6596 65.4818 69.7332C65.6189 69.8578 65.7561 69.9823 65.8932 70.1061C65.3363 70.1091 64.7787 70.1061 64.2219 70.116C63.1776 70.135 62.4333 70.7212 62.1401 71.7259C61.878 72.6235 61.7897 73.553 61.616 74.4674C61.536 74.8865 61.4537 75.3057 61.3722 75.7249C61.2062 75.5525 61.3974 75.3726 61.3631 75.1622C61.1201 75.4941 60.8931 75.8001 60.6707 76.1107C60.5381 76.2952 60.3721 76.3605 60.1557 76.2785C59.8122 76.3651 59.5067 76.2094 59.202 76.1046C58.278 75.788 57.3753 75.4151 56.5047 74.9701C56.4026 74.9177 56.2967 74.8767 56.1901 74.8357C56.008 74.7688 55.8595 74.6496 55.7087 74.5342C55.2074 74.1492 55.1975 73.7026 55.6774 73.2364C55.957 72.6417 56.2762 72.0631 56.4376 71.4191C56.491 71.192 56.6174 71.0014 56.7469 70.8123C57.1682 70.0902 57.5239 69.3323 57.9703 68.6222C58.6909 67.4771 59.5372 66.4678 60.791 65.8694C61.015 65.7046 61.2679 65.6112 61.5428 65.5725L61.5421 65.5717Z" fill="#FFC446"/>
<path d="M61.6168 55.6122C60.7957 55.0836 60.2388 54.3295 59.7886 53.4843C59.7399 53.3157 59.6911 53.1471 59.6439 52.9778C59.6416 52.9702 59.6576 52.958 59.6873 52.9193C60.4544 54.9872 62.3229 55.3616 64.1405 55.8217C63.9074 56.004 63.4336 56.0648 63.0085 55.9622C62.5439 55.8506 62.0807 55.7299 61.6168 55.6129V55.6122Z" fill="#FFB559"/>
<path d="M65.9078 70.1084C65.7402 70.1904 65.0828 69.6581 64.9412 69.526C64.2937 68.9207 64.0164 68.1294 63.7978 67.3108C63.6751 66.8521 63.5967 66.3813 63.5007 65.9158C63.42 65.5239 63.5517 65.1427 63.5594 64.7546C63.5304 64.6293 63.5487 64.5359 63.7048 64.5314C63.8503 64.6802 63.813 64.8572 63.8138 65.0242C63.8199 66.7344 64.1329 68.6071 65.9078 70.1084Z" fill="#FF9000"/>
<path d="M63.8183 64.6468C63.7695 64.7212 63.7208 64.7956 63.6728 64.8701C63.5425 64.9217 63.4115 64.9726 63.2805 65.0242C63.1144 65.0614 63.0885 64.9711 63.1358 64.7827C63.3696 63.8494 63.5082 62.8933 63.7939 61.9722C63.8541 61.7793 63.7162 61.5249 63.9691 61.3912C63.7985 62.4711 63.8068 63.5586 63.8183 64.6468Z" fill="#FFB79C"/>
<path d="M20.0287 75.586C20.0576 76.6324 20.2976 77.6516 20.4453 78.6828C20.4735 78.8795 20.5573 79.077 20.3874 79.2524C19.2197 78.8165 17.9704 78.7223 16.7752 78.3996C16.6427 78.3639 16.5063 78.3403 16.3715 78.3115C16.2626 77.9029 16.3616 77.4716 16.2382 77.0646C16.1788 76.5352 16.0242 76.0189 16.0143 75.482C16.0127 75.406 16.0173 75.3308 16.0813 75.2754C16.2336 75.2617 16.2938 75.3642 16.3654 75.4759C16.597 75.8351 16.8606 76.1654 17.2277 76.4061C17.8219 76.7965 18.8601 76.6932 19.3835 76.1966C19.5983 75.993 19.7514 75.7242 20.0279 75.586H20.0287Z" fill="#B478BA"/>
<path d="M16.0818 75.2754C16.1763 75.8685 16.2311 76.4646 16.2388 77.0645C16.2273 77.1496 16.2167 77.2346 16.2052 77.3197C16.2776 76.3241 15.5585 75.6604 15.1632 74.8676C14.9666 74.4735 14.7739 74.0778 14.5812 73.6814C14.5401 73.5979 14.5408 73.4293 14.4121 73.4703C14.0876 73.5728 14.0213 73.3108 13.8987 73.1407C12.8779 71.7244 12.3508 70.097 11.8938 68.44C11.8816 68.3952 11.8922 68.3436 11.9341 68.2836C12.0949 68.7347 12.2335 69.1956 12.4209 69.6361C12.8871 70.7334 13.4995 71.7472 14.2118 72.7048C14.4174 72.982 14.6345 72.6486 14.828 72.7656C14.9072 72.8969 14.9864 73.0291 15.0649 73.1604C15.3308 73.6556 15.5943 74.1522 15.8625 74.6466C15.9706 74.8448 16.0727 75.0438 16.0811 75.2761L16.0818 75.2754Z" fill="#2F2A75"/>
<path d="M9.45562 70.1382C9.39468 70.1529 9.33374 70.1799 9.2728 70.1799C7.39891 70.1799 5.52501 70.1783 3.65112 70.176C3.70978 70.1575 3.76919 70.122 3.82785 70.1228C5.70326 70.1259 7.57944 70.1321 9.45485 70.1382H9.45562Z" fill="#A34B6B"/>
<path d="M9.90955 8.10468C9.9065 9.37744 9.90422 10.6502 9.90041 11.9222C9.89736 13.0188 9.89279 14.1153 9.88898 15.2127C9.82804 15.8384 9.87832 16.4657 9.8608 17.0922C9.85699 17.2297 9.87984 17.3686 9.84023 17.5038C9.83033 18.7416 9.82119 19.9802 9.81128 21.218C9.57286 21.294 9.67798 21.4945 9.67722 21.6365C9.67036 24.381 9.67569 27.1262 9.66731 29.8707C9.66579 30.4721 9.61247 31.0736 9.59876 31.6758C9.59419 31.8876 9.49287 31.9279 9.3131 31.9249C8.81873 31.9165 8.3236 31.9173 7.82922 31.915C7.83379 29.3847 7.84217 26.8543 7.84294 24.324C7.84522 18.9717 7.84294 13.6195 7.84446 8.26719C7.84446 8.15328 7.84979 8.03937 7.85284 7.92546C7.8955 7.4721 7.91378 7.01797 7.85284 6.56461C7.85284 6.51221 7.85284 6.45905 7.85284 6.40665C7.90083 6.13099 7.90007 5.85457 7.85284 5.57891C7.85284 5.47563 7.85284 5.37235 7.85284 5.26907C7.86274 5.26072 7.87874 5.25388 7.88102 5.24401C7.98081 4.82634 8.15525 4.64408 8.52013 5.03669C8.53003 5.04732 8.56735 5.03138 8.62601 5.02378C8.57573 4.73065 8.33198 4.57498 8.1682 4.37525C8.04327 4.22261 8.05546 4.13984 8.24514 4.1406C8.45538 4.1406 8.56583 3.9348 8.80426 3.93024C8.67857 4.18009 8.69457 4.34184 9.01526 4.4155C9.17599 4.45271 9.14171 4.68509 9.06249 4.86431C9.58581 4.68205 9.59419 4.68357 9.59342 5.16503C9.59342 5.43006 9.77624 5.73079 9.42355 5.94949C9.38547 5.97303 9.59799 6.33755 9.76177 6.5274C9.86156 6.41197 9.82118 6.29502 9.82118 6.1925C9.82499 5.04125 9.82195 3.88999 9.82499 2.73874C9.82499 2.53446 9.78615 2.31423 9.98496 2.16235C9.97658 3.30222 9.96744 4.44132 9.95906 5.58118C9.90802 6.28515 9.9522 6.98987 9.93545 7.69384C9.9324 7.83129 9.96059 7.97102 9.90802 8.10544L9.90955 8.10468Z" fill="#E56990"/>
<path d="M51.0139 45.8386C51.0367 45.8379 51.058 45.8318 51.0778 45.8212C51.2386 45.8933 51.4275 45.9077 51.5516 46.0535C52.2951 46.5388 53.1589 46.5942 53.9991 46.7324C54.5567 46.8243 55.1273 46.8266 55.6772 46.9709C55.7831 47.3582 55.6163 47.4691 55.2476 47.4159C53.9275 47.2245 52.5945 47.0954 51.3726 46.491C51.1791 46.3953 51.0634 46.2457 50.9415 46.0824C50.8409 45.948 50.956 45.9093 51.0139 45.8394V45.8386Z" fill="#E4D8E2"/>
<path d="M50.1061 44.9866C51.6768 45.1848 53.2285 45.1734 54.7276 44.5537C54.1502 44.979 53.4951 45.1612 52.7988 45.2159C51.9251 45.2843 51.0552 45.2182 50.1853 45.1392C50.1586 45.0883 50.132 45.0374 50.1061 44.9873V44.9866Z" fill="#FFB79C"/>
<path d="M49.8294 44.1361C50.5287 44.1513 51.2257 44.1407 51.9234 44.0534C52.791 43.9455 53.6251 43.7352 54.4242 43.376C54.0327 43.704 53.5612 43.8498 53.0843 43.9888C52.0575 44.288 51.004 44.2174 49.9551 44.2257C49.9132 44.1954 49.8713 44.1658 49.8286 44.1361H49.8294Z" fill="#FFB79C"/>
<path d="M16.6814 53.6241C16.6829 54.0372 16.5153 54.259 16.203 54.2567C15.9478 54.2552 15.7772 54.0122 15.778 53.6515C15.7787 53.2869 15.9653 53.0462 16.2533 53.0371C16.5245 53.0287 16.6799 53.2421 16.6814 53.6249V53.6241Z" fill="#11051D"/>
<path d="M16.3662 51.7415C16.5109 51.765 16.6709 51.7961 16.8332 51.8166C16.9375 51.8295 17.0533 51.8371 17.0472 51.9708C17.0411 52.0953 16.9459 52.1781 16.8248 52.1887C16.6618 52.2032 16.4957 52.2032 16.3327 52.191C15.9297 52.1606 15.5588 52.2389 15.2213 52.469C15.1581 52.5122 15.0811 52.6178 14.9951 52.5259C14.9014 52.4264 15.0034 52.3376 15.059 52.2685C15.3896 51.8561 15.8673 51.7961 16.367 51.7415H16.3662Z" fill="#11051D"/>
<path d="M15.5321 57.5099C16.2085 57.8979 16.8987 57.9405 17.652 57.8759C17.1051 58.4098 15.8932 58.2002 15.5321 57.5099Z" fill="#11051D"/>
<path d="M55.6774 73.2356C55.5936 73.4452 55.5213 73.6602 55.423 73.8622C55.3438 74.0247 55.426 74.1287 55.5174 74.2327C55.7102 74.453 55.9593 74.6026 56.2053 74.7545C56.2624 75.0499 56.2228 75.3027 55.9037 75.4326C55.7056 75.4971 55.5007 75.4766 55.2988 75.4766C52.507 75.4782 49.7152 75.4827 46.9227 75.4766C43.2815 75.4683 39.6412 75.485 36 75.4789C35.6953 75.4789 35.3906 75.4501 35.0867 75.4607C34.7691 75.4713 34.6639 75.3096 34.6342 75.0347C34.6083 74.7962 34.6525 74.5524 34.5725 74.3193C34.5489 74.0771 34.475 73.8295 34.6548 73.6108C34.9877 73.9244 35.3266 73.8834 35.6702 73.629C35.8614 73.4878 36.0564 73.3503 36.2491 73.2113C36.4167 73.1438 36.4944 73.2516 36.5645 73.3731C37.314 73.7634 38.0796 74.0482 38.9526 73.847C39.466 73.7285 39.8865 73.4855 40.2193 73.083C40.4479 73.2683 40.7472 73.2827 40.9956 73.2668C41.8906 73.2106 42.7849 73.2394 43.6792 73.2318C44.8637 73.2212 46.0482 73.2022 47.232 73.2038C49.0297 73.206 50.8274 73.2235 52.6243 73.2318C53.6413 73.2364 54.6582 73.2356 55.6751 73.2372L55.6774 73.2356Z" fill="#DEB6E2"/>
<path d="M34.6596 74.2988C34.8058 74.5593 34.7022 74.841 34.7258 75.1121C34.738 75.2542 34.751 75.3483 34.9346 75.3483C36.8328 75.3453 38.7311 75.3597 40.6294 75.3483C41.5396 75.343 42.4515 75.3347 43.361 75.3225C44.0892 75.3126 44.8266 75.3483 45.5594 75.3506C49.0405 75.3612 52.521 75.3567 56.0021 75.3574C56.0189 75.3871 56.0143 75.4136 55.9922 75.4387C55.5078 76.8504 55.0233 78.2629 54.5373 79.6739C54.5175 79.7323 54.4863 79.7863 54.4596 79.8425C54.4581 79.8159 54.4573 79.7885 54.4558 79.762C54.3804 79.6769 54.375 79.5752 54.407 79.4764C54.7216 78.5074 55.0141 77.5316 55.4026 76.5877C55.2739 76.8656 55.0202 76.9074 54.7513 76.9097C54.0787 76.9172 53.4069 76.9089 52.7342 76.9097C48.3565 76.9165 43.9795 76.9081 39.6018 76.915C38.6907 76.9165 37.7797 76.9415 36.8679 76.9863C36.3354 77.0122 35.7915 76.9051 35.2446 76.9681C34.7936 77.0205 34.7114 77.0661 34.6885 77.505C34.674 77.7837 34.6154 78.0563 34.6009 78.335C34.5948 78.4512 34.6055 78.6008 34.4265 78.6244C34.4059 78.6016 34.3846 78.5781 34.364 78.5553C34.4211 77.7769 34.4813 76.9993 34.5331 76.2209C34.5575 75.8579 34.5651 75.4941 34.5803 75.1311C34.5476 74.8486 34.4668 74.5616 34.6573 74.2996L34.6596 74.2988Z" fill="#B478BA"/>
<path d="M34.6711 74.3989C34.6277 74.6746 34.7481 74.9654 34.5942 75.2304C33.9886 74.7642 33.5316 74.1604 33.0494 73.5795C32.4385 72.8429 31.794 72.1298 31.4063 71.2375C31.3789 71.1745 31.3019 71.119 31.3545 71.0256C32.1421 72.0926 33.2596 72.7533 34.3299 73.4702C34.4441 73.5469 34.5546 73.6296 34.6666 73.7094C34.6681 73.9395 34.6688 74.1688 34.6704 74.3989H34.6711Z" fill="#C2466E"/>
<path d="M36.5654 73.3715C36.4602 73.3176 36.3551 73.2637 36.25 73.2098C36.6073 72.6668 37.0156 72.1565 37.2921 71.5603C37.6417 70.8063 37.8878 70.0317 37.855 69.1887C38.4476 69.5092 38.9542 70.0825 39.2536 70.8199C39.0745 70.5936 38.8681 70.3947 38.6594 70.1995C38.4423 69.9967 38.2084 69.8107 37.9487 69.5889C37.8641 70.4303 37.7613 71.211 37.388 71.9241C37.2715 72.1466 37.1557 72.3721 37.0133 72.5779C36.8388 72.8301 36.6667 73.0799 36.5654 73.3715Z" fill="#FF9655"/>
<path d="M32.6879 31.9113C30.875 31.9158 29.0628 31.9234 27.2498 31.9234C21.4172 31.9234 15.5852 31.9196 9.75256 31.9173C9.75409 31.8915 9.75561 31.8649 9.75713 31.8391C13.994 31.8429 18.2308 31.8467 22.4676 31.8497C25.753 31.852 29.0384 31.8513 32.3246 31.8551C32.4465 31.8551 32.5798 31.8118 32.6879 31.9113Z" fill="#E56990"/>
<path d="M34.8787 57.4819C34.9107 57.693 34.7987 57.8699 34.622 57.933C34.4575 57.9914 34.3348 57.8236 34.2434 57.6892C34.1375 57.5328 34.0606 57.3657 34.0423 57.1713C34.0248 56.9845 34.0819 56.8584 34.2609 56.7848C34.446 56.7088 34.587 56.7734 34.689 56.9192C34.8033 57.0832 34.9016 57.2601 34.8795 57.4819H34.8787Z" fill="#11051D"/>
<path d="M33.1648 56.4186C33.0544 56.1445 33.1862 56.0109 33.2913 55.878C33.5922 55.4983 33.9631 55.2454 34.4705 55.2271C34.6937 55.2188 34.7813 55.3654 34.7835 55.5241C34.7858 55.6767 34.619 55.6152 34.5154 55.622C33.9525 55.6585 33.5221 55.9357 33.1641 56.4194L33.1648 56.4186Z" fill="#11051D"/>
<path d="M35.8765 61.0578C35.5353 61.581 34.5481 61.4215 34.2159 60.8125C34.7248 61.1102 35.274 61.1603 35.8765 61.0578Z" fill="#11051D"/>
<path d="M56.7469 70.8108C56.6722 71.0273 56.596 71.2429 56.4376 71.4176C56.2083 71.4085 55.9798 71.3994 55.7505 71.391C54.4266 71.3386 53.1027 71.3834 51.7788 71.3682C49.6855 71.3682 47.5922 71.3682 45.4989 71.3675C45.3603 71.3675 45.2202 71.3895 45.083 71.3447C44.6283 71.3356 44.1743 71.3265 43.7195 71.3173C43.718 71.2961 43.7187 71.2748 43.7218 71.2543C47.724 71.2558 51.7262 71.2558 55.7284 71.2634C56.1413 71.2642 56.5488 71.3082 56.6844 70.7842C56.6852 70.7812 56.7088 70.7797 56.7194 70.7842C56.7301 70.7888 56.7377 70.8017 56.7461 70.8108H56.7469Z" fill="#55408B"/>
<path d="M51.7985 71.3949C51.7917 71.378 51.7848 71.3602 51.778 71.3433C53.044 71.3402 54.3092 71.3356 55.5753 71.3356C55.6331 71.3356 55.6918 71.3726 55.7497 71.3926C54.4326 71.3926 53.1156 71.3941 51.7985 71.3949Z" fill="#381E5A"/>
<path d="M55.9912 75.4379C55.9943 75.4105 55.9981 75.3839 56.0011 75.3566C56.0689 75.1561 56.136 74.9549 56.2038 74.7544C56.7576 74.9997 57.3075 75.2533 57.8651 75.488C58.6101 75.8008 59.3673 76.0841 60.1542 76.2778C60.0376 76.6073 59.9203 76.9369 59.8038 77.2657C59.3056 76.9597 58.7084 76.9202 58.1904 76.6613C57.5391 76.3347 56.881 76.0203 56.219 75.715C56.0834 75.6528 56.0796 75.5176 55.9905 75.4379H55.9912Z" fill="#FFB79C"/>
<path d="M7.85413 6.56543C7.98591 7.01879 7.94477 7.47292 7.85413 7.92628C7.85413 7.47292 7.85413 7.01879 7.85413 6.56543Z" fill="#E56990"/>
<path d="M7.85437 5.58545C7.96025 5.86187 7.96101 6.13753 7.85437 6.41396C7.85437 6.13753 7.85437 5.86187 7.85437 5.58545Z" fill="#E56990"/>
<path d="M34.4279 78.6038C34.5384 78.1915 34.5765 77.7677 34.5727 77.3447C34.5696 76.9848 34.7662 76.8481 35.0777 76.823C35.4114 76.7964 35.7496 76.7592 36.0817 76.785C37.5755 76.9035 39.0677 76.7357 40.5615 76.7706C42.0835 76.8063 43.6062 76.779 45.1289 76.7782C47.7531 76.7782 50.3773 76.7782 53.0016 76.7782C53.5447 76.7782 54.0886 76.7638 54.6317 76.7835C54.9943 76.7964 55.3013 76.738 55.5267 76.4069C55.2091 77.3607 54.8907 78.3137 54.5753 79.2675C54.5243 79.4217 54.442 79.5698 54.4557 79.7406C54.3186 79.8257 54.1663 79.8181 54.0139 79.8181C47.5932 79.8166 41.1724 79.8158 34.7517 79.8151C34.3137 79.8151 34.287 79.787 34.3883 79.3587C34.4478 79.1073 34.4081 78.8552 34.4287 78.6038H34.4279Z" fill="#DEB6E2"/>
<path d="M28.2462 24.5671C28.0908 24.2702 27.9019 24.037 27.5835 23.8601C27.1919 23.6421 26.8545 23.3072 26.891 22.7787C26.8964 22.705 26.8971 22.62 26.9337 22.5623C27.1119 22.2813 27.233 22.0284 27.1485 21.6495C27.0792 21.3396 27.4387 21.1619 27.6992 21.0055C27.8234 21.3161 28.1426 21.411 28.3764 21.5948C28.7032 21.8515 29.0826 22.0406 29.3789 22.3405C29.7339 22.6997 29.727 22.9526 29.356 23.3004C29.273 23.3467 29.1839 23.3741 29.0925 23.3976C29.0163 23.4166 28.9477 23.3961 28.883 23.3558C28.4198 23.0756 28.007 22.7255 27.5675 22.4119C28.007 22.7362 28.4275 23.0863 28.8982 23.368C29.1359 23.5981 29.0231 23.8229 28.8883 24.0469C28.8022 24.1676 28.707 24.3119 28.5486 24.2937C28.3262 24.2686 28.3353 24.4471 28.2599 24.5549L28.2462 24.5663V24.5671Z" fill="#FFCDBA"/>
<path d="M28.6196 20.2468C28.8801 20.2992 29.0523 20.5141 29.2633 20.666C29.0919 20.4746 28.7377 20.5392 28.6196 20.2468C28.6973 20.2141 28.7674 20.1746 28.7788 20.0797C29.5246 20.5733 30.3595 20.9128 31.1014 21.4155C31.2873 21.5416 31.4282 21.6813 31.499 21.8954C31.5211 21.9615 31.6102 22.0177 31.5188 22.0853C31.4404 22.143 31.3771 22.0792 31.3185 22.0329C30.9315 21.7299 30.5407 21.4337 30.1294 21.1634" fill="#FFB79C"/>
<path d="M29.2823 23.2662C29.6746 22.9033 29.6876 22.6785 29.2762 22.3504C28.8154 21.9829 28.3324 21.6419 27.8472 21.3062C27.7253 21.2219 27.6819 21.1384 27.6986 21.0055C27.7261 20.9971 27.7543 20.9896 27.7824 20.9812C28.0346 21.2698 28.3362 21.4946 28.6653 21.6874C28.938 21.8477 29.1901 22.0368 29.4179 22.2608C29.6396 22.4787 29.7675 22.7202 29.7005 23.0384C29.619 23.2199 29.5306 23.3885 29.2823 23.267V23.2662Z" fill="#FFB79C"/>
<path d="M28.6194 20.2468C28.8152 20.4526 29.3332 20.5848 29.551 20.8103C28.6689 21.0047 28.4556 20.7739 27.8676 20.379C28.0763 20.098 28.3627 20.2597 28.6186 20.2476L28.6194 20.2468Z" fill="#FFCDBA"/>
<path d="M54.1365 13.318C54.1342 13.1274 54.138 12.9383 54.2607 12.7766C54.3841 12.6133 54.5417 12.5328 54.752 12.5617C54.9584 12.5898 55.0628 12.7386 55.1138 12.9065C55.1755 13.1115 55.1786 13.3363 55.1085 13.5406C55.0156 13.8094 54.8335 14.0114 54.5197 13.9575C54.1654 13.8967 54.1319 13.6104 54.1373 13.318H54.1365Z" fill="#11051D"/>
<path d="M50.1161 12.9125C50.1191 12.8009 50.1237 12.6923 50.1618 12.5814C50.238 12.3567 50.3766 12.1972 50.612 12.1941C50.8748 12.1904 51.0073 12.3825 51.0698 12.6164C51.0949 12.7113 51.0995 12.8138 51.0987 12.9133C51.0957 13.3241 50.8748 13.6173 50.5754 13.615C50.2951 13.6135 50.1107 13.3317 50.1161 12.9133V12.9125Z" fill="#11051D"/>
<path d="M49.5029 10.9593C49.2858 10.8613 49.2911 10.8325 49.5814 10.575C50.1435 10.2659 50.7118 10.1892 51.3037 10.5021C51.4324 10.5705 51.536 10.657 51.6107 10.7725C51.6716 10.8666 51.6358 10.9661 51.5688 11.0527C51.4766 11.1712 51.4118 11.0542 51.3463 11.0216C50.7407 10.7193 50.1336 10.515 49.5037 10.9593H49.5029Z" fill="#11051D"/>
<path d="M54.5418 17.5024C53.9964 18.2041 52.8385 18.3324 52.0608 17.7773C52.7753 17.5221 53.5272 17.4796 54.2714 17.3968C54.3704 17.3862 54.4717 17.4166 54.5418 17.5024Z" fill="#11051D"/>
<path d="M52.6604 16.2729C52.2551 16.3921 51.8659 16.3747 51.4972 16.1712C50.9937 15.8925 50.8405 15.433 51.1163 14.9303C51.5254 14.183 52.0113 13.4722 52.1309 12.5974C52.1972 13.1784 51.9824 13.6849 51.7326 14.1785C51.5962 14.4481 51.437 14.7055 51.2915 14.9705C51.0691 15.3753 51.1437 15.6844 51.5155 15.9525C51.8582 16.1993 52.249 16.26 52.6604 16.2737V16.2729Z" fill="#11051D"/>
<path d="M54.5416 17.5023C53.8751 17.4962 53.2192 17.5767 52.5778 17.759C52.4034 17.8083 52.2365 17.8296 52.0613 17.778C51.9159 17.6534 51.7026 17.598 51.6348 17.3588C52.7842 17.4993 53.8987 17.4605 55.0268 17.0117C54.8943 17.273 54.6886 17.3588 54.5416 17.5031V17.5023Z" fill="#11051D"/>
<path d="M51.5511 46.0536C51.3843 45.9944 51.2014 45.967 51.0773 45.8212C51.6006 45.8971 52.1224 45.9951 52.648 46.0437C53.4631 46.1189 54.2614 45.9837 55.0505 45.7863C55.1214 45.7688 55.1869 45.7248 55.2859 45.7924C54.6758 46.0764 54.0389 46.1402 53.3983 46.1918C52.7752 46.2412 52.1658 46.1121 51.5511 46.0536Z" fill="#FFB79C"/>
<path d="M29.2823 23.2662C29.4895 23.3125 29.5641 23.1196 29.7005 23.0376C29.7385 23.1675 29.9397 22.8728 29.9297 23.1249C29.9016 23.8236 30.1788 24.4114 30.6633 24.9916C30.338 24.7949 30.156 24.5511 29.977 24.1251C29.7804 23.6573 29.7667 23.6649 29.3531 23.9474C29.1109 24.1129 28.906 24.3089 28.711 24.52C28.5677 24.6749 28.4238 24.7022 28.2608 24.5549C28.2486 24.3651 28.0818 24.0636 28.5289 24.2261C28.6622 24.2747 28.7353 24.1243 28.797 24.0165C29.12 23.8889 28.9334 23.5396 29.0926 23.3406C29.136 23.2654 29.2069 23.2586 29.2823 23.2654V23.2662Z" fill="#FFB79C"/>
<path d="M9.90945 8.1047C9.9064 7.34681 9.90335 6.58817 9.90107 5.83029C9.90107 5.74296 9.88888 5.65183 9.95972 5.58044C9.96201 6.42262 9.99933 7.2648 9.90945 8.1047Z" fill="#E56990"/>
<path d="M63.0671 62.6442C62.7175 63.3437 62.4455 64.0552 61.7188 64.4577C61.5238 64.5655 61.4522 64.5762 61.3715 64.3461C61.1719 63.7735 61.1597 63.775 61.715 63.5016C62.1142 63.3049 62.4714 63.0498 62.799 62.7513C62.8599 62.6959 62.9094 62.6131 63.0671 62.6442Z" fill="#FFB79C"/>
<path d="M58.6369 57.6922C58.6407 57.6292 58.6391 57.5646 58.6506 57.5031C58.7146 57.1621 58.9484 56.9389 59.1899 56.9852C59.4451 57.0338 59.5258 57.2806 59.4138 57.6709C59.3963 57.7317 59.3811 57.7932 59.3582 57.8517C59.2813 58.0484 59.2356 58.3088 58.9469 58.2564C58.6445 58.2018 58.6247 57.9443 58.6369 57.6922Z" fill="#11051D"/>
<path d="M60.2968 56.4558C59.7712 56.0548 59.2585 55.6858 58.5615 55.9022C58.4709 55.9303 58.4252 55.8794 58.3894 55.8012C58.3482 55.7101 58.3558 55.6341 58.4236 55.5597C58.5067 55.4693 58.6217 55.4519 58.7314 55.4283C59.2402 55.3167 60.0134 55.663 60.2694 56.1148C60.3234 56.2105 60.3973 56.307 60.296 56.4558H60.2968Z" fill="#FFC880"/>
<path d="M57.6571 61.3434C58.3587 61.4398 58.7182 61.3434 59.5044 60.8657C59.2606 61.4406 58.7975 61.594 58.2955 61.6669C58.0525 61.7018 57.8042 61.673 57.6564 61.3434H57.6571Z" fill="#11051D"/>
<path d="M9.20795 5.14881C8.86441 5.45257 9.37782 5.64546 9.24223 5.95985C9.03732 5.79582 8.76614 5.73203 8.82708 5.38195C8.86365 5.17084 8.96039 5.10932 9.20795 5.14881Z" fill="#E56990"/>
<path d="M28.8449 23.3657C28.2736 23.0969 27.8341 22.6541 27.3245 22.3033C27.3458 22.2744 27.3679 22.2448 27.3892 22.2159C27.8866 22.585 28.384 22.9548 28.8815 23.3239C28.8906 23.3566 28.8792 23.3718 28.8441 23.3657H28.8449Z" fill="#FFB79C"/>
<path d="M29.0924 23.3414C29.0848 23.6064 29.1785 23.9155 28.7969 24.0173C28.9477 23.81 29.0787 23.6011 28.8449 23.3657C28.8571 23.352 28.8692 23.3384 28.8814 23.3247C28.9515 23.33 29.0224 23.3361 29.0924 23.3414Z" fill="#FFB79C"/>
</g>
<defs>
<clipPath id="clip0_153_9590">
<rect width="76" height="80" fill="white"/>
</clipPath>
</defs>
</svg>
