<svg width="61" height="63" viewBox="0 0 61 63" fill="none" xmlns="http://www.w3.org/2000/svg">
<g clip-path="url(#clip0_153_10020)">
<path d="M0.560585 54.5223C1.18965 53.044 1.12601 51.4451 1.34631 49.8979C1.71592 47.2937 1.99985 44.6747 2.30337 42.0607C2.58731 39.6044 2.83698 37.1407 3.12826 34.6843C3.41954 32.2305 3.82586 29.7864 4.02658 27.3227C4.1661 25.6227 4.39863 23.9351 4.56753 22.24C4.73887 20.5204 4.96161 18.8056 5.15254 17.0884C5.23821 16.3222 5.34591 15.551 5.34591 14.7823C5.34591 14.1418 5.58334 13.8905 6.19772 13.9594C6.30297 13.9718 6.41067 13.9594 6.51837 13.9594C23.677 13.9594 40.8381 13.9594 57.9967 13.9594C58.381 13.9594 58.8118 13.8412 59.0712 14.2773C59.1863 14.3734 59.2034 14.4965 59.1789 14.6345C58.8656 15.8442 58.6771 17.0687 58.7285 18.3227C58.731 18.4163 58.7188 18.5075 58.6943 18.5962C58.3173 20.0793 58.2317 21.6044 58.0505 23.1147C57.7911 25.263 57.5243 27.4114 57.3015 29.5647C57.0812 31.6909 56.7875 33.8097 56.5819 35.9359C56.3812 38.0104 56.0801 40.075 55.8745 42.1494C55.8451 42.4451 55.7986 42.7309 55.8672 43.0241C55.8892 43.1645 55.8794 43.3025 55.8402 43.4404C55.5098 44.2658 55.5367 45.1601 55.4143 46.0199C55.1744 47.7002 54.9884 49.3879 54.8587 51.0804C54.8783 51.1593 54.8856 51.2381 54.8832 51.3194C54.8611 51.5757 54.6115 51.8368 54.893 52.093C54.9444 52.4306 54.8195 52.7287 54.6947 53.0268C54.4034 53.4555 54.4719 53.9655 54.4426 54.4262C54.3471 55.9414 53.9506 57.4196 53.9383 58.9397C53.9751 59.2847 53.8869 59.5975 53.6838 59.876C53.4292 60.1051 53.2481 60.3835 53.16 60.721C52.9641 61.199 52.6924 61.608 52.1662 61.7656C51.7525 61.8272 51.4416 62.0588 51.192 62.3865C51.0745 62.5047 50.9325 62.5811 50.7783 62.6378C50.5703 62.7314 50.3549 62.8053 50.137 62.8768C49.6915 62.9975 49.2387 62.9827 48.7859 62.9827C34.1068 62.9827 19.4277 62.9803 4.74866 62.9901C3.38527 62.9901 2.1614 62.6945 1.17986 61.6893C0.318259 60.6964 -0.0807215 59.5433 0.0171879 58.2203C0.110202 56.9712 0.146918 55.7147 0.563033 54.5124L0.560585 54.5223Z" fill="#F9F4FE"/>
<path d="M5.52943 13.3903C5.63713 12.2644 5.74728 11.1385 5.85498 10.0125C6.00674 9.14778 5.82806 8.26823 5.95534 7.40346C6.11199 6.00652 6.8561 5.03089 8.08487 4.40264C9.93291 3.81873 11.8348 4.1267 13.7147 4.0454C14.2654 4.02076 14.471 4.30409 14.5469 4.79683C14.6766 5.62218 14.8504 6.43028 15.3424 7.13491C15.641 7.56114 15.9935 7.91838 16.4733 8.12287C16.7743 8.25098 17.1219 8.36924 17.3177 7.99229C17.5086 7.62519 17.2639 7.38867 16.9506 7.22607C16.5956 7.04129 16.2383 6.86144 15.9666 6.54854C15.6973 6.23811 15.5407 5.86855 15.4477 5.47436C15.1833 4.34597 15.4525 4.00351 16.603 3.99119C17.0289 3.98627 17.4548 4.01829 17.8807 3.95916C17.959 3.92467 18.0374 3.89264 18.1132 3.85815C18.544 3.66105 18.9553 3.65859 19.3322 3.98873C19.4228 4.02076 19.5158 4.04047 19.6113 4.04293C28.0584 4.05525 36.5055 4.04293 44.9502 4.04786C45.3223 4.04786 45.6968 4.03554 46.0664 4.06264C46.6024 4.22032 46.4727 4.68843 46.4972 5.06045C46.5731 6.1913 47.0504 7.10781 47.9046 7.83215C48.1298 8.02432 48.377 8.18199 48.6683 8.24852C48.9155 8.30518 49.1628 8.29286 49.2949 8.0391C49.4491 7.74838 49.2998 7.52911 49.0722 7.34926C48.9253 7.23346 48.7466 7.1694 48.5875 7.07578C48.0441 6.75303 47.6378 6.31203 47.4028 5.7158C46.9108 4.45684 47.2168 4.00105 48.5582 3.99366C48.9547 3.99366 49.3561 4.02815 49.7502 3.94438C49.8236 3.90496 49.8995 3.87047 49.9754 3.83844C50.4013 3.63642 50.8003 3.68569 51.1723 3.97395C51.2605 3.99612 51.3461 4.01583 51.4342 4.03308C52.5284 4.06264 53.6201 4.06018 54.7118 4.038C55.5342 4.02322 56.3444 4.08482 57.1497 4.2351C57.7396 4.46177 58.2683 4.79437 58.7799 5.159C59.7517 6.20362 60.0772 7.45273 59.9475 8.85213C59.8251 10.1554 59.6758 11.4563 59.4873 12.7522C59.4383 13.0897 59.3943 13.4642 58.939 13.5283C55.0765 13.5579 51.214 13.5381 47.3539 13.5406C33.7983 13.5431 20.2428 13.5406 6.68966 13.5357C6.30047 13.5357 5.8868 13.6416 5.52454 13.3854L5.52943 13.3903Z" fill="#4C4090"/>
<path d="M58.8974 13.5135C59.3478 12.5674 59.1936 11.5327 59.4237 10.5521C59.5265 10.1111 59.5632 9.65776 59.6048 9.2069C59.7272 7.86417 59.5681 6.58303 58.5425 5.51624C58.4544 5.42262 58.4348 5.33146 58.5719 5.26001C59.4457 5.71334 60.0405 6.39332 60.4444 7.22607C61.0539 9.19951 60.8262 11.2198 60.8311 13.2228C60.8483 21.6167 60.907 30.0131 60.814 38.407C60.7577 43.5168 60.8115 48.6266 60.7552 52.3961C60.765 49.1489 60.743 44.5614 60.7626 39.9764C60.7773 39.8458 60.8532 39.8015 60.9878 39.8409C60.9878 46.286 60.9927 52.7287 60.9951 59.1738C60.7748 59.8587 60.5717 60.5485 60.1433 61.1571C59.5559 62.5023 58.332 62.8989 56.9001 62.9901C54.8562 62.995 52.8123 63.0049 50.7685 62.9827C50.4062 62.9778 49.9142 63.1428 49.7576 62.6131C49.8751 62.5589 49.9901 62.5047 50.1076 62.453C50.4674 62.2263 50.8223 61.9923 51.2164 61.8174C51.6815 61.6104 51.985 61.2581 52.2249 60.8516C52.4232 60.588 52.5357 60.28 52.7511 60.0262C52.9396 59.7823 53.1085 59.531 53.0791 59.2132C53.3778 57.1708 53.5271 55.1136 53.9432 53.0859C53.997 52.7632 54.0509 52.4404 54.1047 52.1152C54.0264 51.9526 54.0533 51.79 54.1243 51.6323C54.1268 51.5756 54.1317 51.519 54.1341 51.4623C54.3789 48.8163 54.6677 46.1752 55.1671 43.5587C55.1695 43.4478 55.1744 43.3369 55.1769 43.2261C55.2748 41.2477 55.6052 39.294 55.85 37.3304C56.5965 31.3484 57.3969 25.3739 58.1141 19.3895C58.1484 19.0938 58.2708 18.8179 58.3369 18.5297C58.3369 18.473 58.3418 18.4139 58.3442 18.3572C58.3907 17.1081 58.5156 15.8688 58.8607 14.6542C58.8631 14.5433 58.868 14.4349 58.8705 14.3241C58.8901 14.2231 58.9096 14.1196 58.9292 14.0186C59.01 13.8806 58.9145 13.787 58.8338 13.6884C58.8166 13.6219 58.8387 13.5677 58.8925 13.5234L58.8974 13.5135Z" fill="#3C2774"/>
<path d="M59.0907 13.6244C59.196 13.7352 59.2719 13.8461 59.1226 13.9792C58.8753 13.6589 58.5302 13.8092 58.2316 13.8092C40.9555 13.8018 23.6769 13.8042 6.40081 13.7968C6.11442 13.7968 5.7644 13.9693 5.53186 13.6318C5.81335 13.5061 6.10953 13.5677 6.39836 13.5677C23.6745 13.5652 40.9481 13.5652 58.2242 13.5677C58.5131 13.5677 58.8093 13.511 59.0932 13.6268L59.0907 13.6244Z" fill="#978FB9"/>
<path d="M59.0908 13.6244C50.6975 13.6293 42.3018 13.6392 33.9085 13.6392C24.448 13.6392 14.99 13.6343 5.52947 13.6293C5.51233 13.5801 5.51723 13.5333 5.53926 13.4865C23.3906 13.4865 41.2419 13.4865 59.0908 13.4865C59.0957 13.5333 59.0957 13.5776 59.0908 13.6244Z" fill="#3C2774"/>
<path d="M60.8751 39.703C60.8678 44.1525 60.8604 48.602 60.8531 53.0515C60.8531 53.4235 60.8531 53.7931 60.8531 54.3351C60.623 53.8645 60.7062 53.5319 60.7062 53.219C60.6989 38.6608 60.6867 24.1027 60.7185 9.54697C60.7185 8.74873 60.3513 8.01453 60.4982 7.21875C60.694 7.67454 60.8555 8.14018 60.8776 8.64279C61 9.38437 60.9265 10.1309 60.929 10.8749C60.9388 14.0507 60.9339 17.224 60.9339 20.3997C60.9339 26.5418 60.9339 32.6838 60.9314 38.8259C60.9314 39.1191 60.9853 39.4172 60.8751 39.703Z" fill="#3C2774"/>
<path d="M60.8752 39.703C60.8654 33.4255 60.8556 27.1503 60.8483 20.8728C60.8483 20.7126 60.8703 20.5525 60.885 20.3923C60.9193 20.3997 60.956 20.4071 60.9902 20.4145C60.9902 26.8522 60.9902 33.29 60.9902 39.7301C60.9511 39.7227 60.9144 39.7154 60.8776 39.7055L60.8752 39.703Z" fill="#3C2774"/>
<path d="M60.9902 20.412C60.9559 20.4046 60.9192 20.3972 60.8849 20.3898C60.8849 16.4725 60.88 12.5576 60.8776 8.64026C61.0685 8.99257 60.9804 9.37691 60.9804 9.74155C60.9926 13.2967 60.9902 16.8543 60.9902 20.4095V20.412Z" fill="#978FB9"/>
<path d="M12.4467 26.1968C11.754 26.1968 11.0613 26.2116 10.3686 26.1944C9.40419 26.1673 8.95381 25.5415 9.10312 24.6003C9.32097 23.2354 9.52658 21.8631 9.65142 20.4884C9.85703 18.2365 10.5448 18.4977 12.1089 18.3474C13.3402 18.2291 14.5958 18.2883 15.8368 18.4632C16.5393 18.5617 16.8747 18.9387 16.8747 19.6409C16.8747 20.8727 16.6226 22.0775 16.4586 23.2896C16.3876 23.8169 16.4659 24.3515 16.2799 24.8763C15.947 25.81 15.5211 26.1796 14.5273 26.1968C13.8346 26.2092 13.1419 26.1968 12.4492 26.1993L12.4467 26.1968Z" fill="#C1DAFB"/>
<path d="M31.1547 26.0441C30.489 26.1106 29.6983 26.0047 28.8955 26.1353C27.8454 26.3077 27.1894 25.4553 27.3534 24.3885C27.5786 22.9176 27.7304 21.432 27.9066 19.9538C28.0363 18.8476 28.5871 18.3228 29.6763 18.3129C30.954 18.3031 32.2342 18.308 33.5119 18.3129C34.7456 18.3154 35.262 18.9166 35.0931 20.1361C34.8826 21.6636 34.6721 23.1936 34.4665 24.7211C34.3662 25.4775 33.7861 26.0219 33.0371 26.0417C32.7433 26.049 32.452 26.0417 32.1583 26.0417C31.8646 26.0417 31.5733 26.0417 31.1523 26.0417L31.1547 26.0441Z" fill="#C1DAFB"/>
<path d="M11.3379 36.0123C10.6452 36.0123 9.95253 36.0246 9.26227 36.0099C8.37619 35.9901 7.84013 35.4555 7.9307 34.5809C8.11183 32.8637 8.31255 31.144 8.59404 29.4416C8.70663 28.764 9.228 28.3132 9.95987 28.3033C11.4236 28.2811 12.8898 28.2713 14.3511 28.3058C15.3204 28.3279 15.8883 29.1508 15.7414 30.2398C15.5383 31.7402 15.3253 33.2406 15.1075 34.741C14.9998 35.4777 14.3633 35.9828 13.492 36.0099C12.7748 36.032 12.0551 36.0148 11.3355 36.0148L11.3379 36.0123Z" fill="#C1DAFB"/>
<path d="M21.545 26.1944C20.8523 26.1944 20.162 26.2092 19.4717 26.1895C18.5538 26.1624 18.1696 25.6474 18.2797 24.7482C18.4731 23.1665 18.6444 21.5798 18.7888 19.9932C18.8745 19.0323 19.4032 18.4805 20.3799 18.4731C21.7898 18.4607 23.1996 18.4657 24.6095 18.4706C25.5348 18.4731 26.0464 18.9683 25.9827 19.9143C25.9117 20.9737 25.7796 22.0331 25.5984 23.0778C25.503 23.6296 25.5128 24.1865 25.383 24.7383C25.1456 25.7361 24.7295 26.1574 23.7063 26.1944C23.3343 26.2067 22.9622 26.1969 22.5902 26.1969C22.245 26.1969 21.8975 26.1969 21.5523 26.1969L21.545 26.1944Z" fill="#C1DAFB"/>
<path d="M28.0681 47.9269C28.7584 47.9269 29.4511 47.9195 30.1414 47.9269C30.9589 47.9367 31.4901 48.4024 31.4117 49.2006C31.2355 50.9967 31.0177 52.7903 30.7215 54.5716C30.6162 55.2097 30.0851 55.6334 29.3924 55.6433C27.8772 55.6655 26.3621 55.6704 24.8469 55.6433C23.9633 55.6285 23.5545 55.0175 23.6793 54.1478C23.8923 52.677 24.071 51.1987 24.2252 49.7205C24.3304 48.7054 24.7833 47.7963 26.1565 47.9146C26.7904 47.9688 27.4317 47.9244 28.0706 47.9244L28.0681 47.9269Z" fill="#C1DAFB"/>
<path d="M36.1506 55.6532C35.4579 55.6532 34.7652 55.6655 34.0725 55.6507C33.1301 55.631 32.6161 55.1062 32.7189 54.1872C32.9074 52.4947 33.1056 50.8021 33.3822 49.1218C33.4997 48.4049 34.0186 47.9417 34.7921 47.9318C36.2852 47.9146 37.7784 47.9072 39.269 47.9318C40.16 47.9466 40.6936 48.6291 40.5174 49.5062C40.2163 50.9967 40.0841 52.507 39.9054 54.0123C39.7635 55.1949 39.2641 55.6482 38.0721 55.6507C37.4332 55.6507 36.7919 55.6507 36.1531 55.6507L36.1506 55.6532Z" fill="#C1DAFB"/>
<path d="M48.781 26.0367C48.0613 26.0367 47.3417 26.0441 46.6221 26.0367C45.8461 26.0268 45.2831 25.5144 45.359 24.7284C45.5328 22.9545 45.7458 21.1807 46.0395 19.424C46.1521 18.749 46.6979 18.3252 47.4347 18.3178C48.9278 18.3055 50.4209 18.3006 51.9116 18.3178C52.6239 18.3277 53.2383 18.9337 53.1551 19.6113C52.9323 21.3802 52.6875 23.1467 52.3644 24.896C52.2372 25.5883 51.7329 26.049 50.9423 26.0391C50.2227 26.0293 49.503 26.0391 48.7834 26.0367H48.781Z" fill="#C1DAFB"/>
<path d="M39.6802 26.0367C38.9361 26.0367 38.192 26.0367 37.4454 26.0367C36.7209 26.0367 36.3513 25.6623 36.388 24.9428C36.4835 23.0827 36.7723 21.2423 37.0783 19.4093C37.2031 18.6653 37.8811 18.345 38.5836 18.3228C39.9911 18.2785 41.4034 18.2908 42.8108 18.3154C43.6064 18.3302 44.1253 18.8451 44.0494 19.6434C43.8756 21.4419 43.6847 23.2404 43.3738 25.0192C43.2686 25.6253 42.686 26.022 41.9933 26.0318C41.2223 26.0441 40.4512 26.0343 39.6802 26.0343V26.0367Z" fill="#C1DAFB"/>
<path d="M45.0432 55.6531C44.3775 55.6531 43.7117 55.663 43.0459 55.6531C42.0301 55.6334 41.587 55.02 41.7388 54.0295C41.964 52.5587 42.1476 51.078 42.2944 49.5973C42.3875 48.6586 43.0508 47.9417 43.9981 47.9343C45.3835 47.9195 46.7689 47.917 48.1543 47.9343C49.1408 47.9466 49.6254 48.6143 49.4663 49.5948C49.2387 51.0115 49.0306 52.433 48.8715 53.8595C48.7369 55.0397 48.1347 55.6507 46.9647 55.6556C46.3259 55.6581 45.687 55.6556 45.0457 55.6556L45.0432 55.6531Z" fill="#C1DAFB"/>
<path d="M10.0969 47.9294C10.7358 47.9294 11.3747 47.9171 12.0135 47.9318C12.8751 47.954 13.4185 48.4344 13.3377 49.2795C13.1713 50.9992 12.9363 52.7139 12.6622 54.4188C12.5496 55.1185 11.7076 55.6285 10.7872 55.6458C9.50948 55.6704 8.23177 55.6753 6.95405 55.6458C5.98475 55.6236 5.66899 55.2737 5.67388 54.3104C5.68367 52.6277 6.07286 50.9844 6.22952 49.314C6.31274 48.4172 7.02259 47.9786 8.09714 47.9392C8.76293 47.9171 9.42871 47.9343 10.0945 47.9343V47.9294H10.0969Z" fill="#C1DAFB"/>
<path d="M38.2679 38.2691C39.0683 38.2691 39.8662 38.2567 40.6667 38.274C41.3251 38.2888 41.8954 38.8924 41.8073 39.5428C41.5821 41.2034 41.3349 42.859 41.0485 44.5097C40.9114 45.2981 40.2285 45.9312 39.4722 45.7908C38.0769 45.5297 36.7185 45.8795 35.3428 45.8376C34.1997 45.8031 33.8497 45.4188 33.9794 44.2411C34.1385 42.7851 34.2903 41.329 34.4788 39.8779C34.6036 38.9096 35.1323 38.1779 36.2705 38.2617C36.9339 38.3109 37.6021 38.2715 38.2679 38.2715V38.2691Z" fill="#C1DAFB"/>
<path d="M29.5465 35.8621C28.7755 35.8621 28.0045 35.8596 27.2334 35.8621C26.5163 35.867 26.1148 35.5147 26.154 34.7903C26.2519 32.9844 26.4869 31.1933 26.8051 29.417C26.9275 28.737 27.4709 28.3132 28.1807 28.3009C29.6959 28.2713 31.2135 28.2762 32.7286 28.3009C33.3675 28.3107 33.8644 28.8404 33.8154 29.518C33.7297 30.7104 33.6049 31.9004 33.4238 33.0805C33.3381 33.6324 33.3626 34.1892 33.2035 34.7386C32.9856 35.4925 32.5573 35.8695 31.7789 35.8621C31.0348 35.8547 30.2907 35.8621 29.5441 35.8621H29.5465Z" fill="#C1DAFB"/>
<path d="M48.612 28.2836C49.3047 28.2836 49.9974 28.2786 50.6901 28.2836C51.5517 28.2934 51.9385 28.6334 51.8822 29.4982C51.8137 30.5847 51.6423 31.6663 51.5077 32.7503C51.4318 33.3564 51.3535 33.9649 51.2507 34.5685C51.1185 35.3495 50.5531 35.8423 49.7527 35.8497C48.2865 35.8645 46.8203 35.8669 45.3541 35.8497C44.5879 35.8398 44.2355 35.4752 44.2183 34.7065C44.1939 33.4746 44.446 32.2674 44.6222 31.0553C44.703 30.5034 44.681 29.9417 44.845 29.3922C45.0579 28.6827 45.4618 28.2885 46.2083 28.2885C47.0088 28.2885 47.8067 28.2885 48.6071 28.2885V28.2836H48.612Z" fill="#C1DAFB"/>
<path d="M20.1521 38.2666C20.8718 38.2666 21.5914 38.2592 22.311 38.2666C23.1922 38.2789 23.694 38.8406 23.5814 39.7103C23.3758 41.2945 23.158 42.8762 22.9352 44.4555C22.8251 45.2439 22.3673 45.7711 21.5841 45.7982C20.0126 45.8549 18.4387 45.845 16.8673 45.8056C16.1697 45.7883 15.7438 45.2537 15.8074 44.6255C15.9812 42.8811 16.2749 41.1467 16.5246 39.4097C16.6396 38.6066 17.1635 38.2789 17.9149 38.2641C18.6615 38.2493 19.408 38.2616 20.1546 38.2616L20.1521 38.2666Z" fill="#C1DAFB"/>
<path d="M20.4851 35.862C19.741 35.862 18.9945 35.862 18.2504 35.862C17.5283 35.862 17.188 35.4851 17.1856 34.7682C17.1807 33.0312 17.565 31.3337 17.7045 29.6091C17.7584 28.9587 18.5612 28.3132 19.2368 28.3033C20.6467 28.2812 22.0566 28.2713 23.4665 28.3033C24.4162 28.3255 24.9523 29.1188 24.798 30.0624C24.5778 31.4249 24.3893 32.7947 24.2424 34.167C24.1127 35.3742 23.6599 35.8497 22.4825 35.8571C21.8167 35.862 21.1534 35.8571 20.4876 35.8571L20.4851 35.862Z" fill="#C1DAFB"/>
<path d="M29.1623 38.2691C29.9358 38.2691 30.7068 38.2593 31.4803 38.2716C32.2758 38.2864 32.7898 38.8235 32.6968 39.6094C32.5034 41.2478 32.3027 42.8861 32.031 44.5122C31.9282 45.1331 31.5855 45.7096 30.817 45.6726C29.4585 45.6061 28.1147 45.85 26.7562 45.8328C25.1407 45.8106 24.8347 45.4755 25.0183 43.9061C25.1872 42.4796 25.3487 41.0507 25.5103 39.6242C25.5984 38.8333 26.2005 38.279 27.0034 38.2716C27.723 38.2666 28.4427 38.2716 29.1623 38.2716V38.2691Z" fill="#C1DAFB"/>
<path d="M46.5094 45.6751C45.7628 45.6751 45.0163 45.6899 44.2697 45.6702C43.3494 45.6455 42.9798 45.1848 43.0899 44.2683C43.2612 42.8418 43.4155 41.4129 43.5819 39.9864C43.7337 38.6781 44.3725 38.1115 45.6992 38.109C47.0038 38.109 48.3109 38.1041 49.6156 38.109C50.4968 38.1139 50.8639 38.4564 50.766 39.3384C50.5751 41.0556 50.3523 42.7728 50.0684 44.4753C49.9044 45.4583 49.5642 45.6677 48.5875 45.6727C47.8948 45.6751 47.2021 45.6727 46.5094 45.6727V45.6751Z" fill="#F2E4FE"/>
<path d="M38.5029 35.8547C37.7563 35.8547 37.0122 35.867 36.2656 35.8498C35.6096 35.835 35.0393 35.2338 35.1201 34.5834C35.3208 32.9499 35.546 31.3165 35.7932 29.688C35.9205 28.8454 36.5887 28.4142 37.301 28.36C38.8309 28.2442 40.3729 28.1555 41.9052 28.4315C42.5294 28.5423 42.7766 28.9636 42.7693 29.5057C42.7497 31.3461 42.4608 33.1618 42.079 34.9579C41.9493 35.5689 41.4524 35.8596 40.816 35.8571C40.0449 35.8547 39.2714 35.8571 38.5004 35.8571L38.5029 35.8547Z" fill="#F2E4FE"/>
<path d="M58.5841 18.4779C58.3565 20.5499 58.1362 22.6244 57.8988 24.6939C57.5536 27.6947 57.1987 30.6956 56.8413 33.6964C56.4693 36.8302 56.0874 39.9616 55.7105 43.093C55.3752 42.3022 55.7325 41.5138 55.7888 40.7426C55.9528 38.5179 56.2686 36.3055 56.5378 34.0881C56.785 32.058 57.0567 30.0304 57.2966 27.9978C57.4875 26.3865 57.6369 24.7703 57.818 23.159C57.9746 21.7596 58.1435 20.3602 58.3271 18.9633C58.3491 18.7933 58.4936 18.6381 58.5841 18.4755V18.4779Z" fill="#F9F4FE"/>
<path d="M55.7007 43.4257C55.3873 46.052 55.074 48.6783 54.7607 51.3047C54.5943 51.1667 54.5992 50.9721 54.6212 50.7897C54.8611 48.8557 55.074 46.9143 55.3751 44.9901C55.4559 44.4727 55.1401 43.847 55.7007 43.4257Z" fill="#F9F4FE"/>
<path d="M54.5869 52.9233C54.3666 54.9658 54.2834 57.023 53.8012 59.0309C53.5662 58.3485 53.7767 57.6611 53.904 57.0205C54.1218 55.9168 54.1071 54.7958 54.2883 53.6945C54.3348 53.4062 54.2638 53.0958 54.5844 52.9233H54.5869Z" fill="#F9F4FE"/>
<path d="M59.059 14.6124C58.9023 15.8418 58.7457 17.0737 58.589 18.3031C58.4471 17.0343 58.5694 15.7999 59.059 14.6124Z" fill="#F9F4FE"/>
<path d="M52.7927 61.0881C52.521 61.4035 50.6852 62.6083 50.2911 62.7265C51.3755 62.0391 51.7891 61.709 52.7927 61.0881Z" fill="#F9F4FE"/>
<path d="M53.505 59.8416C53.4389 60.1717 53.2872 60.4501 53.0277 60.6644C53.0669 60.3195 53.1746 60.014 53.505 59.8416Z" fill="#F9F4FE"/>
<path d="M54.7534 51.4746C54.7485 51.6348 54.7412 51.7949 54.7363 51.9551C54.6628 51.9698 54.5919 51.9871 54.5184 52.0019C54.4719 51.7703 54.6188 51.6249 54.7534 51.4722V51.4746Z" fill="#F9F4FE"/>
<path d="M49.4908 40.8659C49.4222 41.4227 49.153 41.8785 48.798 42.2874C48.1983 42.9797 47.4444 43.4897 46.7077 44.017C46.5314 44.1426 46.3723 44.251 46.1594 44.0318C45.5842 43.4405 44.938 42.9108 44.5439 42.1618C44.1131 41.3463 44.2061 40.6712 44.8131 40.1292C45.4422 39.5675 46.0517 39.5379 46.7933 40.1686C47.2193 40.5283 47.3416 40.1366 47.5717 39.9888C47.9756 39.7276 48.3917 39.5823 48.8446 39.8237C49.2509 40.0405 49.4442 40.4125 49.4908 40.8659Z" fill="#E56990"/>
<path d="M36.3709 31.617C36.3342 30.6093 36.6867 30.1141 37.3377 29.8382C37.9252 29.5918 38.4466 29.7323 38.8137 30.2546C39.034 30.5675 39.1907 30.5231 39.4379 30.2989C39.9446 29.8407 40.5174 29.6657 41.0754 30.1831C41.6286 30.6956 41.5919 31.3164 41.2394 31.9373C40.6226 33.0287 39.5627 33.6274 38.5959 34.3246C38.5249 34.3739 38.3536 34.3986 38.3144 34.3567C37.4993 33.4599 36.4884 32.6887 36.3733 31.617H36.3709Z" fill="#E56990"/>
<path d="M7.92326 41.6124C7.88655 40.6047 8.23902 40.1095 8.89012 39.8336C9.47757 39.5872 9.99894 39.7276 10.3661 40.2499C10.5864 40.5628 10.7431 40.5185 10.9903 40.2943C11.497 39.836 12.0697 39.6611 12.6278 40.1785C13.181 40.6909 13.1443 41.3118 12.7918 41.9326C12.175 43.0241 11.1151 43.6228 10.1483 44.32C10.0773 44.3693 9.90593 44.3939 9.86676 44.352C9.05167 43.4552 8.04075 42.6841 7.92571 41.6124H7.92326Z" fill="#E56990"/>
<path d="M16.1819 52.0635C16.1452 51.0559 16.4977 50.5607 17.1488 50.2847C17.7362 50.0384 18.2576 50.1788 18.6248 50.7011C18.8451 51.014 19.0017 50.9696 19.2489 50.7454C19.7556 50.2872 20.3284 50.1123 20.8865 50.6296C21.4397 51.1421 21.4029 51.763 21.0505 52.3838C20.4336 53.4752 19.3738 54.0739 18.4069 54.7712C18.3359 54.8204 18.1646 54.8451 18.1254 54.8032C17.3103 53.9064 16.2994 53.1353 16.1844 52.0635H16.1819Z" fill="#E56990"/>
<path d="M19.3396 4.0306C19.3396 4.0306 19.3078 -0.0320842 16.909 -5.57572e-05C14.9459 0.0319727 13.9203 1.95122 14.3364 4.70074C14.5787 5.72811 14.5714 7.64982 16.8747 8.34213C17.401 8.28793 17.8465 7.56113 17.3447 6.94766C16.7548 6.59535 15.7145 6.1568 15.6239 4.35828C15.5994 3.52308 15.3155 1.72455 16.3852 1.35007C17.6506 1.17514 17.7804 2.0744 17.8122 3.99857L19.3396 4.0306Z" fill="#3C2774"/>
<path d="M51.2531 4.03561C51.2531 4.03561 51.2213 -0.0270793 48.8225 0.00494913C46.8595 0.0369776 45.8339 1.95622 46.25 4.70574C46.4923 5.73312 46.485 7.65483 48.7883 8.34713C49.3145 8.29293 49.76 7.56613 49.2582 6.95266C48.0393 6.8344 47.8435 6.07558 47.7162 5.27733C47.6207 4.68111 47.5889 4.07749 47.6085 3.47388C47.6501 2.16318 47.4102 1.6655 48.2987 1.35507C49.5642 1.18015 49.6939 2.07941 49.7258 4.00358L51.2531 4.03561Z" fill="#3C2774"/>
</g>
<defs>
<clipPath id="clip0_153_10020">
<rect width="61" height="63" fill="white"/>
</clipPath>
</defs>
</svg>
