<svg width="67" height="66" viewBox="0 0 67 66" fill="none" xmlns="http://www.w3.org/2000/svg">
<g clip-path="url(#clip0_153_10011)">
<path d="M60.6587 52.5099C60.6587 55.0727 60.6587 57.6354 60.6587 60.2007C60.9304 60.9749 60.8711 61.7736 60.8538 62.5723C60.8415 63.1554 60.5501 63.4323 59.9624 63.474C57.7968 63.6259 55.6312 63.7802 53.4656 63.9615C49.5122 64.2898 45.5564 64.5789 41.6005 64.8754C38.3682 65.118 35.1334 65.3703 31.8961 65.5835C30.1849 65.6962 28.4737 65.8334 26.7649 65.9681C26.392 65.9975 26.0142 66.0808 25.6932 65.7917C25.4759 65.4561 25.508 65.0763 25.5055 64.7063C25.5006 55.646 25.5006 46.5881 25.5055 37.5277C25.5055 37.1332 25.4586 36.7216 25.7327 36.3762C26.35 36.2512 26.4859 36.7829 26.7032 37.1308C28.3403 39.7279 30.0194 42.3004 31.5554 44.9563C32.0838 45.8702 32.6912 46.0883 33.716 45.9756C35.6569 45.7624 37.6175 45.7085 39.5708 45.5639C42.6451 45.3361 45.7243 45.1915 48.7986 44.9661C50.616 44.8338 52.4359 44.7211 54.2558 44.6158C55.7547 44.53 57.2511 44.4247 58.7475 44.312C59.3722 44.2654 60.034 44.1037 60.6217 44.5055C60.6341 47.1736 60.6464 49.8418 60.6563 52.5099H60.6587Z" fill="#55408B"/>
<path d="M23.7359 2.90578C24.247 1.04618 25.6224 0 27.5436 0C39.5815 0 34.7095 0.00245007 46.7474 0.00490014C48.834 0.00490014 50.5082 1.6146 50.5181 3.66286C50.5304 6.86265 50.5329 10.06 50.5181 13.2598C50.5082 15.0214 49.4538 16.4032 47.7623 16.9569C38.5913 17.1725 46.3301 16.9912 37.1591 17.0598C36.8702 17.0598 36.5195 16.8883 36.2849 17.2289C34.5984 19.2968 32.7316 21.2054 30.9487 23.1875C30.8475 23.3002 30.729 23.4594 30.5462 23.3394C30.3882 23.2365 30.4401 23.0527 30.4549 22.9008C30.6401 21.2103 30.7907 19.5124 31.0426 17.8316C31.1364 17.2019 30.9537 17.126 30.4104 17.1431C29.3634 17.1774 28.3165 17.1554 27.2695 17.1505C25.6866 17.1431 24.4248 16.2391 23.8741 14.7225C23.5038 10.7852 23.7507 6.84305 23.7309 2.90333L23.7359 2.90578Z" fill="#E56990"/>
<path d="M60.6243 44.5055C57.3376 44.6084 54.0584 44.8583 50.7816 45.1327C49.8235 45.2136 48.8604 45.2087 47.8974 45.2822C44.9639 45.51 42.0229 45.6129 39.0844 45.7967C37.0324 45.9265 34.9829 46.103 32.9333 46.272C32.3753 46.3186 32.037 46.1667 31.711 45.6325C29.8171 42.5136 27.8589 39.4363 25.923 36.3419C25.4044 36.337 25.2414 36.7902 24.9772 37.0916C22.74 39.6495 20.5818 42.2735 18.3891 44.8657C18.0014 45.3238 17.6186 45.4488 17.0556 45.2626C14.0431 44.2752 11.0157 43.3393 7.98336 42.4107C7.87965 42.3788 7.78581 42.3298 7.69939 42.2637C7.64012 42.2098 7.58333 42.1559 7.52407 42.1044C5.31403 41.318 3.05954 40.6662 0.809991 40.0047C0.130105 39.8055 0.0231014 39.4371 0.488979 38.8997C2.81508 36.2292 5.1387 33.5586 7.4648 30.888C8.16856 30.7165 8.8575 30.8586 9.52421 31.0424C14.7197 32.4855 19.9299 33.8771 25.1254 35.3226C25.681 35.477 26.244 35.5088 26.802 35.4598C29.6319 35.205 32.4741 35.1168 35.3064 34.8865C37.3361 34.7224 39.3733 34.6464 41.408 34.5215C42.0772 34.4798 42.7439 34.4259 43.4107 34.3573C48.9345 34.0952 54.4436 33.5414 59.9798 33.4753C60.4045 33.4949 60.6342 33.7644 60.844 34.0927C62.8269 37.1871 64.8098 40.2816 66.8099 43.3662C67.1532 43.8954 67.0297 44.0106 66.4395 44.0375C64.6493 44.1233 62.859 44.2556 61.0712 44.3683C60.9107 44.3781 60.7477 44.3732 60.6243 44.5031V44.5055Z" fill="#8F64BD"/>
<path d="M43.3908 34.5509C42.0228 34.8327 40.6252 34.791 39.2424 34.8915C37.2175 35.0385 35.1853 35.1071 33.158 35.2394C31.106 35.3741 29.0564 35.5162 27.0094 35.7074C25.3722 35.8593 23.9079 35.2002 22.3992 34.8033C17.7544 33.5782 13.1343 32.2626 8.49937 30.9959C8.16848 30.9052 7.81043 30.9224 7.46472 30.8905C8.05242 30.5671 8.71914 30.6553 9.33893 30.6137C13.2182 30.349 17.1025 30.153 20.9818 29.9154C25.8513 29.6189 30.7208 29.3004 35.5903 29.0064C37.7558 28.8766 39.9264 28.7859 42.092 28.6756C42.455 28.7565 42.8204 28.8202 43.176 28.6462C43.2377 28.6462 43.2995 28.6462 43.3612 28.6438C43.6353 28.8202 43.7365 29.0873 43.7439 29.396C43.776 30.8881 43.781 32.3802 43.739 33.8698C43.7316 34.1442 43.6427 34.3941 43.3859 34.5509H43.3908Z" fill="#55408B"/>
<path d="M43.3908 34.5509C43.5563 32.5811 43.6056 30.6112 43.3636 28.6438C45.3712 29.0652 47.2997 29.7488 49.2653 30.3172C52.8434 31.3511 56.4091 32.4218 59.9797 33.4778C59.3722 33.833 58.6833 33.6738 58.0437 33.7203C55.004 33.9507 51.9593 34.1075 48.9147 34.2569C47.0726 34.3476 45.2403 34.6122 43.3908 34.5509Z" fill="#43326D"/>
<path d="M43.1785 28.6487C42.8229 28.9059 42.4599 28.8741 42.0945 28.6781C42.4575 28.6683 42.818 28.6585 43.1785 28.6487Z" fill="#55408B"/>
<path d="M25.7624 65.7623C23.6659 65.1277 21.562 64.5054 19.4705 63.8512C15.5838 62.6384 11.7021 61.4085 7.81782 60.181C7.72398 60.1516 7.64743 60.0708 7.56348 60.0169C7.67953 60.0022 7.75114 59.963 7.75114 59.8233C7.73139 53.9186 7.71411 48.0115 7.69682 42.1069C10.8773 43.1114 14.0578 44.1208 17.2432 45.118C17.5593 45.216 17.8136 45.2479 18.1198 44.8754C20.3866 42.1265 22.693 39.4118 25.0314 36.7216C25.1944 36.533 25.3352 35.7465 25.9253 36.3418C25.6463 36.6383 25.7772 37.0034 25.7747 37.3341C25.7648 46.811 25.7648 56.2879 25.7648 65.7647L25.7624 65.7623Z" fill="#6F56AE"/>
<path d="M35.2125 6.14725L34.4149 5.32647C34.6841 4.94671 35.0693 4.64291 35.5706 4.4126C36.0718 4.18229 36.6101 4.06714 37.1929 4.06714L37.1806 5.15742C36.8176 5.15742 36.462 5.24807 36.1089 5.42693C35.7558 5.60578 35.4594 5.84589 35.2125 6.1448V6.14725ZM36.9954 12.4513C36.7608 12.4513 36.5583 12.368 36.3904 12.2014C36.2225 12.0348 36.1385 11.8339 36.1385 11.6011C36.1385 11.3683 36.2225 11.1625 36.3904 10.9984C36.5583 10.8342 36.7608 10.7509 36.9954 10.7509C37.2299 10.7509 37.4374 10.8342 37.6028 10.9984C37.7683 11.1625 37.8522 11.3634 37.8522 11.6011C37.8522 11.8388 37.7683 12.0348 37.6028 12.2014C37.4374 12.368 37.2349 12.4513 36.9954 12.4513ZM36.4052 9.717V9.16574C36.4052 8.78597 36.4842 8.45276 36.6422 8.16366C36.8003 7.87455 37.0373 7.62954 37.3534 7.43109C37.667 7.23998 37.8991 7.02927 38.0572 6.80142C38.2152 6.57356 38.2917 6.32855 38.2917 6.06395C38.2917 5.77729 38.1954 5.55433 38.0028 5.39508C37.8102 5.23582 37.5361 5.15742 37.1806 5.15742L37.1929 4.06714C37.946 4.06714 38.5288 4.23619 38.9436 4.5743C39.3585 4.91241 39.5659 5.39018 39.5659 6.00759C39.5659 6.43146 39.4597 6.81857 39.2449 7.16648C39.0301 7.51439 38.7091 7.82555 38.2819 8.0975C38.0349 8.25921 37.8497 8.43316 37.7263 8.62182C37.6028 8.81047 37.5411 9.01873 37.5411 9.24414V9.71455H36.4077L36.4052 9.717Z" fill="#F9F4FE"/>
</g>
<defs>
<clipPath id="clip0_153_10011">
<rect width="67" height="66" fill="white"/>
</clipPath>
</defs>
</svg>
