<svg width="237" height="183" viewBox="0 0 237 183" fill="none" xmlns="http://www.w3.org/2000/svg">
<g clip-path="url(#clip0_210_2)">
<path d="M235.842 162.457C234.542 159.43 234.674 156.156 234.219 152.988C233.455 147.655 232.869 142.293 232.242 136.94C231.655 131.911 231.14 126.866 230.538 121.836C229.936 116.812 229.097 111.807 228.682 106.763C228.394 103.282 227.914 99.8259 227.565 96.3551C227.211 92.8339 226.751 89.3227 226.357 85.8065C226.18 84.2376 225.957 82.6586 225.957 81.0846C225.957 79.7729 225.467 79.2584 224.198 79.3996C223.98 79.4249 223.758 79.3996 223.536 79.3996C188.093 79.3996 152.646 79.3996 117.203 79.3996C116.409 79.3996 115.52 79.1575 114.984 80.0504C114.746 80.2472 114.711 80.4994 114.761 80.7819C115.408 83.2589 115.798 85.7661 115.692 88.3339C115.686 88.5256 115.712 88.7123 115.762 88.8939C116.541 91.9309 116.718 95.0536 117.092 98.146C117.628 102.545 118.179 106.944 118.639 111.353C119.094 115.707 119.701 120.045 120.126 124.399C120.54 128.647 121.162 132.874 121.587 137.122C121.647 137.727 121.744 138.313 121.602 138.913C121.556 139.2 121.577 139.483 121.658 139.765C122.34 141.455 122.285 143.287 122.537 145.047C123.033 148.488 123.417 151.944 123.685 155.409C123.645 155.571 123.629 155.732 123.634 155.899C123.68 156.423 124.196 156.958 123.614 157.483C123.508 158.174 123.766 158.784 124.024 159.395C124.625 160.272 124.484 161.317 124.545 162.26C124.742 165.363 125.561 168.389 125.586 171.502C125.51 172.208 125.692 172.849 126.112 173.419C126.638 173.888 127.012 174.458 127.194 175.149C127.598 176.128 128.16 176.966 129.247 177.288C130.101 177.415 130.743 177.889 131.259 178.56C131.502 178.802 131.795 178.958 132.113 179.074C132.543 179.266 132.988 179.417 133.438 179.564C134.358 179.811 135.294 179.781 136.229 179.781C166.55 179.781 196.87 179.776 227.191 179.796C230.007 179.796 232.535 179.19 234.563 177.132C236.342 175.099 237.166 172.738 236.964 170.029C236.772 167.471 236.696 164.899 235.837 162.437L235.842 162.457Z" fill="#F9F4FE"/>
<path d="M225.579 78.2343C225.356 75.9288 225.129 73.6234 224.906 71.3179C224.593 69.5472 224.962 67.7462 224.699 65.9755C224.375 63.1151 222.838 61.1174 220.3 59.831C216.483 58.6353 212.555 59.2659 208.672 59.0995C207.534 59.049 207.109 59.6292 206.953 60.6381C206.685 62.3281 206.326 63.9828 205.309 65.4256C204.693 66.2984 203.964 67.0299 202.973 67.4486C202.352 67.7109 201.634 67.953 201.229 67.1812C200.835 66.4295 201.34 65.9452 201.988 65.6123C202.721 65.2339 203.459 64.8656 204.02 64.225C204.576 63.5893 204.9 62.8326 205.092 62.0254C205.638 59.7149 205.082 59.0137 202.706 58.9885C201.826 58.9784 200.946 59.044 200.066 58.9229C199.905 58.8523 199.743 58.7867 199.586 58.7161C198.696 58.3125 197.847 58.3074 197.068 58.9834C196.881 59.049 196.689 59.0894 196.492 59.0944C179.044 59.1196 161.595 59.0944 144.152 59.1045C143.384 59.1045 142.61 59.0793 141.847 59.1348C140.739 59.4576 141.007 60.4162 140.957 61.1779C140.8 63.4935 139.814 65.3701 138.05 66.8533C137.585 67.2468 137.074 67.5696 136.472 67.7059C135.962 67.8219 135.451 67.7967 135.178 67.277C134.859 66.6818 135.168 66.2328 135.638 65.8645C135.941 65.6274 136.31 65.4962 136.639 65.3045C137.762 64.6437 138.601 63.7407 139.086 62.5198C140.102 59.9419 139.47 59.0087 136.7 58.9935C135.881 58.9935 135.051 59.0642 134.237 58.8926C134.086 58.8119 133.929 58.7413 133.772 58.6757C132.893 58.262 132.068 58.3629 131.3 58.9532C131.118 58.9986 130.941 59.0389 130.759 59.0742C128.499 59.1348 126.244 59.1297 123.989 59.0843C122.29 59.0541 120.617 59.1802 118.953 59.4879C117.735 59.952 116.643 60.6331 115.586 61.3797C113.579 63.5187 112.906 66.0764 113.174 68.9418C113.427 71.6105 113.736 74.2742 114.125 76.9277C114.226 77.6188 114.317 78.3856 115.257 78.5168C123.236 78.5773 131.214 78.537 139.187 78.542C167.187 78.5471 195.187 78.542 223.182 78.5319C223.986 78.5319 224.841 78.7489 225.589 78.2242L225.579 78.2343Z" fill="#4C4090"/>
<path d="M115.343 78.4866C114.412 76.5494 114.731 74.4306 114.256 72.4227C114.043 71.5197 113.967 70.5915 113.881 69.6683C113.629 66.9189 113.957 64.2956 116.076 62.1112C116.258 61.9195 116.298 61.7328 116.015 61.5865C114.21 62.5148 112.982 63.9071 112.147 65.6123C110.888 69.6531 111.359 73.7899 111.348 77.8913C111.313 95.0788 111.192 112.271 111.384 129.459C111.5 139.922 111.389 150.385 111.505 158.103C111.485 151.454 111.53 142.061 111.49 132.673C111.46 132.405 111.303 132.314 111.025 132.395C111.025 145.592 111.015 158.784 111.01 171.981C111.465 173.384 111.884 174.796 112.769 176.042C113.983 178.797 116.511 179.609 119.468 179.796C123.69 179.806 127.912 179.826 132.134 179.781C132.882 179.771 133.898 180.109 134.222 179.024C133.979 178.913 133.741 178.802 133.499 178.696C132.755 178.232 132.022 177.753 131.208 177.394C130.248 176.971 129.621 176.249 129.125 175.417C128.716 174.877 128.483 174.247 128.038 173.727C127.649 173.227 127.3 172.713 127.361 172.062C126.744 167.88 126.435 163.668 125.576 159.516C125.465 158.855 125.353 158.194 125.242 157.528C125.404 157.195 125.348 156.862 125.202 156.539C125.197 156.423 125.187 156.307 125.182 156.191C124.676 150.773 124.079 145.365 123.048 140.008C123.043 139.781 123.033 139.554 123.028 139.327C122.826 135.276 122.143 131.275 121.637 127.254C120.095 115.006 118.442 102.772 116.961 90.5183C116.89 89.913 116.637 89.348 116.5 88.7577C116.5 88.6417 116.49 88.5206 116.485 88.4046C116.389 85.8469 116.131 83.3094 115.419 80.8223C115.413 80.5953 115.403 80.3733 115.398 80.1463C115.358 79.9394 115.317 79.7276 115.277 79.5207C115.11 79.2382 115.307 79.0465 115.474 78.8447C115.51 78.7085 115.464 78.5975 115.353 78.5067L115.343 78.4866Z" fill="#3C2774"/>
<path d="M114.943 78.7135C114.726 78.9405 114.569 79.1676 114.878 79.44C115.388 78.7842 116.101 79.0919 116.718 79.0919C152.403 79.0768 188.093 79.0818 223.778 79.0667C224.37 79.0667 225.093 79.4198 225.573 78.7287C224.992 78.4714 224.38 78.5975 223.783 78.5975C188.098 78.5925 152.418 78.5925 116.733 78.5975C116.137 78.5975 115.525 78.4815 114.938 78.7186L114.943 78.7135Z" fill="#978FB9"/>
<path d="M114.943 78.7135C132.28 78.7236 149.622 78.7438 166.959 78.7438C186.501 78.7438 206.037 78.7337 225.578 78.7236C225.614 78.6227 225.604 78.5269 225.558 78.431C188.685 78.431 151.812 78.431 114.943 78.431C114.933 78.5269 114.933 78.6177 114.943 78.7135Z" fill="#3C2774"/>
<path d="M111.258 132.112C111.273 141.223 111.288 150.334 111.304 159.445C111.304 160.207 111.304 160.964 111.304 162.073C111.779 161.11 111.607 160.429 111.607 159.788C111.622 129.979 111.647 100.169 111.582 70.3644C111.582 68.7299 112.34 67.2266 112.037 65.5971C111.632 66.5304 111.299 67.4839 111.253 68.513C111 70.0315 111.152 71.56 111.147 73.0836C111.127 79.5863 111.137 86.0839 111.137 92.5867C111.137 105.163 111.137 117.74 111.142 130.317C111.142 130.917 111.031 131.527 111.258 132.112Z" fill="#3C2774"/>
<path d="M111.258 132.112C111.278 119.258 111.298 106.409 111.313 93.5553C111.313 93.2274 111.268 92.8994 111.238 92.5715C111.167 92.5867 111.091 92.6018 111.02 92.6169C111.02 105.799 111.02 118.981 111.02 132.168C111.101 132.153 111.177 132.138 111.253 132.118L111.258 132.112Z" fill="#3C2774"/>
<path d="M111.02 92.6119C111.091 92.5967 111.167 92.5816 111.238 92.5665C111.238 84.5453 111.248 76.5291 111.253 68.5079C110.859 69.2293 111.041 70.0163 111.041 70.763C111.015 78.0426 111.02 85.3272 111.02 92.6068V92.6119Z" fill="#978FB9"/>
<path d="M211.29 104.457C212.721 104.457 214.152 104.487 215.583 104.452C217.575 104.397 218.505 103.115 218.197 101.188C217.747 98.3932 217.322 95.5833 217.064 92.7683C216.64 88.1574 215.219 88.6921 211.988 88.3844C209.445 88.1422 206.851 88.2633 204.288 88.6215C202.837 88.8233 202.144 89.5951 202.144 91.0329C202.144 93.5553 202.665 96.0222 203.004 98.5042C203.15 99.5838 202.989 100.679 203.373 101.753C204.06 103.665 204.94 104.422 206.993 104.457C208.424 104.482 209.855 104.457 211.285 104.462L211.29 104.457Z" fill="#C1DAFB"/>
<path d="M172.647 104.144C174.022 104.28 175.655 104.064 177.314 104.331C179.483 104.684 180.838 102.939 180.499 100.754C180.034 97.7425 179.72 94.7005 179.356 91.6736C179.088 89.4085 177.951 88.334 175.701 88.3138C173.062 88.2936 170.417 88.3037 167.778 88.3138C165.23 88.3188 164.163 89.5497 164.512 92.0469C164.947 95.1747 165.382 98.3075 165.806 101.435C166.014 102.984 167.212 104.099 168.759 104.139C169.366 104.154 169.967 104.139 170.574 104.139C171.181 104.139 171.783 104.139 172.652 104.139L172.647 104.144Z" fill="#C1DAFB"/>
<path d="M213.58 124.555C215.011 124.555 216.442 124.581 217.868 124.55C219.698 124.51 220.805 123.415 220.618 121.624C220.244 118.108 219.829 114.587 219.248 111.101C219.015 109.714 217.939 108.79 216.427 108.77C213.403 108.725 210.375 108.705 207.356 108.775C205.354 108.821 204.181 110.506 204.485 112.735C204.904 115.808 205.344 118.88 205.794 121.952C206.017 123.461 207.331 124.495 209.131 124.55C210.612 124.596 212.099 124.56 213.585 124.56L213.58 124.555Z" fill="#C1DAFB"/>
<path d="M192.498 104.452C193.929 104.452 195.354 104.482 196.78 104.442C198.676 104.386 199.47 103.332 199.242 101.491C198.843 98.252 198.489 95.0031 198.191 91.7543C198.014 89.7868 196.922 88.6568 194.904 88.6417C191.992 88.6165 189.08 88.6266 186.168 88.6366C184.256 88.6417 183.2 89.6557 183.331 91.5929C183.478 93.7621 183.751 95.9314 184.125 98.0704C184.322 99.2004 184.302 100.341 184.57 101.471C185.06 103.514 185.92 104.376 188.033 104.452C188.802 104.477 189.57 104.457 190.339 104.457C191.052 104.457 191.77 104.457 192.483 104.457L192.498 104.452Z" fill="#C1DAFB"/>
<path d="M179.023 148.952C177.597 148.952 176.166 148.937 174.741 148.952C173.052 148.972 171.955 149.926 172.117 151.56C172.481 155.238 172.931 158.91 173.542 162.558C173.76 163.864 174.857 164.732 176.288 164.752C179.417 164.798 182.547 164.808 185.677 164.752C187.502 164.722 188.346 163.471 188.088 161.69C187.648 158.678 187.279 155.651 186.961 152.625C186.743 150.546 185.808 148.685 182.972 148.927C181.662 149.038 180.338 148.947 179.018 148.947L179.023 148.952Z" fill="#C1DAFB"/>
<path d="M162.328 164.772C163.759 164.772 165.19 164.798 166.621 164.767C168.567 164.727 169.629 163.652 169.417 161.771C169.027 158.305 168.618 154.839 168.046 151.399C167.804 149.931 166.732 148.982 165.134 148.962C162.05 148.927 158.966 148.912 155.887 148.962C154.046 148.992 152.944 150.39 153.308 152.186C153.93 155.238 154.203 158.33 154.572 161.413C154.865 163.834 155.897 164.762 158.359 164.767C159.679 164.767 161.003 164.767 162.323 164.767L162.328 164.772Z" fill="#C1DAFB"/>
<path d="M136.24 104.129C137.726 104.129 139.213 104.144 140.699 104.129C142.302 104.109 143.465 103.06 143.308 101.45C142.949 97.8181 142.509 94.1859 141.903 90.5889C141.67 89.2067 140.542 88.339 139.021 88.3238C135.937 88.2986 132.852 88.2885 129.773 88.3238C128.302 88.344 127.033 89.585 127.205 90.9723C127.665 94.5945 128.171 98.2116 128.838 101.793C129.101 103.211 130.142 104.154 131.775 104.134C133.262 104.114 134.748 104.134 136.235 104.129H136.24Z" fill="#C1DAFB"/>
<path d="M155.037 104.129C156.574 104.129 158.111 104.129 159.653 104.129C161.15 104.129 161.913 103.362 161.838 101.889C161.64 98.0804 161.044 94.312 160.412 90.5587C160.154 89.0351 158.753 88.3793 157.302 88.3339C154.395 88.2431 151.478 88.2683 148.571 88.3188C146.928 88.3491 145.856 89.4034 146.012 91.0379C146.371 94.7206 146.766 98.4033 147.408 102.046C147.625 103.287 148.829 104.099 150.259 104.119C151.852 104.144 153.445 104.124 155.037 104.124V104.129Z" fill="#C1DAFB"/>
<path d="M143.96 164.772C145.335 164.772 146.711 164.793 148.086 164.772C150.184 164.732 151.099 163.476 150.786 161.448C150.32 158.436 149.941 155.404 149.638 152.372C149.446 150.45 148.076 148.982 146.119 148.967C143.257 148.937 140.396 148.932 137.534 148.967C135.496 148.992 134.495 150.359 134.824 152.367C135.294 155.268 135.724 158.179 136.053 161.1C136.331 163.516 137.574 164.767 139.991 164.777C141.311 164.782 142.63 164.777 143.955 164.777L143.96 164.772Z" fill="#C1DAFB"/>
<path d="M216.144 148.957C214.824 148.957 213.505 148.932 212.185 148.962C210.405 149.007 209.283 149.991 209.45 151.722C209.794 155.243 210.279 158.754 210.845 162.245C211.078 163.678 212.817 164.722 214.718 164.757C217.357 164.808 219.997 164.818 222.636 164.757C224.638 164.712 225.29 163.995 225.28 162.023C225.26 158.577 224.456 155.213 224.132 151.792C223.961 149.956 222.494 149.058 220.275 148.977C218.9 148.932 217.524 148.967 216.149 148.967V148.957H216.144Z" fill="#C1DAFB"/>
<path d="M157.955 129.176C156.302 129.176 154.654 129.151 153 129.187C151.64 129.217 150.462 130.453 150.644 131.785C151.11 135.185 151.62 138.575 152.212 141.955C152.495 143.569 153.905 144.866 155.468 144.578C158.35 144.043 161.156 144.76 163.997 144.674C166.358 144.603 167.081 143.816 166.813 141.405C166.485 138.424 166.171 135.442 165.782 132.471C165.524 130.488 164.432 128.99 162.081 129.161C160.711 129.262 159.331 129.181 157.955 129.181V129.176Z" fill="#C1DAFB"/>
<path d="M175.969 124.248C177.562 124.248 179.155 124.243 180.747 124.248C182.229 124.258 183.058 123.536 182.977 122.053C182.775 118.355 182.289 114.688 181.632 111.051C181.379 109.658 180.257 108.791 178.791 108.765C175.661 108.705 172.526 108.715 169.397 108.765C168.077 108.785 167.051 109.87 167.152 111.257C167.329 113.699 167.587 116.136 167.961 118.552C168.138 119.682 168.087 120.822 168.416 121.947C168.866 123.491 169.751 124.263 171.358 124.248C172.895 124.233 174.432 124.248 175.974 124.248H175.969Z" fill="#C1DAFB"/>
<path d="M136.588 108.73C135.157 108.73 133.726 108.72 132.296 108.73C130.516 108.75 129.717 109.446 129.833 111.217C129.975 113.442 130.329 115.656 130.607 117.876C130.764 119.117 130.925 120.363 131.138 121.599C131.411 123.198 132.579 124.207 134.232 124.222C137.261 124.253 140.289 124.258 143.318 124.222C144.9 124.202 145.628 123.456 145.664 121.882C145.714 119.359 145.193 116.887 144.829 114.405C144.662 113.275 144.708 112.125 144.369 111C143.929 109.547 143.095 108.74 141.553 108.74C139.9 108.74 138.252 108.74 136.598 108.74V108.73H136.588Z" fill="#C1DAFB"/>
<path d="M195.374 129.171C193.888 129.171 192.401 129.156 190.915 129.171C189.095 129.197 188.058 130.347 188.291 132.128C188.715 135.371 189.165 138.61 189.625 141.844C189.853 143.458 190.798 144.538 192.416 144.593C195.662 144.709 198.913 144.689 202.159 144.608C203.6 144.573 204.48 143.478 204.348 142.192C203.989 138.62 203.383 135.069 202.867 131.512C202.629 129.868 201.547 129.197 199.995 129.166C198.453 129.136 196.911 129.161 195.369 129.161L195.374 129.171Z" fill="#C1DAFB"/>
<path d="M194.686 124.248C196.223 124.248 197.765 124.248 199.303 124.248C200.794 124.248 201.497 123.476 201.502 122.008C201.512 118.451 200.718 114.975 200.43 111.444C200.319 110.112 198.66 108.79 197.265 108.77C194.353 108.725 191.44 108.705 188.528 108.77C186.567 108.816 185.459 110.44 185.778 112.372C186.233 115.162 186.622 117.967 186.925 120.777C187.193 123.249 188.129 124.222 190.561 124.238C191.936 124.248 193.306 124.238 194.681 124.238L194.686 124.248Z" fill="#C1DAFB"/>
<path d="M176.763 129.176C175.165 129.176 173.572 129.156 171.975 129.181C170.331 129.212 169.27 130.312 169.462 131.921C169.861 135.276 170.276 138.63 170.837 141.96C171.049 143.231 171.757 144.412 173.345 144.336C176.151 144.2 178.927 144.699 181.733 144.664C185.07 144.618 185.702 143.932 185.322 140.719C184.974 137.798 184.64 134.872 184.306 131.951C184.124 130.332 182.88 129.197 181.222 129.181C179.736 129.171 178.249 129.181 176.763 129.181V129.176Z" fill="#C1DAFB"/>
<path d="M140.931 144.341C142.473 144.341 144.015 144.371 145.557 144.331C147.458 144.281 148.222 143.337 147.994 141.46C147.64 138.54 147.322 135.614 146.978 132.693C146.665 130.014 145.345 128.854 142.605 128.849C139.91 128.849 137.21 128.838 134.515 128.849C132.695 128.859 131.936 129.56 132.139 131.366C132.533 134.882 132.993 138.398 133.58 141.884C133.918 143.897 134.621 144.326 136.639 144.336C138.069 144.341 139.5 144.336 140.931 144.336V144.341Z" fill="#F2E4FE"/>
<path d="M157.469 124.233C159.012 124.233 160.549 124.258 162.091 124.222C163.446 124.192 164.624 122.961 164.457 121.629C164.042 118.285 163.577 114.94 163.066 111.605C162.804 109.88 161.423 108.997 159.952 108.886C156.792 108.649 153.607 108.468 150.442 109.033C149.152 109.26 148.642 110.122 148.657 111.232C148.697 115.001 149.294 118.719 150.083 122.396C150.351 123.647 151.377 124.243 152.692 124.238C154.284 124.233 155.882 124.238 157.475 124.238L157.469 124.233Z" fill="#F2E4FE"/>
<path d="M115.99 88.6518C116.46 92.8944 116.915 97.1421 117.406 101.38C118.119 107.524 118.852 113.669 119.59 119.813C120.359 126.23 121.147 132.642 121.926 139.054C122.619 137.435 121.88 135.82 121.764 134.241C121.425 129.686 120.773 125.156 120.217 120.615C119.706 116.459 119.145 112.307 118.65 108.145C118.255 104.846 117.947 101.536 117.573 98.2369C117.249 95.3714 116.9 92.506 116.521 89.6456C116.476 89.2975 116.177 88.9797 115.99 88.6467V88.6518Z" fill="#F9F4FE"/>
<path d="M121.947 139.735C122.594 145.113 123.241 150.491 123.888 155.868C124.232 155.586 124.222 155.187 124.176 154.814C123.681 150.854 123.241 146.879 122.619 142.939C122.452 141.879 123.104 140.598 121.947 139.735Z" fill="#F9F4FE"/>
<path d="M124.247 159.183C124.702 163.365 124.874 167.577 125.87 171.689C126.355 170.291 125.92 168.884 125.657 167.572C125.207 165.312 125.238 163.017 124.864 160.762C124.768 160.172 124.914 159.536 124.252 159.183H124.247Z" fill="#F9F4FE"/>
<path d="M115.01 80.7365C115.333 83.2539 115.657 85.7762 115.98 88.2936C116.274 85.6955 116.021 83.1681 115.01 80.7365Z" fill="#F9F4FE"/>
<path d="M127.953 175.901C128.514 176.547 132.306 179.014 133.12 179.256C130.88 177.848 130.026 177.172 127.953 175.901Z" fill="#F9F4FE"/>
<path d="M126.482 173.349C126.618 174.025 126.932 174.595 127.468 175.033C127.387 174.327 127.164 173.702 126.482 173.349Z" fill="#F9F4FE"/>
<path d="M123.903 156.216C123.913 156.544 123.928 156.872 123.938 157.2C124.09 157.23 124.236 157.266 124.388 157.296C124.484 156.822 124.181 156.524 123.903 156.211V156.216Z" fill="#F9F4FE"/>
<path d="M134.774 134.494C134.915 135.634 135.471 136.567 136.204 137.404C137.443 138.822 139 139.866 140.522 140.946C140.886 141.203 141.215 141.425 141.655 140.976C142.843 139.765 144.178 138.681 144.992 137.147C145.882 135.477 145.689 134.095 144.436 132.985C143.136 131.835 141.877 131.774 140.345 133.066C139.466 133.803 139.213 133 138.737 132.698C137.903 132.163 137.044 131.865 136.108 132.36C135.269 132.804 134.87 133.565 134.774 134.494Z" fill="#E56990"/>
<path d="M161.874 115.556C161.949 113.492 161.221 112.478 159.876 111.913C158.663 111.409 157.586 111.696 156.828 112.766C156.373 113.406 156.049 113.316 155.538 112.857C154.492 111.918 153.309 111.56 152.156 112.619C151.013 113.669 151.089 114.94 151.817 116.211C153.091 118.446 155.281 119.672 157.278 121.1C157.424 121.201 157.778 121.251 157.859 121.165C159.543 119.329 161.631 117.75 161.868 115.556H161.874Z" fill="#E56990"/>
<path d="M220.634 136.022C220.71 133.959 219.982 132.945 218.637 132.38C217.424 131.875 216.347 132.163 215.588 133.232C215.133 133.873 214.81 133.782 214.299 133.323C213.253 132.385 212.069 132.027 210.917 133.086C209.774 134.135 209.85 135.407 210.578 136.678C211.852 138.913 214.041 140.139 216.038 141.566C216.185 141.667 216.539 141.718 216.62 141.632C218.303 139.796 220.392 138.217 220.629 136.022H220.634Z" fill="#E56990"/>
<path d="M203.575 157.422C203.651 155.359 202.922 154.345 201.578 153.78C200.364 153.275 199.287 153.563 198.529 154.632C198.074 155.273 197.75 155.182 197.24 154.723C196.193 153.785 195.01 153.427 193.857 154.486C192.714 155.535 192.79 156.807 193.518 158.078C194.792 160.313 196.982 161.539 198.979 162.966C199.125 163.067 199.479 163.118 199.56 163.032C201.244 161.196 203.332 159.617 203.57 157.422H203.575Z" fill="#E56990"/>
<path d="M197.052 59.0692C197.052 59.0692 197.118 50.7504 202.073 50.8159C206.128 50.8815 208.246 54.8114 207.387 60.4414C206.886 62.545 206.901 66.48 202.144 67.8976C201.057 67.7866 200.137 66.2984 201.173 65.0422C202.392 64.3208 204.54 63.4228 204.727 59.7401C204.778 58.03 205.364 54.3473 203.155 53.5805C200.541 53.2223 200.273 55.0636 200.207 59.0036L197.052 59.0692Z" fill="#3C2774"/>
<path d="M131.133 59.0793C131.133 59.0793 131.198 50.7604 136.153 50.826C140.208 50.8916 142.326 54.8215 141.467 60.4514C140.966 62.5551 140.982 66.49 136.224 67.9076C135.137 67.7966 134.217 66.3084 135.253 65.0523C137.771 64.8101 138.175 63.2563 138.438 61.6218C138.636 60.401 138.701 59.165 138.661 57.9291C138.575 55.2452 139.07 54.2262 137.235 53.5905C134.621 53.2324 134.353 55.0737 134.287 59.0137L131.133 59.0793Z" fill="#3C2774"/>
</g>
<g clip-path="url(#clip1_210_2)">
<path d="M3.62159 150.712C4.89755 149.15 5.37512 147.201 6.17916 145.414C7.53103 142.405 8.7841 139.348 10.0592 136.304C11.2559 133.443 12.4135 130.562 13.6191 127.704C14.8238 124.848 16.1647 122.045 17.2629 119.147C18.022 117.147 18.8896 115.194 19.6826 113.211C20.4871 111.198 21.3522 109.21 22.1796 107.207C22.5494 106.314 22.9476 105.422 23.2143 104.496C23.4365 103.724 23.8117 103.504 24.533 103.802C24.6564 103.854 24.7913 103.876 24.922 103.914C45.7357 109.907 66.5523 115.9 87.366 121.893C87.8321 122.027 88.3957 122.035 88.5592 122.651C88.6654 122.807 88.6434 122.962 88.5659 123.12C87.7661 124.468 87.1126 125.878 86.7399 127.407C86.7104 127.52 86.6639 127.626 86.6034 127.724C85.6316 129.38 84.9986 131.188 84.2548 132.944C83.1947 135.442 82.1257 137.938 81.1084 140.455C80.1035 142.94 79.0121 145.391 78.0249 147.881C77.0617 150.311 75.9802 152.693 75.0111 155.121C74.8728 155.467 74.7173 155.795 74.6987 156.173C74.6767 156.35 74.6169 156.512 74.5216 156.665C73.8344 157.544 73.5567 158.631 73.11 159.625C72.236 161.566 71.4248 163.534 70.6802 165.529C70.6766 165.63 70.6581 165.728 70.627 165.825C70.5113 166.126 70.1179 166.354 70.3704 166.761C70.3157 167.185 70.0608 167.501 69.806 167.817C69.3039 168.231 69.2101 168.87 69.0146 169.415C68.3731 171.207 67.3792 172.85 66.837 174.678C66.7618 175.106 66.5464 175.452 66.2034 175.717C65.8151 175.904 65.4987 176.176 65.2747 176.552C64.8714 177.06 64.3999 177.458 63.7068 177.464C63.1837 177.394 62.7263 177.564 62.3097 177.872C62.1262 177.973 61.9275 178.016 61.7207 178.03C61.4359 178.07 61.149 178.084 60.8599 178.094C60.2776 178.084 59.7335 177.908 59.1842 177.75C41.3783 172.623 23.5732 167.493 5.76383 162.378C4.11002 161.902 2.72802 161.119 1.88616 159.564C1.18551 158.067 1.10159 156.538 1.67938 154.978C2.2256 153.506 2.70608 152.004 3.62798 150.701L3.62159 150.712Z" fill="#F9F4FE"/>
<path d="M23.9198 102.883C24.4411 101.564 24.9654 100.245 25.4867 98.9261C25.9708 97.9371 26.0592 96.8148 26.5136 95.8172C27.1883 94.1886 28.4294 93.2728 30.1379 92.9449C32.5822 92.8868 34.7824 93.9221 37.0909 94.4807C37.7675 94.6434 37.9186 95.0566 37.8397 95.6769C37.7107 96.7167 37.6411 97.7512 37.9935 98.7721C38.2078 99.39 38.5114 99.9436 39.0224 100.358C39.3432 100.617 39.7238 100.881 40.0921 100.495C40.451 100.119 40.2362 99.749 39.9126 99.4436C39.5461 99.097 39.175 98.7555 38.954 98.2835C38.7351 97.8154 38.6733 97.3154 38.6973 96.8079C38.7681 95.3558 39.2135 95.0372 40.6133 95.4242C41.1316 95.567 41.6372 95.7543 42.1743 95.8318C42.2813 95.8176 42.3874 95.8064 42.4914 95.7913C43.0824 95.7043 43.582 95.8449 43.9247 96.3744C44.0235 96.4446 44.1295 96.5009 44.2444 96.5372C54.4866 99.5023 64.7374 102.438 74.9792 105.393C75.4306 105.523 75.8891 105.639 76.328 105.801C76.9236 106.178 76.6038 106.697 76.5044 107.153C76.2041 108.543 76.4651 109.814 77.25 110.985C77.4565 111.295 77.7017 111.572 78.0319 111.753C78.3121 111.908 78.6163 111.98 78.8647 111.72C79.1526 111.423 79.0476 111.107 78.8338 110.811C78.6959 110.62 78.5013 110.48 78.3408 110.312C77.7937 109.733 77.4538 109.06 77.3756 108.259C77.2156 106.571 77.7449 106.128 79.3746 106.588C79.8556 106.726 80.3305 106.908 80.8376 106.945C80.9404 106.923 81.0444 106.908 81.1475 106.896C81.7343 106.801 82.2011 107 82.5524 107.477C82.6516 107.535 82.7487 107.588 82.8496 107.64C84.1666 108.058 85.4917 108.436 86.8236 108.79C87.8264 109.06 88.7878 109.417 89.7125 109.879C90.3494 110.359 90.8753 110.944 91.3694 111.562C92.1857 113.16 92.1472 114.779 91.5043 116.42C90.9036 117.948 90.2712 119.463 89.5929 120.959C89.4164 121.349 89.2331 121.785 88.6586 121.703C83.963 120.389 79.2846 119.017 74.6014 117.671C58.1574 112.94 41.7152 108.203 25.2768 103.463C24.8047 103.327 24.2661 103.31 23.9156 102.875L23.9198 102.883Z" fill="#4C4090"/>
<path d="M88.6128 121.67C89.4874 120.688 89.6594 119.387 90.2787 118.286C90.5564 117.79 90.7582 117.257 90.9651 116.728C91.5794 115.153 91.8309 113.553 90.957 111.91C90.8826 111.766 90.8905 111.649 91.0815 111.611C91.9842 112.463 92.4698 113.49 92.6708 114.634C92.7254 117.225 91.7483 119.58 91.0593 121.995C88.1678 132.116 85.3259 142.254 82.3007 152.337C80.4596 158.474 78.752 164.651 77.3759 169.173C78.5144 165.264 80.0793 159.728 81.6938 154.21C81.757 154.058 81.8644 154.031 82.014 154.125C79.7778 161.892 77.5485 169.657 75.3153 177.424C74.8104 178.173 74.3246 178.933 73.5939 179.517C72.4146 180.933 70.7924 180.983 69.0238 180.593C66.5429 179.885 64.0602 179.183 61.5887 178.442C61.151 178.31 60.4969 178.337 60.4906 177.644C60.652 177.62 60.8103 177.595 60.9708 177.573C61.4859 177.426 61.9976 177.268 62.5364 177.195C63.1723 177.108 63.6627 176.789 64.0947 176.383C64.4267 176.135 64.6701 175.803 65.0194 175.572C65.3327 175.344 65.6248 175.1 65.6994 174.707C66.7703 172.35 67.6651 169.923 68.8734 167.625C69.0507 167.255 69.228 166.885 69.4062 166.512C69.3676 166.289 69.4566 166.102 69.5975 165.937C69.6201 165.87 69.6457 165.803 69.6683 165.736C70.8833 162.633 72.15 159.551 73.6635 156.572C73.7049 156.44 73.7493 156.308 73.7908 156.175C74.596 153.825 75.6746 151.586 76.6528 149.306C79.6339 142.358 82.6777 135.438 85.624 128.477C85.7681 128.133 86.0123 127.843 86.1925 127.519C86.2122 127.451 86.2386 127.381 86.2612 127.314C86.751 125.825 87.3324 124.375 88.1725 123.032C88.2139 122.899 88.2575 122.77 88.2989 122.638C88.3577 122.523 88.4174 122.405 88.4762 122.29C88.622 122.152 88.5387 122.006 88.4749 121.859C88.4772 121.773 88.5228 121.715 88.6035 121.681L88.6128 121.67Z" fill="#3C2774"/>
<path d="M88.8091 121.872C88.8983 122.042 88.9518 122.202 88.7246 122.31C88.5358 121.838 88.065 121.898 87.7028 121.794C66.7492 115.751 45.7891 109.72 24.8355 103.677C24.4881 103.577 24.0037 103.662 23.8387 103.174C24.2238 103.121 24.5617 103.299 24.912 103.4C45.8691 109.431 66.8223 115.464 87.7776 121.501C88.128 121.602 88.5069 121.637 88.8112 121.875L88.8091 121.872Z" fill="#978FB9"/>
<path d="M88.8094 121.872C78.6265 118.946 68.4389 116.026 58.2577 113.094C46.782 109.79 35.311 106.481 23.8369 103.171C23.8333 103.105 23.8554 103.051 23.8984 103.002C45.5523 109.237 67.2063 115.471 88.8572 121.705C88.8469 121.763 88.8315 121.817 88.8094 121.872Z" fill="#3C2774"/>
<path d="M81.926 153.92C80.3733 159.279 78.8206 164.638 77.2679 169.997C77.1388 170.446 77.0106 170.891 76.8226 171.544C76.7067 170.897 76.9231 170.525 77.0316 170.148C82.0738 152.602 87.11 135.055 92.1988 117.527C92.4757 116.565 92.2851 115.552 92.7393 114.644C92.8187 115.262 92.8531 115.879 92.7055 116.493C92.5966 117.429 92.2485 118.303 91.9934 119.2C90.9034 123.031 89.7965 126.853 88.6946 130.68C86.5636 138.081 84.4326 145.482 82.2986 152.883C82.1968 153.236 82.1587 153.614 81.926 153.92Z" fill="#3C2774"/>
<path d="M81.9255 153.92C84.0916 146.352 86.257 138.787 88.4261 131.22C88.4816 131.027 88.5639 130.841 88.6373 130.654C88.6763 130.674 88.7183 130.696 88.7573 130.717C86.5237 138.475 84.2901 146.232 82.0556 153.993C82.0107 153.97 81.9687 153.948 81.9276 153.924L81.9255 153.92Z" fill="#3C2774"/>
<path d="M88.7584 130.714C88.7194 130.693 88.6774 130.671 88.6384 130.651C89.9975 125.93 91.3499 121.211 92.7061 116.49C92.8154 116.981 92.5752 117.413 92.4487 117.853C91.23 122.141 89.9927 126.427 88.7592 130.711L88.7584 130.714Z" fill="#978FB9"/>
<path d="M27.8675 120.731C27.0273 120.489 26.1819 120.265 25.3476 120.002C24.1872 119.632 23.858 118.721 24.3656 117.639C25.1034 116.07 25.829 114.489 26.4574 112.876C27.4881 110.234 28.2318 110.789 30.1812 111.154C31.7157 111.441 33.2184 111.951 34.663 112.596C35.481 112.96 35.757 113.531 35.5133 114.377C35.0859 115.861 34.3621 117.225 33.7426 118.629C33.4736 119.239 33.3831 119.911 32.9754 120.478C32.2476 121.487 31.6028 121.784 30.3913 121.457C29.5468 121.23 28.7108 120.973 27.8697 120.734L27.8675 120.731Z" fill="#C1DAFB"/>
<path d="M50.6133 127.081C49.7827 126.928 48.8604 126.524 47.8412 126.401C46.5076 126.242 46.0076 124.986 46.5767 123.758C47.3602 122.064 48.0597 120.327 48.7864 118.607C49.3276 117.319 50.1777 116.879 51.5024 117.248C53.0557 117.682 54.6068 118.135 56.155 118.588C57.6506 119.021 58.0685 119.926 57.4405 121.337C56.6552 123.104 55.869 124.874 55.0896 126.643C54.7055 127.519 53.8129 127.973 52.8975 127.735C52.5386 127.641 52.1879 127.531 51.8316 127.428C51.4753 127.325 51.1219 127.224 50.6112 127.077L50.6133 127.081Z" fill="#C1DAFB"/>
<path d="M23.1167 132.171C22.2765 131.929 21.4319 131.702 20.5998 131.443C19.5318 131.11 19.067 130.279 19.4803 129.256C20.2959 127.25 21.136 125.248 22.0681 123.295C22.4398 122.518 23.2286 122.157 24.1198 122.4C25.903 122.885 27.685 123.385 29.4456 123.937C30.6137 124.302 31.017 125.492 30.461 126.753C29.694 128.49 28.9151 130.224 28.1303 131.956C27.7441 132.806 26.7969 133.192 25.7304 132.92C24.8528 132.697 23.9858 132.425 23.1129 132.173L23.1167 132.171Z" fill="#C1DAFB"/>
<path d="M38.905 123.905C38.0647 123.663 37.2223 123.44 36.3918 123.175C35.2878 122.822 35.0003 122.067 35.4459 121.022C36.2293 119.184 36.9876 117.332 37.7133 115.47C38.1506 114.342 38.9834 113.862 40.1706 114.194C41.8851 114.672 43.5936 115.17 45.3021 115.668C46.4236 115.994 46.8724 116.77 46.4669 117.888C46.0132 119.139 45.4853 120.37 44.9032 121.565C44.5959 122.197 44.4146 122.871 44.0658 123.491C43.4316 124.611 42.7806 124.973 41.5267 124.66C41.0711 124.545 40.6232 124.403 40.1719 124.273C39.7533 124.153 39.3317 124.031 38.913 123.911L38.905 123.905Z" fill="#C1DAFB"/>
<path d="M39.277 152.372C40.1143 152.613 40.9572 152.846 41.7919 153.096C42.7802 153.393 43.2629 154.14 42.891 155.074C42.054 157.177 41.1675 159.262 40.1902 161.305C39.8411 162.037 39.0498 162.363 38.2061 162.132C36.3605 161.63 34.5209 161.107 32.6924 160.545C31.6257 160.218 31.3418 159.339 31.795 158.335C32.5636 156.637 33.2933 154.918 33.9932 153.191C34.473 152.004 35.3378 151.067 36.9624 151.689C37.7126 151.976 38.5059 152.146 39.2809 152.369L39.277 152.372Z" fill="#C1DAFB"/>
<path d="M46.4003 164.505C45.56 164.263 44.7154 164.036 43.8803 163.776C42.744 163.423 42.3026 162.611 42.7461 161.54C43.562 159.566 44.3898 157.596 45.3082 155.667C45.6995 154.845 46.4897 154.468 47.4313 154.726C49.2485 155.227 51.0622 155.739 52.8619 156.29C53.9375 156.619 54.348 157.627 53.8299 158.623C52.9476 160.314 52.2633 162.087 51.5242 163.839C50.9417 165.214 50.1787 165.586 48.7319 165.173C47.9569 164.95 47.179 164.726 46.4041 164.503L46.4003 164.505Z" fill="#C1DAFB"/>
<path d="M71.9967 133.228C71.1238 132.976 70.2483 132.734 69.3779 132.474C68.4401 132.191 67.935 131.377 68.2998 130.456C69.126 128.379 69.9998 126.316 70.9656 124.302C71.3364 123.528 72.1455 123.208 73.0418 123.456C74.8572 123.963 76.6701 124.478 78.4724 125.02C79.333 125.28 79.8679 126.225 79.5319 127.013C78.648 129.066 77.7382 131.11 76.7393 133.105C76.3447 133.894 75.5732 134.274 74.6176 133.985C73.7481 133.722 72.8718 133.483 71.9997 133.229L71.9967 133.228Z" fill="#C1DAFB"/>
<path d="M60.9573 130.049C60.0547 129.789 59.1521 129.529 58.2465 129.269C57.3676 129.016 57.0492 128.435 57.3434 127.581C58.1045 125.373 59.0934 123.256 60.1005 121.154C60.5101 120.301 61.4437 120.152 62.3035 120.371C64.0262 120.809 65.7351 121.317 67.4338 121.838C68.3936 122.134 68.8444 122.936 68.4754 123.871C67.6406 125.978 66.785 128.078 65.7908 130.113C65.4528 130.807 64.6085 131.081 63.7649 130.851C62.8253 130.597 61.8934 130.316 60.9582 130.046L60.9573 130.049Z" fill="#C1DAFB"/>
<path d="M57.1875 167.611C56.3799 167.378 55.5689 167.157 54.7647 166.913C53.5393 166.534 53.2148 165.64 53.7425 164.5C54.526 162.806 55.2624 161.086 55.9543 159.353C56.3928 158.254 57.4462 157.622 58.5978 157.944C60.2835 158.41 61.9648 158.891 63.6394 159.396C64.8317 159.755 65.1879 160.729 64.6547 161.855C63.8871 163.483 63.1415 165.123 62.4535 166.786C61.8808 168.161 60.9384 168.687 59.5174 168.285C58.7416 168.064 57.9675 167.838 57.1896 167.614L57.1875 167.611Z" fill="#C1DAFB"/>
<path d="M17.4769 146.098C18.2519 146.321 19.0311 146.529 19.8009 146.77C20.8383 147.098 21.3308 147.867 20.9396 148.857C20.1411 150.871 19.2611 152.855 18.337 154.814C17.9577 155.618 16.7593 155.938 15.637 155.637C14.0785 155.221 12.5269 154.78 10.9873 154.299C9.8192 153.933 9.55757 153.401 9.89773 152.242C10.4934 150.218 11.5357 148.374 12.3053 146.416C12.7174 145.364 13.7306 145.084 15.0477 145.411C15.863 145.617 16.6646 145.87 17.4722 146.103L17.4739 146.097L17.4769 146.098Z" fill="#C1DAFB"/>
<path d="M55.0006 144.296C55.9715 144.576 56.9437 144.84 57.9086 145.14C58.7022 145.388 59.1846 146.314 58.852 147.067C58.0027 148.99 57.1284 150.898 56.2083 152.787C55.7685 153.689 54.7204 154.214 53.8517 153.781C52.2499 152.979 50.4806 152.926 48.8265 152.395C47.4519 151.954 47.1607 151.369 47.7266 149.995C48.4248 148.296 49.1141 146.594 49.8462 144.911C50.3335 143.788 51.2288 143.091 52.5803 143.59C53.3679 143.881 54.1921 144.067 54.9997 144.299L55.0006 144.296Z" fill="#C1DAFB"/>
<path d="M45.2565 138.35C44.3212 138.08 43.3868 137.808 42.4507 137.542C41.579 137.297 41.2143 136.732 41.5131 135.873C42.2584 133.731 43.1649 131.655 44.1672 129.626C44.5516 128.849 45.3578 128.528 46.2231 128.761C48.0713 129.255 49.9104 129.791 51.7398 130.35C52.5113 130.585 52.9303 131.396 52.6358 132.196C52.1182 133.603 51.5539 134.993 50.9247 136.352C50.6293 136.987 50.4658 137.667 50.0822 138.273C49.5564 139.105 48.906 139.41 47.9644 139.129C47.0643 138.86 46.1591 138.609 45.2535 138.349L45.2565 138.35Z" fill="#C1DAFB"/>
<path d="M71.0125 135.876C71.8528 136.118 72.6947 136.354 73.5333 136.602C74.575 136.915 74.9262 137.46 74.5579 138.482C74.0977 139.767 73.5146 141.011 72.9752 142.27C72.6729 142.974 72.3668 143.68 72.0326 144.371C71.6013 145.266 70.7445 145.663 69.771 145.392C67.9874 144.898 66.208 144.389 64.4355 143.856C63.5095 143.576 63.2085 143.014 63.4544 142.081C63.8521 140.588 64.5768 139.222 65.2111 137.823C65.5006 137.186 65.6688 136.501 66.0583 135.897C66.5628 135.116 67.1895 134.782 68.0951 135.043C69.066 135.322 70.0339 135.601 71.0049 135.88L71.0066 135.875L71.0125 135.876Z" fill="#C1DAFB"/>
<path d="M33.0264 137.966C33.8993 138.217 34.7748 138.46 35.6452 138.72C36.7098 139.043 37.1236 139.895 36.6852 140.904C35.8862 142.741 35.0732 144.571 34.255 146.396C33.8479 147.307 33.1097 147.783 32.1502 147.542C30.2244 147.061 28.3186 146.5 26.4261 145.903C25.5859 145.639 25.2547 144.846 25.5499 144.111C26.3659 142.07 27.324 140.082 28.2295 138.077C28.6477 137.149 29.3968 136.937 30.3135 137.182C31.2242 137.425 32.1255 137.7 33.0311 137.961L33.0264 137.966Z" fill="#C1DAFB"/>
<path d="M34.2644 135.185C33.3618 134.925 32.4562 134.664 31.5536 134.404C30.6777 134.152 30.3958 133.579 30.6415 132.714C31.2382 130.619 32.2934 128.708 33.061 126.679C33.3519 125.914 34.5498 125.416 35.3727 125.64C37.0906 126.106 38.8043 126.587 40.5034 127.118C41.6477 127.476 42.0227 128.619 41.5082 129.702C40.7683 131.267 40.0644 132.852 39.4101 134.454C38.8339 135.864 38.1197 136.279 36.6889 135.876C35.8796 135.65 35.0767 135.412 34.2691 135.18L34.2644 135.185Z" fill="#C1DAFB"/>
<path d="M43.9548 141.116C44.893 141.386 45.8317 141.643 46.7657 141.928C47.7256 142.224 48.1627 143.051 47.7772 143.965C46.9742 145.872 46.1623 147.776 45.2685 149.641C44.9284 150.353 44.3127 150.928 43.3932 150.615C41.7684 150.061 40.0538 149.885 38.4119 149.39C36.4599 148.799 36.205 148.288 36.9722 146.461C37.672 144.801 38.3638 143.136 39.0547 141.473C39.436 140.551 40.3587 140.093 41.3352 140.365C42.2098 140.61 43.081 140.868 43.9539 141.119L43.9548 141.116Z" fill="#C1DAFB"/>
<path d="M62.4277 156.099C61.5221 155.838 60.6114 155.595 59.7127 155.311C58.6048 154.96 58.3163 154.275 58.7679 153.209C59.4707 151.55 60.1535 149.882 60.8504 148.221C61.4884 146.698 62.4599 146.238 64.07 146.699C65.6526 147.154 67.2398 147.605 68.8207 148.066C69.8878 148.38 70.2144 148.921 69.7896 149.95C68.9622 151.952 68.0962 153.944 67.1611 155.896C66.6211 157.023 66.1358 157.157 64.9494 156.822C64.1082 156.583 63.2688 156.338 62.4286 156.096L62.4277 156.099Z" fill="#F2E4FE"/>
<path d="M56.1231 141.469C55.2176 141.208 54.3107 140.963 53.4111 140.681C52.6205 140.435 52.1372 139.511 52.4609 138.755C53.2711 136.857 54.111 134.967 54.9759 133.091C55.4226 132.121 56.3828 131.834 57.2656 132.018C59.1615 132.413 61.0628 132.844 62.8258 133.712C63.5444 134.064 63.6981 134.658 63.5012 135.308C62.8389 137.519 61.8585 139.606 60.7722 141.637C60.4028 142.328 59.6992 142.505 58.9281 142.28C57.9937 142.007 57.0546 141.74 56.1193 141.471L56.1231 141.469Z" fill="#F2E4FE"/>
<path d="M86.5104 127.543C85.5154 129.96 84.5284 132.383 83.5224 134.794C82.0626 138.29 80.5909 141.782 79.1162 145.273C77.5776 148.919 76.028 152.559 74.4843 156.201C74.3519 155.131 75.0589 154.306 75.3948 153.396C76.3656 150.773 77.5162 148.217 78.6121 145.639C79.6164 143.279 80.6495 140.931 81.6457 138.565C82.4363 136.69 83.1782 134.795 83.9569 132.916C84.6325 131.285 85.3229 129.657 86.0302 128.038C86.1159 127.841 86.345 127.705 86.5112 127.54L86.5104 127.543Z" fill="#F9F4FE"/>
<path d="M74.357 156.598C73.0658 159.654 71.7745 162.709 70.4832 165.764C70.3292 165.54 70.4026 165.307 70.4926 165.095C71.4546 162.849 72.3865 160.583 73.4193 158.37C73.6968 157.775 73.5309 156.91 74.357 156.598Z" fill="#F9F4FE"/>
<path d="M69.7107 167.654C68.7348 170.039 67.9201 172.488 66.6385 174.74C66.5903 173.835 67.0841 173.08 67.4608 172.353C68.108 171.099 68.4791 169.743 69.0809 168.479C69.2373 168.148 69.2589 167.749 69.7077 167.653L69.7107 167.654Z" fill="#F9F4FE"/>
<path d="M88.4282 123.051C87.8116 124.478 87.1942 125.907 86.5776 127.334C86.8457 125.756 87.4224 124.311 88.4282 123.051Z" fill="#F9F4FE"/>
<path d="M64.7014 176.866C64.2625 177.151 61.6176 177.962 61.0985 177.967C62.6524 177.517 63.2687 177.264 64.7014 176.866Z" fill="#F9F4FE"/>
<path d="M65.9989 175.613C65.8042 175.988 65.5235 176.27 65.1344 176.438C65.3016 176.036 65.5382 175.705 65.9989 175.613Z" fill="#F9F4FE"/>
<path d="M70.4159 165.967C70.3544 166.158 70.29 166.348 70.2285 166.54C70.1343 166.532 70.0422 166.528 69.948 166.52C69.9719 166.225 70.2005 166.101 70.4168 165.964L70.4159 165.967Z" fill="#F9F4FE"/>
<path d="M67.7125 151.345C67.4362 151.992 66.9514 152.447 66.379 152.816C65.4114 153.441 64.3199 153.792 63.2433 154.17C62.9859 154.26 62.7553 154.335 62.5731 153.996C62.0805 153.083 61.4804 152.219 61.2622 151.179C61.0226 150.046 61.3697 149.265 62.2941 148.824C63.252 148.366 64.0016 148.544 64.6824 149.563C65.0742 150.145 65.3586 149.716 65.689 149.618C66.2695 149.444 66.8247 149.414 67.2902 149.863C67.7079 150.267 67.8134 150.782 67.7125 151.345Z" fill="#E56990"/>
<path d="M55.0072 135.618C55.3123 134.391 55.9117 133.917 56.7972 133.812C57.5953 133.72 58.179 134.072 58.4431 134.829C58.6018 135.283 58.8072 135.284 59.1849 135.101C59.9585 134.725 60.7139 134.715 61.2114 135.533C61.7046 136.344 61.4447 137.079 60.8017 137.704C59.6748 138.804 58.1814 139.155 56.7667 139.658C56.6635 139.692 56.4471 139.662 56.4142 139.598C55.7366 138.233 54.7779 136.95 55.0102 135.619L55.0072 135.618Z" fill="#E56990"/>
<path d="M17.0316 137.727C17.3367 136.5 17.9361 136.026 18.8216 135.921C19.6197 135.829 20.2034 136.18 20.4675 136.938C20.6262 137.392 20.8316 137.393 21.2093 137.21C21.9829 136.834 22.7384 136.824 23.2358 137.642C23.729 138.453 23.4691 139.188 22.8261 139.813C21.6992 140.913 20.2059 141.264 18.7911 141.767C18.6879 141.801 18.4716 141.771 18.4386 141.707C17.761 140.341 16.8023 139.059 17.0346 137.728L17.0316 137.727Z" fill="#E56990"/>
<path d="M23.4232 153.205C23.7283 151.978 24.3277 151.504 25.2132 151.399C26.0113 151.307 26.595 151.659 26.8591 152.416C27.0178 152.87 27.2232 152.872 27.6009 152.688C28.3745 152.312 29.13 152.302 29.6274 153.12C30.1206 153.931 29.8607 154.666 29.2177 155.291C28.0908 156.391 26.5975 156.742 25.1827 157.245C25.0795 157.279 24.8632 157.249 24.8302 157.185C24.1526 155.82 23.1939 154.537 23.4262 153.206L23.4232 153.205Z" fill="#E56990"/>
<path d="M43.9193 96.4275C43.9193 96.4275 45.2902 91.5208 42.3694 90.7216C39.977 90.0745 38.067 92.029 37.6178 95.4876C37.5553 96.8102 36.8797 99.1233 39.4334 100.762C40.0906 100.881 40.8832 100.16 40.4873 99.2458C39.894 98.6153 38.7843 97.7235 39.2984 95.5246C39.5585 94.5096 39.8381 92.2432 41.2655 92.1655C42.8613 92.3967 42.7066 93.5257 42.0776 95.8554L43.9193 96.4275Z" fill="#3C2774"/>
<path d="M82.6292 107.58C82.6292 107.58 84.0002 102.673 81.0793 101.874C78.687 101.227 76.777 103.181 76.3278 106.64C76.2653 107.962 75.5896 110.275 78.1434 111.914C78.8006 112.033 79.5931 111.312 79.1973 110.398C77.7597 109.83 77.7854 108.847 77.908 107.84C77.9991 107.089 78.1699 106.35 78.4031 105.63C78.9083 104.065 78.79 103.381 79.9755 103.318C81.5712 103.549 81.4166 104.678 80.7876 107.007L82.6292 107.58Z" fill="#3C2774"/>
</g>
<g clip-path="url(#clip2_210_2)">
<path d="M107.223 45.8822C106.214 44.8481 105.75 43.4871 105.064 42.262C103.91 40.1996 102.823 38.0969 101.721 36.0048C100.687 34.0384 99.6788 32.0546 98.6383 30.0907C97.5986 28.1287 96.465 26.2125 95.4986 24.2129C94.8308 22.8334 94.0886 21.4946 93.3977 20.1288C92.6967 18.7432 91.954 17.3785 91.2373 16.0013C90.9171 15.387 90.5768 14.7757 90.3281 14.1314C90.1208 13.5945 89.8392 13.4612 89.3431 13.7191C89.2583 13.7637 89.1634 13.7885 89.0726 13.8236C74.595 19.4119 60.1154 25.0011 45.6378 30.5895C45.3136 30.7146 44.9118 30.7558 44.834 31.2058C44.768 31.3238 44.7934 31.4327 44.8587 31.5403C45.5145 32.4522 46.0697 33.4172 46.432 34.485C46.4602 34.5643 46.5001 34.6367 46.5494 34.7031C47.3473 35.8235 47.913 37.0739 48.5545 38.2807C49.4685 39.997 50.3887 41.7108 51.2733 43.4431C52.1471 45.1535 53.0805 46.8338 53.9418 48.549C54.7824 50.2224 55.7044 51.8548 56.549 53.5266C56.6695 53.7649 56.8012 53.9893 56.8382 54.2573C56.8651 54.3822 56.918 54.4947 56.9956 54.5976C57.5415 55.1817 57.8081 55.9401 58.1896 56.621C58.9356 57.9512 59.6386 59.3052 60.2957 60.6816C60.3047 60.7541 60.324 60.8226 60.3523 60.8899C60.4538 61.0975 60.749 61.2351 60.5944 61.5415C60.6602 61.8412 60.862 62.0504 61.0638 62.2596C61.4482 62.524 61.5554 62.9738 61.7293 63.3504C62.3 64.5894 63.1129 65.6992 63.615 66.9694C63.6956 67.2705 63.8712 67.504 64.1327 67.6712C64.4216 67.7803 64.6645 67.9547 64.8481 68.2089C65.1679 68.5458 65.5295 68.8001 66.0246 68.7608C66.3935 68.6777 66.7307 68.7706 67.0474 68.9639C67.1848 69.0248 67.3293 69.0426 67.4778 69.0399C67.6836 69.0506 67.8892 69.0424 68.0962 69.0313C68.5111 68.9874 68.8884 68.8275 69.2705 68.68C81.6559 63.8992 94.0405 59.1164 106.429 54.3438C107.58 53.8998 108.517 53.2534 109.019 52.0911C109.425 50.9783 109.389 49.8819 108.878 48.8049C108.395 47.7882 107.958 46.747 107.218 45.8747L107.223 45.8822Z" fill="#F9F4FE"/>
<path d="M89.7226 13.0245C89.2675 12.1158 88.8103 11.208 88.3551 10.2993C87.9473 9.6239 87.8135 8.82848 87.4263 8.1451C86.8421 7.02523 85.8986 6.44982 84.6586 6.32343C82.9104 6.4359 81.4053 7.31345 79.7929 7.85756C79.3203 8.01628 79.2384 8.32072 79.3338 8.75844C79.4914 9.49249 79.6062 10.2264 79.4191 10.9773C79.305 11.4318 79.1232 11.846 78.7846 12.1737C78.572 12.3791 78.317 12.5914 78.0298 12.3392C77.75 12.0937 77.88 11.8158 78.0917 11.5774C78.3314 11.307 78.5747 11.0398 78.7027 10.6891C78.8295 10.3412 78.8421 9.98041 78.793 9.6197C78.651 8.58781 78.313 8.38846 77.3384 8.75282C76.9774 8.8874 76.6284 9.05296 76.2499 9.14211C76.1727 9.13871 76.0962 9.13738 76.021 9.13318C75.5938 9.10828 75.246 9.24015 75.0348 9.63963C74.9687 9.69598 74.8966 9.74279 74.8169 9.77595C67.6936 12.5374 60.5624 15.2782 53.4388 18.0327C53.1249 18.1539 52.8049 18.2655 52.5018 18.4086C52.1005 18.7154 52.3614 19.0655 52.4611 19.3853C52.763 20.3578 52.6568 21.2815 52.1704 22.1668C52.0425 22.4013 51.885 22.6139 51.6607 22.7646C51.4705 22.8926 51.2579 22.9628 51.0643 22.7931C50.8401 22.5997 50.8951 22.3672 51.029 22.1424C51.1155 21.9975 51.2455 21.8856 51.3494 21.7553C51.7035 21.3078 51.9037 20.8058 51.909 20.2295C51.9168 19.0141 51.5112 18.7317 50.377 19.1623C50.0425 19.2915 49.7149 19.4511 49.3553 19.5093C49.2806 19.5001 49.2054 19.4959 49.131 19.4938C48.7063 19.4632 48.3856 19.6344 48.165 19.9972C48.0978 20.0445 48.0319 20.0889 47.9631 20.1321C47.0495 20.5132 46.1276 20.8667 45.1993 21.2037C44.5006 21.4591 43.8369 21.7746 43.2061 22.1629C42.7817 22.545 42.4432 22.996 42.1295 23.4682C41.6476 24.6603 41.777 25.8133 42.3392 26.944C42.8642 27.9965 43.411 29.0383 43.9893 30.0631C44.1399 30.3301 44.2982 30.6296 44.7031 30.535C47.9716 29.3018 51.2242 28.0273 54.482 26.7722C65.9202 22.3594 77.3569 17.9424 88.7907 13.5242C89.1191 13.3974 89.5024 13.3515 89.7252 13.0187L89.7226 13.0245Z" fill="#4C4090"/>
<path d="M44.733 30.5091C44.0469 29.8628 43.8423 28.9452 43.3309 28.1983C43.1014 27.8621 42.9238 27.4941 42.7428 27.1297C42.2051 26.0441 41.9249 24.9185 42.4451 23.6903C42.4891 23.5831 42.4761 23.5003 42.3374 23.4851C41.7467 24.1497 41.4649 24.9133 41.3935 25.7429C41.5178 27.5955 42.3635 29.2147 43.0074 30.8952C45.7087 37.9364 48.3757 44.9932 51.17 51.9986C52.8707 56.2631 54.4785 60.5636 55.7456 63.7048C54.6867 60.9862 53.2211 57.1339 51.7211 53.2973C51.6665 53.1926 51.5881 53.1801 51.4873 53.257C53.5725 58.6592 55.6529 64.0609 57.736 69.4639C58.1435 69.9662 58.5381 70.4783 59.0964 70.8488C60.0273 71.785 61.1883 71.7189 62.426 71.3289C64.1521 70.6674 65.8798 70.01 67.5971 69.3258C67.9012 69.2036 68.3697 69.1818 68.3305 68.6868C68.2138 68.6796 68.0992 68.6716 67.9833 68.6665C67.6064 68.5937 67.2312 68.5131 66.8421 68.4949C66.3828 68.4729 66.0127 68.2764 65.6787 68.0138C65.4262 67.8574 65.2315 67.636 64.9677 67.4934C64.7297 67.3504 64.5059 67.1947 64.4279 66.9188C63.5151 65.3041 62.7235 63.6284 61.7164 62.0644C61.5666 61.8114 61.4167 61.5584 61.266 61.3034C61.2795 61.1416 61.2042 61.0141 61.0933 60.905C61.0729 60.8583 61.0504 60.8124 61.03 60.7657C59.9674 58.6276 58.8692 56.5079 57.6013 54.4774C57.5634 54.3853 57.5234 54.294 57.4855 54.2019C56.7628 52.5755 55.8518 51.0455 55.01 49.4794C52.4447 44.7086 49.8364 39.9615 47.295 35.1791C47.1705 34.9425 46.9779 34.751 46.8289 34.5309C46.8106 34.4834 46.7873 34.4355 46.7669 34.3888C46.3235 33.3569 45.8173 32.3589 45.1331 31.4532C45.0951 31.3611 45.0559 31.2718 45.018 31.1797C44.9688 31.1014 44.9188 31.021 44.8696 30.9428C44.7568 30.8534 44.8071 30.7439 44.8433 30.6349C44.8363 30.5736 44.8001 30.5354 44.7403 30.5157L44.733 30.5091Z" fill="#3C2774"/>
<path d="M44.6065 30.6649C44.5535 30.7922 44.5254 30.9098 44.6944 30.9727C44.7994 30.6237 45.1392 30.6373 45.3912 30.54C59.9654 24.9072 74.545 19.2818 89.1193 13.649C89.3609 13.5557 89.7121 13.5862 89.799 13.2276C89.5209 13.214 89.2909 13.362 89.0472 13.4561C74.4697 19.0807 59.8951 24.7065 45.3192 30.3352C45.0755 30.4293 44.8073 30.4783 44.6052 30.6678L44.6065 30.6649Z" fill="#978FB9"/>
<path d="M44.6064 30.665C51.6898 27.9355 58.7769 25.2094 65.8587 22.4758C73.8409 19.3946 81.8196 16.3101 89.8002 13.2248C89.7987 13.1779 89.7795 13.1402 89.7457 13.1082C74.6837 18.9221 59.6217 24.7361 44.5617 30.5493C44.5728 30.5901 44.5871 30.6273 44.6064 30.665Z" fill="#3C2774"/>
<path d="M51.5377 53.1047C52.9835 56.8318 54.4292 60.5589 55.875 64.286C55.9954 64.5978 56.115 64.9076 56.2903 65.3619C56.3322 64.8925 56.1544 64.6408 56.0532 64.3786C51.3492 52.1738 46.6494 39.9674 41.9131 27.7774C41.6549 27.1084 41.7271 26.3734 41.3457 25.7542C41.328 26.2 41.3423 26.6429 41.4864 27.0714C41.623 27.7328 41.9265 28.3346 42.1652 28.9591C43.1844 31.6241 44.2152 34.2823 45.2427 36.9442C47.2299 42.0923 49.2171 47.2405 51.2064 52.3879C51.3013 52.6336 51.3523 52.901 51.5377 53.1047Z" fill="#3C2774"/>
<path d="M51.5376 53.1047C49.5148 47.8397 47.4928 42.5769 45.4679 37.3127C45.4161 37.1785 45.3457 37.0514 45.2815 36.922C45.255 36.9393 45.2264 36.9575 45.1999 36.9749C47.2828 42.3708 49.3656 47.7668 51.4493 53.1649C51.4799 53.1459 51.5085 53.1278 51.5363 53.1076L51.5376 53.1047Z" fill="#3C2774"/>
<path d="M45.199 36.9728C45.2255 36.9555 45.2541 36.9373 45.2806 36.92C44.0132 33.6365 42.7507 30.3536 41.4854 27.0693C41.4382 27.4268 41.6369 27.7203 41.7549 28.0259C42.8948 31.0098 44.0479 33.9909 45.1982 36.9708L45.199 36.9728Z" fill="#978FB9"/>
<path d="M88.0292 26.0115C88.6137 25.7859 89.2029 25.5727 89.7818 25.3326C90.5867 24.9958 90.7643 24.3246 90.3338 23.5844C89.7084 22.5113 89.0909 21.428 88.5408 20.3164C87.6388 18.4959 87.1429 18.9388 85.7746 19.3222C84.6975 19.6241 83.6571 20.0826 82.6666 20.6334C82.1058 20.9448 81.9448 21.37 82.172 21.9585C82.5705 22.9911 83.173 23.9188 83.7036 24.8814C83.9341 25.3002 84.041 25.7738 84.3677 26.1531C84.9507 26.8273 85.4296 26.9983 86.2737 26.6891C86.8622 26.4738 87.4426 26.2379 88.0279 26.0144L88.0292 26.0115Z" fill="#C1DAFB"/>
<path d="M72.1956 31.9764C72.7789 31.8153 73.4117 31.469 74.1313 31.317C75.0731 31.1196 75.3508 30.1914 74.8673 29.3506C74.2014 28.1912 73.5927 26.9954 72.9657 25.8137C72.4984 24.9288 71.8639 24.6683 70.9417 25.0148C69.8604 25.4226 68.7819 25.8437 67.7054 26.264C66.6653 26.6678 66.424 27.3399 66.9611 28.3071C67.6329 29.5189 68.3055 30.7327 68.9732 31.9461C69.3026 32.5474 69.9683 32.8148 70.6066 32.5874C70.8568 32.4979 71.1002 32.3969 71.348 32.3012C71.5959 32.2055 71.8416 32.1107 72.1969 31.9736L72.1956 31.9764Z" fill="#C1DAFB"/>
<path d="M92.1409 33.8775C92.7254 33.6519 93.3138 33.4366 93.8914 33.1994C94.6327 32.8943 94.912 32.2716 94.5526 31.568C93.8442 30.1877 93.1185 28.8116 92.3301 27.4764C92.0159 26.9452 91.4302 26.7371 90.8095 26.9672C89.5673 27.4253 88.327 27.8946 87.1052 28.3994C86.2945 28.7337 86.0816 29.6084 86.5578 30.4733C87.2147 31.6647 87.8798 32.853 88.5491 34.0397C88.8783 34.622 89.5786 34.8381 90.3227 34.577C90.935 34.362 91.5366 34.1132 92.1438 33.8788L92.1409 33.8775Z" fill="#C1DAFB"/>
<path d="M80.3522 28.9726C80.9367 28.747 81.5238 28.5346 82.0999 28.2932C82.8656 27.9716 83.0232 27.4148 82.6393 26.697C81.9644 25.4342 81.3065 24.1601 80.6713 22.8772C80.2882 22.0997 79.6635 21.8094 78.8371 22.1213C77.6435 22.5701 76.4555 23.0334 75.2675 23.4968C74.4876 23.8002 74.2162 24.3819 74.576 25.1541C74.9786 26.019 75.4329 26.8639 75.9237 27.6805C76.1828 28.112 76.3547 28.5818 76.6427 29.0022C77.1659 29.7612 77.6533 29.9788 78.5285 29.6765C78.8465 29.5657 79.1572 29.4362 79.4711 29.3151C79.7623 29.2027 80.0556 29.0895 80.3468 28.9771L80.3522 28.9726Z" fill="#C1DAFB"/>
<path d="M81.8795 49.313C81.2971 49.5378 80.7102 49.7572 80.1302 49.9882C79.4436 50.2628 79.1461 50.826 79.4705 51.4696C80.2003 52.9176 80.9644 54.35 81.7906 55.7466C82.0858 56.2472 82.6711 56.4294 83.2588 56.212C84.5443 55.7372 85.8243 55.2478 87.094 54.7316C87.8348 54.4315 87.982 53.7862 87.5953 53.0979C86.9397 51.9344 86.3107 50.7536 85.7023 49.5648C85.2851 48.7482 84.6089 48.1337 83.4885 48.6801C82.9711 48.932 82.4157 49.1037 81.8766 49.3117L81.8795 49.313Z" fill="#C1DAFB"/>
<path d="M77.5597 58.4213C78.1442 58.1957 78.7327 57.9804 79.3123 57.7424C80.1011 57.419 80.365 56.8117 79.981 56.0749C79.2743 54.7176 78.5594 53.3635 77.7824 52.0452C77.4513 51.4826 76.8636 51.2633 76.2078 51.507C74.9424 51.9788 73.6802 52.4589 72.4304 52.9651C71.6834 53.2676 71.454 54.0134 71.8865 54.6912C72.6228 55.8425 73.2229 57.0653 73.8607 58.2689C74.3631 59.2139 74.9311 59.4312 75.9377 59.045C76.4767 58.837 77.0178 58.6281 77.5569 58.42L77.5597 58.4213Z" fill="#C1DAFB"/>
<path d="M57.3208 37.7109C57.928 37.4765 58.5376 37.2483 59.1424 37.0077C59.7939 36.7468 60.1031 36.1339 59.7848 35.4998C59.0643 34.0696 58.3107 32.6521 57.4945 31.2754C57.1811 30.7463 56.5834 30.5688 55.9594 30.8026C54.6956 31.2786 53.4342 31.7607 52.182 32.2607C51.5842 32.5009 51.2619 33.209 51.5513 33.7498C52.3116 35.16 53.0896 36.5609 53.9282 37.9219C54.2596 38.4607 54.8341 38.6826 55.498 38.4169C56.102 38.1742 56.7124 37.9481 57.3188 37.7117L57.3208 37.7109Z" fill="#C1DAFB"/>
<path d="M64.9999 34.7469C65.6277 34.5045 66.2556 34.2622 66.8855 34.019C67.4968 33.7831 67.6875 33.3488 67.4237 32.7578C66.7414 31.2297 65.9022 29.7812 65.051 28.3445C64.705 27.7615 64.0292 27.7138 63.4293 27.9241C62.2275 28.3453 61.0398 28.8156 59.8602 29.2946C59.1938 29.5661 58.9226 30.1667 59.2448 30.8111C59.9734 32.262 60.7164 33.7073 61.5542 35.097C61.8391 35.5707 62.4589 35.7135 63.0466 35.4961C63.7011 35.2553 64.3485 34.9959 64.9991 34.7448L64.9999 34.7469Z" fill="#C1DAFB"/>
<path d="M70.0568 61.3175C70.6185 61.1007 71.1835 60.8921 71.742 60.667C72.5927 60.3197 72.7681 59.6612 72.3196 58.8805C71.6537 57.721 71.0197 56.5396 70.4168 55.3464C70.0346 54.5899 69.2429 54.205 68.4413 54.5073C67.2675 54.9461 66.0978 55.3953 64.9344 55.861C64.1061 56.1926 63.9132 56.91 64.3647 57.6801C65.0151 58.7934 65.6506 59.9172 66.2464 61.061C66.7418 62.0063 67.4475 62.3223 68.4363 61.9454C68.9762 61.7394 69.5144 61.5293 70.0555 61.3204L70.0568 61.3175Z" fill="#C1DAFB"/>
<path d="M97.044 43.462C96.5049 43.6701 95.9619 43.8678 95.4277 44.0883C94.7079 44.3875 94.4048 44.9671 94.7464 45.6491C95.4432 47.0363 96.1963 48.3971 96.9792 49.7368C97.3006 50.2866 98.176 50.4398 98.9581 50.1545C100.044 49.7591 101.124 49.347 102.192 48.9061C103.003 48.5719 103.156 48.1758 102.84 47.3699C102.288 45.9627 101.428 44.7121 100.755 43.363C100.395 42.6384 99.6539 42.502 98.7345 42.8189C98.1656 43.0172 97.6094 43.2485 97.0476 43.4653L97.046 43.4612L97.044 43.462Z" fill="#C1DAFB"/>
<path d="M70.1487 44.5399C69.4734 44.8006 68.7961 45.0502 68.1264 45.3253C67.5756 45.5522 67.2897 46.2438 67.5745 46.7603C68.3017 48.0788 69.046 49.386 69.8217 50.6763C70.1924 51.2925 70.9735 51.6008 71.5662 51.2368C72.6589 50.5635 73.9184 50.4143 75.0655 49.9311C76.0188 49.5299 76.1898 49.0938 75.6993 48.1489C75.094 46.9803 74.4948 45.8093 73.8663 44.6543C73.4477 43.8834 72.7649 43.4423 71.8316 43.8832C71.2879 44.1406 70.7113 44.3252 70.1495 44.542L70.1487 44.5399Z" fill="#C1DAFB"/>
<path d="M76.7289 39.6819C77.3794 39.4308 78.0292 39.1776 78.6806 38.9286C79.2873 38.6991 79.512 38.2731 79.2446 37.6787C78.5777 36.1969 77.7999 34.7722 76.9567 33.3869C76.6335 32.8568 76.0379 32.6786 75.435 32.8994C74.147 33.3681 72.8681 33.8665 71.5977 34.3806C71.0618 34.597 70.814 35.2028 71.0745 35.7547C71.5326 36.7263 72.0229 37.6831 72.5576 38.6133C72.8084 39.0479 72.9679 39.5226 73.2799 39.9313C73.7076 40.4922 74.191 40.6687 74.8454 40.409C75.4708 40.1604 76.101 39.9243 76.731 39.6811L76.7289 39.6819Z" fill="#C1DAFB"/>
<path d="M58.1906 39.5392C57.6061 39.7648 57.02 39.9863 56.4372 40.216C55.7134 40.5049 55.4971 40.9158 55.8244 41.6223C56.2337 42.5107 56.7282 43.3614 57.1925 44.2262C57.4527 44.7095 57.7156 45.1941 57.9977 45.6665C58.3619 46.2781 58.9984 46.5069 59.6761 46.2525C60.918 45.7873 62.1559 45.3119 63.3874 44.8199C64.0306 44.5621 64.2101 44.1417 63.9758 43.4918C63.5979 42.4513 62.9946 41.5215 62.4537 40.5629C62.207 40.1267 62.0439 39.6487 61.7277 39.2416C61.3185 38.7162 60.8502 38.5173 60.2203 38.7605C59.5449 39.0211 58.8717 39.281 58.1963 39.5417L58.1947 39.5376L58.1906 39.5392Z" fill="#C1DAFB"/>
<path d="M85.4336 38.6378C84.8264 38.8721 84.2168 39.1003 83.612 39.3409C82.8725 39.6382 82.6309 40.2725 83.0072 40.9648C83.6933 42.2256 84.3888 43.4804 85.0877 44.7316C85.4357 45.3565 85.9925 45.6494 86.6622 45.417C88.0064 44.9527 89.3312 44.4318 90.6443 43.887C91.2274 43.6453 91.4137 43.0585 91.1568 42.5526C90.4458 41.1472 89.6368 39.789 88.8642 38.4145C88.5072 37.7788 87.9593 37.6747 87.3204 37.9071C86.6857 38.1378 86.0598 38.3913 85.4299 38.6344L85.4336 38.6378Z" fill="#C1DAFB"/>
<path d="M84.3742 36.7307C85.0021 36.4883 85.632 36.2452 86.2598 36.0028C86.8691 35.7677 87.0342 35.3409 86.8043 34.7392C86.2464 33.2817 85.373 31.9841 84.6973 30.584C84.4414 30.0563 83.5552 29.7768 82.9819 29.9885C81.7852 30.4291 80.5924 30.8801 79.4132 31.3661C78.619 31.694 78.4234 32.5335 78.8588 33.2742C79.4855 34.3444 80.0877 35.4312 80.6556 36.5336C81.1557 37.5033 81.6916 37.7543 82.6874 37.3771C83.2507 37.1644 83.8088 36.9442 84.3706 36.7273L84.3742 36.7307Z" fill="#C1DAFB"/>
<path d="M77.8321 41.5743C77.1794 41.8263 76.5257 42.0691 75.877 42.3314C75.2106 42.6028 74.9507 43.2204 75.2834 43.8489C75.9767 45.1592 76.6761 46.4671 77.4315 47.7415C77.7191 48.2284 78.1947 48.6 78.8313 48.3187C79.956 47.8205 81.1687 47.5873 82.3094 47.1304C83.6653 46.5857 83.815 46.2052 83.1524 44.9495C82.5483 43.8089 81.9497 42.6637 81.3519 41.5207C81.0216 40.8865 80.3342 40.618 79.6544 40.8733C79.0456 41.1035 78.44 41.342 77.8329 41.5764L77.8321 41.5743Z" fill="#C1DAFB"/>
<path d="M65.5915 53.4316C66.2214 53.1885 66.8561 52.9577 67.4796 52.6981C68.2482 52.3777 68.411 51.8711 68.0215 51.1388C67.4154 49.999 66.823 48.8514 66.221 47.71C65.6697 46.6629 64.9473 46.396 63.8272 46.826C62.7264 47.2509 61.6219 47.6725 60.5227 48.1015C59.7808 48.3926 59.5818 48.7993 59.9498 49.5067C60.6665 50.8838 61.41 52.2506 62.2004 53.5851C62.6568 54.3556 63.0116 54.4204 63.8373 54.1064C64.4226 53.8829 65.0062 53.6552 65.5907 53.4296L65.5915 53.4316Z" fill="#F2E4FE"/>
<path d="M69.1695 42.5927C69.7994 42.3496 70.4312 42.1175 71.0556 41.8599C71.6043 41.6339 71.891 40.9443 71.6124 40.4254C70.9145 39.1216 70.1961 37.8259 69.4606 36.5414C69.0806 35.8766 68.3772 35.7328 67.7587 35.9194C66.4305 36.3206 65.1006 36.7485 63.8971 37.4788C63.4063 37.775 63.334 38.2087 63.5156 38.6606C64.1275 40.1968 64.9587 41.6247 65.862 43.0057C66.1691 43.4756 66.6824 43.5575 67.2186 43.3481C67.8684 43.0949 68.5218 42.8451 69.1724 42.594L69.1695 42.5927Z" fill="#F2E4FE"/>
<path d="M46.604 34.5681C47.4665 36.2306 48.3235 37.8977 49.1934 39.555C50.4555 41.9578 51.7259 44.3575 52.9983 46.7563C54.3261 49.2619 55.6614 51.7622 56.9926 54.2641C57.0197 53.492 56.4631 52.9476 56.1661 52.3196C55.3079 50.5082 54.3257 48.7566 53.3811 46.9858C52.5157 45.3647 51.6304 43.7537 50.7704 42.1281C50.088 40.8397 49.4391 39.5337 48.765 38.2422C48.18 37.1202 47.5848 36.0023 46.9779 34.8912C46.9043 34.7559 46.7322 34.6728 46.6032 34.566L46.604 34.5681Z" fill="#F9F4FE"/>
<path d="M57.1082 54.5397C58.2223 56.6391 59.3363 58.7384 60.4504 60.8377C60.5462 60.6678 60.4791 60.5063 60.4015 60.3606C59.5734 58.8177 58.7656 57.2598 57.889 55.745C57.6535 55.3377 57.7174 54.7103 57.1082 54.5397Z" fill="#F9F4FE"/>
<path d="M61.1206 62.1377C61.9673 63.7779 62.7031 65.4751 63.7596 67.0011C63.737 66.3526 63.337 65.845 63.0224 65.3495C62.4815 64.4953 62.1312 63.5509 61.622 62.6868C61.4895 62.4604 61.449 62.1771 61.1226 62.1369L61.1206 62.1377Z" fill="#F9F4FE"/>
<path d="M44.9523 31.4827C45.4822 32.4621 46.013 33.4436 46.5429 34.4231C46.2522 33.3133 45.7496 32.3186 44.9523 31.4827Z" fill="#F9F4FE"/>
<path d="M65.276 68.397C65.6073 68.5729 67.546 68.9848 67.9168 68.9555C66.7795 68.7325 66.3236 68.5906 65.276 68.397Z" fill="#F9F4FE"/>
<path d="M64.2721 67.5841C64.4347 67.8393 64.6528 68.0232 64.941 68.1184C64.7964 67.842 64.6067 67.621 64.2721 67.5841Z" fill="#F9F4FE"/>
<path d="M60.5119 60.9778C60.5679 61.1104 60.6259 61.2422 60.6818 61.3749C60.7486 61.3633 60.814 61.3547 60.8808 61.3432C60.8451 61.1339 60.6741 61.0599 60.5111 60.9757L60.5119 60.9778Z" fill="#F9F4FE"/>
<path d="M61.5193 50.3716C61.7573 50.816 62.1319 51.1104 62.5637 51.3376C63.2937 51.7225 64.0948 51.9045 64.887 52.1064C65.0764 52.1543 65.2457 52.1934 65.3544 51.9402C65.6485 51.2573 66.0223 50.6028 66.1125 49.8467C66.2121 49.0229 65.9152 48.4873 65.2277 48.2307C64.5152 47.9648 63.9914 48.1385 63.5696 48.9087C63.3267 49.3489 63.0967 49.0604 62.8547 49.0115C62.4294 48.9241 62.0313 48.9378 61.7274 49.2876C61.4547 49.6017 61.4119 49.9765 61.5193 50.3716Z" fill="#E56990"/>
<path d="M69.5968 38.3464C69.3018 37.4898 68.8441 37.1896 68.2055 37.1703C67.6301 37.1551 67.2357 37.4427 67.0949 38C67.0102 38.334 66.8637 38.3479 66.5826 38.2405C66.0068 38.0214 65.4669 38.0613 65.1634 38.6768C64.8625 39.2865 65.0943 39.7949 65.5926 40.2005C66.4662 40.9144 67.5541 41.071 68.5955 41.3405C68.6713 41.3587 68.8239 41.3236 68.8434 41.2757C69.241 40.2586 69.8444 39.283 69.5947 38.3472L69.5968 38.3464Z" fill="#E56990"/>
<path d="M96.8341 37.4593C96.5391 36.6027 96.0814 36.3025 95.4428 36.2832C94.8674 36.2681 94.473 36.5556 94.3322 37.1129C94.2475 37.447 94.101 37.4608 93.8199 37.3534C93.2441 37.1343 92.7042 37.1743 92.4007 37.7897C92.0998 38.3994 92.3316 38.9078 92.8299 39.3134C93.7035 40.0273 94.7914 40.1839 95.8328 40.4535C95.9086 40.4716 96.0612 40.4365 96.0807 40.3886C96.4783 39.3715 97.0817 38.3959 96.832 37.4601L96.8341 37.4593Z" fill="#E56990"/>
<path d="M93.2472 48.909C92.9521 48.0525 92.4945 47.7522 91.8559 47.7329C91.2805 47.7178 90.886 48.0053 90.7452 48.5627C90.6606 48.8967 90.5141 48.9105 90.2329 48.8031C89.6572 48.584 89.1173 48.624 88.8138 49.2394C88.5129 49.8491 88.7447 50.3575 89.243 50.7631C90.1166 51.477 91.2045 51.6337 92.2459 51.9032C92.3217 51.9214 92.4743 51.8862 92.4938 51.8383C92.8913 50.8212 93.4948 49.8456 93.2451 48.9098L93.2472 48.909Z" fill="#E56990"/>
<path d="M75.0425 9.67713C75.0425 9.67713 73.7549 6.2615 75.7892 5.50709C77.4559 4.89458 78.9423 6.16923 79.4807 8.60935C79.6087 9.5494 80.2366 11.1578 78.5172 12.4882C78.0556 12.6142 77.4446 12.1501 77.6695 11.4724C78.0532 10.985 78.7891 10.2786 78.2836 8.74164C78.034 8.03361 77.6917 6.43365 76.668 6.46814C75.5437 6.73367 75.7252 7.52966 76.3209 9.15283L75.0425 9.67713Z" fill="#3C2774"/>
<path d="M48.1167 20.0751C48.1167 20.0751 46.8291 16.6595 48.8635 15.9051C50.5302 15.2926 52.0165 16.5672 52.555 19.0074C52.6829 19.9474 53.3108 21.5558 51.5914 22.8862C51.1298 23.0122 50.5188 22.5481 50.7437 21.8704C51.7339 21.3743 51.6537 20.6745 51.5028 19.964C51.3904 19.4331 51.222 18.9168 51.0102 18.4173C50.551 17.3322 50.5924 16.837 49.7422 16.8661C48.6179 17.1317 48.7994 17.9277 49.3951 19.5508L48.1167 20.0751Z" fill="#3C2774"/>
</g>
<defs>
<clipPath id="clip0_210_2">
<rect width="126" height="129" fill="white" transform="matrix(-1 0 0 1 237 50.8159)"/>
</clipPath>
<clipPath id="clip1_210_2">
<rect width="77" height="79" fill="white" transform="translate(21.8584 84.8159) rotate(16.0625)"/>
</clipPath>
<clipPath id="clip2_210_2">
<rect width="55.1699" height="56.6029" fill="white" transform="matrix(-0.932911 0.360106 0.360106 0.932911 90.0557 0)"/>
</clipPath>
</defs>
</svg>
