<svg width="103" height="83" viewBox="0 0 103 83" fill="none" xmlns="http://www.w3.org/2000/svg">
<g clip-path="url(#clip0_153_9794)">
<path d="M92.6336 33.7373C95.009 34.0111 97.2514 34.6057 98.9902 36.3742C100.195 37.5998 100.766 39.1357 101.144 40.7597C101.826 43.6951 102.363 46.654 102.664 49.6552C102.898 51.9878 103.039 54.3251 102.99 56.6647C102.905 60.7482 102.542 64.8012 101.243 68.7166C100.652 70.4992 99.8537 72.1761 98.5864 73.6003C97.0412 75.336 95.0434 76.269 92.8058 76.7637C91.0836 77.1445 89.3317 77.2514 87.5739 77.3313C85.9847 77.4042 84.3956 77.4335 82.8064 77.3959C78.6173 77.2972 74.4579 76.9447 70.3662 75.994C70.3366 75.987 70.3092 75.9682 70.2819 75.9552C70.1667 75.7202 70.289 75.5416 70.4244 75.3665C71.124 75.2079 71.2653 74.7167 71.3271 74.0763C71.5718 71.5627 71.8545 69.0527 72.1086 66.5403C72.2607 65.0385 72.4412 63.5403 72.6158 62.0408C72.6574 61.6871 72.6431 61.3334 72.6657 60.9797C72.693 60.5473 72.7832 60.4615 73.2144 60.5073C74.9318 60.6918 76.6505 60.8728 78.3715 61.0279C80.4025 61.2112 82.4311 61.4451 84.4739 61.3522C85.613 61.3005 86.7365 61.1278 87.7841 60.6331C88.6785 60.2112 89.3602 59.5449 89.979 58.8034C90.4767 58.6894 90.9221 58.8927 91.3698 59.0455C92.0587 59.2805 92.687 59.6495 93.3652 59.9409C93.2785 59.7353 93.1063 59.6048 92.9234 59.4909C92.301 59.1054 91.6264 58.8434 90.9138 58.6683C90.6845 58.6119 90.403 58.6142 90.3104 58.3158C90.6133 57.5543 90.7035 56.7247 91.0634 55.9808C91.7309 55.8257 92.4103 55.801 93.0932 55.8069C93.4151 55.8104 93.7393 55.8328 94.1265 55.7634C93.9614 55.6001 93.8094 55.6201 93.6716 55.6212C92.9436 55.6236 92.2131 55.5742 91.4922 55.7246C91.3283 55.7587 91.1537 55.7916 91.0016 55.6694C90.8259 55.3157 90.8995 54.9467 90.9304 54.5813C91.0195 53.8598 90.8769 53.1441 90.8532 52.4261C90.8425 52.1053 90.795 51.7845 90.8104 51.4614C90.8223 51.1253 91.0468 50.9913 91.3354 50.8973C92.0338 50.6693 92.6894 50.345 93.3153 49.9655C94.0279 49.5318 94.452 48.9055 94.6396 48.0912C94.895 46.9889 94.8356 45.882 94.7168 44.7832C94.4318 42.1475 94.0469 39.5258 93.4519 36.9371C93.2512 36.064 93.0124 35.2038 92.7167 34.3577C92.6478 34.1603 92.529 33.9605 92.6336 33.7361V33.7373Z" fill="#E56990"/>
<path d="M7.9434 36.9735C8.10849 36.0405 8.40067 35.138 8.63703 34.2226C8.86626 33.3331 9.3936 32.6092 9.97796 31.9253C11.1859 30.5116 12.7584 29.6221 14.4628 28.9311C14.5792 28.8841 14.6968 28.8418 14.8227 28.8982C15.1802 29.2672 15.3868 29.7419 15.717 30.1321C16.6684 31.2566 17.8288 32.0393 19.3122 32.279C20.4441 32.4623 21.6782 31.8748 21.696 30.3553C21.6984 30.1285 21.6497 29.8912 21.7839 29.6797C21.8088 29.6609 21.8397 29.635 21.8646 29.6421C22.8671 29.9088 23.8291 30.2555 24.6059 30.977C26.5015 32.6715 26.8649 35.0405 27.4243 37.312C28.0051 39.6669 28.3567 42.0688 28.8318 44.446C29.1109 45.8409 29.852 47.0407 30.4981 48.2804C30.8046 48.8668 31.1336 49.4414 31.4531 50.0219C31.3664 50.1324 31.2369 50.1523 31.1146 50.1418C30.1454 50.0583 29.232 50.3321 28.3116 50.5624C28.1904 50.593 28.0716 50.6365 27.9481 50.6494C26.3388 50.8151 25.7651 51.9808 25.334 53.2863C25.3197 53.331 25.3031 53.3733 25.2805 53.4144C25.0596 53.7094 24.7377 53.6929 24.4289 53.6635C21.9026 53.4285 19.3764 53.2029 16.8893 52.6776C16.3703 52.5683 15.8536 52.4461 15.3571 52.2675C14.8832 52.0971 14.4355 52.0819 13.9461 52.2029C11.5588 52.7893 9.143 53.2687 6.8317 54.1289C6.72956 54.1665 6.62385 54.1947 6.5122 54.1947C6.16183 54.1641 6.16183 53.9009 6.14639 53.6518C6.10007 52.9103 6.20102 52.1747 6.2711 51.4414C6.53833 48.6388 6.80201 45.835 7.09062 43.0335C7.27947 41.1969 7.46238 39.3578 7.73555 37.5305C7.76524 37.3296 7.80681 37.1369 7.9434 36.9771V36.9735Z" fill="#E56990"/>
<path d="M91.0337 54.566C91.0432 54.9326 91.0527 55.2981 91.0622 55.6647C91.1489 55.794 91.1418 55.9209 91.0539 56.0466C90.934 56.848 90.7142 57.6201 90.3722 58.3581C90.3425 58.5437 90.3092 58.7282 90.1049 58.8152C88.9279 60.4979 87.2437 61.2394 85.2377 61.4262C83.2565 61.6107 81.2909 61.4368 79.3228 61.2488C77.6517 61.0902 75.9818 60.9268 74.3119 60.7623C73.9104 60.7224 73.5042 60.6953 73.1099 60.6131C72.8296 60.5543 72.8011 60.6542 72.7975 60.8857C72.7726 62.72 72.4483 64.5262 72.2642 66.3452C72.0968 67.9974 71.9352 69.6496 71.7666 71.3018C71.6431 72.5098 71.5112 73.7167 71.3901 74.9247C71.3711 75.1092 71.2713 75.1973 71.111 75.2467C70.8912 75.3148 70.6703 75.3841 70.4506 75.4535C69.8104 75.8307 69.0776 75.8048 68.3792 75.8648C67.5644 75.9341 66.739 75.927 65.923 75.7943C65.7354 75.7637 65.556 75.7355 65.423 75.5863C65.284 75.5216 65.1462 75.457 65.0073 75.3924C64.8339 74.6227 64.86 73.8342 64.8089 73.0551C64.721 71.7225 64.6331 70.3899 64.5571 69.0562C64.4871 67.8306 64.4039 66.6049 64.3398 65.3793C64.2555 63.7389 64.1212 62.0972 64.1129 60.4556C64.107 59.0608 64.1688 57.6553 64.4099 56.2746C64.8006 54.0384 66.119 52.5519 68.2165 51.6658C69.9494 50.9337 71.7903 50.734 73.6206 50.4614C74.0066 50.4038 74.3902 50.3462 74.7668 50.2475C74.9663 50.1946 75.1634 50.1605 75.3511 50.278C75.5791 50.5424 75.3285 50.6658 75.1718 50.7786C74.7086 51.1124 74.2976 51.5001 73.9116 51.915C73.7002 52.1429 73.5577 52.392 73.8463 52.6694C73.8724 52.7046 73.8914 52.7434 73.9068 52.7845C73.9449 53.0854 74.0886 53.2487 74.4176 53.1688C74.528 53.157 74.6361 53.1629 74.7382 53.2087C74.9699 53.4402 75.2288 53.6024 75.5792 53.5378C75.6777 53.5378 75.7704 53.5554 75.8595 53.5965C76.1421 53.7751 76.4426 53.7904 76.7586 53.6999C76.9236 53.6529 77.0994 53.6365 77.2562 53.5707C78.286 53.1429 79.3573 53.0454 80.4595 53.13C80.9156 53.1653 81.3562 53.0548 81.7921 52.9232C83.0487 52.5425 84.3552 52.4308 85.6462 52.2346C87.3506 52.7822 89.0158 53.4308 90.6216 54.2229C90.7843 54.3028 90.9779 54.358 91.0337 54.5672V54.566Z" fill="#55408B"/>
<path d="M6.54904 54.1148C8.16909 53.4297 9.88177 53.0478 11.5802 52.6212C12.5411 52.3803 13.5102 52.1664 14.4711 51.9232C14.6303 51.8832 14.7467 51.9396 14.8714 51.9819C16.8074 52.6377 18.8205 52.9173 20.8385 53.1629C21.9941 53.3039 23.1533 53.4026 24.3113 53.519C24.6463 53.5531 24.9907 53.6224 25.2615 53.3321C26.4195 53.6764 27.5217 53.2146 28.6477 53.1006C30.3485 53.6153 31.4341 55.0548 31.4911 56.8116C31.5505 58.6272 31.2464 60.4004 30.9341 62.176C30.2915 65.8317 29.485 69.4569 28.8342 73.1103C28.7772 73.43 28.7653 73.7531 28.7178 74.0727C28.662 74.2819 28.6774 74.5005 28.637 74.7132C28.4767 75.5404 28.251 75.752 27.3816 75.8754C26.0846 76.0587 24.7936 76.0164 23.5061 75.7802C23.2602 75.7355 23.0215 75.6779 22.841 75.4876C22.2317 75.2749 22.0654 74.8366 22.0796 74.2232C22.1449 71.4699 22.3041 68.7237 22.5262 65.9798C22.6046 65.015 22.6794 64.0491 22.7554 63.0843C22.7412 62.458 22.7614 61.834 22.8481 61.2124C22.8742 61.0232 22.7756 60.9257 22.5868 60.9069C22.4466 60.8928 22.3065 60.8951 22.1663 60.8951C20.7636 60.8951 19.3621 60.8986 17.9594 60.8951C15.7788 60.8892 13.6029 60.7717 11.4377 60.5062C10.5683 60.4004 9.71312 60.2206 8.93041 59.8105C7.23673 58.9245 6.36851 57.5296 6.33169 55.6342C6.32575 55.3263 6.32337 55.0172 6.33763 54.7094C6.34713 54.492 6.37326 54.2769 6.54667 54.1148H6.54904Z" fill="#55408B"/>
<path d="M73.4211 49.9266C73.4318 48.5565 73.6064 47.198 73.6979 45.8326C73.7798 44.6175 73.7157 43.413 73.2691 42.2567C72.6254 40.856 72.0054 39.4611 71.9009 37.8818C71.8118 36.521 72.1657 35.259 72.5351 33.9852C72.9437 32.575 73.4556 31.2037 74.0839 29.8746C74.1373 29.7607 74.211 29.6643 74.2858 29.5656C75.2289 29.1296 76.1588 28.6608 77.1898 28.4504C77.261 28.5562 77.21 28.6572 77.1791 28.7595C76.4617 31.1261 78.3371 32.0227 79.95 31.8265C81.2886 31.6643 82.3884 30.9992 83.3742 30.159C84.1486 29.4986 84.8909 28.7888 85.4052 27.8887C85.5762 27.7865 85.7354 27.8617 85.8969 27.9181C86.6036 28.166 87.2723 28.4974 87.9339 28.8417C88.0978 28.9275 88.2735 29.0133 88.27 29.2424C87.8804 30.1637 87.4552 31.0732 87.2153 32.0486C86.8922 33.3671 86.6725 34.6996 86.8281 36.0639C86.9053 37.1603 87.2189 38.2108 87.4813 39.2684C88.0075 41.3895 88.5111 43.5141 88.9707 45.6504C89.0028 45.8008 89.0503 45.9489 89.0432 46.104C89.0135 46.3038 88.8484 46.3661 88.6928 46.4389C86.5098 47.4636 84.3612 48.5553 82.2067 49.6364C81.5487 49.9666 80.918 50.0218 80.2232 49.8455C79.5165 49.6658 78.811 49.4777 78.0592 49.5847C77.4641 49.6693 76.9083 49.8491 76.3667 50.0911C76.1386 50.1934 75.9165 50.305 75.6612 50.3262C75.2835 50.2451 74.901 50.2004 74.5138 50.2122C74.2941 50.137 74.0649 50.1499 73.838 50.1475C73.7074 50.144 73.5767 50.1405 73.4627 50.0641C73.4211 50.0265 73.4069 49.9795 73.42 49.9243L73.4211 49.9266Z" fill="#FFC446"/>
<path d="M71.4103 16.9462C70.3544 16.6231 69.3247 16.2294 68.4351 15.5773C67.8186 15.126 67.2367 14.9439 66.429 15.0167C64.6379 15.1777 62.873 14.9239 61.2031 14.1836C59.6804 13.5091 58.3941 12.5502 57.4914 11.153C56.8774 10.2023 56.4866 9.17645 56.4011 8.01193C56.2693 6.21989 56.7313 4.62057 57.8585 3.2551C59.102 1.74862 60.7422 0.810883 62.6604 0.338491C63.6153 0.10347 64.5976 -0.0199159 65.5572 0.00123597C68.2949 0.0611663 70.845 0.735676 72.8391 2.74981C75.2941 5.23045 75.4782 9.06599 73.1242 11.73C72.2227 12.7511 71.2036 13.6031 69.9304 14.126C69.6501 14.2412 69.8021 14.3798 69.8639 14.5244C70.2452 15.408 70.7927 16.1871 71.4091 16.9451L71.4103 16.9462Z" fill="#E6D5F8"/>
<path d="M73.8177 50.0394C74.0505 50.0171 74.2798 50.0347 74.5031 50.1076C74.0339 50.4026 73.4899 50.3685 72.9733 50.4225C71.0729 50.6199 69.2272 50.9901 67.5015 51.8538C65.5584 52.8268 64.5179 54.4038 64.2412 56.4978C64.0998 57.5636 64.0226 58.64 64.0464 59.7164C64.0571 60.183 63.7613 60.5543 63.7281 60.9985C63.7198 61.1019 63.6414 61.2006 63.7103 61.3087C62.6247 65.7576 61.3218 70.1478 60.0675 74.5521C59.9321 75.0269 59.5841 74.9881 59.2421 75.0339C58.6233 75.2631 57.9783 75.1526 57.3512 75.1279C56.4676 75.0939 55.5851 74.9904 54.7204 74.786C54.5221 74.739 54.3249 74.6967 54.186 74.5322C53.6788 74.3923 53.5541 74.0621 53.6052 73.5627C53.7928 71.7566 53.9235 69.9445 54.1206 68.1396C54.3321 66.1983 54.5613 64.2582 54.8392 62.3263C55.262 59.3933 55.7419 56.4708 56.7847 53.6693C57.5496 51.6141 59.0687 50.5565 61.2161 50.3085C61.9572 50.2228 62.6983 50.1264 63.4478 50.1323C64.3006 50.2416 65.1522 50.1229 66.0026 50.1064C67.6939 50.0735 69.3852 50.0195 71.0765 50.0253C71.9898 50.0289 72.9044 50.0206 73.8177 50.0394Z" fill="#55408B"/>
<path d="M6.54912 54.1147C6.38046 55.2875 6.34958 56.4532 6.8793 57.5554C7.7012 59.2652 9.18704 60.0231 10.9912 60.2958C14.66 60.8492 18.3574 60.7541 22.05 60.7517C22.2994 60.7517 22.5489 60.7541 22.7983 60.7411C22.9847 60.7317 23.0501 60.8022 23.0263 60.9832C22.9337 61.6836 22.847 62.3839 22.7579 63.0843C22.8102 62.7435 22.6795 62.6824 22.3291 62.6883C20.6592 62.7188 18.9869 62.7047 17.3158 62.7059C17.2896 62.7106 17.2635 62.7153 17.2374 62.7212C16.6554 62.7435 16.0734 62.7423 15.4914 62.7212C15.4083 62.7083 15.3382 62.6707 15.2777 62.6131C14.1137 62.5931 12.9759 62.3604 11.8297 62.1994C10.4852 62.0103 9.14309 61.8023 7.79028 61.6789C7.31401 61.6354 6.8413 61.5614 6.3674 61.5014C5.98614 61.6836 5.62389 61.4897 5.25807 61.4356C4.94333 61.3886 4.65709 61.2124 4.3269 61.2265C4.3364 61.0514 4.24614 60.9538 4.09173 60.8704C2.38142 59.9432 1.63316 58.4203 1.42175 56.5836C1.22102 54.8351 1.03336 53.0853 0.865895 51.3344C0.747123 50.0841 0.680611 48.8279 0.572529 47.5764C0.463259 46.3109 0.286289 45.0488 0.224528 43.782C0.15564 42.3719 -0.0700263 40.9665 0.0190525 39.5505C0.104568 38.1874 1.12838 37.1815 2.63441 36.9852C4.27821 36.7713 5.93151 36.93 7.58006 36.8924C7.70002 36.89 7.82117 36.9441 7.94112 36.9723C7.71071 38.9077 7.46841 40.8431 7.25225 42.7797C7.09666 44.1839 6.97551 45.5929 6.84011 46.9995C6.70115 48.4366 6.55506 49.8738 6.42916 51.3121C6.3579 52.1229 6.32227 52.9384 6.27001 53.7504C6.25694 53.9514 6.26763 54.1312 6.54674 54.1124L6.54912 54.1147Z" fill="#E6D5F8"/>
<path d="M88.2438 29.1967C87.3792 28.6174 86.4183 28.2366 85.4432 27.8865C85.1439 27.9241 84.917 27.8159 84.765 27.5574C84.4289 26.7125 84.5536 25.8394 84.632 24.9534C84.3018 24.9569 84.0654 25.1837 83.7685 25.1931C83.563 25.1602 83.544 24.9957 83.5393 24.8429C83.5274 24.4728 83.4621 24.1073 83.4158 23.7419C83.3671 23.3552 83.5025 23.1919 83.8659 23.0814C84.7686 22.8053 85.3541 22.213 85.5489 21.2777C85.6 21.0309 85.5952 20.7865 85.5097 20.5479C85.3505 20.1061 85.1083 19.7371 84.5963 19.6537C84.1296 19.5785 83.7911 19.8158 83.5001 20.1437C83.3766 20.2835 83.2863 20.4457 83.1948 20.6079C82.9799 20.9886 82.8528 20.9898 82.6319 20.6043C82.3183 20.0556 82.0796 19.4704 81.6864 18.9604C80.956 18.0144 79.9797 17.3422 79.0746 16.5925C78.5829 16.1848 78.1197 15.7511 77.6969 15.2788C77.4641 15.0179 77.2266 14.9685 76.9094 15.0614C75.9723 15.3352 75.2977 15.9004 74.8796 16.7758C74.8119 16.918 74.8416 17.1566 74.5791 17.1542C74.2929 14.6289 76.1422 12.952 77.9891 12.2059C80.2683 11.2846 82.5143 11.2916 84.632 12.7111C84.7579 12.7958 84.8541 12.8862 84.98 12.6571C86.0002 10.7981 88.7023 10.5642 90.3247 12.4949C91.3426 13.7065 91.693 15.1542 91.7844 16.6771C91.8818 18.2964 91.6716 19.904 91.4732 21.5056C91.4055 22.0485 91.4863 22.5397 91.6561 23.0368C92.13 24.4234 92.6894 25.7865 92.9507 27.2354C93.2714 29.0146 93.0683 30.6644 91.6823 32.0028C91.4994 32.0275 91.396 31.8983 91.2939 31.7901C90.4316 30.8818 89.4969 30.0604 88.4232 29.4C88.3448 29.3518 88.2735 29.2895 88.2426 29.1967H88.2438Z" fill="#11051D"/>
<path d="M88.2438 29.1967C89.4529 29.87 90.5041 30.7337 91.4198 31.7619C91.4982 31.85 91.5409 31.9817 91.6835 32.0016C91.9994 32.5798 92.3165 33.1591 92.6324 33.7373C93.3712 35.6339 93.7584 37.6186 94.1254 39.6081C94.439 41.3085 94.6694 43.0206 94.8523 44.7362C94.9711 45.8585 95.0364 46.9936 94.781 48.1217C94.5577 49.1065 93.9864 49.8021 93.0968 50.2522C92.4899 50.5589 91.8984 50.9044 91.2226 51.0583C91.0385 51.1006 90.9198 51.2099 90.9328 51.4155C90.181 51.4461 89.4957 51.7681 88.7664 51.902C88.1892 52.0078 87.612 52.1241 87.043 52.2722C86.6012 52.3862 86.157 52.3732 85.7104 52.3345C84.3564 52.5965 82.9644 52.6564 81.6437 53.0948C81.1496 53.2581 80.6353 53.3028 80.1222 53.244C79.254 53.1453 78.4321 53.3063 77.6185 53.5871C77.2681 53.7082 76.9047 53.8069 76.5401 53.875C76.2693 53.9256 75.9735 53.9514 75.8025 53.6424C75.8251 53.4273 75.9925 53.331 76.1541 53.2428C76.8952 52.8421 77.666 52.5166 78.4903 52.3321C77.4047 52.5495 76.3928 52.9349 75.5186 53.6318C75.1659 53.7046 74.8832 53.6283 74.7335 53.271C74.7383 52.9596 74.9925 52.8327 75.2015 52.6905C76.0875 52.0842 77.065 51.6553 78.1744 51.2475C76.7123 51.6976 75.4687 52.3192 74.3962 53.2546C73.9497 53.3521 73.857 53.2722 73.8701 52.7986C74.0055 52.3885 74.3796 52.1923 74.6825 51.9408C75.5103 51.2522 76.4676 50.7833 77.4689 50.3521C76.0685 50.8785 74.8535 51.6506 73.8166 52.6964C73.3629 52.5848 73.528 52.291 73.661 52.0654C73.9045 51.6506 74.2905 51.3568 74.6528 51.0466C74.9081 50.8268 75.1742 50.6188 75.4355 50.4049C75.4391 50.2393 75.6125 50.2921 75.6849 50.2158C76.103 50.1394 76.4534 49.8996 76.8406 49.7492C77.9404 49.3227 79.0462 49.3497 80.1507 49.6928C80.8883 49.922 81.5475 49.8503 82.2459 49.4884C84.1985 48.4778 86.1843 47.5295 88.1512 46.5447C88.4267 46.4072 88.7439 46.3579 88.9814 46.1464C89.3603 46.0253 89.7522 46.164 90.1323 46.0864C90.1501 46.0665 90.1382 46.0394 90.0967 46.0418C89.2344 46.09 89.2035 46.0911 89.0111 45.1205C88.4232 42.1487 87.5811 39.2367 86.8566 36.2966C86.834 36.2073 86.8055 36.118 86.7271 36.0581C86.6487 35.9899 86.6452 35.8983 86.6428 35.8054C86.6012 33.5445 87.0692 31.3976 88.1049 29.3764C88.1393 29.3106 88.1975 29.2566 88.2438 29.1967Z" fill="#FFCDBA"/>
<path d="M14.8002 28.9441C12.1801 29.9123 9.96972 31.3577 8.79388 34.0052C8.75825 34.0851 8.68936 34.1498 8.63591 34.2215C7.96485 33.5763 7.33655 32.9006 6.97192 32.0275C6.7807 31.5704 6.6643 31.0992 6.64174 30.6045C6.59779 30.2602 6.59541 29.9159 6.64292 29.5704C6.71775 28.0169 7.33417 26.6973 8.40906 25.5762C8.51595 25.4646 8.61097 25.3388 8.72499 25.2354C10.1194 23.9769 10.4994 22.3165 10.6895 20.5526C10.9009 18.5832 11.2073 16.6172 12.401 14.9439C14.1885 12.4385 16.6684 11.4397 19.7221 11.7781C21.9942 12.0296 23.7235 13.2823 25.2604 14.824C26.1405 15.7065 26.144 16.8452 25.8994 17.9874C25.8424 18.2518 25.8234 18.5338 25.6595 18.7677C25.3993 18.743 25.429 18.5115 25.3768 18.3552C25.1286 17.6243 24.8851 16.8934 24.4195 16.26C24.3458 16.1601 24.2793 16.0567 24.195 15.965C23.6178 15.334 23.4586 15.341 23.0643 16.0778C22.3493 17.4151 21.3575 18.4903 20.0546 19.2882C19.3788 19.7007 18.741 20.1696 18.121 20.6596C17.6923 20.998 17.6317 20.9827 17.3383 20.535C17.2789 20.4445 17.2243 20.3493 17.1412 20.2777C16.7801 19.9674 16.3881 19.6725 15.8845 19.8605C15.3905 20.045 15.2313 20.4845 15.2016 20.9768C15.16 21.689 15.223 22.3623 15.818 22.877C16.0603 23.0862 16.3323 23.2166 16.6376 23.2977C16.862 23.3576 17.0604 23.4657 17.0533 23.7266C17.0117 25.2507 17.0331 26.7936 16.0021 28.0792C15.6874 28.4705 15.3774 28.8947 14.8014 28.9394L14.8002 28.9441Z" fill="#11051D"/>
<path d="M74.2869 29.5656C74.123 30.387 73.6301 31.0791 73.3676 31.8629C72.8712 33.3448 72.3129 34.816 72.0754 36.3612C71.8438 37.8724 72.1371 39.339 72.7322 40.7503C72.9389 41.2403 73.2584 41.6962 73.2702 42.2567C72.5742 43.5964 71.959 44.9795 71.1442 46.2556C70.5955 47.1158 70.0361 47.9689 69.1334 48.5259C68.1844 49.1123 67.2414 49.1111 66.2817 48.54C65.1522 47.869 64.392 46.8573 63.6865 45.802C62.0891 43.4119 60.7315 40.8842 59.3609 38.3648C59.1471 37.9723 58.9428 37.574 58.7231 37.185C58.6482 37.0534 58.5663 36.9053 58.4463 36.8207C56.6458 35.561 55.4236 33.7819 54.0957 32.0968C54.0672 32.0604 54.0458 32.0181 54.0185 31.9816C53.4496 31.2178 53.4496 31.1814 54.0114 30.5033C54.3356 30.8641 54.5221 31.3189 54.8523 31.6796C55.1326 31.9863 55.3844 32.3259 55.5922 32.689C55.7431 32.9534 55.9022 32.9476 56.1042 32.7466C56.4783 32.3741 56.7336 31.9064 57.1113 31.5351C57.2812 31.367 57.1387 31.1814 57.0139 31.0439C56.4735 30.4458 56.0139 29.7842 55.5222 29.1485C55.3868 28.9734 55.1754 28.8124 55.2989 28.5397C55.5471 28.2307 55.806 28.367 56.0234 28.555C56.5982 29.0497 57.1541 29.5668 57.7206 30.0721C58.3454 30.6279 58.9713 31.1837 59.6055 31.7302C59.7148 31.8242 59.8193 31.9534 60.0212 31.9581C60.0094 31.5163 59.8395 31.1203 59.7433 30.7102C59.6792 30.4387 59.7089 30.1955 59.9583 30.0686C60.2303 29.9311 60.4975 30.038 60.6389 30.2965C61.2339 31.3765 61.9097 32.4587 61.9228 33.7184C61.9335 34.8183 62.2922 35.7173 62.968 36.5481C64.392 38.2978 65.8031 40.0593 67.22 41.8149C67.2366 41.8349 67.2734 41.8408 67.3423 41.8713C67.7248 40.8513 68.1001 39.8325 68.4897 38.8196C69.3294 36.6362 70.0848 34.4153 71.2915 32.3894C72.0172 31.1708 72.9769 30.1837 74.2869 29.5668V29.5656Z" fill="#FFCDBA"/>
<path d="M84.8434 27.5609C84.9966 27.7548 85.2662 27.7384 85.4444 27.8853C85.3969 28.3494 85.0548 28.6514 84.7733 28.9605C83.9502 29.863 83.0666 30.7043 81.9644 31.2801C80.8835 31.8454 79.773 32.1744 78.5319 31.8266C77.0247 31.4047 76.6351 29.9687 77.0591 28.7443C77.0947 28.6432 77.147 28.548 77.1921 28.4493C77.4107 28.3635 77.628 28.2766 77.8466 28.1908C78.2528 27.87 78.7599 27.7384 79.2017 27.4857C79.6305 27.2401 80.0521 26.9922 80.3265 26.5069C79.602 26.897 78.8739 27.0686 78.0948 27.0133C77.9404 27.0028 77.7812 27.0169 77.6565 26.897C77.0995 26.7572 76.5508 26.6032 76.065 26.2777C75.255 25.7348 74.8594 24.931 74.6171 24.0368C73.9972 21.7465 74.0827 19.4492 74.5815 17.1518C74.8107 16.6689 75.0257 16.18 75.4141 15.7899C75.8631 15.3387 76.3975 15.0484 77.0152 14.8968C77.3275 14.8204 77.5484 14.8851 77.7717 15.1612C78.4083 15.9462 79.2053 16.569 80.0058 17.1824C81.1912 18.0919 82.1829 19.1519 82.7376 20.562C82.7791 20.6689 82.8029 20.8052 82.9347 20.8652C83.0404 20.6678 83.1331 20.4645 83.253 20.2765C83.6307 19.6865 84.2246 19.3998 84.7306 19.5514C85.2959 19.7195 85.6902 20.3 85.7021 20.9827C85.7199 21.9627 84.9325 22.9298 83.8564 23.2025C83.5654 23.2765 83.468 23.3529 83.5333 23.6737C83.6343 24.1613 83.5927 24.6725 83.7293 25.1602C83.9372 25.5127 83.8564 25.9146 83.911 26.2906C83.9811 26.7654 84.1118 27.159 84.6106 27.3388C84.7139 27.3764 84.7828 27.4681 84.8434 27.5598V27.5609Z" fill="#FFCDBA"/>
<path d="M36.8002 58.3604C36.666 60.6648 36.3358 62.948 36.0033 65.2301C35.527 68.4968 34.8441 71.7284 34.2573 74.9764C34.1861 75.3712 33.9794 75.5581 33.6255 75.6532C33.1017 75.8859 32.5411 75.9176 31.9876 75.8765C31.0315 75.8048 30.0647 75.7919 29.1323 75.5228C29.0254 75.4852 28.9304 75.43 28.8698 75.3313C28.5789 74.7531 28.6798 74.1503 28.8069 73.5674C29.3141 71.2313 29.7784 68.8882 30.2417 66.5438C30.7322 64.0632 31.2429 61.5861 31.541 59.0737C31.6491 58.1606 31.7607 57.2405 31.5921 56.3134C31.4448 55.5072 31.1669 54.7728 30.6122 54.1488C30.4828 54.0031 30.2512 53.8362 30.5303 53.613C30.8367 53.4837 31.0612 53.6976 31.3082 53.8033C31.6645 53.9561 32.0102 54.0572 32.3487 53.774C32.4104 53.7434 32.4758 53.7258 32.5435 53.7164C32.7988 53.7082 33.0577 53.7117 33.2513 53.5013C33.3178 53.4461 33.3903 53.4026 33.4687 53.3662C33.73 53.2816 33.7537 53.0912 33.7003 52.8644C33.7122 52.7575 33.6955 52.6318 33.8594 52.6235C34.0032 52.8574 34.2455 52.9678 34.4676 53.1053C35.5674 53.7845 36.4273 54.6518 36.7207 55.9526C36.767 56.1606 36.7777 56.3756 36.805 56.5872C36.8359 57.1782 36.8454 57.7693 36.799 58.3616L36.8002 58.3604Z" fill="#55408B"/>
<path d="M14.8002 28.944C16.1447 28.2131 16.6673 26.9851 16.8407 25.5703C16.9131 24.9757 16.8965 24.3717 16.9333 23.7724C16.9464 23.5503 16.8739 23.4692 16.6435 23.4116C15.2693 23.065 14.5911 21.508 15.2491 20.2541C15.5199 19.7382 15.9796 19.5632 16.5378 19.757C17.0865 19.9474 17.4405 20.3281 17.6566 20.8922C18.6876 19.9897 19.8705 19.327 20.9502 18.5244C21.987 17.7535 22.6332 16.6818 23.1843 15.556C23.341 15.2352 23.4515 15.2411 23.7069 15.415C24.3732 15.871 24.7936 16.5044 25.0834 17.2317C25.2865 17.7406 25.4671 18.2576 25.6583 18.7711C25.726 19.4574 25.7711 20.146 25.8638 20.8299C26.1262 22.7641 25.7533 24.6185 25.1689 26.4481C25.0787 26.7301 24.8981 26.9628 24.7057 27.1837C24.1095 27.9757 23.265 28.2072 22.3255 28.1802C22.0013 28.1708 21.683 28.0639 21.3777 27.9452C20.8326 27.7666 20.3005 27.5527 19.7838 27.2472C20.12 27.7043 20.4786 28.1073 20.9193 28.4352C21.0606 28.541 21.1545 28.6784 21.1735 28.8582C21.158 29.1497 21.272 29.3553 21.5559 29.4693C21.6664 29.5128 21.7863 29.5668 21.8208 29.7043C21.8231 30.3024 21.8695 30.9053 21.55 31.4564C21.0559 32.3083 19.9869 32.6374 18.8004 32.3013C16.9559 31.7784 15.6755 30.5997 14.8025 28.9464L14.8002 28.944Z" fill="#FFCDBA"/>
<path d="M37.0603 78.8766C37.6079 79.094 38.159 79.3008 38.7006 79.5311C39.3372 79.8026 39.5593 80.1257 39.4975 80.631C39.4453 81.0599 39.0735 81.3749 38.4547 81.4712C37.6993 81.5887 36.9356 81.6158 36.1731 81.5464C35.3845 81.4748 34.597 81.3866 33.8084 81.3079C33.4806 81.275 33.1813 81.2997 32.8903 81.5124C32.6123 81.7145 32.2537 81.7509 31.9092 81.7615C30.0671 81.8191 28.2439 81.6263 26.4255 81.3619C25.6119 81.2433 24.7984 81.1152 23.98 81.0282C22.3968 80.8602 21.968 80.3772 22.0987 78.8167C22.1331 78.4042 22.2139 77.9953 22.3517 77.6016C22.417 77.4148 22.4645 77.2009 22.7436 77.2338C23.8541 78.0235 25.0751 78.5969 26.3709 79.0141C27.5836 79.403 28.833 79.5488 30.1051 79.5076C30.1514 79.5064 30.1989 79.5076 30.2452 79.4982C30.3925 79.4688 30.5897 79.4876 30.6253 79.2985C30.655 79.141 30.4958 79.0646 30.3806 78.9906C29.9863 78.7391 29.5528 78.5617 29.1383 78.3466C28.9471 78.2479 28.7309 78.1762 28.6454 77.9471C28.6014 77.5805 28.5325 77.2056 28.9767 77.0082C29.0397 77.0141 29.0991 77.0329 29.1478 77.0716C30.8605 78.4395 32.9081 78.9095 35.0175 79.2091C35.5805 79.2891 36.1339 79.2127 36.6613 78.9871C36.7895 78.9318 36.9119 78.8601 37.0592 78.8754L37.0603 78.8766Z" fill="#E56990"/>
<path d="M4.32806 61.2277C4.39101 61.0702 4.48009 61.0491 4.64518 61.1184C5.19509 61.3475 5.78183 61.4286 6.36856 61.5038C5.43858 65.6061 4.52047 69.7108 3.57149 73.8083C3.17004 75.5416 2.70208 77.2608 2.265 78.9859C2.26143 79.0011 2.26025 79.0164 2.25549 79.0305C2.08328 79.6333 1.81604 79.8907 1.45497 79.8014C1.08916 79.7109 0.940692 79.3548 1.05471 78.7555C1.36946 77.0951 1.69964 75.4382 2.0132 73.7778C2.59756 70.6838 3.17598 67.5885 3.75083 64.4921C3.95274 63.4051 4.13684 62.3158 4.32806 61.2277Z" fill="#55408B"/>
<path d="M15.2787 62.6143C15.3334 62.6178 15.388 62.6201 15.4415 62.6237C15.913 62.6942 16.3881 62.6342 16.8596 62.6589C17.0057 62.6671 17.166 62.5978 17.2967 62.7212L17.3157 62.7071C17.3572 66.3393 17.3988 69.9716 17.4404 73.605C17.5081 74.135 17.4059 74.6697 17.495 75.1996C17.5283 76.7096 17.5615 78.2208 17.5936 79.7308C17.5972 79.8848 17.6138 80.0422 17.59 80.1926C17.5413 80.5064 17.3976 80.7438 17.0294 80.7637C16.6375 80.7849 16.4522 80.5511 16.3988 80.2185C16.3394 79.8542 16.3227 79.4829 16.3014 79.1139C16.1042 75.8694 15.9106 72.625 15.7134 69.3793C15.5923 67.3805 15.4676 65.3816 15.3512 63.3816C15.3358 63.1242 15.1766 62.8822 15.2787 62.6154V62.6143Z" fill="#55408B"/>
<path d="M58.7837 77.5793C58.988 78.1903 58.9844 78.8214 58.9452 79.4512C58.9036 80.1316 58.4677 80.4736 57.8454 80.6592C56.2063 81.1493 54.5328 81.4912 52.8451 81.7509C51.2678 81.993 49.6834 82.0118 48.1109 81.6745C47.9291 81.6357 47.7474 81.5911 47.5728 81.53C47.2058 81.4019 46.8744 81.2139 46.8305 80.7861C46.7901 80.3843 47.0086 80.0787 47.3103 79.8355C47.5918 79.6099 47.9315 79.4888 48.2641 79.3596C48.77 79.1622 49.2784 78.973 49.7855 78.7802C49.8782 78.7438 49.9768 78.7462 50.054 78.799C51.1668 79.5629 52.4021 79.4665 53.6456 79.2961C54.7074 79.1504 55.7574 78.9495 56.7859 78.6486C57.3739 78.4759 57.9273 78.2573 58.3502 77.7896C58.4582 77.6698 58.5794 77.5276 58.7837 77.5805V77.5793Z" fill="#E56990"/>
<path d="M70.453 78.2385C70.624 78.7532 70.6798 79.2902 70.7095 79.8249C70.7404 80.3713 70.5468 80.8261 69.9969 81.0552C68.0953 81.8496 66.1712 82.5746 64.1141 82.879C63.063 83.0341 62.0095 83.0447 60.9572 82.879C60.8954 82.8696 60.8336 82.8649 60.7743 82.8484C60.3146 82.7227 59.8383 82.5734 59.7398 82.0423C59.6471 81.5488 59.9714 81.1927 60.3384 80.9177C60.9678 80.4453 61.6223 80.0035 62.3076 79.6098C62.418 79.5851 62.5214 79.6122 62.6259 79.6474C65.227 80.5182 67.6119 80.007 69.8484 78.5393C70.0361 78.4159 70.1845 78.2079 70.453 78.2373V78.2385Z" fill="#E56990"/>
<path d="M58.7836 77.5793C57.7087 78.8108 56.1718 78.9541 54.7074 79.2538C54.0577 79.3866 53.3938 79.4747 52.731 79.5276C51.6692 79.6134 50.6585 79.4453 49.7843 78.7802C50.6893 78.2808 51.636 77.8566 52.522 77.3184C53.5802 76.6756 54.3297 75.8695 54.186 74.5322C55.8476 74.9412 57.5377 75.0528 59.2421 75.0352C59.0865 75.7003 58.9226 76.3642 58.7813 77.0328C58.7444 77.2079 58.7813 77.3971 58.7824 77.5793H58.7836Z" fill="#FFCDBA"/>
<path d="M70.453 78.2384C68.6607 79.752 66.5478 80.2819 64.2448 80.1762C63.5642 80.1456 62.8991 79.9788 62.3076 79.611C62.8825 79.148 63.468 78.6956 64.0298 78.2185C64.5809 77.7508 65.1451 77.2913 65.347 76.5428C65.4337 76.2231 65.3838 75.9035 65.4218 75.5851C67.1072 75.8859 68.7807 75.7519 70.4494 75.4523C70.3936 75.6203 70.3378 75.7872 70.282 75.9552C70.1893 76.7273 70.2891 77.4852 70.453 78.2373V78.2384Z" fill="#FFCDBA"/>
<path d="M33.3213 53.5449C33.1634 53.8915 32.8664 53.8281 32.579 53.7893C32.1134 53.4708 31.7821 52.9808 31.2357 52.7634C31.0362 52.6835 30.8592 52.5543 30.7167 52.519C31.3224 52.8175 32.0053 53.1218 32.3819 53.821C32.1954 54.1818 31.8854 54.1348 31.5837 54.0337C31.2488 53.9209 30.9269 53.774 30.5991 53.6412C30.4019 53.7364 30.238 53.6236 30.0706 53.5531C29.6133 53.3616 29.1596 53.1653 28.6477 53.1841C27.9196 53.3251 27.201 53.5155 26.4599 53.5848C26.0335 53.6248 25.6249 53.5825 25.2603 53.3333C25.1415 52.8257 25.4967 52.4708 25.7045 52.0819C25.8981 51.7199 26.176 51.4027 26.4195 51.0677C26.4801 50.9843 26.5217 50.8915 26.6499 50.8609C27.8911 50.5601 29.1038 50.1324 30.3877 50.0266C30.7392 49.9972 31.0956 50.0219 31.4507 50.0219C32.231 50.3592 32.8985 50.8492 33.4449 51.4943C33.6967 51.7916 33.9294 52.1007 33.8582 52.5261C33.5945 52.5413 33.4829 52.3263 33.3605 52.1676C33.0007 51.7 32.5719 51.3098 32.2417 51.0889C32.7275 51.3533 33.1349 51.9667 33.642 52.4779C33.7679 52.6048 33.6931 52.7752 33.7822 52.9009C33.9152 53.1923 33.8689 53.4003 33.5114 53.4591C32.9318 52.9056 32.408 52.2863 31.7559 51.9749C32.1122 52.1712 32.4852 52.5131 32.8664 52.8457C33.0802 53.0325 33.3522 53.1982 33.3202 53.546L33.3213 53.5449Z" fill="#FFCDBA"/>
<path d="M28.719 77.9612C29.1988 78.3055 29.7677 78.4865 30.2725 78.7849C30.516 78.9295 30.9198 79.0435 30.8295 79.3713C30.7476 79.671 30.3497 79.6228 30.0575 79.6334C27.6726 79.7215 25.5003 79.0329 23.4681 77.8507C23.1961 77.6921 22.8885 77.5499 22.7448 77.2338C22.9443 76.6615 22.7899 76.0693 22.841 75.4888C24.3446 75.8977 25.872 75.913 27.4101 75.7649C27.4968 75.8201 27.5301 75.9071 27.5313 75.9999C27.5408 76.8061 27.9565 77.3783 28.5931 77.8272C28.6441 77.8625 28.675 77.9177 28.719 77.9612Z" fill="#FFCDBA"/>
<path d="M37.0603 78.8766C36.457 79.3466 35.7467 79.4042 35.0282 79.3396C33.4402 79.1962 31.9401 78.7144 30.4875 78.0904C29.9174 77.846 29.3936 77.5158 28.9993 77.0223C28.8508 76.4676 28.915 75.9294 29.1252 75.403C30.6122 75.7191 32.1111 75.8013 33.6243 75.6533C33.4045 76.7214 33.882 77.3501 34.8631 77.7649C35.6173 78.0834 36.3679 78.43 37.0603 78.8777V78.8766Z" fill="#FFCDBA"/>
<path d="M75.6825 50.2158C75.6445 50.3368 75.5245 50.3521 75.4331 50.405C75.053 50.1582 74.7133 50.4367 74.3594 50.4896C72.8617 50.7128 71.3461 50.8492 69.8817 51.2393C68.479 51.613 67.144 52.1547 66.0846 53.1958C65.1273 54.1347 64.6391 55.3169 64.4918 56.6025C64.3125 58.1689 64.1723 59.7494 64.208 61.3276C64.2495 63.1972 64.3636 65.0667 64.4847 66.934C64.5536 67.9892 64.6118 69.0457 64.6712 70.1009C64.7674 71.813 64.923 73.5216 65.0584 75.2314C65.0631 75.2984 65.0631 75.3501 65.0073 75.3912C64.9016 75.3395 64.8493 75.2655 64.8422 75.1397C64.7852 74.0692 64.7294 72.9999 64.6581 71.9305C64.5702 70.6027 64.4443 69.2771 64.3849 67.9493C64.3564 67.2912 64.3208 66.6332 64.2864 65.9751C64.1901 64.129 64.1118 62.2806 63.9443 60.431C63.8659 60.7236 63.7875 61.0162 63.7103 61.3088C63.5096 61.035 63.6925 60.7553 63.7744 60.5297C63.8956 60.1959 63.8932 59.8716 63.9122 59.5367C63.9965 58.0267 63.9348 56.4979 64.4538 55.0384C64.9669 53.5966 65.9159 52.539 67.2806 51.8233C68.8389 51.0054 70.5064 50.5812 72.2476 50.3897C73.0006 50.3074 73.7501 50.2017 74.5019 50.1077C74.895 50.1441 75.2882 50.1805 75.6813 50.2158H75.6825Z" fill="#3D2268"/>
<path d="M21.8184 29.7031C21.7341 29.6643 21.6533 29.6103 21.5654 29.5915C21.145 29.5022 20.9644 29.2695 21.0844 28.8441C21.1046 28.4892 21.0155 28.1085 21.3445 27.8312C22.6047 28.3212 23.7069 28.018 24.7045 27.1825C25.0466 28.4575 25.226 29.7266 24.6036 30.9769C23.7081 30.4834 22.8125 29.9863 21.8184 29.7043V29.7031Z" fill="#1B1435"/>
<path d="M55.2989 28.5398C55.5982 29.1849 56.0947 29.6937 56.5092 30.259C56.7444 30.5798 57.0057 30.8818 57.261 31.1885C57.3656 31.3142 57.3965 31.4482 57.2682 31.5551C56.7895 31.9558 56.5282 32.5375 56.0626 32.95C55.875 33.1168 55.7241 33.1591 55.5828 32.9065C55.2669 32.3413 54.85 31.8489 54.4402 31.3506C54.2359 31.1015 54.0898 30.8183 54.0103 30.5057C53.9996 30.4446 53.9901 30.3824 53.9794 30.3213C54.1849 30.2578 54.2502 30.4317 54.3416 30.5422C54.7847 31.0768 55.1825 31.6479 55.6268 32.1814C55.7194 32.2931 55.799 32.5457 56.0104 32.3977C56.236 32.2402 56.1125 32.0616 55.9664 31.8924C55.451 31.2954 54.9866 30.6585 54.5542 30.0016C54.3773 29.7314 54.0756 29.5939 53.9141 29.3201C53.996 29.3118 54.078 29.3036 54.1587 29.2954C54.3535 28.9499 54.5127 29.1614 54.6635 29.333C55.1208 29.8559 55.4949 30.4423 55.9379 30.9781C56.0365 31.0968 56.1268 31.2226 56.2337 31.3342C56.3608 31.4658 56.4534 31.7467 56.7004 31.5575C56.9439 31.3694 56.7206 31.2085 56.5971 31.0616C56.1695 30.5539 55.774 30.0216 55.3904 29.4822C55.2918 29.3436 55.2158 29.192 55.1267 29.0474C55.0305 28.89 55.0555 28.7584 55.2004 28.6456C55.2336 28.6115 55.2657 28.5774 55.2989 28.5433V28.5398Z" fill="#FFB79C"/>
<path d="M55.2004 28.6408C55.0412 28.9464 55.3002 29.1449 55.4332 29.3353C55.862 29.9546 56.2872 30.5821 56.8228 31.1203C57.0556 31.3541 56.9796 31.5081 56.7729 31.6914C56.5449 31.8947 56.4083 31.7513 56.2776 31.5821C55.7218 30.8641 55.1695 30.1426 54.6137 29.4246C54.4996 29.2777 54.3904 29.0733 54.1611 29.2918C54.1611 29.1861 54.1706 29.0791 54.1611 28.9746C54.1374 28.7172 54.2419 28.5268 54.4688 28.4129C54.6814 28.3047 54.8524 28.4035 54.9997 28.5586C55.0543 28.6161 55.1161 28.6561 55.2016 28.6408H55.2004Z" fill="#FFCDBA"/>
<path d="M53.9152 29.3176C54.5601 29.5092 54.7312 30.1426 55.097 30.5867C55.4758 31.0462 55.7965 31.5515 56.2158 31.9816C56.4949 32.2683 56.1386 32.4199 56.0258 32.5809C55.8559 32.8218 55.8013 32.5433 55.7134 32.4505C55.0863 31.7795 54.6433 30.9628 53.9805 30.32C53.5969 29.8934 53.5814 29.6467 53.9152 29.3176Z" fill="#FFCDBA"/>
<path d="M77.6553 26.8981C78.6565 26.9533 79.6281 26.8652 80.5189 26.3235C79.9844 27.4516 78.8988 27.7994 77.8453 28.1919C77.7824 27.7606 77.7194 27.3294 77.6553 26.8981Z" fill="#FFB79C"/>
<path d="M73.8178 50.0394C73.6717 50.1746 73.4912 50.1146 73.3261 50.1158C71.3616 50.1217 69.3983 50.1229 67.4338 50.1205C66.2675 50.1205 65.1059 50.2815 63.9384 50.2122C63.7733 50.2028 63.5927 50.2686 63.4467 50.1323C63.8683 50.1217 64.2887 50.1123 64.7104 50.1017C65.0631 50.0206 65.4266 50.1264 65.7793 50.0418C66.6464 50.03 67.5146 50.0171 68.3816 50.0054C70.0741 49.9631 71.7666 49.9678 73.4579 50.003C73.5779 50.0148 73.6967 50.0277 73.8166 50.0394H73.8178Z" fill="#3D2268"/>
<path d="M33.7834 52.8985C33.2501 52.0854 32.5696 51.4097 31.7916 50.8092C32.1717 50.8926 32.4793 51.1006 32.743 51.358C33.1278 51.734 33.4889 52.1347 33.8606 52.5249C33.8606 52.5578 33.8606 52.5895 33.8606 52.6224C33.749 52.6905 33.7941 52.8022 33.7834 52.8985Z" fill="#FFB79C"/>
<path d="M73.4591 50.0031C71.7666 50.0031 70.0741 50.0054 68.3828 50.0054C69.0467 49.8915 69.7166 49.9479 70.3841 49.9385C71.396 49.9232 72.4092 49.9291 73.4223 49.9255C73.4401 49.949 73.4532 49.9737 73.4603 50.0019L73.4591 50.0031Z" fill="#8673A4"/>
<path d="M17.4951 75.1985C17.3846 74.6697 17.4226 74.1374 17.4404 73.6039C17.5426 74.1327 17.5212 74.665 17.4951 75.1985Z" fill="#A293B8"/>
<path d="M65.7805 50.0431C65.4313 50.1935 65.0691 50.1112 64.7115 50.103C65.0643 50.0243 65.4218 50.0278 65.7805 50.0431Z" fill="#533C7F"/>
<path d="M6.64288 29.5715C6.64288 29.9158 6.64288 30.2601 6.64169 30.6056C6.51935 30.2613 6.51698 29.917 6.64288 29.5715Z" fill="#9E99A7"/>
<path d="M85.7092 52.3356C86.5288 52.2064 87.3483 52.0889 88.1595 51.8973C88.8816 51.7269 89.6085 51.573 90.3223 51.3662C90.5112 51.3109 90.757 51.1159 90.9328 51.4179C90.9934 52.2769 91.0611 53.1347 91.1098 53.9937C91.1205 54.1829 91.1989 54.3944 91.0338 54.566C89.4577 53.7481 87.8127 53.0912 86.1356 52.5095C85.9907 52.459 85.8518 52.3932 85.7104 52.3356H85.7092Z" fill="#FFC446"/>
<path d="M90.1037 58.8151C90.1928 58.6624 90.2819 58.5108 90.371 58.358C91.1133 58.6542 91.9197 58.7787 92.6241 59.1818C92.8925 59.3357 93.1752 59.4709 93.3818 59.7059C93.4816 59.8199 93.7358 59.9056 93.5861 60.1031C93.4376 60.2993 93.2856 60.096 93.1478 60.0208C92.3592 59.5931 91.5694 59.17 90.6845 58.955C90.4909 58.908 90.2759 58.9409 90.1025 58.814L90.1037 58.8151Z" fill="#E55873"/>
<path d="M91.0527 56.0466C91.0551 55.9197 91.0575 55.7916 91.061 55.6647C91.9887 55.4426 92.9317 55.4802 93.8736 55.4861C93.9662 55.4861 94.0636 55.4861 94.1491 55.5131C94.2619 55.5496 94.4045 55.5848 94.3843 55.7493C94.3653 55.9009 94.2453 55.9421 94.1123 55.9444C93.8486 55.9479 93.5838 55.9609 93.3213 55.9444C92.5611 55.8974 91.8093 56.0337 91.0527 56.0466Z" fill="#E55973"/>
<path d="M26.2105 50.5801C25.834 50.7669 25.4872 50.5237 25.1606 50.4449C23.0773 49.9361 21.0499 49.2498 19.1353 48.2769C18.4726 47.9408 17.8538 47.5224 17.1958 47.1758C16.5069 46.8115 16.3145 46.1758 16.2076 45.4989C15.8821 43.4448 15.5757 41.3872 15.2633 39.3308C15.1244 38.4201 14.894 37.5305 14.6636 36.6398C14.6208 36.4729 14.5887 36.3131 14.6505 36.0522C14.9534 36.5387 15.0401 37.0299 15.1565 37.4941C15.5508 39.0546 15.8061 40.6399 16.0199 42.2345C16.1862 43.4777 16.4 44.7139 16.5853 45.9549C16.6732 46.5448 17.1079 46.828 17.5723 47.0935C19.4774 48.184 21.4846 49.0442 23.5821 49.7011C23.7151 49.7422 23.8541 49.7798 23.9729 49.848C24.2377 50.0019 24.4028 49.922 24.5109 49.66C24.6903 49.9032 24.9373 50.0278 25.2247 50.1241C25.5668 50.2381 25.9635 50.2546 26.2093 50.5789L26.2105 50.5801Z" fill="#D54F67"/>
<path d="M14.3821 51.815C14.1743 51.9431 14.0317 51.8174 13.8868 51.7492C12.8797 51.2803 12.1789 50.4977 11.6183 49.5706C10.4757 47.6787 9.99588 45.5693 9.56117 43.4471C9.24524 41.903 9.00295 40.3472 8.82004 38.7819C8.80578 38.6632 8.77966 38.5363 8.89249 38.3906C9.11459 38.7667 9.10628 39.1815 9.17041 39.5634C9.53504 41.7526 9.89373 43.943 10.5018 46.0817C10.9116 47.5212 11.4544 48.9113 12.3689 50.1264C12.869 50.7915 13.5412 51.2604 14.242 51.6928C14.2895 51.7222 14.3287 51.768 14.3809 51.815H14.3821Z" fill="#D44E67"/>
<path d="M24.5322 48.3439C24.2021 47.4778 24.3422 46.5847 24.3802 45.6987C24.4396 44.3027 25.0774 43.0712 25.5394 41.7891C26.1867 39.9924 26.087 38.1792 25.6131 36.3637C25.5062 35.9524 25.385 35.5458 25.2389 35.024C25.5442 35.2755 25.5477 35.547 25.638 35.7655C26.1167 36.9171 26.2877 38.1404 26.2794 39.3637C26.2711 40.4166 26.0703 41.4613 25.6083 42.4413C24.86 44.0254 24.4942 45.6881 24.6118 47.4484C24.632 47.7457 24.695 48.0618 24.5429 48.3521L24.5346 48.3427L24.5322 48.3439Z" fill="#D64F68"/>
<path d="M26.2105 50.58C25.7592 50.4249 25.3114 50.2545 24.853 50.1217C24.5964 50.0477 24.4978 49.9079 24.5121 49.6623C24.6166 49.2251 24.3244 48.7809 24.5335 48.345L24.5418 48.3544C24.8803 49.0876 25.4159 49.6728 25.9718 50.2451C26.0644 50.3403 26.2652 50.3779 26.2105 50.5812V50.58Z" fill="#FEFBFD"/>
<path d="M74.395 53.2558C74.4294 52.9256 74.7287 52.8269 74.9449 52.6729C75.8844 52.0043 76.907 51.4978 78.0235 51.1852C78.16 51.1465 78.2919 51.11 78.4605 51.1829C78.2717 51.3756 78.0235 51.4179 77.8037 51.5037C76.8476 51.8774 75.9176 52.3028 75.0839 52.9068C74.9485 53.0043 74.8475 53.15 74.7311 53.2722C74.6183 53.2663 74.5066 53.2616 74.3938 53.2558H74.395Z" fill="#FFB79C"/>
<path d="M73.8154 52.6976C74.129 52.1018 74.6848 51.7517 75.2193 51.3933C75.9141 50.9279 76.6339 50.5037 77.4487 50.264C77.5556 50.2323 77.6529 50.204 77.9142 50.2605C76.3583 50.9397 74.9711 51.6565 73.8689 52.7999C73.8511 52.7658 73.8332 52.7305 73.8154 52.6964V52.6976Z" fill="#FFB79C"/>
<path d="M75.5175 53.6341C75.7039 53.3403 75.9569 53.1276 76.2752 52.9784C77.0841 52.5977 77.9036 52.2534 78.8644 52.1735C78.7136 52.4813 78.4369 52.4543 78.2254 52.5213C77.3655 52.788 76.5151 53.0712 75.8013 53.6459C75.7063 53.6423 75.6125 53.6388 75.5175 53.6353V53.6341Z" fill="#FFB79C"/>
<path d="M28.649 53.1841C29.282 52.9103 29.769 53.3521 30.3118 53.519C30.4115 53.5496 30.5054 53.6001 30.6016 53.6412C30.4472 53.7505 30.4875 53.8363 30.6051 53.9608C31.6919 55.1183 31.8736 56.5085 31.7537 58.0232C31.471 61.5896 30.6336 65.0597 29.9638 68.5592C29.6276 70.3183 29.2773 72.0739 28.8746 73.8201C28.7618 74.3066 28.8319 74.8001 28.9114 75.289C28.6846 75.2866 28.6145 75.1139 28.6311 74.9529C28.6596 74.6685 28.5516 74.3877 28.6311 74.1057C28.6074 73.1021 28.8663 72.1374 29.0516 71.1644C29.6229 68.162 30.2262 65.1643 30.7928 62.1607C31.085 60.6131 31.3178 59.0596 31.3736 57.4768C31.446 55.405 30.6063 53.9644 28.6501 53.1829L28.649 53.1841Z" fill="#3D2267"/>
<path d="M28.6288 74.108C28.662 74.3783 28.7012 74.6474 28.7273 74.9177C28.7416 75.0693 28.7226 75.2267 28.9102 75.2902C28.9815 75.3278 29.054 75.3654 29.1252 75.403C29.0836 75.9424 29.0409 76.4829 28.9993 77.0223C28.6679 77.2655 28.7404 77.6275 28.719 77.9612C27.9304 77.6416 27.5361 77.0352 27.4303 76.222C27.4113 76.0716 27.4161 75.9177 27.4102 75.7661C28.3021 75.5828 28.4352 75.4371 28.5492 74.544C28.5682 74.3983 28.504 74.2349 28.6288 74.108Z" fill="#FEFEFE"/>
<path d="M86.7271 36.0581C86.9588 36.0699 86.9754 36.2532 87.0158 36.4153C87.7581 39.4048 88.6311 42.3625 89.1822 45.3967C89.2582 45.8162 89.4031 46.1088 89.9162 45.8855C89.9791 45.8585 90.0801 45.8655 90.1418 45.8973C90.2677 45.9619 90.5195 45.9078 90.4958 46.1135C90.478 46.2756 90.2665 46.2357 90.1335 46.2251C89.7487 46.1946 89.3544 46.3144 88.9802 46.1452C88.6691 44.8173 88.3626 43.4895 88.0467 42.1628C87.6809 40.6269 87.3103 39.091 86.9362 37.5575C86.8162 37.064 86.7153 36.5681 86.7271 36.0581Z" fill="#FFB79C"/>
<path d="M63.8754 11.3938C63.816 11.3903 63.6723 11.3116 63.5583 11.1717C62.7317 10.1506 61.8967 9.13527 61.0795 8.10705C60.8076 7.76509 60.8741 7.37848 61.2007 7.12819C61.5131 6.88847 61.9561 6.94487 62.2352 7.2833C62.7661 7.92726 63.3018 8.56887 63.8018 9.23633C64.031 9.54303 64.1367 9.49837 64.3683 9.23398C65.796 7.60528 67.2438 5.99539 68.6857 4.37844C68.7166 4.34436 68.7474 4.30911 68.7807 4.27621C69.1002 3.96598 69.5373 3.9366 69.8235 4.2057C70.1228 4.48773 70.1418 4.84378 69.8354 5.18926C68.0692 7.17989 66.2948 9.16347 64.5251 11.1506C64.3838 11.3092 64.2163 11.4056 63.8754 11.3962V11.3938Z" fill="#55408B"/>
<path d="M17.298 62.7213C16.6827 62.6378 16.0556 62.7671 15.4427 62.6237C16.0615 62.6449 16.6887 62.5191 17.298 62.7213Z" fill="#A78EC6"/>
<path d="M84.8434 27.5609C84.1806 27.3858 83.8006 27.0122 83.7946 26.2812C83.7923 25.9111 83.7174 25.5374 83.7293 25.1614C84.0749 25.0004 84.4217 24.8406 84.8481 24.642C84.6272 25.6573 84.5607 26.6138 84.8422 27.5621L84.8434 27.5609Z" fill="#FDFDFD"/>
<path d="M84.9016 12.9544C85.1487 12.8639 85.3268 13.0155 85.4978 13.1354C86.2877 13.6877 86.7723 14.4609 87.087 15.3469C87.1333 15.4762 87.2188 15.6912 87.049 15.7594C86.8506 15.8393 86.8031 15.6066 86.7604 15.4785C86.4551 14.576 85.8815 13.8686 85.1605 13.2611C85.0608 13.1765 84.9147 13.1189 84.9016 12.9544Z" fill="#FABA8E"/>
<path d="M67.2676 42.0042C67.6417 42.1828 67.7237 42.493 67.8519 42.7609C68.0372 43.1464 68.194 43.5435 68.3627 43.936C68.3947 44.0101 68.4102 44.0923 68.3401 44.1452C68.2866 44.1863 68.2154 44.1569 68.1809 44.1017C67.783 43.4636 67.3709 42.8302 67.2676 42.0042Z" fill="#FFB79C"/>
<path d="M78.9938 23.4045C78.6446 24.2612 78.0235 24.6325 77.2324 24.7536C76.654 24.8417 76.3476 24.5256 76.1694 23.6819C76.6433 23.8711 77.116 23.8746 77.5864 23.8382C78.0508 23.8029 78.4926 23.6654 78.9938 23.4057V23.4045Z" fill="#11051D"/>
<path d="M76.1682 22.1472C76.1884 22.0931 76.2146 21.9874 76.2633 21.8933C76.6208 21.1953 77.0092 20.5102 77.1137 19.7147C77.1255 19.623 77.1719 19.5208 77.2883 19.5455C77.4082 19.5713 77.3868 19.6935 77.3762 19.777C77.2989 20.3457 77.1149 20.8804 76.8464 21.388C76.7669 21.5385 76.711 21.703 76.6136 21.8405C76.369 22.1836 76.4497 22.3939 76.8476 22.5173C76.9308 22.5432 77.1077 22.5279 77.0483 22.6983C77.0068 22.8158 76.8892 22.817 76.7704 22.797C76.4248 22.7382 76.1564 22.4785 76.1671 22.1472H76.1682Z" fill="#11051D"/>
<path d="M79.6103 20.2235C79.5271 20.4985 79.5996 20.9274 79.2361 20.9403C78.8584 20.9532 78.8834 20.5549 78.8727 20.2646C78.8727 20.2494 78.8727 20.2341 78.8727 20.2188C78.8834 19.9544 78.8893 19.6183 79.2124 19.603C79.6079 19.5842 79.5093 19.9908 79.6091 20.2235H79.6103Z" fill="#11051D"/>
<path d="M79.1293 17.7523C79.5117 17.8252 79.9488 17.9215 80.3277 18.1824C80.4393 18.2588 80.5165 18.3552 80.4322 18.4903C80.3705 18.5902 80.2719 18.6372 80.1531 18.5902C79.7243 18.4186 79.3051 18.2188 78.8312 18.1883C78.7302 18.1824 78.6756 18.0767 78.71 17.9779C78.767 17.8158 78.8917 17.7359 79.1305 17.7535L79.1293 17.7523Z" fill="#11051D"/>
<path d="M75.9842 19.9027C75.9522 20.1683 76.0009 20.5972 75.6422 20.5714C75.2847 20.5455 75.3393 20.1143 75.3393 19.8158C75.3393 19.7429 75.3749 19.6689 75.3963 19.596C75.4391 19.4468 75.4842 19.2846 75.6825 19.2964C75.8714 19.307 75.9165 19.4762 75.9617 19.6184C75.989 19.703 75.9783 19.7993 75.9842 19.9027Z" fill="#11051D"/>
<path d="M76.0186 17.9779C75.7549 17.9849 75.4972 18.0272 75.2418 18.0989C75.1314 18.1306 75.0138 18.1036 74.9686 17.9849C74.9211 17.8592 75.0138 17.7746 75.1123 17.7323C75.4734 17.5772 75.8559 17.5208 76.2454 17.5666C76.3856 17.583 76.5293 17.6935 76.4889 17.8474C76.4177 18.1201 76.1813 17.9473 76.0186 17.9779Z" fill="#11051D"/>
<path d="M33.3214 53.5448C32.8451 52.7739 32.041 52.3497 31.3914 51.7574C32.2881 52.0959 33.0162 52.6352 33.5114 53.4578C33.4473 53.4872 33.3843 53.5154 33.3202 53.5448H33.3214Z" fill="#FFB79C"/>
<path d="M32.3831 53.821C31.8059 53.2334 31.1372 52.7716 30.402 52.3967C31.2916 52.6071 32.0719 52.9855 32.5791 53.7881C32.5137 53.7986 32.4484 53.8092 32.3831 53.8198V53.821Z" fill="#FFB79C"/>
<path d="M23.2211 20.7053C23.4325 20.7935 23.4658 20.8969 23.4931 21.0003C23.6582 21.6325 23.9694 22.1965 24.3114 22.7488C24.5751 23.1742 24.271 23.77 23.7781 23.8299C23.695 23.8405 23.6166 23.8335 23.5738 23.7582C23.5216 23.6654 23.6059 23.6266 23.6641 23.5796C24.2022 23.1413 24.1974 23.1448 23.8138 22.5444C23.467 22.0015 23.1807 21.4351 23.2211 20.7065V20.7053Z" fill="#11051D"/>
<path d="M21.3444 27.8312C21.2577 28.1684 21.171 28.5069 21.0843 28.8441C21.0605 28.6749 20.9418 28.5797 20.8135 28.4869C20.279 28.1026 19.8764 27.6044 19.4559 26.9475C20.1258 27.3459 20.7256 27.6103 21.3456 27.8312H21.3444Z" fill="#FFB79C"/>
<path d="M21.9608 18.6936C22.0938 18.7007 22.2494 18.7465 22.2744 18.9286C22.3005 19.1108 22.1366 19.166 22.0024 19.1766C21.5653 19.2106 21.2161 19.4233 20.8764 19.6689C20.7494 19.7606 20.6092 19.8605 20.4726 19.6971C20.3158 19.5103 20.4619 19.3893 20.5973 19.2823C20.9881 18.9709 21.418 18.7441 21.9596 18.6948L21.9608 18.6936Z" fill="#11051D"/>
<path d="M22.1473 21.2412C22.0998 21.5068 22.1188 21.8593 21.7768 21.8487C21.4145 21.8381 21.4216 21.4856 21.4228 21.2118C21.424 20.9509 21.4406 20.6196 21.7779 20.6207C22.1651 20.6231 22.0808 21.005 22.1473 21.2412Z" fill="#11051D"/>
<path d="M24.6344 18.5831C24.9206 18.5761 25.1831 18.6607 25.4302 18.7982C25.5371 18.8569 25.5953 18.9521 25.5501 19.0673C25.4979 19.2001 25.3827 19.2518 25.2461 19.1919C25.0014 19.0837 24.7532 19.0179 24.4812 19.0309C24.3517 19.0379 24.1783 19.079 24.1557 18.871C24.1332 18.6642 24.29 18.6161 24.4479 18.5855C24.5073 18.5737 24.5714 18.5831 24.6344 18.5831Z" fill="#11051D"/>
<path d="M25.2759 20.9203C25.2188 21.1495 25.245 21.448 24.9587 21.4327C24.6476 21.4174 24.6297 21.1189 24.6226 20.871C24.6167 20.6512 24.6464 20.3633 24.891 20.3563C25.2545 20.3457 25.169 20.7253 25.277 20.9203H25.2759Z" fill="#11051D"/>
<path d="M22.5179 25.4023C23.0097 25.0862 23.4729 25.0004 23.948 24.9557C24.0667 24.944 24.1831 24.9828 24.1867 25.1073C24.1903 25.219 24.0691 25.2213 23.9741 25.2319C23.5204 25.2824 23.0679 25.3388 22.5179 25.4034V25.4023Z" fill="#11051D"/>
</g>
<defs>
<clipPath id="clip0_153_9794">
<rect width="103" height="83" fill="white"/>
</clipPath>
</defs>
</svg>
