<svg width="110" height="82" viewBox="0 0 110 82" fill="none" xmlns="http://www.w3.org/2000/svg">
<g clip-path="url(#clip0_153_9933)">
<path d="M106.185 72.8578C103.967 75.0773 101.196 76.0094 98.1983 76.4521C94.6448 76.9764 91.076 76.8347 87.513 76.689C84.6427 76.5725 81.7858 76.2754 78.9995 75.4948C77.6617 75.12 76.3582 74.6598 75.1807 73.8889C75.0528 73.8054 74.9059 73.7433 74.8238 73.5996C74.6845 73.4054 74.7647 73.2073 74.8238 73.0151C75.528 70.6441 76.2036 68.2634 76.7494 65.8497C77.1025 64.2904 77.4079 62.7233 77.6636 61.1446C77.7418 60.663 77.8392 60.5524 78.3315 60.599C79.0682 60.6669 79.801 60.7543 80.5396 60.8106C81.6751 60.8961 82.8068 61.0281 83.9461 61.0553C84.5454 61.0708 85.1408 61.2029 85.7439 61.1504C86.1446 61.131 86.5282 61.2689 86.9252 61.2825C88.0989 61.6184 89.2993 61.8767 90.5149 61.8825C91.9253 61.8883 93.3051 61.6301 94.5188 60.8029C94.7612 60.6378 94.9902 60.4475 95.2708 60.3465C97.1983 60.1912 99.0723 60.432 100.893 61.1155C100.633 60.9446 100.336 60.8514 100.04 60.7698C98.9235 60.463 97.7784 60.3213 96.6315 60.1951C96.2803 60.1562 95.933 60.364 95.5856 60.1951C95.4788 60.0611 95.5704 59.9523 95.6448 59.863C96.8548 58.4144 97.2441 56.7017 97.2116 54.8511C97.2116 53.4006 97.0914 51.9558 97.0189 50.5092C97.0723 50.2004 97.2956 50.2101 97.5151 50.2548C97.9273 50.3363 98.3414 50.3402 98.7555 50.3305C100.116 50.2994 101.166 49.4373 101.466 48.0858C101.628 47.3479 101.605 46.608 101.563 45.8488C101.469 44.1263 101.244 42.4214 100.977 40.7242C100.643 38.6057 100.238 36.5007 99.4636 34.4909C99.3815 34.2793 99.2632 34.0598 99.3567 33.8132C100.796 33.9395 102.223 34.1356 103.611 34.5667C105.96 35.2968 107.292 36.9784 107.96 39.3164C108.763 42.1301 109.24 45.0002 109.555 47.909C109.916 51.2451 110.078 54.5909 109.971 57.9425C109.865 61.3019 109.636 64.6516 108.719 67.9158C108.204 69.747 107.466 71.4403 106.189 72.8578H106.185Z" fill="#E56990"/>
<path d="M85.7591 61.2766C84.4193 61.2766 83.0873 61.1601 81.7533 61.0475C80.5739 60.9485 79.3964 60.83 78.2169 60.7232C78.0146 60.7057 77.8505 60.6824 77.8047 60.997C77.4555 63.4554 76.9287 65.8788 76.2932 68.277C75.8658 69.8906 75.3886 71.4907 74.9363 73.0966C74.8905 73.2617 74.86 73.4306 74.8238 73.5976C74.6539 74.1258 74.4344 74.6423 74.3256 75.1841C74.2188 75.7142 73.9917 75.9744 73.4497 75.8948C73.1462 76.0502 72.8199 76.0288 72.5012 75.9997C71.3103 75.8909 70.1214 75.7647 68.9649 75.4346C68.7817 75.3822 68.5584 75.3899 68.463 75.1627C67.961 75.0579 67.8599 74.7996 67.9782 74.2753C68.2588 73.0345 68.3904 71.7645 68.5297 70.5004C68.4381 69.7586 68.6252 69.0401 68.7149 68.3139C68.9286 66.5759 69.171 64.8419 69.3637 63.102C69.379 62.9699 69.4305 62.8437 69.4382 62.7602C69.2702 63.0845 69.0393 63.4127 68.8084 63.7408C67.9858 64.9118 67.1767 66.0924 66.3522 67.2633C66.0469 67.6983 65.6468 67.8096 65.1518 67.5973C64.4343 67.2789 63.7301 66.9313 63.0583 66.5216C62.3732 66.1041 61.73 65.6341 61.2453 64.97C61.0869 64.8127 60.9895 64.6865 61.125 64.4166C63.2319 60.2552 65.169 56.0084 67.3542 51.8878C67.8637 50.9266 68.3771 49.9615 69.0794 49.1207C69.8657 48.1828 70.8809 47.7614 72.0775 47.7148C73.2245 47.6702 74.3428 47.9032 75.4726 48.0236C77.8162 48.2158 80.0796 48.8528 82.3697 49.3285C83.1502 49.4897 83.9289 49.6722 84.698 49.8858C86.677 50.4664 88.6847 50.9422 90.6255 51.6568C92.7649 52.4471 94.9138 53.2122 96.8508 54.4705C97.0321 54.587 97.2325 54.6783 97.3165 54.9035C97.3871 56.8803 96.8928 58.6629 95.5569 60.1523C95.5321 60.3251 95.3814 60.3582 95.2649 60.43C93.284 62.032 91.0206 62.2417 88.6331 61.8048C88.0644 61.7 87.4843 61.6242 86.9461 61.3815C85.2819 61.0223 83.9231 60.0339 82.5224 59.1387C80.7342 57.9949 79.0853 56.6473 77.3123 55.4822C76.4268 54.8996 75.5108 54.4122 74.4478 54.2297C73.1176 54.0025 72.129 54.5249 71.3809 55.5929C70.9038 56.2745 70.5947 57.0454 70.3714 57.8512C70.0031 59.1795 69.8008 60.5387 69.6519 61.9077C69.8466 60.931 69.9802 59.9407 70.1901 58.9659C70.3981 57.9988 70.671 57.0531 71.1195 56.1677C71.2607 55.888 71.4344 55.6317 71.6329 55.389C72.7226 54.0647 74.2035 53.9947 75.7971 54.7288C77.0814 55.3191 78.215 56.1696 79.3467 57.0104C81.0529 58.2765 82.8067 59.4669 84.6197 60.5679C84.8583 60.7116 85.1178 60.8145 85.3716 60.9291C85.53 61.0009 85.7419 61.03 85.7533 61.2766H85.7591Z" fill="#55408B"/>
<path d="M31.0978 72.9238C30.7257 72.8675 30.4108 72.7548 30.4642 72.2713C30.4451 72.2461 30.4127 72.2208 30.4146 72.1956C30.4623 70.6324 30.0749 69.1003 30.1112 67.5352C30.1245 66.9313 29.9661 66.3254 30.0692 65.7157C30.1741 63.8476 30.197 61.9815 30.0539 60.1174C29.9833 60.0222 29.8898 59.9814 29.7734 59.9873C28.6531 60.0397 27.5367 60.1348 26.4241 60.2649C25.9317 60.2611 25.4489 60.3892 24.9565 60.3853C24.7141 60.3834 24.5844 60.4921 24.5615 60.7407C24.5462 60.9116 24.4794 61.0727 24.4794 61.2495C24.4718 63.1563 24.3515 65.0613 24.2924 66.9662C24.2542 68.1993 24.2027 69.4324 24.113 70.6654C24.0977 70.8674 24.0328 71.0596 23.9717 71.2499C23.8458 72.0403 23.8324 72.8403 23.8229 73.6345C23.8172 74.0986 23.6988 74.3355 23.2294 74.3375C23.1397 74.3375 23.05 74.3743 22.9584 74.3938C22.6015 74.6986 22.1492 74.6792 21.7332 74.7239C20.7751 74.8287 19.8133 74.9957 18.8457 74.7957C18.6949 74.7647 18.5384 74.7627 18.4278 74.6307C17.8425 74.4546 17.5321 74.041 17.4964 73.3898C17.4869 73.2364 17.4506 73.083 17.4258 72.9316C17.2064 71.8791 17.1529 70.8072 17.0861 69.7372C16.9544 67.6459 16.88 65.5526 16.7312 63.4631C16.714 63.2282 16.735 62.9932 16.7254 62.7602C16.7178 62.3388 16.7312 61.9174 16.651 61.498C16.6052 61.2533 16.4869 61.1349 16.2483 61.1485C15.4163 61.1912 14.5899 61.0708 13.7597 61.0494C12.1567 61.0067 10.5688 60.8261 9.00775 60.4378C8.37606 60.2805 7.78444 60.0164 7.22527 59.6766C6.52488 59.2513 6.03823 58.6377 5.75196 57.8648C5.15081 56.2337 5.24623 54.5773 5.60311 52.9151C5.63555 52.7617 5.69853 52.6141 5.86074 52.5481C6.38365 52.4879 6.90466 52.5714 7.42184 52.6121C8.4982 52.6995 9.57264 52.7112 10.6471 52.6141C10.8646 52.5947 11.086 52.5772 11.2807 52.6898C11.9315 53.0627 12.649 53.1714 13.3704 53.2161C14.6891 53.2976 16.0098 53.3734 17.3304 53.4335C18.8514 53.5054 20.3744 53.5345 21.882 53.7928C22.0652 53.8239 22.2446 53.8627 22.4221 53.9132C22.9946 54.1151 23.5576 54.3482 24.1702 54.4181C24.3687 54.4414 24.5615 54.4627 24.758 54.4297C24.9202 54.4142 25.0557 54.4821 25.1874 54.5656C26.1245 55.1521 27.0882 55.69 28.0653 56.2026C28.1436 56.2492 28.2237 56.2881 28.3077 56.3249C28.9184 56.6589 29.5367 56.9735 30.2333 57.0823C30.636 57.1444 31.0043 57.1502 31.199 56.6803C31.2944 56.4492 31.5215 56.4589 31.7181 56.4648C32.1169 56.4745 32.3288 56.2842 32.3402 55.8841C32.3459 55.6822 32.4356 55.5793 32.6112 55.4997C32.9547 55.3443 33.0253 55.053 32.907 54.7171C32.8307 54.4996 32.8116 54.3035 32.9147 54.086C33.1074 53.6763 32.7868 53.3365 32.7391 52.9578C32.762 52.4316 32.8135 51.9131 33.1398 51.4723C33.5425 51.4723 33.9357 51.5422 34.3231 51.6432C36.3498 52.1772 37.1895 53.3015 37.3136 55.6337C37.3594 56.5172 37.3517 57.3988 37.3174 58.2823C37.1514 62.634 36.9834 66.9837 36.8193 71.3354C36.8117 71.5218 36.8193 71.7101 36.8193 71.8985C36.804 71.9587 36.7811 72.0169 36.7773 72.0771C36.7366 72.6222 36.4408 72.9218 35.8899 72.9762C35.7506 73.0403 35.6227 73.149 35.4662 73.1549C34.6513 73.1782 33.8402 73.3665 33.0253 73.2597C32.5349 73.1956 32.0387 73.2287 31.5539 73.118C31.3898 73.0811 31.2123 73.085 31.0978 72.9277V72.9238Z" fill="#55408B"/>
<path d="M22.4947 54.0103C21.7046 53.9404 20.9279 53.7617 20.1283 53.7307C18.4718 53.6646 16.8152 53.5695 15.1587 53.4646C14.1797 53.4025 13.193 53.3986 12.2255 53.1966C12.1205 53.1753 12.0003 53.1714 11.9163 53.1151C11.2961 52.7092 10.6205 52.7617 9.9258 52.7947C8.55937 52.8588 7.19102 52.7986 5.83413 52.6044C5.64901 52.35 5.70245 52.0607 5.74634 51.7888C6.45055 47.3323 7.23873 42.8932 8.23493 38.495C8.35326 37.9765 8.50593 37.4658 8.66815 36.959C8.72922 36.7648 8.7941 36.5706 8.96014 36.4366C9.42388 34.9705 10.0918 33.6229 11.3075 32.65C12.8133 31.4422 14.527 30.6674 16.3992 30.2519C16.8229 30.215 16.9984 30.4305 17.111 30.8403C17.5137 32.3238 18.1053 33.7316 18.9221 35.0346C18.9794 35.1278 19.0424 35.2172 19.0977 35.3104C19.2924 35.6269 19.5023 35.6813 19.8115 35.4346C20.342 35.0094 20.8745 34.5822 21.4279 34.186C21.884 33.8598 21.8917 33.8482 22.3115 34.2559C22.4222 34.3647 22.5272 34.4793 22.6779 34.5336C22.8249 34.6191 22.8745 34.755 22.8821 34.9162C22.781 35.8483 22.7428 36.7842 22.6474 37.7182C22.4852 39.3222 22.239 40.9126 21.9814 42.501C21.6512 44.5244 21.2161 46.5264 20.6989 48.5071C20.51 49.2334 20.405 49.2897 19.6989 49.1304C18.7981 48.9285 17.8992 48.7188 16.9984 48.5149C16.424 48.3848 16.3992 48.3226 16.3458 47.7304C16.1206 45.1749 16.0213 42.6117 15.8057 40.0562C15.7675 39.5941 15.8362 39.1241 15.7312 38.761C15.8267 39.8834 15.8839 41.1009 15.966 42.3165C16.0805 44.0331 16.1797 45.7497 16.319 47.4643C16.3286 47.5731 16.3439 47.6818 16.3381 47.7925C16.3171 48.2255 16.216 48.311 15.7923 48.2508C15.5213 48.2119 15.258 48.1343 15.0538 48.1265C16.674 48.4236 18.3401 48.8372 20.0119 49.2198C20.8077 49.4004 21.6111 49.544 22.3993 49.7518C23.0863 49.9324 23.0806 49.9615 22.9298 50.6567C22.6989 51.7111 22.5214 52.7733 22.5596 53.8608C22.5558 53.9171 22.5367 53.9676 22.4985 54.0103H22.4947Z" fill="#79A1E1"/>
<path d="M42.392 8.60046C42.3958 10.5035 41.6172 12.0705 40.4129 13.4628C39.161 14.9095 37.5618 15.7658 35.7755 16.2999C35.4491 16.3969 35.2564 16.5659 35.0827 16.8941C34.6209 17.7679 33.8823 18.3854 33.0254 18.8534C32.764 18.9971 32.6475 18.9155 32.6705 18.6223C32.7048 18.1563 32.785 17.696 32.7697 17.2222C32.7601 16.9407 32.6857 16.8028 32.3899 16.7523C31.6952 16.6358 30.9891 16.6591 30.2964 16.5037C28.6379 16.1309 27.0845 15.5076 25.7829 14.3852C24.3115 13.1191 23.3325 11.5482 23.0367 9.5539C22.7371 7.54022 23.2619 5.74984 24.4222 4.17501C25.6398 2.52444 27.3345 1.5244 29.2849 0.972913C30.4738 0.636975 31.6857 0.435024 32.9166 0.502988C35.7736 0.662219 38.39 1.4642 40.4263 3.64488C41.7164 5.02553 42.3844 6.68192 42.392 8.60046Z" fill="#E6D5F8"/>
<path d="M83.4537 8.01977C83.4117 9.9752 82.7151 11.651 81.3983 13.0783C80.6235 13.9191 79.7532 14.6259 78.7513 15.1638C78.5356 15.2803 78.4402 15.4395 78.4479 15.69C78.4669 16.3173 78.5509 16.9328 78.7418 17.529C78.8276 17.7989 78.7627 17.8319 78.5147 17.7581C77.6501 17.4998 76.9154 17.0338 76.3257 16.3464C76.0547 16.0318 75.7646 16.0104 75.381 16.0648C74.4192 16.1969 73.4497 16.1425 72.4897 16.0124C70.6958 15.7697 69.0431 15.1483 67.5679 14.0628C65.9305 12.8588 64.8274 11.2646 64.4304 9.26061C63.9762 6.96341 64.6556 4.94002 66.2053 3.22149C67.8923 1.3515 70.0355 0.425238 72.4745 0.112602C74.8352 -0.188383 77.1081 0.0990087 79.2112 1.26605C81.2494 2.39815 82.6903 4.06036 83.2953 6.39057C83.3182 6.47989 83.3353 6.5731 83.3544 6.66437C83.4518 7.10905 83.4651 7.5615 83.4556 8.01977H83.4537Z" fill="#E6D5F8"/>
<path d="M82.6255 20.0514C82.4366 18.9076 82.2533 17.7658 82.5969 16.6163C82.6675 16.3755 82.7514 16.1386 82.8946 15.9405C84.1847 14.1521 85.7668 12.8685 88.0416 12.6044C89.9042 12.3889 91.5493 12.7675 92.9596 14.0453C93.1467 14.2142 93.2135 14.1443 93.347 13.9928C94.0093 13.2375 94.8471 12.7986 95.8356 12.7306C97.1964 12.6394 98.3853 13.4821 98.9865 14.9463C99.559 16.3386 99.6525 17.7872 99.4101 19.2688C99.2594 20.1912 99.0781 21.1097 98.9826 22.0437C98.8414 23.4146 99.3185 24.5467 100.179 25.5643C100.885 26.3993 101.481 27.3041 101.632 28.4324C101.864 30.1936 100.937 32.6423 98.9845 33.1627C98.6277 33.052 98.5189 32.6928 98.3128 32.4403C97.7345 31.7335 97.0437 31.1859 96.2479 30.7626C95.7383 30.514 95.2192 30.2946 94.6772 30.1295C94.5016 30.0752 94.3261 30.0208 94.202 29.8674C93.5856 28.71 93.389 27.4478 93.3146 26.1585C93.2936 25.7992 93.3108 25.438 93.3146 25.0516C92.8451 25.3992 92.4539 25.8303 91.8871 25.9779C91.8413 25.9779 91.7859 25.9856 91.7516 25.9585C91.3375 25.6167 91.5245 24.304 92.0207 24.1079C92.702 23.838 93.2001 23.3758 93.4749 22.6865C93.6257 22.3117 93.6524 21.9233 93.4635 21.5485C93.1677 20.9582 92.6352 20.797 92.0684 21.1233C91.8909 21.2262 91.7611 21.3777 91.6218 21.5252C91.2955 21.8748 90.9138 21.8515 90.8012 21.4068C90.5054 20.2514 89.6447 19.5931 88.8164 18.894C88.1313 18.3173 87.5969 17.6183 87.2095 16.8027C86.8679 16.0842 86.4882 15.8706 85.7076 15.9716C84.782 16.092 84.0549 16.5269 83.6026 17.3891C83.2266 18.1018 83.0244 18.8707 82.845 19.6494C82.8106 19.7951 82.8774 20.0164 82.6293 20.0494L82.6255 20.0514Z" fill="#11051D"/>
<path d="M96.3108 30.7024C97.3223 31.1451 98.0665 31.9083 98.7097 32.7918C98.7994 32.9161 98.8891 33.0384 98.9788 33.1627C99.1028 33.3802 99.2269 33.5977 99.3509 33.8152C100.17 35.8619 100.666 37.9979 101.013 40.1727C101.315 42.0622 101.578 43.9535 101.689 45.8701C101.735 46.676 101.744 47.4566 101.563 48.2333C101.257 49.5499 100.109 50.4606 98.7803 50.4645C98.3528 50.4645 97.9234 50.4994 97.4959 50.3888C97.3967 50.3635 97.1906 50.2023 97.12 50.4703C95.5703 50.2004 94.0722 49.7285 92.5951 49.1984C90.3469 48.3925 88.1561 47.4333 85.9079 46.6274C85.4576 46.3148 84.9575 46.1128 84.4461 45.9342C84.0644 45.8002 83.6961 45.6371 83.3602 45.4177C82.5625 44.8972 82.1102 44.1205 81.7418 43.2428C81.5453 42.7767 81.1998 42.4292 81.5758 41.8796C81.6598 41.7573 81.488 41.4194 81.7075 41.2116C81.9689 40.965 82.28 40.9262 82.6102 40.9398C83.0587 40.9592 83.49 41.0854 83.9365 41.1301C84.1827 41.1553 84.3182 41.0738 84.3564 40.8271C84.5014 40.6485 84.6808 40.6834 84.8621 40.7495C85.9328 41.1495 86.9022 41.7068 87.5816 42.6719C87.8316 43.0272 88.1465 43.2253 88.5588 43.3108C90.742 43.7613 92.9176 44.239 95.1009 44.6914C95.3871 44.7516 95.6734 44.8021 95.9482 44.905C96.5131 45.1963 97.1429 45.2545 97.7421 45.4177C97.37 45.2798 96.9864 45.1846 96.599 45.1011C96.2535 45.0273 96.0913 44.8293 96.0016 44.4856C95.6219 43.0389 95.2478 41.5883 94.9043 40.132C94.8566 39.93 94.8528 39.6776 94.555 39.6601C94.4214 39.5591 94.3795 39.4057 94.3489 39.2523C94.0226 37.6561 93.8031 36.0541 94.0531 34.4191C94.2535 33.1122 94.7573 31.9665 95.7325 31.0655C95.9005 30.9102 96.0703 30.7432 96.3127 30.7063L96.3108 30.7024Z" fill="#FFCDBA"/>
<path d="M12.5116 62.9933C12.1777 62.9777 11.8399 62.9369 11.5059 62.8903C9.95435 62.7195 8.40662 62.5136 6.87796 62.1855C6.4562 62.0942 6.05352 61.9505 5.63557 61.8573C5.23862 61.7019 4.8264 61.5815 4.43517 61.4068C4.26914 61.333 4.08593 61.2825 3.99814 61.0961C3.62027 60.8106 3.19278 60.6145 2.83591 60.2708C2.14124 59.6048 1.86643 58.7562 1.69657 57.8649C1.45039 56.5697 1.24237 55.2628 1.06298 53.9559C0.900759 52.7714 0.797704 51.5772 0.666023 50.3868C0.549608 49.3363 0.419835 48.2877 0.312963 47.2372C0.232809 46.4624 0.15838 45.6876 0.118303 44.9108C0.0610502 43.7865 -0.055364 42.6622 0.0286069 41.5379C0.0992188 40.5941 0.12212 39.6252 0.641213 38.7863C1.3397 37.66 2.43132 37.1532 3.66035 36.9202C5.41038 36.5881 7.17759 36.4211 8.96006 36.4367C8.01539 39.429 7.52492 42.5224 6.94476 45.5963C6.56689 47.6003 6.19665 49.6062 5.90848 51.6257C5.86268 51.9539 5.85314 52.2782 5.83596 52.6044C5.33595 54.3113 5.27106 56.0221 5.83596 57.7231C6.24246 58.9465 7.1585 59.6455 8.3131 60.0688C9.58412 60.5349 10.9143 60.6902 12.2483 60.8126C13.6453 60.9388 15.046 61.0048 16.4468 61.0009C16.7102 61.0009 16.7884 61.0825 16.7884 61.3427C16.7884 61.7971 16.819 62.2495 16.8381 62.7039C16.8381 63.0806 16.5785 63.102 16.3056 63.1175C15.6167 63.1564 14.9373 62.9913 14.2483 63.0204" fill="#E6D5F8"/>
<path d="M33.138 51.4704C33.033 51.985 32.9262 52.4976 32.8212 53.0122C32.6743 53.0025 32.6036 52.8976 32.5693 52.7733C32.4681 52.416 32.2277 52.185 31.9166 52.0219C31.7239 51.9209 31.6781 51.7733 31.6838 51.5616C31.6991 50.9422 31.5578 50.7791 30.9624 50.6179C30.3708 50.4606 29.7696 50.5169 29.1704 50.4975C28.6799 50.482 28.1856 50.5635 27.699 50.4373C27.5196 50.3402 27.4623 50.1577 27.4051 49.979C26.9719 48.6275 26.5177 47.2818 26.0253 45.9517C25.9604 45.7769 25.8898 45.5982 25.9547 45.406C26.0997 44.6817 26.4337 44.0254 26.6646 43.3302C27.1398 41.899 27.5807 40.4563 28.0101 39.0096C27.6131 40.3844 27.1513 41.7379 26.72 43.101C26.4795 43.8584 26.1436 44.5827 25.9585 45.3594C25.7543 46.3012 25.2753 47.1323 24.9279 48.0178C24.7123 48.5693 24.4527 49.1033 24.2199 49.6489C24.1455 49.8198 24.0749 50.0004 23.8688 50.0567C23.2542 50.082 22.7008 49.814 22.1225 49.6703C21.7504 49.5771 21.3687 49.5285 20.9966 49.4353C20.6302 49.3441 20.5405 49.1499 20.6321 48.7829C20.9279 47.6022 21.2428 46.4255 21.4813 45.2293C21.9737 42.7496 22.3916 40.2582 22.6626 37.7416C22.7638 36.8114 22.7676 35.8735 22.9088 34.9473C22.9317 34.7919 22.9699 34.6385 23.0539 34.5045C23.3878 33.9705 23.6283 33.3996 23.7237 32.7705C23.7428 32.6481 23.7924 32.5297 23.8974 32.4481C24.1417 32.3413 24.3821 32.4675 24.6264 32.4636C24.9814 32.4559 25.3344 32.452 25.6703 32.318C25.926 32.2617 26.1283 32.0228 26.4184 32.0811C28.241 32.8132 29.2162 34.2909 29.7067 36.1162C30.8231 40.2698 31.888 44.437 32.9701 48.6003C33.2163 49.546 33.3269 50.5014 33.1437 51.4743L33.138 51.4704Z" fill="#78A1E1"/>
<path d="M96.3109 30.7024C95.8128 31.1626 95.3166 31.6151 94.9464 32.2054C94.4005 33.0753 94.183 34.0482 94.0971 35.0385C93.9692 36.5221 94.1811 37.9901 94.5265 39.4349C94.5437 39.5067 94.5895 39.5727 94.6219 39.6426C94.8376 39.8368 94.8376 40.1203 94.8986 40.3728C95.2288 41.7243 95.5761 43.07 95.9349 44.4137C95.9845 44.6001 96.0838 44.804 95.9311 44.9963C93.4501 44.4681 90.9711 43.9322 88.4863 43.4195C88.0493 43.3302 87.7306 43.1302 87.4844 42.7593C86.8069 41.7398 85.7725 41.2388 84.6962 40.8019C84.5817 40.7553 84.4862 40.798 84.3927 40.8563C84.1962 40.7417 84.1733 40.5242 84.1141 40.3359C83.7935 39.3048 83.4748 38.2736 83.1656 37.2386C82.9423 36.491 82.6522 36.2561 81.8755 36.1959C81.6808 36.1803 81.4709 36.2269 81.303 36.0716C81.532 35.7221 81.5244 35.3259 81.5778 34.9278C81.7457 33.6443 81.8927 32.3433 82.698 31.2558C83.5778 30.6674 84.5397 30.2946 85.574 30.1063C85.6733 30.2946 85.5683 30.4713 85.5492 30.6539C85.3947 32.05 85.9729 32.9879 87.4691 33.0481C89.139 33.1161 90.4138 32.3471 91.6486 31.3665C92.2974 30.8519 92.7784 30.1781 93.3757 29.6189C93.7078 29.5664 94.015 29.613 94.2689 29.8596C94.9597 30.116 95.6849 30.2868 96.3109 30.7043V30.7024Z" fill="#FFC446"/>
<path d="M81.3277 36.056C81.4957 36.0638 81.6655 36.0735 81.8335 36.0813C82.7686 36.124 83.0148 36.3279 83.2934 37.2483C83.656 38.4523 84.0262 39.6543 84.3946 40.8563C84.4919 41.1553 84.5453 41.3281 84.0759 41.266C83.5167 41.1922 82.9671 41.031 82.3945 41.0505C82.1178 41.0602 81.885 41.134 81.6999 41.3514C81.4613 41.635 81.8602 41.8175 81.8144 41.9981C81.7648 42.1942 81.2762 42.3709 81.448 42.5321C81.8487 42.9069 81.7762 43.4933 82.093 43.8273C82.5415 44.2972 82.719 44.9885 83.364 45.3031C83.9594 45.5944 84.572 45.8371 85.1789 46.0954C85.4461 46.208 85.7228 46.3128 85.9442 46.5148C86.324 47.1032 86.4328 47.7964 86.6599 48.443C86.7648 48.7363 86.8507 49.0392 86.9232 49.3441C87.0568 49.8917 86.8316 50.1907 86.2801 50.2198C85.7362 50.249 85.2228 50.0451 84.6904 49.9926C82.7915 49.5732 80.8926 49.146 78.9899 48.7363C77.8219 48.4858 76.6483 48.2625 75.4784 48.0275C75.5242 48.0217 75.57 48.0217 75.6139 48.0081C75.6387 48.0003 75.736 47.9809 75.6425 47.9401C75.1864 47.7382 75.1425 47.2935 75.0223 46.8896C74.8276 46.7867 74.7551 46.5964 74.6921 46.4002C73.6711 43.2331 72.5871 40.0892 71.5661 36.9221C71.4707 36.6231 71.2817 36.3221 71.4134 35.9784C71.8924 35.656 72.4287 35.823 72.9421 35.7881C73.1711 35.7725 73.4039 35.792 73.6329 35.7842C73.8543 35.7764 74.0413 35.7939 74.0127 36.0968C74.007 36.1473 74.0375 36.1803 74.0833 36.1337C74.1024 36.1143 74.1043 36.0755 74.1158 36.0463C74.5032 36.6444 75.0967 36.5803 75.694 36.5978C76.9651 36.6347 78.2361 36.6891 79.5071 36.6988C79.9155 36.7027 80.2017 36.6794 80.2094 36.1823C80.2094 36.1221 80.259 36.0696 80.3029 36.025C80.6483 35.8949 80.9918 35.8483 81.3258 36.0599L81.3277 36.056Z" fill="#EED5FF"/>
<path d="M93.3527 29.6518C93.3031 30.0557 92.9443 30.2441 92.7153 30.4907C91.702 31.5898 90.5569 32.5335 89.1103 32.9821C88.3126 33.2287 87.4805 33.2559 86.6637 33.0423C85.5148 32.7413 85.3488 31.6306 85.4137 30.6849C85.427 30.4888 85.5186 30.2965 85.574 30.1043C85.6904 30.0693 85.8049 30.0286 85.9213 29.9994C86.5168 29.8441 86.5492 29.7878 86.4958 29.178C86.4805 29.0033 86.4232 28.9431 86.2534 28.9178C84.0988 28.5994 82.801 26.7216 82.6026 24.7798C82.4422 23.2011 82.4957 21.6262 82.6274 20.0514C82.822 19.2863 82.9728 18.5076 83.2762 17.7736C83.9003 16.2609 85.1427 15.5832 86.6408 15.9444C86.8259 15.9891 87.0148 16.0201 87.1007 16.2667C87.5626 17.5872 88.4805 18.5523 89.5531 19.3698C90.1962 19.8591 90.6447 20.4553 90.8527 21.2456C90.8966 21.4146 90.9271 21.6301 91.1523 21.6786C91.3832 21.7291 91.4653 21.5447 91.5798 21.3951C91.9768 20.8767 92.5741 20.6844 93.0398 20.9116C93.5703 21.1718 93.8356 21.8262 93.6619 22.4748C93.4138 23.3991 92.7917 23.9681 91.9291 24.271C91.7306 24.3409 91.6562 24.4011 91.6676 24.6108C91.6867 24.9701 91.681 25.3312 91.6867 25.6924C91.6867 25.7992 91.6657 25.9216 91.8279 25.9332C91.973 26.5624 91.8165 27.2168 91.9806 27.8459C92.0283 28.0265 92.0626 28.2129 92.0951 28.3974C92.1772 28.8537 92.4043 29.1586 92.8642 29.2907C93.055 29.345 93.3031 29.3761 93.3547 29.6518H93.3527Z" fill="#FFCDBA"/>
<path d="M23.8916 32.5084C23.7923 33.2229 23.5824 33.8948 23.1855 34.5026C23.111 34.6152 23.0271 34.7356 23.0461 34.8871C22.9049 35.0813 22.8477 34.9356 22.7828 34.8211C22.7599 34.7026 22.6893 34.6191 22.5939 34.5531C21.9564 34.0657 21.4698 33.4132 20.8515 32.9045C20.424 32.5511 20.0461 32.1413 19.6816 31.72C18.9526 30.8772 18.485 29.9179 18.3915 28.7858C18.3839 28.6946 18.3629 28.5994 18.4354 28.5198C18.464 28.4052 18.4907 28.2926 18.5194 28.178C18.6873 27.7916 18.9907 27.4868 19.1453 27.0887C19.2655 26.776 19.2503 26.543 18.9888 26.2964C18.3934 25.7333 18.1644 25.0206 18.3209 24.207C18.4201 23.6866 18.693 23.273 19.2255 23.1196C19.7331 22.972 20.1606 23.1623 20.5366 23.5079C20.6282 23.5914 20.7083 23.6866 20.7828 23.7875C21.1797 24.3157 21.1873 24.3196 21.5728 23.7468C22.0442 23.0496 22.2904 22.2632 22.4488 21.4418C22.5939 20.6884 22.6931 20.6437 23.4088 20.8593C24.4279 21.168 25.4699 21.37 26.5271 21.4981C27.0157 21.5622 27.5042 21.5836 27.9909 21.4709C28.2619 21.4243 28.5329 21.37 28.8058 21.3292C29.2466 21.2632 29.3707 21.3544 29.3802 21.8108C29.3955 22.6477 29.4527 23.4885 29.2314 24.3118C29.0539 25.4187 28.8955 26.5275 28.6932 27.6285C28.4508 28.9431 28.0348 30.1917 27.2657 31.3005C27.0367 31.6306 26.6855 31.8054 26.4183 32.0811C26.1989 32.1977 25.9966 32.353 25.7447 32.3996C25.0748 32.5064 24.4126 32.52 23.7485 32.3375C22.6912 32.0462 21.8228 31.4695 21.1205 30.6228C21.7732 31.4695 22.5939 32.0714 23.6206 32.3666C23.7217 32.3957 23.8362 32.3996 23.8954 32.5122L23.8916 32.5084Z" fill="#FFCDBA"/>
<path d="M26.4623 21.5952C25.3211 21.5194 24.218 21.2359 23.134 20.898C22.7161 20.7679 22.6378 20.9155 22.592 21.2592C22.4413 22.3641 22.0825 23.3778 21.3573 24.2399C21.1588 24.4769 21.0214 24.6341 20.8974 24.1875C20.8535 24.0302 20.7294 23.8904 20.6225 23.7584C20.2122 23.2535 19.6492 23.069 19.1531 23.2632C18.6511 23.4593 18.3343 24.0302 18.3801 24.6807C18.4278 25.3701 18.6874 25.9565 19.2504 26.3643C19.4031 26.475 19.4355 26.5469 19.3782 26.7352C19.2084 27.2945 19.0118 27.8265 18.5175 28.1799C16.8897 25.5274 16.4125 22.6709 17.2294 19.6572C17.9985 16.8221 20.8115 15.1075 23.6608 15.6104C25.2848 15.8959 26.8765 16.2765 28.1933 17.3639C28.9547 17.993 29.6456 18.7018 30.5788 19.096C30.9758 19.263 31.0502 19.8048 30.8078 20.2475C30.575 20.6728 30.201 20.9446 29.7773 21.1505C29.5941 21.2398 29.5139 21.3155 29.5845 21.5738C29.846 22.5292 29.7429 23.4535 29.2296 24.3137C29.0578 24.0729 29.2467 23.8399 29.2429 23.6011C29.2315 22.9603 29.2372 22.3175 29.2429 21.6767C29.2448 21.4651 29.2219 21.368 28.9624 21.4418C28.6399 21.533 28.2963 21.5486 27.9624 21.5971C27.4624 21.6456 26.9623 21.6398 26.4623 21.599V21.5952Z" fill="#11051D"/>
<path d="M71.4135 35.9745C72.5585 39.4679 73.7017 42.9593 74.8486 46.4527C74.8964 46.6003 74.9631 46.742 75.0223 46.8857C74.3047 46.9653 73.7933 46.5517 73.3047 46.1167C72.1864 45.1225 71.4096 43.8623 70.6883 42.5651C69.5604 40.5359 68.6539 38.3902 67.5165 36.3668C67.3027 35.9881 67.0145 35.7027 66.7111 35.4153C65.3657 34.1472 64.0832 32.819 63.0469 31.2714C62.816 30.9257 62.4209 30.5801 62.7893 30.0655C62.8618 29.9626 62.6652 29.8344 62.5965 29.716C62.3122 29.2305 62.3885 28.9839 62.9076 28.8111C62.8389 28.7217 62.7664 28.6421 62.711 28.5509C62.6022 28.3742 62.5889 28.1877 62.7416 28.0343C62.8828 27.8906 63.0698 27.8266 63.2435 27.9586C63.4591 28.1256 63.5355 28.0363 63.6595 27.8343C63.9172 27.4188 64.2798 27.5042 64.6233 27.7236C65.6023 28.347 66.5527 29.0111 67.3886 29.8305C67.671 30.1082 67.921 30.4325 68.3581 30.6248C68.2188 30.1607 68.0146 29.7781 67.9382 29.3548C67.881 29.0363 67.8924 28.7295 68.0432 28.4421C68.2188 28.1062 68.5184 28.0868 68.6615 28.4344C69.2188 29.7839 70.0241 31.085 70.089 32.5666C70.1482 33.9084 70.7302 34.9434 71.4173 35.9803L71.4135 35.9745Z" fill="#FFCDBA"/>
<path d="M63.8936 28.3663C64.1697 28.9777 64.7351 29.2215 65.1175 29.7572C65.3345 30.0612 65.5755 30.3475 65.8111 30.6381C65.9075 30.7573 65.936 30.8843 65.8177 30.9856C65.3761 31.3654 65.1351 31.9167 64.7055 32.3076C64.5324 32.4657 64.3933 32.5058 64.2629 32.2664C63.9714 31.7307 63.5868 31.264 63.2088 30.7918C63.0203 30.5557 62.8856 30.2873 62.8121 29.9911C62.8023 29.9332 62.7333 29.8544 62.7234 29.7965C62.9129 29.7363 63.0749 30.2387 63.1915 30.2732C63.6002 30.7799 63.8936 31.0736 64.3034 31.5792C64.3889 31.685 64.4623 31.9245 64.6573 31.7841C64.8655 31.6349 64.7516 31.4656 64.6168 31.3052C64.1412 30.7395 63.7128 30.1359 63.314 29.5133C63.1507 29.2572 63.1064 29.1025 62.9574 28.843C63.033 28.8352 63.117 29.0892 63.1915 29.0814C63.4255 29.3198 63.6596 29.5581 63.6596 29.5581C64.0814 30.0537 64.1818 29.9309 64.5905 30.4388C64.6814 30.5513 64.7647 30.6704 64.8633 30.7762C64.9806 30.901 65.066 31.1671 65.2939 30.9878C65.5186 30.8097 65.3126 30.6571 65.1986 30.5179C64.8041 30.0367 64.4393 29.5322 64.0854 29.0211C63.9944 28.8896 63.9243 28.746 63.8421 28.609C63.7534 28.4597 63.2918 28.2348 63.4255 28.1279C63.3948 28.1602 63.4562 28.0956 63.4255 28.1279L63.8936 28.3663Z" fill="#FFB79C"/>
<path d="M61.2492 64.9681C62.3752 66.0944 63.7454 66.8284 65.1577 67.4964C65.1863 67.5547 65.2092 67.6226 65.171 67.6751C64.7054 68.3023 64.442 69.0324 64.1385 69.7431C64.108 69.8402 64.0775 69.9392 64.045 70.0363C63.6538 70.3606 63.1653 70.2888 62.7168 70.3451C61.1061 70.5412 59.4858 70.4519 57.8713 70.4461C57.2529 70.4441 56.6461 70.2965 56.0907 69.9994C55.5373 69.7023 55.3082 69.2402 55.4132 68.7062C56.6384 68.2168 57.8598 67.7217 59.0316 67.0983C59.9782 66.5954 60.6652 65.8458 61.2492 64.9701V64.9681Z" fill="#FFCDBA"/>
<path d="M55.4132 68.7062C55.4857 69.4713 55.9342 69.9043 56.6327 70.0888C57.1365 70.2228 57.6442 70.3276 58.1728 70.3237C59.6767 70.3101 61.1824 70.3781 62.6824 70.2208C63.1386 70.1723 63.5909 70.1004 64.0451 70.0402C64.0069 70.3975 63.9783 70.7548 63.9286 71.1102C63.8161 71.9063 63.629 72.0889 62.8561 72.186C62.8408 72.186 62.8256 72.1898 62.8103 72.1898C59.9019 72.083 56.9705 72.419 54.0907 71.7393C53.5659 71.6151 53.0487 71.4616 52.604 71.1393C52.0468 70.7354 51.98 70.3296 52.3521 69.7528C53.2777 69.114 54.3579 68.9489 55.4151 68.7081L55.4132 68.7062Z" fill="#B4686E"/>
<path d="M3.99819 61.0941C4.52873 61.3155 5.06118 61.5349 5.59173 61.7563C5.68142 61.9077 5.62417 62.0612 5.59173 62.2107C4.87416 65.4749 4.21002 68.7488 3.50009 72.015C3.28062 73.019 3.17566 74.0501 2.79206 75.0152C2.53251 75.7259 2.47145 75.7705 1.89701 75.6715C1.55158 75.3958 1.65655 75.0152 1.71189 74.6773C2.25007 71.347 2.79779 68.0168 3.35314 64.6904C3.55352 63.4904 3.78254 62.2942 3.99819 61.0961V61.0941Z" fill="#55408B"/>
<path d="M18.4354 28.5198C18.6091 30.5315 19.8114 31.8908 21.2427 33.1064C21.7484 33.5355 22.1435 34.0715 22.5919 34.555C22.298 34.5822 22.2274 34.2929 22.0538 34.1511C21.9145 34.0365 21.8286 33.9958 21.6644 34.1278C21.0289 34.6405 20.3724 35.124 19.7369 35.6347C19.4907 35.8308 19.3343 35.8347 19.1377 35.557C18.1319 34.1317 17.4659 32.5433 17.0022 30.8694C16.8991 30.5005 16.7407 30.3179 16.401 30.2519C16.7006 30.2383 16.8838 30.0849 17.0499 29.8208C17.3953 29.2693 17.798 28.7567 18.4373 28.5198H18.4354Z" fill="#6A9EDD"/>
<path d="M80.2934 36.0755C80.3029 36.8678 80.3048 36.8619 79.4995 36.8406C78.0223 36.7998 76.5433 36.7416 75.0662 36.7435C74.5318 36.7435 74.2131 36.5862 74.1177 36.0425C74.1444 35.3124 74.1883 35.2696 74.8868 35.2832C75.7952 35.2988 76.7017 35.3124 77.6101 35.326C78.1674 35.4211 78.7342 35.3046 79.2914 35.3881C79.322 35.3939 79.3525 35.39 79.383 35.3803C80.0796 35.1551 80.385 35.3881 80.2934 36.0755Z" fill="#563E7E"/>
<path d="M80.2934 36.0755C80.1725 35.6185 79.8691 35.3868 79.3831 35.3803C79.7189 34.7356 80.0357 34.0812 80.3926 33.4482C80.9384 32.4812 81.7056 31.7413 82.6999 31.2559C82.427 31.9763 82.0797 32.6676 81.9461 33.4404C81.8316 34.1104 81.6293 34.7686 81.6923 35.458C81.7209 35.7726 81.5987 35.9512 81.3277 36.058C80.9823 36.0639 80.6388 36.0697 80.2934 36.0774V36.0755Z" fill="#FFCDBA"/>
<path d="M37.3156 58.2804L37.3118 55.6317C37.4434 56.5153 37.4301 57.3968 37.3156 58.2804Z" fill="#BEB2CB"/>
<path d="M79.2914 35.3881C78.7304 35.3959 78.1674 35.4405 77.6101 35.326C78.1712 35.3143 78.7342 35.2599 79.2914 35.3881Z" fill="#B2A6C5"/>
<path d="M35.8251 73.9744C36.3518 74.0871 36.6705 74.5162 37.0789 74.8152C38.0293 75.5104 39.0541 76.0755 40.1419 76.5163C40.6973 76.7416 41.1744 77.0755 41.5236 77.5727C42.0217 78.2814 41.8595 78.8484 41.0522 79.1494C40.0923 79.5067 39.0866 79.4931 38.0865 79.4426C35.9663 79.3339 33.8517 79.1688 31.7563 78.7999C30.5311 78.5844 30.3975 78.4174 30.4242 77.1416C30.4376 76.4483 30.5425 75.7745 30.7601 75.1182C30.8116 74.9628 30.8517 74.7609 31.0998 74.8677C31.4681 74.8327 31.7849 75.0211 32.1151 75.1337C32.825 75.3803 33.4281 75.3298 33.9204 74.6735C34.1953 74.3065 34.5903 74.0793 35.0273 73.9414C35.2945 73.8579 35.5674 73.8094 35.827 73.9744H35.8251Z" fill="#382550"/>
<path d="M22.9584 75.4268C23.279 75.5142 23.5118 75.7181 23.7504 75.955C24.5939 76.792 25.5939 77.4075 26.6531 77.9221C27.1111 78.1454 27.5692 78.3629 27.9566 78.7066C28.9413 79.5766 28.7467 80.6271 27.5176 81.0621C26.7924 81.3184 26.0348 81.365 25.2848 81.3028C22.9679 81.1087 20.6874 80.7067 18.4545 80.0348C18.0079 79.9008 17.7751 79.6426 17.7636 79.1746C17.7102 78.7921 17.7255 78.4076 17.756 78.025C17.7694 77.5532 17.861 77.091 17.9812 76.6386C18.0194 76.4968 17.9907 76.2657 18.2388 76.2521C18.7789 76.3123 19.2522 76.5978 19.777 76.7201C20.3362 76.8502 20.7389 76.7104 21.0538 76.2405C21.403 75.7201 21.8916 75.4249 22.4985 75.3259C22.6626 75.2987 22.8382 75.2482 22.9584 75.4288V75.4268Z" fill="#382551"/>
<path d="M73.3524 78.0503C73.5528 78.6891 73.612 79.3358 73.4383 79.9921C73.3734 80.2407 73.2704 80.4659 72.9898 80.5378C70.2169 81.233 67.4706 82.0971 64.566 81.9922C64.0259 81.9728 63.4935 81.8815 62.9935 81.6563C62.5564 81.4602 62.1843 81.1961 62.1614 80.6387C62.1385 80.0989 62.5145 79.864 62.898 79.6601C63.4839 79.3455 64.1233 79.163 64.7492 78.9474C65.3924 79.3358 66.0813 79.561 66.837 79.5008C68.0756 79.4018 69.3085 79.2523 70.5089 78.9066C71.3486 78.6639 72.2016 78.4619 73.0013 78.0852C73.112 78.0328 73.2284 77.9843 73.3524 78.0503Z" fill="#B4686E"/>
<path d="M73.3525 78.0504C71.8257 78.7824 70.2036 79.1844 68.547 79.4368C67.6405 79.5747 66.7264 79.7223 65.8008 79.5495C65.3733 79.4698 65.0145 79.3028 64.7493 78.9475C65.3905 78.4737 66.0279 77.9902 66.6768 77.5261C67.5165 76.926 68.1119 76.1396 68.4669 75.1628C70.0967 75.6328 71.7628 75.8541 73.4536 75.8949C73.238 76.6037 73.2494 77.3241 73.3544 78.0504H73.3525Z" fill="#FFCDBA"/>
<path d="M13.2713 63.8244L13.2331 66.2672C13.1453 66.7741 13.2465 67.2867 13.1778 67.7955C13.1663 68.7606 13.153 69.7257 13.1415 70.6907C13.0518 71.3859 13.1549 72.0869 13.0881 72.7841C13.0594 74.1763 13.0327 75.5686 13.0041 76.9609C13.0003 77.1338 12.9907 77.3047 12.9812 77.4775C12.9621 77.7843 12.8762 78.0425 12.5155 78.06C12.1491 78.0775 12.0022 77.8445 11.9449 77.5163C11.8075 76.726 11.8361 75.9259 11.7999 75.1298C11.756 74.1919 11.7617 73.252 11.7445 72.3141C11.6816 71.8054 11.777 71.2927 11.693 70.7859C11.6491 68.5295 11.6052 66.2711 11.5613 64.0147C11.4945 63.6341 11.5938 63.2438 11.506 62.8632L11.5117 62.8282C12.0575 62.7098 12.59 62.9312 13.1339 62.902C13.2865 62.8943 13.2732 63.0263 13.2713 63.137C13.2694 63.3681 13.2713 63.5991 13.2713 63.8302V63.8244Z" fill="#55408B"/>
<path d="M27.9604 71.0559C27.7581 69.716 27.5577 68.3742 27.3535 67.0343C27.1188 65.4944 26.8822 63.9545 26.6455 62.4166C26.6493 62.3855 26.6455 62.3351 26.6608 62.3292C27.2409 62.1486 27.8154 61.9079 28.4413 62.1156C28.6532 62.8069 28.6494 63.5293 28.7238 64.2361C28.928 66.2051 29.1627 68.1722 29.3498 70.1432C29.3898 70.5782 29.3555 71.0093 29.3555 71.4423C29.4604 72.4695 29.5692 73.4967 29.6704 74.524C29.699 74.8036 29.7143 75.0852 29.7219 75.3667C29.7295 75.6794 29.6341 75.9396 29.2849 75.9726C28.9146 76.0095 28.7581 75.7629 28.7047 75.4386C28.5711 74.6521 28.4566 73.8638 28.3211 73.0773C28.2047 72.4016 28.1532 71.7141 27.9623 71.052L27.9604 71.0559Z" fill="#55408B"/>
<path d="M35.8251 73.9744C35.0159 73.9064 34.3804 74.254 33.9052 74.8832C33.5063 75.4094 33.0273 75.4948 32.4376 75.3375C31.9777 75.2133 31.5158 75.1084 31.0979 74.8657C31.0979 74.2191 31.0979 73.5724 31.0979 72.9258C32.6933 73.1724 34.2907 73.1743 35.8881 72.9743C35.7659 73.3006 35.8461 73.6404 35.8251 73.9744Z" fill="#FFCDBA"/>
<path d="M22.9584 75.4268C22.2294 75.3822 21.6034 75.6288 21.2026 76.2482C20.7752 76.9104 20.2389 77.0405 19.548 76.7881C19.1034 76.625 18.6453 76.5046 18.2369 76.2502C18.2999 75.7104 18.361 75.1686 18.424 74.6288C19.9488 74.8365 21.4546 74.6618 22.9546 74.3918C22.9546 74.7375 22.9565 75.0831 22.9584 75.4288V75.4268Z" fill="#FFCDBA"/>
<path d="M13.0862 72.782C13.0747 72.083 13.0213 71.3839 13.1396 70.6887C13.1434 71.3781 13.1453 72.0655 13.1491 72.7548C13.1281 72.7626 13.1071 72.7704 13.0862 72.7801V72.782Z" fill="#9E8BB6"/>
<path d="M11.6892 70.78C11.796 71.2868 11.7502 71.7976 11.7407 72.3083C11.7216 72.3005 11.7006 72.2927 11.6815 72.2869C11.6853 71.784 11.6872 71.283 11.6911 70.78H11.6892Z" fill="#A696BC"/>
<path d="M17.7541 78.0212C17.756 78.4038 17.7598 78.7883 17.7617 79.1708C17.6377 78.7883 17.6491 78.4057 17.7541 78.0212Z" fill="#8F77A7"/>
<path d="M84.6885 49.9888C85.2114 49.9247 85.7209 50.0995 86.2419 50.0917C86.7687 50.084 86.9404 49.8801 86.7897 49.3616C86.5129 48.4101 86.2248 47.4605 85.9404 46.511C88.6752 47.4567 91.3031 48.6936 94.0646 49.5597C94.9711 49.8432 95.8814 50.1286 96.8242 50.2704C96.9692 50.2917 97.0322 50.383 97.12 50.4665C97.2459 51.9423 97.3605 53.4201 97.3204 54.9056C94.2478 52.8899 90.8107 51.7831 87.3431 50.752C86.4614 50.4898 85.574 50.2451 84.6885 49.9908V49.9888Z" fill="#FFC446"/>
<path d="M85.7591 61.2767C85.1351 60.9117 84.4633 60.6456 83.8507 60.2515C82.0892 59.1155 80.3659 57.9232 78.6788 56.6765C77.7971 56.0241 76.8887 55.4143 75.9135 54.9094C75.1234 54.4997 74.2837 54.3055 73.4154 54.4318C72.3887 54.5793 71.7283 55.29 71.2589 56.1716C70.6291 57.3503 70.3485 58.6475 70.1272 59.9582C70.026 60.5563 69.9478 61.1583 69.8295 61.7506C69.7932 61.9311 69.7817 62.1661 69.4745 62.2768C69.5413 61.7603 69.5947 61.2806 69.6672 60.8029C69.8543 59.5407 70.0585 58.2805 70.505 57.0804C70.8524 56.1522 71.2894 55.2687 72.0909 54.6531C73.1807 53.8181 74.362 53.9424 75.5452 54.4026C77.0395 54.9852 78.2895 55.9833 79.5701 56.9231C81.24 58.1465 82.9346 59.3291 84.7209 60.366C85.4194 60.7719 86.1561 61.133 86.9595 61.3039C86.9672 61.3039 86.9767 61.3311 86.9767 61.3428C86.9767 61.3564 86.9614 61.37 86.9538 61.3816C86.5568 61.3467 86.1599 61.3117 85.761 61.2767H85.7591Z" fill="#3F2961"/>
<path d="M95.2689 60.432C95.3662 60.3388 95.4635 60.2475 95.5609 60.1543C97.2823 59.9621 98.9331 60.3174 100.569 60.8087C100.7 60.8475 100.828 60.9077 100.948 60.9718C101.074 61.0398 101.294 61.098 101.21 61.2806C101.122 61.4747 100.939 61.3388 100.809 61.2709C100.091 60.8844 99.2976 60.7932 98.5208 60.6203C97.4426 60.3795 96.3529 60.4592 95.267 60.432H95.2689Z" fill="#E35673"/>
<path d="M27.6741 50.3946C28.7466 50.3946 29.823 50.2761 30.8917 50.4664C31.6742 50.6043 31.8745 50.8645 31.8001 51.6587C31.7925 51.7344 31.7371 51.8315 31.8383 51.8548C32.4528 51.9946 32.6284 52.5112 32.823 53.0141C33.0196 53.4452 33.3154 53.8627 32.9127 54.3443C32.8326 54.4394 32.9833 54.5307 33.0215 54.6239C33.2123 55.0938 33.0769 55.4589 32.6131 55.6201C32.4795 55.6667 32.4719 55.7036 32.4623 55.8317C32.4127 56.4725 32.2772 56.6007 31.6742 56.5832C31.4585 56.5774 31.3154 56.5735 31.2486 56.8551C31.1818 57.1386 30.928 57.2396 30.6341 57.2337C29.7447 57.2143 28.9795 56.8357 28.2371 56.3871C28.2657 55.8278 28.3917 55.7443 28.9012 55.8045C29.5443 55.8803 30.1035 56.1657 30.6703 56.4434C30.1016 56.1327 29.5157 55.8803 28.8688 55.7832C28.5997 55.7424 28.3649 55.5929 28.4432 55.2375C28.5081 54.9443 28.802 54.7812 29.1207 54.8278C29.9012 54.9404 30.6283 55.2395 31.3745 55.4725C31.5501 55.5269 31.7257 55.5463 31.8287 55.5715C31.1283 55.5016 30.4489 55.0822 29.6913 54.9346C29.4833 54.8938 29.2676 54.8977 29.0615 54.8064C28.739 54.6647 28.6722 54.4821 28.9031 54.2064C29.2657 53.7734 29.7638 53.9229 30.2008 53.9714C30.8211 54.0394 31.4222 54.2433 31.9223 54.3384C31.5272 54.286 31.0425 54.1074 30.531 54.0316C30.2791 53.9947 29.9814 53.9656 30.0043 53.5831C30.0272 53.2005 30.323 52.8296 30.6207 52.8122C31.0978 52.785 31.5596 52.8918 31.8459 52.9539C31.6074 52.917 31.1951 52.8413 30.7734 52.7966C30.3955 52.7578 30.2314 52.9054 30.1188 53.218C30.0863 53.3054 30.0386 53.3908 30.0176 53.4802C29.968 53.6879 29.9909 53.9287 29.676 53.9462C29.3783 53.9617 29.1302 53.9015 28.9527 53.6355C28.7638 53.352 28.7543 53.051 28.8363 52.7364C28.9165 52.4316 29.0501 52.15 29.2142 51.882C29.052 52.1267 28.9356 52.3927 28.8459 52.6762C28.7886 52.8607 28.7237 53.0801 28.802 53.2277C29.1817 53.9462 28.7371 54.4919 28.4756 55.0783C28.4146 55.2142 28.4069 55.354 28.4279 55.4919C28.4833 55.8511 28.2523 56.0706 28.0577 56.3094C26.9241 55.7871 25.8916 55.0783 24.7981 54.4802C24.655 54.3074 24.6664 54.0977 24.6931 53.9015C24.842 52.8685 25.0252 51.8412 25.1702 50.8082C25.1798 50.746 25.2103 50.6917 25.2466 50.6392C26.0367 50.3538 26.8516 50.3033 27.6779 50.3965L27.6741 50.3946Z" fill="#FFCDBA"/>
<path d="M30.1552 61.6611C29.5884 61.9039 28.9528 61.8883 28.3956 62.1582C27.7944 62.1252 27.2257 62.3058 26.6456 62.4146C26.0635 62.4029 25.489 62.4922 24.9165 62.5835C24.5005 62.6495 24.4528 62.5835 24.4948 62.168C24.5386 61.7194 24.5329 61.2631 24.5253 60.8106C24.5215 60.5659 24.5844 60.4378 24.8421 60.4067C25.4432 60.331 26.0425 60.2455 26.6875 60.2397C26.7028 60.2475 26.6685 60.1426 26.6303 60.1679C26.5921 60.1931 26.5139 60.1543 26.4528 60.1426C27.6208 59.9562 28.804 59.929 29.9796 59.8144C30.0788 59.8047 30.1532 59.8688 30.1819 59.9717C30.2239 60.5349 30.2716 61.0999 30.1571 61.6611H30.1552Z" fill="#E6D5F8"/>
<path d="M25.2924 50.6374C25.2351 51.6355 25.0214 52.6103 24.8611 53.5929C24.8134 53.89 24.8096 54.1812 24.7924 54.4764C24.7084 54.5871 24.5939 54.6201 24.4641 54.5968C23.7866 54.4745 23.0958 54.3968 22.4946 54.0104C22.4946 53.9909 22.4946 53.9735 22.4946 53.954C22.5862 53.2453 22.6168 52.5287 22.7141 51.818C22.7809 51.3364 22.9145 50.8723 23.0004 50.3966C23.0614 50.0587 23.2313 49.9325 23.5481 50.0218C23.6569 50.0529 23.7561 50.0607 23.863 50.0373C24.2981 49.9907 24.6931 50.1597 25.0939 50.2859C25.2428 50.3325 25.3573 50.4432 25.2924 50.6374Z" fill="#79A1E1"/>
<path d="M28.0539 56.3055C28.2085 55.9463 28.3325 55.5987 28.3516 55.1831C28.3669 54.8627 28.5577 54.5113 28.7238 54.218C28.8726 53.954 28.9013 53.787 28.7696 53.5151C28.5482 53.0646 28.8383 51.9422 29.2238 51.5869C29.2963 51.5208 29.3822 51.4645 29.4661 51.5461C29.5406 51.6199 29.4604 51.684 29.4203 51.7461C29.1894 52.0995 28.9967 52.4723 28.9013 52.8879C28.7791 53.4141 29.1284 53.8724 29.6093 53.853C29.7925 53.8452 29.8994 53.8006 29.9013 53.5889C29.9013 53.484 29.9471 53.3772 29.9795 53.2724C30.115 52.8491 30.2925 52.5811 30.8402 52.6937C31.2715 52.7811 31.7124 52.851 32.1475 52.9326C32.2028 52.9423 32.2525 52.9869 32.2887 53.1054C31.9624 53.0471 31.6341 52.9928 31.3078 52.9287C30.6284 52.7947 30.4146 52.8859 30.1875 53.3267C29.9967 53.6996 30.1036 53.8588 30.4853 53.9365C31.0959 54.0588 31.7009 54.2064 32.3021 54.3753C31.5998 54.455 30.9509 54.1598 30.2715 54.0782C29.9623 54.0413 29.657 54.0336 29.3535 54.0452C29.073 54.0549 28.8688 54.2666 28.8574 54.5171C28.8459 54.7792 29.1551 54.7618 29.323 54.7754C30.3574 54.8608 31.2391 55.4589 32.2486 55.6356C31.7944 55.6608 31.3517 55.6142 30.9337 55.4531C30.344 55.2278 29.7429 55.0492 29.1264 54.9152C28.7944 54.8433 28.6054 55.0123 28.5291 55.2802C28.4318 55.6201 28.7505 55.6803 28.9528 55.7016C29.72 55.7812 30.3631 56.1657 31.1055 56.5152C30.7562 56.6376 30.5349 56.4958 30.3116 56.389C29.8955 56.191 29.47 56.0298 29.0234 55.9055C28.5444 55.7715 28.3287 55.9366 28.2333 56.3832C28.1722 56.356 28.1131 56.3308 28.052 56.3036L28.0539 56.3055Z" fill="#FFB79C"/>
<path d="M23.9049 50.08C23.863 50.0975 23.8114 50.1421 23.779 50.1305C23.1969 49.9441 23.1358 50.3227 23.0385 50.7655C22.8343 51.6975 22.7141 52.6355 22.6816 53.587C22.6759 53.7384 22.7198 53.9151 22.4965 53.954C22.2675 53.3151 22.5118 52.6898 22.55 52.0587C22.5862 51.4509 22.737 50.8606 22.8877 50.2742C22.945 50.0528 22.8801 50.0159 22.6912 49.9732C21.0786 49.6081 19.4697 49.2275 17.8571 48.8625C16.8418 48.6333 15.8227 48.4236 14.8055 48.2061C14.691 48.1828 14.5021 48.2197 14.5231 48.0566C14.5479 47.8741 14.733 47.9246 14.8685 47.9498C15.1987 48.01 15.5384 48.0411 15.859 48.1401C16.1491 48.2294 16.2254 48.1401 16.2082 47.8663C16.1701 47.2585 16.1414 46.6526 16.0976 46.0449C16.0479 45.3769 15.9678 44.7128 15.9353 44.0448C15.8456 42.2389 15.733 40.4349 15.5689 38.6348C15.5613 38.5416 15.5651 38.4464 15.5727 38.3532C15.5804 38.2697 15.6262 38.1901 15.7063 38.1823C15.8418 38.1707 15.8304 38.2891 15.8361 38.3785C15.8991 39.2329 15.9792 40.0873 16.0193 40.9417C16.1014 42.7321 16.2464 44.5186 16.3781 46.3051C16.4182 46.8488 16.4373 47.3944 16.4831 47.9381C16.4983 48.1149 16.485 48.2547 16.7254 48.309C17.8609 48.5615 18.9926 48.8392 20.1243 49.1071C20.4583 49.1848 20.4717 48.8761 20.5194 48.7032C20.735 47.9071 20.924 47.1032 21.1072 46.2992C21.4564 44.7691 21.7599 43.2272 21.9927 41.6738C22.1874 40.3825 22.4125 39.097 22.5042 37.7901C22.5748 36.7978 22.6893 35.8075 22.7828 34.8171C22.8629 34.8696 22.9355 34.9589 23.0461 34.8832C22.8687 35.5045 22.9526 36.1512 22.8839 36.7862C22.7542 38.0056 22.6015 39.2232 22.4354 40.4368C22.048 43.2894 21.4583 46.0992 20.7274 48.8799C20.6453 49.1926 20.7789 49.2761 21.006 49.311C21.9851 49.4625 22.9202 49.8043 23.8897 50.0004C23.9164 50.012 23.9278 50.0276 23.9221 50.045C23.9183 50.0645 23.9107 50.0742 23.9049 50.0742V50.08Z" fill="#5C86C2"/>
<path d="M9.00212 41.3748C9.1319 41.499 9.16816 41.668 9.17006 41.833C9.17579 42.3476 9.20823 42.8583 9.26167 43.3729C9.42198 44.9186 9.59374 46.4604 9.85328 47.9945C10.0689 49.2703 10.3476 50.5266 10.7388 51.7578C10.8018 51.9539 10.8896 52.1325 10.964 52.319C10.9983 52.4063 11.0651 52.519 10.9678 52.5695C10.8342 52.6394 10.796 52.5015 10.7522 52.4025C10.4373 51.6723 10.2006 50.9131 10.0231 50.1402C9.62809 48.4295 9.33228 46.6993 9.17197 44.9477C9.07083 43.8487 8.94869 42.7535 8.83227 41.6563C8.81701 41.5185 8.82846 41.4078 9.00212 41.3748Z" fill="#5C85C1"/>
<path d="M32.7944 3.58264C34.6761 3.58264 35.9853 5.22738 35.4433 6.91872C35.2219 7.61002 34.7429 8.09936 34.1475 8.45472C33.5616 8.80231 33.1494 9.20232 33.2047 9.97129C33.2333 10.3577 32.97 10.6063 32.5711 10.6393C32.2047 10.6704 31.9127 10.4218 31.8478 9.99848C31.7181 9.15766 31.9566 8.44695 32.6341 7.92265C32.8898 7.72458 33.1761 7.56535 33.4318 7.36534C33.9681 6.94591 34.1379 6.42549 33.9376 5.8876C33.7334 5.33806 33.1265 4.92251 32.5654 4.9497C31.9929 4.97688 31.449 5.43904 31.302 6.02159C31.1474 6.64104 30.9032 6.84299 30.4413 6.7323C29.9986 6.62745 29.8058 6.20607 29.9394 5.64099C30.2314 4.39821 31.3612 3.58458 32.7925 3.58264H32.7944Z" fill="#55408B"/>
<path d="M31.6399 12.4783C31.6418 11.9307 32.0464 11.5113 32.5674 11.5152C33.1037 11.519 33.5197 11.954 33.5216 12.5133C33.5216 13.057 33.1132 13.4842 32.5979 13.4784C32.0655 13.4725 31.638 13.0259 31.6418 12.4783H31.6399Z" fill="#55408B"/>
<path d="M70.652 7.85666C70.6692 5.96919 72.2322 4.43902 74.0089 4.56913C75.8506 4.70311 77.2456 6.42941 77.0319 8.30134C76.9441 9.06837 76.6636 9.7519 76.1846 10.3461C75.7075 10.9364 75.4651 11.5966 75.4746 12.3734C75.488 13.3501 74.7456 14.1327 73.8639 14.1385C72.9765 14.1443 72.257 13.3909 72.2379 12.3967C72.2227 11.5792 71.9784 10.8762 71.4555 10.2471C70.9039 9.5849 70.6444 8.71884 70.652 7.85472V7.85666Z" fill="#55408B"/>
<path d="M77.967 4.0798C77.9403 4.13612 77.9231 4.21961 77.8754 4.27204C77.612 4.55361 77.3429 4.83129 77.07 5.10315C76.9574 5.21578 76.8296 5.23131 76.7074 5.10704C76.5891 4.98858 76.5796 4.85071 76.6903 4.7342C76.9765 4.43128 77.2551 4.1167 77.5719 3.85261C77.7723 3.68561 77.9002 3.85261 77.9689 4.08174L77.967 4.0798Z" fill="#55408B"/>
<path d="M71.0184 4.90708C71.0108 5.01388 70.9612 5.08961 70.8829 5.14592C70.7818 5.21777 70.6749 5.21777 70.589 5.13427C70.2894 4.84494 69.9898 4.5556 69.7054 4.25268C69.6024 4.14199 69.6196 3.99247 69.7321 3.87402C69.8199 3.78081 69.9344 3.75945 70.0203 3.84101C70.3428 4.14976 70.6558 4.46822 70.9669 4.78863C70.9955 4.81775 71.0032 4.87213 71.0184 4.91096V4.90708Z" fill="#55408B"/>
<path d="M73.5509 2.99622C73.5509 2.79232 73.5432 2.58843 73.5528 2.38648C73.5604 2.24278 73.6539 2.15734 73.7951 2.15346C73.9345 2.14958 74.0451 2.22725 74.049 2.37095C74.0623 2.79232 74.0661 3.21565 74.0528 3.63897C74.049 3.7749 73.9287 3.86616 73.7932 3.85451C73.6635 3.84286 73.5623 3.75159 73.5547 3.60984C73.5432 3.40595 73.5528 3.20205 73.5528 3.0001C73.5528 3.0001 73.5509 3.0001 73.549 3.0001L73.5509 2.99622Z" fill="#55408B"/>
<path d="M68.963 8.34016C68.7779 8.34016 68.5947 8.34016 68.4096 8.34016C68.2397 8.34016 68.1462 8.24501 68.15 8.07995C68.1538 7.9479 68.2263 7.83139 68.3733 7.82751C68.7569 7.81974 69.1424 7.82169 69.526 7.82751C69.671 7.82751 69.755 7.92072 69.7645 8.06247C69.776 8.23336 69.6787 8.32656 69.5165 8.33433C69.3313 8.3421 69.1481 8.33433 68.963 8.33433C68.963 8.33433 68.963 8.33821 68.963 8.34016Z" fill="#55408B"/>
<path d="M78.635 8.33629C78.4651 8.33629 78.2972 8.33823 78.1273 8.33629C77.9918 8.33241 77.8792 8.28775 77.8716 8.12852C77.864 7.97123 77.925 7.83724 78.0968 7.83336C78.4804 7.82365 78.8659 7.82559 79.2495 7.83336C79.3926 7.83724 79.467 7.9421 79.4632 8.0858C79.4594 8.22949 79.3793 8.3227 79.2342 8.32658C79.0338 8.33435 78.8354 8.32658 78.635 8.32658C78.635 8.32853 78.635 8.33047 78.635 8.33241V8.33629Z" fill="#55408B"/>
<path d="M94.8051 16.7717C94.4749 15.8474 93.9482 15.059 93.2478 14.3561C94.2154 14.5425 95.0494 15.8144 94.8051 16.7717Z" fill="#F9B491"/>
<path d="M95.931 44.9944C95.6123 43.7264 95.2898 42.4584 94.9749 41.1884C94.847 40.6758 94.7382 40.1573 94.6218 39.6408C94.8451 39.2932 94.8814 39.5941 94.9195 39.7417C95.1085 40.4486 95.2821 41.1593 95.4615 41.868C95.6944 42.7885 95.931 43.707 96.16 44.6274C96.2077 44.8177 96.3127 44.8818 96.4997 44.9381C97.036 45.1031 97.6162 45.1323 98.099 45.4935C97.3413 45.4954 96.6161 45.3478 95.9329 44.9925L95.931 44.9944Z" fill="#FFB79C"/>
<path d="M26.0024 45.4255C25.9737 45.4119 25.9432 45.3983 25.9146 45.3847C25.8726 44.9905 26.0749 44.6624 26.1875 44.309C26.739 42.5749 27.3783 40.87 27.8077 39.0971C27.8268 39.0213 27.8421 38.9417 27.8784 38.8757C27.9337 38.7728 27.9852 38.6135 28.136 38.6834C28.2677 38.7436 28.1818 38.8718 28.1532 38.9728C27.7295 40.4525 27.2715 41.9224 26.76 43.373C26.5176 44.0604 26.2562 44.74 26.0024 45.4236V45.4255Z" fill="#5C85C1"/>
<path d="M23.8916 32.5083C22.7237 32.4093 21.1129 31.217 20.8896 30.283C20.9813 30.2422 21.0309 30.3063 21.0748 30.3684C21.9546 31.5626 23.1492 32.1899 24.5825 32.3821C24.8096 32.4132 25.0424 32.4229 25.2695 32.351C25.4317 32.2986 25.5977 32.2423 25.7409 32.3957C25.1397 32.6908 24.5138 32.5685 23.8916 32.5083Z" fill="#FFB79C"/>
<path d="M85.0206 25.3158C85.9824 25.4867 86.9176 25.4032 87.8432 25.1682C87.8183 25.8304 87.1256 26.4925 86.3851 26.5625C85.6294 26.6343 85.2057 26.2634 85.0187 25.3158H85.0206Z" fill="#11051D"/>
<path d="M85.5836 21.304C85.7935 22.069 85.4824 22.5895 85.263 23.1273C85.2458 23.1701 85.2057 23.2031 85.1866 23.2439C84.8813 23.8672 84.7 24.2089 85.7362 24.3992C85.8374 24.4187 85.9786 24.4031 85.9576 24.5604C85.9424 24.6692 85.824 24.673 85.7324 24.6769C85.3736 24.6866 85.0626 24.5682 84.8488 24.2691C84.6141 23.9429 84.7267 23.5973 84.8851 23.2963C85.1179 22.8535 85.3164 22.403 85.4443 21.9195C85.4862 21.7603 85.5168 21.5991 85.5836 21.3059V21.304Z" fill="#11051D"/>
<path d="M88.011 21.8224C88.0015 21.9292 87.9977 22.0224 87.9843 22.1156C87.9557 22.3079 87.8927 22.5001 87.6732 22.5195C87.4194 22.5409 87.3488 22.337 87.3068 22.1273C87.2896 22.036 87.2553 21.9409 87.2686 21.8535C87.3106 21.5739 87.2648 21.1641 87.6427 21.1564C88.0454 21.1486 87.9633 21.5622 88.0091 21.8244L88.011 21.8224Z" fill="#11051D"/>
<path d="M89.2858 27.9081C88.8984 28.5702 88.3488 28.7333 87.8202 28.9023C87.49 29.0091 87.1503 29.1314 86.7877 29.0984C86.7114 29.0906 86.6293 29.0848 86.6102 28.9858C86.593 28.8906 86.6503 28.8363 86.7362 28.8285C87.6198 28.7586 88.4118 28.4013 89.2839 27.9061L89.2858 27.9081Z" fill="#FFB79C"/>
<path d="M84.2782 21.7137C84.2782 21.8709 84.2858 21.9486 84.2782 22.0263C84.2591 22.2049 84.1999 22.3972 84.0015 22.3894C83.8106 22.3817 83.8125 22.1816 83.803 22.0263C83.7992 21.9486 83.7915 21.8709 83.7992 21.7933C83.8202 21.5603 83.7553 21.1991 84.0683 21.2107C84.3507 21.2204 84.2572 21.5758 84.2782 21.7156V21.7137Z" fill="#11051D"/>
<path d="M86.8336 19.9524C87.4596 19.2533 88.5836 19.4106 88.9921 20.2533C88.3222 19.7135 87.6256 19.6145 86.8336 19.9524Z" fill="#11051D"/>
<path d="M84.8278 19.6398C84.198 19.4417 83.614 19.4883 83.0453 20.0185C83.427 19.2398 84.2285 19.0922 84.8278 19.6398Z" fill="#11051D"/>
<path d="M26.6532 25.3721C26.6093 26.0381 26.7753 26.642 26.9146 27.2595C27.0806 27.9897 26.5806 28.3703 25.8592 28.1528C25.7695 28.1256 25.6665 28.0887 25.6894 27.9741C25.7142 27.8518 25.8325 27.8829 25.9165 27.8887C25.9909 27.8926 26.0634 27.9295 26.1379 27.9431C26.5482 28.0169 26.823 27.7159 26.6932 27.3081C26.51 26.7314 26.3211 26.1605 26.4738 25.543C26.4871 25.4847 26.4814 25.4187 26.6532 25.376V25.3721Z" fill="#11051D"/>
<path d="M24.5328 29.2888C24.426 29.2888 24.3153 29.3043 24.2122 29.2849C24.0824 29.2597 23.8515 29.3975 23.8496 29.1548C23.8496 28.9936 24.0576 29.015 24.1931 29.0092C24.8725 28.982 25.5386 29.0402 26.1645 29.3296C26.279 29.382 26.489 29.4208 26.4184 29.5956C26.3573 29.7451 26.2046 29.6189 26.0996 29.5723C25.5996 29.3548 25.0748 29.2674 24.5328 29.2888Z" fill="#11051D"/>
<path d="M24.718 25.1682C24.7027 25.3449 24.6951 25.6264 24.4604 25.8245C24.3745 25.8964 24.281 25.8886 24.218 25.807C24.0272 25.5624 24.0825 25.2847 24.1302 25.0089C24.1703 24.7895 24.2333 24.5254 24.4852 24.5448C24.7638 24.5681 24.7199 24.8516 24.718 25.1662V25.1682Z" fill="#11051D"/>
<path d="M27.2982 25.5702C27.3097 25.3236 27.3116 25.0245 27.5845 24.8284C27.657 24.776 27.7352 24.7896 27.7887 24.8556C27.9948 25.1022 27.9032 25.3857 27.8612 25.6537C27.8269 25.8634 27.783 26.1411 27.512 26.112C27.2524 26.0848 27.3059 25.8149 27.2982 25.5702Z" fill="#11051D"/>
<path d="M25.3763 23.506C24.7446 23.1953 24.1473 23.1778 23.5309 23.4496C23.9393 22.8321 24.924 22.8457 25.3763 23.506Z" fill="#11051D"/>
<path d="M28.8994 24.2187C28.3593 23.539 27.7944 23.3021 27.031 23.5701C27.6093 22.9681 28.5768 23.273 28.8994 24.2187Z" fill="#11051D"/>
<path d="M26.4623 21.5952C26.9623 21.5952 27.4623 21.5952 27.9623 21.5933C27.4623 21.7098 26.9623 21.7137 26.4623 21.5952Z" fill="#925A60"/>
<path d="M13.1759 67.7954C13.1568 67.2847 13.1186 66.774 13.2312 66.2672C13.2579 66.7779 13.277 67.2886 13.1759 67.7954Z" fill="#9A8AAF"/>
<path d="M76.5987 7.89164C76.5796 8.72274 76.3429 9.40627 75.8811 10.0024C75.5032 10.4879 75.1883 11.0005 75.1006 11.6258C75.0681 11.8491 74.9479 11.8879 74.7475 11.8841C74.4975 11.8802 74.5318 11.7151 74.5318 11.5637C74.5318 10.8821 74.5967 10.2102 75.0357 9.65483C75.1979 9.44899 75.07 9.36355 74.9593 9.22956C74.8334 9.07422 74.7437 9.02955 74.5471 9.15966C74.0681 9.47229 73.5509 9.48394 73.0757 9.15772C72.8906 9.0315 72.8162 9.0781 72.7055 9.21791C72.6005 9.34996 72.4707 9.42763 72.6387 9.63929C73.0986 10.218 73.1578 10.9228 73.173 11.6374C73.1769 11.82 73.1196 11.8996 72.9383 11.8802C72.7971 11.8646 72.6463 11.9365 72.6139 11.6763C72.5356 11.0199 72.1978 10.4821 71.8047 9.96746C70.7169 8.54604 70.8925 6.60225 72.2093 5.60221C73.0833 4.9381 74.0528 4.81576 75.0338 5.33035C76.072 5.87212 76.5471 6.79644 76.6006 7.89552L76.5987 7.89164Z" fill="#EFD5FF"/>
<path d="M73.2609 9.79079C73.6693 9.81215 74.0319 9.86846 74.4384 9.70923C74.1674 10.3636 74.0681 10.9753 74.1025 11.6064C74.1139 11.7986 74.07 11.886 73.8544 11.886C73.6235 11.886 73.57 11.8045 73.5777 11.5831C73.5987 10.985 73.5166 10.3986 73.2609 9.78884V9.79079Z" fill="#EFD8FD"/>
<path d="M75.0242 12.3559C75.0318 12.4743 75.0795 12.618 74.8791 12.618C74.1768 12.618 73.4726 12.62 72.7703 12.6141C72.6062 12.6141 72.6539 12.4685 72.6425 12.3675C73.4364 12.2607 74.2303 12.2801 75.0242 12.3559Z" fill="#F4E2FB"/>
<path d="M74.881 13.0531C74.5948 13.4026 73.0909 13.3949 72.8199 13.0531H74.881Z" fill="#EFDDF7"/>
<path d="M75.0242 12.356C74.2303 12.3598 73.4364 12.3637 72.6425 12.3676C72.8314 12.1657 73.0718 12.2725 73.2818 12.2802C73.8619 12.3016 74.4516 12.1676 75.0261 12.356H75.0242Z" fill="#55408B"/>
</g>
<defs>
<clipPath id="clip0_153_9933">
<rect width="110" height="82" fill="white"/>
</clipPath>
</defs>
</svg>
