<svg width="102" height="82" viewBox="0 0 102 82" fill="none" xmlns="http://www.w3.org/2000/svg">
<g clip-path="url(#clip0_153_9865)">
<path d="M33.344 75.1238C32.0832 75.2967 30.8208 75.4631 29.5617 75.6458C28.081 75.8595 26.5921 75.9802 25.1017 76.0765C23.2447 76.1956 21.3845 76.2103 19.5242 76.1809C16.4048 76.132 13.2969 75.9427 10.2475 75.2314C8.19832 74.7534 6.21755 74.1041 4.51695 72.7909C4.06574 72.4418 3.70575 71.9996 3.27408 71.6326C1.5067 69.3682 0.848611 66.6976 0.418575 63.9324C-0.0652153 60.8279 -0.0554418 57.7006 0.0765011 54.5813C0.258941 50.2794 0.745989 46.0084 2.04587 41.8777C2.774 39.5612 3.97452 37.5644 6.17031 36.3245C7.41644 35.6214 8.76356 35.2935 10.184 35.2396C10.3094 35.3799 10.2557 35.5349 10.2214 35.6883C9.52752 38.7993 8.99812 41.9397 8.50944 45.0867C8.3775 45.9301 8.3042 46.7752 8.33026 47.63C8.37424 49.0803 9.1773 49.9661 10.6124 50.1799C10.9707 50.2337 11.3812 50.1521 11.6696 50.4751C11.7689 50.7606 11.6679 51.0363 11.6044 51.3055C11.4171 52.1 11.2786 52.9026 11.132 53.7037C11.0489 54.1539 11.018 54.6058 11.2053 55.0447C11.2477 55.5944 11.1174 56.1197 10.9838 56.6434C10.8193 56.7837 10.6547 56.694 10.4967 56.6336C9.04862 56.0838 7.55001 55.8652 5.99927 55.9664C6.17194 56.0414 6.36252 56.0431 6.54659 56.0724C6.73229 56.1018 6.91961 56.1295 7.10694 56.1491C8.3042 56.278 9.45422 56.5994 10.5782 57.0203C10.7264 57.0757 10.8698 57.1394 10.9707 57.2715C11.1222 58.1557 11.479 58.9681 11.8455 59.7789C11.7233 60.071 11.4366 60.0481 11.2037 60.0905C10.2915 60.2537 9.45748 60.6142 8.6479 61.0482C9.70019 60.7137 10.7622 60.4217 11.8634 60.2928C12.0198 60.2749 12.1745 60.2325 12.3325 60.2847C14.1911 61.6697 16.3495 61.9634 18.5795 62.0205C19.907 62.0547 21.2151 61.947 22.4986 61.593C22.6355 61.5555 22.7756 61.5392 22.9189 61.5457C24.1292 61.5523 25.3379 61.5164 26.5416 61.3907C26.9798 61.3173 27.4229 61.3369 27.8627 61.3532C28.7635 61.3858 29.6561 61.2684 30.5537 61.257C31.2215 61.2488 31.3209 61.3288 31.4056 61.9911C31.7428 64.6046 32.1272 67.2115 32.5654 69.8103C32.8244 71.3504 33.0736 72.8936 33.3489 74.4304C33.3896 74.6588 33.4792 74.8921 33.3457 75.1221L33.344 75.1238Z" fill="#E56990"/>
<path d="M33.3441 75.1236C33.0069 73.1888 32.6502 71.2556 32.3358 69.3159C32.0035 67.2669 31.7119 65.2113 31.4057 63.1591C31.3389 62.7088 31.2607 62.2553 31.2379 61.8017C31.22 61.4298 31.0473 61.3776 30.7297 61.3988C29.3451 61.4918 27.9589 61.5081 26.571 61.4983C25.9879 61.5179 25.4031 61.544 24.8329 61.3776C24.6424 61.0758 24.9405 61.0497 25.0838 60.973C25.8787 60.5554 26.6899 60.172 27.4588 59.7038C29.2929 58.5895 31.0522 57.3676 32.7788 56.0968C33.3636 55.6661 34.0136 55.3888 34.7303 55.3153C36.0628 55.1783 36.9456 55.8782 37.576 56.9598C38.0728 57.8114 38.5127 59.4379 38.5811 60.4852C38.5648 59.0545 38.1852 57.441 37.6656 56.5878C36.9684 55.441 35.7695 54.9303 34.4632 55.237C33.8621 55.379 33.2985 55.6139 32.7821 55.9663C30.4886 57.5275 28.1348 58.9974 25.7582 60.4281C25.2597 60.7283 24.7645 61.035 24.253 61.314C23.8181 61.5456 23.3327 61.5766 22.8619 61.6631C21.1923 62.1231 19.4868 62.2748 17.7683 62.146C16.1524 62.0252 14.5479 61.7903 13.1063 60.9648C12.8099 60.7952 12.5509 60.5554 12.2756 60.3482C12.0345 60.234 11.8292 60.0904 11.8016 59.7935C11.3161 59.0382 10.9627 58.2355 10.9138 57.322C10.8144 57.0968 10.7574 56.8717 10.9105 56.6449C10.9317 56.1066 11.0539 55.5813 11.1451 55.0543C11.1923 54.7835 11.4334 54.7395 11.6273 54.6546C13.8573 53.6921 16.1394 52.8748 18.4655 52.1749C20.2166 51.648 21.9807 51.1716 23.766 50.7801C24.0201 50.7246 24.1504 50.6349 24.2042 50.3347C24.3101 49.7442 24.6293 49.2205 24.8883 48.6821C25.377 48.2368 25.9374 47.9529 26.602 47.8632C27.1004 47.7963 27.5875 47.6625 28.068 47.5075C28.3172 47.4276 28.5485 47.3118 28.5925 47.0246C28.6365 46.7343 28.8206 46.5972 29.0633 46.4912C29.3744 46.3558 29.5373 46.1323 29.4265 45.7766C29.4151 45.7065 29.4216 45.6396 29.4509 45.576C29.5438 45.4601 29.692 45.4406 29.8093 45.3655C30.1823 45.1257 30.1954 44.9251 29.8582 44.6086C29.6888 44.5042 29.3988 44.6086 29.3434 44.31C29.4526 43.7505 29.3923 43.6575 28.8417 43.5628C28.4247 43.4911 28.0028 43.5416 27.5842 43.5188C27.3741 43.5074 27.1297 43.5449 27.0499 43.2578C27.032 43.0441 27.1281 42.8581 27.203 42.6688C27.7129 41.3784 28.2325 40.0913 28.7391 38.8008C28.9313 38.3114 29.0861 37.7633 29.7018 37.5969C30.3371 37.574 30.974 37.4566 31.5979 37.6784C31.7803 37.6915 31.9627 37.7045 32.1452 37.7192C32.1924 37.7633 32.2234 37.8171 32.2348 37.8807C32.3423 38.5137 32.3423 38.5153 32.9906 38.517C33.8718 38.5186 34.7547 38.5104 35.636 38.5202C36.0106 38.5251 36.3315 38.4436 36.5058 38.083C36.6948 37.6931 37.0792 37.9411 37.3431 37.8073L37.3317 37.7828C37.8204 37.5854 38.3253 37.6393 38.8156 37.7306C39.2554 37.8122 39.4297 38.1662 39.3157 38.6442C39.187 39.1826 38.9508 39.685 38.7407 40.194C37.9197 42.1908 37.0988 44.186 36.2778 46.1828C36.1703 46.4455 36.0676 46.7098 35.8608 46.9153C35.5985 47.6185 35.3363 48.3216 35.0593 49.0639C35.8982 49.0051 36.6899 48.8958 37.4913 48.8697C39.1935 48.8126 40.4592 49.5549 41.4121 50.9073C42.3504 52.2369 42.9775 53.7378 43.6894 55.1881C45.5854 59.0545 47.4685 62.929 49.4574 66.7481C49.6366 67.0907 49.6252 67.3713 49.3597 67.6437C49.0567 68.1283 48.568 68.4007 48.1054 68.6862C47.4147 69.1136 46.7404 69.5916 45.9031 69.7123C45.2135 69.957 44.6385 69.7982 44.1781 69.236C44.1292 69.1772 44.0738 69.1234 44.0201 69.0663C43.5477 68.7759 43.3164 68.2751 42.9971 67.8558C42.2755 66.9063 41.6206 65.9079 40.9072 64.9519C40.1383 63.8165 39.3923 62.668 38.6853 61.433C38.8857 62.1606 38.8222 62.8638 38.8645 63.5538C38.9199 64.4478 38.9883 65.3435 38.9997 66.2407C39.0209 67.988 39.1854 69.7303 39.1838 71.4775C39.1838 71.745 39.1724 72.011 39.1219 72.2752C39.1365 73.0714 39.1365 73.8675 39.1707 74.6636C39.1854 74.9997 39.1137 75.246 38.7684 75.352C38.7032 75.4679 38.5974 75.5364 38.4768 75.5755C37.1232 76.0193 35.7467 76.0976 34.3491 75.8153C34.2872 75.8023 34.2351 75.7664 34.1879 75.724C34.082 75.5902 33.9109 75.5739 33.7709 75.5592C33.4858 75.5299 33.362 75.3879 33.3376 75.122L33.3441 75.1236Z" fill="#55408B"/>
<path d="M80.5959 70.8495C80.5096 71.4335 80.3923 72.0143 80.3499 72.6016C80.319 73.0176 80.1594 73.2411 79.7472 73.2802C79.4443 73.569 79.0435 73.538 78.6803 73.5576C77.6443 73.6179 76.6083 73.5853 75.5886 73.3439C74.8605 73.1318 74.7888 73.0404 74.7855 72.2933C74.7839 71.9311 74.7741 71.5689 74.7937 71.2084C74.7839 68.82 74.766 66.4333 74.7758 64.0466C74.7758 63.779 74.766 63.5115 74.8132 63.2472C74.9289 62.8965 74.8881 62.5343 74.8898 62.177C74.8947 61.3483 74.893 60.5179 74.8898 59.6892C74.8898 59.5195 74.9191 59.3433 74.823 59.1867C74.6438 59.0399 74.4614 58.8751 74.4809 59.3058C74.4858 59.4004 74.4809 59.4934 74.4695 59.588C74.2789 61.6289 74.0574 63.6665 73.7463 65.6927C73.5541 66.939 73.3765 68.1887 73.1371 69.4269C73.0019 70.1496 72.8846 70.8739 72.7526 71.5967C72.606 72.4058 72.4741 72.5298 71.6743 72.6326C70.6008 72.7794 69.5274 72.7745 68.4572 72.6081C68.2324 72.5722 67.9815 72.5771 67.8284 72.3536C67.672 72.2639 67.4684 72.2704 67.3462 72.1122C67.2762 71.6342 67.3055 71.1545 67.3299 70.6749C67.3299 70.3617 67.3332 70.0485 67.3348 69.7369C67.4358 67.249 67.5075 64.7579 67.646 62.2716C67.7583 60.2292 67.7974 58.1834 68.0678 56.1474C68.3643 53.9108 69.7456 52.8112 71.7736 52.3006C73.1924 51.9433 74.6454 51.7737 76.0903 51.5681C77.9098 51.3087 79.7244 50.9971 81.5684 50.9515C81.6628 50.9498 81.7573 50.9515 81.8518 50.9498C82.2004 51.3038 82.6451 51.4409 83.1207 51.5192C85.3915 51.896 87.6801 52.1489 89.9606 52.4474C91.6482 52.6677 93.3406 52.8406 95.0331 53.0086C95.4126 53.0462 95.8231 52.8683 96.1766 53.144C96.6327 55.9745 95.7987 58.6288 92.5571 59.2748C90.8402 59.6174 89.0989 59.7316 87.3543 59.849C85.7645 59.9567 84.1763 59.9029 82.5881 59.929C81.9202 59.9388 81.9202 59.9339 81.8746 60.6011C81.8697 60.6794 81.8616 60.7577 81.8469 60.836C81.6466 62.828 81.4429 64.8199 81.2263 66.8102C81.0781 68.1675 80.8533 69.5117 80.5975 70.8527L80.5959 70.8495Z" fill="#55408B"/>
<path d="M81.7525 50.7688C80.4493 50.7215 79.1445 50.71 77.8528 50.5078C77.4977 50.4523 77.2582 50.2696 77.097 49.9449C76.8396 49.4278 76.6197 48.8959 76.2662 48.4212C75.8818 47.9024 76.03 47.4456 76.5839 47.1618C76.7158 47.0949 76.6832 47.0345 76.649 46.9448C76.1832 45.7262 76.6099 44.5923 76.9878 43.4569C77.6801 41.3785 78.5679 39.3784 79.5013 37.4012C80.1024 36.1287 80.5438 34.804 80.9575 33.4696C81.2084 32.6588 81.6205 31.954 82.1027 31.277C82.2737 31.1106 82.5018 31.0518 82.7494 30.9686C82.549 30.5999 82.2639 30.2932 82.2265 29.8756C81.6954 28.3095 81.772 26.7156 81.9984 25.112C82.0457 24.771 82.0163 24.4186 82.0229 24.0728C81.8404 23.244 82.1222 22.567 82.6744 21.9585C83.3521 21.2097 84.2349 20.7333 85.0331 20.146C85.7922 19.5881 85.8134 19.593 86.2369 20.4087C86.6327 21.1722 87.2664 21.7252 87.8805 22.2848C88.9409 23.2489 90.0958 24.1103 91.0846 25.1544C91.2442 25.3224 91.3712 25.3175 91.513 25.1511C91.5439 25.1152 91.5781 25.0826 91.614 25.0516C91.9577 24.7531 92.3177 24.5018 92.808 24.6894C93.3341 24.8901 93.6013 25.293 93.6778 25.833C93.8244 26.8641 93.0849 28.0207 92.0456 28.2442C91.5097 28.3601 91.3093 28.608 91.2768 29.117C91.2084 30.1448 91.1399 31.1628 91.6693 32.1188C91.8664 32.4744 92.1727 32.7224 92.4121 33.034C92.4887 33.158 92.4854 33.2868 92.3763 33.3782C91.4136 34.1841 90.6057 35.1727 89.4524 35.7519C88.7601 36.0993 88.0385 36.1059 87.3299 35.9835C86.5447 35.8481 86.0838 35.2755 85.8915 34.5153C85.7922 34.1221 85.5332 33.7045 85.9225 33.3162C85.9893 33.2493 86.0675 33.1955 86.1522 33.1514C86.3965 33.0242 86.4845 32.8349 86.4144 32.5625C86.333 32.2493 86.0968 32.3178 85.8801 32.3276C85.7857 32.3308 85.6912 32.3357 85.5967 32.3276C85.5169 32.3211 85.4257 32.3211 85.3719 32.2656C84.849 31.7142 84.147 31.52 83.4026 31.2819C83.9206 31.4613 84.3946 31.5935 84.8246 31.8382C85.2155 32.06 85.4762 32.3782 85.5804 32.8186C85.6081 32.9394 85.6456 33.0845 85.5006 33.1531C85.3817 33.2102 85.2905 33.109 85.2188 33.0291C84.8067 32.5739 84.2691 32.3472 83.8831 32.2362C84.3864 32.3537 84.9582 32.7142 85.4322 33.2412C85.5544 33.3782 85.6358 33.5201 85.6374 33.7028C85.6391 33.8888 85.5886 34.0471 85.4012 34.127C85.2318 34.2004 85.0885 34.1466 84.9761 34.0177C84.608 33.5952 84.1144 33.4173 83.5964 33.2819C84.1486 33.4239 84.6503 33.6457 85.0445 34.0878C85.297 34.3701 85.3084 34.6474 85.1308 34.9492C84.9761 35.2151 84.7448 35.4109 84.4711 35.543C84.0248 35.76 83.4596 35.3766 83.4693 34.8823C83.4726 34.6817 83.5899 34.6197 83.7202 34.6197C83.4742 34.574 83.3732 34.7127 83.383 34.9867C83.4074 35.6605 83.225 36.2625 82.7477 36.7617C82.6142 36.902 82.5653 37.0912 82.5441 37.2821C82.233 40.0897 81.7573 42.8696 81.0878 45.6136C81.0211 45.8893 81.1709 46.1846 80.9771 46.4342C80.8191 46.5631 80.6708 46.457 80.5356 46.3999C79.7375 46.0671 78.9018 46.1046 78.0727 46.1601C77.4391 46.2025 77.2957 46.4325 77.4032 47.0753C77.4277 47.2238 77.356 47.2972 77.2648 47.3755C77.7909 47.4995 78.3154 47.5664 78.866 47.5142C78.6884 47.3788 78.4946 47.4163 78.3105 47.4049C78.1851 47.3967 78.0564 47.4032 77.9359 47.3624C77.6264 47.2564 77.3169 47.1063 77.3332 46.7311C77.3495 46.3787 77.6443 46.2254 77.9571 46.1895C78.8041 46.0916 79.6479 46.0834 80.4689 46.3787C80.622 46.4342 80.7702 46.5745 80.9543 46.457C80.982 46.4179 81.0194 46.3967 81.0683 46.395C81.5374 46.7311 81.9789 47.1194 82.5865 47.1928C83.2755 47.1079 83.9694 47.0884 84.6584 47.0639C86.359 47.0052 88.0499 46.86 89.7407 46.6789C90.0991 46.6414 90.2603 46.4782 90.3646 46.152C90.6676 45.2057 90.9347 44.2481 91.2703 43.3117C91.469 42.7554 91.539 42.7065 92.1385 42.7701C93.4318 42.9104 94.6763 43.253 95.8769 43.7424C96.6034 44.0377 96.6604 44.2188 96.3558 44.9284C95.7449 46.3477 95.1813 47.7899 94.3652 49.1097C94.1828 49.4049 93.9857 49.6888 93.7739 49.9645C93.0556 50.9025 92.0929 51.312 90.9363 51.2876C89.5208 51.2582 88.1069 51.1946 86.693 51.1375C85.6391 51.0951 84.5917 50.9629 83.5394 50.9123C82.9432 50.883 82.3486 50.8226 81.7541 50.7671L81.7525 50.7688Z" fill="#FFCDBA"/>
<path d="M80.9885 46.4243C80.8061 45.8843 81.0032 45.3656 81.1237 44.8582C81.6124 42.7815 82.0359 40.6965 82.2265 38.5676C82.2689 38.101 82.3422 37.6344 82.4203 37.1727C82.4562 36.9574 82.5295 36.7518 82.707 36.5936C83.1094 36.2331 83.2413 35.7518 83.256 35.2347C83.2804 34.4173 83.3277 34.3831 84.1682 34.6767C84.1258 34.7077 84.0949 34.7355 84.0607 34.755C83.9027 34.8431 83.6632 34.5217 83.5785 34.8056C83.5264 34.9818 83.6225 35.2135 83.7984 35.3472C83.976 35.4826 84.1682 35.6066 84.4011 35.4614C84.6292 35.3195 84.854 35.1678 85.0071 34.9426C85.1944 34.6686 85.2123 34.4173 84.9615 34.1351C84.5477 33.6702 84.0069 33.4907 83.4384 33.3471C83.3358 33.321 83.1892 33.321 83.2446 33.1595C83.2788 33.0584 83.3993 33.0502 83.4905 33.0926C83.9857 33.3194 84.5461 33.4206 84.9435 33.8431C85.0739 33.9818 85.2221 34.2248 85.4387 33.9866C85.6179 33.7893 85.5739 33.556 85.398 33.3504C84.955 32.8333 84.3995 32.4988 83.7544 32.2933C83.5899 32.2411 83.3684 32.2557 83.2641 31.9556C84.1307 32.166 84.8963 32.4385 85.4843 33.1024C85.4192 32.5788 85.2742 32.1432 84.7464 31.9017C84.2724 31.6848 83.787 31.5102 83.2902 31.3634C83.1794 31.3308 83.0442 31.3193 83.1012 31.1692C83.1468 31.0485 83.2641 31.1285 83.3472 31.1578C84.0248 31.396 84.7627 31.5086 85.2726 32.0893C85.3654 32.1954 85.486 32.2133 85.6163 32.2084C85.8997 32.5461 85.8883 32.9817 86.0007 33.3765C85.6847 33.6473 85.8834 33.9605 85.9421 34.2526C86.1115 35.0862 86.5366 35.7485 87.4211 35.8888C88.291 36.0275 89.138 35.8905 89.9004 35.3701C90.7995 34.755 91.5032 33.9132 92.3649 33.2558C92.3894 33.2378 92.3568 33.1432 92.3503 33.0845C92.5197 32.8855 92.7233 32.9589 92.9155 33.0258C93.8228 33.3455 94.7383 33.6424 95.6277 34.0111C97.5514 34.8089 98.4099 36.145 98.4506 38.2348C98.4832 39.9347 98.1004 41.5546 97.6557 43.1697C97.5938 43.3981 97.5123 43.62 97.496 43.8582C96.7728 44.7783 96.9422 45.8925 96.8542 46.9415C96.7256 48.4929 96.7028 50.0509 96.5757 51.6024C96.548 51.9482 96.5806 52.2957 96.5464 52.6416C96.5203 52.9058 96.4568 53.1505 96.1131 53.1456C92.6337 53.0429 89.2064 52.4621 85.7629 52.0314C84.6862 51.896 83.6078 51.7769 82.5474 51.5371C82.2167 51.4621 81.9007 51.3593 81.8518 50.9449C81.8437 50.8731 81.8356 50.7997 81.7525 50.7703C81.8828 50.6366 82.0522 50.6839 82.2004 50.6953C83.7952 50.8111 85.3899 50.9335 86.9846 51.0558C87.0318 51.0591 87.0791 51.0673 87.1263 51.0656C88.3708 51.0134 89.6104 51.1798 90.8549 51.1554C91.2915 51.1472 91.7378 51.1129 92.1597 51.0085C92.9237 50.8209 93.414 50.232 93.8505 49.6382C94.8099 48.3347 95.3964 46.8322 96.03 45.3574C96.1359 45.1111 96.2076 44.8484 96.3411 44.62C96.5252 44.3052 96.4324 44.142 96.1261 44.005C94.8686 43.4487 93.5524 43.124 92.1955 42.9022C91.6319 42.8092 91.4706 43.0066 91.3387 43.4878C91.0683 44.4732 90.7393 45.4422 90.4379 46.4178C90.3597 46.669 90.2278 46.7881 89.9362 46.8142C88.1069 46.9757 86.2825 47.1454 84.4451 47.2172C83.7952 47.2433 83.1208 47.1634 82.479 47.3656C82.3226 47.2156 82.2754 47.0198 82.2477 46.8142C82.1451 46.0393 82.0538 45.2628 82.0718 44.4781C82.075 44.3068 82.0913 44.1339 82.031 43.9675C82.0082 43.8777 82.0066 43.7815 81.9838 43.6901C81.9642 43.6135 81.9382 43.5303 81.847 43.5205C81.7541 43.5107 81.702 43.5857 81.6873 43.6624C81.544 44.4275 81.2557 45.1649 81.2605 45.9578C81.2491 46.1339 81.2247 46.3036 81.0651 46.4162C81.0374 46.4194 81.0113 46.4211 80.9836 46.4227H80.9853L80.9885 46.4243Z" fill="#FFA381"/>
<path d="M27.1037 43.217C27.1363 43.465 27.3318 43.3769 27.4686 43.385C27.998 43.4177 28.5307 43.3638 29.0568 43.4715C29.6481 43.5922 29.7491 43.8435 29.3842 44.3312C29.2393 44.4911 29.0438 44.4781 28.8581 44.4748C28.1316 44.4683 27.4083 44.4748 26.8105 44.5743C27.7797 44.4683 28.8727 44.4275 29.9674 44.5254C30.2231 44.6167 30.3046 44.8207 30.2378 45.0539C30.1384 45.3982 29.8485 45.5254 29.5227 45.5825C29.3696 45.6739 29.1953 45.7032 29.0259 45.7016C28.2261 45.6951 27.4295 45.7212 26.6802 45.8207C27.4719 45.7881 28.3059 45.6885 29.1448 45.6967C29.2718 45.6967 29.3924 45.669 29.5015 45.7571C29.7915 46.1682 29.5357 46.3852 29.2067 46.5597C28.9591 46.6919 28.6431 46.7131 28.7164 47.1535C28.7538 47.3819 28.4704 47.4863 28.2635 47.5679C27.752 47.7735 27.2145 47.9105 26.6737 47.9758C26.0238 48.0541 25.4976 48.3591 24.9747 48.7034C24.7841 49.0884 24.4453 49.1813 24.0479 49.2384C21.7543 49.5664 19.4657 49.922 17.1673 50.2075C15.4341 50.4228 13.6912 50.586 11.9384 50.5501C11.8277 50.5484 11.7169 50.555 11.6159 50.4979C11.2217 50.3315 10.7949 50.3625 10.3861 50.2891C9.01778 50.0427 8.23264 49.0508 8.19355 47.6381C8.1512 46.0572 8.45581 44.5188 8.70829 42.9756C9.08783 40.6622 9.49669 38.3522 9.9984 36.0601C10.0587 35.786 10.1255 35.512 10.189 35.2395C10.417 34.5853 10.6451 33.9311 10.8715 33.277C11.1924 32.4743 11.7902 31.8952 12.4434 31.3699C13.1276 30.8201 13.9355 30.502 14.7483 30.1985C14.8396 30.1643 14.934 30.1708 15.0204 30.2295C15.2044 30.3682 15.2973 30.5689 15.3804 30.7744C16.1671 32.7076 16.3805 34.7273 16.2746 36.7926C16.2649 36.9835 16.216 37.1646 16.1313 37.3359C15.8202 37.6899 15.8234 38.1499 15.7224 38.5724C15.2305 40.6574 14.6425 42.7178 14.1 44.7913C14.0186 45.1045 13.8036 45.2252 13.5071 45.222C13.0673 45.2155 12.6405 45.3003 12.2105 45.3721C14.1782 45.0295 16.1508 45.4585 18.1186 45.3378C19.3468 45.3786 20.5734 45.4683 21.8048 45.4406C22.1714 45.4324 22.4694 45.3427 22.7529 45.1029C23.1862 44.7375 23.6504 44.4063 24.1179 44.0833C25.0187 43.4601 26.0172 43.186 27.1054 43.2121L27.1037 43.217Z" fill="#FFCDBA"/>
<path d="M16.0498 37.3343C16.3462 35.0732 16.0612 32.8839 15.2272 30.7663C15.1539 30.5803 15.0187 30.4172 14.9128 30.2426C14.9519 30.0436 15.1311 29.9979 15.2711 29.9082C15.812 29.6553 16.3804 29.4759 16.9327 29.2508C17.0776 29.192 17.2324 29.1529 17.3871 29.2361C17.8139 29.8609 18.0582 30.5934 18.5453 31.1823C19.7279 32.6179 21.1369 33.5886 23.0916 33.6147C24.4192 33.6327 25.4275 32.7648 25.0545 31.1073C24.9339 30.5689 24.7515 30.0371 24.2433 29.7092C24.1863 29.6733 24.1667 29.6129 24.1895 29.546C25.4438 29.6602 26.6867 29.8119 27.7845 30.5086C28.0957 31.091 28.1413 31.7451 28.2651 32.3732C28.6039 34.0862 28.8352 35.8269 29.5682 37.4387C29.6073 37.5235 29.6366 37.6165 29.5943 37.7111C29.2082 37.9526 29.0535 38.3474 28.8955 38.7454C28.3009 40.2365 27.7015 41.726 27.1037 43.2171C27.0157 43.3394 26.9114 43.4096 26.7486 43.3949C25.5106 43.2921 24.5495 43.9251 23.6112 44.6037C23.2561 44.8615 22.9157 45.1421 22.5883 45.4325C22.4254 45.5777 22.2478 45.5695 22.0605 45.5744C20.7541 45.6119 19.451 45.5255 18.1462 45.4749C17.5125 45.3672 16.8691 45.3754 16.2306 45.3427C15.7289 45.3166 15.2353 45.2188 14.7287 45.2237C14.1895 45.2285 14.0837 45.0719 14.2189 44.5515C14.4713 43.576 14.7157 42.5988 14.9861 41.6281C15.3412 40.3556 15.6409 39.0684 15.9032 37.7747C15.9357 37.6181 15.9667 37.468 16.0498 37.331V37.3343Z" fill="#FFC446"/>
<path d="M15.2418 30.0338C15.1327 30.1039 15.0219 30.1741 14.9128 30.2442C13.5852 30.7549 12.3146 31.3503 11.4301 32.5412C11.2461 32.7892 11.1483 33.104 10.8698 33.2802C9.67088 32.7468 8.80104 31.9213 8.52738 30.5868C8.34494 29.6977 8.54367 28.8673 8.99977 28.099C9.24736 27.6813 9.50148 27.2588 9.80934 26.8836C11.0913 25.3256 11.2575 23.5702 10.8079 21.6795C10.5684 20.6745 10.2459 19.6875 10.1254 18.6549C9.91522 16.8505 10.6271 14.2827 12.6909 13.2958C14.1749 12.5861 15.8869 12.945 16.7062 14.149C16.8886 14.4181 16.9163 14.5862 16.6378 14.8472C15.9765 15.4639 15.6572 16.2812 15.4943 17.1801C16.6525 14.3904 18.7424 12.9107 21.7233 12.6709C22.1077 12.6269 22.4938 12.6302 22.8782 12.6693C24.6814 12.7998 26.2941 13.3529 27.3903 14.8864C28.2455 16.0838 28.3661 17.4297 27.9702 18.8327C27.7063 18.7935 27.7601 18.5553 27.721 18.3971C27.5288 17.6255 27.1672 16.9664 26.571 16.4264C25.7549 15.6874 24.7596 15.5242 23.836 16.1229C21.8813 17.3922 20.324 19.0366 19.3418 21.1786C19.0763 21.7561 19.0128 21.7839 18.586 21.3173C18.2586 20.96 17.8856 20.7708 17.4083 20.9062C16.9522 21.0351 16.8023 21.4364 16.6997 21.8393C16.4342 22.8883 17.0581 23.9487 18.1071 24.213C18.4068 24.288 18.5534 24.43 18.5339 24.7285C18.5111 25.0825 18.6332 25.4545 18.4215 25.7889C18.2667 25.8313 18.1413 25.7612 18.0289 25.6747C17.3187 25.1217 16.6313 24.5474 16.2175 23.6779C16.2029 23.6534 16.1475 23.7709 16.1915 23.7268C16.2061 23.7138 16.2175 23.7187 16.2306 23.7383C16.4228 24.0058 16.4374 24.3239 16.483 24.6339C16.7013 26.1527 16.4993 27.6177 15.9211 29.0337C15.7663 29.4139 15.5806 29.7777 15.2402 30.0338H15.2418Z" fill="#11051D"/>
<path d="M18.4101 25.7678C18.415 25.5785 18.4036 25.3876 18.4264 25.2C18.4818 24.7057 18.4346 24.4039 17.8091 24.2343C16.7324 23.9422 16.2078 22.4985 16.6819 21.4642C17.0679 20.6224 17.9052 20.4592 18.5568 21.1069C18.7099 21.2586 18.8353 21.4397 19.0096 21.6501C19.1399 21.3516 19.2458 21.0677 19.3826 20.7986C20.3486 18.9029 21.7413 17.3759 23.4924 16.1899C24.8933 15.2404 26.3837 15.6091 27.291 17.0513C27.6364 17.601 27.7879 18.221 27.9687 18.8311C27.9573 20.531 28.3482 22.2048 28.2733 23.9096C28.2375 24.7498 28.0957 25.5622 27.7781 26.3404C27.1021 27.9962 25.7191 28.9033 24.0837 28.7793C23.6846 28.8707 23.3067 28.7646 22.9337 28.6406C22.4271 28.471 21.9465 28.2409 21.4758 27.9881C21.3243 27.9065 21.1761 27.8217 21.1142 27.7629C21.8912 28.6879 22.8327 29.2867 24.0104 29.4531C24.069 29.4841 24.1277 29.5151 24.1847 29.546C24.8558 29.8462 25.0594 30.4874 25.18 31.1057C25.4569 32.5217 24.9845 33.4695 23.5983 33.7061C22.6437 33.8692 21.6941 33.6751 20.8144 33.2232C19.5064 32.5494 18.4883 31.5853 17.827 30.2606C17.6608 29.9278 17.4051 29.6309 17.3758 29.2361C18.1316 28.378 18.1235 27.2915 18.2701 26.2506C18.2929 26.0842 18.2701 25.9015 18.4069 25.7678H18.4101Z" fill="#FFCDBA"/>
<path d="M96.1098 53.144C96.3183 53.0331 96.4112 52.8814 96.4226 52.622C96.5383 50.0754 96.6604 47.5288 96.8152 44.9855C96.8429 44.5368 97.1361 44.1567 97.4293 43.8109C97.4586 43.6575 97.5791 43.5776 97.6899 43.4911C98.9002 42.5482 99.4052 41.2577 99.5078 39.7716C99.529 39.4583 99.5436 39.1467 99.7049 38.8645C101.133 38.8139 102.023 39.6394 102 41.0571C101.977 42.4715 101.782 43.8729 101.65 45.2807C101.537 46.4847 101.448 47.6903 101.337 48.8943C101.228 50.0819 101.102 51.2679 100.99 52.4556C100.912 53.299 100.847 54.1457 100.772 54.9891C100.679 56.0365 100.615 57.0887 100.475 58.1295C100.383 58.8196 99.9297 59.3139 99.3514 59.6859C99.239 59.7577 99.0712 59.7756 99.0631 59.96C98.5353 60.2552 97.931 60.3042 97.3674 60.482C96.162 60.7414 94.9338 60.8262 93.7121 60.9698C92.3975 61.1248 91.07 61.1133 89.7522 61.2324C89.4524 61.2536 89.1527 61.2455 88.853 61.2455C88.5614 61.2455 88.4132 61.3793 88.4083 61.6729C88.4067 61.8148 88.4067 61.9568 88.4067 62.0987C88.4067 65.1135 88.4067 68.1267 88.405 71.1415C88.405 71.3764 88.4376 71.6162 88.3464 71.8446C88.3154 71.905 88.2666 71.9343 88.1998 71.9327C88.1884 71.3568 88.1786 70.7809 88.1672 70.2051C88.019 69.9636 88.0287 69.6944 88.0287 69.4269C88.0287 67.0027 88.0287 64.58 88.0287 62.1558C88.0287 61.5685 87.7372 61.271 87.154 61.2634C87.0758 61.2634 86.9976 61.2634 86.9194 61.252C86.351 61.2536 85.7808 61.2716 85.214 61.1949C84.2073 61.1509 83.2006 61.1199 82.2005 60.9877C82.0327 60.9649 81.8486 60.9698 81.7264 60.8164C81.7275 60.1497 82.0495 59.8169 82.6924 59.818C85.6538 59.8262 88.6086 59.7381 91.544 59.3107C92.0554 59.2356 92.5702 59.1459 93.067 59.0056C94.8947 58.4933 96.0528 56.9892 96.1261 55.0348C96.1506 54.4051 96.1147 53.7737 96.1082 53.144H96.1098Z" fill="#E6D5F8"/>
<path d="M99.7049 38.8645C99.6853 40.0228 99.5469 41.1566 98.9735 42.1925C98.6005 42.8679 98.1102 43.4291 97.4293 43.8092C97.2354 43.6412 97.4228 43.4846 97.4635 43.341C97.9359 41.6901 98.3431 40.0326 98.3121 38.2935C98.2731 36.1254 97.4716 34.9035 95.4599 34.0943C94.5721 33.737 93.6632 33.4352 92.7673 33.1008C92.6256 33.0486 92.4887 33.0829 92.3487 33.0812C91.0488 32.0535 91.0015 30.6423 91.1498 29.1692C91.1595 29.0762 91.1905 28.9832 91.197 28.8902C91.2247 28.453 91.3387 28.2083 91.886 28.1561C92.9123 28.0566 93.7267 26.8526 93.5606 25.8248C93.4808 25.3305 93.2495 24.9259 92.7282 24.7807C92.2314 24.6421 91.8518 24.8851 91.5814 25.2506C91.3452 25.5687 91.2328 25.5312 90.9869 25.2571C89.9395 24.0939 88.664 23.1771 87.5156 22.1216C86.7777 21.4429 86.1148 20.7153 85.802 19.7055C85.0869 20.3417 84.2708 20.7838 83.528 21.3336C82.5995 22.0188 82.0034 22.8704 82.0262 24.0711C81.8144 23.6534 81.7623 23.1983 81.7248 22.7399C81.6825 22.4185 81.689 22.0955 81.7216 21.7741C81.9512 19.7675 82.9693 18.3286 84.867 17.6206C86.7044 16.9338 88.6005 16.9093 90.4591 17.5358C92.5702 18.2487 93.7137 19.8931 94.432 21.9013C94.9582 23.3712 95.1862 24.9112 95.5137 26.4284C96.0642 28.9865 96.983 31.4107 98.1981 33.7273C99.0289 35.3113 99.6332 36.9672 99.656 38.7862C99.656 38.8107 99.6902 38.8351 99.7098 38.8596L99.7049 38.8645Z" fill="#11051D"/>
<path d="M35.8641 46.9154C36.8235 44.5695 37.7829 42.2252 38.7391 39.8793C38.8987 39.4861 39.0584 39.0897 39.1871 38.6867C39.3662 38.1304 39.1512 37.84 38.5632 37.8139C38.1543 37.796 37.7438 37.7927 37.335 37.7829C37.7683 37.0455 38.3726 36.4468 38.9215 35.8041C39.0844 35.6132 39.2685 35.4403 39.4412 35.2559C40.0129 34.6441 40.6189 34.0862 40.5081 33.0894C40.4544 32.6131 40.7671 32.1334 41.0294 31.6979C41.4496 30.9964 41.9253 30.3307 42.4107 29.6749C42.5948 29.427 42.813 29.0942 43.1698 29.3274C43.4907 29.5363 43.2952 29.8707 43.1926 30.1415C43.0606 30.4906 42.8994 30.83 42.7495 31.1725C42.6778 31.5706 42.6778 31.9719 42.6795 32.3749C42.6795 32.8088 42.7137 33.2477 42.4612 33.6425C42.857 33.246 42.8359 32.768 42.7707 32.2754C42.7267 31.9393 42.6257 31.5951 42.8326 31.2737C44.0755 30.7043 45.2336 29.9833 46.3934 29.2671C46.6101 29.1333 46.8984 28.9327 47.0776 29.0289C47.4571 29.2345 47.8334 29.4938 48.1413 29.7908C48.3889 30.0289 48.1364 30.3422 47.9604 30.5869C47.9556 30.6081 47.9507 30.6309 47.9458 30.6521C47.8122 30.9311 47.5223 31.0127 47.2942 31.1693C46.698 31.5755 46.0953 31.9703 45.4584 32.3129C45.1489 32.4793 45.131 33.1269 45.421 33.3276C45.5659 33.4271 45.6539 33.2868 45.7451 33.2199C46.2126 32.8741 46.6915 32.5478 47.1949 32.259C47.392 32.1465 47.5744 32.0698 47.6493 32.3879C47.6493 32.631 47.4897 32.7974 47.3431 32.954C46.1002 34.2836 44.7938 35.5332 43.0688 36.2298C42.8684 36.3114 42.8016 36.4729 42.7169 36.6442C41.536 39.0293 40.3355 41.4062 38.8759 43.6363C38.0517 44.8941 37.1134 46.0508 35.8624 46.9154H35.8641Z" fill="#FFCDBA"/>
<path d="M88.0564 1.39488C89.0973 1.39977 90.1382 1.39488 91.179 1.41772C91.4674 1.42424 91.5667 1.33125 91.57 1.04739C91.5716 0.703169 91.6172 0.358946 91.6449 0.00656686C91.8778 -0.0276922 91.9707 0.172968 92.101 0.288797C93.1061 1.17627 94.0997 2.07516 95.1064 2.96101C95.3116 3.14209 95.4533 3.3036 95.196 3.53525C94.0313 4.59076 92.865 5.64301 91.6107 6.77682C91.6107 6.28577 91.596 5.90076 91.6156 5.51739C91.6302 5.22211 91.5537 5.09323 91.2247 5.10139C90.3418 5.12259 89.4573 5.12096 88.576 5.10139C88.2779 5.09486 88.1932 5.18785 88.2128 5.4766C88.2356 5.82083 88.2111 6.16994 88.2063 6.51743C87.944 6.43097 88.0059 6.19931 87.9961 6.01333C87.9603 5.36404 87.9652 5.36404 87.3853 5.17643C87.3413 5.16175 87.3055 5.12912 87.268 5.10302C86.1962 5.10465 85.1227 5.11933 84.0509 5.10139C83.7332 5.09649 83.642 5.2009 83.6567 5.50434C83.6746 5.8453 83.7528 6.36734 83.5215 6.47664C83.212 6.62347 82.9823 6.14221 82.7282 5.9285C81.8714 5.20906 81.0406 4.45699 80.1887 3.73102C79.8824 3.47 79.8368 3.27097 80.1675 2.97732C81.1954 2.06864 82.2004 1.13549 83.2169 0.212122C83.2967 0.140341 83.3667 0.0310377 83.4954 0.0701909C83.6387 0.114238 83.585 0.249643 83.6013 0.352421C83.6062 0.383417 83.6045 0.416045 83.6062 0.447041C83.6344 1.08763 83.9765 1.40902 84.6324 1.41119C85.3735 1.41282 86.1147 1.41119 86.8559 1.41445C87.0367 1.41445 87.2093 1.42261 87.2566 1.19258C87.5221 1.27415 87.8186 1.22848 88.0613 1.39977L88.0564 1.39488Z" fill="#55408B"/>
<path d="M87.2632 5.09814C88.1281 5.08509 88.1249 5.08509 88.1363 5.96441C88.1395 6.14875 88.0809 6.34289 88.2031 6.51418C88.2096 6.92366 88.234 7.33477 88.2177 7.74262C88.2063 8.03463 88.2715 8.18635 88.6005 8.14231C88.8025 8.1162 89.0094 8.12273 89.213 8.13741C89.4915 8.15699 89.6789 8.13741 89.6903 7.76546C89.6968 7.51422 89.9151 7.37392 90.1708 7.53706C90.9918 8.06074 91.8062 8.59583 92.6207 9.12929C92.826 9.26307 92.7999 9.41479 92.6158 9.53714C91.8291 10.0576 91.0439 10.578 90.2457 11.0804C89.9362 11.2746 89.7131 11.1702 89.7066 10.8047C89.7001 10.454 89.5583 10.4018 89.2521 10.4001C88.2389 10.3969 88.2389 10.3855 88.2226 11.4083C88.2226 11.4866 88.2096 11.565 88.2031 11.6433C88.1509 12.7135 88.1428 13.782 88.208 14.8522C88.1819 14.9582 88.107 14.9582 88.0223 14.9354C87.4163 14.8636 87.444 14.862 87.4098 14.2225C87.3479 13.0006 87.3902 11.777 87.3528 10.5551C87.3349 10.5013 87.3055 10.4523 87.2632 10.4132C86.5334 10.4018 85.8053 10.3887 85.0755 10.3822C84.8393 10.3806 84.5983 10.3822 84.5136 10.6775C84.4337 11.6172 84.5005 12.5585 84.4777 13.4981C84.4728 13.7021 84.5038 13.906 84.4533 14.1083C83.8408 14.2959 83.2153 14.1491 82.5963 14.1833C82.4807 14.1899 82.4399 14.0952 82.4416 13.9908C82.4676 12.6661 82.3226 11.3333 82.5083 10.0184C82.6826 8.78834 83.4694 8.17004 84.7302 8.14557C85.4714 8.13089 86.2125 8.13741 86.9537 8.15209C87.2208 8.15699 87.3023 8.07216 87.2958 7.79972C87.2697 6.90082 87.2713 6.0003 87.2632 5.1014V5.09814Z" fill="#55408B"/>
<path d="M45.9097 69.7124C47.1607 69.1887 48.314 68.5003 49.3662 67.6438C49.8289 68.1936 50.3257 68.7124 50.8779 69.174C51.8748 70.2067 53.1323 70.8071 54.4403 71.3226C54.5853 71.3797 54.7417 71.4074 54.8606 71.5183C54.9111 71.8985 54.6928 72.1448 54.4224 72.352C53.88 72.7663 53.2626 72.9556 52.5817 72.9947C51.5278 73.0567 50.5146 72.8512 49.5161 72.551C48.6121 72.2802 47.721 71.9686 46.8414 71.6244C46.5759 71.52 46.3218 71.396 46.1556 71.148C46.0905 70.6668 46.1736 70.1594 45.9097 69.7108V69.7124Z" fill="#FFCDBA"/>
<path d="M97.4406 60.3613C97.9798 60.2226 98.4962 59.9861 99.063 59.96C99.5403 62.5163 100.008 65.076 100.496 67.6307C100.775 69.0908 100.98 70.5656 101.335 72.011C101.511 73.0323 101.687 74.0535 101.86 75.0731C101.886 75.2281 101.899 75.3847 101.923 75.5397C101.969 75.8382 101.907 76.1074 101.575 76.1547C101.264 76.1988 100.961 76.0895 100.866 75.7452C100.69 75.0943 100.544 74.4352 100.386 73.7794C100.228 73.1252 100.071 72.4727 99.915 71.8185C99.4605 70.7173 99.3416 69.5329 99.0744 68.3877C98.4978 65.9178 97.9847 63.4332 97.4406 60.9551C97.3983 60.7593 97.3022 60.5603 97.4374 60.3629L97.4406 60.3613Z" fill="#55408B"/>
<path d="M29.5943 37.7127C29.0666 36.773 28.7864 35.7485 28.5714 34.7028C28.3058 33.4173 28.1234 32.1138 27.8009 30.8397C27.7748 30.7353 27.7878 30.6194 27.783 30.5101C28.8157 31.0305 29.5846 31.8316 30.1254 32.8332C30.9414 34.3455 31.3536 35.99 31.6012 37.6801C30.9317 37.6915 30.2622 37.7029 29.5927 37.7127H29.5943Z" fill="#FFCDBA"/>
<path d="M37.3463 37.8074C36.9407 37.8694 36.6182 38.0276 36.4406 38.4404C36.3657 38.6133 36.1409 38.6492 35.9438 38.6492C34.8133 38.6492 33.6828 38.6524 32.5524 38.6475C32.1859 38.6475 31.9725 38.5154 32.124 38.0929C32.1647 37.9803 32.1419 37.8433 32.1484 37.7176C32.3781 37.1662 32.7821 37.0015 33.375 37.0341C34.3328 37.0863 35.2939 37.0504 36.2549 37.0488C36.9016 37.0488 36.97 37.1303 36.8316 37.7813C37.0059 37.7894 37.1753 37.7976 37.3463 37.8057V37.8074Z" fill="#11051D"/>
<path d="M47.9621 30.5885C48.5257 30.8822 48.5697 31.1024 48.1494 31.5869C47.9768 31.7876 47.7862 31.9735 47.6689 32.215C47.5027 32.06 47.3578 32.1514 47.2046 32.246C46.8039 32.4907 46.413 32.7517 46.0204 33.0111C45.7924 33.1612 45.5774 33.37 45.3558 33.016C45.1473 32.6816 45.2141 32.4858 45.5969 32.2623C46.2599 31.874 46.9294 31.4956 47.5386 31.0225C47.6884 30.9066 47.835 30.7908 47.9328 30.6244L47.9621 30.5901V30.5885Z" fill="#FFCDBA"/>
<path d="M24.0136 29.4546C23.5575 29.6455 23.1649 29.3894 22.7952 29.2181C21.9758 28.838 21.2868 28.28 20.7264 27.3665C21.8194 28.1397 22.8929 28.6096 24.0853 28.7809C23.9631 28.9962 24.0494 29.2328 24.0136 29.4563V29.4546Z" fill="#FFB79C"/>
<path d="M47.9327 30.6228C47.8447 30.9899 47.5434 31.1775 47.2648 31.3618C46.7175 31.724 46.1653 32.0862 45.5822 32.3831C45.2205 32.5674 45.3525 32.7713 45.46 32.9818C45.6294 33.3113 45.7923 33.0307 45.9356 32.941C46.3575 32.6751 46.7648 32.3831 47.1915 32.1237C47.3512 32.0258 47.5711 31.8757 47.6688 32.215C47.6623 32.2721 47.6558 32.3309 47.6509 32.388C47.5401 32.2379 47.4489 32.2346 47.2714 32.3407C46.6915 32.6881 46.1327 33.0634 45.6017 33.481C45.3916 33.6458 45.315 33.6246 45.2841 33.3619C45.271 33.2542 45.2466 33.1335 45.1847 33.0503C44.8296 32.5772 45.0544 32.3651 45.504 32.1449C46.3657 31.7256 47.1313 31.1432 47.9311 30.6228H47.9327Z" fill="#FFB79C"/>
<path d="M42.8342 31.2753C42.7788 31.7973 42.9319 32.3063 42.9384 32.8251C42.9449 33.3537 42.6778 33.7011 42.2934 34.0111C42.2478 33.9605 42.2087 33.9263 42.2135 33.9197C42.6289 33.2672 42.5589 32.5363 42.5621 31.8153C42.5621 31.6015 42.6322 31.3878 42.6713 31.1741C42.6729 31.166 42.6957 31.1545 42.7087 31.1545C42.7234 31.1545 42.7364 31.1676 42.7511 31.1741C42.7788 31.2084 42.8065 31.241 42.8342 31.2753Z" fill="#FFB79C"/>
<path d="M88.0564 1.39487C87.7876 1.32962 87.4358 1.58575 87.2517 1.18769C87.255 1.01639 87.2761 0.843465 87.2599 0.673801C87.2273 0.347524 87.3592 0.249641 87.6834 0.246378C88.0434 0.243115 88.0434 0.440513 88.0385 0.693378C88.0336 0.926666 88.0483 1.16159 88.0548 1.39487H88.0564Z" fill="#55408B"/>
<path d="M82.2265 29.8772C82.4594 30.2736 82.6663 30.6847 82.9856 31.0453C82.6696 31.1285 82.3861 31.2019 82.1011 31.2769C82.1418 30.8104 82.1842 30.3438 82.2249 29.8772H82.2265Z" fill="#3D1B2E"/>
<path d="M22.8783 12.6677C22.4939 12.6677 22.1078 12.6677 21.7234 12.6694C22.1078 12.5405 22.4922 12.5389 22.8783 12.6677Z" fill="#9F99A8"/>
<path d="M81.7183 21.7773C81.7183 22.0987 81.7199 22.4217 81.7216 22.7431C81.6027 22.4217 81.5978 22.1004 81.7183 21.7773Z" fill="#B4A0AF"/>
<path d="M64.6228 74.8708C65.1847 74.7011 65.6343 74.3226 66.136 74.042C66.7224 73.7141 67.2844 73.3405 67.8936 73.0518C68.2618 73.0485 68.5468 73.2671 68.8433 73.4352C69.7522 73.9523 70.6677 74.0942 71.6255 73.5787C71.7607 73.5069 71.9106 73.4286 72.0686 73.5396C72.1028 73.5738 72.1435 73.6065 72.1549 73.6505C72.4302 74.6603 72.624 75.6767 72.3829 76.724C72.3536 76.8497 72.3048 76.9639 72.2054 77.0503C70.0617 77.5642 67.8969 77.9394 65.6962 78.1336C64.569 78.2331 63.4678 78.1809 62.3651 77.9786C62.1484 77.9394 61.9301 77.8905 61.7347 77.7877C61.5034 77.6654 61.3063 77.5136 61.373 77.202C61.5099 76.7224 61.878 76.463 62.2836 76.2346C62.9922 75.8349 63.6992 75.4287 64.4061 75.0258C64.973 74.9948 65.5301 75.0339 66.0562 75.2835C65.6669 75.1318 65.2955 74.9214 64.8508 75.0241C64.758 75.0453 64.6179 75.0372 64.6228 74.8675V74.8708Z" fill="#55408B"/>
<path d="M70.495 79.0194C70.5585 78.5724 70.8485 78.2723 71.158 77.9819C71.3958 77.5642 71.8128 77.3522 72.1826 77.0862C73.3244 76.0748 74.4924 75.0943 75.688 74.1432C76.2761 73.8431 76.8788 74.0437 77.3235 74.3406C77.9913 74.786 78.6298 74.7778 79.3319 74.6049C79.5258 74.5576 79.7098 74.4385 79.92 74.538C80.1969 75.5739 80.4445 76.6131 80.2343 77.698C80.0209 77.9558 79.7 78.0178 79.4182 78.1499C77.8691 78.8726 76.2516 79.3783 74.5657 79.6524C73.4417 79.8351 72.3145 79.8743 71.2036 79.566C70.9022 79.4811 70.5895 79.3832 70.495 79.0178V79.0194Z" fill="#55408B"/>
<path d="M46.1556 71.1497C47.7975 71.9213 49.4998 72.5151 51.29 72.812C52.067 72.9409 52.8635 72.954 53.6226 72.6587C54.1797 72.4417 54.6618 72.1334 54.8589 71.52C55.6131 71.7402 56.3706 71.9523 57.1215 72.1823C57.5532 72.3145 57.962 72.489 58.0174 73.029C58.0728 73.5641 57.7486 73.879 57.3577 74.1433C56.5204 74.7077 55.5626 74.8888 54.5804 74.9492C53.1241 75.0405 51.6858 74.8464 50.2523 74.6261C49.3499 74.4891 48.4491 74.3472 47.5499 74.1906C46.4863 74.003 46.0676 73.4989 46.0383 72.4172C46.0269 71.9898 46.0627 71.5673 46.1556 71.1497Z" fill="#E56990"/>
<path d="M42.2609 78.7029C42.7756 78.9737 43.2903 79.2413 43.8018 79.517C44.0087 79.6279 44.2205 79.7405 44.4062 79.8824C44.7352 80.1353 45.0659 80.4159 44.9991 80.8874C44.9339 81.3539 44.5544 81.5464 44.1586 81.69C42.9776 82.1158 41.7657 82.0424 40.57 81.8303C38.6202 81.4844 36.7274 80.9004 34.8574 80.256C33.8442 79.9069 33.5477 79.3294 33.8084 78.282C33.9029 77.9019 34.0332 77.5316 34.1472 77.1564C35.0089 77.5577 35.869 77.9623 36.7388 78.344C37.6624 78.7502 38.5958 79.1124 39.5927 79.2984C40.4674 79.4615 41.2803 79.362 42.0019 78.7992C42.0768 78.7404 42.1599 78.6964 42.2609 78.7029Z" fill="#E56990"/>
<path d="M42.2608 78.7029C41.4284 79.6149 40.3696 79.6132 39.2994 79.3685C37.5744 78.9754 36.0041 78.1695 34.4257 77.3962C34.3198 77.344 34.24 77.2363 34.1472 77.1547C34.139 76.6767 34.1048 76.1987 34.1928 75.7256C34.8329 75.7191 35.4601 75.8741 36.1068 75.848C37.0238 75.8105 37.9083 75.6473 38.7733 75.3521C39.4118 76.804 40.6075 77.6931 41.9188 78.4631C42.0377 78.5333 42.1468 78.6213 42.2592 78.7029H42.2608Z" fill="#FFCDBA"/>
<path d="M84.8475 70.3029C84.9875 67.2441 85.126 64.1868 85.2661 61.128C85.7987 61.0089 86.333 61.1427 86.8657 61.1149C87.0286 61.3205 87.009 61.5619 86.9862 61.7952C86.7468 64.2097 86.6083 66.6339 86.3493 69.0451C86.3151 69.3649 86.4373 69.7156 86.1767 69.9946C86.0577 71.2475 85.9388 72.5004 85.8183 73.7533C85.7939 74.0045 85.7564 74.2541 85.7401 74.5054C85.7157 74.8969 85.4697 75.0225 85.1325 74.998C84.7839 74.9736 84.6552 74.7501 84.6715 74.4124C84.722 73.3895 84.766 72.365 84.8116 71.3405C84.8263 70.9946 84.8344 70.6488 84.8458 70.3013L84.8475 70.3029Z" fill="#55408B"/>
<path d="M39.1284 72.277C39.0746 71.0975 39.0192 69.9196 38.9671 68.7401C38.8629 66.3469 38.8124 63.9504 38.5957 61.5621C38.5811 61.4071 38.5941 61.2488 38.5941 60.9829C39.3613 62.4202 40.254 63.6682 41.0538 64.9749C41.3421 65.4676 41.272 66.0108 41.2818 66.5459C41.2932 67.2442 41.1955 67.931 41.0619 68.6145C41.0293 68.7826 40.9984 68.9588 40.8501 69.0778C40.495 70.2622 39.9836 71.3634 39.1284 72.277Z" fill="#F77287"/>
<path d="M72.1842 77.1173C71.9089 77.486 71.5066 77.703 71.1564 77.982C70.4087 77.9917 69.6952 78.2185 68.9622 78.3262C66.9407 78.6231 64.9127 78.8335 62.8668 78.7275C62.5589 78.7112 62.2445 78.6345 61.9497 78.5383C61.1841 78.287 61.0179 77.7503 61.3747 77.2054C61.4447 77.6116 61.7738 77.7111 62.0979 77.7797C63.2072 78.0162 64.3165 78.0929 65.4616 78.0113C67.2991 77.8824 69.0974 77.5366 70.9055 77.2315C71.3274 77.1597 71.7183 76.8873 72.1728 77.0276C72.1989 77.0439 72.2087 77.0635 72.2038 77.0847C72.1989 77.1059 72.1924 77.1173 72.1842 77.1173Z" fill="#A569E5"/>
<path d="M70.495 79.0195C70.7572 79.287 71.0781 79.4273 71.443 79.5024C72.7738 79.7765 74.0851 79.6329 75.3997 79.3621C76.9781 79.0374 78.4604 78.4453 79.9248 77.7992C80.0242 77.7552 80.1317 77.7323 80.2359 77.6997C80.2701 78.1989 80.0616 78.5529 79.6039 78.7536C77.3837 79.7259 75.1064 80.4763 72.6435 80.4404C72.075 80.4323 71.513 80.3344 70.9787 80.1321C70.4086 79.9168 70.2832 79.6019 70.495 79.0179V79.0195Z" fill="#A569E5"/>
<path d="M79.9199 74.5396C79.3628 74.755 78.796 74.9165 78.1868 74.8643C78.0304 74.8512 77.8496 74.8692 77.7404 74.7533C77.3625 74.3455 76.8445 74.3177 76.3591 74.1758C76.0936 74.0975 75.9682 74.0371 75.6864 74.1448C75.8704 73.7256 75.8965 73.6538 75.5837 73.2296C76.9683 73.4711 78.3545 73.5379 79.7456 73.2818C79.7505 73.7092 79.7913 74.1301 79.9183 74.5413L79.9199 74.5396Z" fill="#FEAB8B"/>
<path d="M71.9757 73.5184C70.9218 74.202 69.863 74.2052 68.7928 73.5494C68.5012 73.37 68.1933 73.2166 67.8936 73.0518C67.8089 72.8234 67.8203 72.5869 67.8284 72.3503C69.1218 72.6505 70.4282 72.6309 71.7379 72.5053C71.9887 72.8022 72.0164 73.1514 71.9757 73.5168V73.5184Z" fill="#FEAB8B"/>
<path d="M64.6227 74.8708C65.0902 74.8986 65.5609 74.8904 65.9991 75.109C66.1652 75.1922 66.3542 75.2249 66.3835 75.5544C65.7319 75.2297 65.0625 75.158 64.406 75.0291C64.4598 74.9524 64.5037 74.8611 64.621 74.8708H64.6227Z" fill="#A569E5"/>
<path d="M67.3316 70.6716C67.3365 71.1513 67.3414 71.6309 67.3479 72.1089C67.1834 71.6309 67.2502 71.1513 67.3316 70.6716Z" fill="#A684BE"/>
<path d="M11.6126 50.5012C11.7951 50.3691 12.0052 50.405 12.2072 50.405C14.3606 50.4034 16.4929 50.1782 18.6203 49.8568C20.2589 49.6089 21.9058 49.4098 23.5461 49.1651C24.0397 49.0917 24.5919 49.1504 24.9714 48.7051C24.7955 49.1243 24.6196 49.5452 24.4437 49.9645C24.4013 50.0657 24.3085 50.1782 24.3247 50.2679C24.442 50.8944 23.968 50.8667 23.5934 50.9515C19.5096 51.87 15.5318 53.1212 11.6778 54.7592C11.4921 54.8391 11.2901 54.8929 11.1467 55.0544C10.7037 54.6629 10.935 54.1686 11.0001 53.7379C11.1647 52.653 11.4025 51.5779 11.611 50.4996L11.6126 50.5012Z" fill="#FFC446"/>
<path d="M10.9138 56.6466C10.9138 56.8718 10.9154 57.0985 10.917 57.3236C9.69697 56.7657 8.41012 56.4509 7.08417 56.2779C6.65088 56.2208 6.21921 56.1539 5.78592 56.0919C5.6947 56.0789 5.56927 56.0903 5.59208 55.9549C5.60837 55.857 5.71587 55.8146 5.81524 55.8146C6.41305 55.8146 7.01413 55.7722 7.60543 55.8309C8.74405 55.9435 9.85334 56.2045 10.9138 56.6466Z" fill="#CE4B60"/>
<path d="M11.8048 59.7936C11.9628 59.978 12.1208 60.1639 12.2788 60.3483C10.9366 60.5196 9.62695 60.8426 8.22607 61.332C8.45412 60.9731 8.6952 60.8622 8.92651 60.748C9.77355 60.3271 10.6613 60.0351 11.5963 59.8801C11.6696 59.8687 11.7364 59.823 11.8065 59.792L11.8048 59.7936Z" fill="#CD4B5F"/>
<path d="M24.7629 61.2879C25.3656 61.358 25.9667 61.4298 26.5694 61.4999C25.9911 61.6729 25.3884 61.5962 24.8004 61.6614C24.1618 61.7316 23.5086 61.6696 22.8619 61.6647C23.3066 61.5179 23.753 61.3694 24.1977 61.2226C24.3996 61.1296 24.5853 61.1671 24.7629 61.2879Z" fill="#C74659"/>
<path d="M24.7629 61.288C24.5739 61.2667 24.3866 61.2439 24.1976 61.2227C27.1558 59.4722 30.0552 57.6304 32.9303 55.7461C34.1031 54.9778 35.3883 54.7135 36.7192 55.4411C37.361 55.7918 37.7454 56.3661 38.0305 57.0023C38.3725 57.7674 38.5175 58.5864 38.5843 59.4216C38.6218 59.8899 38.7325 60.3532 38.6446 60.8915C38.423 60.3956 38.4051 59.9094 38.2992 59.4461C38.1217 58.6794 37.9458 57.9142 37.5776 57.2095C36.5579 55.2567 34.8736 54.9092 33.1209 56.03C31.7477 56.9093 30.4641 57.9273 29.0942 58.818C27.7894 59.6664 26.4635 60.4723 25.043 61.115C24.9437 61.1591 24.8573 61.2292 24.7645 61.2863L24.7629 61.288Z" fill="#442E6A"/>
<path d="M34.0185 49.3478C30.9219 49.9922 27.8156 50.5827 24.6685 50.9041C24.6587 50.8438 24.6489 50.7834 24.6392 50.723C27.7667 50.2189 30.8942 49.7132 34.0201 49.2091V49.3478H34.0185Z" fill="#432E69"/>
<path d="M29.4998 45.7587C28.4736 45.886 27.4408 45.9316 26.4065 45.9496C26.2908 45.9512 26.1198 45.9904 26.1165 45.806C26.1132 45.6543 26.2631 45.6739 26.369 45.6706C27.4196 45.638 28.467 45.5107 29.521 45.5874C29.5144 45.6461 29.5063 45.7032 29.4998 45.762V45.7587Z" fill="#FFB79C"/>
<path d="M29.9657 44.5271C28.959 44.6984 27.9311 44.532 26.9228 44.7114C26.8772 44.7196 26.8284 44.7228 26.7811 44.7147C26.5922 44.6869 26.2582 44.8109 26.2533 44.5744C26.2485 44.297 26.5759 44.4667 26.7518 44.439C27.6233 44.2987 28.5045 44.3558 29.3809 44.3313C29.5177 44.5678 29.8109 44.3378 29.9624 44.5271H29.9657Z" fill="#FFB79C"/>
<path d="M74.9142 58.9469C74.9158 59.1965 74.9174 59.4461 74.9191 59.6957C74.7334 59.6321 74.5477 59.5685 74.3604 59.5048C74.3604 59.3026 74.3604 59.1003 74.3604 58.8882C74.5526 58.9078 74.7334 58.9273 74.9126 58.9453L74.9142 58.9469Z" fill="#CBA8F0"/>
<path d="M80.9869 46.4227C80.9055 46.7751 80.6839 46.5533 80.5471 46.5076C79.7115 46.2351 78.8661 46.1519 77.9995 46.3004C77.703 46.351 77.3837 46.457 77.4245 46.7898C77.4635 47.1014 77.7779 47.2531 78.1005 47.2743C78.4556 47.2972 78.8302 47.2042 79.1299 47.488C79.1609 47.5174 79.1853 47.5533 79.2586 47.6447C78.4002 47.6593 77.5955 47.7393 76.8038 47.289C77.0156 47.1536 77.1703 47.369 77.3104 47.2352C77.0726 46.3738 77.3332 46.0753 78.2682 46.0394C79.2032 46.0018 80.1122 46.0883 80.9902 46.426L80.9885 46.4244L80.9869 46.4227Z" fill="#FFB79C"/>
<path d="M87.6329 25.5051C87.628 25.9766 87.3804 26.3616 87.0839 26.3045C86.68 26.2278 86.5855 25.8868 86.5904 25.5459C86.5953 25.1935 86.6751 24.8248 87.1019 24.7465C87.3967 24.6927 87.6361 25.0581 87.6313 25.5035L87.6329 25.5051Z" fill="#11051D"/>
<path d="M82.9758 25.3061C82.9758 25.2114 82.9546 25.1119 82.9791 25.0238C83.0458 24.7807 83.1159 24.5001 83.4384 24.5116C83.7609 24.5246 83.8147 24.7971 83.8505 25.0548C83.8636 25.1478 83.8717 25.2457 83.8603 25.337C83.8228 25.6503 83.8049 26.0516 83.3961 26.032C83.0035 26.0141 82.9807 25.6274 82.9758 25.3044V25.3061Z" fill="#11051D"/>
<path d="M85.0233 25.5426C85.0738 26.0336 84.8686 26.4219 84.5721 26.7743C84.2382 27.1724 84.2186 27.559 84.4988 27.82C84.6454 27.9571 84.8132 27.9424 84.9842 27.9456C85.1129 27.9473 85.2823 27.9522 85.2888 28.099C85.2986 28.2931 85.108 28.2115 84.9989 28.2279C84.6096 28.285 84.261 28.2001 84.0737 27.8282C83.9059 27.497 84.0378 27.1854 84.2528 26.913C84.5803 26.497 84.8034 26.0255 85.0233 25.5426Z" fill="#11051D"/>
<path d="M86.6865 23.3174C87.3153 23.4234 87.8984 23.6372 88.4083 24.032C88.5256 24.1233 88.6314 24.2375 88.5191 24.3876C88.4115 24.5328 88.291 24.4284 88.1916 24.3582C87.7209 24.0303 87.2208 23.7807 86.6409 23.7236C86.4894 23.7089 86.3444 23.6616 86.3835 23.4675C86.4161 23.3125 86.5529 23.3027 86.6865 23.3174Z" fill="#11051D"/>
<path d="M85.999 33.3765C85.657 33.0584 85.7449 32.5967 85.6146 32.2084C85.6928 32.2052 85.771 32.2052 85.8492 32.2003C86.46 32.1627 86.5659 32.2606 86.5741 32.8577C86.5789 33.2509 86.1685 33.1775 85.999 33.3765Z" fill="#472136"/>
<path d="M85.0591 29.3748C85.4876 29.4547 85.8687 29.6407 86.2597 29.7957C86.3297 29.8234 86.3883 29.8952 86.3444 29.9865C86.289 30.1007 86.1961 30.0648 86.1033 30.042C85.6961 29.9474 85.3247 29.7369 84.8848 29.7304C84.6715 29.7271 84.2838 29.9474 84.261 29.6423C84.2382 29.347 84.6829 29.5379 84.8881 29.4139C84.9386 29.3829 85.0086 29.3862 85.0608 29.3764L85.0591 29.3748Z" fill="#11051D"/>
<path d="M83.7772 23.5164C83.4417 23.4854 83.1289 23.5718 82.8341 23.7252C82.7168 23.7856 82.5881 23.8394 82.5164 23.6844C82.4513 23.5408 82.5588 23.4528 82.6744 23.3891C83.1142 23.1461 83.5931 23.1053 84.0802 23.1232C84.2284 23.1281 84.3131 23.2146 84.3017 23.3647C84.2903 23.5131 84.1698 23.5147 84.0574 23.5164C83.9646 23.5164 83.8701 23.5164 83.7772 23.5164Z" fill="#11051D"/>
<path d="M82.1239 43.8615C81.7411 44.532 81.5912 45.3069 81.1889 45.9692C80.9576 45.5565 81.2768 45.1894 81.2997 44.7963C81.3192 44.4602 81.4463 44.1307 81.5326 43.7979C81.5815 43.6086 81.4805 43.2954 81.8307 43.3231C82.1597 43.3492 82.1288 43.6233 82.1239 43.8599V43.8615Z" fill="#FFCDBA"/>
<path d="M16.0498 37.3342C15.9945 38.4044 15.6866 39.4273 15.4309 40.4567C15.0823 41.8695 14.7076 43.2757 14.3134 44.6755C14.2026 45.067 14.3558 45.098 14.6669 45.1013C15.7941 45.1159 16.9067 45.3068 18.0274 45.4031C18.0681 45.4063 18.1055 45.4504 18.1446 45.4765C16.8236 45.5173 15.5042 45.4357 14.1847 45.3835C13.4615 45.3558 12.7431 45.4112 12.0329 45.5613C11.9466 45.5793 11.8505 45.5532 11.6843 45.5417C12.0671 45.1159 12.5525 45.173 12.9647 45.1143C13.9241 44.9805 13.9241 45.0083 14.1587 44.0719C14.6881 41.9576 15.3266 39.871 15.7615 37.7339C15.8006 37.5447 15.8821 37.4158 16.0498 37.3342Z" fill="#FFB79C"/>
<path d="M24.9274 26.634C23.9908 26.6291 23.3196 26.2213 23.0997 25.6829C23.0395 25.5345 22.9792 25.3632 23.0883 25.2359C23.2024 25.1054 23.3457 25.2229 23.4728 25.2767C24.2416 25.603 25.0284 25.7726 25.8608 25.5638C25.9634 25.5377 26.0839 25.4822 26.1572 25.6062C26.2289 25.727 26.1165 25.815 26.0611 25.8999C25.7304 26.3958 25.2581 26.6307 24.9258 26.6356L24.9274 26.634Z" fill="#11051D"/>
<path d="M22.6633 21.5409C22.6633 21.1591 22.761 20.8263 23.1112 20.6142C23.2627 20.5213 23.4061 20.58 23.494 20.6828C23.7514 20.9846 23.7612 21.3386 23.6455 21.7056C23.5527 22.0009 23.4403 22.3207 23.0591 22.2505C22.6942 22.1836 22.66 21.8557 22.6633 21.5409Z" fill="#11051D"/>
<path d="M25.2532 24.5507C25.364 24.3843 25.5138 24.3615 25.6344 24.2913C26.1214 24.0058 26.1947 23.5751 25.7989 23.1722C25.4454 22.8116 25.2369 22.3842 25.1033 21.9062C25.061 21.7578 25.0154 21.5946 25.1929 21.5506C25.3737 21.5065 25.3526 21.7202 25.3786 21.8181C25.5171 22.3304 25.7207 22.779 26.1833 23.1037C26.483 23.3141 26.5091 23.6436 26.3185 23.9862C26.0481 24.4724 25.7321 24.6616 25.2532 24.5507Z" fill="#11051D"/>
<path d="M27.2339 21.3826C27.1949 21.7024 27.2177 22.1412 26.7941 22.1396C26.413 22.138 26.3934 21.7073 26.3771 21.4006C26.3576 21.0449 26.3299 20.5392 26.7746 20.5278C27.216 20.5164 27.1932 21.0237 27.2339 21.3826Z" fill="#11051D"/>
<path d="M23.051 18.8196C23.2513 18.8376 23.4598 18.8099 23.6455 18.9273C23.7433 18.9877 23.8443 19.0529 23.8019 19.1834C23.7628 19.3042 23.6504 19.358 23.5348 19.3172C22.8506 19.0807 22.3049 19.2813 21.857 19.8229C21.7837 19.9127 21.6843 19.973 21.5703 19.8931C21.4286 19.7936 21.4856 19.6647 21.5572 19.5619C21.9189 19.0464 22.4124 18.7854 23.051 18.8196Z" fill="#11051D"/>
<path d="M26.5124 18.5848C26.8626 18.6419 27.221 18.7022 27.5012 18.9616C27.6103 19.0628 27.695 19.1884 27.5924 19.3336C27.4784 19.4951 27.3529 19.4151 27.2324 19.3221C26.988 19.1329 26.7128 19.035 26.3984 19.0595C26.242 19.0725 26.0286 19.208 25.9895 18.9257C25.9537 18.6631 26.1785 18.6386 26.3609 18.5929C26.4065 18.5815 26.4554 18.5864 26.5108 18.5831L26.5124 18.5848Z" fill="#11051D"/>
<path d="M47.4636 29.7842C47.3821 29.8723 47.317 29.9653 47.2306 30.0305C46.4146 30.6521 45.5496 31.1937 44.626 31.6423C44.525 31.6913 44.3833 31.8218 44.31 31.6456C44.2579 31.5167 44.4207 31.4923 44.5169 31.4449C45.4339 30.9882 46.3087 30.4645 47.0954 29.8005C47.1785 29.7304 47.2534 29.6341 47.3805 29.6749C47.4131 29.6847 47.431 29.7401 47.4619 29.7842H47.4636Z" fill="#FFB79C"/>
<path d="M75.53 76.7126C74.9876 76.4516 74.4223 76.3048 73.8082 76.233C74.3018 75.9182 75.2531 76.1759 75.53 76.7126Z" fill="#A569E5"/>
<path d="M88.1786 74.2003C88.1786 70.0713 88.1786 65.8329 88.1786 61.5962C88.1786 61.2047 88.3936 61.0089 88.8236 61.0089C89.4393 61.0089 89.7488 61.2917 89.7521 61.8572C89.7521 61.9975 89.7244 62.1411 89.7879 62.2781C89.7521 63.5343 89.7212 64.7888 89.6772 66.045C89.6283 67.4415 89.568 68.8379 89.5126 70.236C89.4312 72.3422 89.3514 74.4499 89.265 76.556C89.2504 76.9019 89.208 77.2461 89.1803 77.5903C89.1543 77.9035 89.0419 78.1646 88.6298 78.1401C88.2274 78.1156 88.0026 77.9166 88.0075 77.5251" fill="#55408B"/>
</g>
<defs>
<clipPath id="clip0_153_9865">
<rect width="102" height="82" fill="white"/>
</clipPath>
</defs>
</svg>
