<svg width="116" height="83" viewBox="0 0 116 83" fill="none" xmlns="http://www.w3.org/2000/svg">
<g clip-path="url(#clip0_153_9685)">
<path d="M113.783 70.6786C112.468 72.8863 110.655 74.5422 108.302 75.5885C106.644 76.3249 104.898 76.7396 103.103 76.9699C100.462 77.3093 97.8074 77.4111 95.1513 77.33C92.7404 77.2576 90.3309 77.144 87.9274 76.9005C85.3363 76.6378 82.7629 76.2733 80.2027 75.8099C80.1407 75.7981 80.0742 75.804 80.0092 75.8025C79.8837 75.5767 79.9915 75.3627 80.055 75.1517C81.0492 71.8208 81.9696 68.4708 82.7023 65.072C82.8855 64.2234 83.0554 63.3704 83.1484 62.5056C83.1662 62.302 83.1603 62.0865 83.3907 61.9802C84.3509 61.8622 85.3156 61.8976 86.2773 61.9537C87.5758 62.0304 88.8699 62.1736 90.1655 62.299C90.5319 62.3344 90.8908 62.4481 91.2646 62.4156C92.1406 62.5499 93.0152 62.696 93.8897 62.8333C95.9431 63.1609 97.995 63.3601 99.9894 62.5396C101.292 62.0039 102.264 61.0977 102.901 59.8344C103.006 59.6249 103.044 59.3651 103.284 59.2382C103.526 59.4006 103.79 59.495 104.08 59.5481C105.055 59.7282 105.966 60.0765 106.798 60.624C106.913 60.6993 107.017 60.8203 107.222 60.7849C107.117 60.4661 106.86 60.3052 106.615 60.1532C105.782 59.6382 104.867 59.3445 103.904 59.1984C103.64 59.1585 103.386 59.1231 103.319 58.7999C103.316 58.3055 103.42 57.8156 103.386 57.3197C103.381 57.0909 103.363 56.8593 103.465 56.6438C103.613 56.4283 103.845 56.4313 104.07 56.4121C105.16 56.3206 106.249 56.1907 107.346 56.2143C107.466 56.2173 107.606 56.2512 107.718 56.0977C107.184 55.8823 106.64 55.8911 106.102 55.9428C105.414 56.0077 104.723 56.0638 104.036 56.145C103.845 56.1671 103.65 56.2188 103.482 56.0697C103.34 55.8247 103.321 55.5428 103.315 55.2787C103.293 54.4006 103.197 53.5254 103.189 52.6459C103.208 52.2917 103.403 52.1943 103.742 52.2238C104.429 52.2828 105.113 52.3979 105.808 52.2474C106.469 52.1042 107.073 51.8622 107.566 51.3959C108.252 50.745 108.382 49.8773 108.414 49.0021C108.473 47.4334 108.204 45.8912 107.939 44.3534C107.494 41.7826 106.998 39.2235 106.246 36.7206C106.195 36.5553 106.13 36.3797 106.24 36.2085C108.272 36.393 110.178 36.9095 111.66 38.4222C112.715 39.4995 113.252 40.8705 113.676 42.277C114.518 45.081 115.065 47.9484 115.451 50.8498C115.823 53.6465 116.046 56.4534 115.994 59.2722C115.939 62.3138 115.715 65.3421 114.772 68.2701C114.505 69.0995 114.122 69.8772 113.784 70.6741L113.783 70.6786Z" fill="#E56990"/>
<path d="M10.3527 34.9865C11.3115 32.6076 13.034 30.9872 15.3518 29.9526C16.5898 29.3992 17.8824 29.0229 19.1986 28.7203C19.4542 28.862 19.4675 29.1454 19.5798 29.3697C20.3007 30.8145 21.19 32.1235 22.5698 33.0252C23.2419 33.465 23.9879 33.7056 24.8034 33.707C25.1727 33.707 25.5051 33.6303 25.7858 33.3794C26.1847 33.1064 26.3811 32.6238 26.8125 32.3833C27.2261 32.3552 27.6294 32.4261 28.0327 32.4998C28.2514 32.733 28.0416 32.916 27.9411 33.0887C27.6708 33.5565 27.433 34.0406 27.2084 34.5305C26.8066 35.3038 26.5584 36.1421 26.2142 36.9405C26.1418 37.0069 26.0561 37.0512 25.969 37.091C25.5494 37.2814 25.2229 37.5987 24.9024 37.9116C23.4739 39.3077 22.1369 40.7923 20.7882 42.2652C20.67 42.395 20.5621 42.578 20.3627 42.5323C20.1426 42.4821 20.1131 42.2563 20.0614 42.0733C19.4645 39.9969 18.7879 37.9485 17.8218 36.0078C17.7524 35.8676 17.7214 35.6979 17.5574 35.6049C17.4318 35.6875 17.5308 35.7731 17.5633 35.841C18.4984 37.7935 19.1454 39.8508 19.8339 41.8977C20.1012 42.6946 20.0303 43.2052 19.4025 43.7291C19.144 43.9461 18.9091 44.2294 18.7215 44.5231C18.7939 44.622 18.8515 44.563 18.8854 44.5231C20.3228 42.9352 21.8223 41.4077 23.2582 39.8183C24.0027 38.9933 24.8152 38.2303 25.6115 37.4541C25.7385 37.3301 25.8848 37.2268 26.0561 37.1678C26.8169 37.2652 27.4078 37.7286 28.0372 38.1034C28.3799 38.3071 28.699 38.555 29.0151 38.8015C29.4051 39.2162 29.4893 39.6235 29.2308 40.1931C27.7373 43.4783 25.935 46.5568 23.5285 49.2722C22.849 50.0396 22.0719 50.6757 21.2993 51.3295C20.4026 51.8593 19.4734 51.9596 18.5073 51.5346C16.0062 49.8315 14.4196 47.3862 13.0133 44.7902C12.2288 43.3425 11.5626 41.8446 10.9998 40.2979C10.9643 40.199 10.9554 40.0766 10.7826 40.0131C10.9333 40.7849 11.2346 41.4756 11.5404 42.1574C12.4504 44.1881 13.4535 46.1716 14.7904 47.9647C15.7063 49.1925 16.6562 50.3938 18.0257 51.1671C18.1571 51.2409 18.1749 51.325 18.0552 51.4283C17.9193 51.5272 17.7583 51.5523 17.6002 51.5774C15.2115 51.9596 12.8582 52.5234 10.4753 52.9337C9.34816 53.127 8.21657 53.2952 7.06873 53.31C6.87668 53.3129 6.6802 53.3233 6.50441 53.2155C6.35225 53.0591 6.36998 52.8613 6.38032 52.6695C6.56498 49.2191 7.03918 45.8085 7.8118 42.4422C8.34805 40.0987 9.02168 37.7965 9.95089 35.5739C10.044 35.3496 10.1311 35.1223 10.3557 34.9895L10.3527 34.9865Z" fill="#05C5C8"/>
<path d="M103.521 57.3286C103.575 57.848 103.477 58.3557 103.405 58.8649C103.36 58.9815 103.473 59.1364 103.316 59.2264C102.236 61.9744 100.084 63.1137 97.2637 63.2303C96.1395 63.276 95.0212 63.2007 93.9191 62.9513C92.8747 62.7255 91.8583 62.4201 90.9158 61.8961C89.6675 61.201 88.5507 60.3348 87.5181 59.3593C86.1723 58.0886 84.8487 56.7914 83.3936 55.6447C82.4422 54.895 81.4554 54.222 80.2233 53.9667C78.9396 53.6996 77.2525 54.4862 76.5789 55.7126C75.8595 57.0201 75.502 58.4325 75.2833 59.8861C75.2006 60.4351 75.0027 60.9841 75.1814 61.5523C74.4058 62.7698 73.4072 63.8043 72.4544 64.8772C72.3701 64.9717 72.2786 65.0661 72.1412 65.0824C71.0554 66.2645 69.9592 67.4377 68.8926 68.6376C68.6105 68.9549 68.352 69.0552 67.9886 68.8294C67.5646 68.791 67.2632 68.4988 66.9175 68.3026C65.9883 67.7742 65.1773 67.0821 64.3648 66.3973C64.2171 66.2733 64.0753 66.1376 64.0265 65.9369C63.8655 65.7642 63.8448 65.6063 63.9822 65.3864C66.6487 61.1258 68.9473 56.6541 71.4764 52.3153C71.825 51.7191 72.2254 51.1553 72.6169 50.5857C73.9228 48.6849 75.7664 48.0399 77.9838 48.2569C78.6072 48.3174 79.2291 48.4104 79.8511 48.4886C80.2071 48.3277 80.5498 48.5166 80.8999 48.5255C84.7999 49.2516 88.6497 50.1975 92.4758 51.2395C92.8806 51.3501 92.9397 51.2955 92.8304 50.8749C92.6856 50.3141 92.5128 49.7607 92.3577 49.2014C92.3015 49.0007 92.2277 48.797 92.371 48.5993C92.5748 48.4738 92.7787 48.4827 92.9796 48.6037C93.377 49.4685 93.6459 50.3776 93.7271 51.3221C93.7522 51.6069 93.8231 51.7132 94.0595 51.7988C94.7863 52.0629 95.4851 52.398 96.1897 52.7152C98.4928 53.7483 100.66 55.0057 102.634 56.5848C102.935 56.8268 103.214 57.0954 103.52 57.3315L103.521 57.3286Z" fill="#55408B"/>
<path d="M87.2183 19.262C86.3688 18.9255 85.6272 18.5669 85.0718 17.9235C84.7276 17.525 84.3642 17.131 84.1603 16.6277C84.0362 16.3208 83.7555 16.4211 83.528 16.4152C81.3904 16.3606 79.4138 15.7895 77.6234 14.6044C75.8329 13.4179 74.5994 11.8167 74.137 9.7107C73.6716 7.59884 74.1651 5.65817 75.4798 3.94921C76.9482 2.04101 78.9647 0.996148 81.2663 0.466339C83.9165 -0.144639 86.5165 0.0383595 88.9747 1.2308C91.3871 2.4011 93.1406 4.18681 93.6784 6.91703C94.0344 8.72192 93.6739 10.4191 92.7019 11.979C91.5023 13.9049 89.7592 15.1298 87.6319 15.8382C87.2862 15.9533 87.1075 16.1274 87.041 16.4949C86.8755 17.404 86.8888 18.2939 87.2197 19.2605L87.2183 19.262Z" fill="#EED4FF"/>
<path d="M42.219 67.1796C42.1274 68.4591 42.024 69.7371 41.9457 71.0166C41.8511 72.5706 42.0063 72.1781 40.6605 72.5352C40.2498 72.8894 39.7224 72.8555 39.2423 72.9056C38.2688 73.0089 37.2849 72.9809 36.3069 72.916C36.0735 72.8997 35.8209 72.882 35.6362 72.6916C34.5741 72.3802 34.5623 72.3802 34.5061 71.2454C34.4559 70.2167 34.4352 69.1866 34.4012 68.1565C34.515 67.2076 34.354 66.2675 34.3067 65.323C34.3037 65.261 34.2683 65.1976 34.2698 65.1341C34.2978 63.4606 34.1191 61.7914 34.1575 60.1164C34.1604 59.9688 34.1929 59.8286 34.2668 59.7002C34.6524 59.0273 34.4899 58.2761 34.58 57.5618C34.4116 58.0651 34.3761 58.5875 34.3229 59.1099C34.2993 59.3342 34.3658 59.6752 33.93 59.5851C33.9256 59.5851 34.0334 59.6412 34.0112 59.7179C33.9182 59.8567 33.7704 59.8862 33.6257 59.8847C33.0111 59.8803 32.4069 60.0367 31.7924 59.9939C31.0995 59.9452 30.4156 60.1666 29.7212 60.0559C28.8245 59.8478 28.8127 59.8478 28.8275 58.9004C28.8452 57.6755 28.7551 56.4579 28.6236 55.2419C28.439 53.53 27.6634 52.2254 26.0251 51.5258C25.9365 51.4875 25.8493 51.4432 25.7799 51.3738C25.7075 51.151 25.8981 51.1406 26.0177 51.1141C26.7401 50.9503 27.4152 50.6625 28.0859 50.357C30.1127 50.2301 32.1322 49.9467 34.1708 50.0618C34.6937 50.2168 35.1325 50.571 35.6732 50.695C36.4133 50.8632 37.1032 50.7319 37.768 50.3939C37.9467 50.3024 38.1151 50.1445 38.347 50.2375C40.5733 50.6536 42.0255 52.218 42.3372 54.4877C42.5543 56.0757 42.5307 57.6681 42.5011 59.2619C42.4095 59.7814 42.5203 60.3097 42.4391 60.8292C42.448 62.9499 42.2515 65.0633 42.2175 67.1825L42.219 67.1796Z" fill="#3C2774"/>
<path d="M10.3527 34.9866C9.03204 37.9426 8.20033 41.0491 7.56806 44.2103C7.1884 46.1052 6.89442 48.0178 6.71419 49.9422C6.61374 51.021 6.47783 52.1028 6.53397 53.1934C6.7009 53.6184 6.74522 54.0641 6.72897 54.5128C6.6876 55.6137 6.7984 56.6896 7.22828 57.7152C7.22238 58.0429 6.97272 57.9337 6.80283 57.941C6.16317 57.9661 5.59294 58.1639 5.10987 58.6096C5.86476 58.3439 6.63147 58.1506 7.42772 58.0901C9.01135 59.6087 11.0204 59.9924 13.0931 60.2034C14.1153 60.3082 15.1376 60.4056 16.1687 60.3864C17.064 60.3909 17.9592 60.3864 18.853 60.3864C19.2666 60.3864 19.6802 60.4056 20.0924 60.3569C20.3435 60.3982 20.3672 60.593 20.376 60.7878C20.3864 61.0269 20.3952 61.266 20.348 61.5021C20.249 61.8002 20.2874 62.1087 20.2874 62.4127C20.2874 62.7905 20.1234 62.9868 19.7423 62.9882C18.6639 62.9927 17.5914 63.1653 16.5115 63.0827C15.8836 63.0635 15.2543 63.0606 14.6486 62.8658C14.5881 62.8421 14.6708 62.7167 14.5984 62.7433C14.235 62.8776 13.8672 62.8377 13.5023 62.7861C11.1918 62.4614 8.87988 62.15 6.6034 61.632C5.90169 61.446 5.15419 61.3885 4.56033 60.9015C4.45987 60.6255 4.1718 60.5871 3.96351 60.4661C2.8068 59.7932 2.21885 58.7468 1.95589 57.485C1.48021 55.199 1.13305 52.8909 0.802142 50.5813C0.542142 48.7616 0.345665 46.9331 0.178733 45.1002C0.0324824 43.4945 -0.039904 41.8903 0.0236188 40.2876C0.0856643 38.7203 0.499301 37.2608 1.92192 36.3281C2.71669 35.8071 3.63408 35.6182 4.55737 35.4721C6.27249 35.1991 8.0009 35.0884 9.7367 35.0795C9.94204 35.0795 10.1474 35.022 10.3542 34.991L10.3527 34.9866Z" fill="#EED4FF"/>
<path d="M92.993 48.7114C92.8068 48.5373 92.5749 48.6288 92.3636 48.6037C92.179 48.6967 92.0091 48.6214 91.8614 48.5299C91.3103 48.1846 90.6914 47.9957 90.0975 47.7462C89.5893 47.5323 89.093 47.2961 88.7517 46.8401C88.5715 46.5996 88.3528 46.3605 88.4755 46.0151C88.6276 45.869 88.7842 45.9797 88.9275 46.0225C89.7902 46.2764 90.6234 46.6055 91.396 47.0733C90.6441 46.6187 89.8419 46.2808 88.9999 46.0314C88.7488 45.9576 88.508 45.8986 88.248 45.9679C87.5551 45.6801 87.1444 44.7696 87.3897 44.0656C87.4694 43.8369 87.6216 43.6893 87.8713 43.6613C88.1652 43.7926 88.4755 43.893 88.7946 43.8811C89.7001 43.8442 90.585 43.9889 91.4699 44.1424C90.5998 43.9889 89.7297 43.8354 88.8389 43.8826C88.4474 43.9033 88.1002 43.7262 87.7442 43.5934C87.4946 43.1728 87.8107 42.9721 88.0855 42.7891C88.3425 42.6179 88.6572 42.5898 88.9644 42.5883C89.5406 42.5839 90.1167 42.5751 90.6914 42.5943C90.9307 42.5928 91.2173 42.7226 91.3399 42.3714C91.5689 42.2017 91.7979 42.2858 92.0283 42.3685C92.8585 42.6695 93.5514 43.1905 94.2161 43.7513C94.4983 43.9889 94.7406 44.2722 95.005 44.5305C95.6949 45.2035 96.5207 45.6078 97.4721 45.7436C98.9848 45.9576 100.487 46.2262 101.991 46.4918C102.832 46.6394 103.671 46.7899 104.522 46.8726C103.978 46.7161 103.415 46.6409 102.858 46.5582C102.484 46.5022 102.3 46.3221 102.22 45.9546C101.749 43.7528 101.119 41.5892 100.589 39.4021C100.533 39.1734 100.518 38.9151 100.276 38.7749C99.9805 38.4237 100.084 38.0001 100.11 37.6149C100.245 35.6093 100.848 33.769 102.125 32.1825C102.176 32.1191 102.227 32.0586 102.288 32.0054C102.411 31.9125 102.535 31.9597 102.651 32.0143C103.919 32.6076 104.962 33.4562 105.669 34.6796C105.74 34.8021 105.822 34.9305 105.767 35.0854C105.924 35.4618 106.082 35.8381 106.238 36.2129C106.998 38.7454 107.55 41.3236 107.993 43.9298C108.278 45.6049 108.594 47.274 108.552 48.9785C108.504 50.9207 107.73 52.1013 105.55 52.4216C104.891 52.519 104.275 52.3802 103.641 52.3389C103.389 52.3227 103.319 52.3699 103.315 52.5913C102.948 52.2371 102.455 52.1958 101.998 52.0703C99.8135 51.4697 97.7394 50.5768 95.6698 49.6751C94.7967 49.2943 93.931 48.9033 92.9915 48.7114H92.993Z" fill="#FFCDBA"/>
<path d="M105.767 35.0825C105.027 33.6274 103.851 32.6548 102.371 32.0173C101.787 31.9804 101.301 31.6587 100.766 31.4772C99.4649 30.3039 99.0202 28.7868 99.0364 27.0867C98.5445 27.2623 98.1914 27.7567 97.6064 27.5707C97.3952 27.159 97.5016 26.7222 97.5193 26.2957C97.5296 26.0462 97.7187 26.0108 97.9388 26.0197C99.2699 26.0728 100.239 24.5867 99.6761 23.3647C99.3851 22.7331 98.7868 22.5604 98.1944 22.9382C97.9462 23.0961 97.7512 23.3057 97.5754 23.5404C97.3849 23.7957 97.2076 23.7573 97.0613 23.4872C97.0303 23.4311 97.0658 23.502 97.0406 23.4444C96.3567 21.9067 95.1941 20.7954 93.8483 19.8391C93.2175 19.3904 92.6251 18.8916 92.2277 18.2068C92.1243 18.0283 91.981 17.9619 91.786 17.9899C90.876 18.1198 90.1137 18.5404 89.4755 19.1912C89.3278 19.3432 89.2923 19.5631 89.2273 19.7623C89.1889 19.8819 89.2273 20.0737 89.0087 20.0678C88.6941 19.0289 88.9703 18.0932 89.5686 17.2505C90.5052 15.9356 91.8554 15.2508 93.4036 14.969C95.2989 14.6236 97.0525 14.9453 98.5135 16.3045C98.7129 16.489 98.7572 16.3577 98.8592 16.2116C99.4457 15.3659 100.221 14.755 101.221 14.4878C103.325 13.9256 105.259 15.1195 105.839 17.3258C106.243 18.8606 106.058 20.3836 105.703 21.8993C105.532 22.6327 105.35 23.3633 105.269 24.1144C105.104 25.6448 105.696 26.9037 106.671 28.0268C107.104 28.5241 107.526 29.0303 107.857 29.6059C109.261 32.0424 107.729 34.6383 105.764 35.0869L105.767 35.0825Z" fill="#11051D"/>
<path d="M34.2683 20.0442C34.6125 18.9905 34.6731 18.0459 34.4825 17.0837C34.4279 16.8107 34.289 16.6602 34.0157 16.6085C31.8278 16.1997 29.8705 15.3202 28.3267 13.6865C27.108 12.3981 26.3132 10.9016 26.1359 9.08346C25.9128 6.79598 26.6589 4.89074 28.2233 3.27179C29.968 1.46837 32.1425 0.520916 34.5977 0.15492C37.2627 -0.243544 39.8199 0.110646 42.222 1.3326C43.9976 2.23579 45.4483 3.53301 46.3125 5.35413C47.5771 8.02089 47.1797 10.6935 45.3109 13.0032C43.4924 15.2508 41.0387 16.2647 38.2776 16.7C37.8241 16.7709 37.5198 16.9022 37.2613 17.3686C36.6113 18.5448 35.6244 19.4096 34.2698 20.0427L34.2683 20.0442Z" fill="#EED4FF"/>
<path d="M100.837 31.4107C101.36 31.5834 101.886 31.7487 102.371 32.0173C101.762 32.8983 101.147 33.7735 100.803 34.805C100.409 35.9842 100.193 37.1899 100.236 38.4355C100.24 38.5432 100.295 38.6495 100.325 38.7557C100.549 39.076 100.493 39.4656 100.577 39.8198C101.017 41.6616 101.498 43.4945 101.933 45.3363C102.029 45.7407 102.245 46.1627 101.979 46.5892C100.924 46.418 99.8667 46.2601 98.8148 46.0727C98.187 45.9606 97.5547 45.8897 96.9284 45.7539C96.0878 45.5709 95.4245 45.1267 94.8469 44.5423C94.0181 43.7026 93.1318 42.9558 92.0297 42.4983C91.8067 42.4054 91.5836 42.3198 91.3428 42.4393C91.0813 42.2932 91.068 42.0172 91.003 41.7752C90.7386 40.7776 90.4668 39.7829 90.1861 38.7912C90.0679 38.375 89.8478 38.1433 89.3957 38.189C88.7147 38.0562 88.0189 38.1979 87.3364 38.0813C87.1178 38.0001 87.0129 37.8009 86.8785 37.6341C86.7632 37.4674 86.7234 37.277 86.7603 37.0837C87.0764 35.4204 87.5063 33.7986 88.4651 32.367C88.5094 32.3006 88.5581 32.2357 88.6157 32.1796C89.5317 31.7428 90.5037 31.4845 91.4949 31.2897C91.7594 31.3635 91.5998 31.5391 91.5614 31.6528C91.4048 32.1147 91.3177 32.581 91.3502 33.071C91.424 34.2236 92.2735 34.9792 93.4272 35.0677C95.4555 35.2242 96.8781 34.1808 98.1575 32.8172C98.5194 32.432 98.8163 31.9878 99.1206 31.5524C99.2654 31.3458 99.391 31.1082 99.6613 31.0255C100.115 30.9665 100.475 31.1879 100.834 31.4137L100.837 31.4107Z" fill="#FFC446"/>
<path d="M28.0978 32.5663C27.6384 32.6209 27.1937 32.4837 26.7402 32.4704C26.1478 32.4999 25.6588 32.1989 25.1654 31.945C23.3971 31.0404 22.4354 29.5587 22.1237 27.6254C22.1134 27.5619 22.0971 27.5 22.0853 27.4365C22.0794 27.4025 22.0691 27.3745 22.0188 27.3199C21.9849 28.3707 22.2493 29.3078 22.7959 30.1579C23.5168 31.278 24.4608 32.1974 25.5008 33.0209C25.65 33.139 25.8317 33.229 25.8686 33.4459C25.3855 33.9831 24.7533 33.8754 24.1638 33.7794C22.8845 33.5714 21.8874 32.8497 21.0734 31.8816C20.2786 30.9341 19.5828 29.9173 19.2002 28.7219C19.6596 28.5817 20.1397 28.4976 20.5622 28.2526C21.2447 27.8586 21.3349 27.1103 20.7366 26.6233C19.6064 25.7024 19.5267 23.5374 20.6169 22.7774C21.0099 22.4188 21.4589 22.3819 21.88 22.6889C22.2951 22.9929 22.5817 23.3928 22.7324 23.8902C22.7826 24.054 22.7796 24.2414 22.9274 24.4096C23.1652 24.2266 23.3247 23.9876 23.4518 23.7337C24.0353 22.5634 24.5701 21.3739 24.8493 20.0856C24.9512 19.6163 25.0413 19.5513 25.517 19.6561C26.1788 19.8022 26.8421 19.9409 27.5232 19.9601C28.7818 19.9941 29.9518 19.7181 30.9844 18.9566C31.37 18.6732 31.5798 18.7131 31.8619 19.144C32.4528 20.0457 32.9078 20.9991 32.8369 22.1207C32.8295 24.2016 32.8207 26.2795 32.2785 28.3146C32.1249 28.8931 31.7969 29.386 31.5945 29.9365C31.5576 30.0147 31.4882 30.056 31.4128 30.0826C30.2162 30.5194 29.3225 31.3518 28.5011 32.283C28.3918 32.407 28.3253 32.6047 28.0978 32.5663Z" fill="#FFCDBA"/>
<path d="M38.3486 50.233C38.2747 50.2625 38.1949 50.2817 38.1299 50.3245C36.8093 51.1864 35.5314 51.0329 34.2816 50.1651C33.6479 50.0175 33.2461 49.5217 32.8369 49.0981C31.7437 47.9632 30.8248 46.6867 30.0744 45.2965C29.9961 45.1533 29.8424 45.0131 29.9636 44.8183C30.4585 43.2319 31.0627 41.6734 31.1794 39.9895C30.8455 41.6203 30.3314 43.2053 29.9577 44.8257C29.8173 45.9267 29.3594 46.9361 29.0521 47.9898C28.8556 48.6642 28.634 49.3343 28.3696 49.988C28.2883 50.1887 28.1908 50.3614 27.9973 50.4662C27.3355 50.9798 26.5141 51.0742 25.7504 51.3177C25.4328 51.5686 25.0531 51.5524 24.6808 51.5642C23.8314 51.5538 22.9805 51.6144 22.1355 51.4668C21.9612 51.4358 21.7869 51.4166 21.6229 51.3458C21.289 51.0683 21.6628 50.9975 21.781 50.9237C22.5935 50.4131 23.2996 49.7829 23.923 49.0612C25.2939 47.4748 26.4875 45.7614 27.5408 43.9476C28.2027 42.8054 28.832 41.6469 29.3387 40.4264C29.5337 39.9571 29.7937 39.4745 29.4022 38.9727C29.3372 38.7425 29.4894 38.6171 29.6386 38.4931C29.9089 38.2673 30.197 38.0636 30.4526 37.8216C30.9578 37.3582 31.0582 37.3538 31.4527 37.8954C31.7053 38.2422 32.1041 38.4636 32.2681 38.8812C32.4794 39.6663 32.4085 40.478 32.4794 41.2764C32.6345 43.0193 32.7438 44.7667 32.9743 46.5037C32.9949 46.6616 33.0082 46.8225 33.1294 47.0733C33.1441 46.3974 33.0245 45.8425 32.9595 45.2847C32.7837 43.7838 32.7083 42.277 32.5916 40.7717C32.5473 40.1976 32.4144 39.625 32.5488 39.0465C32.599 38.9093 32.7187 38.865 32.8428 38.8237C33.9685 38.4473 34.9701 37.8364 35.9391 37.1678C36.0544 37.0881 36.1519 36.9597 36.3218 37.0143C36.4784 37.0837 36.5655 37.2151 36.6335 37.3656C37.8241 40.0013 38.7593 42.7227 39.297 45.5666C39.4905 46.5893 39.5156 47.6312 39.2409 48.6642C39.0784 49.2767 38.6706 49.7253 38.3456 50.233H38.3486Z" fill="#05C5C8"/>
<path d="M99.6672 31.0935C99.1369 31.6115 98.7971 32.2756 98.314 32.8334C97.3745 33.9167 96.2724 34.811 94.872 35.1003C93.866 35.3083 92.7565 35.4353 91.8761 34.5439C91.1817 33.8414 91.1359 33.0209 91.2955 32.1339C91.3472 31.8476 91.523 31.5923 91.4964 31.2883C91.6367 31.1437 91.8775 31.2853 92.0075 31.1112C92.139 30.9444 92.3266 30.9164 92.5231 30.9002C93.5483 30.8205 94.3121 30.2759 94.9532 29.5129C94.2057 29.8981 93.4198 30.1578 92.5822 30.2228C92.3296 30.2419 92.2277 30.4781 92.0164 30.5386C92.0327 30.2449 91.9425 30.1136 91.6042 30.0368C90.0029 29.6752 89.214 28.4961 88.8078 27.0277C88.3897 25.5194 88.4444 23.9772 88.6541 22.4394C88.762 21.6469 88.892 20.8574 89.0116 20.0664C89.4519 18.7795 90.5495 17.9442 91.9233 17.8394C92.0784 17.8276 92.1907 17.8084 92.2705 17.9884C92.5807 18.6924 93.1569 19.1647 93.7507 19.6059C94.9857 20.5224 96.1705 21.4802 96.8929 22.8851C97.0244 23.1404 97.1529 23.3957 97.2991 23.6821C97.5237 23.4504 97.6788 23.167 97.9299 22.9678C98.3052 22.6711 98.7099 22.4837 99.1767 22.6608C99.6628 22.8453 99.8666 23.2792 99.9287 23.7588C100.037 24.5852 99.7366 25.2759 99.1339 25.8338C98.7203 26.216 98.2416 26.3208 97.6655 26.0551C97.5902 26.5731 97.6079 27.0601 97.6197 27.5486C97.831 27.8777 97.76 28.2378 97.698 28.5787C97.6227 28.9905 97.698 29.3801 97.7733 29.7741C97.8295 30.0663 98.0348 30.2434 98.2815 30.3851C98.5785 30.5533 98.9094 30.6389 99.2196 30.7718C99.3895 30.8455 99.6037 30.8706 99.6687 31.0964L99.6672 31.0935Z" fill="#FFCDBA"/>
<path d="M87.2818 37.9869C88.0012 38.0209 88.7281 37.8984 89.4416 38.074C89.6912 38.2142 89.7754 38.4621 89.839 38.7115C90.1389 39.8995 90.4949 41.0698 90.8081 42.2534C90.8479 42.4054 90.9144 42.5633 90.811 42.7183C89.9956 42.7567 89.1727 42.6253 88.3632 42.8098C87.8845 42.919 87.7043 43.1965 87.8299 43.6008C87.855 43.6156 87.8668 43.6318 87.8624 43.6525C87.8594 43.6746 87.8535 43.6849 87.8476 43.6849C87.1252 44.2605 87.3941 45.4913 88.3322 45.9016C88.437 45.8544 88.5183 45.8558 88.5286 45.999C88.5404 46.6262 88.9408 47.0276 89.4298 47.2755C90.387 47.7596 91.3827 48.1654 92.3636 48.6023C92.5764 49.3933 92.7876 50.1858 93.0018 50.9754C93.0491 51.1465 93.1436 51.3487 93.0077 51.4771C92.8807 51.5981 92.7108 51.4314 92.5631 51.3915C88.7872 50.3762 84.9965 49.4199 81.1496 48.7056C81.0566 48.6879 80.9665 48.6495 80.8749 48.6215C80.7139 48.4931 80.6621 48.3042 80.6075 48.1197C79.7123 45.0692 78.8141 42.0188 77.9484 38.9595C77.8509 38.6141 77.6869 38.2304 78.1404 37.9825C79.0209 37.9736 79.8999 37.9663 80.7803 37.9574C81.061 38.0518 81.0669 38.3263 81.1437 38.5418C81.256 38.8576 81.4525 39.0023 81.7908 39.0008C83.4645 38.9978 85.1383 39.0082 86.812 38.9934C87.2981 38.989 87.3542 38.8945 87.2641 38.4016C87.239 38.2614 87.1814 38.1197 87.2774 37.984L87.2818 37.9869Z" fill="#E6D5F8"/>
<path d="M78.1419 37.9854C77.9779 38.2216 77.9439 38.4547 78.0311 38.7499C78.8731 41.6218 79.6989 44.4996 80.5277 47.3774C80.6473 47.7921 80.7611 48.2082 80.8763 48.6244C80.5336 48.5787 80.1909 48.5314 79.8481 48.4857C79.8408 48.1891 79.5719 48.071 79.4168 47.8806C77.6825 45.7496 76.2805 43.406 74.9687 41.0034C74.4221 40.0014 73.911 38.9801 73.3836 37.9677C73.2876 37.7818 73.1975 37.5988 72.9906 37.4969C71.4365 36.7354 70.3729 35.4426 69.3432 34.1159C69.1261 33.837 68.9296 33.5418 68.7317 33.2496C68.6327 33.1035 68.4968 32.922 68.5603 32.7626C68.7789 32.2033 68.4067 31.7945 68.2471 31.3296C68.126 30.9798 68.092 30.6566 68.55 30.5194C69.0611 30.6758 69.4688 31.002 69.8056 31.3886C70.1971 31.8373 70.6211 32.2579 70.986 32.7316C71.1396 32.9323 71.3184 33.1197 71.1027 33.3647C70.8885 33.6082 70.6122 33.5861 70.3507 33.4474C70.1498 33.3396 70.0036 33.1596 69.8662 32.9795C69.7111 32.7759 69.5515 32.5796 69.3063 32.4335C69.621 32.6991 69.8278 33.0253 70.0715 33.319C70.4645 33.7942 70.7659 33.8119 71.1884 33.3854C71.5931 32.9766 72.1087 32.711 72.5209 32.3715C71.6537 31.9229 71.2356 30.94 70.466 30.4973C70.8885 30.9164 71.4233 31.3695 71.8251 31.945C72.0969 32.3346 72.1102 32.6047 71.8664 32.8039C71.5917 33.0312 71.243 32.9677 70.9446 32.5988C70.63 32.2107 70.2606 31.8727 69.9519 31.4757C69.6934 31.1437 69.3728 30.8603 68.9798 30.6935C68.7272 30.5858 68.6031 30.4176 68.5751 30.1578C68.8498 29.7048 69.0301 29.6487 69.6151 29.9025C69.8514 30.0058 69.9711 30.0516 70.1262 29.7638C70.3183 29.4052 70.658 29.538 70.9284 29.6959C71.6109 30.0958 72.221 30.5947 72.7956 31.1378C73.1694 31.4919 73.5284 31.8624 73.8918 32.2269C74.0026 32.339 74.0868 32.4911 74.2788 32.4763C74.1001 33.2585 73.9036 34.0392 74.0912 34.7874C74.0277 34.0672 73.9908 33.2909 74.363 32.5575C74.3911 32.5014 74.4059 32.4379 74.3763 32.373C74.2818 32.035 74.171 31.7 74.1001 31.3576C74.0454 31.0876 74.0292 30.7806 74.3394 30.6448C74.6496 30.5091 74.8742 30.7083 75.016 30.9562C75.7561 32.2431 76.3677 33.5787 76.409 35.0958C76.4223 35.6153 76.5627 36.0639 76.8773 36.4757C77.1787 36.8697 77.4535 37.2859 77.7371 37.6947C77.839 37.8408 77.9247 38.0002 78.1404 37.9825L78.1419 37.9854Z" fill="#FFCDBA"/>
<path d="M32.8369 22.1191C32.6685 21.3074 32.5414 20.481 32.0879 19.7593C32.0539 19.7047 32.0303 19.6442 31.9993 19.5881C31.5443 18.7573 31.5369 18.7883 30.7569 19.2753C29.5987 19.9999 28.3076 20.2212 26.9573 20.0501C26.4329 19.9836 25.9114 19.8789 25.3988 19.7519C25.1063 19.6796 25.0384 19.7239 24.9748 20.0382C24.6735 21.5318 24.0737 22.916 23.2907 24.2206C23.1858 24.3963 23.013 24.5306 22.8224 24.7372C22.7619 24.4966 22.7116 24.3092 22.6673 24.1203C22.5506 23.62 22.3069 23.1994 21.9169 22.8555C21.4958 22.4836 21.063 22.5707 20.6154 22.7758C20.2505 21.9538 20.4883 21.1274 20.6479 20.3231C20.9271 18.9166 21.6007 17.7375 22.8978 17.0099C23.7502 16.5318 24.703 16.337 25.6544 16.2337C27.6679 16.0152 29.4968 16.6425 31.1572 17.7095C32.1603 18.3544 32.6522 19.4037 32.8265 20.571C32.9034 21.0802 33.0762 21.6041 32.8369 22.1206V22.1191Z" fill="#FFE4D5"/>
<path d="M64.0235 65.934C65.229 67.057 66.5511 68.0178 67.9856 68.8265C67.5276 69.3032 67.1997 69.8551 67.0135 70.4897C66.9515 70.7554 66.7521 70.8852 66.5157 70.962C64.5022 71.6217 62.4517 71.9065 60.3466 71.5139C59.6626 71.3855 58.9993 71.1612 58.5532 70.5709C58.2769 70.2049 58.048 69.8153 58.2917 69.3342C59.0525 68.952 59.8709 68.7144 60.6834 68.49C62.0528 68.1122 63.1002 67.3625 63.8019 66.1302C63.8758 66.0653 63.9497 65.9989 64.0235 65.934Z" fill="#FFCDBA"/>
<path d="M30.5116 37.888C30.3034 38.1817 29.9857 38.3514 29.7139 38.5728C29.5884 38.6761 29.4451 38.7572 29.448 38.9476C29.1393 39.045 29.0654 38.741 28.8822 38.6215C28.0461 38.0046 27.2321 37.3538 26.2364 36.9951C26.1906 36.9789 26.1596 36.9391 26.1389 36.8948C26.4137 36.0757 26.6752 35.2508 27.1198 34.5011C27.7358 33.3898 28.4124 32.3243 29.3638 31.458C29.8661 31.0005 30.4127 30.6138 31.0272 30.3246C31.8929 29.9172 32.698 30.2094 33.4972 30.5518C33.9995 30.8411 34.289 31.3163 34.5771 31.793C34.3629 31.9332 34.2137 31.7531 34.0512 31.6749C32.8915 31.1185 31.7319 30.9119 30.5515 31.6218C30.3285 31.7561 30.1246 31.9081 29.9547 32.1044C29.7376 32.3552 29.7582 32.5929 30.0685 32.7168C30.3137 32.8157 30.361 32.9736 30.3698 33.1994C30.3816 33.4931 30.5397 33.6584 30.8337 33.7277C31.1572 33.8045 31.4704 33.803 31.7865 33.7174C32.6448 33.4872 33.4795 33.6362 34.3053 33.8812C34.5697 33.9594 34.8504 34.0686 34.846 34.411C34.8415 34.746 34.5638 34.8611 34.3038 34.9467C34.0143 35.0412 33.707 35.0928 33.4027 35.1032C32.9093 35.1209 32.5532 35.3393 32.277 35.7392C32.0214 36.1097 31.7304 36.458 31.4926 36.8372C31.2296 37.2564 30.7702 37.4762 30.5087 37.8865L30.5116 37.888Z" fill="#FFCDBA"/>
<path d="M4.55445 71.5361C4.23832 72.8097 3.92218 74.0833 3.60457 75.3569C3.56911 75.4971 3.53218 75.6373 3.48343 75.7731C3.33866 76.176 2.99002 76.3826 2.62513 76.2719C2.23513 76.1538 2.27797 75.8542 2.29866 75.5281C2.36366 74.5186 2.48331 73.5136 2.6015 72.5101C3.26627 68.642 3.74786 64.7415 4.55888 60.8986C5.22661 61.1007 5.86923 61.39 6.5665 61.4963C6.74673 61.663 6.64332 61.8593 6.6123 62.0379" fill="#55408B"/>
<path d="M35.5535 33.5271C35.8948 34.2782 35.6998 35.0752 35.7515 35.8514C35.7736 36.1746 35.6304 36.5377 35.9598 36.7945C35.8874 37.0616 35.6983 37.2313 35.4752 37.37C34.778 37.8069 34.0659 38.2142 33.3184 38.558C32.5901 38.893 32.3434 38.8429 31.7761 38.2821C31.6136 38.1212 31.4925 37.9338 31.3581 37.7552C31.166 37.5029 31.1646 37.252 31.361 37.004C31.72 36.5495 32.0716 36.0905 32.4084 35.6197C32.6655 35.2597 33.0821 35.2006 33.4854 35.1578C33.8059 35.1239 34.1294 35.0929 34.4338 34.9852C34.6952 34.8922 34.9671 34.7697 34.9818 34.445C34.9981 34.0953 34.7248 33.9196 34.45 33.8355C33.6907 33.6038 32.9166 33.468 32.1174 33.6245C31.7702 33.6924 31.426 33.7839 31.0671 33.7543C30.8189 33.7337 30.5603 33.6997 30.4806 33.4208C30.3934 33.1168 30.6076 32.9471 30.8351 32.8069C32.0391 32.0616 33.9211 32.2195 35.004 33.1581C35.1724 33.3042 35.3127 33.4917 35.555 33.5285L35.5535 33.5271Z" fill="#FFCDBA"/>
<path d="M87.2817 37.9869C87.3142 38.0947 87.3423 38.2024 87.3778 38.3086C87.6289 39.0465 87.5683 39.1336 86.7691 39.1351C85.1249 39.1395 83.4807 39.1189 81.8365 39.1558C81.3416 39.1661 81.089 39.0156 80.9915 38.5418C80.9501 38.3426 80.8526 38.1537 80.7817 37.9604C80.8261 37.6313 81.0417 37.5457 81.3298 37.5914C81.7434 37.6578 82.0507 37.5767 82.1128 37.097C83.2148 37.0616 84.3169 37.0513 85.4174 36.9849C85.4632 36.9893 85.5253 36.9804 85.5533 37.0114C85.9256 37.435 86.4545 37.4571 86.9508 37.5634C87.1665 37.6224 87.1857 37.8349 87.2817 37.9869Z" fill="#55408B"/>
<path d="M86.9494 37.5633C86.9332 37.5633 86.9184 37.5633 86.9021 37.5633C86.3629 37.612 85.8326 37.6312 85.5002 37.0807C85.1471 37.001 84.7778 37.1501 84.4307 36.9995C85.1294 34.7888 86.3408 33.0208 88.6173 32.1752C88.6128 32.305 88.5818 32.4172 88.5065 32.5323C87.6053 33.9078 87.2227 35.4736 86.88 37.0512C86.843 37.2209 86.8431 37.4039 86.9494 37.5618V37.5633Z" fill="#FFCDBA"/>
<path d="M35.5536 33.5271C35.3925 33.8326 35.2729 33.6023 35.168 33.4858C34.1531 32.3671 32.2607 32.1635 30.9903 32.8556C30.7731 32.9737 30.4998 33.0888 30.5545 33.3603C30.6195 33.682 30.943 33.6333 31.1986 33.6304C31.8235 33.623 32.4218 33.35 33.057 33.4356C33.6568 33.5168 34.2757 33.5241 34.8031 33.8798C35.2921 34.2089 35.2803 34.6812 34.775 34.9822C34.4205 35.1933 34.0231 35.2538 33.6213 35.2715C33.023 35.298 32.5488 35.4781 32.24 36.0507C32.0377 36.4255 31.723 36.7414 31.4571 37.0823C31.3891 37.1693 31.2961 37.2372 31.2961 37.3671C31.299 37.9781 32.4114 38.7853 32.9743 38.561C33.8887 38.1994 34.7248 37.6873 35.5595 37.1723C35.7279 37.069 35.719 36.8033 35.9598 36.793C36.1179 36.8063 36.2641 36.8388 36.3232 37.0144C35.4073 37.7656 34.3718 38.319 33.2963 38.8016C33.0895 38.8945 32.8753 38.9624 32.6433 38.9536C32.4218 39.0377 32.2947 38.8842 32.1558 38.7588C31.9062 38.5138 31.6373 38.2865 31.4128 38.0209C30.9858 37.5132 30.9962 37.5043 30.5116 37.8881C30.5958 37.5117 30.9592 37.3553 31.1602 37.069C31.528 36.5436 31.9106 36.0271 32.2903 35.5091C32.5325 35.177 32.8605 35.0103 33.2741 34.9822C33.673 34.9557 34.0748 34.9276 34.4471 34.7608C34.6066 34.6885 34.7839 34.6206 34.7721 34.3919C34.7618 34.1676 34.583 34.0953 34.419 34.0451C33.5208 33.7632 32.6108 33.5905 31.6772 33.8709C31.3182 33.9787 30.9666 33.927 30.6357 33.806C30.2605 33.6688 30.2841 33.319 30.2029 32.984C30.1571 32.7995 29.6002 32.7464 29.6666 32.3465C29.7272 31.976 30.0611 31.7768 30.3565 31.5864C31.6388 30.76 32.9196 30.9489 34.196 31.6056C34.323 31.6705 34.4235 31.7901 34.5815 31.793C34.7115 31.9524 34.8415 32.1133 34.9715 32.2727C34.9907 32.4557 34.8607 32.3892 34.7869 32.3701C34.4885 32.2874 34.2314 32.1162 33.9625 31.9716C32.8236 31.3591 31.6875 31.3296 30.5589 32.0041C30.4614 32.0616 30.3639 32.1177 30.2856 32.2018C30.228 32.2623 30.1807 32.3317 30.2206 32.4158C30.2605 32.5014 30.3477 32.5088 30.4289 32.5058C30.6091 32.497 30.7775 32.435 30.9356 32.3553C32.3021 31.6764 33.5962 31.9686 34.8607 32.6446C35.0173 32.7287 35.165 32.8246 35.3364 32.8748C35.4206 33.0888 35.5713 33.2821 35.5565 33.5286L35.5536 33.5271Z" fill="#FFA986"/>
<path d="M35.3335 32.8733C35.2389 32.9943 35.1591 33.0002 35.0262 32.894C34.3732 32.376 33.577 32.224 32.7852 32.1C32.1824 32.0056 31.6152 32.1915 31.0582 32.4306C30.7273 32.5737 30.2575 32.9235 30.0389 32.466C29.8513 32.0734 30.4082 31.9332 30.6919 31.7827C31.8752 31.154 33.0437 31.2795 34.1738 31.9436C34.4249 32.0912 34.6657 32.255 34.9686 32.2727C35.1503 32.4365 35.2655 32.6401 35.3335 32.8733Z" fill="#FFCDBA"/>
<path d="M68.578 30.1608C68.674 30.3644 68.804 30.4987 69.0345 30.5946C69.5175 30.7939 69.8691 31.182 70.203 31.579C70.5014 31.9361 70.8013 32.2918 71.1174 32.6327C71.3272 32.86 71.5931 32.9308 71.8413 32.7021C72.0821 32.4807 71.9196 32.2549 71.7778 32.0601C71.3375 31.4609 70.7969 30.9547 70.2458 30.4604C70.1661 30.388 70.039 30.36 70.0656 30.18C70.3611 30.1888 70.5664 30.391 70.7466 30.5622C71.1883 30.9828 71.6744 31.3665 72.0082 31.8874C72.2165 32.2136 72.5991 32.1737 72.9123 32.3877C72.2845 32.3774 72.1116 33.0799 71.5488 33.1655C71.407 33.1861 71.3833 33.3514 71.308 33.4533C70.9933 33.8709 70.3389 34.0273 69.9962 33.4296C69.7465 32.9943 69.3491 32.6416 68.9399 32.159C69.3994 32.2741 69.6638 32.4999 69.8662 32.7862C70.008 32.9854 70.1646 33.167 70.3463 33.3234C70.5531 33.502 70.8057 33.5167 71.0052 33.3426C71.2607 33.1197 71.0303 32.9648 70.884 32.7921C70.1794 31.9598 69.4791 31.123 68.5499 30.5223C68.5588 30.4028 68.5677 30.2818 68.578 30.1622V30.1608Z" fill="#FFA986"/>
<path d="M33.4986 30.5518C33.1057 30.3925 32.6787 30.4397 32.2621 30.267C31.8086 30.0781 31.2738 30.3128 30.8188 30.5577C29.2766 31.3857 28.2912 32.7419 27.3886 34.1764C27.3133 34.2959 27.2763 34.4479 27.1212 34.5011C27.3472 33.806 27.7609 33.2053 28.0977 32.5663C28.8156 31.7044 29.5957 30.9105 30.5721 30.3349C30.8912 30.1475 31.2295 30.0073 31.5944 29.9364C32.3936 29.6354 32.9461 30.0943 33.4986 30.5518Z" fill="#FFA986"/>
<path d="M92.0164 30.5371C92.0785 30.267 92.2144 30.1312 92.5231 30.1106C93.473 30.0486 94.3476 29.7062 95.2044 29.293C94.6149 30.2537 93.7818 30.8425 92.6708 31.0196C92.4507 31.0551 92.2291 31.0802 92.009 31.1111C92.012 30.9193 92.0149 30.7289 92.0164 30.5371Z" fill="#FFA986"/>
<path d="M74.3793 32.3774C74.66 32.6667 74.2862 32.8645 74.2655 33.1168C74.205 33.8252 74.0543 34.5291 74.3867 35.2744C73.7529 34.8833 73.7352 33.2319 74.2833 32.4793C74.3158 32.4453 74.3483 32.4114 74.3808 32.3774H74.3793Z" fill="#FFA986"/>
<path d="M84.4321 37.001C84.7852 37.0689 85.1545 36.9464 85.5017 37.0822C84.3715 37.0866 83.2429 37.0925 82.1128 37.0969C82.6402 36.9272 83.1809 37.06 83.7156 37.0216C83.9535 37.0054 84.1928 37.0069 84.4321 36.9995V37.001Z" fill="#A569E5"/>
<path d="M42.4406 60.8262C42.4347 60.3023 42.386 59.7769 42.5027 59.2589C42.5307 59.7828 42.5573 60.3082 42.4406 60.8262Z" fill="#A569E5"/>
<path d="M21.512 51.2144C22.5653 51.4196 23.6334 51.4476 24.7015 51.4461C24.4828 51.7354 24.1785 51.4815 23.9569 51.573C24.2406 51.5568 24.5493 51.5878 24.8655 51.5007C25.1402 51.4255 25.4431 51.4919 25.7149 51.607C26.9691 52.1442 27.8525 53.0208 28.1982 54.3712C28.4109 55.2005 28.47 56.0476 28.535 56.8992C28.6709 58.6672 28.6488 60.4381 28.5897 62.2032C28.5335 63.8989 28.6236 65.6049 28.343 67.2932C28.2765 67.6961 28.2898 68.1255 28.3636 68.5402C28.2986 70.019 28.2322 71.4977 28.1731 72.9765C28.1613 73.2716 28.0002 73.4059 27.7358 73.4649C27.563 73.5033 27.3916 73.5476 27.2202 73.5904C26.6559 73.9667 25.9911 73.9092 25.3677 73.9829C24.4577 74.0907 23.5477 73.9859 22.6495 73.8088C22.4738 73.7749 22.3112 73.7144 22.1783 73.5889C21.2151 73.493 20.834 72.9942 20.8576 72.0024C20.8827 70.9148 20.7261 69.8242 20.6493 68.735C20.6139 67.9514 20.5223 67.1722 20.4927 66.387C20.4395 64.9585 20.3007 63.5343 20.3036 62.1028C20.3036 61.7663 20.3612 61.421 20.2874 61.0934C20.1825 60.6211 20.5237 60.2802 20.5932 59.8655C20.7055 59.1985 20.7645 58.524 20.8561 57.854C20.8753 57.7138 20.8901 57.5677 20.7705 57.3626C20.5961 58.0031 20.5651 58.5949 20.4942 59.1778C20.3273 60.5591 20.441 60.3776 19.1292 60.4352C18.1158 60.4795 17.1009 60.4278 16.089 60.5031C14.0223 60.4972 11.9703 60.3555 9.97896 59.746C8.96408 59.4346 8.04817 58.9432 7.35237 58.1123C7.21203 58.0636 7.22976 57.9175 7.17067 57.8186C6.77032 57.0837 6.61078 56.2882 6.58862 55.4603C6.56941 54.7047 6.55021 53.9506 6.53101 53.1949C10.4739 53.099 14.2409 51.9125 18.1069 51.3384C18.2517 51.3281 18.3906 51.3414 18.5117 51.4329C19.4793 51.8151 20.4085 51.731 21.3023 51.2085C21.3717 51.1879 21.4411 51.1761 21.5091 51.2174L21.512 51.2144Z" fill="#55408B"/>
<path d="M83.2681 62.5396C83.1321 63.949 82.7924 65.32 82.4777 66.6955C81.7775 69.7636 80.8911 72.7831 80.0092 75.8026C79.9486 76.1981 79.7817 76.4696 79.3178 76.3929C79.1081 76.5582 78.8584 76.5316 78.6206 76.5154C77.2467 76.4268 75.9053 76.1656 74.5906 75.7598C74.4325 75.7111 74.2921 75.6432 74.1799 75.5192C73.8711 75.41 73.8017 75.2182 73.846 74.8846C73.9361 74.1999 73.9553 73.5062 74.0026 72.817C73.8179 72.0924 74.0203 71.3767 74.0794 70.6639C74.2198 68.9667 74.3527 67.2695 74.5256 65.5753C74.6556 64.2988 74.6954 63.0104 75.0027 61.756C75.1327 61.6896 75.1829 61.5863 75.2273 61.4387C75.4208 60.8026 75.4784 60.1415 75.5995 59.4936C75.8256 58.2834 76.121 57.0836 76.7297 56.0122C77.6648 54.3682 79.2824 53.7218 81.1556 54.5349C82.296 55.0308 83.2297 55.8322 84.1618 56.6291C85.6081 57.8643 86.9184 59.2501 88.3868 60.4588C89.1964 61.1258 90.0222 61.7707 91.0046 62.1795C91.1626 62.2459 91.3488 62.3079 91.3266 62.5426C90.2541 62.4481 89.1786 62.3699 88.1076 62.2548C86.5343 62.0866 84.9566 62.0467 83.3774 62.0541C83.1912 61.8504 83.2592 61.5981 83.2474 61.3634C83.2178 60.807 83.302 60.2448 83.1499 59.6943C83.1499 60.6432 82.9253 61.601 83.2681 62.5352V62.5396Z" fill="#55408B"/>
<path d="M27.2468 74.827C27.792 74.8905 28.2632 75.134 28.699 75.4439C29.9768 76.3501 31.3315 77.1204 32.7438 77.7934C33.4174 78.1136 34.0778 78.4531 34.2816 79.278C34.5121 80.2152 34.2019 80.7361 33.252 80.9235C32.4734 81.077 31.6846 81.1198 30.8942 81.0977C28.1332 81.0195 25.4003 80.711 22.7131 80.0543C21.8208 79.8359 21.611 79.6278 21.546 78.7143C21.481 77.8126 21.552 76.9109 21.7396 76.0239C21.7868 75.8025 21.8164 75.5354 22.0897 75.4306C22.298 75.438 22.4428 75.5723 22.5905 75.6919C23.0928 76.0933 23.6837 76.2822 24.2982 76.4179C24.7118 76.5094 25.0472 76.4179 25.3116 76.0593C25.5376 75.7509 25.7637 75.4321 26.0724 75.1975C26.4166 74.9363 26.7726 74.6839 27.2483 74.827H27.2468Z" fill="#55408B"/>
<path d="M40.6724 73.6641C41.12 73.6848 41.5262 73.8442 41.8896 74.0892C43.3743 75.0898 44.9048 76.0062 46.5298 76.7618C47.162 77.0555 47.4398 77.6016 47.4885 78.2745C47.5328 78.887 47.2625 79.2456 46.6539 79.3828C45.9891 79.5334 45.311 79.5525 44.6344 79.5599C41.705 79.5909 38.808 79.3135 35.9569 78.6213C35.1326 78.4206 34.979 78.2361 34.9538 77.3964C34.9272 76.5095 34.9376 75.624 35.1503 74.7547C35.2035 74.5393 35.2434 74.312 35.4384 74.1644C35.7324 74.2353 35.9229 74.4684 36.1608 74.6264C36.7103 74.9909 37.3249 75.1576 37.9586 75.2772C38.3368 75.348 38.6042 75.165 38.8125 74.864C39.1065 74.4389 39.4344 74.0419 39.9071 73.8029C40.1435 73.6833 40.3813 73.5077 40.6724 73.6671V73.6641Z" fill="#55408B"/>
<path d="M58.2932 69.3342C58.3183 70.2669 58.7201 70.8381 59.5947 71.1554C60.8001 71.5907 62.0425 71.6114 63.3041 71.4874C64.3456 71.3841 65.3694 71.2129 66.3621 70.8779C66.6088 70.7938 66.8363 70.6846 67.015 70.4912C67.1775 71.2528 67.0712 71.9921 66.8422 72.7256C66.6841 73.2303 66.3252 73.5388 65.8273 73.5668C62.5596 73.7513 59.2859 73.9535 56.1187 72.8171C55.5854 72.6252 55.0609 72.4172 54.6443 72.0187C54.0017 71.4048 54.1037 70.7008 54.9368 70.3998C56.0404 70.0013 57.1734 69.6884 58.2932 69.3372V69.3342Z" fill="#E56990"/>
<path d="M79.0829 78.3366C79.2986 78.8782 79.4139 79.4419 79.4715 80.019C79.5571 80.8543 79.3355 81.2247 78.523 81.4298C77.5746 81.6704 76.6085 81.8416 75.6601 82.0792C73.7721 82.5514 71.893 83.0532 69.9194 82.9956C69.2738 82.9765 68.6342 82.9514 68.0078 82.7787C67.7404 82.7049 67.4952 82.5957 67.2707 82.4348C66.6339 81.9803 66.6251 81.2941 67.2707 80.8498C67.5188 80.6786 67.801 80.5429 68.0846 80.4381C68.7332 80.199 69.3802 79.9614 69.9962 79.6456C70.1292 79.619 70.2518 79.65 70.3715 79.7046C71.4395 80.1931 72.5549 80.2182 73.6865 80.0219C74.9569 79.8005 76.2126 79.5172 77.4417 79.1143C78.0252 78.9225 78.5068 78.5314 79.0844 78.3351L79.0829 78.3366Z" fill="#E56990"/>
<path d="M16.2841 67.6474C16.16 68.8649 16.2501 70.0795 16.2131 71.2941C16.2087 71.4372 16.188 71.5833 16.2427 71.7221C16.3018 74.1187 16.1644 76.514 16.1644 78.9106C16.1644 79.284 15.9591 79.4685 15.5971 79.4892C15.2145 79.5113 14.9708 79.346 14.9471 78.9475C14.8954 78.0812 14.8496 77.2135 14.8097 76.3472C14.7034 74.0022 14.6014 71.6556 14.4966 69.3106C14.4168 67.277 14.3326 65.2419 14.2631 63.2067C14.2572 63.04 14.0608 62.7109 14.4995 62.7463C15.1111 62.8762 15.7345 62.8865 16.355 62.9293C16.4185 63.0031 16.4791 63.0857 16.4805 63.1817" fill="#55408B"/>
<path d="M79.0829 78.3366C78.3487 79.0139 77.4284 79.2973 76.4918 79.5349C75.0795 79.892 73.6761 80.2994 72.1944 80.2566C71.4085 80.2329 70.6728 80.0529 69.9962 79.6471C70.8708 78.9918 71.8177 78.4428 72.7233 77.8333C73.5786 77.2578 74.0499 76.5169 74.1784 75.5222C75.2036 75.7628 76.2082 76.0948 77.2585 76.2365C77.9425 76.3295 78.6279 76.3767 79.3178 76.3944C79.2764 77.0467 79.0711 77.6783 79.0829 78.3366Z" fill="#FFCDBA"/>
<path d="M29.6445 66.9995C29.42 65.686 29.2043 64.3711 28.9901 63.0562C28.9665 62.913 28.9458 62.7699 29.0167 62.6311C29.5101 62.274 30.0847 62.3817 30.6328 62.3596C30.8086 62.3522 30.8441 62.5278 30.8825 62.668C31.1188 64.3062 31.3552 65.9428 31.5916 67.581C31.7615 69.0184 31.9373 70.4558 32.0968 71.8947C32.2268 73.062 32.342 74.2323 32.4484 75.4026C32.475 75.689 32.5902 76.0505 32.1234 76.1273C31.7541 76.1878 31.3611 75.9133 31.2769 75.4986C31.1026 74.6323 30.9519 73.7601 30.7968 72.8894" fill="#55408B"/>
<path d="M75.1446 61.6734C74.9245 62.2519 74.9333 62.8703 74.8757 63.4694C74.6187 66.1067 74.4045 68.7469 74.1696 71.3871C74.1267 71.8652 74.0588 72.3419 74.0026 72.8186C72.6125 71.632 71.8827 70.1149 71.7646 68.3027C71.6937 67.2076 71.8192 66.1303 72.1398 65.0795C73.0971 63.9461 74.1651 62.9027 74.9762 61.6483C75.019 61.5834 75.081 61.5893 75.146 61.5967C75.1726 61.6129 75.1815 61.6306 75.1726 61.6468C75.1638 61.6631 75.1549 61.6719 75.146 61.6719L75.1446 61.6734Z" fill="#E56990"/>
<path d="M27.2469 74.827C26.3916 74.8994 25.8642 75.4572 25.4343 76.111C25.1359 76.5641 24.7518 76.6511 24.2776 76.5463C23.4533 76.3633 22.691 76.052 22.0883 75.4321C22.2448 74.8241 22.1739 74.2057 22.1798 73.5903C23.861 73.9726 25.5406 73.9253 27.2218 73.5918C27.1686 74.005 27.3931 74.4109 27.2484 74.8256L27.2469 74.827Z" fill="#FFCDBA"/>
<path d="M40.6723 73.6641C39.8584 73.7542 39.3472 74.2899 38.9321 74.9112C38.6219 75.3746 38.254 75.4838 37.7399 75.3613C36.8684 75.1547 36.0514 74.8581 35.4384 74.163C35.5757 73.6818 35.6127 73.1875 35.6363 72.6916C37.3204 72.9307 38.9956 72.8923 40.6605 72.5352C40.6635 72.9115 40.6679 73.2878 40.6709 73.6641H40.6723Z" fill="#FFCDBA"/>
<path d="M28.3652 68.5432C28.2027 67.8466 28.2839 67.1456 28.3268 66.4461C28.3342 66.3192 28.3785 66.1937 28.377 66.0668C28.3608 63.7985 28.5425 61.5332 28.4804 59.2649C28.4331 57.5515 28.4568 55.8322 27.9959 54.1586C27.665 52.9559 26.4241 51.7915 25.0709 51.5686C24.6233 51.4948 24.1239 51.6454 23.5537 51.6011C23.9851 51.4417 24.3692 51.6439 24.703 51.4476C25.0531 51.4048 25.4033 51.362 25.7519 51.3192C27.2292 51.7383 28.1347 52.7375 28.5558 54.1719C28.7818 54.9393 28.8158 55.7451 28.8808 56.5465C28.9605 57.5279 28.9605 58.5063 28.9561 59.4862C28.9561 59.7593 29.0462 59.8729 29.3195 59.8478C29.4288 59.8375 29.5485 59.8257 29.6312 59.9319L29.6489 59.957C29.4569 60.1253 29.2161 60.0677 28.9945 60.0957C28.7301 60.1135 28.7079 60.2979 28.7079 60.5031C28.7094 61.027 28.6991 61.5509 28.7153 62.0748C28.7271 62.3006 28.7064 62.5279 28.7153 62.7537C28.7153 63.1005 28.736 63.4487 28.6784 63.7941C28.5676 64.1601 28.6163 64.5349 28.6237 64.9068C28.6134 65.4942 28.6621 66.0816 28.5853 66.666C28.5602 66.8519 28.5439 67.0467 28.4154 67.2032C28.3992 67.6518 28.3814 68.099 28.3652 68.5476V68.5432Z" fill="#55408B"/>
<path d="M20.6183 68.642C20.506 67.3286 20.4913 66.0092 20.3539 64.6958C20.2903 64.0936 20.3347 63.4812 20.3302 62.8732C20.2372 62.5131 20.3568 62.1382 20.2638 61.7781C20.2534 61.6837 20.2445 61.5877 20.2342 61.4933C20.2372 61.2144 20.2372 60.9355 20.246 60.6565C20.2505 60.5296 20.2165 60.4455 20.0747 60.4381C19.6847 60.534 19.2828 60.4174 18.8914 60.503C17.9577 60.503 17.0241 60.503 16.0905 60.503C16.2116 60.3865 16.3652 60.4204 16.5056 60.4278C17.6342 60.4898 18.7555 60.3038 19.8826 60.3289C20.1027 60.3333 20.2313 60.2994 20.2564 60.0249C20.3317 59.197 20.4425 58.372 20.5415 57.547C20.5651 57.3537 20.6021 57.0984 20.8163 57.094C21.1028 57.0881 21.0334 57.3729 21.0172 57.5441C20.9315 58.4355 20.8266 59.3254 20.7261 60.2153C20.7217 60.261 20.7099 60.3333 20.6818 60.3451C20.0909 60.5916 20.3893 61.0535 20.41 61.4475C20.4174 61.5759 20.4381 61.7043 20.4366 61.8313C20.4115 63.5683 20.6065 65.2964 20.6508 67.0305C20.6656 67.6001 20.8266 68.1668 20.6508 68.7365C20.6405 68.7055 20.6301 68.673 20.6198 68.642H20.6183Z" fill="#55408B"/>
<path d="M34.2063 62.5514C34.1989 61.7073 34.196 60.8631 34.1812 60.019C34.1783 59.8861 34.2979 59.8581 34.0261 59.8404C33.8976 59.7902 33.8813 59.9275 33.4204 59.8537C34.0128 59.6913 33.9773 59.4154 34.2063 58.9387C34.4353 58.462 34.3215 57.9248 34.3865 57.4171C34.4043 57.2769 34.4575 57.153 34.6155 57.1603C34.809 57.1692 34.7795 57.336 34.7692 57.454C34.7086 58.1388 34.7839 58.8826 34.5358 59.4936C34.1354 60.475 34.3245 61.4239 34.3703 62.392C34.3718 62.4245 34.3777 62.4555 34.3792 62.488C34.4131 64.2884 34.4471 66.0874 34.4811 67.8879C34.4826 67.9853 34.4826 68.0827 34.4028 68.155C34.3289 67.6134 34.4604 67.057 34.2876 66.5213C34.2817 65.5325 34.2772 64.5437 34.2713 63.5535C34.1871 63.2229 34.2979 62.8805 34.2078 62.5514H34.2063Z" fill="#3C2774"/>
<path d="M92.9929 48.7114C93.6311 48.5933 94.1821 48.8929 94.7258 49.1276C96.8368 50.0381 98.9301 50.99 101.128 51.6778C101.679 51.8504 102.239 51.998 102.801 52.1308C103.071 52.1943 103.256 52.3123 103.315 52.5913C103.381 53.7512 103.448 54.9112 103.516 56.0712C103.68 56.2586 103.647 56.4505 103.526 56.6438C103.524 56.8725 103.523 57.0998 103.521 57.3286C103.403 57.3463 103.31 57.3182 103.214 57.2341C100.394 54.7813 97.1249 53.1107 93.6651 51.7707C93.606 51.7471 93.5499 51.7161 93.4568 51.6704C93.6902 51.4593 93.6828 51.2143 93.6045 50.9413C93.3918 50.2005 93.1953 49.4552 92.9929 48.7129V48.7114Z" fill="#FFC446"/>
<path d="M75.1446 61.6733C75.1446 61.6482 75.1446 61.6231 75.1446 61.598C74.7457 61.2512 75.0264 60.8321 75.0707 60.4705C75.2421 59.0538 75.5478 57.6636 76.1107 56.3398C76.7489 54.8374 77.8568 53.9047 79.4892 53.7793C80.4642 53.704 81.3698 54.1084 82.2 54.6397C83.5458 55.5015 84.7158 56.573 85.8843 57.6488C87.2523 58.9092 88.5375 60.2669 90.1212 61.2748C91.3074 62.029 92.5572 62.6296 93.965 62.8436C93.9887 62.8466 94.0093 62.8702 94.0315 62.8835C93.9946 62.9056 93.9576 62.9277 93.9207 62.9499C93.0491 62.8613 92.1864 62.7137 91.3281 62.5455C91.0031 62.1854 90.5141 62.119 90.1197 61.8755C89.2274 61.3235 88.4193 60.6712 87.6379 59.9806C85.8459 58.4 84.215 56.6305 82.2296 55.2728C81.4141 54.715 80.5469 54.2796 79.5025 54.3239C78.2188 54.377 77.3738 55.0854 76.805 56.1376C75.9763 57.671 75.731 59.3814 75.4592 61.0741C75.4223 61.3088 75.2745 61.4756 75.2288 61.691C75.2288 61.6984 75.1992 61.7043 75.1859 61.7013C75.1711 61.6984 75.1608 61.6836 75.1475 61.6733H75.1446Z" fill="#3C2774"/>
<path d="M103.526 56.6438C103.523 56.4534 103.52 56.263 103.516 56.0712C104.516 55.9753 105.517 55.8808 106.517 55.7834C106.906 55.745 107.281 55.8395 107.662 55.8793C107.854 55.9 108.039 55.9753 108.021 56.1833C108.003 56.3973 107.788 56.3663 107.633 56.359C106.38 56.3073 105.141 56.4859 103.895 56.5582C103.77 56.5656 103.648 56.6128 103.524 56.6423L103.526 56.6438Z" fill="#C2466E"/>
<path d="M103.316 59.2264C103.331 59.1025 103.316 58.9711 103.405 58.8649C103.666 59.2279 104.087 59.0552 104.427 59.1556C105.449 59.4567 106.478 59.7282 107.253 60.5266C107.352 60.6284 107.572 60.7273 107.41 60.9133C107.269 61.0741 107.099 61.0077 106.938 60.8882C106.031 60.2108 105 59.8389 103.892 59.6382C103.662 59.5969 103.294 59.6559 103.316 59.2264Z" fill="#C2466E"/>
<path d="M83.2681 62.5396C82.8707 61.9404 82.8323 61.297 82.9815 60.6093C83.048 60.3008 82.9963 59.9732 82.9091 59.6589C82.881 59.5585 82.8796 59.4242 83.0258 59.3814C83.1854 59.3357 83.2489 59.4286 83.3036 59.5659C83.3774 59.7518 83.3818 59.9407 83.3818 60.1326C83.3804 60.7746 83.3789 61.4165 83.3774 62.0585C83.2312 62.1943 83.3213 62.3832 83.2681 62.5396Z" fill="#55408B"/>
<path d="M26.0591 37.2195C24.0869 39.0037 22.3364 41.0005 20.537 42.9529C20.0141 43.5211 19.4261 44.0288 18.9475 44.6412C18.8692 44.7416 18.7628 44.9172 18.5959 44.7741C18.4231 44.6265 18.5383 44.4907 18.655 44.3653C19.0376 43.9521 19.4114 43.53 19.8043 43.1271C19.9772 42.9485 20.0126 42.8364 19.9077 42.5648C19.6034 41.7723 19.4054 40.94 19.1321 40.1342C18.621 38.6274 18.101 37.1221 17.3417 35.7157C17.2796 35.6005 17.2486 35.5061 17.3639 35.422C17.4717 35.3438 17.5736 35.3807 17.6711 35.4618C17.8321 35.5946 17.8484 35.8013 17.9341 35.971C18.9032 37.9057 19.5783 39.9482 20.1692 42.0217C20.2135 42.1782 20.1884 42.432 20.3923 42.46C20.5429 42.4807 20.636 42.277 20.732 42.1486C21.0999 41.6572 21.546 41.2322 21.9685 40.7968C23.1341 39.597 24.1918 38.288 25.5007 37.2283C25.6425 37.1147 25.7651 36.9907 25.9645 37.0188C26.0517 37.0586 26.1167 37.1103 26.0606 37.2195H26.0591Z" fill="#0B9193"/>
<path d="M21.5121 51.2144C21.4427 51.2115 21.3747 51.2085 21.3053 51.2056C21.6111 50.8234 22.0646 50.6153 22.4044 50.2788C24.0087 48.6938 25.3752 46.9199 26.5541 45.0014C27.5291 43.4149 28.3785 41.7635 29.1614 40.0722C29.4126 39.5291 29.1688 39.234 28.9635 38.8532C28.9399 38.7573 28.8601 38.6599 28.9664 38.5654C29.1496 38.6643 29.2191 38.9078 29.4495 38.9477C29.8543 39.1823 29.7804 39.5321 29.6667 39.8804C29.3431 40.8618 28.8793 41.7827 28.3874 42.6858C27.4892 44.3372 26.5275 45.9532 25.3811 47.4467C24.2761 48.8856 23.1563 50.3216 21.5151 51.2144H21.5121Z" fill="#0B9193"/>
<path d="M18.5147 51.4314C18.3729 51.4284 18.2281 51.4417 18.11 51.3369C17.1512 50.9016 16.4392 50.1578 15.7641 49.3918C14.2011 47.6179 13.0355 45.5843 12.0103 43.4665C11.5346 42.4836 11.0781 41.4904 10.7546 40.4426C10.7162 40.3201 10.6793 40.1976 10.6571 40.0722C10.6394 39.9704 10.5522 39.839 10.7029 39.7756C10.8625 39.7077 10.954 39.8434 10.9998 39.9512C11.1476 40.3068 11.2672 40.6743 11.4061 41.0329C12.5539 43.986 14.043 46.7502 16.0639 49.2014C16.7066 49.9807 17.4422 50.6876 18.3109 51.2366C18.3892 51.2867 18.4483 51.3664 18.5162 51.4328L18.5147 51.4314Z" fill="#0B9193"/>
<path d="M25.8671 33.4444C24.6232 32.5663 23.5507 31.514 22.7072 30.2434C22.1237 29.3638 21.8622 28.3839 21.8917 27.3287C21.8947 27.2121 21.8312 27.0247 22.007 27.0099C22.168 26.9952 22.1665 27.1693 22.1857 27.2962C22.3497 28.4031 22.685 29.4332 23.3808 30.3423C24.1269 31.3177 25.1358 31.8653 26.2438 32.2859C26.4093 32.3479 26.5747 32.4084 26.7387 32.4703C26.4994 32.8408 26.2305 33.1846 25.8671 33.4444Z" fill="#FFA986"/>
<path d="M28.9664 38.5654C28.9325 38.6613 29.0713 38.7587 28.9635 38.8531C28.3593 38.4694 27.7654 38.068 27.1464 37.7079C26.8052 37.5087 26.4226 37.3803 26.0592 37.2194C26.0267 37.153 25.9956 37.0866 25.9631 37.0187C26.0222 36.9774 26.0813 36.9361 26.1419 36.8962C26.9559 37.0217 27.563 37.5471 28.2101 37.9839C28.4701 38.1595 28.7759 38.2953 28.9679 38.5654H28.9664Z" fill="#0B9193"/>
<path d="M82.2634 12.2771C81.9488 12.2771 81.7523 12.1354 81.5809 11.9215C80.829 10.9769 80.0682 10.0383 79.3118 9.09531C78.8273 8.49171 78.7948 8.01503 79.2084 7.70364C79.6162 7.39667 80.0342 7.53245 80.504 8.12129C80.9959 8.73817 81.5012 9.34472 81.9798 9.97193C82.2058 10.2686 82.3595 10.2656 82.6135 9.98964C84.178 8.29838 85.7587 6.62188 87.3349 4.94096C87.4782 4.78895 87.6067 4.60595 87.8091 4.53954C88.1179 4.43919 88.4237 4.46575 88.6482 4.73435C88.8639 4.99261 88.9008 5.29072 88.7457 5.59031C88.6733 5.73051 88.5625 5.85447 88.4547 5.97254C86.617 7.95895 84.7748 9.94389 82.9371 11.9303C82.7435 12.1399 82.5352 12.3037 82.262 12.2786L82.2634 12.2771Z" fill="#55408B"/>
<path d="M27.9988 50.4661C28.4863 49.5423 28.73 48.5284 29.0595 47.547C29.3579 46.6571 29.6312 45.7569 29.9163 44.8625L29.9192 44.8655C30.5028 45.7466 30.9991 46.6837 31.6506 47.5234C32.4188 48.5151 33.2357 49.4523 34.2816 50.1665C32.1809 50.1223 30.0936 50.385 27.9988 50.4676V50.4661Z" fill="white"/>
<path d="M7.1736 57.8171C7.23417 57.9145 7.29474 58.0134 7.35531 58.1108C7.31099 58.1566 7.26815 58.2362 7.2194 58.2407C6.48371 58.313 5.78201 58.4945 5.12019 58.828C5.0153 58.8812 4.9311 58.8207 4.88826 58.7247C4.82178 58.5786 4.90155 58.4812 5.01973 58.4074C5.62542 58.0326 6.25917 57.7478 6.9978 57.8304C7.05985 57.8378 7.11746 57.8702 7.1736 57.8171Z" fill="#A569E5"/>
<path d="M18.8914 60.5016C19.2784 60.351 19.6787 60.4351 20.0747 60.4366C19.6847 60.5429 19.2873 60.5178 18.8914 60.5016Z" fill="#55408B"/>
<path d="M101.981 46.5893C101.939 45.3895 101.504 44.2723 101.242 43.1183C100.967 41.9007 100.647 40.6921 100.363 39.476C100.31 39.2458 100.337 38.9964 100.326 38.7558C100.695 38.6968 100.63 39.0303 100.673 39.1956C101.087 40.7747 101.474 42.3627 101.874 43.9447C102.05 44.6428 102.269 45.3305 102.366 46.0477C102.399 46.2897 102.533 46.3812 102.787 46.4108C103.375 46.4801 103.957 46.5923 104.539 46.7C104.689 46.728 104.928 46.7605 104.892 46.945C104.854 47.1442 104.638 47.0572 104.48 47.0291C103.647 46.8815 102.801 46.8151 101.981 46.5908V46.5893Z" fill="#FFA986"/>
<path d="M90.811 42.7212C90.4638 41.455 90.1122 40.1888 89.7695 38.9211C89.6897 38.6259 89.5922 38.3411 89.4415 38.074C89.929 37.9485 90.1595 38.2024 90.2791 38.6333C90.6307 39.901 90.9882 41.1687 91.3443 42.4364C91.4536 43.071 90.9882 42.6253 90.811 42.7198V42.7212Z" fill="#55408B"/>
<path d="M91.7121 45.6669C90.3899 45.2183 88.957 45.2493 87.6584 44.7032C89.0131 45.0117 90.4475 44.963 91.7121 45.6669Z" fill="#FFA986"/>
<path d="M87.849 43.6864C87.8431 43.6584 87.8372 43.6303 87.8313 43.6023C88.7531 43.9152 89.7296 43.682 90.6632 43.8827C90.9602 43.9462 91.2601 44.0067 91.5703 43.989C91.6929 43.9816 91.8657 43.9889 91.848 44.166C91.8318 44.3181 91.6648 44.2753 91.5659 44.2634C91.1049 44.2088 90.6352 44.1764 90.1876 44.0627C89.5686 43.9048 88.9319 44.0716 88.3158 43.9093C88.1371 43.862 87.982 43.8074 87.849 43.6849V43.6864Z" fill="#FFA986"/>
<path d="M88.5301 46.0019C88.4651 45.9694 88.3986 45.9369 88.3336 45.9045C88.7133 45.7141 89.0501 45.9547 89.3854 46.0417C90.1625 46.2469 90.8686 46.635 91.5585 47.0467C91.6442 47.0984 91.8155 47.125 91.718 47.2755C91.6309 47.4113 91.5304 47.3035 91.4359 47.2386C90.551 46.6306 89.5376 46.3265 88.5316 46.0019H88.5301Z" fill="#FFA986"/>
<path d="M98.8873 16.2072C98.9804 16.2603 99.0646 16.3046 99.1473 16.3562C100.1 16.9465 100.461 17.8925 100.682 18.9197C100.698 18.9964 100.743 19.1277 100.598 19.1469C100.49 19.1617 100.428 19.0938 100.4 18.9816C100.354 18.7957 100.291 18.6142 100.24 18.4297C100.023 17.6254 99.5979 16.9672 98.8976 16.4994C98.8341 16.4566 98.7307 16.4359 98.7558 16.337C98.7691 16.2868 98.8415 16.2514 98.8888 16.2072H98.8873Z" fill="white"/>
<path d="M37.9689 2.67116C39.5185 2.62984 40.7033 3.47399 40.9914 4.66791C41.049 4.90551 41.2514 4.92912 41.4168 5.01177C43.0832 5.85149 43.8573 7.48372 43.3993 9.18383C43.2605 9.69741 43.0019 10.1401 42.5986 10.4781C42.2367 10.7806 41.9501 11.1319 41.6842 11.5171C40.8274 12.7567 39.6057 13.4503 38.1668 13.8134C37.9615 13.865 37.635 13.778 37.635 14.175C37.635 14.2635 37.4828 14.3063 37.3898 14.2724C36.4591 13.9211 35.4634 14.2399 34.5239 13.9905C33.2165 13.6422 32.2237 12.9264 31.7673 11.6027C31.6978 11.4034 31.5811 11.2913 31.4113 11.1821C29.6119 10.0324 29.442 7.87923 31.0301 6.44328C31.2059 6.28537 31.3906 6.15993 31.4172 5.87215C31.5339 4.60592 32.3109 3.84737 33.4322 3.39282C34.2594 3.05782 35.1222 2.8822 36.0203 2.86892C36.6955 2.86006 37.3514 2.63131 37.9718 2.67116H37.9689Z" fill="#55408B"/>
<path d="M29.0048 22.6401C29.1732 22.9914 28.9117 23.1758 28.761 23.3839C28.4006 23.8798 27.433 24.1071 26.8701 23.865C26.5968 23.747 26.6205 23.6245 26.8051 23.4444C26.9262 23.3249 27.0784 23.2733 27.2276 23.2231C27.817 23.0238 28.4109 22.8335 29.0033 22.6416L29.0048 22.6401Z" fill="#FFE4D5"/>
<path d="M30.8854 23.192C30.9031 22.9042 30.9932 22.7168 31.302 22.8629C31.7437 23.0725 32.0908 23.4001 32.3627 23.8015C32.4557 23.9373 32.534 24.1026 32.2622 24.1498C31.9475 24.2044 31.0523 23.7115 30.9282 23.409C30.8987 23.3366 30.8972 23.254 30.8854 23.1935V23.192Z" fill="#FFE4D5"/>
<path d="M29.3741 28.1065C29.5691 27.9634 29.7553 27.9501 29.9414 27.9161C30.4629 27.8202 30.6224 27.5044 30.4334 26.9982C30.3048 26.6529 30.1645 26.309 30.0699 25.9533C30.0064 25.7128 29.9296 25.4383 30.228 25.152C30.2251 25.881 30.519 26.4477 30.7421 27.0366C30.8751 27.3893 30.8204 27.7317 30.5087 27.9442C30.1866 28.1641 29.8188 28.3353 29.3741 28.108V28.1065Z" fill="#11051D"/>
<path d="M26.4668 25.1091C27.0429 25.2065 27.5201 25.1091 27.9751 24.8863C28.0652 24.842 28.1509 24.8022 28.2292 24.8996C28.306 24.9955 28.2454 25.0767 28.1967 25.1593C27.8215 25.8175 26.9454 25.8323 26.4653 25.1077L26.4668 25.1091Z" fill="#11051D"/>
<path d="M26.5186 30.45C26.1227 30.1283 26.0252 29.5823 26.2482 29.2119C26.526 28.7499 26.9381 28.4164 27.4182 28.1685C27.501 28.1257 27.6103 28.0799 27.659 28.2054C27.6945 28.2969 27.6044 28.3456 27.5394 28.3898C27.3931 28.4872 27.2306 28.5655 27.0991 28.6776C26.585 29.1174 26.1182 29.5823 26.52 30.4486L26.5186 30.45Z" fill="#FFA986"/>
<path d="M32.1367 25.2922C31.6403 25.6759 30.878 25.5726 30.6387 25.1047C30.5855 25.0014 30.5501 24.8908 30.6151 24.7874C30.6816 24.6812 30.782 24.7299 30.8707 24.7638C30.9002 24.7756 30.9238 24.7992 30.9534 24.8111C31.3449 24.9704 31.7349 25.1298 32.1367 25.2922Z" fill="#11051D"/>
<path d="M28.9339 29.4347C29.2161 29.4347 29.4776 29.4863 29.6711 29.7136C29.7376 29.7918 29.7804 29.8819 29.711 29.9719C29.6312 30.0781 29.5352 30.0221 29.4628 29.9601C29.0196 29.5808 28.6016 29.7904 28.1731 29.9984C28.055 30.056 27.9072 30.2892 27.7817 30.053C27.6842 29.8701 27.8984 29.7815 28.0225 29.6974C28.2958 29.5144 28.6075 29.4435 28.9325 29.4347H28.9339Z" fill="#11051D"/>
<path d="M31.1941 21.3296C30.1866 21.4654 29.1821 21.5288 28.1893 21.1982C29.1894 21.2853 30.194 21.2455 31.1941 21.3296Z" fill="#FFA986"/>
<path d="M32.1558 38.7572C32.3183 38.8221 32.4808 38.8871 32.6433 38.952C32.6108 40.2728 32.8324 41.5774 32.9003 42.8909C32.9698 44.2383 33.1411 45.5739 33.308 46.911C33.3258 47.0541 33.4307 47.3168 33.1603 47.3419C32.9121 47.3655 32.9299 47.1131 32.9062 46.9493C32.7821 46.0447 32.6344 45.1415 32.5576 44.2324C32.4025 42.4098 32.2858 40.5828 32.1543 38.7572H32.1558Z" fill="#0B9193"/>
<path d="M29.9163 44.8611C29.9665 43.741 30.42 42.7109 30.6328 41.6276C30.7406 41.0786 30.8676 40.5326 30.9843 39.9851C31.0139 39.8478 30.9962 39.6516 31.1971 39.6707C31.4201 39.6929 31.4024 39.9083 31.3743 40.0544C31.2591 40.6831 31.1572 41.3192 30.9858 41.9346C30.7376 42.8304 30.4333 43.7129 30.1526 44.5999C30.1142 44.7239 30.0847 44.8552 29.9178 44.8655L29.9148 44.8626L29.9163 44.8611Z" fill="#0B9193"/>
<path d="M90.6101 26.7001C91.6974 26.9096 92.7078 26.8358 93.8173 26.5052C93.383 27.3332 92.7123 27.4926 92.0061 27.5752C91.4536 27.6401 91.0119 27.3656 90.6101 26.6986V26.7001Z" fill="#11051D"/>
<path d="M90.6411 24.8096C90.5997 24.2783 90.9085 23.902 91.2187 23.5315C91.4477 23.257 91.6752 22.9914 91.6235 22.5944C91.6116 22.5103 91.588 22.373 91.7239 22.3657C91.8672 22.3568 91.8908 22.4852 91.9071 22.6003C91.975 23.0681 91.6929 23.384 91.4285 23.7086C91.1862 24.0053 90.9321 24.2871 90.9247 24.7151C90.9188 25.09 90.9956 25.3822 91.3871 25.5091C91.4802 25.5401 91.5939 25.5829 91.5614 25.6951C91.5186 25.8456 91.3812 25.7925 91.2778 25.7659C90.9011 25.67 90.6411 25.273 90.6425 24.8081L90.6411 24.8096Z" fill="#11051D"/>
<path d="M90.585 21.0596C90.1654 20.9932 89.8345 21.1467 89.5199 21.3577C89.4253 21.4212 89.3234 21.4979 89.2229 21.3828C89.1402 21.2883 89.1624 21.1703 89.2096 21.064C89.4519 20.515 90.5953 20.2774 91.0444 20.6803C91.1183 20.7467 91.1921 20.8249 91.1685 20.9268C91.136 21.064 91.0149 21.067 90.8982 21.0611C90.7859 21.0566 90.6721 21.0611 90.5865 21.0611L90.585 21.0596Z" fill="#11051D"/>
<path d="M93.6016 21.3252C93.4095 21.337 93.3135 21.3459 93.2175 21.3474C93.1362 21.3489 93.0506 21.3459 93.0166 21.2544C92.9752 21.1422 93.0535 21.0744 93.1289 21.0153C93.6045 20.6346 94.9858 21.0404 95.2015 21.6234C95.2414 21.7311 95.2739 21.8477 95.1527 21.9244C95.036 21.9982 94.9474 21.9156 94.8499 21.8536C94.0123 21.3164 93.9945 21.3105 93.6016 21.3252Z" fill="#11051D"/>
<path d="M89.901 23.0592C89.9586 22.767 89.9438 22.3862 90.3427 22.3744C90.6603 22.3656 90.7194 22.6991 90.7165 22.947C90.7135 23.2422 90.6854 23.6259 90.3102 23.6569C89.9512 23.6864 89.966 23.316 89.901 23.0592Z" fill="#11051D"/>
<path d="M94.0491 23.3308C94.0329 23.6422 93.9871 24.0082 93.6222 24.0259C93.2869 24.0436 93.2411 23.6939 93.244 23.4135C93.247 23.0947 93.3149 22.742 93.6916 22.7376C93.9945 22.7346 94.0358 23.0608 94.0491 23.3294V23.3308Z" fill="#11051D"/>
<path d="M20.2637 61.7781C20.4233 62.1352 20.3361 62.5056 20.3302 62.8731C20.2209 62.513 20.2504 62.1455 20.2637 61.7781Z" fill="#55408B"/>
<path d="M29.0698 62.6637C28.8881 62.5574 28.7433 62.671 28.5927 62.7448C28.5927 62.5205 28.5927 62.2977 28.5941 62.0733C28.6591 61.4978 28.6252 60.9193 28.6163 60.3422C28.6119 60.0648 28.7197 59.9689 28.9679 59.9659C29.1954 59.9615 29.4214 59.9585 29.6489 59.9541C30.033 60.1268 30.4378 60.0294 30.8292 60.0249C31.1882 60.0205 31.3271 60.1445 31.4083 60.4942C31.5162 60.9591 31.4645 61.4196 31.4733 61.88C31.4778 62.0955 31.3123 62.2416 31.138 62.3139C30.9607 62.3877 30.8839 62.488 30.8839 62.6651C30.8115 62.6091 30.8396 62.4467 30.717 62.46C30.1674 62.5176 29.6016 62.4497 29.0713 62.6622L29.0698 62.6637Z" fill="#E6D5F8"/>
<path d="M34.2063 62.5514C34.3688 62.8761 34.2817 63.217 34.2699 63.5535C34.1768 63.2244 34.1886 62.8879 34.2063 62.5514Z" fill="#55408B"/>
<path d="M28.9678 59.9658C28.7389 60.0263 28.6665 60.1606 28.662 60.4085C28.6502 60.9634 28.73 61.5228 28.5941 62.0732C28.5941 61.4696 28.6044 60.866 28.5852 60.2639C28.5749 59.9525 28.7256 59.9186 28.9678 59.9658Z" fill="#A569E5"/>
<path d="M28.5557 63.8088C28.5734 64.1793 28.5941 64.5497 28.4936 64.9127C28.4833 64.5438 28.3991 64.1689 28.5557 63.8088Z" fill="#55408B"/>
<path d="M35.3171 12.0469C37.2642 12.3022 39.0148 11.6706 40.8628 11.5452C40.5216 12.0602 40.0813 12.4543 39.5318 12.7199C38.6838 13.1287 37.7827 13.3604 36.852 13.4917C36.6541 13.5198 36.5137 13.4548 36.3719 13.3323C35.9923 13.0047 35.6643 12.6343 35.3171 12.0469Z" fill="#EED4FF"/>
<path d="M38.2998 11.0596C38.4254 10.6641 38.5908 10.3246 38.8612 10.0058C39.4668 9.28861 39.6353 8.40019 39.7076 7.48667C39.7239 7.28891 39.5392 6.94653 39.9662 6.94948C40.3251 6.95096 40.6959 6.979 40.8319 7.4055C41.2676 8.76618 40.3207 10.636 38.972 11.1068C38.7371 11.1894 38.5332 11.0773 38.2998 11.061V11.0596Z" fill="#EED4FF"/>
<path d="M31.6211 10.5474C30.1778 9.67821 30.1261 8.08878 31.4497 6.88306C31.5886 7.2948 31.7304 7.70065 31.9564 8.07107C32.0125 8.16257 32.0687 8.24521 32.014 8.37951C31.7348 9.05247 31.6462 9.76675 31.6225 10.5474H31.6211Z" fill="#EED4FF"/>
<path d="M34.5771 11.5495C33.8281 11.5613 33.1604 11.4211 32.5281 11.1245C32.3612 11.0463 32.2208 10.971 32.2238 10.7467C32.2312 10.1225 32.2401 9.49967 32.4868 8.85327C33.3244 9.67234 34.032 10.5401 34.5771 11.5481V11.5495Z" fill="#EED4FF"/>
<path d="M36.0499 3.44446C35.6791 3.82964 35.4088 4.11889 35.1828 4.44357C35.134 4.51441 35.0306 4.57639 34.9464 4.58672C33.9241 4.71216 32.9994 5.1062 32.0465 5.63601C32.1292 4.98371 32.4912 4.60738 32.9654 4.31813C33.8636 3.77208 34.8607 3.55809 36.0499 3.44446Z" fill="#EED4FF"/>
<path d="M35.7574 6.25287C36.5138 5.94295 37.2318 5.67288 38.0265 5.75996C38.1846 5.77767 38.3456 5.80571 38.4948 5.85736C38.808 5.96657 38.9247 6.2691 38.9794 6.53475C39.034 6.80482 38.6869 6.75169 38.5377 6.86975C37.8921 7.37595 37.2909 7.31397 36.6807 6.77087C36.4355 6.55246 36.0987 6.43882 35.7574 6.25287Z" fill="#EED4FF"/>
<path d="M40.9944 5.56372C42.7878 6.14223 43.5338 8.13012 42.578 9.69299C42.448 9.63838 42.5219 9.5277 42.5278 9.45686C42.6046 8.4666 42.1998 7.66968 41.5291 6.98638C41.1465 6.59677 40.9604 6.14371 40.9958 5.56372H40.9944Z" fill="#EED4FF"/>
<path d="M38.0442 9.3742C37.9585 9.71363 38.0398 10.0516 37.6572 10.239C37.1017 10.5091 37.0485 10.5179 36.694 10.0176C36.2784 9.43126 36.3498 8.91867 36.9082 8.47987C37.4725 8.03565 37.5759 8.05631 37.861 8.71895C37.9541 8.93736 37.991 9.17792 38.0442 9.37567V9.3742Z" fill="#EED4FF"/>
<path d="M35.6555 13.4755C34.3348 13.4121 33.1559 13.0948 32.3951 11.7415C33.1973 12.0484 33.933 12.2063 34.6923 12.2329C34.8075 12.2373 34.8386 12.3362 34.8843 12.4233C35.0897 12.8055 35.3393 13.1553 35.6555 13.474V13.4755Z" fill="#EED4FF"/>
<path d="M34.5446 7.19592C34.6451 7.81428 34.8608 8.37951 35.1961 8.89013C35.459 9.29007 34.9996 9.35353 34.9051 9.58523C34.8046 9.82874 34.6421 9.73281 34.4707 9.65459C33.7631 9.33287 33.6597 9.13954 33.8193 8.37803C33.905 7.96629 34.1088 7.63128 34.5446 7.19592Z" fill="#EED4FF"/>
<path d="M34.357 5.25977C33.8444 6.21313 33.0703 6.86248 32.342 7.58266C32.1366 7.30374 32.0761 6.94512 31.9889 6.59536C31.9446 6.41679 32.0539 6.33562 32.1854 6.25445C32.859 5.8427 33.5711 5.52246 34.357 5.25977Z" fill="#EED4FF"/>
<path d="M35.8534 4.53217C35.8563 4.47904 35.8504 4.45838 35.8593 4.44953C36.8181 3.36925 36.4059 3.45337 37.8285 3.93005C38.2185 4.05992 38.5731 4.26505 38.9084 4.47904C37.8979 4.82143 36.886 4.63843 35.8534 4.53365V4.53217Z" fill="#EED4FF"/>
<path d="M37.0027 7.66818C36.592 7.99728 36.1917 8.31753 35.7692 8.65401C35.4383 8.19947 35.2152 7.70212 35.1532 7.13394C35.1266 6.88896 35.2167 6.81812 35.4516 6.85945C36.0514 6.9657 36.5802 7.20035 37.0027 7.66818Z" fill="#EED4FF"/>
<path d="M41.5233 8.01062C42.417 9.45099 41.8645 10.7172 40.2809 10.9858C41.1126 10.1815 41.4878 9.21929 41.5233 8.01062Z" fill="#EED4FF"/>
<path d="M39.1182 7.19592C39.0857 7.95005 38.9587 8.60383 38.6617 9.35796C38.5258 8.76764 38.322 8.31457 38.0324 7.9043C37.9246 7.75082 38.1078 7.72278 38.1846 7.67998C38.4623 7.52502 38.7504 7.3863 39.1182 7.1974V7.19592Z" fill="#EED4FF"/>
<path d="M40.3591 4.6916C40.1508 4.61634 39.9824 4.64438 39.8554 4.51451C39.297 3.9419 38.6145 3.56852 37.8079 3.2837C39.0665 3.204 39.9824 3.70873 40.3591 4.6916Z" fill="#EED4FF"/>
<path d="M33.6878 7.16492C33.4514 7.6416 33.2165 8.10647 33.1929 8.64514C32.6758 8.34407 32.6493 8.23782 32.9713 7.7936C33.1604 7.53239 33.3953 7.32135 33.6893 7.16492H33.6878Z" fill="#EED4FF"/>
<path d="M36.7309 5.22277C36.1415 5.40282 35.6525 5.58139 35.1857 5.83522C35.227 5.10618 35.3009 5.03977 35.976 5.11651C36.1946 5.1416 36.4133 5.17702 36.7309 5.22277Z" fill="#EED4FF"/>
<path d="M35.0912 10.6006C35.6304 10.7334 36.0691 10.8411 36.5212 10.9518C36.0765 11.306 35.7102 11.2263 35.0912 10.6006Z" fill="#EED4FF"/>
<path d="M38.7681 5.22577C39.3737 5.13575 39.8775 5.1387 40.0873 5.82051C39.6515 5.62423 39.2349 5.43681 38.7681 5.22577Z" fill="#EED4FF"/>
<path d="M35.326 10.0664C35.4457 9.89369 35.5255 9.78006 35.6318 9.62805C35.7973 9.83171 35.9435 10.0118 36.1075 10.2139C35.8254 10.2656 35.623 10.1121 35.3275 10.0678L35.326 10.0664Z" fill="#EED4FF"/>
</g>
<defs>
<clipPath id="clip0_153_9685">
<rect width="116" height="83" fill="white"/>
</clipPath>
</defs>
</svg>
