<svg width="89" height="83" viewBox="0 0 89 83" fill="none" xmlns="http://www.w3.org/2000/svg">
<g clip-path="url(#clip0_153_9344)">
<path d="M0 59.6647C0.0322594 59.6675 0.0635971 59.6712 0.0958565 59.6739C0.569609 59.7536 1.04705 59.7036 1.52264 59.7045C1.86828 59.7045 2.15954 59.812 2.46554 59.9704C3.39461 60.4511 4.12736 61.0902 4.72646 61.9841C5.85646 63.6718 7.61414 64.437 9.51652 64.9001C11.2908 65.3327 13.1001 65.5828 14.8937 65.9116C16.208 66.1525 17.491 66.5054 18.7317 67.0047C19.3215 67.2418 19.7953 67.6568 20.2377 68.0958C21.5779 69.4269 23.0387 70.62 24.4572 71.8622C25.3411 72.6356 26.1946 73.4434 27.0527 74.2455C27.4767 74.642 27.9164 75.0199 28.3385 75.4192C28.9136 75.9638 29.6243 76.1204 30.3939 76.0259C33.2392 75.6748 36.0688 75.2181 38.9011 74.7772C42.9787 74.1427 47.0388 73.4035 51.1072 72.7162C54.4668 72.1484 57.7342 71.1795 61.0717 70.5274C61.1813 70.5061 61.0468 70.457 61.0781 70.4236C61.1767 70.2754 61.3426 70.268 61.491 70.2226C61.974 70.0744 62.0726 69.6613 61.7058 69.313C61.5178 69.1342 61.2588 69.0546 61.0753 68.8674C60.9638 68.6887 60.997 68.4275 60.7647 68.3172C60.1767 68.0134 59.6292 67.6429 59.0725 67.289C58.9517 67.2121 58.8255 67.1399 58.7527 67.0065C58.6264 66.824 58.6319 66.686 58.8762 66.624C58.9748 66.5989 59.0716 66.5674 59.173 66.5591C60.5721 66.4396 61.8855 65.9968 63.1897 65.5078C64.2948 65.0928 65.4377 64.8603 66.6249 64.8677C67.9263 64.8769 69.2296 64.8408 70.5301 64.8779C71.6896 64.9112 72.8132 64.725 73.9063 64.3851C76.6152 63.5449 79.3203 62.6909 81.9306 61.5664C82.8633 61.1644 83.7611 60.6938 84.5685 60.0685C84.904 59.8082 85.2607 59.6989 85.6911 59.7008C86.7594 59.7054 87.8285 59.7554 88.8958 59.6749C89.047 59.7592 88.9899 59.9064 88.9899 60.0278C88.9935 61.206 88.9899 61.7794 88.9926 62.9586C88.9926 63.1364 88.941 63.3569 88.7926 63.8747C88.7106 64.1137 88.6719 64.1795 88.6387 64.2989C87.8479 66.2599 86.9133 68.2561 85.4588 69.9068C83.1952 72.4754 80.4255 74.3474 77.4447 75.9518C74.9321 77.3051 72.3025 78.3759 69.602 79.2679C66.5825 80.2655 63.5022 81.0307 60.3712 81.5994C58.7757 81.8893 57.1738 82.1283 55.5691 82.3562C54.6032 82.4933 53.6225 82.5248 52.652 82.6369C48.8536 83.0787 45.0397 83.0148 41.2303 82.962C39.7528 82.9416 38.2716 82.7906 36.7942 82.66C35.7471 82.5674 34.7001 82.4683 33.6567 82.3562C32.429 82.2247 31.205 82.0366 29.9874 81.8273C27.8048 81.4531 25.6352 81.0112 23.4913 80.4489C20.1925 79.5847 16.9712 78.5028 13.8651 77.0754C11.2954 75.8943 8.84 74.5216 6.61779 72.7616C4.32829 70.9479 2.32544 68.8767 1.06917 66.1793C0.571452 65.1113 0.219364 63.997 0.0866395 62.8206C0.0783443 62.7465 0.0534584 62.5455 0.0248858 62.4445C0.0248858 61.4561 0 60.6549 0 59.6647Z" fill="#FBCDFF"/>
<path d="M15.737 33.2013C16.4237 32.9864 17.0293 32.6131 17.6284 32.2278C17.9639 32.5529 18.1611 32.9809 18.4468 33.344C19.846 35.1262 21.6903 36.1692 23.8876 36.5443C24.7171 36.6861 25.5881 36.6731 26.4084 36.335C26.9744 36.1016 27.4371 35.7533 27.7523 35.2197C28.1035 34.5889 28.0767 33.9109 27.9975 33.2282C27.9707 32.9948 27.9062 32.7641 28.1385 32.5937C29.4878 33.0401 30.8188 33.5339 32.1073 34.1378C32.3543 34.2536 32.6023 34.3657 32.8502 34.4796C33.9793 35.1095 34.8576 36.0173 35.6392 37.0316C37.1352 38.9407 37.9702 41.1619 38.6504 43.4573C38.8486 44.1261 39.1048 44.7754 39.279 45.4516C39.6394 46.7966 40.0616 48.1231 40.3934 49.4764C40.5353 50.0544 40.5344 50.0914 40.0579 50.4675C39.8772 50.6194 39.6634 50.7056 39.4459 50.7862C38.3057 51.2799 37.1158 51.6087 35.8992 51.8449C35.6945 51.8848 35.4733 51.9755 35.2991 51.7606C35.1268 51.3966 35.0881 50.9964 35.0835 50.6111C35.0752 49.7969 34.9793 48.9882 34.9729 48.174C34.9526 45.7175 34.8309 43.2683 34.4927 40.8322C34.3986 40.1541 34.3037 39.4742 34.2797 38.9425C34.5314 40.8386 34.5148 42.8941 34.3913 44.9523C34.3397 45.8073 34.3489 46.6641 34.3074 47.521C34.2346 49.028 34.1249 50.5351 34.1046 52.045C33.9903 53.0315 34.0539 54.031 33.9065 55.0156C33.888 55.111 33.8502 55.2 33.8115 55.288C33.7516 55.4195 33.6714 55.5557 33.6742 55.6983C33.6843 56.2217 33.3839 56.5764 33.0272 56.8784C32.5387 57.2915 32.0926 57.7454 31.64 58.1947C31.4935 58.3401 31.334 58.4624 31.1192 58.4846C30.7893 58.4244 30.6169 58.1502 30.4224 57.9279C29.4454 56.8173 28.4998 55.6807 27.5772 54.5238C27.2518 54.1153 26.9052 53.7244 26.5817 53.314C26.449 53.1454 26.2822 53.0463 26.06 53.0491C25.8121 53.0528 25.602 53.1269 25.4775 53.3576C25.3485 53.5975 25.4287 53.8087 25.5909 53.9976C26.4204 54.9665 27.2573 55.929 28.1035 56.884C28.4205 57.2415 28.7182 57.6167 29.0657 57.9483C29.156 58.0344 29.2629 58.1308 29.203 58.2864C29.1265 58.3438 29.0205 58.367 28.9616 58.3105C28.6463 58.0122 28.3717 58.1993 28.0629 58.3346C27.4481 58.605 26.9089 58.9793 26.4103 59.423C26.2269 59.586 26.0324 59.7379 25.7752 59.7703C22.117 59.6897 18.9353 58.5532 16.5841 55.5779C16.4762 55.4408 16.3785 55.2972 16.2799 55.1527C15.8569 54.5349 15.7776 53.9421 16.2126 53.2585C17.2118 51.6902 17.7012 49.9303 18.0099 48.1101C18.0625 47.8007 17.9657 47.4608 18.1795 47.181C18.0293 47.1773 17.9924 47.0717 17.9731 46.9494C17.9537 46.6401 18.0634 46.352 18.1224 46.0565C18.3215 45.0681 18.4745 44.0751 18.4837 43.0636C18.4846 42.9478 18.5031 42.8339 18.539 42.7237C18.6247 40.1625 18.2708 37.6763 17.2477 35.3124C16.9094 34.5296 16.4385 33.8358 15.7297 33.3329C15.6992 33.2875 15.7011 33.2439 15.7361 33.2022L15.737 33.2013Z" fill="#FFC446"/>
<path d="M83.6284 37.139C83.7501 37.994 83.8524 38.8527 83.9962 39.704C84.2238 41.0545 84.4202 42.4069 84.5833 43.7676C84.7741 45.3609 84.9225 46.9569 85.0598 48.5547C85.1151 49.2022 85.1243 49.8543 85.1547 50.5037C85.1022 50.5583 85.1584 50.6917 85.0239 50.6871C84.7685 50.3953 84.9234 50.0544 84.8994 49.771C84.893 49.7876 84.9188 49.7052 84.9086 49.7283C84.8091 49.9608 84.7732 50.3351 84.4404 49.8932C84.4321 49.8821 84.4266 49.8673 84.4183 49.8562C84.3354 49.7376 84.2524 49.5857 84.0819 49.645C83.9049 49.707 83.8782 49.8821 83.8966 50.0461C83.9215 50.2619 83.9639 50.4759 84.0045 50.6898C84.0275 50.8103 84.0183 50.9298 83.8782 50.977C83.751 51.0196 83.6551 50.9576 83.5759 50.8612C83.4505 50.7074 83.4385 50.474 83.2035 50.3536C83.3473 50.6315 83.3491 50.9131 83.409 51.1808C83.4597 51.4096 83.5261 51.5115 83.7777 51.4707C84.0957 51.4188 84.3934 51.593 84.716 51.593C84.9133 51.593 84.9013 51.7736 84.8156 51.9218C84.6377 52.2284 84.3363 52.3451 83.9952 52.1766C83.7068 52.0339 83.4837 52.02 83.2708 52.2868C83.1842 52.3952 83.0468 52.4202 82.9123 52.3952C82.6892 52.3535 82.4864 52.3878 82.2901 52.5091C82.0763 52.6406 81.8809 52.6008 81.7104 52.4091C81.2956 51.9431 80.7149 51.7727 80.1573 51.6004C79.537 51.4096 78.889 51.3512 78.2448 51.5467C78.1203 51.5847 77.9793 51.5847 77.8586 51.5393C77.3821 51.3623 76.9857 51.5319 76.6032 51.8014C76.4677 51.8968 76.3249 52.0459 76.1544 51.844C76.041 51.1873 76.0631 50.5194 75.9479 49.859C75.4622 47.0865 75.0714 44.2993 74.746 41.5028C74.6428 40.6164 74.476 39.7327 74.5313 38.7786C74.499 39.1945 74.522 39.5678 74.4087 39.9216C74.1027 40.8757 73.934 41.8669 73.6418 42.8265C73.0381 44.8097 72.0095 46.5363 70.65 48.0795C69.2112 49.7126 67.6757 51.2521 66.1374 52.7888C66.1171 52.8092 66.0977 52.8324 66.0756 52.85C65.9346 52.9593 65.8111 53.2057 65.6203 53.088C65.4258 52.9685 65.5585 52.7453 65.6286 52.5739C65.7115 52.3711 65.7549 52.1571 65.8129 51.9478C66.8978 48.7983 68.1494 45.7156 69.4094 42.6348C70.0426 41.0878 70.685 39.5446 71.3164 37.9959C71.438 37.6976 71.4215 37.4725 71.1781 37.2558C70.8629 36.9751 70.603 36.6416 70.3302 36.3211C69.9845 35.9154 70.085 35.6079 70.6067 35.5013C71.3007 35.3596 71.9736 35.1447 72.6464 34.9206C72.9911 34.8057 73.0934 34.5926 73.0501 34.261C72.8639 32.8484 72.7561 31.4275 72.5985 30.0121C72.4823 28.9728 72.3358 27.9381 72.2233 26.8988C72.3404 28.0706 72.4473 29.2423 72.5146 30.4178C72.5727 31.4321 72.6362 32.4473 72.7432 33.4589C72.7524 33.5459 72.7634 33.6321 72.7671 33.7191C72.7902 34.2953 72.7616 34.3601 72.2233 34.5454C71.3606 34.8427 70.4813 35.0891 69.6094 35.3578C69.0942 35.5171 69.072 35.5875 69.4389 35.9617C69.7642 36.2933 70.1007 36.6138 70.4186 36.9529C70.9855 37.5549 71.0076 37.6689 70.6611 38.4127C69.8675 40.1134 69.155 41.8483 68.4564 43.5889C67.2637 46.5595 66.2599 49.5959 65.341 52.6629C65.1871 53.177 65.047 53.6985 64.8083 54.1838C64.7216 54.3098 64.6304 54.433 64.5161 54.5331C64.4092 54.6257 64.3013 54.6692 64.2267 54.4932C64.141 53.4548 64.2156 52.4155 64.1871 51.3762C64.1695 50.7426 64.247 50.1063 64.1336 49.4755C64.0276 48.9966 64.1778 48.526 64.1898 48.0499C64.2046 47.4737 64.2488 46.8957 64.3354 46.3233C64.8286 41.8984 65.953 37.617 67.2591 33.3773C68.0775 30.7754 68.8103 28.1512 69.3246 25.4695C69.3956 25.099 69.4472 24.7257 69.4896 24.3515C69.5071 24.1949 69.4914 24.0282 69.6343 23.9134C69.8094 23.8318 69.9495 23.9189 70.0656 24.0301C71.591 25.4955 73.581 26.0614 75.4576 26.8432C77.0751 27.5167 78.6798 28.2114 80.1536 29.1775C81.0025 29.7342 81.6228 30.4817 82.08 31.3765C82.8487 32.8808 83.2551 34.4982 83.5353 36.1525C83.5897 36.4758 83.7409 36.7963 83.6275 37.1372L83.6284 37.139Z" fill="#E56990"/>
<path d="M83.6283 37.1389C83.3288 35.7643 83.1278 34.3665 82.6532 33.0327C82.1177 31.5274 81.4485 30.1241 80.0402 29.2256C79.2982 28.7522 78.524 28.3391 77.7304 27.964C76.216 27.2479 74.6657 26.6134 73.097 26.028C71.944 25.5982 70.9522 24.9313 70.0351 24.1309C69.9393 24.0476 69.8619 23.9309 69.7125 23.9364C69.3918 23.4807 69.4535 22.9342 69.4204 22.4312C69.3605 21.5123 69.378 20.586 69.4204 19.6634C69.4886 19.4244 69.4738 19.1632 69.6093 18.9418C69.8526 18.6658 70.1845 18.8529 70.472 18.7955C70.8472 18.7195 71.1992 18.6241 71.5292 18.4351C72.697 17.8108 73.4178 15.9184 73.0721 14.5623C72.8804 13.8083 72.4537 13.3016 71.6721 13.1367C70.8195 12.957 70.1881 13.3127 69.6775 13.962C69.5973 14.0639 69.5365 14.1806 69.4757 14.2964C69.2416 14.8448 69.1706 14.8541 68.7475 14.4557C68.2876 14.0232 68.0258 13.4628 67.7217 12.9283C66.8977 12.2873 66.0092 11.738 65.175 11.1118C62.8192 9.34536 60.6578 7.38254 58.9849 4.92599C58.7803 4.86578 58.6513 4.73425 58.6918 4.44154C58.7775 4.63328 58.7573 4.80465 58.5978 4.95008C57.3885 5.60034 56.4899 6.55813 55.8373 7.76047C55.7608 7.90126 55.688 8.04299 55.5848 8.16619C55.2677 8.70066 55.1525 9.29905 55.0437 9.89836C55.0152 10.0568 55.0225 10.2522 54.8437 10.2994C54.535 10.381 54.4843 10.5857 54.4999 10.8562C54.5064 10.9562 54.476 11.0581 54.4538 11.1572C54.4114 11.3508 54.4188 11.5833 54.1488 11.6222C53.8713 11.662 53.7275 11.4823 53.6059 11.2721C53.5321 11.1452 53.498 11.0034 53.4547 10.8645C53.3874 10.6514 53.3045 10.494 53.0234 10.5922C52.792 10.6727 52.7496 10.4893 52.7588 10.318C52.8464 8.82293 53.0243 7.34548 53.6787 5.97179C53.7478 5.82636 53.816 5.68463 53.8197 5.51975C54.6511 3.88854 55.9037 2.71122 57.6134 2.07022C58.489 1.74138 59.2319 1.17541 60.0771 0.796558C61.5638 0.13055 63.127 -0.0408156 64.7326 0.00735193C66.3917 0.0564457 67.9825 0.393618 69.5006 1.07723C71.8868 2.15081 73.486 3.98951 74.568 6.33119C75.6372 8.64415 76.2621 11.084 76.6649 13.5943C76.9801 15.5562 77.3672 17.5042 78.3046 19.2882C78.8383 20.3044 79.5996 21.1547 80.2945 22.0542C81.6458 23.8021 83.0523 25.5139 83.8984 27.5934C84.4348 28.9116 84.6874 30.2908 84.7371 31.708C84.7887 33.1725 84.7086 34.6231 84.2118 36.019C84.0707 36.4155 83.9288 36.8212 83.6283 37.1389Z" fill="#11051D"/>
<path d="M25.2131 5.58925C27.3404 5.61611 29.2741 6.27193 31.0585 7.40665C31.5083 7.69287 31.9968 7.87258 32.4936 8.05043C33.4033 8.37648 34.2208 8.85816 34.9167 9.54732C35.926 10.5468 36.2421 11.7204 35.9094 13.0997C35.5693 14.5086 34.8798 15.7192 33.9176 16.7854C33.7591 16.6835 33.7766 16.5075 33.748 16.3565C33.6227 15.6989 33.4899 15.043 33.2586 14.4132C33.1636 14.1538 33.0632 13.8963 32.9 13.6703C32.6429 13.3164 32.5268 13.2988 32.2235 13.6101C31.8373 14.0074 31.4161 14.3567 30.9608 14.6707C29.511 15.672 27.8676 16.0842 26.1523 16.2769C25.9698 16.2973 25.767 16.3186 25.6251 16.1537C25.5301 16.0435 25.5707 15.9036 25.815 15.4515C24.4167 15.6451 23.0572 15.6285 21.6636 15.3626C21.6655 15.6312 21.6544 15.873 21.5936 16.1064C21.2682 17.9396 20.8452 19.7412 19.9152 21.3808C19.8368 21.5197 19.7622 21.6605 19.6479 21.7745C19.4027 22.0181 19.317 22.0023 19.1068 21.6763C18.8709 21.0547 18.5133 20.5147 18.0174 20.0728C16.8985 19.0743 15.8053 19.5588 15.2035 20.6064C15.1113 20.7676 15.1306 21.0242 14.867 21.0594C14.0928 19.7857 13.6559 18.3879 13.384 16.9327C13.1306 15.5831 13.0872 14.2288 13.4873 12.9005C13.9186 11.4675 14.8154 10.3717 16.0486 9.5501C16.1841 9.45932 16.315 9.36762 16.4017 9.23794C17.5418 7.53633 19.2045 6.61374 21.1005 6.03573C22.0646 5.74209 23.0535 5.60222 24.06 5.57721C24.4453 5.55405 24.8315 5.53738 25.2168 5.5874L25.2131 5.58925Z" fill="#11051D"/>
<path d="M19.1861 21.5901C19.2312 21.6948 19.2764 21.8004 19.3308 21.9264C19.5658 21.7921 19.6838 21.5624 19.8064 21.3465C20.6387 19.883 21.047 18.2749 21.376 16.64C21.4129 16.4575 21.4461 16.2732 21.4802 16.0898C22.3853 16.1852 23.3051 16.0398 24.2019 16.1926C26.4997 16.5844 28.6925 16.2056 30.829 15.3626C31.4502 15.1172 32.0401 14.8004 32.5405 14.3456C32.8207 14.0908 33.0825 14.0288 33.3535 14.3456C33.6484 15.1338 33.8328 15.9481 33.9157 16.7864C34.0954 18.5398 33.8881 20.3017 34.0116 22.0524C34.1065 23.3964 34.0945 24.7183 33.7231 26.0141C33.2244 27.7509 32.382 29.2812 30.8972 30.3724C30.098 30.9596 29.1773 31.2283 28.1929 31.2931C28.0362 31.3033 27.8823 31.3459 27.7265 31.3737C26.3873 31.4645 25.1614 31.0523 23.9614 30.5206C22.4784 29.8629 21.2691 28.8384 20.1723 27.6639C19.7004 27.1803 19.3013 26.6422 18.9741 26.0595C18.9262 26.3921 19.0709 26.7635 18.7888 27.1739C18.5575 26.6616 18.7077 26.1827 18.6395 25.7353C18.5704 25.5436 18.4155 25.6093 18.281 25.614C17.9851 25.6232 17.6874 25.6381 17.4478 25.4111C17.5869 25.1388 17.845 25.2342 18.0579 25.224C18.6349 25.1971 18.9483 24.9841 18.8819 24.4153C18.7796 23.528 18.9179 22.6785 19.046 21.818C19.0607 21.7208 19.0414 21.6077 19.1842 21.5901H19.1861Z" fill="#FFCDBA"/>
<path d="M9.90181 36.6109C10.5286 36.0292 11.1443 35.4336 11.8991 35.0131C12.3517 34.6231 12.6955 34.6037 12.9674 34.9519C12.9019 35.1437 13.0393 35.253 13.1489 35.3623C13.7674 35.9783 14.0909 36.7638 14.3186 37.5743C14.8154 39.3426 15.0762 41.1498 15.1758 42.9904C15.2357 44.1047 15.1794 45.2301 15.3868 46.3352C15.4237 46.7474 15.2956 47.1513 15.3306 47.5635C15.3334 48.1897 15.3205 48.8158 15.3389 49.442C15.3979 50.5916 15.2836 51.7374 15.2486 52.8841C15.2338 53.3695 15.1398 53.4427 14.5315 53.5687C12.006 53.8364 9.50087 53.6548 7.00584 53.2297C5.8869 52.9934 5.89335 52.9934 5.95234 51.7976C6.07953 49.216 6.32286 46.6465 6.74408 44.0964C7.04363 42.2845 7.5395 40.5264 8.31096 38.8554C8.63448 38.1542 9.0732 37.5224 9.52944 36.9027C9.62807 36.7684 9.76356 36.6897 9.89997 36.6091L9.90181 36.6109Z" fill="#FFC446"/>
<path d="M44.3105 40.8507C45.3604 39.5575 46.3862 38.2487 47.3254 36.8694C48.4738 35.1836 49.5421 33.4468 50.6472 31.7322C50.661 31.7109 50.6518 31.6748 50.6537 31.646C50.6666 31.3672 50.8362 31.1569 50.9772 30.943C51.639 29.9379 52.2749 28.9079 53.3035 28.2178C54.2077 27.6111 55.2317 27.3026 56.2631 27.0081C57.0696 26.7774 57.8779 26.5523 58.6586 26.2392C58.7913 26.1864 58.9268 26.1234 59.0761 26.1874C59.1591 26.2754 59.0973 26.3485 59.0522 26.4236C57.5655 27.776 56.5719 29.5211 55.3774 31.1051C55.0631 31.5219 54.758 31.9471 54.463 32.3797C54.2787 32.6501 54.3054 32.8447 54.5395 33.0596C54.9773 33.4616 55.3626 33.9192 55.8253 34.2971C56.1728 34.5815 56.1626 34.7334 55.7801 34.9974C55.4336 35.2364 55.1008 35.4939 54.7478 35.7227C54.4529 35.9144 54.3303 36.1682 54.3294 36.5267C54.3294 36.9435 54.417 37.3706 54.2557 37.7791C53.9543 38.0847 54.0787 38.4691 54.1036 38.8128C54.1285 39.162 54.1469 39.502 54.0934 39.8503C54.0492 40.1393 54.0971 40.4292 54.1709 40.7136C54.2234 40.9136 54.2649 41.1221 54.1091 41.2934C54.016 41.3953 54.075 41.449 54.1128 41.5491C54.24 41.8872 54.3404 42.2383 54.228 42.6032C54.1672 42.8005 54.2372 42.9747 54.2815 43.1571C54.3063 43.2581 54.3156 43.3711 54.2105 43.4304C54.0722 43.5082 54.0031 43.3915 53.9275 43.3044C53.6695 43.0071 53.6989 42.6301 53.6436 42.2762C53.6252 42.1567 53.698 41.9974 53.5257 41.9455C53.4556 41.9242 53.3994 42.0011 53.3616 42.065C53.2704 42.2169 53.3561 42.3003 53.4731 42.3855C53.7487 42.5865 53.6427 42.707 53.3782 42.7838C53.3081 42.8042 53.2427 42.8329 53.1754 42.8598C52.7358 43.0423 52.6132 42.92 52.5477 42.4393C52.4795 41.9381 52.6952 41.488 52.6961 40.9998C52.6961 40.4561 52.6307 39.8938 52.8464 39.3649C52.9054 39.2194 52.7625 39.1648 52.7164 39.0657C52.6731 38.2014 52.91 37.3669 52.9929 36.5156C53.1063 35.3438 53.251 34.1748 53.0823 32.9957C53.0519 32.7845 53.0362 32.5668 53.0768 32.3259C52.9468 33.5737 52.8086 34.7954 52.6279 36.0108C52.5634 36.4424 52.4574 36.8657 52.403 37.3002C52.3017 38.1144 51.8989 38.8128 51.5044 39.5075C50.4159 41.424 49.0591 43.146 47.6379 44.8189C47.3936 45.1061 47.1328 45.3849 46.8231 45.6016C46.5493 45.7934 46.4268 46.0981 46.2212 46.339C45.9484 46.6595 45.8295 46.6428 45.6986 46.2556C45.2488 44.9227 44.5124 43.7722 43.5253 42.7792C43.4377 42.6912 43.2875 42.5921 43.4008 42.4606C43.5004 42.3448 43.6451 42.4448 43.7566 42.5069C44.6368 42.9997 45.4101 43.6258 46.0618 44.3993C46.2175 44.5846 46.3761 44.7643 46.5807 44.9032C46.2747 44.3076 45.8682 43.7889 45.3428 43.3776C44.7834 42.9404 44.2174 42.505 43.5345 42.2679C43.2432 42.166 43.2183 42.04 43.4405 41.8103C43.74 41.5 44.1096 41.2508 44.3115 40.8507H44.3105Z" fill="#E56990"/>
<path d="M9.90181 36.611C8.10081 38.822 7.32935 41.4499 6.86298 44.2001C6.43439 46.728 6.21318 49.2781 6.07124 51.8356C6.0528 52.1672 5.87584 52.5368 6.03253 52.8193C6.19751 53.1167 6.64545 52.9453 6.92657 53.1204C7.05192 53.4196 6.98095 53.7225 6.94869 54.0254C6.8639 54.8877 6.87957 55.7501 6.94501 56.6134C7.04731 57.5092 6.98833 58.4077 6.99293 59.3043C6.99293 59.4488 6.9745 59.5952 6.86021 59.7054C6.72011 59.7971 6.56066 59.8027 6.40213 59.8036C5.30807 59.8092 4.2131 59.8101 3.11904 59.8036C2.9347 59.8027 2.7393 59.8166 2.60013 59.6498C2.57801 59.4803 2.55588 59.3117 2.53376 59.1422C2.5992 58.4892 2.46832 57.8454 2.42777 57.1979C2.31164 55.3565 2.34113 53.5178 2.44436 51.6763C2.5098 50.5045 2.57616 49.3337 2.64621 48.1628C2.6711 47.7478 2.83239 47.3366 2.70796 46.9142C2.92456 45.0773 3.23794 43.2581 3.83889 41.5046C4.75229 38.8369 6.61227 37.2455 9.35801 36.6925C9.53774 36.6564 9.7101 36.5563 9.90458 36.611H9.90181Z" fill="#11051D"/>
<path d="M59.0872 26.1902C57.9287 26.6728 56.7249 27.0164 55.5175 27.3406C53.7368 27.8195 52.4003 28.8616 51.4436 30.4271C51.191 30.8402 50.9173 31.2403 50.6537 31.6461C49.7928 30.277 49.6666 28.7782 49.8564 27.2156C50.0749 25.4167 50.8685 23.8105 51.5053 22.1497C52.0777 20.6583 52.4639 19.1225 52.5874 17.5209C52.6215 17.0726 52.6593 16.6243 52.6722 16.175C52.769 15.8573 52.6584 15.5257 52.7358 15.2071C52.7358 15.006 52.7358 14.805 52.7349 14.604C52.6584 14.2548 52.7708 13.8936 52.6731 13.5453C52.6694 12.5004 52.6169 11.4528 52.6731 10.4107C52.7616 8.75909 52.9948 7.12788 53.734 5.61616C53.7524 5.57911 53.7912 5.55225 53.8206 5.52075C53.969 5.73102 53.7773 5.87367 53.7082 6.03299C53.0916 7.46042 52.8483 8.95639 52.8307 10.495C53.0483 10.5895 53.0851 10.2384 53.3027 10.3755C53.5045 10.5024 53.5137 10.7099 53.5921 10.8896C53.6142 10.9414 53.6013 11.01 53.6271 11.0582C53.7395 11.2638 53.7838 11.5528 54.1055 11.538C54.4446 11.5222 54.2621 11.224 54.3377 11.0656C54.3792 10.9776 54.4105 10.8655 54.3958 10.7719C54.3497 10.4746 54.2926 10.2023 54.7516 10.2328C54.9267 10.2449 54.911 10.0735 54.9248 9.94105C54.9829 9.39083 55.1433 8.86654 55.3414 8.35337C55.3866 8.23758 55.4207 8.09771 55.5746 8.06251C55.653 8.22739 55.582 8.37745 55.5221 8.52381C55.1875 9.34544 55.0622 10.2208 55.0622 11.0878C55.0622 12.7023 54.9626 14.3141 54.9562 15.9277C54.9451 18.8641 55.8982 21.4596 57.6945 23.7568C58.4992 24.7868 59.5278 25.337 60.8569 25.2416C60.9868 25.2324 61.1177 25.2268 61.2375 25.2981C61.3094 25.3611 61.2809 25.4186 61.2293 25.476C60.5315 25.7631 59.8283 26.0327 59.0872 26.1892V26.1902Z" fill="#11051D"/>
<path d="M44.3105 40.8507C44.2976 41.2083 43.9695 41.3324 43.7796 41.5547C43.6405 41.7177 43.4543 41.8391 43.2156 42.041C44.1161 42.2985 44.7732 42.7644 45.3908 43.2711C46.0046 43.775 46.5844 44.3345 46.7263 45.195C45.7281 44.1669 44.7834 43.0896 43.3676 42.4476C44.5751 43.6342 45.4285 44.9403 45.9005 46.4872C47.0074 45.2432 48.1927 44.0798 49.1909 42.7422C50.1624 41.4417 51.0555 40.0995 51.827 38.6693C52.1818 38.0116 52.2602 37.3011 52.403 36.5971C52.6639 35.3077 52.7551 33.9961 52.9293 32.6956C52.9496 32.5409 53.0012 32.3899 53.0639 32.1268C53.5441 34.5389 53.0427 36.7926 52.7542 39.0555C52.933 39.263 52.7689 39.4705 52.756 39.678C52.6878 40.759 52.4602 41.8298 52.4943 42.9136C52.5173 43.6444 52.521 44.3892 52.8353 45.0885C52.9819 45.4137 53.0768 45.7749 52.9938 46.1482C52.9745 46.1936 52.9404 46.2251 52.8934 46.2408C52.5938 46.0371 52.7109 45.6526 52.5302 45.3923C52.3966 45.3544 52.3625 45.4757 52.3081 45.547C51.4463 46.6753 50.5928 47.81 49.5983 48.828C48.5245 49.9266 47.3512 50.8677 45.882 51.3901C44.7907 51.7782 43.6976 51.7347 42.5989 51.4587C41.8137 51.2614 41.0403 51.0205 40.3039 50.6778C40.174 50.6176 40.0292 50.5731 39.9915 50.4055C40.3509 50.1767 40.4265 49.9155 40.2846 49.4727C39.8928 48.2537 39.5785 47.0097 39.2366 45.7749C39.2062 45.6656 39.2025 45.548 39.1868 45.435C39.1767 45.1358 39.1942 44.8384 39.2486 44.5439C39.2606 44.3354 39.2486 44.1196 39.4145 43.9557C39.6255 43.8862 39.6255 44.064 39.6421 44.1761C39.7417 44.8486 40.1435 45.3738 40.5906 45.8092C41.515 46.7086 42.5842 47.4061 43.8902 47.6284C44.8838 47.797 45.6479 47.6562 45.1539 46.2269C44.635 44.7263 43.8183 43.4323 42.6432 42.3661C42.4441 42.1855 42.2045 42.0901 41.9703 41.9771C41.8385 41.9132 41.6468 41.8761 41.7215 41.6473C42.591 41.9814 43.3517 41.8159 44.0036 41.1508C44.1041 41.0489 44.2082 40.9517 44.3115 40.8526L44.3105 40.8507Z" fill="#C2466E"/>
<path d="M18.845 25.7927C19.3022 26.4198 19.7473 27.0386 20.2487 27.6129C20.9262 28.5003 21.4276 29.5109 22.1714 30.3538C22.9567 31.244 23.8102 32.036 24.9051 32.5334C25.7946 32.9372 26.7108 33.0484 27.6555 32.7974C27.9237 32.726 27.9974 32.827 28.0251 33.053C28.1163 33.8237 28.1339 34.587 27.8177 35.3197C27.2582 36.2506 26.3633 36.6443 25.354 36.6832C22.0442 36.8119 19.5842 35.2947 17.7786 32.5862C17.7085 32.4806 17.6781 32.3481 17.6293 32.2277C18.4256 31.3134 18.5998 30.1889 18.6643 29.0394C18.6994 28.4178 18.668 27.7917 18.6671 27.1683C18.457 26.7375 18.5528 26.2892 18.5961 25.8455C18.6044 25.7594 18.6625 25.6843 18.7657 25.6732L18.8459 25.7927H18.845Z" fill="#FFCDBA"/>
<path d="M41.7216 41.6454C41.7612 41.7028 41.7898 41.7954 41.8414 41.8121C42.9475 42.1511 43.5207 43.0747 44.1401 43.938C44.7614 44.8031 45.1973 45.7572 45.4056 46.8123C45.5061 47.3217 45.2213 47.7441 44.7153 47.7858C43.9613 47.847 43.2433 47.6654 42.5815 47.3356C41.9658 47.0281 41.3723 46.6724 40.8515 46.1981C40.1897 45.5942 39.6229 44.9513 39.5132 44.0139C39.5104 43.9898 39.4782 43.9695 39.4597 43.9482C39.3104 43.8074 39.3436 43.6304 39.3667 43.4582C39.4625 42.7171 39.4164 41.9807 39.3169 41.2424C39.2616 40.8321 38.9694 40.5125 38.9353 40.1022C39.8856 40.5774 40.811 41.0979 41.7198 41.6472L41.7216 41.6454Z" fill="#E56990"/>
<path d="M14.5186 53.466C15.102 53.4511 15.1352 53.088 15.1333 52.6073C15.1287 51.555 15.1896 50.5027 15.2237 49.4504C15.2697 48.8085 15.278 48.1675 15.2191 47.5256C15.161 47.1143 15.2707 46.7142 15.2946 46.3084C15.3702 45.0496 15.4928 43.7926 15.432 42.5301C15.3352 40.5487 15.0578 38.6026 14.243 36.7704C13.9573 36.1275 13.6061 35.5328 13.0402 35.0938C12.9932 35.0576 12.9692 35.0039 12.9554 34.9455C12.5858 34.6954 12.2466 34.915 11.9 35.015C12.1332 34.0915 12.6807 33.5617 13.6688 33.5357C13.8374 33.5311 14.0043 33.4005 14.1692 33.3217C14.6771 33.08 15.1988 33.0355 15.7371 33.2023C15.7509 33.2245 15.7629 33.2486 15.773 33.2727C15.6403 33.4412 15.4615 33.3894 15.2928 33.3681C15.149 33.3495 15.0061 33.3264 14.8614 33.3597C14.6836 33.4014 14.5858 33.4616 14.7683 33.6385C16.1924 35.0159 16.8302 36.7852 17.2514 38.6665C17.5233 39.8772 17.6422 41.1101 17.6496 42.3402C17.6569 43.4953 17.6496 44.6643 17.385 45.8064C17.3574 45.925 17.2588 46.0889 17.3989 46.1649C17.5316 46.2371 17.6099 46.0546 17.7187 45.9954C18.0155 45.8323 18.1233 45.5748 18.1611 45.2488C18.2422 44.542 18.3786 43.8426 18.4008 43.1285C18.4063 42.9654 18.3224 42.6838 18.669 42.7255C18.5068 43.1664 18.6054 43.6324 18.5528 44.0863C18.4404 45.0681 18.2496 46.0333 18.0671 47.0004C18.1058 47.5543 17.8597 48.0406 17.6929 48.5427C17.0551 50.4592 16.0919 52.208 14.9269 53.8476C14.8264 53.9884 14.7554 54.1987 14.5121 54.1662C14.3462 53.9319 14.3508 53.6994 14.5176 53.4678L14.5186 53.466Z" fill="#11051D"/>
<path d="M82.3122 59.5934C80.7398 60.44 79.0835 61.0875 77.4088 61.6924C75.6769 62.3186 73.9469 62.9512 72.215 63.5783C72.0795 63.6274 71.9376 63.6589 71.7993 63.6978C71.6565 63.2013 71.7956 62.6882 71.7053 62.1889C71.7597 61.9175 71.9376 61.7572 72.1901 61.6822C73.2731 61.3608 74.334 60.9717 75.4078 60.6244C76.2585 60.3492 77.0917 60.0065 77.9268 59.6786C78.9775 59.2655 80.02 58.8301 81.0688 58.4114C82.7122 57.7547 83.8671 56.5987 84.6478 55.0314C84.7317 54.8637 84.7824 54.671 84.9805 54.5942C85.0653 54.5617 85.1169 54.5997 85.1243 54.6923C85.1593 55.1768 85.0404 55.6474 85.0008 56.1253C85.0174 56.871 84.6976 57.4972 84.2367 58.0344C83.6948 58.6671 83.0818 59.234 82.3122 59.5943V59.5934Z" fill="#C2466E"/>
<path d="M19.186 21.5901C19.2192 22.1468 19.0321 22.6572 18.9003 23.1871C18.821 23.5057 19.0496 23.8762 19.0385 24.2477C19.0146 25.0656 19.0524 25.3194 18.2505 25.5028C17.8707 25.4759 17.7712 25.4444 17.4689 25.4111C17.3398 25.5046 17.2587 25.3759 17.1583 25.3425C16.1011 24.8312 15.3527 24.0504 14.9969 22.9045C14.8079 22.296 14.8448 21.68 14.866 21.0612C15.0706 20.7277 15.1757 20.3452 15.4633 20.0497C16.255 19.2345 17.2357 19.1919 18.0763 19.9691C18.5694 20.4248 18.9307 20.9713 19.1869 21.591L19.186 21.5901Z" fill="#FFCDBA"/>
<path d="M27.8168 35.3189C27.9938 34.6288 28.0215 33.9266 27.9864 33.2189C27.9735 32.9549 27.9542 32.8429 27.6067 32.929C26.3467 33.2421 25.1808 32.929 24.1116 32.2343C22.5226 31.2015 21.4092 29.7425 20.517 28.0974C20.4294 27.9353 20.2515 27.8214 20.2488 27.6121C20.811 28.0659 21.2571 28.644 21.8359 29.083C23.5061 30.3474 25.3273 31.2052 27.4555 31.2811C27.556 31.2848 27.6611 31.27 27.7274 31.3719C27.7597 31.6813 27.7864 31.9916 27.8251 32.3001C27.8473 32.477 27.9708 32.5631 28.1376 32.5937C28.0288 32.8012 28.0933 33.0087 28.1155 33.2254C28.1883 33.9442 28.2482 34.6695 27.8159 35.3189H27.8168Z" fill="#FFB79C"/>
<path d="M38.9361 40.1004C39.4394 40.6691 39.4864 41.3824 39.5371 42.0854C39.5813 42.7061 39.5214 43.3276 39.4606 43.9464C39.3997 44.1437 39.3472 44.3428 39.361 44.5522C39.2928 44.6689 39.1371 44.6856 39.1601 44.5605C39.291 43.8463 38.7573 43.3749 38.5601 42.7839C38.0246 41.1795 37.3379 39.6428 36.4291 38.2144C36.1674 37.8022 35.913 37.378 35.5369 37.051C34.7949 36.1914 34.0797 35.3031 33.0622 34.7408C32.9608 34.6853 32.8787 34.601 32.8492 34.4796C34.0456 34.625 34.9986 35.2846 35.924 35.9802C37.1397 36.8945 38.0117 38.0922 38.632 39.4798C38.726 39.69 38.8347 39.8929 38.9361 40.0995V40.1004Z" fill="#FF9572"/>
<path d="M17.1573 25.3416C17.2606 25.3648 17.3647 25.3879 17.468 25.4102C17.833 25.4565 18.1906 25.5788 18.5666 25.438C18.7602 25.3657 18.7491 25.55 18.7648 25.6723C18.6136 26.1623 18.75 26.6718 18.6662 27.1674C18.4745 27.4545 18.3003 27.5231 18.0883 27.1692C17.7353 26.581 17.4136 25.978 17.1573 25.3407V25.3416Z" fill="#03133A"/>
<path d="M2.70609 46.9142C2.85633 47.1569 2.77982 47.4227 2.76416 47.6756C2.72452 48.2944 2.65263 48.9122 2.61023 49.531C2.45815 51.7439 2.40101 53.9605 2.43327 56.179C2.44433 56.9312 2.51161 57.6787 2.59088 58.4262C2.61576 58.6606 2.68489 58.9162 2.53189 59.1432C2.42681 58.0983 2.32266 57.0544 2.33004 56.0021C2.28579 55.0665 2.28487 54.1319 2.33004 53.1963C2.37704 51.0973 2.51069 49.0039 2.70517 46.9142H2.70609Z" fill="#03040F"/>
<path d="M84.9998 56.1243C84.927 55.6112 85.151 55.111 85.0634 54.5978C84.9372 54.4542 84.9445 54.2764 84.9427 54.1041C84.9326 53.1213 84.9445 52.1375 84.9436 51.1547C84.9436 50.9834 84.9381 50.8037 85.0754 50.6666C85.1012 50.6119 85.128 50.5564 85.1538 50.5017C85.1611 50.8463 85.1694 51.1909 85.1768 51.5355C85.2634 51.9162 85.1584 52.3061 85.2358 52.6868C85.2422 52.71 85.2422 52.7332 85.2358 52.7572C85.1556 53.3139 85.2634 53.8771 85.1787 54.4329C85.1556 55.0007 85.2201 55.5778 84.9989 56.1243H84.9998Z" fill="#F21E28"/>
<path d="M2.33187 53.1954C2.33187 54.131 2.33187 55.0656 2.33187 56.0012C2.21481 55.0656 2.20467 54.131 2.33187 53.1954Z" fill="#97A2BC"/>
<path d="M85.1805 54.4339C85.1888 53.8753 85.0938 53.3121 85.2376 52.7582C85.2551 53.3177 85.316 53.8799 85.1805 54.4339Z" fill="#FA8387"/>
<path d="M25.213 5.58926C24.8277 5.58648 24.4425 5.58278 24.0563 5.58C24.4425 5.46699 24.8277 5.48737 25.213 5.58926Z" fill="#667896"/>
<path d="M85.2367 52.6878C85.1012 52.3098 85.1842 51.9208 85.1777 51.5364C85.3151 51.9143 85.257 52.3024 85.2367 52.6878Z" fill="#FD8A8C"/>
<path d="M52.6732 13.5453C52.7709 13.8936 52.7515 14.2483 52.7349 14.604C52.6216 14.2567 52.6501 13.901 52.6732 13.5453Z" fill="#96A5C1"/>
<path d="M52.7358 15.2061C52.7358 15.5303 52.7607 15.8563 52.6722 16.174C52.6519 15.8489 52.6031 15.521 52.7358 15.2061Z" fill="#96A5C1"/>
<path d="M53.7737 63.9498C55.1737 64.8854 56.6392 65.7107 58.0798 66.5796C58.3259 66.7278 58.5785 66.8667 58.8273 67.0094C59.4909 67.4197 60.1555 67.8291 60.8191 68.2395C60.6421 68.5266 60.4025 68.3358 60.2163 68.2858C59.2651 68.0292 58.3103 67.7912 57.3296 67.6902C54.0935 67.3558 50.9164 67.5337 47.884 68.861C47.0969 69.2056 46.3872 69.679 45.7392 70.2468C45.3364 70.5997 45.33 70.6006 44.9715 70.2283C44.118 69.3409 43.2156 68.5044 42.3207 67.6615C41.2312 66.7185 40.0653 65.8719 39.3242 65.2513C40.1924 65.9312 41.4192 66.9204 42.5852 67.9829C42.6663 68.0422 42.7391 68.1117 42.8119 68.1821C43.0377 68.4072 43.2451 68.6517 43.5235 68.8175C43.9309 69.2214 44.3567 69.6058 44.7125 70.0606C44.9337 70.344 45.189 70.5988 45.6166 70.4858C45.7328 70.4552 45.8895 70.4719 45.9586 70.6053C45.9991 70.6831 45.9079 70.722 45.8443 70.7535C45.5669 70.7979 45.2876 70.8294 45.0065 70.8331C43.4322 70.2283 41.8008 70.2616 40.1713 70.445C37.3306 70.7646 34.63 71.5992 32.0281 72.7756C31.4898 73.0192 31.0105 73.3906 30.4234 73.5277C30.1413 73.4823 30.0059 73.2304 29.8058 73.0711C27.0767 70.8952 24.4029 68.6508 21.7133 66.4267C21.5944 66.3285 21.4322 66.2554 21.4673 66.0534C21.8534 65.8246 22.294 65.757 22.7134 65.6273C22.8037 65.5023 22.918 65.5217 23.0369 65.5736C23.1272 65.6431 23.2037 65.7292 23.3226 65.7635C24.5153 66.1062 25.6674 66.5823 26.909 66.762C28.1671 66.9445 29.3846 66.8352 30.5764 66.4017C30.8391 66.3063 31.1064 66.273 31.3838 66.2665C32.2659 66.247 33.1452 66.2822 34.0235 66.3563C34.7452 66.4175 35.4577 66.2081 36.0927 66.2757C35.2577 66.0608 34.3544 65.7774 33.4972 65.3587C32.9682 65.1003 32.4391 64.8076 31.8179 65.0688C31.8022 65.0753 31.7737 65.0391 31.7562 65.015C31.6852 64.8502 31.6787 64.6918 31.8087 64.55C31.9257 64.4935 32.0327 64.5556 32.1414 64.5843C32.4631 64.6677 32.7387 64.6075 32.9498 64.3342C33.2005 64.1193 33.1922 63.7794 33.3424 63.5154C33.453 63.4431 33.5341 63.5154 33.6134 63.5756C33.7175 63.6543 33.8143 63.7442 33.8954 63.8451C34.6282 64.764 35.6448 65.2976 36.6826 65.8839C36.4642 65.6922 36.3278 65.4884 36.2467 65.2503C36.0522 64.6779 35.7259 64.1879 35.3351 63.7312C35.2171 63.5923 34.9729 63.4496 35.1729 63.1958C35.8494 63.2745 36.5195 63.394 37.1582 63.6349C37.4172 63.7321 37.6135 63.7071 37.843 63.5515C40.0606 62.0389 42.5363 61.3673 45.1927 61.1857C46.5033 61.0968 47.7909 61.2061 49.0878 61.2941C49.2776 61.3071 49.4583 61.3423 49.6306 61.4303C50.9606 62.1111 52.2261 62.9059 53.5036 63.6775C53.6151 63.7451 53.7267 63.8155 53.7727 63.9498H53.7737Z" fill="#FFFEFC"/>
<path d="M45.0212 70.759C45.2959 70.6469 45.5807 70.6422 45.8701 70.6802C46.1171 70.6802 46.3226 70.7849 46.4756 70.9683C46.6803 71.2147 46.9236 71.2286 47.2167 71.1795C49.9938 70.7136 52.7754 70.2782 55.5626 69.8808C55.8051 69.8465 56.0484 69.8067 56.2945 69.8067C56.8945 69.9234 57.4678 69.703 58.0549 69.6557C58.7453 69.6002 59.4329 69.4936 60.1195 69.3964C60.2062 69.2435 60.361 69.2426 60.4983 69.2519C60.8126 69.2732 61.0099 69.1407 61.1067 68.8452C61.4071 68.9101 61.6412 69.0963 61.8597 69.2936C62.0542 69.4686 62.1141 69.7104 62.0247 69.9614C61.9426 70.193 61.7915 70.3421 61.514 70.3356C61.3767 70.3329 61.2375 70.394 61.0993 70.4255C58.9536 70.7089 56.806 70.9868 54.6612 71.2768C52.3072 71.5945 49.9541 71.9224 47.6001 72.242C47.4711 72.2596 47.3586 72.2327 47.3328 72.4291C47.2775 72.8552 46.9678 73.0654 46.601 73.2099C45.93 73.473 45.1742 73.7027 44.5502 73.3572C43.6128 72.8385 42.7824 73.2748 41.9298 73.4248C39.5989 73.8361 37.2808 74.3233 34.9563 74.7745C33.4493 75.0672 31.9405 75.3525 30.4317 75.635C30.1127 75.6943 29.8187 75.6563 29.5385 75.4386C28.3247 74.4947 27.1974 73.4508 26.0554 72.4235C24.3088 70.8525 22.5493 69.2954 20.8525 67.6688C20.634 67.4595 20.4801 67.2251 20.634 66.9472C20.7769 66.6897 21.0202 66.5174 21.3548 66.5952C21.4829 66.9445 21.7382 67.1927 22.0101 67.428C22.9383 68.2329 23.8046 69.1055 24.73 69.9142C26.4269 71.3981 28.0721 72.9432 29.9201 74.2446C30.1644 74.4679 30.4409 74.3669 30.7054 74.3169C32.7654 73.9232 34.8189 73.4999 36.8826 73.1275C39.1306 72.7218 41.3768 72.3031 43.623 71.8844C43.9778 71.8177 44.2341 71.6954 44.3659 71.3249C44.47 71.0322 44.6811 70.8043 45.0221 70.759H45.0212Z" fill="#11051D"/>
<path d="M61.1049 68.8452C61.2874 69.2343 61.0689 69.3288 60.7408 69.3556C60.5343 69.3723 60.314 69.2963 60.1242 69.4371C59.3546 69.5853 58.5748 69.6632 57.7969 69.7456C57.3047 69.7975 56.8263 69.9901 56.3194 69.904C54.205 70.218 52.0888 70.5255 49.9754 70.8479C49.0122 70.9952 48.0518 71.1628 47.0932 71.3361C46.8213 71.3851 46.6066 71.4009 46.4471 71.1082C46.3291 70.8914 46.0821 70.7969 45.8692 70.6812C45.8277 70.4968 45.6729 70.5839 45.5899 70.5932C45.2148 70.6339 44.9134 70.5246 44.695 70.2125C44.3383 69.703 43.8313 69.3315 43.4525 68.8425C43.1944 68.6655 43.0258 68.3849 42.7502 68.2274C42.6949 68.1709 42.6387 68.1144 42.5834 68.0579C42.4746 67.9662 42.3603 67.881 42.2709 67.768C42.1907 67.6679 42.2027 67.5873 42.3216 67.5299C43.3133 68.4154 44.2783 69.3297 45.1964 70.2921C45.3005 70.4014 45.3429 70.4737 45.4849 70.3338C46.8619 68.9721 48.5983 68.3321 50.4233 67.8819C52.2888 67.4215 54.1921 67.3632 56.0964 67.4456C57.6522 67.5132 59.1702 67.8485 60.667 68.2728C60.727 68.2895 60.7786 68.2922 60.821 68.2376C61.1371 68.3348 61.0883 68.6053 61.1058 68.8443L61.1049 68.8452Z" fill="#E3DDE9"/>
<path d="M33.028 64.4138C32.6566 64.8334 32.3736 64.8704 31.8879 64.5638C31.7819 64.4934 31.6529 64.4814 31.545 64.4054C30.5561 63.707 29.5348 63.0595 28.4601 62.4982C29.0426 62.7733 29.5763 63.1262 30.1053 63.4884C30.4178 63.7024 30.6952 63.9497 30.9671 64.2119C31.3367 64.5685 31.4713 64.977 31.3183 65.4735C31.1432 65.7087 30.9026 65.5689 30.6888 65.5855C29.7754 65.5457 29.0113 65.102 28.2444 64.6685C28.1338 64.6055 28.0186 64.5398 27.9762 64.5027C28.65 64.8695 29.2731 65.4549 30.074 65.7643C30.5192 65.9366 30.0205 66.0978 30.0049 66.2738C29.4804 66.4878 28.9283 66.4535 28.3836 66.4479C26.9365 66.434 25.5181 66.1765 24.0996 65.9172C23.8138 65.8977 23.5373 65.819 23.2571 65.768C23.1631 65.7439 23.0912 65.6819 23.0184 65.6226C22.917 65.6226 22.8156 65.6245 22.7143 65.6254C22.4488 65.5087 22.1741 65.4364 21.8801 65.429C20.4413 65.3929 19.0146 65.2095 17.5813 65.0965C15.7176 64.9492 13.8678 64.6917 12.0318 64.3638C10.6944 64.1248 9.34135 63.8543 8.20305 63.0058C7.49703 62.4797 7.1855 61.7516 7.02696 60.9096C6.94954 60.4974 7.03434 60.0676 6.8629 59.6721C6.85922 58.6522 6.85553 57.6324 6.85184 56.6125C6.80391 56.4893 6.81682 56.3652 6.8417 56.2401C6.90807 55.3296 7.48505 54.9544 8.29983 54.7794C8.91184 54.6469 9.53306 54.5932 10.1469 54.5802C11.4225 54.5543 12.6779 54.4014 13.9296 54.1763C14.1425 54.1384 14.36 54.0911 14.5489 54.2579C14.6688 54.4672 14.5729 54.683 14.5683 54.8951C14.5545 55.5602 14.5545 56.2262 14.5683 56.8913C14.5711 57.0469 14.6218 57.2118 14.4863 57.3424C14.1333 57.5434 13.7756 57.3424 13.4245 57.3304C12.9774 57.3156 12.5461 57.3378 12.277 57.4045C12.8714 57.2229 13.6217 57.3369 14.372 57.4777C17.0854 58.4679 19.7906 59.4849 22.5935 60.201C22.7613 60.2436 22.9327 60.2751 23.0995 60.3205C23.9263 60.5493 24.6941 60.4909 25.3614 59.887C25.4941 59.7675 25.6794 59.7536 25.8314 59.6721C26.2167 59.5461 26.4775 59.2349 26.766 58.9838C27.2803 58.5364 27.9246 58.3438 28.4832 57.9918C28.6233 57.9038 28.6988 57.9825 28.779 58.0668C28.8924 58.1854 29.0076 58.2919 29.1892 58.2687C29.3182 58.1464 29.462 58.1946 29.5956 58.2456C30.4206 58.5624 31.2234 58.9218 31.9202 59.4812C32.5995 59.9296 33.1414 60.5317 33.7046 61.1097C34.1092 61.4765 34.3949 61.9017 34.3783 62.4778C34.2097 63.1827 33.7507 63.4588 33.1193 63.2365C32.7036 62.9002 32.3488 62.4954 31.9266 62.162C31.0584 61.4746 30.0989 60.9522 29.0933 60.5067C29.6546 60.7688 30.2132 61.0384 30.7395 61.3681C31.6188 61.9183 32.3958 62.5732 32.9792 63.4523C33.2004 63.7858 33.2456 64.0803 33.0262 64.4129L33.028 64.4138Z" fill="#FFCDBA"/>
<path d="M14.431 57.3157C14.431 56.7923 14.4329 56.2689 14.4329 55.7456C14.4329 55.2445 14.4209 54.7424 14.5131 54.2459C14.5287 54.2098 14.5536 54.1811 14.5877 54.1607C15.4808 52.8676 16.326 51.5476 16.9675 50.1026C17.4146 49.0938 17.7556 48.0518 18.068 46.9967C18.3114 47.0625 18.1777 47.2236 18.1805 47.3709C18.2026 48.4019 17.8616 49.3606 17.621 50.3388C17.3279 51.5328 16.7473 52.6045 16.1417 53.6586C15.95 53.9921 15.9693 54.2709 16.1159 54.597C16.5122 55.4797 17.1841 56.1402 17.868 56.783C18.9446 57.7936 20.2045 58.518 21.5862 59.0182C22.4295 59.323 23.3208 59.4008 24.2065 59.4915C24.7485 59.5471 25.2812 59.6907 25.8315 59.6703C25.4315 60.0316 24.954 60.2752 24.4904 60.5373C24.1531 60.7281 23.8102 60.5429 23.4821 60.4938C22.2986 60.3159 21.1686 59.9176 20.0239 59.5805C18.1989 59.0423 16.4385 58.3161 14.6375 57.7103C14.5591 57.6834 14.4928 57.6213 14.42 57.576C14.3564 57.487 14.3508 57.4009 14.4292 57.3166L14.431 57.3157Z" fill="#FFA323"/>
<path d="M18.6699 42.7236C18.5123 42.7477 18.5086 42.8653 18.5123 42.9857C18.54 43.8444 18.3363 44.6781 18.2469 45.5247C18.2275 45.7053 17.6146 46.3593 17.4395 46.3769C17.2266 46.3973 17.1086 46.3352 17.1823 46.0749C17.4155 45.2478 17.4137 44.3928 17.4966 43.5452C17.5879 42.6245 17.5077 41.7186 17.4441 40.8182C17.3528 39.5408 17.1196 38.2746 16.6975 37.0491C16.3943 36.1682 15.9104 35.3864 15.4781 34.575C15.2928 34.2257 15.0016 33.958 14.6836 33.7255C14.5675 33.6403 14.4421 33.5681 14.3923 33.406C14.6947 33.2457 14.9942 33.141 15.3435 33.255C15.4744 33.2976 15.6283 33.267 15.7712 33.2707C16.644 33.7329 17.0579 34.5694 17.421 35.4123C18.1317 37.0611 18.504 38.797 18.6109 40.594C18.6533 41.3036 18.7086 42.0113 18.669 42.7227L18.6699 42.7236Z" fill="#3C2774"/>
<path d="M33.9839 52.0727C34.0208 50.348 34.0991 48.626 34.2346 46.9058C34.2383 46.8623 34.2374 46.8188 34.2383 46.7752C34.2613 44.6966 34.4051 42.6189 34.312 40.5412C34.2807 39.8419 34.2899 39.1361 34.1857 38.4376C34.4023 39.1147 34.4982 39.8132 34.5848 40.5107C34.7388 41.7427 34.8669 42.9783 35.006 44.2131C35.0125 44.2705 35.0217 44.3289 35.019 44.3872C34.9683 45.434 35.1148 46.4751 35.1111 47.5218C35.1056 48.9576 35.1655 50.3896 35.372 51.8124C35.0955 52.1265 34.4143 52.2552 33.9839 52.0746V52.0727Z" fill="#FF9518"/>
<path d="M31.9045 59.5814C31.0695 58.9978 30.2003 58.4865 29.1911 58.2679C28.3661 57.3342 27.5412 56.4005 26.7182 55.4649C26.3163 55.0083 25.9181 54.547 25.519 54.0875C25.2195 53.742 25.2103 53.3882 25.4914 53.1307C25.8029 52.8454 26.3117 52.8315 26.5734 53.1445C27.3173 54.0329 28.0325 54.9453 28.7754 55.8345C29.5275 56.7349 30.263 57.651 31.1054 58.4717C31.2815 58.4967 31.3257 58.6745 31.4446 58.7672C31.6041 59.046 31.935 59.209 31.9755 59.5656C31.9755 59.5712 31.9571 59.5832 31.946 59.5851C31.9322 59.5879 31.9175 59.5832 31.9036 59.5814H31.9045Z" fill="#55408B"/>
<path d="M33.9838 52.0728C34.4659 52.0895 34.9212 51.9635 35.3719 51.8107C36.6697 51.6004 37.937 51.2753 39.1573 50.7769C39.2615 50.7343 39.3583 50.6537 39.4845 50.6899C39.5675 50.8112 39.5527 50.9501 39.5573 51.0854C39.6403 51.341 39.4311 51.4133 39.2818 51.5096C38.6568 51.9126 37.9656 52.1701 37.2614 52.3868C36.736 52.5489 36.2245 52.7416 35.7203 52.9593C35.4134 53.0917 35.2659 53.2798 35.2042 53.629C35.0042 54.7693 34.9221 55.9336 34.5571 57.0424C34.4991 57.2175 34.5415 57.387 34.5793 57.5565C34.6558 57.8955 34.759 58.229 34.8207 58.5717C34.8484 58.7264 34.9267 58.9274 34.6594 58.9737C34.5571 58.8811 34.5212 58.7533 34.4899 58.6273C34.2521 57.6686 34.0106 56.7117 33.7728 55.753C33.7221 55.5501 33.7221 55.3519 33.7866 55.1537C33.852 54.1274 33.9175 53.1001 33.9829 52.0737L33.9838 52.0728Z" fill="#FFB79C"/>
<path d="M31.3672 58.8023C31.2805 58.6921 31.193 58.5809 31.1063 58.4707C31.887 57.8769 32.5331 57.134 33.2649 56.4856C33.4714 56.3022 33.5765 56.0466 33.5553 55.7437C33.5442 55.5908 33.6078 55.4324 33.7064 55.3009C33.8392 55.8113 33.8023 56.3374 33.7516 56.8432C33.6686 57.6648 33.7405 58.4911 33.6309 59.3081C33.5525 59.4887 33.4032 59.4822 33.2668 59.4146C32.6631 59.1154 31.9939 59.0255 31.3681 58.8005L31.3672 58.8023Z" fill="#FFA725"/>
<path d="M35.5379 37.0519C35.8909 37.1084 35.9849 37.4437 36.1499 37.6734C37.2311 39.1824 38.02 40.8432 38.6155 42.6004C38.727 42.9283 38.8459 43.2433 39.0699 43.5248C39.257 43.7601 39.3362 44.0649 39.2367 44.3826C39.2035 44.4882 39.1242 44.642 39.3611 44.553C39.2975 44.8458 39.327 45.157 39.186 45.4339C38.8634 44.4308 38.5454 43.4267 38.2164 42.4253C37.585 40.5033 36.7748 38.6701 35.537 37.0519H35.5379Z" fill="#FE765A"/>
<path d="M85.0755 50.6676C85.0718 51.9783 85.0681 53.2881 85.0635 54.5988C84.9566 54.6757 84.8699 54.7618 84.8202 54.8934C84.3224 56.2013 83.3888 57.1665 82.2818 57.9418C81.5426 58.4596 80.6486 58.7171 79.8089 59.0534C78.4494 59.599 77.0899 60.1464 75.7138 60.6485C74.6068 61.0523 73.4796 61.3997 72.3533 61.7452C72.1173 61.8175 71.9311 61.9082 71.7938 62.1065C71.4804 61.9119 71.5588 61.5229 71.3772 61.2635C70.9514 60.2539 70.4859 59.2674 69.7569 58.4337C69.6813 58.3466 69.602 58.2633 69.5734 58.1465C69.5006 57.701 69.1476 57.5333 68.8011 57.3583C68.719 57.3407 68.6444 57.3045 68.5716 57.2638C68.2388 57.0628 67.8996 56.8858 67.4969 56.8747C67.3678 56.871 67.2452 56.8201 67.1632 56.7061C67.2333 56.4236 67.5088 56.4283 67.7024 56.3403C69.7624 55.4112 71.8215 54.4784 73.8345 53.4493C74.3257 53.1983 74.8004 52.9213 75.252 52.6026C77.5977 51.3095 80.4661 51.9978 82.173 53.3048C80.9094 51.7199 79.2457 51.4012 77.3544 51.8366C77.0309 51.9107 76.7046 51.9765 76.3885 52.0848C76.2493 52.1321 76.0318 52.1719 76.2216 51.8931C76.3322 51.8931 76.4023 51.8199 76.4843 51.7579C76.8945 51.4485 77.3046 51.1863 77.8623 51.4318C78.1886 51.5754 78.5425 51.3911 78.8614 51.3345C79.454 51.2299 79.9942 51.404 80.4863 51.593C80.9619 51.7755 81.5629 51.8505 81.8486 52.4137C81.9205 52.5545 82.1021 52.5276 82.2339 52.4276C82.3362 52.3498 82.4201 52.2219 82.5648 52.246C82.9104 52.3035 83.2081 52.3211 83.445 51.9579C83.5611 51.7792 83.7888 51.9403 83.9519 52.032C84.3197 52.2386 84.5833 52.1766 84.7768 51.8348C84.7953 51.8014 84.8054 51.7449 84.7907 51.7143C84.7621 51.656 84.704 51.6541 84.6432 51.6764C84.2718 51.8116 83.9114 51.3679 83.527 51.6476C83.5123 51.6588 83.2911 51.4596 83.3067 51.4244C83.4385 51.1409 83.0874 50.9362 83.209 50.6537C83.2938 50.4564 83.009 50.4851 82.9629 50.3258C83.2229 50.147 83.4017 50.2156 83.5196 50.5027C83.5639 50.6093 83.5971 50.7223 83.6514 50.8232C83.6966 50.9057 83.7842 50.9455 83.8736 50.9029C83.9482 50.8668 83.9704 50.7704 83.9178 50.7186C83.7584 50.5639 83.8929 50.361 83.8044 50.1859C83.6588 49.8979 83.7676 49.5875 84.0284 49.4875C84.3086 49.3801 84.4874 49.6302 84.5658 49.908C84.5759 49.9451 84.6036 49.9775 84.646 50.0525C84.7501 49.8571 84.8386 49.6904 84.9474 49.4847C85.0718 49.908 84.8828 50.3082 85.0755 50.6676Z" fill="#E56990"/>
<path d="M67.3392 33.3837C66.9807 34.6704 66.6277 35.9579 66.2636 37.2427C65.5419 39.7937 64.9751 42.3762 64.6423 45.0088C64.5879 45.4377 64.5197 45.8638 64.458 46.2917C62.6017 46.5159 60.7629 46.4779 58.961 45.9082C58.2633 45.6878 58.1895 45.5877 58.1877 44.8569C58.1822 42.442 58.2504 40.0309 58.5379 37.6308C58.7075 36.2145 59.0015 34.8232 59.408 33.456C59.4292 33.3856 59.4476 33.3161 59.4421 33.2698C59.3813 33.5811 59.2845 33.909 59.1868 34.2369C59.1555 34.3406 59.1407 34.487 58.9702 34.3721C58.9223 33.7181 59.0615 33.1105 59.4117 32.5538C59.6394 32.5297 59.7859 32.6835 59.9444 32.8048C61.3058 33.8487 62.857 34.1544 64.528 34.0044C65.3695 33.9284 66.1788 33.7218 66.9632 33.4106C67.0839 33.3624 67.2093 33.3189 67.3401 33.3837H67.3392Z" fill="#F9F4FE"/>
<path d="M58.9914 34.3073C59.196 34.3092 59.1416 34.1239 59.1702 34.0257C59.2854 33.6302 59.3739 33.2273 59.4771 32.8086C59.6706 32.9327 59.6153 33.0707 59.5729 33.2097C59.0771 34.8298 58.7867 36.4953 58.5996 38.1719C58.4844 39.2028 58.4144 40.2431 58.3849 41.287C58.3489 42.5625 58.3268 43.838 58.3093 45.1145C58.3047 45.422 58.3932 45.5952 58.6955 45.6934C60.079 46.1427 61.4965 46.3687 62.9464 46.2844C63.3454 46.2612 63.7519 46.2557 64.1482 46.1917C64.2911 46.1686 64.3621 46.2381 64.4579 46.2918C64.3612 47.345 64.2561 48.3982 64.2432 49.4579C64.2957 50.8093 64.2708 52.1617 64.2588 53.5132C64.2515 54.3274 64.3971 55.1324 64.351 55.9457C64.2847 56.5302 64.5317 57.11 64.3759 57.6964C64.2174 57.9085 63.9916 57.8631 63.7823 57.8335C63.0542 57.7306 62.3168 57.7871 61.5859 57.701C61.1205 57.6463 60.6771 57.8214 60.2614 58.0354C59.5416 58.4068 58.8761 58.8635 58.2319 59.3535C58.0872 59.4637 57.9277 59.6722 57.7212 59.4221C57.5867 59.0154 57.7526 58.6171 57.7544 58.2151C57.7609 56.8349 57.8005 55.4538 57.7443 54.0764C57.6853 52.6286 57.5461 51.1836 57.5793 49.7321C57.5821 49.6283 57.5471 49.532 57.5222 49.4338C57.4779 47.91 57.4834 46.3853 57.5176 44.8616C57.5729 44.6948 57.5738 44.5226 57.5747 44.3475C57.5858 42.519 57.7415 40.7007 57.9904 38.8907C58.0927 38.0172 58.2383 37.1502 58.3932 36.285C58.5204 35.769 58.5959 35.2411 58.7462 34.7297C58.7923 34.5713 58.7913 34.3777 58.9923 34.3064L58.9914 34.3073Z" fill="#F1E3EB"/>
<path d="M67.3392 33.3837C65.3843 34.2285 63.3962 34.4694 61.3454 33.7431C60.6274 33.4884 60.02 33.0623 59.4412 32.5816C59.2992 32.4019 59.3905 32.2147 59.4412 32.0406C59.7951 30.841 60.1103 29.6294 60.5352 28.4521C60.7472 27.8584 60.8541 27.2294 61.1371 26.6597C61.5841 26.5402 62.044 26.644 62.5012 26.5625C63.3593 26.4087 64.0865 26.0502 64.7077 25.4426C65.8285 24.3458 66.9087 23.2167 67.7558 21.8828C67.9106 21.6383 68.0636 21.3937 68.1927 21.1344C68.295 20.7972 68.613 20.6119 68.7641 20.3081C68.8876 20.1303 68.9881 19.9376 69.1134 19.7625C69.2093 19.6282 69.307 19.4541 69.5264 19.5773C69.5042 21.0334 69.4849 22.4886 69.7116 23.9346C69.4987 24.2097 69.5992 24.5487 69.5494 24.8525C69.0729 27.7389 68.2618 30.5372 67.3991 33.3226C67.3917 33.3467 67.3595 33.3624 67.3383 33.3828L67.3392 33.3837Z" fill="#FFCDBA"/>
<path d="M64.3096 57.7408C64.3299 57.1544 64.1612 56.5764 64.2404 55.9882C64.3372 55.5278 64.1805 55.0517 64.3234 54.5932C64.5114 54.4969 64.5299 54.2338 64.7437 54.1625C64.9409 53.9429 65.0322 53.6808 65.1004 53.3936C65.211 52.9296 65.4534 52.5155 65.67 52.0941C65.7078 52.02 65.7695 51.9486 65.8755 51.9801C65.9354 52.3627 65.5972 52.6637 65.6322 53.0509C65.776 53.0426 65.8276 52.9425 65.8949 52.874C67.3106 51.4253 68.7429 49.9932 70.1329 48.5204C72.1956 46.3362 73.5173 43.7611 74.051 40.7867C74.0989 40.5218 74.2141 40.2689 74.2989 40.0105C74.4455 40.1485 74.4307 40.3273 74.4095 40.4996C74.2381 41.8807 74.4464 43.2581 74.4741 44.6355C74.4999 45.8962 74.6059 47.1587 74.6916 48.4204C74.7616 49.4495 74.7985 50.4804 74.793 51.5133C74.7911 51.9588 74.9155 52.3719 75.2639 52.6841C74.9745 52.9981 74.5911 53.175 74.2252 53.3677C72.0196 54.5284 69.7356 55.5232 67.4802 56.5773C67.3797 56.6246 67.2397 56.5755 67.1751 56.7061C66.6922 57.2174 66.2857 57.8501 65.4405 57.7741C65.2257 57.7547 65.0073 57.7593 64.7972 57.8315C64.6248 57.8547 64.4497 57.8862 64.3087 57.7408H64.3096Z" fill="#C2466E"/>
<path d="M65.8765 51.9801C65.5898 52.5202 65.2175 53.0167 65.1649 53.6651C65.1465 53.8874 64.9797 54.0773 64.7446 54.1634C65.6451 51.1974 66.5558 48.2323 67.6452 45.3321C68.5254 42.9867 69.4748 40.6636 70.5486 38.3969C70.8997 37.6559 70.8905 37.6031 70.3191 37.0176C69.9236 36.6129 69.5328 36.2016 69.1199 35.8153C68.8766 35.5884 68.9236 35.4633 69.2084 35.3735C70.0333 35.1132 70.8592 34.8575 71.685 34.6019C71.8085 34.5639 71.9376 34.5398 72.0592 34.4963C72.6786 34.273 72.7182 34.1906 72.6509 33.5348C72.5579 32.6288 72.4445 31.7239 72.4058 30.8152C72.3477 29.4683 72.2389 28.1261 72.1339 26.7839C72.1283 26.7135 72.1339 26.6422 72.2168 26.5607C72.3339 27.2739 72.4712 27.9835 72.5615 28.7004C72.7201 29.9463 72.8841 31.1931 72.9763 32.4454C73.0279 33.1531 73.1699 33.8506 73.1772 34.5611C73.1791 34.7732 73.1302 34.8955 72.8897 34.9631C72.2565 35.141 71.6288 35.3466 71.0122 35.5763C70.791 35.6588 70.5532 35.5467 70.331 35.7421C70.1347 35.9154 70.1587 35.9783 70.308 36.134C70.6785 36.5212 71.0214 36.9343 71.4039 37.3076C71.5836 37.4826 71.5947 37.6373 71.5099 37.8439C70.6518 39.9188 69.7633 41.9817 68.9485 44.0733C68.2618 45.8351 67.4729 47.5552 66.8802 49.3559C66.5889 50.2433 66.3115 51.1437 65.8774 51.9801H65.8765Z" fill="#C2466E"/>
<path d="M75.2649 52.6832C74.9866 52.6629 74.8529 52.5749 74.7865 52.2395C74.71 51.8542 74.6511 51.4772 74.6529 51.0882C74.6584 49.4106 74.4999 47.7424 74.4096 46.0704C74.3745 45.422 74.2815 44.7727 74.31 44.1233C74.3533 43.1368 74.2077 42.1586 74.2105 41.174C74.2114 40.7812 74.3635 40.4042 74.299 40.0096C74.3644 39.5242 74.4308 39.0389 74.4962 38.5544C74.51 38.5535 74.5229 38.5526 74.5368 38.5516C74.6326 39.364 74.7303 40.1754 74.8253 40.9878C74.9478 42.0345 75.0538 43.084 75.1939 44.1289C75.3433 45.2441 75.523 46.3548 75.6926 47.4673C75.8456 48.4658 75.9903 49.4653 76.1645 50.4601C76.2484 50.939 76.1875 51.4161 76.2216 51.8931C76.1617 52.0209 76.1433 52.083 76.3304 52.0135C77.1728 51.6995 78.0383 51.5004 78.9452 51.5439C80.4513 51.6171 81.6513 52.2275 82.4965 53.6429C81.5103 52.8509 80.4568 52.4229 79.3305 52.1654C78.0245 51.8672 76.7636 52.0246 75.5479 52.5795C75.4566 52.6212 75.3589 52.649 75.2649 52.6832Z" fill="#C2466E"/>
<path d="M81.1821 30.4437C80.2871 30.2547 79.418 30.2436 78.6115 30.6975C77.8751 31.1124 77.2704 31.6867 76.7589 32.3676C75.5708 33.9478 74.921 35.7588 74.4777 37.6604C74.4547 37.7586 74.4482 37.8614 74.321 37.9328C74.3118 36.9398 74.4989 35.9977 74.8528 35.1011C75.4261 33.6486 76.1911 32.3157 77.3451 31.2264C78.0382 30.5715 78.8539 30.2019 79.7664 30.0796C80.253 30.0139 80.7471 30.1815 81.183 30.4437H81.1821Z" fill="#C2466E"/>
<path d="M64.3234 54.5932C64.2626 55.0563 64.4073 55.5315 64.2405 55.9882C64.2405 53.8114 64.2423 51.6346 64.2432 49.4578C64.364 49.6449 64.3059 49.8542 64.3078 50.0524C64.3179 51.566 64.3197 53.0796 64.3244 54.5932H64.3234Z" fill="#E56990"/>
<path d="M82.5325 51.9218C82.5131 51.8125 82.5039 51.7939 82.5085 51.7856C82.5988 51.6494 82.6274 51.4605 82.8136 51.4068C82.8311 51.4012 82.891 51.4577 82.8901 51.4836C82.8809 51.7032 82.7048 51.7726 82.5325 51.9218Z" fill="#FA5F66"/>
<path d="M68.8296 20.3638C68.7485 20.6778 68.4065 20.8056 68.3079 21.1076C67.7641 22.096 66.8581 22.712 65.9871 23.353C64.7114 24.2913 63.292 24.9388 61.7592 25.3297C61.5979 25.3704 61.4302 25.4677 61.2597 25.3473C60.7583 25.3825 60.2569 25.4121 59.7601 25.301C58.6964 25.0629 57.9665 24.3608 57.3452 23.5225C56.0631 21.7949 55.2548 19.858 54.9378 17.7313C54.7792 16.6679 54.7921 15.5869 54.8603 14.5142C54.9129 13.6861 54.9285 12.8589 54.9193 12.0308C54.9046 10.6682 55.0226 9.33066 55.5756 8.06348C56.2392 6.68423 57.1766 5.56433 58.5656 4.87146C59.0218 5.58378 59.5942 6.19699 60.1988 6.78056C60.6375 7.2048 61.02 7.68092 61.4449 8.11628C63.0561 9.76324 64.8617 11.161 66.8535 12.3143C67.1641 12.494 67.424 12.7644 67.7899 12.845C68.107 13.4332 68.4074 14.0335 68.9273 14.4799C69.013 14.5531 69.0775 14.6559 69.2148 14.6754C69.2674 14.5365 69.3208 14.3957 69.3743 14.2558C69.5918 14.5494 69.5596 14.6467 69.1476 14.932C69.4831 15.2479 69.4637 15.7119 69.6259 16.1C69.8057 16.528 69.5439 16.9383 69.5439 17.3617C69.5439 17.4923 69.4941 17.6053 69.649 17.6951C69.9771 17.8859 69.896 18.1694 69.6766 18.3371C69.307 18.6196 69.1789 19.129 68.7153 19.3124C68.5807 19.3652 68.6065 19.4921 68.6535 19.6126C68.7475 19.8534 68.8425 20.0961 68.8287 20.3638H68.8296Z" fill="#FFCDBA"/>
<path d="M68.8296 20.3638C68.695 20.6658 68.4332 20.21 68.4332 19.7886C68.4977 19.4004 68.7448 19.2485 68.8425 19.2022C69.1282 19.0688 69.1346 18.9919 69.2158 18.614C69.2434 18.4862 69.4812 18.4121 69.6066 18.2954C69.7125 18.1972 69.7983 18.0656 69.7642 17.911C69.7319 17.7692 69.625 17.7479 69.4932 17.7915C69.3992 17.822 69.33 17.7266 69.3623 17.6785C69.5688 17.3746 69.3595 17.0115 69.5522 16.6688C69.66 16.477 69.6148 16.0417 69.4047 15.7758C69.33 15.6814 69.2388 15.6045 69.2701 15.4813C69.3273 15.2562 69.3439 15.0811 69.0222 15.1098C68.9568 15.1154 68.871 15.0654 68.8904 14.9755C68.9134 14.8681 69.0019 14.806 69.1051 14.7856C69.2333 14.6254 69.2757 14.5124 69.3743 14.2539C70.001 12.9868 71.3863 12.5829 72.4675 13.3601C72.9403 13.7 73.1671 14.2113 73.2426 14.7588C73.4417 16.1973 72.7689 17.8878 71.6076 18.5112C71.0204 18.7715 70.4158 18.9336 69.7651 18.8419C69.6987 18.8326 69.6748 18.8956 69.6701 18.9577C69.5835 19.155 69.6701 19.393 69.5264 19.5764C69.0867 19.6524 69.1254 20.1582 68.8286 20.3619L68.8296 20.3638Z" fill="#FFCDBA"/>
<path d="M67.79 12.845C67.7789 12.9525 67.7558 12.9979 67.6333 12.9247C66.082 12.0021 64.5907 11.0017 63.1805 9.86513C61.8063 8.75821 60.7012 7.39377 59.4643 6.15716C59.1066 5.79868 58.62 5.46985 58.5665 4.87053C58.6993 4.7603 58.7306 4.7427 58.8476 4.66675C59.1214 5.06784 59.1278 4.96409 59.3979 5.33276C61.1344 7.69852 63.2921 9.62059 65.6544 11.3268C66.3622 11.8381 67.0784 12.3393 67.79 12.845Z" fill="#FFB79C"/>
<path d="M69.671 18.9595C69.6074 18.8465 69.6683 18.7891 69.7687 18.7955C70.3872 18.8363 70.9835 18.7668 71.5402 18.4686C71.5522 18.4621 71.5845 18.4973 71.6075 18.5121C71.0739 18.852 70.4886 18.9678 69.8646 18.9095C69.7927 18.903 69.7227 18.8928 69.6701 18.9586L69.671 18.9595Z" fill="#FFA786"/>
<path d="M33.3543 14.3455C32.9138 14.2603 32.923 14.2742 32.393 14.6466C31.4621 15.3015 30.4224 15.71 29.3265 15.9971C28.4352 16.2306 27.532 16.388 26.6213 16.5057C26.2978 16.5474 25.9678 16.5196 25.6342 16.4566C24.5401 16.2519 23.4286 16.2454 22.3179 16.2593C22.023 16.263 21.7437 16.2269 21.4801 16.0898C21.5197 15.81 21.6008 15.534 21.4875 15.2237C23.0239 15.5053 24.5097 15.5581 26.0102 15.2932C26.0056 15.5358 25.8259 15.6609 25.73 15.8286C25.5789 16.0907 25.6296 16.1944 25.9365 16.1704C27.0859 16.0805 28.203 15.8536 29.2795 15.4275C30.4372 14.9699 31.4483 14.2965 32.2824 13.3702C32.4898 13.1395 32.616 13.146 32.8133 13.3711C33.0658 13.6601 33.24 13.9824 33.3543 14.3437V14.3455Z" fill="#FFB79C"/>
<path d="M28.6759 27.6232C27.6436 27.6074 26.7412 27.2239 25.9209 26.6246C25.7873 26.5264 25.5393 26.3921 25.6803 26.1846C25.7854 26.0299 26.0011 26.1392 26.1559 26.2208C27.5855 26.972 29.075 27.0026 30.6022 26.6015C30.7322 26.5672 30.9174 26.4727 30.982 26.6394C31.0382 26.7849 30.8594 26.8868 30.7442 26.9637C30.1192 27.3814 29.4372 27.6269 28.6759 27.6232Z" fill="#11051D"/>
<path d="M29.4454 19.7172C29.5975 19.7969 29.615 19.8858 29.6316 19.9664C29.8823 21.1836 30.486 22.234 31.1699 23.2436C31.4446 23.6494 31.4897 24.0681 31.2344 24.4627C30.9266 24.9378 30.4399 25.1379 29.8832 25.049C29.615 25.0064 29.1836 24.9842 29.1864 24.6701C29.1883 24.4691 29.6454 24.5349 29.8961 24.4719C29.9643 24.4552 30.0436 24.4803 30.1118 24.4636C30.8344 24.2885 31.2141 24.107 30.663 23.327C29.9182 22.2738 29.4814 21.0817 29.4463 19.7163L29.4454 19.7172Z" fill="#11051D"/>
<path d="M26.5568 18.0053C25.6462 17.783 24.8572 18.1748 24.0627 18.5398C23.9337 18.5991 23.8037 18.6565 23.6784 18.7223C23.5576 18.7853 23.4341 18.852 23.3355 18.7065C23.2452 18.5732 23.3761 18.4972 23.447 18.4194C24.0194 17.7904 24.7531 17.4783 25.566 17.293C25.9817 17.1985 26.3633 17.2263 26.7375 17.4088C26.8914 17.4838 26.9781 17.6172 26.9366 17.7997C26.8896 18.0026 26.7338 18.0174 26.5568 18.0044V18.0053Z" fill="#11051D"/>
<path d="M31.1174 20.3517C31.1746 19.9877 31.2031 19.607 31.5396 19.3578C31.8253 19.1457 32.1221 19.2003 32.3166 19.4995C32.5995 19.9339 32.5295 20.687 32.1801 21.0835C32.0253 21.2595 31.8502 21.3716 31.6124 21.3188C31.3755 21.266 31.2483 21.0927 31.2013 20.8658C31.1663 20.6972 31.0603 20.5397 31.1174 20.3517Z" fill="#11051D"/>
<path d="M25.2039 20.8139C25.202 20.2507 25.3947 19.8959 25.7311 19.8403C26.2058 19.7625 26.5661 20.1034 26.5781 20.6888C26.5836 20.9584 26.5293 21.239 26.3717 21.4725C26.2325 21.679 26.0638 21.8828 25.7809 21.8411C25.496 21.7985 25.355 21.5994 25.2712 21.3233C25.2186 21.151 25.2039 20.9871 25.2048 20.8139H25.2039Z" fill="#11051D"/>
<path d="M32.0401 16.7854C32.524 16.7558 32.9701 16.8809 33.3986 17.0995C33.594 17.1995 33.7047 17.3412 33.606 17.5469C33.5222 17.7219 33.3738 17.7377 33.1728 17.6728C32.4318 17.432 31.6806 17.4144 30.9359 17.6664C30.7635 17.7247 30.5995 17.7942 30.5008 17.5737C30.405 17.3607 30.5193 17.1921 30.6824 17.0967C31.0179 16.9003 31.3912 16.803 31.782 16.7854C31.8686 16.7817 31.9553 16.7854 32.041 16.7854H32.0401Z" fill="#11051D"/>
<path d="M14.5877 54.1616C14.5628 54.1903 14.538 54.2181 14.5131 54.2468C13.8467 54.2533 13.2079 54.4506 12.5508 54.5256C11.8927 54.6006 11.2364 54.6784 10.5737 54.6914C9.88246 54.7044 9.19026 54.7442 8.51097 54.8702C7.78652 55.0045 7.07589 55.1888 6.97542 56.117C6.96989 56.1689 6.91736 56.2152 6.88602 56.2633C6.76436 55.5056 6.82703 54.7461 6.85284 53.9865C6.87772 53.6984 6.90261 53.4094 6.9275 53.1213C7.7091 53.2167 8.48885 53.3233 9.27137 53.4066C10.759 53.566 12.2494 53.6364 13.7434 53.4872C14.0006 53.4613 14.2614 53.4724 14.5204 53.4669C14.5481 53.6984 14.4356 53.9439 14.5886 54.1625L14.5877 54.1616Z" fill="#FFB79C"/>
<path d="M12.9544 34.9446C13.8125 35.3809 14.1646 36.2201 14.4881 37.0315C15.0799 38.5145 15.3739 40.0707 15.4873 41.6723C15.5914 43.1497 15.5794 44.6133 15.3822 46.0778C15.3711 46.162 15.3859 46.2547 15.2946 46.3075C15.1149 45.962 15.1794 45.5729 15.1435 45.2117C15.067 44.4373 15.0946 43.6546 15.0476 42.8737C14.9508 41.2425 14.7213 39.6391 14.3232 38.0551C14.1204 37.2511 13.8439 36.4832 13.3674 35.8042C13.1637 35.5143 12.8973 35.2688 12.6586 35.0029C12.7544 34.9159 12.8604 34.9613 12.9544 34.9446Z" fill="#FEA221"/>
<path d="M15.2191 47.5247C15.3325 48.1657 15.3445 48.8076 15.2237 49.4495C15.2219 48.8076 15.221 48.1666 15.2191 47.5247Z" fill="#725A4A"/>
<path d="M60.6514 28.4799C60.2007 29.8332 59.7749 31.194 59.4421 32.5825C59.2403 33.1438 59.1149 33.7255 58.9914 34.3082C58.8274 34.9631 58.6642 35.618 58.5002 36.2728C58.2707 37.1241 58.1186 37.9856 58.1186 38.8711C57.8983 40.6968 57.7287 42.5272 57.7011 44.3678C57.6983 44.5234 57.7296 44.6883 57.6301 44.8309C57.5112 44.9291 57.5785 45.0616 57.5775 45.1746C57.572 46.59 57.5739 48.0053 57.5729 49.4207C57.5729 49.492 57.5886 49.5652 57.561 49.6347C57.6024 49.5754 57.5563 49.4846 57.6292 49.4365C57.6458 49.5356 57.6734 49.6338 57.6771 49.7329C57.7195 50.9602 57.7103 52.1922 57.8117 53.4149C57.9407 54.9804 57.8439 56.543 57.8762 58.1066C57.8854 58.567 57.7407 59.019 57.8061 59.4831C57.8227 59.6628 57.7011 59.7221 57.5628 59.7675C56.5342 59.8101 55.5056 59.861 54.4797 59.7397C54.3507 59.6582 54.3756 59.5822 54.4954 59.5211C54.629 59.4535 54.7765 59.4599 54.9212 59.459C55.6014 59.4553 56.2826 59.459 56.9628 59.4572C57.5499 59.4553 57.572 59.4247 57.5858 58.8467C57.6255 57.1914 57.6328 55.5361 57.5849 53.8808C57.5748 53.5455 57.5895 53.2121 57.6393 52.9425C57.654 52.823 57.5729 52.8619 57.631 52.8601C57.6356 52.8601 57.6338 52.8712 57.6347 52.8925C57.6384 53.1769 57.5232 53.4325 57.4319 53.691C57.3545 53.9114 57.2208 54.0791 57.0135 53.791C56.8964 53.628 56.7692 53.6715 56.6356 53.7465C56.4964 53.8243 56.3323 53.8873 56.2411 54.0124C55.959 54.3949 55.4724 54.2541 55.1212 54.4792C54.9396 54.5959 54.3986 54.2532 54.2779 54.0235C54.2373 53.9457 54.2041 53.8549 54.1276 53.8151C53.7792 53.6354 53.6723 53.3102 53.6013 52.961C53.5672 52.848 53.5811 52.7322 53.5857 52.6183C53.6806 52.2876 53.7461 51.9541 53.7931 51.6114C53.8474 51.214 53.7645 50.875 53.5497 50.5527C53.4437 49.6616 53.3728 48.7677 53.2373 47.8794C53.1525 47.3217 53.0336 46.7724 52.9322 46.2185C52.887 45.7489 52.8382 45.2904 52.5783 44.8652C52.3718 44.5271 52.4778 44.1038 52.4225 43.7212C52.2557 42.5596 52.4649 41.4045 52.6004 40.2513C52.6474 39.8521 52.7027 39.4547 52.7543 39.0564C52.9515 39.0805 53.0492 39.1786 52.9764 39.3815C52.7377 40.0438 52.7755 40.72 52.8658 41.399C52.8714 41.4379 52.8714 41.5009 52.8483 41.5185C52.4391 41.8251 52.7635 42.2502 52.6815 42.6124C52.6317 42.8329 52.8161 42.9996 53.029 42.8134C53.1967 42.6662 53.3691 42.6448 53.5589 42.6587C53.5765 42.5041 53.4898 42.4735 53.4032 42.4679C53.2253 42.4568 53.099 42.341 53.1387 42.1965C53.1893 42.0113 53.3175 41.7806 53.4954 41.7454C53.699 41.7056 53.817 41.8825 53.782 42.1215C53.7129 42.5921 53.8014 43.0219 54.123 43.3924C54.2797 43.3053 54.206 43.208 54.1654 43.1256C54.0585 42.9079 54.0235 42.7162 54.1534 42.4716C54.3064 42.1845 54.041 41.5657 53.7101 41.4231C54.2133 41.2897 54.1451 40.9618 54.0401 40.62C53.9295 40.2643 53.9875 39.9104 54.0124 39.5473C54.0438 39.0906 53.9857 38.6284 53.97 38.168C53.9636 37.9754 53.9525 37.7744 54.2235 37.7466C54.3608 37.8661 54.3553 38.0319 54.3544 38.1894C54.3516 39.2351 54.4631 40.2745 54.5184 41.3165C54.6253 43.3229 54.9443 45.2978 55.3434 47.2624C55.3719 47.4042 55.4097 47.545 55.4189 47.6904C55.4171 48.2517 55.5185 48.789 55.7885 49.2864C55.854 49.3772 55.8872 49.4791 55.8973 49.5893C55.9517 50.4684 56.2374 51.2854 56.5637 52.0885C56.5923 52.0458 56.6144 52.0014 56.6356 51.956C56.6577 51.8689 56.654 51.78 56.6337 51.6966C56.4107 50.7768 56.2687 49.8385 55.9987 48.9298C55.9738 48.8464 55.9139 48.7797 55.8669 48.7075C55.5719 47.8497 55.4973 46.9494 55.3434 46.0638C55.0161 44.1871 54.8742 42.2901 54.7378 40.3949C54.6429 39.0777 54.6023 37.7558 54.6309 36.4331C54.6382 36.0802 54.7645 35.819 55.0539 35.6272C55.5609 35.2919 56.0402 34.913 56.5692 34.6111C56.8218 34.4666 56.8199 34.3591 56.5784 34.1831C56.0392 33.7922 55.524 33.3698 55.0355 32.9141C54.7654 32.6621 54.7618 32.4306 54.9701 32.1165C55.8613 30.7743 56.819 29.4794 57.7416 28.1603C57.8255 28.0399 57.9121 27.925 58.0614 27.8787C58.8458 27.8732 59.6117 27.988 60.3555 28.2455C60.4818 28.2891 60.5924 28.353 60.6523 28.4808L60.6514 28.4799Z" fill="#E56990"/>
<path d="M56.6733 52.0644C56.641 52.0931 56.6088 52.1218 56.5765 52.1515C56.1913 51.3456 56.0078 50.4776 55.794 49.619C55.7885 49.5254 55.8115 49.4226 55.7111 49.3596C55.5617 48.8436 55.3497 48.3425 55.3516 47.7923C55.0244 46.6381 54.8354 45.4543 54.6778 44.2705C54.3884 42.1076 54.2299 39.9299 54.2225 37.7447C54.2244 37.3233 54.2538 36.899 54.2207 36.4803C54.1893 36.0922 54.3552 35.8505 54.6539 35.6513C55.0373 35.3947 55.4041 35.1122 55.7949 34.8677C56.0336 34.7176 56.0687 34.5926 55.8327 34.4249C55.2732 34.0275 54.8576 33.4773 54.3515 33.0234C54.1349 32.8298 54.1331 32.677 54.3009 32.4361C55.3203 30.9818 56.3599 29.5424 57.4162 28.1149C57.8872 27.4786 58.3388 26.8339 59.0089 26.3865C59.2577 26.4263 59.137 26.5866 59.0725 26.6662C58.7259 27.0923 58.49 27.6073 58.0503 27.9584C57.501 28.717 56.9461 29.471 56.4051 30.2362C55.9129 30.9327 55.4474 31.6488 54.9479 32.3389C54.8032 32.538 54.9064 32.6214 55.0225 32.7335C55.6484 33.3356 56.3258 33.8728 57.0761 34.3915C56.4254 34.8362 55.7995 35.2836 55.1525 35.6976C54.8649 35.882 54.747 36.0904 54.7423 36.4396C54.7239 37.7475 54.7553 39.0555 54.852 40.3569C55.0013 42.3577 55.1497 44.3594 55.5138 46.3389C55.6567 47.1152 55.7341 47.9025 55.9636 48.6612C56.2733 49.6829 56.4272 50.7407 56.6973 51.7726C56.7222 51.868 56.7434 51.9727 56.6733 52.0653V52.0644Z" fill="#C2466E"/>
<path d="M58.0494 27.9575C58.2983 27.4897 58.6421 27.0886 58.9536 26.6644C59.0154 26.5801 59.1573 26.5116 59.0089 26.3856C59.0357 26.3198 59.0615 26.255 59.0882 26.1901C59.3076 25.9641 59.6237 25.9743 59.8891 25.8594C60.3085 25.6779 60.7463 25.5519 61.1887 25.4445C61.5464 25.6121 61.621 25.853 61.4662 26.2902C61.4109 26.4458 61.3233 26.5699 61.1878 26.6625C61.009 27.2683 60.8302 27.8751 60.6514 28.4809C59.8209 28.1205 58.9343 28.0446 58.0504 27.9584L58.0494 27.9575Z" fill="#E56990"/>
<path d="M6.85187 53.9846C6.86293 54.7433 6.87399 55.5028 6.88505 56.2615C6.87491 56.3782 6.86385 56.4949 6.85371 56.6116C6.74956 55.7362 6.7256 54.8609 6.85187 53.9846Z" fill="#6A4C64"/>
<path d="M61.1868 26.6616C61.3288 26.2559 61.6855 25.8502 61.1868 25.4435C61.2108 25.4111 61.2348 25.3787 61.2587 25.3463C64.0598 24.6923 66.4129 23.2853 68.3069 21.1075C68.1401 21.6411 67.7705 22.0514 67.4617 22.497C66.5483 23.8142 65.4736 24.9934 64.2183 25.9808C63.3408 26.6709 62.2901 26.8506 61.1859 26.6616H61.1868Z" fill="#FFB79C"/>
<path d="M52.9321 46.2167C53.2289 46.8993 53.2409 47.6404 53.3552 48.3592C53.4722 49.0956 53.5358 49.8413 53.6225 50.5832C53.6511 50.612 53.6612 50.6472 53.6557 50.687C53.6317 50.7629 53.5994 50.8324 53.5174 50.863C53.4335 50.134 53.3432 49.4068 53.2685 48.6769C53.1838 47.8451 53.0308 47.0263 52.8501 46.212C52.8768 46.2139 52.9045 46.2148 52.9312 46.2167H52.9321Z" fill="#E56990"/>
<path d="M29.757 74.2558C28.521 73.4212 27.415 72.4208 26.2998 71.4389C24.7015 70.0328 23.1466 68.5776 21.5705 67.1465C21.4028 66.9946 21.2535 66.8463 21.3539 66.5944C21.4194 66.4193 21.2995 66.2035 21.4691 66.0507C22.1632 66.637 22.8526 67.228 23.5513 67.8078C24.8177 68.8592 26.0859 69.9068 27.3588 70.9489C28.1855 71.626 29.0224 72.2902 29.8538 72.9608C30.0345 73.1063 30.2059 73.2619 30.3368 73.4573C30.4124 73.6287 30.3515 73.7954 30.3137 73.9603C30.2105 74.4124 30.1755 74.429 29.757 74.2549V74.2558Z" fill="#D2CAD4"/>
<path d="M57.6089 59.6786C57.7029 59.6416 57.7665 59.573 57.8061 59.4813C58.4568 59.0886 59.031 58.5838 59.691 58.2003C60.4873 57.7371 61.2855 57.4555 62.2376 57.626C62.9132 57.7473 63.6183 57.7093 64.3096 57.7417C64.4875 57.738 64.6654 57.7343 64.8423 57.7306C65.6073 57.7658 66.3484 57.5787 67.1005 57.4907C67.683 57.7788 68.2969 58.002 68.8425 58.3679C69.2084 58.6134 69.5218 58.907 69.7808 59.2637C70.2647 59.9306 70.3098 60.5447 69.7965 61.1848C68.9761 62.2084 67.9816 63.0161 66.694 63.3894C66.4 63.4746 66.0912 63.4792 65.7917 63.5005C64.9778 63.5589 64.2451 63.8535 63.5271 64.2045C62.6312 64.6436 61.7657 65.1623 60.7325 65.2216C60.5675 65.2309 60.4578 65.3781 60.3067 65.4291C60.1693 65.0873 60.4864 64.8993 60.574 64.6343C60.5693 64.3185 60.844 64.2453 61.0403 64.1267C62.1501 63.4579 63.2008 62.6882 64.4912 62.1352C62.6469 62.665 61.0643 63.4848 59.6347 64.6084C59.2817 64.8863 58.8891 65.1095 58.5011 65.3318C58.2614 65.4689 58.0079 65.6468 57.6964 65.5171C57.5287 65.015 57.9241 64.7381 58.1434 64.3907C58.1951 64.1971 58.3407 64.0739 58.4734 63.9405C59.5601 62.8438 60.7749 61.911 62.0772 61.0894C62.3657 60.9078 62.6321 60.6902 62.9344 60.5271C61.7583 61.1774 60.5629 61.7943 59.4781 62.6011C58.6421 63.2227 57.8439 63.9016 56.9397 64.425C56.7296 64.5463 56.5305 64.7723 56.2355 64.6427C55.9986 64.3805 56.254 64.1137 56.2291 63.8498C56.1609 63.645 56.2982 63.5172 56.4162 63.3968C57.6798 62.1 58.926 60.7828 60.4532 59.7815C60.6357 59.662 60.8477 59.6119 60.9952 59.4758C59.4652 60.2742 58.0983 61.3339 56.8079 62.5011C56.3434 62.9207 55.8152 63.2504 55.276 63.5626C55.1617 63.6284 55.0428 63.6867 54.9083 63.6117C54.652 63.344 54.7756 63.0643 54.9083 62.8067C55.2355 62.1722 55.6364 61.5803 56.1295 61.069C56.5987 60.5818 57.0217 60.038 57.6098 59.6768L57.6089 59.6786Z" fill="#FFCDBA"/>
<path d="M2.59909 59.6498C4.02034 59.6572 5.44252 59.6646 6.86378 59.6711C7.10066 59.7804 7.05365 60.0046 7.07577 60.2C7.13476 60.7345 7.1873 61.268 7.39836 61.7729C7.82327 62.789 8.68598 63.2735 9.64638 63.618C11.1819 64.1692 12.7921 64.3795 14.3968 64.6055C16.4586 64.8963 18.5297 65.089 20.6063 65.2326C21.0386 65.2622 21.4699 65.3021 21.904 65.3113C22.1769 65.3169 22.4571 65.3363 22.6727 65.5457C22.7428 65.7948 22.5289 65.7745 22.4027 65.8161C22.1225 65.9079 21.8312 65.9681 21.5824 66.1376C21.4478 66.2635 21.5178 66.4812 21.3768 66.6053C21.3169 66.648 21.2469 66.6674 21.1805 66.6971C20.6653 66.9231 20.6017 67.2121 20.9971 67.6243C21.8709 68.5358 22.8349 69.3518 23.7649 70.2031C25.0267 71.3573 26.2968 72.5031 27.5826 73.6304C28.2038 74.1751 28.8195 74.7262 29.4739 75.232C29.7984 75.4821 30.1274 75.5488 30.5274 75.4839C32.6418 75.1375 34.735 74.678 36.8401 74.2769C39.0439 73.8573 41.2458 73.4275 43.4459 72.9838C43.7621 72.9199 44.0192 72.9607 44.304 73.1376C45.1741 73.6767 46.7217 73.271 47.2433 72.3845C47.377 72.1585 47.5788 72.127 47.7917 72.0955C49.3374 71.8649 50.884 71.6444 52.4325 71.4332C54.9837 71.0859 57.5378 70.7616 60.0936 70.4504C60.4218 70.4106 60.76 70.2735 61.0974 70.4263C61.1582 70.518 61.2808 70.4773 61.3766 70.531C59.8015 71.0238 58.1959 71.2619 56.6271 71.6666C54.7644 72.1474 52.8814 72.5596 50.9762 72.8625C49.2462 73.1367 47.5327 73.5192 45.8027 73.7906C43.6598 74.1278 41.526 74.5169 39.3831 74.8466C37.6946 75.1069 36.006 75.3681 34.3184 75.6293C32.9699 75.8378 31.616 76.0138 30.2601 76.1629C29.4131 76.2564 28.7052 75.9378 28.0656 75.3533C26.4766 73.9009 24.9447 72.3845 23.2718 71.0229C22.3649 70.2855 21.4506 69.5315 20.6745 68.6627C19.4551 67.2964 17.8845 66.7026 16.1932 66.3154C15.0319 66.0486 13.8613 65.8097 12.6843 65.6309C11.5746 65.4623 10.4713 65.2641 9.38554 64.989C7.72465 64.5684 6.1808 63.9154 5.02223 62.5732C4.73005 62.2342 4.43326 61.8988 4.21482 61.5024C4.00283 61.118 3.76411 60.7789 3.31248 60.6178C3.01938 60.5131 2.75209 60.3186 2.49586 60.1324C2.10414 59.8489 1.69029 59.7202 1.20087 59.7415C0.835881 59.7572 0.45522 59.8397 0.0966797 59.6748C0.930816 59.6664 1.76587 59.659 2.60001 59.6507L2.59909 59.6498Z" fill="#E0B0E4"/>
<path d="M88.8949 59.6748C88.7769 59.8017 88.623 59.7489 88.4847 59.7498C87.6313 59.7545 86.775 59.7841 85.9233 59.7406C85.4081 59.7137 85.0044 59.8804 84.6136 60.1806C83.2301 61.2412 81.6282 61.8599 80.019 62.4648C78.5608 63.0132 77.0843 63.5078 75.6031 63.9876C74.3441 64.3952 73.0832 64.8009 71.7642 64.9788C71.6075 65.0001 71.4463 64.9927 71.2877 64.9927C69.8112 64.9927 68.3346 65.0131 66.859 64.9871C65.3769 64.9612 63.9823 65.3122 62.6127 65.8439C61.5509 66.2561 60.4615 66.5813 59.314 66.6572C59.2153 66.6637 59.1167 66.7248 59.0208 66.7184C58.7692 66.7008 58.7572 66.8221 58.8273 67.0092C58.6356 67.0648 58.4936 66.9462 58.348 66.8601C56.9295 66.0209 55.5184 65.1696 54.1156 64.3044C53.9718 64.2155 53.7469 64.1664 53.8013 63.907C54.1312 63.6838 54.5239 63.7107 54.8907 63.6319C54.9599 63.656 55.0087 63.7051 55.0529 63.7625C55.3589 64.1581 55.4447 64.1757 55.9018 63.946C56.0106 63.8913 56.1111 63.7857 56.2521 63.8654C56.3765 64.1071 56.1931 64.3693 56.3018 64.611C56.3894 64.8945 56.5996 64.8945 56.8254 64.8315C57.1618 64.7379 57.4604 64.5601 57.7655 64.3934C57.8899 64.3257 58.0254 64.1738 58.1747 64.3637C58.1913 64.5592 58.0282 64.6685 57.9572 64.8213C57.8577 65.0381 57.6724 65.2354 57.7968 65.5049C57.971 65.743 58.2116 65.6698 58.4328 65.629C58.9923 65.5281 59.4273 65.1789 59.8845 64.8741C60.0854 64.7398 60.267 64.5527 60.5444 64.6101C60.6716 64.775 60.5149 64.8945 60.4734 65.0306C60.4338 65.1585 60.3121 65.2743 60.4393 65.416C60.6403 65.6235 60.8633 65.5373 61.0864 65.4706C61.7795 65.2631 62.4155 64.9121 63.0957 64.6685C63.9805 64.3517 64.8616 64.0349 65.7935 63.8894C66.9659 63.706 68.0609 63.3439 68.9586 62.5204C69.4093 62.6862 69.7559 63.0354 70.202 63.2151C70.5513 63.3559 70.8895 63.5226 71.2527 63.6273C71.4343 63.6801 71.6214 63.7135 71.802 63.6116C74.5192 62.575 77.2907 61.6839 79.9812 60.5752C80.6236 60.3112 81.2467 60.0046 81.8753 59.7081C82.0098 59.6452 82.1296 59.4969 82.3085 59.5942C82.4301 59.7165 82.5822 59.6489 82.7177 59.6498C84.7758 59.6618 86.834 59.6683 88.8912 59.6757L88.8949 59.6748Z" fill="#E0B0E4"/>
<path d="M57.6087 59.6785C56.9469 60.4538 56.1229 61.0819 55.5634 61.9489C55.3689 62.2499 55.1745 62.5528 54.9929 62.8622C54.8565 63.0947 54.8187 63.3448 54.9357 63.6023C54.9551 63.6338 54.9486 63.6607 54.9191 63.681C54.5597 63.8672 54.1514 63.8432 53.7735 63.9487C52.8407 63.3985 51.9116 62.8428 50.9743 62.2999C50.4858 62.0174 49.9881 61.7516 49.4876 61.4931C49.1843 61.3366 48.8341 61.3764 48.5124 61.3523C45.4736 61.1235 42.491 61.3162 39.6715 62.639C38.9885 62.9595 38.3443 63.342 37.7267 63.7709C37.6143 63.8487 37.5249 63.9191 37.3848 63.8515C36.6612 63.4995 35.8502 63.4782 35.0944 63.2448C34.6814 63.1401 34.4842 62.8205 34.3238 62.4639C34.2648 61.9424 34.0086 61.5246 33.6445 61.1634C33.6279 61.0606 33.6427 60.9577 33.6952 60.8725C33.933 60.4881 33.816 60.0722 33.8114 59.6665C34.1257 59.6646 34.44 59.6637 34.7533 59.6618C34.9229 59.5192 35.1294 59.5238 35.3312 59.5238C37.0677 59.521 38.8051 59.521 40.5416 59.5238C40.7444 59.5238 40.9499 59.5229 41.1204 59.6609C44.7556 59.66 48.3908 59.66 52.0259 59.6554C52.2167 59.6554 52.4435 59.7322 52.5568 59.4812C53.1836 59.433 53.802 59.484 54.4094 59.6489C55.4749 59.6591 56.5413 59.6683 57.6068 59.6785H57.6087Z" fill="#E0B0E4"/>
<path d="M60.3066 65.4291C60.3527 65.1549 60.5637 65.0845 60.7868 65.0864C61.3988 65.0892 61.9371 64.8446 62.4735 64.6019C63.1178 64.3111 63.751 63.9952 64.3869 63.6867C64.904 63.4357 65.4773 63.3996 66.0239 63.3579C66.929 63.2903 67.6728 62.9383 68.3714 62.3936C68.9097 61.974 69.4388 61.5526 69.8148 60.9755C70.1558 60.453 70.1015 59.9056 69.7466 59.3971C69.1899 58.5986 68.3862 58.1725 67.5244 57.814C67.3926 57.7594 67.1852 57.7816 67.1769 57.5528C67.5935 57.1304 68.0968 57.0822 68.6415 57.2119C68.7042 57.2425 68.7678 57.2731 68.8304 57.3045C69.1752 57.4824 69.4775 57.7038 69.613 58.0919C70.354 58.8728 70.8379 59.8167 71.2941 60.7782C71.3614 60.9199 71.4554 61.0533 71.4342 61.2237C71.1762 61.4534 70.8222 61.446 70.53 61.5952C70.1208 61.8036 69.7033 61.9925 69.3899 62.3501C69.2913 62.4631 69.1853 62.603 68.9945 62.5548C68.3604 63.3227 67.4848 63.6719 66.5585 63.8414C64.9031 64.1434 63.315 64.6306 61.7878 65.3356C61.514 65.4615 61.2163 65.5347 60.9324 65.6412C60.6633 65.7413 60.4513 65.6903 60.3057 65.43L60.3066 65.4291Z" fill="#FFB79C"/>
<path d="M68.9955 62.5548C69.5734 61.9536 70.2342 61.4914 71.0573 61.2978C71.1817 61.2682 71.3089 61.2478 71.4343 61.2228C71.6785 61.4664 71.6297 61.8295 71.7938 62.1055C71.8786 62.6363 71.9292 63.1661 71.7993 63.6978C71.7836 63.7988 71.7385 63.8544 71.626 63.8257C70.661 63.5858 69.7577 63.2171 68.9955 62.5539V62.5548Z" fill="#4C0E22"/>
<path d="M57.6973 65.517C58.6126 65.304 59.3112 64.7047 60.0403 64.1693C61.3611 63.1994 62.821 62.5251 64.376 62.0434C64.4663 62.0156 64.5732 62.0397 64.6847 62.0397C64.6331 62.2416 64.4506 62.2555 64.3206 62.3167C63.0994 62.8901 62.0053 63.6793 60.8541 64.3712C60.7399 64.4398 60.6366 64.5139 60.574 64.6352C60.0458 64.7797 59.6781 65.1956 59.2126 65.4494C58.8375 65.6541 58.4577 65.7894 58.0282 65.7801C57.8439 65.7764 57.7231 65.7125 57.6964 65.518L57.6973 65.517Z" fill="#FFB79C"/>
<path d="M56.2355 64.6435C56.9102 64.4332 57.4641 64.0062 58.0051 63.5829C59.4052 62.4899 60.8513 61.4728 62.4477 60.6864C62.6984 60.5623 62.9399 60.4187 63.221 60.3372C61.4679 61.6173 59.6476 62.8057 58.1434 64.3906C57.9065 64.2971 57.7968 64.5314 57.6226 64.5991C57.3406 64.7074 57.0788 64.876 56.7903 64.9585C56.5424 65.0289 56.2475 65.0548 56.2355 64.6444V64.6435Z" fill="#FFB79C"/>
<path d="M54.9203 63.6811C54.9258 63.6542 54.9313 63.6283 54.9369 63.6024C55.5922 63.3217 56.1756 62.9206 56.7047 62.4519C57.8513 61.4348 59.0265 60.4604 60.374 59.7184C60.6708 59.5554 60.9758 59.4072 61.3639 59.208C61.0892 59.6082 60.7196 59.7286 60.4237 59.9259C58.9426 60.9142 57.7388 62.2074 56.4955 63.4588C56.3803 63.5746 56.2991 63.708 56.2291 63.8515C56.16 63.9025 56.0936 63.9553 56.0226 64.0035C55.4558 64.3851 55.1793 64.3045 54.9203 63.682V63.6811Z" fill="#FFB79C"/>
<path d="M15.3933 48.5602C15.4043 48.0267 15.3287 47.5746 15.5472 47.1087C15.8191 46.5298 15.8265 45.8684 15.8854 45.2422C15.9979 44.0482 16.0855 42.8431 16.0615 41.6454C16.0274 39.8929 15.7997 38.157 15.126 36.5174C14.7333 35.5615 14.2043 34.6861 13.4088 34.0016C13.3268 33.9312 13.2411 33.858 13.2706 33.7534C13.3028 33.6366 13.4347 33.6691 13.5268 33.6376C14.4117 33.3337 14.7757 34.0655 15.1601 34.562C15.8974 35.5142 16.3693 36.6258 16.6818 37.7966C17.0514 39.1852 17.1703 40.5987 17.2293 42.0354C17.291 43.5221 17.1943 44.9727 16.8588 46.4158C16.6523 47.3023 16.1251 47.9572 15.3923 48.5612L15.3933 48.5602Z" fill="#3C2774"/>
<path d="M29.757 74.2558C29.9837 74.2975 30.1855 74.3373 30.1809 73.9788C30.1791 73.8056 30.2814 73.6315 30.3367 73.4573C30.9893 73.2572 31.5441 72.8543 32.1598 72.5755C34.43 71.5454 36.7978 70.8313 39.2477 70.4228C40.9565 70.1375 42.6838 70.0652 44.3954 70.4839C44.6221 70.5395 44.8368 70.6099 45.0212 70.7581C44.7631 70.9415 44.4691 71.1323 44.4248 71.4565C44.3714 71.8456 44.1336 71.9178 43.8294 71.9743C41.8275 72.3439 39.8302 72.7339 37.8255 73.085C35.3553 73.5175 32.8972 74.0085 30.4399 74.5087C30.1496 74.568 29.9404 74.4624 29.7579 74.2558H29.757Z" fill="#E5DFEA"/>
<path d="M30.699 65.5328C30.8778 65.3939 31.1174 65.6134 31.2879 65.4309C31.4317 65.2503 31.546 65.0336 31.8078 64.9937C32.0419 64.7566 32.3156 64.7946 32.6032 64.865C33.112 64.99 33.5664 65.2466 34.0355 65.4615C34.8254 65.8246 35.6641 66.0238 36.5029 66.2572C36.3259 66.3934 36.1158 66.3702 35.9102 66.3934C34.7019 66.5267 33.4954 66.4563 32.2861 66.398C31.5985 66.3656 30.9266 66.3934 30.2446 66.6342C28.6095 67.2131 26.9578 67.0084 25.3301 66.5332C24.6121 66.3239 23.9024 66.0812 23.1917 65.8478C23.0968 65.8163 22.941 65.8015 23.0185 65.6218C23.0867 65.6069 23.1539 65.5995 23.2046 65.6625C23.4811 65.7598 23.7549 65.8746 24.0581 65.7977C25.1098 65.9524 26.1587 66.1358 27.2149 66.2516C28.1698 66.3563 29.1358 66.4443 30.0796 66.1386C30.3128 65.9645 30.4224 65.6634 30.6971 65.5319L30.699 65.5328Z" fill="#F5E1E6"/>
<path d="M34.323 62.464C34.5802 62.7243 34.8364 62.9846 35.0936 63.2449C35.9388 64.0461 36.2263 65.2105 37.0042 66.172C35.5387 65.4624 34.3101 64.5982 33.3165 63.4153C33.181 63.3912 33.0824 63.3375 33.1248 63.1717C33.7848 63.3421 34.123 63.0587 34.3239 62.4649L34.323 62.464Z" fill="#55408B"/>
<path d="M41.493 68.76C39.2634 68.974 36.0614 68.835 30.769 71.0998C30.8548 70.7923 31.0658 70.6895 31.2741 70.5876C32.7737 69.8576 34.3462 69.35 35.9748 69.0082C36.891 68.8156 37.821 68.7442 38.75 68.6516C39.6146 68.5655 40.4727 68.5201 41.3335 68.659C41.4027 68.6701 41.481 68.6599 41.4921 68.76H41.493Z" fill="#E2DFEC"/>
<path d="M53.8262 65.8125C53.7202 66.0089 53.5589 65.9487 53.4262 65.9505C52.4012 65.9607 51.3763 65.9227 50.3541 66.0404C48.5034 66.2543 46.7402 66.7416 45.1263 67.7095C44.9724 67.8022 44.7576 68.0578 44.6258 67.8578C44.5087 67.6818 44.7926 67.5354 44.9576 67.4261C46.2176 66.5878 47.6176 66.1339 49.0923 65.8616C50.368 65.6254 51.6528 65.7013 52.9349 65.6976C53.2271 65.6976 53.5193 65.7708 53.8262 65.8125Z" fill="#E3E0ED"/>
<path d="M38.3841 67.1751C37.0458 67.2177 35.7241 67.3854 34.4098 67.6513C32.6042 68.0171 30.8852 68.6211 29.2317 69.4279C29.1312 69.477 28.981 69.628 28.9017 69.4538C28.8418 69.3204 29.0142 69.2408 29.1266 69.1806C30.1506 68.635 31.2308 68.2311 32.335 67.8875C33.5037 67.5244 34.7047 67.2807 35.9112 67.1159C36.9638 66.9723 38.0284 66.8556 39.0984 66.9139C39.2109 66.9204 39.3833 66.8926 39.3842 67.0334C39.3851 67.214 39.198 67.1696 39.0782 67.1733C38.8468 67.1798 38.6155 67.1751 38.3841 67.1751Z" fill="#E4E0ED"/>
<path d="M51.5311 64.3518C51.3486 64.5259 51.1837 64.4639 51.0362 64.4648C49.9818 64.4731 48.9246 64.4212 47.8766 64.5602C46.2378 64.7788 44.5908 64.9724 43.0829 65.7357C42.9888 65.7838 42.858 65.8181 42.81 65.7171C42.7474 65.5856 42.8829 65.505 42.9796 65.455C43.599 65.1354 44.2543 64.9066 44.9263 64.7371C46.7567 64.274 48.6223 64.1693 50.5025 64.2017C50.8371 64.2073 51.1578 64.2527 51.5311 64.3518Z" fill="#E3E0ED"/>
<path d="M48.92 62.6955C46.095 62.8632 43.305 63.2198 40.6718 64.3888C40.7639 64.0942 41.0045 63.9924 41.2211 63.8932C42.6184 63.2495 44.0857 62.8808 45.6167 62.7085C46.7153 62.5844 47.8085 62.6946 48.92 62.6955Z" fill="#E3DFED"/>
<path d="M33.124 63.1707C33.1885 63.2523 33.2521 63.3328 33.3166 63.4144C33.4226 63.8062 33.2918 64.1285 33.0281 64.4129C33.2789 63.8868 32.9258 63.5329 32.653 63.1754C31.7663 62.0129 30.5534 61.2978 29.2492 60.7133C29.0943 60.6438 28.9257 60.5975 28.8049 60.4595C29.3893 60.201 31.9986 61.8434 33.1231 63.1698L33.124 63.1707Z" fill="#FFB79C"/>
<path d="M31.8078 64.9937C31.6668 65.1789 31.5211 65.3568 31.2879 65.4309C31.3948 64.6148 30.8667 64.1674 30.3008 63.7608C29.628 63.2772 28.9708 62.7678 28.2196 62.4C28.8943 62.6084 29.5017 62.9512 30.0943 63.3217C30.7027 63.7024 31.2999 64.0989 31.9018 64.4898C31.911 64.4953 31.9147 64.5175 31.9128 64.5296C31.9101 64.5426 31.8963 64.5527 31.888 64.5648C31.735 64.6843 31.852 64.8547 31.8078 64.9946V64.9937Z" fill="#FFB79C"/>
<path d="M42.3216 67.5299C42.1898 67.8152 42.5576 67.8504 42.5834 68.0569C42.1797 67.9235 41.9538 67.5595 41.6571 67.2992C40.7363 66.4915 39.7851 65.7217 38.8403 64.9436C38.7897 64.9019 38.7528 64.8417 38.738 64.7574C39.9427 65.6717 41.1861 66.5295 42.3216 67.5299Z" fill="#DBD7E7"/>
<path d="M42.7493 68.2264C43.0903 68.3089 43.2553 68.5933 43.4516 68.8415C43.1318 68.735 42.9557 68.4636 42.7493 68.2264Z" fill="#DBD7E7"/>
<path d="M56.3194 69.9022C57.372 69.7623 58.4246 69.6206 59.4771 69.4844C59.691 69.4567 59.9076 69.452 60.1232 69.4363C60.1371 69.4409 60.1509 69.4455 60.1638 69.4502C60.2025 69.4641 60.2375 69.5215 60.1979 69.5224C59.7112 69.5335 59.2384 69.6577 58.7573 69.7031C58.1056 69.7642 57.4577 69.8457 56.8125 69.9569C56.6512 69.9846 56.4706 70.03 56.3185 69.9022H56.3194Z" fill="#090B1F"/>
<path d="M33.8115 59.6656C34.1553 60.2103 33.9396 60.691 33.6438 61.1625C33.2945 60.8253 32.9341 60.4983 32.5986 60.1482C32.3884 59.9287 32.1442 59.7591 31.9045 59.5804C31.8354 59.2441 31.4889 59.1005 31.3672 58.8014C31.9488 58.7513 32.4594 59.0163 32.9931 59.1747C33.1811 59.2302 33.359 59.3238 33.5415 59.3997C33.6309 59.4887 33.7212 59.5767 33.8106 59.6656H33.8115Z" fill="#FFB79C"/>
<path d="M30.699 65.5328C30.5939 65.8385 30.3607 66.0135 30.0815 66.1395C30.1248 65.9839 30.1745 65.8653 29.9331 65.7912C29.0602 65.5235 28.4547 64.8168 27.697 64.3444C28.6676 64.8251 29.6178 65.3475 30.6999 65.5319L30.699 65.5328Z" fill="#FFB79C"/>
<path d="M14.4311 57.3156C14.4283 57.4017 14.4255 57.4888 14.4218 57.5749C13.9951 57.5221 13.5656 57.4842 13.1425 57.4128C12.7527 57.3471 12.3757 57.4962 11.9093 57.4675C12.7886 57.1368 13.6089 57.2109 14.4311 57.3156Z" fill="#FFB79C"/>
<path d="M24.06 65.7987C23.7467 65.9367 23.4701 65.8385 23.2065 65.6635C23.4913 65.7079 23.7762 65.7533 24.06 65.7987Z" fill="#FFFEFC"/>
<path d="M41.1215 59.661C38.9989 59.661 36.8762 59.661 34.7535 59.6619C34.7913 59.422 34.7268 59.1932 34.6826 58.9626C34.8015 58.8746 34.7756 58.7569 34.7323 58.6476C34.3839 57.7713 34.4549 56.9034 34.6743 56.0012C34.8844 55.136 34.9784 54.2412 35.1093 53.3575C35.1572 53.0324 35.4181 52.9713 35.6448 52.861C36.5011 52.4451 37.444 52.2636 38.3104 51.8782C38.7601 51.6782 39.2523 51.5244 39.5574 51.0853C39.7878 52.3006 40.0229 53.515 40.2487 54.7312C40.5243 56.217 40.7879 57.7056 41.0699 59.1904C41.1003 59.3488 41.1197 59.5026 41.1225 59.661H41.1215Z" fill="#FFCDBA"/>
<path d="M54.4115 59.649C53.8336 59.7009 53.2622 59.5805 52.6861 59.5768C52.6437 59.5768 52.6013 59.5147 52.558 59.4814C52.7432 58.3327 52.9285 57.1851 53.1119 56.0364C53.2456 55.1991 53.4096 54.3654 53.4373 53.5141C53.441 53.4011 53.4299 53.2798 53.5202 53.1872C53.6493 53.1464 53.5193 52.9908 53.6281 52.9417C53.6852 53.4771 54.3719 53.5892 54.4207 54.1348C54.4309 54.2441 54.5378 54.2552 54.6253 54.2181C54.7581 54.1635 54.8429 54.2116 54.9212 54.3172C54.9526 54.3598 55.0069 54.4006 55.0567 54.4117C55.3517 54.4756 55.2991 53.9903 55.5102 54.0671C55.7185 54.1431 55.8494 54.3108 56.0346 54.0347C56.2236 53.7522 56.5379 53.6271 56.842 53.5086C56.9886 53.4521 57.1444 53.428 57.1185 53.6753C57.1093 53.7642 57.0844 53.8708 57.2107 53.8643C57.302 53.8596 57.3121 53.7624 57.3324 53.6688C57.4181 53.277 57.6107 52.9148 57.5941 52.4924C57.631 52.498 57.667 52.5035 57.7038 52.51C57.7038 53.0084 57.6909 53.5077 57.7066 54.006C57.7269 54.6424 57.7518 55.2824 57.7582 55.9142C57.7702 57.0415 57.6992 58.1734 57.6983 59.3044C57.6983 59.574 57.4955 59.5786 57.2974 59.5786C56.4872 59.5777 55.677 59.5758 54.8678 59.5814C54.7148 59.5823 54.547 59.5267 54.4106 59.6509L54.4115 59.649Z" fill="#E56990"/>
<path d="M53.6289 52.9408C53.6243 53.0371 53.6206 53.1343 53.616 53.2307C53.6132 53.277 53.5957 53.3039 53.5543 53.2622C53.5358 53.2446 53.5321 53.2122 53.5211 53.1871C53.5202 52.4128 53.5192 51.6384 53.5183 50.8631C53.5515 50.801 53.5847 50.7389 53.6169 50.6769C53.8842 51.3105 53.7607 51.9478 53.6326 52.5851C53.6317 52.7036 53.6308 52.8222 53.6298 52.9408H53.6289Z" fill="#E56990"/>
<path d="M68.6425 57.2119C68.1346 57.2406 67.6424 57.3369 67.1779 57.5537C66.885 57.5537 66.6746 57.6136 66.2221 57.6136C66.1218 57.6136 66.1307 57.5537 66.222 57.4615C66.5237 57.1575 66.5237 57.1575 66.659 57.0813C66.8074 56.9145 67.0212 56.8552 67.1761 56.707C67.6922 56.7941 68.2388 56.7932 68.6416 57.2128L68.6425 57.2119Z" fill="#4C0E22"/>
<path d="M57.6292 49.4346C57.6144 49.6051 57.5997 49.7746 57.5849 49.945C57.5748 49.945 57.5637 49.945 57.5536 49.945V44.6624C57.6439 44.6809 57.5905 44.7809 57.631 44.8309C57.631 46.3658 57.6301 47.9007 57.6292 49.4356V49.4346Z" fill="#E56990"/>
<path d="M59.0882 12.8912C59.1288 14.2881 58.808 15.5655 58.2614 16.7956C58.1619 17.0207 58.0467 17.2402 57.9637 17.4718C57.796 17.9368 57.9075 18.1721 58.3647 18.3555C58.7601 18.5139 59.1739 18.5528 59.5961 18.5342C59.7463 18.5278 59.9509 18.4787 59.985 18.701C60.0182 18.9159 59.7933 18.8816 59.6799 18.9242C59.1297 19.1299 58.5739 19.1391 58.0541 18.8436C57.4577 18.5046 57.2789 18.0563 57.5268 17.4125C57.7444 16.8456 58.0771 16.3232 58.2891 15.7553C58.6071 14.9022 58.8329 14.0185 58.9251 13.1061C58.9324 13.0339 58.9435 12.9635 59.0891 12.8912H59.0882Z" fill="#11051D"/>
<path d="M62.5574 20.7834C61.68 22.0311 59.6799 22.0718 58.5471 20.8649C58.7066 20.7324 58.9001 20.7574 59.0845 20.7574C60.22 20.7602 61.3601 20.8176 62.4579 20.424C62.5519 20.3906 62.657 20.3786 62.7381 20.4684C62.7537 20.6176 62.61 20.6741 62.5574 20.7834Z" fill="#FDFDFC"/>
<path d="M62.4883 10.7636C63.3639 10.7997 64.0967 11.0628 64.7575 11.5306C64.9151 11.6418 65.0902 11.8001 64.987 11.9919C64.8921 12.166 64.6958 12.0586 64.5326 12.0012C63.9556 11.7983 63.3851 11.5843 62.7676 11.5047C62.3989 11.4574 62.0486 11.4565 61.7085 11.5723C61.5095 11.6408 61.3555 11.639 61.2827 11.4472C61.2164 11.2712 61.3021 11.1138 61.4735 11.0109C61.8081 10.8109 62.1897 10.8285 62.4874 10.7627L62.4883 10.7636Z" fill="#11051D"/>
<path d="M57.5315 14.089C57.5222 14.7606 57.2955 15.1311 56.936 15.2284C56.6752 15.2988 56.489 15.2172 56.3498 14.994C56.0614 14.5318 56.0853 13.7769 56.4042 13.3443C56.6383 13.0266 57.0365 13.034 57.2725 13.3721C57.4494 13.6268 57.5296 13.9186 57.5315 14.089Z" fill="#11051D"/>
<path d="M63.1694 14.3243C63.2183 14.5411 63.1399 14.7226 63.0745 14.8912C62.9593 15.1867 62.7593 15.4044 62.4007 15.384C62.0486 15.3645 61.9325 15.1302 61.8449 14.8273C61.7472 14.4892 61.7749 14.1659 61.8956 13.8556C61.9943 13.6009 62.1344 13.361 62.4791 13.373C62.8007 13.3841 62.9759 13.574 63.0865 13.8417C63.1519 13.9992 63.2275 14.1622 63.1703 14.3234L63.1694 14.3243Z" fill="#11051D"/>
<path d="M57.2107 10.5672C57.3701 10.5469 57.6476 10.6191 57.902 10.7571C58.055 10.8405 58.2006 10.9665 58.1066 11.1749C58.0292 11.3481 57.8964 11.4407 57.69 11.3824C56.9738 11.1805 56.312 11.312 55.6733 11.6825C55.453 11.8103 55.3129 11.6973 55.3572 11.4296C55.3949 11.2036 55.5249 11.0452 55.7212 10.9257C56.1388 10.6719 56.5978 10.595 57.2098 10.5672H57.2107Z" fill="#11051D"/>
<path d="M56.6733 52.0645C56.4613 51.0993 56.2567 50.1331 56.0309 49.1707C55.9903 48.9994 55.9728 48.8326 55.9626 48.6613C56.2244 48.9716 56.3028 49.3865 56.3405 49.7395C56.417 50.4638 56.7037 51.1335 56.782 51.8505C56.7949 51.97 56.818 52.0478 56.6733 52.0645Z" fill="#E56990"/>
<path d="M53.6318 52.585C53.6262 51.9486 53.6216 51.3132 53.6161 50.6768C53.6179 50.6453 53.6198 50.6138 53.6216 50.5833C53.9193 50.6805 53.9451 51.0047 53.9304 51.1853C53.8908 51.6568 53.9728 52.1737 53.6318 52.585Z" fill="#E56990"/>
<path d="M55.7949 49.6181C56.0558 50.462 56.3166 51.3068 56.5774 52.1506C56.5922 52.2182 56.641 52.3229 56.6152 52.3461C56.5378 52.4192 56.4779 52.3312 56.4687 52.2683C56.4134 51.8848 56.1203 51.58 56.1369 51.1697C56.1535 50.7676 55.771 50.4675 55.8281 50.0424C55.8465 49.9043 55.8078 49.7589 55.7949 49.6172V49.6181Z" fill="#E56990"/>
<path d="M55.3525 47.7914C55.4161 48.3268 55.6862 48.814 55.712 49.3587C55.4014 48.8807 55.3101 48.3518 55.3525 47.7914Z" fill="#E56990"/>
<path d="M57.5084 50.9908C57.6531 51.2585 57.6061 51.5364 57.5702 51.8162C57.5112 51.5438 57.5702 51.2632 57.5084 50.9908Z" fill="#E56990"/>
</g>
<defs>
<clipPath id="clip0_153_9344">
<rect width="89" height="83" fill="white"/>
</clipPath>
</defs>
</svg>
