<svg width="211" height="223" viewBox="0 0 211 223" fill="none" xmlns="http://www.w3.org/2000/svg">
<g clip-path="url(#clip0_127_481)">
<path d="M0 198.837C1.05108 198.82 2.10427 198.803 3.15535 198.789C3.07498 199.597 3.92515 204.902 4.2889 205.753C4.69072 206.693 4.54057 207.703 4.66534 208.676C5.18137 212.734 5.90887 216.761 6.56024 220.797C6.77807 222.154 6.86901 222.218 8.27538 222.22C15.9903 222.224 23.7032 222.222 31.4181 222.222C33.7085 222.222 35.9967 222.22 38.2871 222.224C38.7439 222.224 39.205 222.192 39.6512 222.33C39.8986 222.453 40.1503 222.575 39.943 222.923C34.2372 222.94 28.5335 222.965 22.8276 222.973C17.6484 222.982 12.4691 222.956 7.29198 222.988C6.52429 222.992 6.21341 222.834 6.08652 221.998C5.45629 217.834 4.65054 213.697 4.12394 209.519C3.99705 208.507 3.85324 207.491 3.81729 206.475C3.79403 205.836 3.61004 205.611 2.95655 205.641C1.97315 205.685 0.985517 205.63 0 205.617C0 203.359 0 201.102 0 198.844L0 198.837Z" fill="#FBCDFF"/>
<path d="M121.377 106.031C118.875 107.854 116.265 109.518 113.175 110.079C110.312 110.599 107.799 109.619 105.57 107.799C101.929 104.825 99.2259 101.061 96.5929 97.2336C96.3941 96.9457 96.1847 96.6641 95.9796 96.3805C95.876 96.2937 95.7449 96.2535 95.6285 96.1879C95.5101 96.1095 95.4107 96.0122 95.3198 95.9021C93.7654 93.6921 92.4457 91.3318 90.9209 89.1028C90.1765 87.7925 89.2925 86.569 88.5523 85.2565C87.9559 84.1875 87.3024 83.1503 86.7483 82.0601C85.6549 79.9031 85.7586 79.3929 87.5837 77.7185C87.664 77.655 87.7529 77.6021 87.8417 77.5555C90.5 76.4992 91.9974 74.2723 93.4376 71.9882C93.6131 71.694 93.8161 71.4167 93.9663 71.1076C94.7234 69.7592 95.3409 69.6533 96.2905 70.8853C98.6337 73.923 101.207 76.7596 103.699 79.6681C104.659 80.79 105.837 81.7108 106.702 82.9217C108.144 84.4415 109.658 85.8873 111.124 87.3818C111.39 87.6528 111.71 87.8835 111.868 88.2497C113.827 91.1456 114.112 94.4372 114.114 97.7988C114.174 97.93 114.326 97.7607 114.197 97.8178C113.954 94.5515 113.943 91.2302 111.961 88.3767C112.101 87.5025 112.945 87.1786 113.391 86.5436C116.037 83.4509 118.795 80.4555 121.474 77.3925C123.208 75.4111 125.048 73.5293 126.761 71.531C127.998 70.0852 129.508 68.9209 130.896 67.6318C134.766 64.6259 139.063 62.5196 143.851 61.4464C144.321 61.3405 144.799 61.1035 145.274 61.4337C145.423 61.874 145.11 62.164 144.915 62.4815C143.733 64.4226 143.91 65.6822 145.596 67.2232C147.104 68.6034 148.935 69.3718 150.911 69.5877C155.007 70.0365 158.896 69.357 162.365 66.9523C164.094 65.7541 165.49 64.2448 166.584 62.4519C166.821 62.0645 167.026 61.6475 167.421 61.3808C167.692 61.2495 167.969 61.2897 168.248 61.349C173.379 62.473 178.296 64.1263 182.608 67.2423C186.482 70.0428 188.984 73.8426 190.517 78.326C190.621 78.6308 190.691 78.9357 190.596 79.2574C192.408 84.649 193.956 90.1189 195.388 95.6227C196.373 99.4118 197.325 103.216 197.833 107.1C198.321 110.836 198.507 114.594 197.393 118.285C196.978 119.659 196.153 120.716 195.005 121.528C190.722 124.566 185.814 126.183 180.876 127.729C180.421 127.871 179.918 127.866 179.51 128.156C179.171 128.645 178.621 128.683 178.118 128.796C174.867 129.511 171.554 129.862 168.284 130.489C167.188 130.699 166.67 130.368 166.175 129.365C165.911 128.827 165.723 128.262 165.664 127.663C165.651 127.487 165.695 127.326 165.778 127.174C165.96 126.893 165.97 126.579 165.917 126.264C165.454 123.527 164.712 120.874 163.608 118.324C163.496 118.063 163.318 117.847 163.136 117.634C163.007 117.39 162.851 117.147 163.048 116.865C165.659 115.559 168.46 114.708 171.133 113.55C173.713 112.435 176.301 111.33 178.977 110.472C181.172 109.769 183.369 109.026 185.691 108.811C186.163 108.766 186.596 108.836 187.233 109.069C185.92 108.529 184.831 108.957 183.746 109.107C182.845 109.232 181.978 109.549 181.113 109.837C180.8 109.941 180.514 110.062 180.252 109.757C178.972 106.41 177.959 102.977 176.936 99.543C175.904 96.082 175.136 92.5554 174.21 89.0711C174.123 88.743 174.216 88.3916 174.034 88.0867C174.316 89.8755 174.944 91.5795 175.267 93.3577C175.269 93.7874 175.056 94.0033 174.626 94.0223C173.918 94.0562 173.535 93.635 173.283 93.1057C174.956 95.2565 175.206 97.8771 175.318 100.496C175.409 102.632 175.496 104.784 174.753 106.869C174.017 108.94 172.937 110.756 171.167 112.096C169.077 113.677 166.778 114.877 164.34 115.824C163.97 115.968 163.466 115.965 163.46 116.556C163.287 116.689 163.084 116.766 162.893 116.865C161.698 117.358 160.398 117.21 159.169 117.492C158.114 117.382 157.16 116.91 156.157 116.617C154.411 116.107 152.657 116.012 150.872 116.334C150.564 116.389 150.253 116.45 149.938 116.38C149.462 116.145 149.407 115.658 149.284 115.229C148.631 112.924 148.017 110.608 147.385 108.296C147.028 106.988 147.002 106.984 145.733 107.354C141.235 108.664 136.68 109.736 132.103 110.724C131.63 110.826 131.152 111.008 130.655 110.817C129.796 108.673 129.538 106.378 128.986 104.156C128.717 103.074 128.546 101.969 128.328 100.875C127.952 100.551 127.88 100.093 127.823 99.6446C127.508 97.1489 127.178 94.6532 127.601 92.1362C127.886 88.3852 129.181 84.8776 130.238 81.315C130.756 79.5665 131.38 77.8497 132.033 76.1436C130.707 79.685 129.506 83.2625 128.58 86.9331C128.442 87.4771 128.451 88.0571 128.17 88.563C127.584 88.6181 127.935 88.1206 127.827 87.983C127.624 89.6151 127.14 91.2514 126.706 92.8877C126.237 94.6532 125.793 96.4292 125.228 98.1692C124.623 100.043 123.794 101.827 123.105 103.662C122.732 104.655 122.18 105.411 121.368 106.029L121.377 106.031Z" fill="#FFC446"/>
<path d="M59.8902 198.624C57.4708 196.454 55.9502 193.776 55.3962 190.569C54.7659 186.926 55.5484 183.486 56.9675 180.146C57.9953 177.726 59.4926 175.571 60.7573 173.283C62.4026 170.302 62.9377 167.062 63.2169 163.74C63.5954 159.212 63.9169 154.678 65.8942 150.461C68.3284 145.269 72.3382 142 77.8896 140.741C82.371 139.725 86.8904 139.735 91.1962 141.505C94.7047 142.947 97.4371 145.349 98.7716 149.056C99.3066 150.544 99.0127 151.875 97.9045 153.016C97.4625 152.856 97.4413 152.862 97.2743 152.174C96.8471 150.402 96.0646 148.8 95.0283 147.312C94.931 147.172 94.857 147.007 94.6984 146.937C93.9794 152.693 90.9657 157.273 87.2626 161.505C87.03 161.77 86.7508 161.985 86.4632 162.193C85.962 162.555 85.5009 162.551 85.042 162.115C84.5831 161.678 84.1559 161.209 83.6801 160.787C82.2589 159.528 80.6876 159.676 79.609 161.232C78.3359 163.071 78.6404 165.008 79.5413 166.854C80.3661 168.541 81.7048 169.665 83.7139 169.534C84.6339 169.475 84.9046 169.94 84.9934 170.681C85.4206 174.214 85.7442 177.752 85.3064 181.31C85.2514 181.765 85.3 182.227 85.1922 182.677C84.1771 187.58 81.8254 191.748 78.2766 195.251C76.2062 197.294 73.7488 198.685 70.9635 199.513C67.8526 199.657 64.7416 199.576 61.6328 199.559C60.9815 199.555 60.3978 199.331 59.9685 198.804C59.941 198.744 59.9135 198.685 59.886 198.626L59.8902 198.624Z" fill="#11051D"/>
<path d="M145.232 61.4315C140.167 62.3143 135.633 64.4036 131.526 67.4666C131.331 67.6106 131.126 67.7376 130.925 67.8731C129.934 66.9882 129.885 65.7478 129.775 64.575C129.453 61.1246 130.225 57.8499 131.526 54.6746C132.689 51.8381 133.954 49.0417 134.944 46.1332C135.383 44.8419 135.474 43.5549 135.335 42.1832C135.128 40.1531 135.164 38.0998 135.341 36.0592C135.498 34.2662 135.553 32.5452 134.772 30.7904C133.649 28.2671 134.216 25.6465 135.039 23.1444C136.961 17.2998 141.182 13.6652 146.689 11.3684C151.471 9.37436 156.409 9.26429 161.415 10.3608C161.523 10.3777 161.633 10.401 161.739 10.4285C163.579 11.0318 165.38 11.7198 166.983 12.8375C167.1 12.9497 167.159 13.0958 167.227 13.2376C171.951 16.5779 174.466 21.3789 175.895 26.7917C177.215 31.7916 177.934 36.9123 178.492 42.0562C178.82 45.0684 179.328 48.0553 180.958 50.7288C182.111 52.6192 183.659 54.1391 185.224 55.6505C188.136 58.4637 190.864 61.4083 192.488 65.2037C193.785 68.2351 194.373 71.3277 193.491 74.5919C192.99 76.4441 191.882 77.9005 190.594 79.2511C189.528 76.2494 188.229 73.3895 186.142 70.915C183.642 67.9535 180.533 65.9065 177.023 64.3782C173.948 63.0382 170.754 62.1047 167.47 61.4569C166.121 61.4061 165.192 60.6568 164.431 59.6259C163.316 58.1187 162.948 56.3448 162.817 54.5518C162.637 52.0942 162.644 49.6238 163.128 47.1853C163.373 45.9554 163.49 45.8961 164.757 46.0062C166.482 46.1565 167.977 45.5151 169.17 44.3572C170.342 43.2204 171.135 41.8127 171.475 40.1574C171.742 38.864 171.463 37.6934 170.871 36.5926C169.932 34.8441 167.92 34.497 166.387 35.7734C165.791 36.2687 165.294 36.8699 164.721 37.3907C163.966 38.0786 163.431 38.0448 162.758 37.2615C162.295 36.7239 161.946 36.1057 161.722 35.4326C161.527 34.8483 161.174 34.4694 160.578 34.3022C160.239 34.2069 159.878 34.1138 159.605 33.9021C158.061 32.7019 156.115 32.5664 154.373 31.9017C153.171 31.4445 151.896 31.417 150.621 31.4889C150.238 31.5101 149.771 31.5905 149.644 31.0994C149.504 30.5596 149.906 30.2167 150.331 30.0474C151.697 29.5033 153.053 29.5647 153.897 29.9669C152.304 28.8916 150.769 26.9526 149.016 25.2443C148.515 24.4843 147.929 23.7837 147.413 23.0343C146.292 21.3683 145.292 19.641 144.797 17.6724C144.617 16.959 144.342 17.1537 143.963 17.5136C141.756 19.605 139.854 21.9251 138.541 24.6918C137.39 26.8912 137.118 29.3319 136.748 31.7154C136.322 34.4504 135.957 37.215 136.048 39.9986C136.151 43.2162 136.661 46.3618 138.033 49.3148C138.873 51.5438 140.112 53.5167 141.804 55.1975C142.938 56.3236 144.192 57.2572 145.795 57.6107C146.157 57.6911 146.48 57.8118 146.465 58.2753C146.387 58.7982 146.305 59.3189 146.167 59.8291C145.907 60.3922 145.92 61.1161 145.234 61.4294L145.232 61.4315Z" fill="#11051D"/>
<path d="M183.158 139.177C183.363 139.456 183.667 139.486 183.98 139.566C190.141 141.158 194.129 145.023 196.012 151.099C197.175 154.854 197.543 158.721 197.74 162.623C197.888 165.571 197.837 168.531 198.203 171.471C198.662 175.139 200.489 178.122 202.762 180.916C205.006 183.672 206.789 186.68 207.337 190.268C207.601 192 207.793 193.749 207.231 195.472C207.022 195.692 206.751 195.738 206.467 195.745C198.801 195.745 191.135 195.77 183.471 195.736C183.344 195.732 183.219 195.711 183.096 195.679C182.498 195.395 181.999 194.981 181.569 194.479C178.363 191.185 177.346 187.066 177.12 182.648C177.075 181.776 177.215 180.893 176.953 180.034C176.777 177.121 176.809 174.219 177.323 171.34C177.395 170.495 177.94 170.135 178.693 170.228C181.303 170.55 183.612 167.265 183.699 165.036C183.769 163.27 183.564 161.674 182.13 160.434C181.278 159.697 180.301 159.553 179.326 160.15C178.757 160.499 178.26 160.955 177.621 161.196C176.807 161.503 176.081 161.408 175.502 160.749C174.138 159.195 172.364 158.014 171.325 156.166C171.112 155.785 170.511 155.478 170.999 154.907C171.691 154.701 172.313 155.023 172.943 155.203C174.402 155.62 175.859 156.012 177.382 155.747C172.81 154.45 167.984 153.501 165.898 148.421C165.892 148.567 166.156 148.772 166.116 149.049C166.053 149.308 165.884 149.401 165.647 149.306C165.19 149.121 164.701 149.013 164.255 148.817C163.073 148.296 163.132 148.304 162.5 149.498C162.062 150.324 162.003 151.259 161.591 152.081C161.44 152.379 161.455 152.807 160.981 152.849C159.937 152.559 159.482 151.803 159.376 150.787C159.239 149.433 159.484 148.158 160.222 146.996C160.565 146.499 160.939 146.022 161.28 145.519C164.744 141.799 169.138 139.92 174.053 139.111C176.521 138.704 179 138.423 181.504 138.859C182.058 138.956 182.618 139.007 183.158 139.174V139.177Z" fill="#FFC880"/>
<path d="M182.941 195.421C183.011 195.425 183.076 195.446 183.137 195.48C183.37 195.599 183.62 195.558 183.863 195.558C191.216 195.558 198.567 195.558 205.921 195.558C206.13 195.558 206.344 195.577 206.547 195.501C206.775 195.491 207.003 195.478 207.23 195.467C208.907 196.02 210.55 196.615 210.998 198.634C210.698 204.318 209.81 209.94 209.211 215.592C208.993 217.652 208.695 219.705 208.488 221.767C208.412 222.516 208.097 222.768 207.344 222.766C194.782 222.749 182.217 222.753 169.655 222.757C169.095 222.757 168.589 222.713 168.388 222.074C168.268 221.731 168.306 221.379 168.367 221.032C168.964 217.709 169.486 214.373 170.127 211.056C170.535 209.095 170.871 207.123 171.165 205.143C171.419 203.437 171.736 201.746 172.189 200.082C173.052 196.902 175.279 195.143 178.559 195.169C180.02 195.179 181.509 194.887 182.943 195.421H182.941Z" fill="#05C5C8"/>
<path d="M9.06641 195.577C9.12562 194.955 8.97335 194.309 9.26732 193.712C9.53167 194.062 9.38152 194.434 9.37094 194.805C9.41324 191.481 10.2232 188.312 11.2849 185.19C11.6084 184.235 12.1964 183.376 12.3085 182.347C14.3641 178.061 17.2318 174.515 21.5207 172.28C22.263 171.892 23.0075 171.494 23.8809 171.484C25.4945 170.99 27.1525 171.177 28.7746 171.299C31.3674 171.496 33.8714 172.18 36.3183 173.067C36.7539 173.224 37.16 173.408 37.4413 173.797C41.3981 175.575 44.4287 178.404 46.7783 182.015C49.4472 186.119 51.9322 190.33 54.083 194.731C54.7512 196.1 54.7364 196.107 53.3766 196.803C53.1292 196.93 52.8902 197.07 52.647 197.205C52.5201 197.478 52.2769 197.622 52.0252 197.747C48.6922 199.4 45.3909 201.117 42.0389 202.732C41.7851 202.855 41.5166 202.94 41.2416 203.003C40.0383 203.492 39.3129 202.955 38.6192 201.97C36.2316 198.583 34.2838 194.995 33.404 191.513C34.5883 195.497 36.1152 199.957 38.9174 203.861C39.1035 204.121 39.2769 204.447 39.6111 204.468C40.4464 204.521 40.696 205.122 40.9582 205.757C41.8338 207.878 43.0963 209.794 44.1982 211.794C44.8263 212.933 45.3888 213.996 44.9151 215.332C44.9341 215.459 45.1054 215.313 44.9659 215.294C44.9299 215.289 44.9299 215.262 44.9384 215.207C44.9701 215.037 44.968 214.841 45.2387 214.919C45.7843 215.996 45.5728 217.146 45.5728 218.276C43.7985 219.364 41.8613 219.61 39.8395 219.36C39.4229 219.309 39.0422 219.019 38.9153 218.623C38.8222 218.331 39.002 217.944 38.7334 217.719C38.0419 216.316 37.8727 214.79 37.6781 213.268C37.841 212.127 37.4539 211.051 37.2742 209.953C36.9485 207.957 36.3204 206.011 36.2823 203.966C36.2823 203.922 36.1004 203.93 35.9989 203.943C35.5231 203.482 35.5844 202.84 35.4385 202.273C35.079 200.874 34.8527 199.415 34.0469 198.19C32.9303 196.492 31.2321 195.808 29.2568 195.749C28.1656 195.715 27.0743 195.749 25.9788 195.749C21.2035 195.747 16.4303 195.749 11.6592 195.749C11.1686 195.749 10.6758 195.734 10.2 195.886C9.78545 195.925 9.35614 196.018 9.07487 195.575L9.06641 195.577Z" fill="#563F90"/>
<path d="M167.036 13.135C165.37 12.1126 163.604 11.2997 161.747 10.69C161.195 9.77133 161.51 8.75949 161.47 7.79209C161.411 6.39075 161.405 6.33359 160.06 6.33359C116.164 6.33359 72.2682 6.32724 28.3726 6.33571C28.3028 6.33571 28.2309 6.33783 28.1653 6.34206C27.3976 6.4098 27.571 7.02157 27.5668 7.47034C27.5372 10.5355 27.5562 13.6007 27.552 16.6659C27.552 17.0173 27.571 17.3708 27.5182 17.7222C27.4822 17.9656 27.4484 18.2577 27.1629 18.3106C26.9027 18.3593 26.6891 18.1667 26.5623 17.9508C26.1879 17.3115 25.5852 16.7611 26.2725 15.8848C26.6955 15.3471 26.3339 14.5892 26.2979 13.9309C26.2937 13.8611 26.2323 13.7637 26.1816 13.7679C24.6864 13.8632 24.7752 12.301 23.9843 11.6553C23.6818 11.4076 23.5507 11.6744 23.3604 11.7315C23.0791 11.8183 22.967 12.0109 23.1658 12.2946C23.4281 12.6693 23.7707 12.9847 23.997 13.3869C24.1175 13.6028 24.2486 13.8484 24.0752 14.0749C23.906 14.2971 23.5867 14.3373 23.4048 14.1892C22.7661 13.6663 22.4616 14.0008 22.1422 14.5596C22.009 14.7925 21.7362 14.9004 21.677 14.4474C21.6833 11.1875 21.7108 7.9318 21.6643 4.67611C21.6474 3.45682 21.806 2.31796 22.4108 1.25319C22.4573 0.855229 22.7936 0.740919 23.0728 0.569456C24.4538 -0.0782953 25.9363 -0.00208932 27.404 0.00849485C31.621 0.0423642 35.838 -0.0211408 40.0571 0.00849485C47.0149 0.0592989 53.9727 -0.00632298 60.9306 0.00637802C65.3569 0.0148454 69.7833 0.0931682 74.2076 0.0910514C77.9001 0.0889345 81.5926 0.160907 85.2851 0.103752C88.3368 0.057182 91.3885 0.0508315 94.4403 0.0275464C97.843 0.00214435 101.248 0.11222 104.653 0.105869C108.303 0.0995187 111.955 -0.0105567 115.603 0.0296632C131.63 0.20536 147.654 0.0402474 163.678 0.107986C164.731 0.11222 165.611 0.444563 166.193 1.37597C166.48 1.56648 166.893 1.64904 166.84 2.13168C167.314 3.56689 167.142 5.04868 167.13 6.51353C167.11 8.72138 167.273 10.9314 167.034 13.135H167.036Z" fill="#E56990"/>
<path d="M3.16784 200.444C3.11708 201.991 3.13611 203.579 3.59926 205.025C3.88688 205.922 4.26544 206.739 4.25698 207.72C4.24852 208.59 4.36695 209.468 4.50653 210.332C5.10503 214.062 5.76063 217.781 6.32741 221.515C6.45007 222.328 6.76307 222.559 7.54556 222.556C18.2868 222.531 29.0281 222.533 39.7694 222.529C40.0718 222.195 39.6256 221.854 39.5685 221.481C39.3761 220.209 39.0461 218.966 38.8791 217.739C38.418 216.259 38.1452 214.739 37.8766 213.215C38.0458 212.29 37.68 211.43 37.5087 210.558C37.0772 208.348 36.7727 206.109 36.1404 203.939C35.7872 202.593 35.4446 201.244 35.0808 199.9C34.4358 197.506 32.9385 196.041 30.4578 195.603C29.0535 195.355 27.6535 195.55 26.2513 195.51C24.2169 195.626 22.1803 195.537 20.1437 195.56C16.8086 195.599 13.4735 195.495 10.1384 195.616C9.78095 195.603 9.42354 195.59 9.06613 195.577C8.04889 195.582 7.02319 195.516 6.0123 195.607C4.05184 195.781 3.15092 196.831 3.15515 198.791L3.16784 200.448V200.444Z" fill="#05C5C8"/>
<path d="M127.608 135.783C126.77 133.423 126.233 131.903 125.387 129.875C123.484 125.315 121.665 120.722 119.821 116.137C119.599 115.584 119.425 115.011 119.243 114.443C118.757 112.94 118.886 112.638 120.474 112.659C121.91 112.678 123.179 112.058 124.567 111.907C126.038 111.747 127.474 111.323 128.984 111.33C129.545 111.332 130.164 111.192 130.664 110.819C132.8 110.318 134.936 109.812 137.072 109.312C140.195 108.582 143.312 107.824 146.366 106.831C146.99 106.628 147.265 106.628 147.466 107.418C148.221 110.385 149.097 113.324 149.926 116.272C150.456 116.914 150.198 117.375 149.564 117.701C148.536 118.23 147.47 118.677 146.377 119.06C144.294 119.791 142.168 120.394 140.121 121.226C139.666 121.41 139.205 121.59 138.81 121.886C138.512 122.111 138.135 122.341 138.442 122.818C138.579 122.962 138.719 123.103 138.772 123.302C138.274 123.932 138.419 124.596 139.205 125.294C139.328 125.449 139.421 125.622 139.518 125.792C139.829 126.351 140.297 126.736 140.849 127.039C141.2 127.231 141.625 127.354 141.754 127.813C141.701 128.891 142.505 129.251 143.285 129.587C145.561 130.565 147.931 131.202 150.395 131.463C151.167 131.543 151.924 131.687 152.685 131.823C153.965 132.051 154.111 131.962 154.574 130.862C154.766 130.845 154.898 130.948 155.014 131.084C155.928 133.118 156.391 135.286 156.892 137.441C157.076 138.23 156.604 138.675 155.913 138.969C152.732 140.324 149.429 141.272 146.041 141.939C141.369 142.86 136.651 143.179 131.897 143.038C131.406 143.023 130.909 143.057 130.452 142.815C130.348 142.762 130.255 142.695 130.171 142.614C129.484 141.569 129.168 140.358 128.705 139.213" fill="#FCEEF3"/>
<path d="M25.002 165.8C22.6355 164.756 20.3345 163.628 18.759 161.437C17.4901 159.672 16.8958 157.652 16.4919 155.563C16.3502 154.826 16.1133 154.324 15.3435 153.92C13.6474 153.031 13.1166 151.323 12.903 149.547C12.6915 147.783 13.2202 146.139 14.0958 144.648C14.819 143.416 14.8592 142.057 15.1172 140.734C16.0879 135.77 19.1375 132.311 23.3567 129.913C27.248 127.701 31.4205 127.077 35.6756 129.039C36.0584 129.215 36.2762 129.011 36.5321 128.927C38.7442 128.184 40.9881 128.033 43.251 128.575C45.0105 128.997 46.2139 130.089 46.7151 131.854C46.8145 132.208 46.88 132.479 47.2311 132.69C51.1415 135.046 51.3593 138.429 47.7979 141.211C47.3707 141.609 47.1888 141.206 46.99 140.944C46.842 140.747 46.787 140.497 46.7045 140.264C46.2139 138.884 46.1779 138.844 45.1205 139.786C42.7942 141.858 40.0237 142.142 37.1031 141.882C36.824 141.856 36.549 141.789 36.2678 141.77C35.481 141.714 35.5043 142.235 35.6058 142.747C35.8913 144.181 35.8088 145.626 35.7856 147.068C35.7496 149.327 34.8656 151.319 33.6686 153.173C33.1505 153.977 32.7064 153.996 31.9302 153.327C31.1583 152.665 30.5619 151.82 29.7371 151.198C28.2018 150.04 26.3851 150.457 25.5413 152.21C24.2026 154.985 25.8268 159.064 28.7157 160.182C28.9779 160.283 29.2486 160.364 29.5003 160.491C29.8217 160.652 29.9507 160.889 29.8894 161.263C29.6166 162.927 26.751 165.597 24.9999 165.798L25.002 165.8Z" fill="#11051D"/>
<path d="M25.0019 165.8C27.1802 164.724 28.8826 163.188 29.8068 160.804C26.5605 160.18 25.2493 157.902 24.8031 154.892C24.5239 152.999 25.5877 150.919 27.1104 150.349C28.1001 149.979 28.982 150.131 29.7476 150.825C30.6062 151.604 31.4204 152.43 32.2537 153.236C32.7274 153.694 33.0721 153.708 33.4676 153.078C35.3435 150.097 35.9525 146.875 35.4259 143.414C35.3308 142.794 35.2314 142.176 35.1066 141.382C39.2686 142.011 43.2445 141.962 46.2772 138.3C46.6071 139.179 46.8884 139.883 47.1379 140.601C47.2543 140.938 47.2881 141.319 47.7978 141.213C48.409 142.963 48.6987 144.795 49.0307 146.604C49.4495 148.884 50.1854 150.971 51.7589 152.709C51.7737 153.126 52.1057 153.385 52.2707 153.728C52.9601 155.167 52.6513 156.564 51.2196 157.212C50.1241 157.707 49.883 158.463 49.7815 159.502C49.5785 161.562 49.3162 163.62 48.4957 165.552C47.931 166.886 46.9751 167.9 45.8881 168.814L45.9156 168.795C43.7056 170.152 41.356 170.262 38.9599 169.454C38.1076 169.166 37.8517 169.456 37.8622 170.211C37.8771 171.153 37.3357 172.04 37.6021 173.001C37.5471 173.266 37.4943 173.531 37.4393 173.797C33.0848 172.055 28.576 171.213 23.8789 171.484C24.6043 169.659 24.7418 167.72 25.0019 165.802V165.8Z" fill="#924E34"/>
<path d="M71.2318 199.244C78.7987 196.365 82.9226 190.599 84.8492 182.984C84.8746 182.887 84.9486 182.8 84.9994 182.709C85.1326 182.226 85.323 181.788 85.9426 181.875C87.3511 182.072 88.7892 182.125 90.1173 182.724C94.4337 184.138 98.103 186.629 101.491 189.58C102.233 190.226 102.921 190.933 103.635 191.612C104.344 191.847 104.968 192.197 105.338 192.887C105.545 194.54 105.069 196.1 104.572 197.629C103.781 200.071 102.396 202.201 100.797 204.191C100.237 204.783 99.5664 205.23 98.8643 205.639C97.8978 206.2 97.0011 206.193 96.1531 205.418C93.8014 203.867 91.4454 202.322 89.2756 200.514C88.4868 199.858 87.7318 199.182 87.2052 198.003C88.491 200.598 90.2125 202.59 91.8832 204.623C93.0696 206.066 94.2518 207.51 95.618 208.791C95.8739 209.03 96.1404 209.269 96.2694 209.614C96.4153 211.587 96.0791 213.53 95.9395 215.484C95.857 216.636 95.802 217.789 95.6561 218.934C95.7195 219.98 95.3727 220.99 95.4087 222.036C95.4213 222.402 95.2395 222.7 94.9561 222.931C92.9005 222.931 90.8448 222.935 88.7892 222.935C88.1103 221.701 88.1928 220.287 87.8481 218.975C87.0487 214.794 86.1985 210.624 85.342 206.456C85.0438 205.008 84.6716 203.575 84.071 202.218C83.3118 200.507 81.9667 199.604 80.1057 199.57C77.6101 199.523 75.1146 199.565 72.6191 199.551C72.1412 199.549 71.623 199.652 71.2275 199.239L71.2318 199.244Z" fill="#E56990"/>
<path d="M91.114 88.9482C92.6029 91.281 94.0917 93.6137 95.5806 95.9465C95.2718 96.2809 94.8594 96.1793 94.4851 96.1793C69.917 96.1857 45.3467 96.1793 20.7786 96.1963C19.2221 96.1963 18.5686 95.6988 18.1731 94.1006C18.0377 93.7725 18.0229 93.3428 18.0039 92.0261C18.0039 91.2153 18.116 90.7327 18.6024 89.9241C19.3215 88.7704 20.4635 88.9525 21.5568 88.9884C21.6626 88.9038 21.7789 88.8318 21.9037 88.7746C22.9822 88.5397 24.0756 88.673 25.1605 88.6646C25.9494 88.6582 26.3385 88.3576 26.3174 87.5511C26.2772 85.9317 26.5267 84.3229 26.5246 82.7036C26.5183 75.4873 26.5204 68.2731 26.5225 61.0568C26.5225 60.6356 26.4929 60.208 26.5733 59.7931C26.6452 59.4184 26.6938 58.9823 27.269 59.0924C27.8506 60.1868 27.4953 61.3489 27.5122 62.4857C27.195 64.1305 27.434 65.7922 27.3663 67.4454C27.3621 70.1761 27.3642 72.9069 27.3663 75.6376C27.3769 79.9009 27.3261 84.1642 27.3959 88.4254C27.434 88.5481 27.4974 88.6582 27.5884 88.7492C27.9838 88.9757 28.4153 88.8953 28.8319 88.8953C49.4558 88.8953 70.0798 88.9038 90.7037 88.8953C90.8433 88.8953 90.9787 88.9122 91.114 88.9482Z" fill="#E56990"/>
<path d="M105.097 192.864C104.744 192.29 104.018 192.152 103.636 191.615C103.927 191.536 103.955 191.301 104.016 191.049C105.634 184.511 107.043 177.927 108.174 171.287C108.254 170.815 107.996 170.563 107.798 170.249C106.93 168.884 105.945 167.557 105.657 165.933C105.357 164.242 105.175 162.534 104.484 160.931C104.306 160.52 104.429 160.063 104.818 159.794C105.266 159.485 105.772 159.54 106.205 159.835C107.038 160.402 107.512 161.189 107.451 162.519C108.018 160.741 107.785 159.204 107.821 157.69C107.853 156.38 108.043 155.103 108.504 153.876C108.65 153.49 108.787 153.001 109.303 153.029C109.769 153.054 109.857 153.529 109.963 153.891C110.266 154.943 110.445 156.001 110.255 157.112C110.162 157.659 110.238 158.234 110.357 158.814C110.564 157.106 110.78 155.398 110.978 153.689C111.061 152.982 111.213 152.305 111.625 151.712C111.788 151.477 111.996 151.242 112.304 151.283C112.645 151.327 112.837 151.583 112.935 151.913C113.116 152.527 113.165 153.154 113.161 153.791C113.15 155.336 113.157 156.884 113.203 158.431C113.383 156.848 113.417 155.247 113.738 153.685C113.867 153.065 113.852 152.066 114.622 152.108C115.443 152.153 115.424 153.16 115.451 153.833C115.523 155.576 115.548 157.322 115.326 159.06C115.559 158.112 115.777 157.159 116.035 156.217C116.139 155.84 116.356 155.425 116.798 155.459C117.293 155.497 117.297 156.024 117.333 156.374C117.513 158.101 117.266 159.813 117.061 161.524C116.707 164.494 116.134 167.413 115.115 170.237C115.024 170.491 115.054 170.793 115.056 171.073C115.098 175.724 115.051 180.376 114.806 185.021C114.582 189.269 114.265 193.513 113.975 197.76C113.952 198.107 113.835 198.446 113.761 198.789C114.053 199.193 113.846 199.599 113.74 199.987C113.357 201.409 112.751 202.728 111.843 203.899C110.173 205.891 107.986 206.566 105.497 206.219C104.078 206.02 102.659 205.662 101.506 204.695C101.415 204.079 101.569 203.513 101.944 203.029C103.864 200.539 104.801 197.665 105.169 194.595C105.275 193.723 105.528 193.858 106.038 194.231C107.007 194.942 107.872 195.753 108.411 196.517C107.783 195.112 106.233 194.172 105.099 192.855L105.097 192.864Z" fill="#FFB387"/>
<path d="M90.1175 182.726C88.9142 182.79 87.7827 182.33 86.5963 182.237C85.9005 182.182 85.2068 181.831 85.1371 182.946C85.1096 182.936 85.0673 182.931 85.0588 182.912C85.0334 182.849 85.0186 182.779 84.9996 182.711C85.1371 180.639 85.3062 178.567 85.1942 176.492C85.0905 174.564 84.915 172.637 84.75 170.711C84.695 170.08 84.528 169.756 83.6715 169.837C81.324 170.055 79.2113 168.025 78.6614 165.224C78.3125 163.444 78.5197 161.791 79.8605 160.442C80.8101 159.487 82.0557 159.384 83.2147 160.087C84.012 160.569 84.6295 161.251 85.228 161.937C85.6256 162.394 85.8878 162.364 86.3023 161.994C88.3685 160.146 89.9377 157.902 91.323 155.54C92.6278 153.315 93.755 150.995 94.2034 148.408C94.3345 147.659 94.3049 146.913 94.2161 145.919C95.9164 147.724 96.83 149.678 97.4877 151.784C97.6167 152.197 97.5618 152.676 97.9044 153.018C98.2385 154.951 98.4013 156.913 98.9724 158.802C99.389 160.184 100.019 161.405 101.457 162.019C101.98 162.241 102.392 162.646 102.728 163.105C103.659 164.382 103.166 165.901 101.618 166.194C100.658 166.374 100.489 166.831 100.421 167.684C100.26 169.708 100.286 171.757 99.6597 173.727C98.4352 177.576 94.7152 179.504 90.9063 178.196C90.1746 177.944 90.0308 178.12 90.0604 178.825C90.1154 180.124 90.1048 181.426 90.1196 182.726H90.1175Z" fill="#FFB387"/>
<path d="M183.158 139.177C182.48 139.589 181.809 139.151 181.151 139.107C173.623 138.597 166.861 140.303 161.354 145.779C160.986 145.224 161.458 144.928 161.752 144.627C163.095 143.254 164.696 142.229 166.373 141.319C166.703 141.139 167.048 140.984 167.439 140.785C167.052 140.627 166.735 140.675 166.445 140.758C164.332 141.351 162.361 140.866 160.487 139.909C159.77 139.541 158.927 139.515 158.279 138.954C157.941 138.66 157.567 139.06 157.211 139.187C156.657 139.386 156.262 139.356 156.554 138.592C156.894 138.258 156.903 137.868 156.791 137.432C156.34 135.682 155.947 133.908 155.327 132.214C155.016 131.365 155.217 131.058 156.004 130.912C156.105 130.893 156.3 130.959 156.247 130.724C156.391 130.495 156.634 130.434 156.867 130.364C158.379 129.911 159.844 129.34 161.263 128.645C162.467 128.057 163.791 127.822 165.049 127.396C165.286 127.316 165.529 127.293 165.751 127.454C166.255 128.014 166.102 128.81 166.489 129.441C166.9 130.112 167.407 130.4 168.13 130.246C171.901 129.433 175.765 129.13 179.506 128.156C180.912 131.768 182.137 135.44 183.154 139.181L183.158 139.177Z" fill="#55408B"/>
<path d="M111.666 203.715C112.768 202.248 113.417 200.588 113.762 198.797C116.226 198.801 118.689 198.808 121.153 198.812C121.259 198.732 121.375 198.666 121.498 198.617C122.75 198.503 124 198.497 125.252 198.628C125.764 198.806 126.294 198.748 126.819 198.748C132.468 198.753 138.118 198.753 143.767 198.748C147.392 198.757 151.015 198.748 154.638 198.748C155.272 198.787 155.917 198.67 156.541 198.88C156.879 199.068 156.913 199.388 156.805 199.693C156.268 201.195 155.68 202.682 154.868 204.062C154.796 204.182 154.657 204.235 154.523 204.282C153.904 204.443 153.271 204.487 152.637 204.483C143.869 204.398 135.101 204.449 126.332 204.441C122.179 204.436 118.025 204.383 113.87 204.494C113.113 204.515 112.131 204.718 111.668 203.712L111.666 203.715Z" fill="#FBCDFF"/>
<path d="M53.0885 197.991C53.3296 198.475 53.6934 198.63 54.2538 198.619C56.1318 198.583 58.0119 198.617 59.8898 198.624L59.856 198.619C60.3636 199.297 59.7355 199.22 59.4225 199.195C58.511 199.119 57.6016 199.117 56.6922 199.14C55.8357 199.161 55.6284 199.458 56.1106 200.167C56.891 201.318 56.726 202.326 55.9224 203.342C55.5015 203.873 55.5142 204.51 55.4762 205.143C55.362 206.97 55.7955 208.772 55.7384 210.594C54.5499 212.264 53.2048 213.573 50.9758 213.877C48.7827 214.178 47.3467 213.219 46.0461 211.716C45.5427 211.134 45.2382 210.389 44.5805 209.936C43.8276 208.103 42.7913 206.411 41.8989 204.648C41.7868 204.428 41.6853 204.208 41.7741 203.954C42.1886 203.422 42.8611 203.338 43.4046 203.029C46.1857 201.449 48.9815 199.9 51.6631 198.149C52.1051 197.861 52.5598 197.559 53.0864 197.993L53.0885 197.991Z" fill="#924E34"/>
<path d="M163.266 222.94C159.233 222.94 155.197 222.94 151.164 222.937C151.095 222.851 151.055 222.751 151.044 222.641C151.044 222.531 151.061 222.423 151.093 222.319C152.296 218.579 153.609 214.877 154.865 211.155C154.978 210.825 155.073 210.48 155.367 210.247C157.405 211.481 159.546 212.516 161.724 213.471C162.693 213.897 163.71 214.193 164.719 214.506C165.243 214.669 165.833 214.764 166.14 215.325C166.258 216.386 165.691 217.279 165.408 218.238C165.012 219.578 164.408 220.844 163.902 222.146C163.773 222.478 163.602 222.777 163.266 222.942V222.94Z" fill="#FFCDBA"/>
<path d="M39.7213 219.072C40.5969 219.282 41.5316 219.244 42.422 219.057C43.4413 218.846 44.4438 218.549 45.4547 218.291C45.7359 218.079 46.0489 218.109 46.3577 218.189C49.1662 218.913 52.0509 219.286 54.853 220.037C55.4621 220.2 56.0606 220.389 56.6274 220.666C57.3274 221.075 57.3803 221.788 57.4797 222.478C57.4797 222.658 57.4183 222.817 57.2936 222.948C51.5095 222.937 45.7275 222.929 39.9434 222.918C39.8863 222.787 39.8292 222.656 39.7721 222.525C39.531 221.301 39.3301 220.067 39.0234 218.86" fill="#242970"/>
<path d="M163.266 222.94C164.348 220.478 165.317 217.974 166.036 215.378C166.051 214.337 166.322 213.38 166.956 212.54C167.846 212.478 168.379 211.911 168.853 211.227C169.299 210.582 169.642 209.843 170.344 209.305C170.756 209.957 170.171 210.529 170.388 211.079C169.769 214.693 169.149 218.308 168.532 221.921C168.724 222.315 168.646 222.65 168.312 222.929C166.63 222.931 164.949 222.935 163.268 222.938L163.266 222.94Z" fill="#FF8E00"/>
<path d="M127.889 91.8928C127.793 93.709 127.66 95.5125 127.878 97.3457C128.018 98.5248 128.235 99.6954 128.337 100.879C126.082 102.684 123.826 104.488 121.377 106.033C123.817 102.538 124.864 98.4846 125.985 94.4668C126.611 92.2209 127.174 89.9559 127.772 87.6633C128.062 87.9364 127.791 88.3449 128.089 88.5587C128.189 89.1747 127.986 89.7463 127.859 90.3369C127.751 90.8407 127.745 91.3784 127.886 91.897L127.889 91.8928Z" fill="#FF9000"/>
<path d="M53.0894 197.991C52.5966 197.944 52.1567 198.092 51.7549 198.37C49.0162 200.251 46.0681 201.78 43.2025 203.444C42.788 203.685 42.2867 203.774 41.8278 203.935C41.2759 203.765 41.0178 203.422 41.1701 202.834C44.5919 201.318 47.8911 199.559 51.2156 197.849C51.6809 197.61 52.1694 197.419 52.6474 197.205C52.7954 197.468 52.9434 197.73 53.0915 197.993L53.0894 197.991Z" fill="#924E34"/>
<path d="M151.197 222.558C151.203 222.624 151.19 222.685 151.165 222.745C150.767 222.967 150.336 222.851 149.924 222.853C132.079 222.859 114.236 222.859 96.3906 222.861C95.9718 222.861 95.5467 222.796 95.1322 222.927L95.0476 222.952L94.9609 222.935C95.1111 221.614 95.2612 220.291 95.4135 218.97C95.6779 218.975 95.7455 219.178 95.8196 219.373C95.9697 220.003 95.9105 220.639 95.8196 221.265C95.7244 221.919 96.0226 222.175 96.6338 222.192C96.9151 222.199 97.1963 222.207 97.4797 222.207C115.094 222.199 132.709 222.224 150.325 222.194C150.573 222.194 150.818 222.18 151.061 222.247C151.222 222.3 151.269 222.406 151.201 222.563L151.197 222.558Z" fill="#DEB6E2"/>
<path d="M95.1318 222.927C95.54 222.612 96.0158 222.766 96.4578 222.766C114.552 222.758 132.647 222.76 150.744 222.76C150.883 222.76 151.025 222.749 151.165 222.745C151.175 222.808 151.175 222.872 151.165 222.935C145.114 222.95 139.066 222.974 133.015 222.978C120.736 222.984 108.46 222.978 96.1829 222.976C95.8318 222.976 95.4829 222.944 95.1318 222.927Z" fill="#DEB6E2"/>
<path d="M127.345 136.717C127.419 136.429 127.506 136.143 127.607 135.783C128.005 136.736 128.377 137.629 128.749 138.524C129.259 139.856 129.769 141.187 130.278 142.519C129.644 142.621 129.551 142.093 129.375 141.704C128.762 140.36 128.227 138.982 127.736 137.585C127.225 139.629 126.89 141.702 126.508 143.766C126.455 144.047 126.493 144.441 126.025 144.456" fill="#55408B"/>
<path d="M161.538 10.6677C156.145 9.46959 150.836 9.66646 145.797 12.0542C140.233 14.6918 136.176 18.7329 134.848 24.9966C134.353 27.3314 134.296 29.624 135.508 31.8615C136.157 33.0596 135.838 34.5075 135.688 35.8136C135.449 37.8923 135.364 39.9965 135.633 42.0244C135.904 44.0735 135.369 45.8305 134.723 47.6488C133.48 51.1585 131.674 54.4502 130.705 58.0636C129.821 61.3553 129.574 64.6322 130.927 67.873C127.472 70.9784 124.431 74.4818 121.337 77.9344C118.735 80.8365 116.14 83.743 113.543 86.6472C113.106 86.897 112.79 87.2865 112.463 87.6485C112.027 88.129 111.687 88.0952 111.245 87.64C109.993 86.3509 108.713 85.0871 107.438 83.8213C107.165 83.5503 106.937 83.2243 106.571 83.0592C102.995 79.378 99.6531 75.4958 96.4385 71.4971C96.3285 71.3595 96.2249 71.2176 96.1107 71.0864C95.0448 69.865 94.9095 69.8756 94.1545 71.2494C92.8877 70.3265 92.1665 68.995 91.604 67.6063C90.61 65.1614 89.6583 62.708 88.2562 60.4514C86.3147 57.3227 83.5337 54.9773 80.9388 52.4625C79.395 50.9659 77.6312 49.7381 75.749 48.6861C75.0384 48.2902 74.3151 47.9388 73.5284 47.725C73.2958 47.6615 73.0251 47.5303 72.8538 47.7928C72.7057 48.0214 72.8284 48.2648 72.9532 48.485C73.1287 48.7919 73.3233 49.0883 73.5749 49.3338C74.9834 50.7076 76.2883 52.1873 77.8131 53.4447C78.6802 54.1581 79.4923 54.9455 80.0019 55.9807C79.9935 56.2813 79.8116 56.4464 79.5557 56.5565C78.9551 56.7576 78.2889 56.4908 77.7073 56.8189C77.6397 56.8846 77.572 56.9502 77.5085 57.0179C77.0813 57.4646 77.3415 58.0446 77.2167 58.5484C77.1554 58.6267 77.0813 58.6945 77.001 58.7537C76.0049 59.3591 75.2287 60.0619 75.7786 61.3934C75.8991 61.6834 75.7215 61.912 75.546 62.1534C74.6556 63.3769 74.7085 64.3252 75.7109 65.4408C76.0155 65.7795 76.32 66.1521 76.7387 66.3278C77.6841 66.7257 78.217 67.4666 78.5892 68.3684C79.7926 70.3307 81.5225 71.7701 83.3455 73.1037C84.7667 74.1431 86.2661 75.083 87.2157 76.6346C87.4314 76.9881 87.7676 77.2887 87.7232 77.7608C87.683 77.8518 87.6619 77.9598 87.6006 78.0296C86.4882 79.2785 86.3317 80.6587 87.1311 82.1701C87.6682 83.182 88.2266 84.1811 88.7764 85.1866C89.0408 86.1985 89.7958 86.9351 90.2653 87.8327C90.6481 88.5651 90.5761 88.7366 89.7408 88.8339C89.3918 88.8763 89.0365 88.8551 88.6855 88.8551C68.8123 88.8551 48.9412 88.8551 29.0681 88.8551C28.8566 88.8551 28.6451 88.8572 28.4336 88.853C27.2493 88.8212 27.152 88.7514 27.1795 87.5871C27.3698 79.5495 27.2197 71.5077 27.2937 63.47C27.3085 61.749 27.4587 60.0386 27.2239 58.3155C27.0864 57.3122 27.4227 56.2982 27.4185 55.2673C27.3889 48.1082 27.2387 40.9427 27.446 33.7899C27.6976 25.0812 27.5179 16.3768 27.6194 7.6724C27.6363 6.24354 27.759 6.14193 29.2076 6.21814C29.5946 6.23931 29.9817 6.22449 30.3708 6.22449C71.2444 6.22449 112.116 6.23084 152.989 6.20967C155.521 6.20967 158.054 6.30493 160.584 6.21602C161.394 6.1885 161.749 6.43617 161.664 7.29984C161.555 8.41541 161.781 9.54792 161.542 10.6635L161.538 10.6677Z" fill="#55408B"/>
<path d="M146.309 58.2902C146.294 58.1589 146.34 57.9684 146.165 57.9388C143.062 57.4138 141.216 55.2356 139.543 52.8605C138.841 51.8656 138.277 50.7775 137.894 49.609C137.756 48.5866 137.2 47.7102 136.908 46.7344C136.035 43.8004 135.868 40.803 135.973 37.7801C136.043 35.7819 136.35 33.8047 136.593 31.8213C136.659 31.2793 136.783 30.7861 137.272 30.4644C138.642 29.2133 140.182 29.5943 141.728 30.005C142.113 30.1066 142.415 30.5025 142.887 30.3501C142.447 29.3255 141.009 28.79 139.583 29.0419C138.892 29.1646 137.475 32.9538 136.739 32.8903C136.196 32.6892 137.124 28.9805 137.196 28.5402C137.435 27.069 137.955 25.6888 138.488 24.3086C139.918 21.2477 142.098 18.7879 144.735 16.4573C145.253 18.9001 147.933 23.3201 149.225 25.2887C148.836 25.4729 148.305 26.0148 148.02 25.5533C147.239 24.2959 145.425 20.1279 144.955 18.7181C144.841 18.373 144.754 18.0153 144.627 17.7422C145.818 21.9462 148.472 25.2527 151.342 27.8649C150.919 27.4225 150.139 26.6901 149.405 25.9132C149.168 25.6634 148.698 25.4432 149.102 24.9691C150.875 26.8107 152.63 28.6714 154.724 30.3628C153.372 30.1659 152.16 29.7362 150.896 30.1384C150.627 30.223 150.342 30.259 150.141 30.4601C149.955 30.6443 149.631 30.82 149.783 31.146C149.934 31.4656 150.223 31.2137 150.441 31.201C152.325 31.0994 154.072 31.7366 155.88 32.0647C157.856 32.4224 159.262 33.8704 161.161 34.1921C161.616 34.2683 161.77 34.5583 161.885 34.9521C162.13 35.7946 162.472 36.5947 163.073 37.2552C163.549 37.778 163.993 37.9283 164.509 37.2552C165.021 36.5863 165.609 35.9745 166.29 35.4643C168.047 34.1519 170.003 34.5414 171.112 36.4381C171.831 37.668 171.989 38.9719 171.721 40.3839C171.137 43.4554 168.76 45.8368 165.695 46.3195C165.488 46.3512 165.249 46.4422 165.076 46.3745C163.786 45.8665 163.445 46.4486 163.31 47.6615C162.963 50.75 162.79 53.8279 163.481 56.8825C163.982 59.0988 165.243 60.7224 167.474 61.4654C164.107 67.9853 157.83 70.5784 150.968 69.9137C148.756 69.6999 146.691 68.796 145.074 67.1406C143.614 65.6483 143.466 64.3612 144.517 62.5979C144.75 62.2063 144.995 61.8231 145.234 61.4379C145.467 60.8896 145.698 60.3414 145.93 59.7931C147.284 60.8325 148.779 60.4768 150.215 60.1254C152.829 59.4883 154.825 57.799 156.767 56.0463C158.26 54.6979 159.463 53.1018 160.121 52.1746C158.224 54.5582 155.115 56.6369 151.41 57.8393C150.401 58.1653 149.375 58.3791 148.307 58.36C147.717 58.3494 147.138 58.3156 146.577 58.6627C146.23 58.8786 146.178 58.5886 146.315 58.2965L146.309 58.2902Z" fill="#FFCDBA"/>
<path d="M165.755 127.449C162.72 128.095 160.024 129.691 157.071 130.572C156.786 130.656 156.426 130.576 156.206 130.864C155.758 131.075 155.308 131.283 154.796 131.08C154.724 131.029 154.652 130.978 154.58 130.929C154.392 131.05 154.182 131.067 153.971 131.044C151 130.703 148.003 130.483 145.122 129.606C144.378 129.38 143.414 129.35 143.156 128.317C143.82 128.112 144.484 128.317 145.12 128.419C147.815 128.84 150.416 128.425 153.004 127.748C153.131 127.663 152.863 127.517 152.956 127.625C152.981 127.655 152.973 127.684 152.922 127.703C150.534 128.542 148.062 128.751 145.573 128.484C144.363 128.355 143.132 128.285 141.94 127.979C141.823 127.934 141.722 127.868 141.635 127.78C140.842 127.159 139.643 127.022 139.336 125.828C140.303 125.603 141.273 125.815 142.234 125.847C145.368 125.951 148.47 125.944 150.367 124.977C147.984 126.241 144.334 125.843 140.728 125.809C140.169 125.805 139.609 125.711 139.114 125.404C138.852 125.239 138.549 125.112 138.334 124.899C137.589 124.153 137.714 123.639 138.695 123.285C140.11 122.995 141.544 123.233 142.974 123.101C145.607 122.858 148.176 122.456 150.558 121.234C150.644 121.19 150.748 121.122 150.79 121.173C146.848 122.993 142.659 123.44 138.346 123.036C137.276 122.538 138.021 122.068 138.435 121.751C139.247 121.126 140.25 120.853 141.201 120.506C143.832 119.547 146.55 118.838 149.103 117.657C149.739 117.363 150.187 117.058 149.927 116.277C152.087 115.618 154.237 115.709 156.375 116.376C157.336 116.675 158.289 116.994 159.245 117.303C160.527 117.549 161.84 117.36 163.12 117.614C163.672 117.729 163.46 118.243 163.577 118.563C164.469 120.984 165.061 123.484 165.177 126.063C165.207 126.711 165.789 126.808 165.913 127.276C165.861 127.335 165.81 127.394 165.757 127.456L165.755 127.449Z" fill="#FFCDBA"/>
<path d="M87.7233 77.765C86.4058 75.337 84.0646 74.014 81.9984 72.3777C80.6132 71.2811 79.247 70.1126 78.4201 68.4785C78.4624 68.4509 78.5047 68.4255 78.5449 68.3959C79.1328 68.4763 79.5621 68.2117 79.9047 67.7672C80.3869 67.1406 81.0531 66.7321 81.6918 66.3002C82.4404 65.7943 82.8232 65.8938 83.1553 66.7151C83.5148 67.6021 83.9758 68.4192 84.4728 69.1008C83.6396 67.89 82.8423 66.5437 82.8613 64.901C82.8655 64.4501 82.4003 64.5221 82.3072 64.2278C82.2818 62.4836 80.9812 61.6876 79.7588 60.8642C79.0884 60.4112 78.4011 59.9836 77.7688 59.4798C77.4515 59.2279 77.037 59.012 77.1322 58.4828C76.8784 57.8731 76.889 57.2994 77.3648 56.7914C78.2002 56.5459 78.9404 56.7067 79.6129 57.2719C79.909 57.5217 80.2918 57.6974 80.6703 57.7249C83.0389 57.8964 84.7139 59.3718 86.4523 60.7372C86.6405 60.8854 86.797 61.0949 87.1375 61.0971C87.0085 60.4768 86.5813 60.1339 86.1097 59.8439C84.6716 58.9633 83.2631 58.0298 81.7002 57.3757C80.9706 57.0687 80.3658 56.6136 79.9005 55.9743C78.0395 53.8554 75.8316 52.0878 73.9155 50.026C73.5095 49.5899 73.1161 49.1369 72.765 48.6543C72.5239 48.3241 72.2448 47.9367 72.598 47.5133C72.9236 47.1217 73.298 47.3546 73.6554 47.4858C75.7152 48.2457 77.57 49.3719 79.2809 50.733C81.9329 52.8414 84.3755 55.189 86.5876 57.7461C88.6729 60.1551 90.1469 62.9599 91.179 65.9742C91.8494 67.9281 92.8793 69.6533 94.1524 71.2557C93.9896 71.5203 93.8268 71.7849 93.6639 72.0517C92.1941 73.9272 90.4345 75.4958 88.5143 76.8929C88.2267 77.1024 88.0554 77.4115 87.92 77.7375C87.8544 77.7502 87.791 77.7608 87.7254 77.7692L87.7233 77.765Z" fill="#FFCDBA"/>
<path d="M161.538 10.6676C161.538 9.60922 161.49 8.54869 161.557 7.4945C161.61 6.6647 161.346 6.4128 160.498 6.41703C154.312 6.4509 148.126 6.43397 141.942 6.43397C104.63 6.43397 67.3157 6.42974 30.0035 6.45725C29.3606 6.45725 28.5887 5.93863 28.1086 6.48266C27.6413 7.01187 27.931 7.83955 27.9289 8.53175C27.9098 15.6909 28.0769 22.8564 27.8654 30.0091C27.6053 38.7855 27.9331 47.5641 27.6561 56.332C27.3663 65.4958 27.6159 74.6595 27.4721 83.8212C27.453 85.013 27.2838 86.1984 27.2606 87.3965C27.2437 88.3152 27.4742 88.5883 28.4301 88.5862C38.3318 88.5502 48.2314 88.5671 58.1331 88.5671C68.4577 88.5671 78.7803 88.5671 89.1049 88.5629C89.5131 88.5629 89.9213 88.5629 90.5282 88.5629C89.9509 87.6315 89.4602 86.8737 89.0098 86.0947C88.8575 85.8301 88.4366 85.5972 88.7793 85.1929C89.5575 86.4439 90.3379 87.6971 91.1161 88.9482C91.04 88.9693 90.9639 88.9926 90.8899 89.0138C90.7503 89.0286 90.6128 89.0222 90.4754 88.999C72.495 88.9693 54.5146 88.9947 36.5342 88.9863C33.7891 88.9863 31.044 88.9905 28.3011 88.982C27.8887 88.982 27.4467 89.0836 27.0935 88.7534C27.0977 84.3885 27.1041 80.0257 27.1083 75.6608C27.2669 72.9089 27.1316 70.1549 27.1781 67.403C27.2183 65.7815 27.0977 64.1579 27.2416 62.5385C27.2416 61.4081 27.2416 60.2756 27.2437 59.1453C27.0322 58.8891 26.9603 58.5843 26.9624 58.2647C26.9751 55.1212 26.844 51.9777 27.0322 48.8363C27.379 46.6898 27.14 44.5327 27.1633 42.3799C27.1422 36.1734 27.1527 29.9647 27.1548 23.7581C27.1548 23.3708 27.1654 22.9813 27.2394 22.6002C27.5757 20.7035 27.3304 18.7793 27.4869 16.8742C27.5249 16.4233 27.4932 15.9682 27.4911 15.5152C27.4911 12.8945 27.489 10.276 27.4932 7.6575C27.4932 7.10289 27.4636 6.54193 27.728 6.02542C61.4407 6.0233 95.1534 6.02119 128.864 6.01907C139.468 6.01907 150.072 6.02965 160.673 6.00002C161.53 5.9979 161.849 6.17783 161.784 7.08384C161.699 8.27773 161.754 9.48009 161.75 10.6782C161.68 10.6782 161.608 10.6782 161.538 10.6719V10.6676Z" fill="#55408B"/>
<path d="M163.439 116.486C163.297 116.395 163.155 116.304 162.91 116.147C164.124 115.622 165.302 115.155 166.442 114.606C168.464 113.633 170.464 112.597 172.04 110.955C173.986 108.925 174.958 106.45 175.073 103.652C175.185 100.877 175.058 98.1247 174.263 95.4257C173.922 94.2721 173.165 93.3724 172.528 92.2632C173.171 92.4812 173.296 93.0104 173.628 93.3385C174.079 93.7852 174.557 94.2826 175.087 93.4126C175.815 94.0646 175.743 95.0341 175.99 95.8555C176.976 99.1408 177.86 102.456 178.934 105.716C178.939 106.874 179.004 108.031 178.962 109.192C178.945 109.653 178.856 110.098 178.647 110.515C178.363 110.936 177.873 110.968 177.456 111.122C173.909 112.428 170.477 114.022 166.935 115.339C166.085 115.654 165.213 115.906 164.414 116.361C164.143 116.516 163.803 116.749 163.441 116.488L163.439 116.486Z" fill="#FF9000"/>
<path d="M165.911 127.269C165.15 127.303 164.911 127.03 164.896 126.188C164.85 123.664 164.181 121.238 163.424 118.844C163.308 118.478 163.126 118.137 163.192 117.735C163.164 117.644 163.196 117.578 163.283 117.542C163.623 117.576 163.739 117.856 163.843 118.108C164.96 120.834 165.85 123.624 166.224 126.56C166.264 126.878 166.406 127.204 165.911 127.269Z" fill="#FF8956"/>
<path d="M163.439 116.486C166.463 115.379 169.464 114.209 172.433 112.957C174.428 112.117 176.451 111.347 178.463 110.544C178.922 110.095 179.539 109.937 180.093 109.659C180.195 109.638 180.281 109.664 180.353 109.738C180.952 109.973 181.43 109.547 181.954 109.416C183.79 108.959 185.605 108.343 187.55 108.982C182.849 108.762 178.782 110.866 174.59 112.43C170.718 113.876 166.975 115.654 163.035 116.929C162.974 116.878 162.95 116.825 162.969 116.77C162.986 116.715 163.005 116.687 163.024 116.687C163.164 116.622 163.304 116.554 163.443 116.488L163.439 116.486Z" fill="#FF9000"/>
<path d="M180.352 109.735C180.299 109.744 180.246 109.748 180.193 109.748C179.324 108.537 178.831 107.197 178.818 105.697C177.439 101.821 176.409 97.841 175.284 93.8888C175.238 93.7258 175.153 93.5713 175.086 93.4147C174.794 91.4375 174.032 89.5557 173.979 87.5193C174.364 89.0328 174.718 90.5548 175.136 92.0578C176.678 97.5764 178.114 103.125 180.077 108.518C180.216 108.901 180.436 109.293 180.352 109.738V109.735Z" fill="#FF9000"/>
<path d="M87.9208 77.7332C87.6353 77.2865 87.9081 77.0029 88.2295 76.7658C90.0102 75.4512 91.7592 74.1007 93.1106 72.3141C93.2459 72.1342 93.4426 72.0622 93.6626 72.0474C92.4761 74.1346 91.0444 76.0016 88.9824 77.3098C88.6504 77.5215 88.2951 77.6464 87.9208 77.7332Z" fill="#FFB79C"/>
<path d="M127.889 91.8927C127.409 90.7475 128.016 89.6679 128.092 88.5545C129.016 84.0605 130.545 79.7633 132.347 75.5508C131.757 77.2951 131.174 79.0414 130.575 80.7836C129.49 83.9377 128.612 87.1447 127.995 90.4237C127.904 90.9021 127.921 91.4037 127.889 91.8927Z" fill="#FF9000"/>
<path d="M111.996 88.1714C114.088 91.082 114.255 94.416 114.1 97.8241C113.861 94.4626 113.675 91.0862 111.626 88.1947C111.738 88.0041 111.863 88.0168 111.996 88.1714Z" fill="#FF9000"/>
<path d="M163.02 116.685C163.025 116.766 163.027 116.846 163.031 116.926C163.115 117.132 163.198 117.337 163.283 117.542C163.253 117.606 163.221 117.672 163.192 117.735C161.855 117.769 160.495 118.004 159.243 117.295C160.461 116.84 161.77 116.941 163.022 116.683L163.02 116.685Z" fill="#FF9000"/>
<path d="M111.996 88.1713C111.873 88.1798 111.749 88.1861 111.626 88.1946C109.94 86.4842 108.255 84.7738 106.569 83.0613C106.944 82.8496 107.035 83.2349 107.195 83.3936C108.447 84.6214 109.729 85.8259 110.905 87.1256C111.598 87.8919 112.104 88.057 112.77 87.1468C112.931 86.9288 113.062 86.4609 113.54 86.6493C113.087 87.2209 112.599 87.7522 111.996 88.1713Z" fill="#55408B"/>
<path d="M88.1337 218.979C87.6367 219.809 88.0935 220.664 88.2585 221.415C88.5102 222.563 88.0322 222.548 87.2074 222.548C80.3067 222.533 73.406 222.544 66.5052 222.544C63.4429 222.544 60.3785 222.537 57.3162 222.535C56.9842 222.038 57.3226 221.244 56.6057 220.916C56.3096 218.276 55.8739 215.658 55.4531 213.035C55.3262 212.247 55.1126 211.447 55.6074 210.698C55.2522 208.585 55.0999 206.454 55.2225 204.316C55.25 203.854 55.3389 203.369 55.8422 202.967C56.6226 202.343 56.5845 201.339 55.95 200.56C55.7661 200.336 55.6857 200.088 55.5863 199.826C55.305 199.087 55.47 198.772 56.2905 198.844C57.403 198.941 58.5323 198.685 59.6405 199.013C60.0169 199.123 59.8794 198.81 59.8583 198.624C60.884 199.364 62.0619 199.28 63.2357 199.271C65.9004 199.25 68.5672 199.254 71.234 199.25C74.1588 199.256 77.0837 199.263 80.0085 199.271C82.117 199.278 83.5805 200.289 84.4158 202.25C85.5282 204.862 85.873 207.667 86.4651 210.408C87.0784 213.253 87.5839 216.123 88.138 218.983L88.1337 218.979Z" fill="#05C5C8"/>
<path d="M146.309 58.2901C149.041 58.0614 151.754 57.8201 154.229 56.423C156.834 54.9518 159.179 53.1906 161.041 50.8049C160.556 52.02 159.831 53.0848 158.993 54.0437C156.525 56.876 153.823 59.3993 150.069 60.464C149.109 60.7371 148.125 60.5995 147.157 60.7519C146.641 60.8345 146.156 60.3455 145.926 59.7845C146.122 59.304 145.96 58.7304 146.309 58.2879V58.2901Z" fill="#FFB79C"/>
<path d="M126.025 144.452C126.374 142.716 126.715 140.978 127.074 139.244C127.229 138.495 127.417 137.75 127.62 136.882C128.299 137.913 128.453 139.083 128.986 140.074C129.422 140.885 129.443 141.92 130.278 142.517L130.255 142.5C130.86 143.082 131.653 142.923 132.353 142.94C139.493 143.126 146.467 142.157 153.254 139.888C154.4 139.505 155.43 138.783 156.682 138.709C156.485 139.382 156.904 139.202 157.135 138.977C157.778 138.349 158.215 138.505 158.913 139.02C159.486 139.441 160.324 139.642 161.03 139.845C161.555 139.996 162.007 140.514 162.244 140.472C163.113 140.317 163.83 140.842 164.664 140.785C165.742 140.711 166.802 140.167 168.071 140.574C167.571 141.116 166.99 141.253 166.501 141.524C164.812 142.464 163.192 143.499 161.832 144.892C161.591 145.14 161.284 145.358 161.356 145.777C161.07 146.183 160.787 146.59 160.502 146.998C158.968 148.717 159.063 151.302 160.749 152.769C161.022 153.006 161.206 153.256 161.144 153.567C160.838 155.099 161.077 156.657 160.889 158.194C160.616 160.421 159.852 162.409 158.287 164.051C158.247 164.149 158.207 164.246 158.146 164.333C156.881 166.117 156.881 166.172 158.558 167.642C158.873 167.919 159.015 168.236 159.061 168.636C159.37 171.219 159.848 173.761 160.99 176.13C161.578 177.745 164.592 178.988 166.482 178.59C167.201 178.44 167.933 178.363 168.644 178.164C169.367 177.961 169.82 178.253 169.957 178.964C170.13 179.858 170.052 180.857 170.528 181.634C171.624 183.423 170.458 183.052 169.581 183.3C169.316 183.374 169.048 183.482 168.862 183.713C168.76 183.859 168.644 183.998 168.485 184.077C164.494 186.045 162.244 189.608 160.062 193.249C159.247 194.606 158.691 196.098 157.776 197.396C157.695 197.51 157.581 197.599 157.488 197.707C157.114 198.619 156.435 198.863 155.47 198.858C145.755 198.829 136.037 198.871 126.321 198.81C124.682 198.799 123.027 198.869 121.39 198.626C121.574 198.012 121.559 197.381 121.58 196.748C121.736 191.869 122.024 186.998 122.398 182.131C122.587 179.682 122.669 177.224 122.857 174.775C123.094 171.7 123.382 168.626 123.663 165.554C123.946 162.447 124.198 159.335 124.553 156.236C124.957 152.722 125.461 149.221 125.915 145.713C125.97 145.296 125.992 144.875 126.027 144.456L126.025 144.452Z" fill="#55408B"/>
<path d="M160.711 176.077C159.512 173.751 159.096 171.221 158.793 168.662C158.753 168.33 158.821 167.984 158.402 167.779C156.332 166.752 156.714 165.258 157.968 164.157C158.045 164.089 158.1 163.998 158.165 163.918C160.515 161.772 160.809 158.903 160.9 155.986C160.933 154.894 161.001 153.808 161.096 152.722C161.551 151.412 161.972 150.089 162.475 148.797C162.803 147.955 163.323 147.955 164.144 148.465C164.681 148.8 165.37 148.889 165.992 149.087C166.667 149.278 166.673 149.989 167.003 150.44C168.128 151.981 169.255 153.497 170.865 154.576C171.011 154.674 171.129 154.811 171.068 155.017C171.715 156.575 172.728 157.9 174.062 158.867C174.627 159.276 175.027 159.799 175.391 160.277C176.226 161.369 177.142 161.374 178.402 160.457C179.24 159.847 180.028 159.181 181.164 159.557C182.712 160.072 183.647 161.302 183.886 162.754C184.279 165.148 183.888 167.455 181.934 169.231C181.035 170.048 180.062 170.565 178.81 170.482C178.303 170.448 177.696 170.336 177.596 171.126C177.205 172.896 176.829 174.672 176.475 176.45C176.249 177.584 175.928 178.698 175.763 179.845C175.693 180.334 175.655 180.808 175.737 181.295C174.147 181.973 172.58 182.73 170.808 182.823C170.194 181.765 170.245 180.535 169.934 179.396C169.56 178.029 169.647 178.018 168.344 178.344C166.362 178.842 164.402 179.007 162.537 177.9C161.769 177.445 161.126 176.875 160.707 176.075L160.711 176.077Z" fill="#FFCDBA"/>
<path d="M170.86 182.781C172.485 182.322 174.022 181.594 175.684 181.255C175.961 180.836 176.295 180.567 176.826 180.834C176.985 181.041 177.023 181.284 176.993 181.532C176.608 184.703 177.626 187.629 178.592 190.556C178.901 191.494 179.438 192.324 180.058 193.099C180.527 193.687 181.056 194.176 181.798 194.381C182.179 194.729 182.56 195.076 182.94 195.421C181.394 195.429 179.846 195.421 178.3 195.448C175.401 195.501 173.335 197.135 172.521 199.936C171.793 202.438 171.548 205.029 171.065 207.578C170.843 208.746 170.615 209.915 170.389 211.083C169.928 210.603 170.459 210.101 170.363 209.515C169.689 210.44 169.058 211.293 168.441 212.159C168.073 212.673 167.612 212.855 167.011 212.626C166.058 212.868 165.209 212.434 164.364 212.142C161.798 211.259 159.292 210.219 156.875 208.979C156.592 208.833 156.298 208.719 156.001 208.604C155.496 208.418 155.084 208.086 154.665 207.764C153.273 206.691 153.246 205.446 154.578 204.146C155.354 202.489 156.24 200.876 156.689 199.081C156.837 198.448 157.188 197.916 157.547 197.389C158.717 195.376 159.705 193.264 160.944 191.284C162.944 188.092 165.294 185.279 168.775 183.611C169.397 183.152 170.099 182.891 170.862 182.783L170.86 182.781Z" fill="#FFC446"/>
<path d="M171.068 155.019C168.788 153.546 167.242 151.444 165.992 149.087C165.857 148.618 165.722 148.148 165.59 147.676C165.584 147.654 165.629 147.621 165.711 147.513C167.841 153.277 173.028 154.32 178.074 155.603C177.427 156.111 176.112 156.281 174.932 155.995C173.642 155.684 172.356 155.347 171.068 155.021V155.019Z" fill="#FFB559"/>
<path d="M182.981 195.427C182.516 195.656 180.691 194.172 180.297 193.804C178.5 192.116 177.73 189.911 177.123 187.629C176.782 186.35 176.564 185.038 176.298 183.74C176.074 182.648 176.44 181.585 176.461 180.503C176.38 180.154 176.431 179.894 176.865 179.881C177.269 180.296 177.165 180.789 177.167 181.255C177.184 186.022 178.053 191.242 182.981 195.427Z" fill="#FF9000"/>
<path d="M177.18 180.203C177.044 180.41 176.909 180.618 176.776 180.825C176.414 180.969 176.05 181.111 175.687 181.255C175.226 181.359 175.154 181.107 175.285 180.582C175.934 177.98 176.319 175.315 177.112 172.747C177.279 172.21 176.896 171.5 177.599 171.128C177.125 174.138 177.148 177.169 177.18 180.203Z" fill="#FFB79C"/>
<path d="M55.6058 210.696C55.6862 213.613 56.3523 216.454 56.7626 219.328C56.8409 219.877 57.0735 220.427 56.6019 220.916C53.3598 219.701 49.8915 219.438 46.5733 218.539C46.2053 218.439 45.8268 218.374 45.4524 218.293C45.15 217.154 45.425 215.952 45.0823 214.817C44.9174 213.342 44.4881 211.902 44.4606 210.406C44.4564 210.194 44.469 209.985 44.6467 209.83C45.0697 209.792 45.2367 210.078 45.4355 210.389C46.0784 211.39 46.8102 212.311 47.8295 212.982C49.4791 214.07 52.3616 213.782 53.8145 212.398C54.4109 211.83 54.836 211.081 55.6037 210.696H55.6058Z" fill="#B478BA"/>
<path d="M44.6483 209.83C44.9106 211.483 45.0628 213.145 45.084 214.817C45.0523 215.054 45.0227 215.291 44.9909 215.529C45.1919 212.753 43.1954 210.903 42.0978 208.693C41.5522 207.595 41.0172 206.492 40.4821 205.387C40.3679 205.154 40.37 204.684 40.0126 204.798C39.1117 205.084 38.9277 204.354 38.5872 203.88C35.7533 199.932 34.2898 195.395 33.0209 190.776C32.9871 190.652 33.0167 190.508 33.133 190.34C33.5793 191.598 33.9642 192.883 34.4844 194.11C35.7787 197.169 37.479 199.995 39.4564 202.665C40.0274 203.437 40.6301 202.508 41.1673 202.834C41.3873 203.2 41.6072 203.568 41.825 203.935C42.5631 205.315 43.2948 206.699 44.0393 208.077C44.3396 208.63 44.623 209.184 44.6462 209.832L44.6483 209.83Z" fill="#2F2A75"/>
<path d="M26.2518 195.51C26.0826 195.55 25.9134 195.624 25.7443 195.624C20.5417 195.624 15.3392 195.62 10.1367 195.613C10.2996 195.563 10.4645 195.465 10.6274 195.467C15.8341 195.476 21.043 195.493 26.2497 195.51H26.2518Z" fill="#A34B6B"/>
<path d="M27.512 22.5918C27.5035 26.1396 27.4972 29.6874 27.4866 33.2331C27.4781 36.2899 27.4654 39.3466 27.4549 42.4054C27.2857 44.1497 27.4253 45.8982 27.3766 47.6445C27.366 48.0277 27.4295 48.4151 27.3195 48.7919C27.292 52.2423 27.2666 55.6949 27.2392 59.1453C26.5772 59.357 26.8691 59.9158 26.8669 60.3117C26.8479 67.9619 26.8627 75.6143 26.8394 83.2645C26.8352 84.9411 26.6872 86.6176 26.6491 88.2962C26.6364 88.8868 26.3551 88.999 25.856 88.9906C24.4835 88.9673 23.1089 88.9694 21.7363 88.963C21.749 81.9097 21.7723 74.8565 21.7744 67.8032C21.7807 52.8837 21.7744 37.9643 21.7786 23.0448C21.7786 22.7273 21.7934 22.4098 21.8019 22.0922C21.9203 20.8285 21.9711 19.5626 21.8019 18.2989C21.8019 18.1528 21.8019 18.0046 21.8019 17.8586C21.9351 17.0902 21.933 16.3196 21.8019 15.5512C21.8019 15.2633 21.8019 14.9754 21.8019 14.6876C21.8294 14.6643 21.8738 14.6452 21.8801 14.6177C22.1572 13.4534 22.6415 12.9454 23.6545 14.0398C23.682 14.0694 23.7856 14.025 23.9485 14.0038C23.8089 13.1867 23.1321 12.7528 22.6774 12.196C22.3306 11.7706 22.3644 11.5398 22.891 11.5419C23.4747 11.5419 23.7814 10.9683 24.4433 10.9556C24.0944 11.652 24.1388 12.1029 25.0291 12.3082C25.4754 12.412 25.3802 13.0597 25.1603 13.5593C26.6132 13.0512 26.6364 13.0555 26.6343 14.3975C26.6343 15.1363 27.1419 15.9746 26.1627 16.5842C26.057 16.6499 26.647 17.6659 27.1017 18.1952C27.3787 17.8734 27.2666 17.5474 27.2666 17.2616C27.2772 14.0525 27.2688 10.8434 27.2772 7.63427C27.2772 7.06484 27.1694 6.45095 27.7213 6.02759C27.6981 9.20496 27.6727 12.3802 27.6494 15.5576C27.5077 17.5199 27.6304 19.4843 27.5839 21.4466C27.5754 21.8298 27.6537 22.2193 27.5077 22.5939L27.512 22.5918Z" fill="#E56990"/>
<path d="M141.631 127.775C141.694 127.773 141.753 127.756 141.808 127.727C142.254 127.928 142.779 127.968 143.124 128.374C145.188 129.727 147.586 129.881 149.919 130.267C151.467 130.523 153.051 130.529 154.578 130.931C154.872 132.011 154.409 132.32 153.385 132.172C149.72 131.638 146.019 131.279 142.627 129.594C142.09 129.327 141.768 128.91 141.43 128.455C141.151 128.08 141.47 127.972 141.631 127.777V127.775Z" fill="#E4D8E2"/>
<path d="M139.11 125.4C143.471 125.953 147.779 125.921 151.941 124.194C150.338 125.379 148.519 125.887 146.586 126.039C144.161 126.23 141.745 126.046 139.33 125.826C139.256 125.684 139.182 125.542 139.11 125.402V125.4Z" fill="#FFB79C"/>
<path d="M138.342 123.029C140.283 123.072 142.218 123.042 144.156 122.799C146.564 122.498 148.88 121.912 151.099 120.91C150.012 121.825 148.703 122.231 147.379 122.619C144.528 123.453 141.603 123.256 138.691 123.279C138.575 123.194 138.458 123.112 138.34 123.029H138.342Z" fill="#FFB79C"/>
<path d="M46.3129 149.477C46.3171 150.629 45.8519 151.247 44.9848 151.24C44.2763 151.236 43.8026 150.559 43.8047 149.553C43.8068 148.537 44.3249 147.866 45.1244 147.841C45.8772 147.817 46.3087 148.412 46.3129 149.479V149.477Z" fill="#11051D"/>
<path d="M45.4377 144.229C45.8395 144.295 46.2836 144.382 46.7341 144.439C47.0238 144.475 47.3453 144.496 47.3284 144.869C47.3114 145.216 47.0471 145.447 46.7108 145.476C46.2583 145.516 45.7972 145.516 45.3446 145.483C44.2259 145.398 43.196 145.616 42.2591 146.257C42.0836 146.378 41.87 146.672 41.631 146.416C41.3709 146.139 41.6542 145.891 41.8086 145.698C42.7265 144.549 44.0525 144.382 45.4398 144.229H45.4377Z" fill="#11051D"/>
<path d="M43.1221 160.309C45.0001 161.391 46.9161 161.509 49.0077 161.329C47.4892 162.817 44.1245 162.233 43.1221 160.309Z" fill="#11051D"/>
<path d="M154.578 204.144C154.346 204.728 154.145 205.328 153.872 205.891C153.652 206.344 153.88 206.634 154.134 206.924C154.669 207.538 155.361 207.955 156.044 208.378C156.202 209.201 156.092 209.906 155.206 210.268C154.656 210.448 154.088 210.391 153.527 210.391C145.776 210.395 138.025 210.408 130.272 210.391C120.163 210.368 110.057 210.414 99.9476 210.397C99.1016 210.397 98.2557 210.317 97.4119 210.347C96.53 210.376 96.2381 209.925 96.1557 209.159C96.0838 208.494 96.2064 207.815 95.9844 207.165C95.9188 206.49 95.7137 205.8 96.2128 205.19C97.1369 206.064 98.078 205.95 99.0318 205.241C99.5627 204.847 100.104 204.464 100.639 204.076C101.104 203.888 101.32 204.189 101.515 204.527C103.596 205.615 105.721 206.409 108.145 205.848C109.57 205.518 110.737 204.841 111.662 203.719C112.296 204.235 113.127 204.275 113.817 204.231C116.302 204.074 118.784 204.155 121.267 204.134C124.556 204.104 127.844 204.051 131.131 204.055C136.122 204.062 141.113 204.11 146.102 204.134C148.925 204.146 151.749 204.144 154.572 204.148L154.578 204.144Z" fill="#DEB6E2"/>
<path d="M96.2258 207.108C96.6319 207.834 96.3443 208.619 96.4098 209.375C96.4437 209.771 96.4796 210.033 96.9893 210.033C102.259 210.025 107.53 210.065 112.8 210.033C115.327 210.018 117.859 209.995 120.384 209.961C122.405 209.934 124.453 210.033 126.487 210.04C136.152 210.069 145.815 210.057 155.48 210.059C155.526 210.141 155.513 210.215 155.452 210.285C154.107 214.22 152.762 218.158 151.413 222.091C151.358 222.254 151.271 222.404 151.197 222.561C151.193 222.487 151.191 222.41 151.186 222.336C150.977 222.099 150.962 221.816 151.051 221.54C151.924 218.839 152.737 216.119 153.815 213.488C153.458 214.263 152.753 214.379 152.007 214.385C150.14 214.407 148.274 214.383 146.407 214.385C134.253 214.405 122.101 214.381 109.947 214.4C107.418 214.405 104.888 214.474 102.357 214.599C100.878 214.671 99.3685 214.373 97.85 214.548C96.598 214.695 96.3696 214.822 96.3062 216.045C96.266 216.822 96.1032 217.582 96.063 218.359C96.0461 218.683 96.0757 219.1 95.5787 219.165C95.5216 219.102 95.4624 219.036 95.4053 218.973C95.5639 216.803 95.731 214.635 95.8748 212.465C95.9424 211.454 95.9636 210.44 96.0059 209.428C95.9149 208.64 95.6908 207.84 96.2195 207.11L96.2258 207.108Z" fill="#B478BA"/>
<path d="M96.2578 207.387C96.1373 208.156 96.4714 208.966 96.0442 209.705C94.3629 208.405 93.094 206.722 91.7553 205.103C90.0592 203.05 88.2701 201.062 87.1936 198.575C87.1175 198.399 86.9039 198.245 87.0498 197.984C89.2366 200.958 92.339 202.8 95.3104 204.798C95.6276 205.012 95.9343 205.243 96.2452 205.465C96.2494 206.106 96.2515 206.746 96.2557 207.387H96.2578Z" fill="#C2466E"/>
<path d="M101.517 204.523C101.225 204.373 100.933 204.222 100.642 204.072C101.633 202.559 102.767 201.136 103.535 199.474C104.505 197.372 105.189 195.213 105.098 192.864C106.743 193.757 108.149 195.355 108.98 197.41C108.483 196.78 107.91 196.225 107.331 195.681C106.728 195.116 106.079 194.597 105.358 193.979C105.123 196.325 104.837 198.501 103.801 200.488C103.478 201.109 103.156 201.737 102.761 202.311C102.276 203.014 101.798 203.71 101.517 204.523Z" fill="#FF9655"/>
<path d="M90.752 88.9526C85.7187 88.9653 80.6874 88.9864 75.6541 88.9864C59.4608 88.9864 43.2695 88.9758 27.0762 88.9695C27.0804 88.8975 27.0846 88.8234 27.0889 88.7515C38.8516 88.762 50.6144 88.7726 62.3771 88.7811C71.4985 88.7875 80.6198 88.7853 89.7432 88.7959C90.0816 88.7959 90.4517 88.6753 90.752 88.9526Z" fill="#E56990"/>
<path d="M96.8344 160.231C96.9232 160.819 96.6123 161.312 96.1217 161.488C95.6649 161.651 95.3244 161.183 95.0706 160.808C94.7766 160.372 94.563 159.907 94.5123 159.365C94.4636 158.844 94.6222 158.493 95.1192 158.287C95.6331 158.076 96.0244 158.256 96.3078 158.662C96.625 159.119 96.8978 159.612 96.8365 160.231H96.8344Z" fill="#11051D"/>
<path d="M92.076 157.267C91.7693 156.503 92.1352 156.13 92.427 155.76C93.2624 154.701 94.2923 153.996 95.7008 153.946C96.3205 153.922 96.5637 154.331 96.57 154.773C96.5764 155.199 96.1132 155.027 95.8256 155.046C94.2627 155.148 93.0678 155.921 92.0739 157.269L92.076 157.267Z" fill="#11051D"/>
<path d="M99.6045 170.199C98.6571 171.657 95.9162 171.213 94.9941 169.515C96.4069 170.345 97.9317 170.484 99.6045 170.199Z" fill="#11051D"/>
<path d="M157.547 197.385C157.34 197.989 157.128 198.59 156.688 199.077C156.052 199.051 155.417 199.026 154.781 199.002C151.105 198.856 147.43 198.981 143.754 198.939C137.943 198.939 132.131 198.939 126.319 198.937C125.934 198.937 125.545 198.998 125.165 198.873C123.902 198.848 122.642 198.823 121.379 198.797C121.375 198.738 121.377 198.679 121.385 198.621C132.497 198.626 143.608 198.626 154.72 198.647C155.866 198.649 156.997 198.772 157.374 197.311C157.376 197.303 157.441 197.298 157.471 197.311C157.501 197.324 157.522 197.36 157.545 197.385H157.547Z" fill="#55408B"/>
<path d="M143.809 199.011C143.79 198.964 143.771 198.916 143.752 198.869C147.267 198.861 150.78 198.848 154.294 198.848C154.455 198.848 154.618 198.95 154.779 199.005C151.122 199.005 147.466 199.009 143.809 199.011Z" fill="#381E5A"/>
<path d="M155.449 210.283C155.458 210.207 155.468 210.133 155.477 210.057C155.665 209.498 155.851 208.937 156.039 208.378C157.577 209.062 159.104 209.769 160.652 210.423C162.72 211.295 164.822 212.085 167.007 212.624C166.683 213.543 166.358 214.462 166.034 215.378C164.651 214.525 162.993 214.415 161.555 213.693C159.747 212.783 157.92 211.907 156.082 211.056C155.705 210.882 155.695 210.505 155.447 210.283H155.449Z" fill="#FFB79C"/>
<path d="M21.8057 18.301C22.1715 19.5648 22.0573 20.8306 21.8057 22.0944C21.8057 20.8306 21.8057 19.5648 21.8057 18.301Z" fill="#E56990"/>
<path d="M21.8057 15.5693C22.0996 16.3399 22.1017 17.1083 21.8057 17.8788C21.8057 17.1083 21.8057 16.3399 21.8057 15.5693Z" fill="#E56990"/>
<path d="M95.5829 219.108C95.8895 217.959 95.9953 216.778 95.9847 215.598C95.9762 214.595 96.5219 214.214 97.3868 214.144C98.3131 214.07 99.2521 213.966 100.174 214.038C104.321 214.369 108.464 213.901 112.612 213.998C116.837 214.098 121.065 214.021 125.292 214.019C132.578 214.019 139.863 214.019 147.149 214.019C148.657 214.019 150.167 213.979 151.675 214.034C152.682 214.07 153.534 213.907 154.16 212.984C153.278 215.643 152.394 218.3 151.518 220.958C151.377 221.388 151.148 221.801 151.186 222.277C150.806 222.514 150.383 222.493 149.96 222.493C132.134 222.489 114.308 222.487 96.4817 222.484C95.2656 222.484 95.1916 222.406 95.4729 221.212C95.6379 220.512 95.5279 219.809 95.585 219.108H95.5829Z" fill="#DEB6E2"/>
<path d="M78.4202 68.4806C77.9888 67.6529 77.4643 67.003 76.5803 66.5098C75.4933 65.9023 74.5564 64.9687 74.6579 63.4954C74.6727 63.2901 74.6749 63.053 74.7764 62.8921C75.2712 62.1089 75.6075 61.404 75.3728 60.3477C75.1803 59.484 76.1785 58.9887 76.9018 58.5526C77.2465 59.4184 78.1326 59.683 78.7819 60.1953C79.6892 60.9108 80.7423 61.4379 81.565 62.274C82.5505 63.2753 82.5315 63.9802 81.5016 64.9497C81.2711 65.0788 81.0236 65.155 80.7698 65.2206C80.5584 65.2736 80.368 65.2164 80.1883 65.1042C78.9024 64.3231 77.7562 63.3472 76.5359 62.473C77.7562 63.3769 78.9236 64.3527 80.2306 65.1381C80.8904 65.7795 80.5774 66.4061 80.2031 67.0305C79.9641 67.3671 79.6997 67.7693 79.2598 67.7185C78.6423 67.6487 78.6677 68.1461 78.4583 68.4467L78.4202 68.4785V68.4806Z" fill="#FFCDBA"/>
<path d="M79.457 56.4379C80.1803 56.5839 80.6583 57.183 81.2441 57.6064C80.7682 57.0729 79.7848 57.2529 79.457 56.4379C79.6727 56.3469 79.8673 56.2368 79.899 55.9722C81.9695 57.3481 84.2873 58.2943 86.3472 59.6957C86.8632 60.0471 87.2545 60.4366 87.4511 61.0335C87.5125 61.2177 87.7599 61.3743 87.5061 61.5627C87.2883 61.7236 87.1128 61.5458 86.9499 61.4167C85.8756 60.572 84.7907 59.7465 83.6487 58.9929" fill="#FFB79C"/>
<path d="M81.297 64.8544C82.3861 63.8426 82.4221 63.216 81.28 62.3015C80.0006 61.277 78.6598 60.3265 77.3126 59.3909C76.9742 59.1559 76.8537 58.923 76.9002 58.5526C76.9763 58.5293 77.0546 58.5081 77.1328 58.4849C77.8329 59.2893 78.6703 59.9158 79.5839 60.4535C80.3411 60.9002 81.0411 61.4273 81.6734 62.0517C82.2888 62.6593 82.6441 63.3324 82.458 64.2194C82.2317 64.7253 81.9864 65.1952 81.297 64.8565V64.8544Z" fill="#FFB79C"/>
<path d="M79.4565 56.438C80 57.0116 81.4381 57.3799 82.0429 58.0086C79.594 58.5506 79.0018 57.907 77.3691 56.8063C77.9486 56.0231 78.7438 56.4739 79.4544 56.4401L79.4565 56.438Z" fill="#FFCDBA"/>
<path d="M150.3 37.124C150.294 36.5926 150.304 36.0656 150.645 35.6147C150.987 35.1596 151.425 34.9352 152.009 35.0156C152.582 35.0939 152.872 35.5088 153.013 35.9766C153.185 36.5482 153.193 37.1748 152.998 37.7442C152.74 38.4936 152.235 39.0566 151.364 38.9063C150.38 38.737 150.287 37.939 150.302 37.124H150.3Z" fill="#11051D"/>
<path d="M139.138 35.9935C139.146 35.6824 139.159 35.3796 139.265 35.0706C139.476 34.444 139.861 33.9995 140.515 33.991C141.244 33.9804 141.612 34.516 141.786 35.168C141.856 35.4326 141.868 35.7183 141.866 35.9956C141.858 37.1408 141.244 37.9579 140.413 37.9516C139.635 37.9474 139.123 37.162 139.138 35.9956V35.9935Z" fill="#11051D"/>
<path d="M137.436 30.549C136.833 30.2759 136.848 30.1955 137.653 29.4778C139.214 28.6163 140.792 28.4025 142.435 29.2746C142.792 29.4651 143.08 29.7065 143.287 30.0282C143.457 30.2907 143.357 30.568 143.171 30.8093C142.915 31.1396 142.735 30.8136 142.553 30.7225C140.872 29.88 139.187 29.3106 137.438 30.549H137.436Z" fill="#11051D"/>
<path d="M151.425 48.7877C149.911 50.7437 146.696 51.1014 144.537 49.554C146.521 48.8427 148.608 48.7242 150.674 48.4935C150.949 48.4638 151.231 48.5485 151.425 48.7877Z" fill="#11051D"/>
<path d="M146.202 45.3605C145.077 45.6928 143.996 45.6441 142.972 45.0768C141.574 44.2999 141.149 43.0192 141.915 41.6179C143.051 39.5349 144.4 37.5536 144.732 35.115C144.916 36.7344 144.319 38.1463 143.626 39.5222C143.247 40.2737 142.805 40.9913 142.401 41.7301C141.784 42.8584 141.991 43.7199 143.023 44.4672C143.975 45.1551 145.06 45.3245 146.202 45.3626V45.3605Z" fill="#11051D"/>
<path d="M151.425 48.7876C149.574 48.7707 147.753 48.9951 145.973 49.5031C145.488 49.6407 145.025 49.7 144.539 49.5561C144.135 49.2089 143.543 49.0544 143.354 48.3876C146.546 48.7792 149.64 48.6712 152.772 47.4202C152.404 48.1484 151.833 48.3876 151.425 48.7898V48.7876Z" fill="#11051D"/>
<path d="M143.122 128.374C142.659 128.209 142.151 128.133 141.807 127.726C143.26 127.938 144.708 128.211 146.167 128.347C148.43 128.556 150.647 128.179 152.838 127.629C153.034 127.58 153.216 127.458 153.491 127.646C151.797 128.438 150.029 128.616 148.251 128.76C146.521 128.897 144.829 128.537 143.122 128.374Z" fill="#FFB79C"/>
<path d="M81.2969 64.8545C81.8721 64.9836 82.0794 64.4459 82.4579 64.2173C82.5637 64.5793 83.122 63.7579 83.0945 64.4607C83.0162 66.4082 83.7861 68.0467 85.1311 69.6639C84.2281 69.1157 83.7226 68.4362 83.2256 67.2486C82.68 65.9446 82.6419 65.9658 81.4936 66.7533C80.821 67.2147 80.2521 67.7609 79.7107 68.3494C79.3132 68.7812 78.9135 68.8574 78.4609 68.4467C78.427 67.9175 77.9639 67.0771 79.2053 67.5301C79.5754 67.6656 79.7784 67.2465 79.9497 66.9459C80.8464 66.5903 80.3283 65.6165 80.7703 65.0619C80.8908 64.8523 81.0875 64.8333 81.2969 64.8524V64.8545Z" fill="#FFB79C"/>
<path d="M27.5118 22.5918C27.5033 20.4792 27.4949 18.3645 27.4885 16.2519C27.4885 16.0084 27.4547 15.7544 27.6514 15.5554C27.6577 17.903 27.7614 20.2506 27.5118 22.5918Z" fill="#E56990"/>
<path d="M175.094 174.621C174.123 176.57 173.368 178.554 171.351 179.676C170.809 179.976 170.611 180.006 170.386 179.365C169.832 177.768 169.799 177.773 171.34 177.011C172.448 176.462 173.44 175.751 174.35 174.919C174.519 174.765 174.656 174.534 175.094 174.621Z" fill="#FFB79C"/>
<path d="M162.794 160.817C162.805 160.641 162.801 160.461 162.832 160.29C163.01 159.339 163.659 158.717 164.33 158.846C165.038 158.981 165.262 159.669 164.951 160.758C164.903 160.927 164.86 161.098 164.797 161.261C164.583 161.81 164.457 162.536 163.655 162.39C162.815 162.237 162.76 161.52 162.794 160.817Z" fill="#11051D"/>
<path d="M167.403 157.371C165.943 156.253 164.52 155.224 162.585 155.827C162.333 155.906 162.207 155.764 162.107 155.546C161.993 155.292 162.014 155.08 162.202 154.873C162.433 154.621 162.752 154.572 163.057 154.507C164.469 154.195 166.616 155.161 167.327 156.42C167.477 156.687 167.682 156.956 167.401 157.371H167.403Z" fill="#FFC880"/>
<path d="M160.074 170.995C162.022 171.263 163.02 170.995 165.203 169.663C164.526 171.266 163.24 171.693 161.847 171.896C161.172 171.994 160.483 171.913 160.072 170.995H160.074Z" fill="#11051D"/>
<path d="M25.5641 14.3521C24.6103 15.1989 26.0357 15.7365 25.6592 16.6129C25.0903 16.1557 24.3375 15.9779 24.5066 15.002C24.6082 14.4135 24.8767 14.2421 25.5641 14.3521Z" fill="#E56990"/>
<path d="M80.0826 65.1316C78.4964 64.3823 77.2762 63.1482 75.8613 62.1702C75.9205 62.0898 75.9819 62.0072 76.0411 61.9268C77.4221 62.9555 78.8031 63.9864 80.1841 65.0152C80.2094 65.1062 80.1777 65.1486 80.0804 65.1316H80.0826Z" fill="#FFB79C"/>
<path d="M80.7698 65.0639C80.7486 65.8027 81.0088 66.6642 79.9492 66.9479C80.368 66.37 80.7317 65.7879 80.0825 65.1316C80.1163 65.0935 80.1501 65.0554 80.184 65.0173C80.3785 65.0322 80.5752 65.0491 80.7698 65.0639Z" fill="#FFB79C"/>
</g>
<defs>
<clipPath id="clip0_127_481">
<rect width="211" height="223" fill="white"/>
</clipPath>
</defs>
</svg>
