<svg width="84" height="82" viewBox="0 0 84 82" fill="none" xmlns="http://www.w3.org/2000/svg">
<g clip-path="url(#clip0_153_9458)">
<path d="M7.47653 38.4759C6.74286 37.0542 6.18118 35.5547 5.53977 34.0913C4.87508 32.5746 4.24084 31.0442 3.59943 29.5175C3.19273 28.5504 3.26439 27.5444 3.44445 26.5537C4.23815 22.1945 5.2352 17.8833 6.48217 13.6328C6.50188 13.5639 6.53592 13.4987 6.54936 13.4299C6.63178 12.9781 6.7984 12.6367 7.35291 12.7607C7.39501 12.7698 7.45145 12.7146 7.50162 12.6892C7.71303 12.691 7.67899 12.8658 7.71303 12.9935C7.6987 13.2135 7.83307 13.3412 8.00238 13.4272C9.05317 13.956 10.1497 14.3128 11.3393 14.2974C11.4486 14.2956 11.5713 14.3173 11.6484 14.2014C11.7003 14.1082 11.7496 14.014 11.8625 13.9814C12.4358 14.2494 12.4223 14.2476 12.3211 14.8797C11.9897 16.9407 11.6627 19.0016 11.4334 21.078C11.2336 22.8836 10.9917 24.6847 10.7722 26.4876C10.7534 26.6434 10.7624 26.8028 10.7588 26.9603C10.9192 27.51 10.6576 27.9718 10.5375 28.4255C10.5922 28.3838 10.5994 28.2425 10.6361 28.1266C10.6746 28.0053 10.7346 27.8903 10.7516 27.7626C10.774 27.5951 10.8403 27.4638 11.0177 27.4203C11.7146 28.5441 12.5101 29.5927 13.3226 30.6322C13.5914 30.9763 13.8942 31.1103 14.2892 31.1212C14.6986 31.1321 15.1089 31.1312 15.5183 31.1357C15.6249 31.1185 15.6374 31.1891 15.6222 31.2643C15.383 32.4614 15.934 33.3877 16.6623 34.2245C17.4703 35.1535 18.4888 35.7711 19.6892 36.0328C20.3871 36.1849 21.0975 36.2157 21.7621 35.8481C22.4062 35.4913 22.6974 34.9163 22.7637 34.2009C22.7726 34.1013 22.8103 34.0053 22.8147 33.9048C22.8533 33.6567 22.7475 33.3624 23.0396 33.1976C24.0698 33.6648 25.1062 34.1176 26.1275 34.6039C27.2365 35.1318 28.2461 35.8109 29.0559 36.7599C29.2404 36.8125 29.3085 36.9782 29.399 37.1221C29.8621 37.8556 30.1461 38.6643 30.3772 39.4955C30.9389 41.5121 31.3653 43.5613 31.7774 45.6133C32.1563 47.5819 32.5164 49.5541 32.7897 51.5408C33.0584 53.2704 33.0074 54.9556 32.099 56.5176C31.4477 57.6495 30.7212 58.7244 29.7618 59.6227C29.4787 59.8871 29.1831 60.1289 28.8687 60.3525C28.685 60.4413 28.531 60.6323 28.2891 60.53C28.2264 60.4223 28.2515 60.3227 28.3151 60.2258C28.9251 59.3999 28.5874 58.2291 27.6101 57.7881C27.4076 57.7075 27.2356 57.5861 27.1093 57.4041C26.6345 56.907 25.891 56.7386 25.2549 56.9849C24.8491 57.0238 24.5419 57.3163 24.1611 57.4177C23.93 57.3679 23.8888 57.2058 23.9058 56.9967C23.9399 56.5756 24.0805 56.1953 24.343 55.8267C23.8163 56.2931 23.5108 56.8617 23.234 57.463C23.1086 57.7347 23.3701 57.7971 23.3854 57.9755C23.2116 58.2119 22.9393 58.287 22.6938 58.4066C21.6466 58.671 20.5779 58.8041 19.5083 58.9309C18.462 59.0558 17.4103 59.0413 16.3613 59.0151C14.945 58.9798 13.5376 58.8095 12.1321 58.6348C11.7809 58.5913 11.4146 58.517 11.0795 58.5333C10.1013 58.5804 9.20725 58.2417 8.28098 58.048C7.32514 57.8524 6.36572 57.8641 5.40361 57.9873C5.19757 58.0136 4.98885 58.1132 4.78639 57.9728C4.2283 57.0763 4.24084 56.159 4.50331 55.1439C5.46005 51.4494 6.14445 47.6942 6.83154 43.9408C6.8414 43.8864 6.87275 43.8357 6.89515 43.7832C7.09939 43.1258 7.1845 42.4439 7.2911 41.7684C7.39322 41.1255 7.41651 41.0893 8.03194 41.1671C8.87043 41.274 9.67756 41.1861 10.3593 40.7723C9.76714 40.9299 9.20009 40.7135 8.75397 40.2562C8.29173 39.7835 7.77036 39.3343 7.60822 38.6353C7.59299 38.5701 7.54909 38.5049 7.47564 38.4777L7.47653 38.4759Z" fill="#FFC446"/>
<path d="M80.0628 65.7739C80.6756 66.2095 81.3636 66.5246 81.9566 66.9955C82.89 67.7371 83.6676 68.5783 83.9283 69.8044C84.1657 70.9209 83.7859 71.8672 83.1427 72.7293C82.2889 73.873 81.1253 74.649 79.9195 75.3499C76.6184 77.2687 73.0083 78.3435 69.3372 79.2391C66.9884 79.8123 64.6118 80.2497 62.2217 80.5947C60.5179 80.841 58.8087 81.0701 57.0923 81.2331C54.9378 81.4386 52.7843 81.6496 50.6218 81.7565C49.3623 81.8181 48.1036 81.8715 46.8441 81.9249C44.9566 82.0046 43.0691 82.0137 41.1825 81.9856C39.3398 81.9584 37.4971 81.8941 35.6562 81.8162C34.2561 81.7574 32.855 81.6877 31.4602 81.5582C29.5046 81.3762 27.5482 81.2086 25.5953 80.9813C21.3097 80.4842 17.0653 79.7698 12.8971 78.636C9.56373 77.7287 6.31011 76.6022 3.33331 74.793C2.12664 74.0595 0.977308 73.2454 0.338589 71.8953C-0.245484 70.6611 -0.0699039 69.2629 0.855476 68.265C1.2577 67.8313 1.63394 67.3459 2.24131 67.1684C2.33716 67.1431 2.4142 67.1884 2.46616 67.2563C2.90869 67.8286 3.47306 68.2614 4.04549 68.6861C4.12611 68.7459 4.1933 68.821 4.20136 68.9315C3.87707 69.0266 3.59668 69.1461 3.50262 69.54C3.39781 69.9792 3.48739 70.355 3.70776 70.7308C4.14761 71.4833 4.83739 71.9225 5.57913 72.3037C5.77889 72.406 5.84698 72.3381 5.88191 72.1235C5.93925 71.7703 5.9276 71.4054 6.04406 71.0622C6.07093 70.9825 6.10049 70.8766 6.20083 70.8856C6.29668 70.8947 6.3128 70.9997 6.33072 71.0839C6.28234 71.8564 6.15514 72.6215 6.17664 73.4003C6.19366 74.0169 6.28145 74.6064 6.89956 74.8926C7.54366 75.1914 8.1994 75.1751 8.80049 74.745C9.47235 74.2641 10.0949 73.71 10.8564 73.3677C11.0221 73.2925 11.1807 73.1766 11.3796 73.2536C11.5265 73.4564 11.3249 73.5153 11.2237 73.5633C10.4318 73.94 9.75454 74.4887 9.0558 75.0076C8.77541 75.2159 8.44037 75.2774 8.11071 75.3463C9.06117 75.0782 10.0358 74.9007 10.9514 74.5014C12.1473 73.9798 13.4229 73.7435 14.6995 73.5343C15.1321 73.4637 15.5765 73.5814 16.0136 73.6212C16.4965 73.6656 16.9766 73.6828 17.4595 73.6819C18.865 73.6792 20.2705 73.8621 21.6743 73.7489C22.8075 73.6574 23.9461 73.758 25.0757 73.6085C25.6571 73.5913 26.2358 73.5995 26.8181 73.6584C29.2511 73.9028 31.694 73.8902 34.1333 73.8313C34.9602 73.8114 35.8103 73.7878 36.6022 73.4428C36.9157 73.3061 37.2105 73.1612 37.2714 72.7909C37.3305 72.4323 37.0967 72.2059 36.8432 72.0049C36.776 71.9514 36.7034 71.9043 36.6434 71.8446C36.4419 71.6454 36.2546 71.5485 36.0773 71.8754C36.0298 71.9632 35.9429 72.0239 35.83 72.013C35.718 71.8772 35.7834 71.7413 35.8408 71.6155C36.1651 70.9037 36.2018 70.1675 36.0387 69.4123C36.0119 69.2874 35.9841 69.1615 36.0423 69.0374C36.3057 68.9043 36.3433 69.1606 36.3648 69.2819C36.4481 69.7438 36.7366 69.8162 37.1361 69.8035C38.3105 69.7655 39.4823 69.9031 40.6558 69.8796C41.3617 69.8651 42.0667 69.8053 42.7717 69.7465C42.915 69.7211 43.0611 69.7193 43.2062 69.7202C43.4498 69.7202 43.6693 69.7827 43.8843 69.914C44.248 70.1368 44.6601 70.2418 45.0767 70.3224C45.3078 70.3314 45.5407 70.3097 45.77 70.3577C45.925 70.4066 46.0836 70.422 46.2457 70.4093C46.6569 70.4166 47.0681 70.3957 47.4783 70.4229C47.6029 70.4311 47.7543 70.4428 47.7811 70.6013C47.8053 70.7462 47.6629 70.7742 47.567 70.8295C47.0672 71.1147 47.0304 71.3945 47.4434 71.7948C47.7901 72.1307 48.2165 72.3218 48.6707 72.4549C49.7681 72.7755 50.8986 72.8696 52.0318 72.9031C52.6678 72.9222 53.3065 72.9376 53.9444 72.9231C54.3663 72.9131 54.4514 73.0616 54.2525 73.3994C54.0017 73.8232 54.102 74.179 54.5661 74.4C55.0812 74.6445 55.6294 74.7912 56.1893 74.8971C56.9283 75.0366 57.6745 75.1126 58.4217 75.1887C58.6797 75.2557 58.943 75.2367 59.2046 75.2331C59.4769 75.2394 59.7502 75.2285 60.0216 75.2675C60.2859 75.3598 60.56 75.3073 60.8296 75.3263C61.2077 75.33 61.5848 75.2992 61.9628 75.3236C62.1115 75.3236 62.2611 75.3128 62.4098 75.3254C62.5075 75.3254 62.6051 75.3254 62.7028 75.3254C65.8408 75.2457 68.9681 75.0221 72.0892 74.6798C74.1236 74.457 76.1418 74.1229 78.1736 73.8838C78.4181 73.8548 78.6761 73.8911 78.926 73.8005C78.7971 73.5361 78.3921 73.6384 78.3823 73.2934C78.5561 73.1413 78.7281 73.24 78.8992 73.3007C79.3265 73.451 79.7484 73.6258 80.2008 73.6819C81.0205 73.7833 81.3913 73.3586 81.1638 72.5609C80.8709 71.5367 80.208 70.7598 79.4537 70.0525C79.3399 69.9466 79.2073 69.8606 79.0989 69.7474C78.8669 69.5038 78.7764 69.1823 78.6501 68.8826C78.5498 68.6444 78.4351 68.4199 78.2694 68.2225C78.2381 68.0531 78.3456 67.9508 78.4566 67.8666C79.0972 67.384 79.52 66.7365 79.8487 66.0139C79.8944 65.9143 79.9222 65.7911 80.0628 65.7757V65.7739Z" fill="#FBCDFF"/>
<path d="M74.5536 33.7436C75.462 34.1447 76.3587 34.5613 77.1461 35.1915C78.2632 36.0862 78.9521 37.2679 79.4457 38.5881C80.1211 40.3938 80.4902 42.27 80.6685 44.1861C80.6962 44.4831 80.8405 44.8607 80.3935 45.0273C80.3522 45.0427 80.3567 45.1813 80.3406 45.2628C80.3953 45.4403 80.3979 45.6159 80.3433 45.7853C80.3003 45.7862 80.2788 45.7898 80.2779 45.7871C80.1193 45.2419 79.761 45.4022 79.3955 45.5163C77.6773 46.0524 75.9135 46.2679 74.12 46.2643C73.9364 46.2643 73.751 46.2788 73.5736 46.2118C73.5288 46.1918 73.4921 46.162 73.4616 46.1221C73.209 45.5018 73.2502 44.8308 73.1463 44.1843C73.0065 43.3168 72.9017 42.443 72.7835 41.5709C72.8247 41.8272 72.8686 42.0844 72.9026 42.3406C73.0692 43.6138 73.2063 44.8897 73.3568 46.1656C73.2663 48.1351 73.0746 50.0956 72.8793 52.0551C72.9071 52.229 72.8247 52.3621 72.7127 52.4771C71.3976 53.8263 70.1981 55.2861 68.8714 56.6244C68.7299 56.7675 68.5848 56.906 68.3716 56.9341C66.476 57.117 64.5858 57.088 62.7046 56.7747C61.7246 56.6108 60.7715 56.3428 59.8452 55.9752C59.3346 55.7298 59.3229 55.718 59.3865 55.1584C59.537 53.8327 59.7699 52.5151 59.761 51.175C59.812 50.9739 59.6678 50.7865 59.7162 50.5846C59.8219 49.7877 59.5487 49.0542 59.3211 48.3207C59.0067 47.3102 58.6116 46.325 58.4334 45.2736C58.1933 43.2344 58.5857 41.2794 59.2217 39.3578C58.8974 40.4282 58.6072 41.5048 58.4289 42.6114C58.3071 43.3666 58.3035 44.1191 58.3895 44.8761C58.4011 44.9766 58.4226 45.0744 58.376 45.1704C58.1584 45.3823 57.8968 45.3099 57.6513 45.2664C56.8522 45.1233 56.072 44.9114 55.3428 44.5393C55.1341 44.3572 54.8877 44.1997 54.9101 43.8655C55.0122 43.3195 55.0293 42.749 55.3643 42.2709C55.7477 40.8583 56.1526 39.4529 56.7116 38.0964C57.4318 36.3479 58.6448 35.1019 60.3477 34.3322C60.4481 34.2869 60.5412 34.2253 60.638 34.171C60.6783 34.0686 60.7652 34.017 60.8592 33.9817C61.6064 33.7019 62.3633 33.4592 63.1472 33.308C63.2036 33.2971 63.26 33.3089 63.3147 33.3261C63.475 33.4438 63.4123 33.6068 63.3998 33.7599C63.2717 34.0641 63.1785 34.3774 63.14 34.7089C62.9635 36.2175 64.1989 37.132 65.3231 37.3122C66.6498 37.5241 67.8233 37.1058 68.8965 36.3732C70.0692 35.5718 70.9533 34.5332 71.2678 33.0871C71.2982 32.9458 71.334 32.8054 71.4747 32.7285C71.9907 32.6678 72.4359 32.9395 72.9179 33.0382C73.3335 33.1731 73.7474 33.3134 74.1577 33.4647C74.3126 33.5217 74.4936 33.5489 74.5545 33.7445L74.5536 33.7436Z" fill="#E56990"/>
<path d="M59.8738 55.871C61.0894 56.2984 62.3229 56.6317 63.612 56.7675C64.8706 56.9006 66.1275 56.9395 67.3897 56.8734C67.7579 56.8544 68.1251 56.8417 68.4933 56.8254C68.5184 56.9006 68.5005 56.9749 68.4503 57.0256C67.9307 57.5526 67.4309 58.0923 66.6784 58.3096C65.7781 58.5695 64.8653 58.7904 63.9981 59.1563C62.3274 59.8608 61.0123 61.0162 59.9329 62.4605C59.5369 62.9903 59.5459 63.3452 59.8899 63.7265C59.9571 63.7736 60.0252 63.8206 60.0771 63.8867C60.2222 64.2562 60.5232 64.4349 60.9801 64.4228C61.0195 64.4337 61.0544 64.4527 61.0876 64.4771C61.3725 64.9516 61.5812 65.0123 62.0793 64.7651C62.1912 64.7099 62.2907 64.6266 62.4242 64.6229C62.5415 64.6374 62.6033 64.7253 62.6678 64.8095C62.8398 65.0775 63.0727 65.0187 63.3101 64.9308C63.9399 64.6972 64.4971 64.3214 65.0829 64.0036C65.5712 63.7391 66.0603 63.4874 66.587 63.3063C67.7596 62.9042 68.7943 62.2713 69.6668 61.3775C69.898 61.1403 70.1587 60.9447 70.4525 60.7962C72.2683 59.8825 74.0375 58.8846 75.7575 57.7989C75.9931 57.6504 76.2493 57.5825 76.5225 57.5662C77.2598 57.4276 77.9962 57.2855 78.7092 57.041C78.8705 56.9857 79.055 56.8635 79.2109 57.0672C79.5862 58.2055 79.9983 59.3329 80.2035 60.5218C80.3128 61.1521 80.4247 61.7814 80.4355 62.4234C80.4821 62.772 80.4713 63.1207 80.4417 63.4693C80.448 64.2589 80.2662 65.0168 80.0637 65.7721C79.7045 66.7527 79.0846 67.5378 78.281 68.1835C77.989 68.6145 77.49 68.7132 77.0717 68.9342C76.6229 69.1696 76.6363 69.1406 76.7985 69.6178C77.1568 70.6746 77.2338 71.7186 76.5342 72.6885C76.2018 73.0661 75.7333 73.0299 75.3078 73.0543C74.8608 73.0797 74.4478 73.1856 74.0295 73.3314C71.9046 74.0712 69.7242 74.562 67.4864 74.7884C67.387 74.7983 67.2911 74.8192 67.1953 74.8454C65.9268 74.9885 64.6476 75.0329 63.3809 74.9414C61.8123 74.8282 60.3163 74.4044 59.0227 73.4355C58.9833 73.4147 58.9457 73.3884 58.9108 73.3613C58.5354 72.9891 58.1493 72.626 57.8017 72.2248C57.5428 71.6833 57.1021 71.5873 56.5404 71.5883C54.3107 71.5937 52.185 71.121 50.2061 70.048C50.0063 69.9393 49.8119 69.8216 49.6265 69.6903C48.4646 68.8309 47.5106 67.8086 47.0842 66.3733C47.0474 66.2502 46.9883 66.1288 46.991 66.0012C46.9973 65.6779 46.8486 65.4352 46.6327 65.2215C46.4589 65.0005 46.2116 65.2007 46.0137 65.1128C45.9303 65.0757 45.8013 65.0902 45.8112 64.9516C45.8175 64.8729 45.9035 64.8575 45.9698 64.8348C46.243 64.7651 46.5762 64.9326 46.7903 64.7289C46.9937 64.5351 46.862 64.2091 46.9068 63.9438C47.3153 61.5052 48.7235 59.8073 50.7758 58.5822C51.264 58.2906 51.763 58.0189 52.3032 57.8378C52.4707 57.7817 52.64 57.6658 52.8273 57.7889C52.9571 58.0144 52.8676 58.2381 52.8066 58.4536C52.2297 60.491 52.4564 62.4723 53.2008 64.4183C53.345 64.7959 53.5582 65.1291 53.8368 65.4234C54.068 65.6679 54.3125 65.7793 54.6234 65.5792C54.7362 65.5402 54.8402 65.5611 54.936 65.6308C55.048 65.7213 55.1107 65.8526 55.1976 65.964C55.5317 66.3896 55.865 66.3552 56.1042 65.8717C56.1543 65.7702 56.1749 65.6543 56.2466 65.562C56.2959 65.5113 56.3532 65.4941 56.4222 65.5131C56.8154 65.6507 56.9713 65.5873 57.155 65.1934C57.3914 64.6872 57.4147 64.1367 57.4434 63.5943C57.4658 63.1659 57.4792 62.7331 57.404 62.3048C57.3861 62.2043 57.3923 62.1038 57.4452 62.0123C57.4918 61.9562 57.5527 61.9408 57.6217 61.9498C57.8241 62.0232 57.8358 62.2396 57.9415 62.3854C58.0669 62.5592 58.1923 62.7675 58.4494 62.686C58.7199 62.6009 58.8033 62.3682 58.7871 62.1047C58.7638 61.7117 58.6124 61.3504 58.4655 60.9945C58.1305 60.1822 57.7068 59.4207 57.0842 58.7913C56.9391 58.6447 56.8531 58.4907 56.9489 58.2951C57.1738 57.8342 57.3386 57.338 57.688 56.9459C58.3786 56.5067 59.0415 56.0087 59.8764 55.8701L59.8738 55.871Z" fill="#3C2774"/>
<path d="M31.6618 45.6177C31.2228 43.4924 30.7767 41.369 30.1926 39.2772C29.9409 38.3762 29.5405 37.5476 29.0576 36.7562C30.0887 34.8084 31.8194 33.7155 33.7392 32.8661C34.7416 32.4224 35.7619 32.0167 36.8235 31.7314C36.8862 31.7921 36.8683 31.8637 36.8405 31.9288C36.5189 32.6822 36.8002 33.3016 37.2812 33.8594C38.1887 34.9117 39.4052 35.2856 40.723 35.4142C41.0177 35.4432 41.3187 35.407 41.6152 35.4224C41.9968 35.4423 42.3426 35.3744 42.6212 35.0873C42.7224 35.1426 42.735 35.244 42.7484 35.3427C42.847 36.0725 43.1453 36.6738 43.81 37.0442C43.8977 37.0931 43.9658 37.1664 44.0008 37.266C44.0769 37.9769 44.0751 38.694 44.2606 39.3949C44.3582 39.7644 44.4648 40.1284 44.7264 40.3937C45.2003 40.8755 45.2531 41.4976 45.3087 42.0997C45.5156 44.3581 45.7387 46.6111 46.3442 48.8061C46.6891 50.0548 47.4201 51.0744 48.2075 52.0605C48.5551 52.4961 48.9116 52.9253 49.2449 53.3717C49.4957 53.7077 49.45 53.8209 49.0353 53.9187C47.326 54.3207 45.7046 55.0307 43.9802 55.3784C43.9354 55.4255 44.0169 55.4916 43.9873 55.4427C43.9775 55.4273 43.9837 55.4191 43.9927 55.4083C44.0527 55.3385 44.1405 55.325 44.2184 55.3105C45.9366 54.9872 47.5357 54.2374 49.2431 53.8743C49.5181 53.8154 50.1506 54.0328 50.284 54.2646C50.3942 54.4556 50.2357 54.4946 50.1147 54.5127C49.3479 54.6331 48.659 54.9845 47.9424 55.2534C47.9038 55.2679 47.8196 55.2453 47.8564 55.3394C47.8277 55.4092 47.7784 55.4617 47.7139 55.4934C46.1248 56.273 44.5768 57.1713 42.7466 57.2637C42.2808 57.2872 41.8141 57.3515 41.3599 57.1849C41.1986 57.117 41.0696 57.0029 40.9639 56.8671C40.2536 55.9552 39.3255 55.3313 38.3186 54.8097C36.7634 54.0047 35.2119 53.1879 33.6209 52.4635C32.889 52.1303 32.6445 51.6539 32.7358 50.9331C32.7995 50.4342 32.7797 49.9307 32.8514 49.4336C32.9258 49.1357 32.8872 48.8332 32.8738 48.5362C32.8451 47.8897 32.9634 47.2522 32.9643 46.6093C32.9643 46.0306 32.9491 46.0134 32.4017 45.9084C32.1365 45.8577 31.8705 45.8106 31.6618 45.6159V45.6177Z" fill="#55408B"/>
<path d="M42.6186 35.1064C42.5953 35.3454 42.4887 35.4677 42.228 35.4939C40.4005 35.675 38.6958 35.4396 37.3046 34.0786C37.0985 33.8776 36.9427 33.6403 36.8083 33.3868C36.5127 32.8317 36.4616 32.2793 36.8235 31.7315C37.1568 31.1782 37.2732 30.567 37.2902 29.9304C37.3467 29.9249 37.3735 29.9621 37.3959 30.0064C37.3377 29.1435 37.4488 28.2696 37.2463 27.4175C37.198 27.2147 37.241 26.8896 36.8629 26.9304C36.6649 27.0979 36.4634 27.0028 36.2681 26.9304C34.9342 26.4296 34.2086 24.6149 34.8187 23.3209C34.9566 23.0284 35.1859 22.822 35.4117 22.6083C35.9653 22.1655 36.7626 22.3076 37.2419 22.9325C37.327 23.0429 37.3637 23.1951 37.5554 23.2784C37.7372 22.8211 37.7623 22.3393 37.8331 21.8657C37.9558 21.0426 37.868 20.2059 38.0006 19.3837C38.023 19.2433 38.0096 19.0966 38.0902 18.969C38.3554 18.7046 38.7164 18.6457 39.0442 18.5171C40.5707 17.9158 42.1303 17.4205 43.7688 17.2729C45.1949 17.1443 46.613 17.1724 47.8869 17.9892C48.1905 18.442 48.2989 18.9409 48.2318 19.4815C48.6367 21.3903 48.8902 23.3173 48.8723 25.2723C48.8561 27.058 48.3545 28.7034 47.3879 30.202C47.3377 30.2799 47.1622 30.3641 47.3467 30.461C48.1341 30.8748 48.6205 31.5612 49.0228 32.3255C49.3076 32.8661 49.2691 33.4692 49.3202 34.0487C49.4124 35.0919 49.5074 36.1341 49.6185 37.1746C49.6857 37.8003 49.9678 38.3563 50.2205 38.9159C50.6514 39.8685 51.0661 40.8302 51.5785 41.743C52.2002 43.0442 52.907 44.302 53.5404 45.5978C53.7598 46.0469 53.9829 46.4943 54.0286 46.9135C54.0098 46.8447 53.9731 46.6899 53.9874 46.5269C54.1056 46.2525 54.3502 46.0922 54.5607 45.9111C54.8089 45.6983 54.9486 45.7997 55.0758 46.2407C54.971 47.168 54.7273 48.0681 54.5285 48.9772C54.4245 49.4517 54.3385 49.9335 54.1639 50.3908C53.7715 51.0545 53.4176 51.7418 52.8685 52.2996C52.3382 52.8384 51.7228 53.1309 50.9586 53.0494C49.5146 52.6537 48.5775 51.663 47.8922 50.3781C47.1442 48.9763 46.8853 47.4324 46.6211 45.8903C46.3084 44.0675 46.1767 42.2184 45.8435 40.3983C45.7942 40.1302 45.7521 39.8559 45.5192 39.6711C44.8993 39.1577 44.5258 38.513 44.4424 37.6944C44.4066 37.3412 44.4899 37.0098 44.558 36.6765C44.618 36.3832 44.5911 36.1387 44.3538 35.9413C44.6565 36.2962 44.6592 36.6005 44.3672 37.2724C44.257 37.343 44.1522 37.3122 44.0483 37.257C43.2671 36.8495 42.8129 36.2057 42.6974 35.3237C42.649 34.956 42.6992 34.6119 42.9903 34.3448C43.6729 34.0433 44.5696 34.0397 45.5201 34.3358C44.8465 34.1275 44.2588 34.0759 43.5242 34.1556C43.3899 34.1701 43.2313 34.2452 43.1498 34.065C43.0835 33.9201 43.1399 33.7789 43.225 33.6611C43.5009 33.2781 43.9327 33.2075 44.3466 33.1278C44.9208 33.0173 45.4986 33.1251 46.0074 33.1513C45.3006 33.097 44.5266 32.972 43.7652 33.2709C43.4866 33.3804 43.3746 33.2537 43.4302 32.944C43.466 32.7448 43.552 32.5627 43.6461 32.3844C43.6667 32.3427 43.6917 32.3038 43.7204 32.2675C44.4021 31.5214 45.2532 31.4245 46.1785 31.6147C46.5422 31.6898 46.9024 31.7849 47.2141 31.8501C46.1624 31.5793 45.0462 31.2506 43.9677 31.9415C43.6756 31.9117 43.3083 32.1064 43.156 31.6636C43.2241 30.8386 43.8888 30.1975 44.8554 30.0227C45.5998 29.8878 45.5882 29.8905 46.6273 30.1604C45.7915 29.8443 44.9307 29.8516 44.0967 30.2962C43.6855 30.5144 43.3585 30.8223 43.2098 31.2859C43.1677 31.6817 42.9375 31.8112 42.5675 31.7632C41.0643 31.5667 39.8075 30.8875 38.8086 29.8824C39.4913 30.9853 40.3656 32.0403 41.5678 32.7828C41.9324 33.0083 42.3185 33.183 42.7287 33.308C42.8855 33.356 43.0754 33.365 43.1345 33.5724C43.1059 33.8368 43.122 34.1112 42.9652 34.3466C42.7261 34.5422 42.7449 34.8583 42.6177 35.1055L42.6186 35.1064Z" fill="#924E34"/>
<path d="M4.18613 68.9024C3.44887 68.4252 2.80657 67.8393 2.23952 67.1674C1.61513 66.2963 1.10272 65.3663 0.870706 64.3087C0.500733 62.6208 0.974621 61.1529 2.06842 59.8644C2.80926 58.9914 3.72389 58.3711 4.78722 57.9691C5.86937 57.6848 6.96048 57.6974 8.05696 57.8622C8.13759 57.874 8.21373 57.9129 8.29256 57.9392C8.91157 58.1611 9.55477 58.296 10.1863 58.4735C10.2875 58.5676 10.4076 58.6229 10.5429 58.6482C11.006 58.8121 11.4423 59.0376 11.8821 59.2549C14.4549 60.5408 16.9775 61.9226 19.45 63.3941C20.4139 63.9682 21.3966 64.5242 22.2736 65.2378C22.3193 65.2749 22.3784 65.2794 22.4331 65.2921C22.6024 65.3428 22.7762 65.283 22.9473 65.3093C23.0243 65.3319 23.0924 65.3691 23.1506 65.4243C23.2724 65.6643 23.4632 65.7974 23.7329 65.8128C24.4979 66.0935 25.1205 66.5979 25.735 67.1149C25.89 67.833 25.7628 68.5375 25.5971 69.2293C25.3301 70.3404 24.9897 71.427 24.2919 72.357C24.1987 72.741 23.8798 72.951 23.6388 73.2209C23.345 73.4744 23.0046 73.4355 22.6722 73.354C22.3569 73.277 22.0514 73.162 21.7495 73.0398C20.4972 72.577 19.278 72.0247 17.9979 71.6389C15.6786 70.7814 13.3692 69.8994 11.0884 68.9414C10.3386 68.6262 9.57537 68.3673 8.79422 68.1517C8.36423 68.0331 7.95484 68.0277 7.56247 68.2667C7.03752 68.293 6.61111 68.0123 6.16768 67.7959C5.6069 67.5224 5.05418 67.2299 4.52744 66.8478C4.53819 67.3875 4.72541 67.8674 4.99237 68.3129C5.17601 68.6199 5.36144 68.926 5.55405 69.2275C5.606 69.3081 5.69558 69.3977 5.61496 69.4955C5.53792 69.5888 5.42953 69.5372 5.33815 69.501C4.95295 69.347 4.6206 69.0917 4.24525 68.9205C4.22644 68.9142 4.20763 68.9079 4.18882 68.9015L4.18613 68.9024Z" fill="#55408B"/>
<path d="M74.5536 33.7435C74.0036 33.5416 73.4535 33.3388 72.9044 33.1368C72.9537 32.781 73.1875 32.4939 73.2412 32.1299C73.3263 31.554 73.2753 31.017 72.9814 30.5171C72.839 30.2736 72.8632 30.0852 73.0271 29.8543C73.6461 28.9841 73.6327 27.8422 73.0119 26.9684C72.9116 26.8271 72.8112 26.6904 72.8175 26.5057C72.9725 25.927 73.192 25.3611 73.1454 24.7417C73.1113 24.2907 73.0182 23.8615 72.7602 23.483C72.3078 22.8202 71.678 22.7151 71.0303 23.1932C70.904 23.2865 70.8001 23.406 70.6846 23.512C70.2716 23.8896 69.8362 23.857 69.4689 23.4241C69.159 23.0583 69.0515 22.6128 68.9924 22.1537C68.961 21.9128 68.8571 21.767 68.6287 21.6792C67.7042 21.3242 67.1174 20.6288 66.7842 19.7133C66.6659 19.39 66.5316 19.2895 66.1678 19.3194C64.9907 19.4172 64.0716 18.9019 63.4204 17.9276C63.2448 17.665 63.1615 17.5744 62.8945 17.8117C62.5344 18.1322 62.0946 18.3179 61.6081 18.307C61.3439 18.3016 61.2256 18.4175 61.1369 18.6412C61.0357 18.8947 60.8942 19.1283 60.7204 19.3402C60.3558 19.7857 59.9097 20.0529 59.3139 19.9859C58.9234 20.5808 58.7711 21.269 58.5946 21.9391C58.4423 22.5177 58.3088 23.1072 58.2569 23.7094C58.2318 23.9964 58.1216 24.2536 57.9756 24.509C57.164 25.9306 57.078 27.3876 57.8878 28.8356C58.1118 29.2367 58.2264 29.6026 58.1073 30.0526C57.9881 30.4999 58.0078 30.9618 58.0625 31.419C58.0831 31.5884 58.1342 31.7613 57.9935 31.9071C57.4784 31.8727 57.0977 31.5829 56.751 31.2325C55.5381 30.0073 55.3293 28.5694 56.1436 27.0426C56.2019 26.9331 56.2726 26.8787 56.141 26.7339C54.9316 25.4163 54.9871 23.7375 56.2923 22.4109C56.5333 22.1655 56.5907 22.0197 56.3945 21.6982C55.4548 20.1579 56.0317 18.3215 57.6782 17.5844C57.9622 17.4576 57.8923 17.2657 57.8923 17.0683C57.8887 15.5533 58.8553 14.4105 60.3289 14.1932C60.7499 14.131 61.0918 13.9243 61.3546 13.5729C62.0981 12.5796 63.5001 12.2798 64.5984 12.8965C64.7704 12.9934 64.8367 13.0097 64.9943 12.8404C66.2807 11.4594 68.8401 11.8488 69.6839 13.5566C69.8228 13.8373 69.9437 13.8627 70.2169 13.7984C71.9351 13.3891 73.9373 14.8452 74.1182 16.6191C74.1227 16.6617 74.1281 16.7051 74.1263 16.7477C74.1138 17.234 74.2634 17.5228 74.8053 17.6641C75.8266 17.9312 76.5862 18.5769 76.7958 19.6726C76.9275 20.358 76.9499 21.0779 76.6677 21.7444C76.5549 22.0097 76.6158 22.1292 76.82 22.2832C78.0213 23.1951 78.2336 24.7616 77.9102 25.8338C77.7947 26.2159 77.5806 26.5256 77.2724 26.7719C78.3008 27.7272 78.2202 30.3596 76.9938 31.2017C76.6955 31.4064 76.2978 31.4634 76.0648 31.6898C75.8552 31.8944 75.995 32.3336 75.8221 32.6406C75.5274 33.164 75.0759 33.4909 74.5527 33.739L74.5536 33.7435Z" fill="#B85C34"/>
<path d="M60.9631 64.478C60.3029 64.6782 60.0745 64.5378 60.036 63.9094C60.1587 63.4729 60.4041 63.1071 60.7141 62.792C61.102 62.3962 61.4567 61.9607 61.9037 61.6302C62.3391 61.3087 62.7852 61.0008 63.1185 60.7889C62.3866 61.2435 61.5768 61.8339 60.8924 62.5909C60.6236 62.8879 60.3701 63.1886 60.1721 63.5372C60.104 63.6576 60.0718 63.8143 59.8971 63.8342C59.5038 63.6341 59.4098 63.3199 59.5997 62.8327C59.7914 62.3401 60.1587 61.9743 60.4964 61.5894C61.9055 59.9875 63.656 58.9652 65.7137 58.469C65.8919 58.4255 66.063 58.3431 66.2431 58.315C67.2195 58.1647 67.8735 57.5218 68.4943 56.8263C69.3731 56.034 70.1265 55.1212 70.9219 54.2483C71.5553 53.5538 72.1958 52.8665 72.8336 52.1756C72.9617 51.798 73.2663 51.5661 73.5673 51.366C74.3538 50.8426 75.1834 50.4116 75.9815 50.4406C75.5462 50.4179 74.9719 50.5854 74.4246 50.8716C74.0349 51.0753 73.8871 51.0101 73.8459 50.561C73.7913 49.9606 73.725 49.3621 73.6614 48.7626C73.5861 48.0491 73.5073 47.3355 73.4284 46.6229C73.4096 46.4535 73.3675 46.277 73.5243 46.1429C75.7334 46.1837 77.9031 45.9419 79.9957 45.1867C80.1874 45.117 80.26 45.145 80.2528 45.3524C80.2483 45.4656 80.2528 45.5788 80.3074 45.6956C80.3182 45.5525 80.3298 45.4086 80.3406 45.2655C80.4096 45.3497 80.4033 45.452 80.4051 45.5525C80.4391 47.3862 80.5251 49.219 80.5126 51.0545C80.5018 52.7651 80.1319 54.3153 78.8714 55.5468C78.4406 56.2685 77.7149 56.657 77.0888 57.1587C76.8818 57.3244 76.6077 57.4104 76.4841 57.6757C76.2297 57.7065 75.9959 57.7835 75.7719 57.922C74.1433 58.9299 72.4914 59.8979 70.7723 60.7418C70.3235 60.9619 69.9321 61.2489 69.5773 61.6139C68.8544 62.3591 67.9837 62.9196 67.0162 63.2583C66.0039 63.6124 65.0893 64.1412 64.1567 64.6465C63.8217 64.8276 63.4965 65.0331 63.1176 65.1201C62.8479 65.1816 62.6347 65.1463 62.5658 64.8276C62.5272 64.5614 62.7288 64.4482 62.8936 64.3205C63.6228 63.7572 64.43 63.3226 64.8582 63.0881C64.3332 63.386 63.4025 63.8406 62.6312 64.5505C62.5658 64.6103 62.4833 64.6329 62.4135 64.6809C62.1832 64.8375 61.9548 65.0014 61.6655 65.0205C61.3071 65.0449 61.0608 64.9299 61.0796 64.5088C61.2122 64.1638 61.4988 63.9284 61.7344 63.6767C62.4466 62.9151 63.2717 62.284 64.1612 61.7443C63.0343 62.4306 62.0238 63.2565 61.1862 64.2915C61.1244 64.3676 61.0742 64.4608 60.964 64.4799L60.9631 64.478Z" fill="#FFCDBA"/>
<path d="M22.932 33.9889C22.8048 34.4951 22.794 35.0312 22.4115 35.4595C21.9995 35.9213 21.5094 36.1785 20.9048 36.2274C19.5906 36.3333 18.4583 35.857 17.4308 35.0828C16.5368 34.4091 15.8523 33.5751 15.5379 32.4631C15.4107 32.014 15.4358 31.5775 15.5191 31.1329C15.8989 30.4284 15.9975 29.6451 16.1121 28.8718C16.1892 28.3502 16.2017 27.8196 16.2465 27.2935C16.2582 27.1531 16.3235 26.9838 16.0781 27.0073C15.3614 27.0761 14.8705 26.6659 14.4289 26.1878C13.5814 25.2696 13.2993 23.6071 13.7875 22.582C13.9004 22.3457 14.0356 22.1329 14.2533 21.9825C14.4423 21.6593 14.7603 21.6357 15.0721 21.6593C15.8613 21.719 16.3701 22.1483 16.6111 22.9225C16.6747 23.1262 16.707 23.3436 16.8261 23.5256C16.9211 23.6714 17.0232 23.8253 17.2301 23.6768C17.3645 23.435 17.3967 23.1615 17.4684 22.9017C17.5553 22.5829 17.7515 22.4507 18.0713 22.5295C18.6061 22.6626 19.1355 22.8193 19.6632 22.9786C19.8611 23.0384 19.9534 23.1751 19.9857 23.3834C20.2445 25.0532 20.8349 25.5974 22.4742 25.6907C22.5656 25.7169 22.6973 25.726 22.6848 25.851C22.6686 26.0176 22.5495 26.1271 22.3927 26.176C22.2798 26.2114 22.1204 26.1579 22.0828 26.33C22.0344 26.55 21.9367 26.7628 21.9448 26.9883C21.9493 27.1223 22.1114 27.1151 22.2046 27.1694C22.2951 27.2219 22.4465 27.259 22.2834 27.4021C22.1517 27.4691 22.0021 27.4528 21.8651 27.4945C21.8257 27.5026 21.7845 27.5054 21.7441 27.5054C21.4879 27.4619 21.4046 27.5751 21.4727 27.8178C21.608 28.3031 21.9045 28.6671 22.3157 28.9433C22.6498 29.2403 23.0386 29.445 23.4435 29.6207C23.9219 29.828 24.4002 29.8715 24.8759 29.6107C24.9727 29.5691 25.0694 29.5274 25.1787 29.5509C25.3543 29.7529 25.1545 29.8226 25.0417 29.8905C24.6332 30.1368 24.1906 30.1884 23.7248 30.0716C24.2336 30.7055 24.9118 31.1235 25.7592 31.3258C26.01 31.3855 26.036 31.496 25.8515 31.6699L25.8542 31.6672C25.6616 31.8048 25.4018 31.8338 25.2567 32.0466C24.5946 32.4043 23.8896 32.5654 23.1398 32.5256C22.966 32.666 22.7609 32.6487 22.5692 32.6107C20.9012 32.2829 19.4159 31.5938 18.2146 30.3469C18.0668 30.193 17.9521 30.0119 17.8061 29.8579C18.6536 31.3466 19.6605 32.6768 21.2497 33.4402C21.6761 33.6448 22.1168 33.7924 22.5817 33.8694C22.7063 33.8902 22.8397 33.8803 22.9338 33.9907L22.932 33.9889Z" fill="#FFCDBA"/>
<path d="M17.3063 23.8108C17.068 24.0426 16.9148 23.8878 16.7733 23.6895C16.604 23.4522 16.5771 23.1616 16.4857 22.8953C16.1417 21.8929 15.1841 21.4981 14.2551 21.9835C13.8592 20.876 13.6084 19.7459 13.6397 18.557C13.6657 17.5672 13.9972 16.7196 14.7013 16.0332C14.8697 15.8693 14.9969 15.6928 15.0766 15.4782C15.4161 14.5636 16.0522 13.9288 16.8978 13.4887C17.7775 13.0975 18.6599 12.7109 19.596 12.4754C21.6116 11.9674 23.6362 11.8008 25.6831 12.3016C25.9429 12.365 26.1516 12.5778 26.4383 12.5424C26.982 12.7851 27.3995 13.1872 27.7596 13.6481C27.9791 13.9297 28.169 14.2602 28.1403 14.6206C28.1063 15.0616 28.2604 15.3623 28.5381 15.6928C29.356 16.6689 29.3793 17.8217 29.1329 19.0088C29.0299 19.5087 28.926 20.0076 28.8229 20.5075C28.5255 20.4269 28.6339 20.1715 28.6241 19.9886C28.5748 19.0794 28.4619 18.1884 28.0203 17.3716C27.911 17.1697 27.7793 16.9841 27.653 16.7939C27.3502 16.3366 26.9659 16.1329 26.4186 16.2995C26.2009 16.3656 25.9662 16.3783 25.7422 16.3457C24.5911 16.179 23.448 16.2786 22.3086 16.4416C21.3886 16.5729 20.4668 16.5096 19.5459 16.5231C19.0764 16.5304 19.0469 16.5304 19.0684 17.0004C19.1284 18.3052 18.7987 19.5304 18.3634 20.7366C18.324 20.8443 18.2845 20.9521 18.203 21.0354C18.1923 21.1287 18.048 20.9276 18.0382 21.1332C18.023 21.4583 17.8805 21.768 17.7954 22.0858C17.7157 22.3837 17.5625 22.4996 17.2624 22.3656C17.4595 22.438 17.6906 22.4353 17.5625 22.7776C17.4398 23.1072 17.361 23.4577 17.3063 23.8099V23.8108Z" fill="#11051D"/>
<path d="M7.59388 13.0124C7.57328 12.9019 7.62792 12.7688 7.50251 12.6891C7.51415 11.5146 7.47563 10.3411 7.46041 9.16751C7.43443 7.18078 7.51595 5.19134 7.77305 3.21638C7.79813 3.02079 7.85994 2.8252 7.93519 2.64138C8.02656 2.4159 8.19946 2.24838 8.45387 2.2692C8.72799 2.29184 8.7477 2.54901 8.79249 2.75185C8.90894 3.28792 8.88386 3.83395 8.89103 4.37818C8.89282 4.53121 8.83997 4.69421 8.94478 4.83637C9.18933 5.39237 8.95015 5.89856 8.85609 6.35223C9.83701 5.89765 10.946 5.57619 12.1025 5.42225C11.9279 4.90882 12.0972 4.37908 12.1258 3.85388C12.1626 3.18469 12.296 2.52547 12.4904 1.88164C12.511 1.81191 12.5066 1.74038 12.4716 1.67427C12.537 1.33561 12.6355 1.0078 12.8084 0.70898C12.9374 0.486221 13.1202 0.309643 13.3943 0.37303C13.6595 0.4337 13.7222 0.69087 13.732 0.91544C13.7553 1.40261 13.7706 1.89341 13.7293 2.37787C13.6165 3.70356 13.4767 5.02653 13.3388 6.34951C13.3047 6.6764 13.3522 7.01145 13.2429 7.33019C13.2169 7.40173 13.1641 7.44972 13.0978 7.4787C11.2506 8.27919 10.6916 9.18743 10.4265 10.9568C10.5116 10.4878 10.5752 10.0133 10.7678 9.57228C11.2551 8.45758 12.1428 7.8228 13.2564 7.4615C13.3065 7.4452 13.3692 7.46331 13.397 7.3963C14.0169 6.67097 14.6287 5.9393 15.2594 5.22394C15.5577 4.88527 15.9384 4.82822 16.2412 5.03016C16.51 5.20945 16.6157 5.62509 16.3774 5.99635C15.5237 7.32295 15.0113 8.81888 14.2883 10.208C13.8763 10.9994 13.2877 11.6622 12.5702 12.1974C12.4671 12.2744 12.3525 12.3396 12.3086 12.4691C12.1384 12.9662 11.9189 13.4479 11.8651 13.9804C11.8347 14.0646 11.8042 14.1488 11.7729 14.2339C11.3321 14.3689 10.9039 14.2367 10.4856 14.1389C9.62022 13.936 8.7907 13.6127 7.96475 13.2822C7.81873 13.2234 7.67988 13.1582 7.59567 13.0133L7.59388 13.0124Z" fill="#FFCDBA"/>
<path d="M18.0866 21.0581C18.6393 19.7287 19.0245 18.3605 18.9403 16.9017C18.9161 16.4833 18.9537 16.3276 19.4572 16.3756C20.7597 16.5005 22.0622 16.3602 23.3585 16.2008C24.0384 16.1175 24.7192 16.122 25.3974 16.1845C25.8686 16.228 26.3407 16.2189 26.7939 16.1202C27.0484 16.065 27.1908 16.1383 27.3494 16.2832C28.1359 16.9986 28.47 17.934 28.6671 18.9527C28.7674 19.4707 28.6537 20.0031 28.823 20.5093C28.8409 20.8154 28.797 21.116 28.7441 21.4157C28.5981 21.5081 28.4673 21.4293 28.3437 21.3668C27.4067 20.8969 26.3657 21.2509 25.7933 22.1646C25.5712 22.5187 25.3454 22.6246 24.928 22.6808C24.36 22.7568 24.0939 22.6083 23.9228 22.0885C23.8377 21.8287 23.6084 21.6521 23.3603 21.5235C22.2566 20.9539 20.9532 21.2011 20.2061 22.3991C19.9544 22.8021 19.6928 22.9053 19.2637 22.8048C18.8373 22.7043 18.4046 22.6364 17.9773 22.5359C17.7417 22.4806 17.653 22.3919 17.7283 22.1565C17.8447 21.7897 17.9083 21.4049 18.0866 21.059V21.0581Z" fill="#FFCDBA"/>
<path d="M51.505 41.8191C50.7633 40.4988 50.129 39.1243 49.6068 37.7044C49.3515 37.0089 49.4079 36.2392 49.3192 35.5049C49.192 34.4481 49.1186 33.3859 49.0227 32.3256C50.8466 32.8082 52.296 33.8106 53.2814 35.4587C53.4337 35.9694 53.749 36.4041 53.9363 36.8985C54.1692 37.5124 54.3896 38.13 54.5517 38.7684C54.575 38.8607 54.5741 38.9866 54.6879 39.0419C55.0444 40.0905 55.1859 41.1852 55.3642 42.2719C55.2442 42.8098 55.125 43.3485 55.005 43.8864C54.5616 44.1563 54.0796 44.0069 53.6138 44.0032C53.3638 44.0014 53.1166 43.9245 52.8792 43.8375C52.6042 43.7524 52.4555 43.5441 52.3211 43.2978C52.0524 42.8034 51.841 42.2755 51.505 41.8191Z" fill="#55408B"/>
<path d="M37.2732 14.2457C39.3112 12.4654 42.2217 12.1458 44.4783 13.4534C44.8267 13.6553 45.1564 13.8781 45.3499 14.2466C45.5049 14.5418 45.7477 14.3906 45.9519 14.3707C46.9884 14.2683 48.0177 14.2539 49.0246 14.5844C49.3766 14.7003 49.709 14.8533 50.0073 15.0815C50.8601 15.7344 51.067 16.6544 50.5734 17.6269C50.4767 17.5445 50.4686 17.4268 50.4597 17.3127C50.371 16.1808 49.5495 15.5116 48.4969 15.1983C47.6952 14.9602 46.88 15.0426 46.0881 15.1766C44.2409 15.4908 42.5773 16.3003 40.9828 17.2647C40.9344 17.2937 40.8986 17.3408 40.8574 17.3815C40.1389 17.8108 39.4088 18.2201 38.685 18.6402C38.4772 18.7607 38.2595 18.8639 38.0696 19.0133C37.7686 19.2995 37.4981 19.63 37.0537 19.6997C36.9982 19.3158 36.7886 18.9861 36.6802 18.6194C36.2797 17.2593 36.5816 15.9544 36.9713 14.6559C37.0224 14.4848 37.2033 14.406 37.2732 14.2457Z" fill="#FFC446"/>
<path d="M25.8506 31.6681C25.8954 31.5296 25.9796 31.4119 25.7046 31.4146C24.9548 31.4209 24.36 31.0877 23.9291 30.4656C23.7965 30.2745 23.4884 30.231 23.4937 29.8906C24.0402 30.0961 21.649 30.3691 22.148 30.0667C22.2089 30.0295 22.3345 29.8878 22.2459 29.7638C22.1975 29.6026 20.1731 29.4666 20.2573 29.3833C20.5332 29.1117 20.9214 28.0938 21.0674 27.7433C21.1803 27.4735 14.5194 26.6587 20.3924 27.3551C20.2419 27.327 20.2099 26.9596 20.1221 26.7867C19.2621 26.7658 21.7693 27.1108 20.9326 26.9233C20.74 26.8799 22.3381 27.6123 22.2459 27.3551C21.7899 27.0001 21.7845 26.9983 21.9673 26.3201C22.0067 26.1752 21.9476 25.8637 22.3059 26.0837C22.4367 26.1643 22.6158 26.0131 22.5101 25.7849C22.5191 25.6373 22.6409 25.6183 22.743 25.5748C23.7087 25.1592 24.1584 24.3985 24.1925 23.359C24.2113 22.7876 24.4953 22.563 25.0399 22.6799C25.2531 22.726 25.4135 22.8338 25.4341 23.0656C25.4834 23.6135 25.6733 24.1196 25.8587 24.6285C25.8032 24.9808 25.9841 25.2923 26.0343 25.6282C26.1113 26.139 25.9716 26.4224 25.4959 26.5763C25.28 26.6461 25.0587 26.695 24.8285 26.6814C25.0354 26.7085 25.2442 26.7294 25.452 26.6832C25.8963 26.5836 26.1516 26.1679 26.0692 25.7161C26.0173 25.4272 25.8668 25.1565 25.9124 24.8495C26.0405 24.7807 26.1283 24.8676 26.2125 24.9382C26.8925 25.5132 27.6163 25.5151 28.375 25.1175C28.4933 25.0551 28.6053 24.9373 28.7629 25.0134C28.9296 25.7143 28.8203 26.4052 28.6626 27.0871C28.2747 28.7686 27.5025 30.2338 26.2296 31.4082C26.1176 31.5115 26.0217 31.6482 25.8506 31.6654V31.6681Z" fill="#FFCDBA"/>
<path d="M57.9935 31.9107C57.8923 31.1447 57.8368 30.3813 58.0688 29.6234C58.1225 29.4495 58.024 29.292 57.9308 29.1435C56.9159 27.5171 56.9651 25.899 57.9837 24.2971C58.1136 24.0924 58.1279 23.8588 58.1494 23.6451C58.2784 22.3457 58.6905 21.125 59.1232 19.9089C59.1456 19.8446 59.1895 19.7731 59.2755 19.8527C59.4036 20.0049 59.3525 20.1787 59.3265 20.3463C59.0309 22.3022 58.8204 24.2681 58.8929 26.2467C58.9691 28.3131 59.6553 30.1395 61.2445 31.535C61.7587 31.9859 62.3696 32.2458 63.0155 32.4332C63.1767 32.4803 63.3559 32.4767 63.4885 32.6071C63.5879 32.886 63.6605 33.1613 63.3631 33.3741C62.4278 33.5461 61.5338 33.8631 60.6371 34.1718C59.4878 33.9826 58.6753 33.3397 58.1637 32.2929C58.1028 32.1679 58.05 32.0384 57.9935 31.9117V31.9107Z" fill="#974529"/>
<path d="M40.7651 17.3545C41.0115 16.9941 41.4119 16.841 41.7693 16.6599C43.1355 15.9645 44.5195 15.2772 46.0514 15.0563C47.0968 14.905 48.1565 14.8109 49.1688 15.3342C50.1121 15.8214 50.612 16.5458 50.5735 17.6279C50.208 18.4619 49.4815 18.8477 48.7057 19.18C48.5364 19.2525 48.3017 19.2416 48.2327 19.4816C48.1207 18.9944 48.0535 18.4954 47.8546 18.0318C46.7107 16.6627 45.2165 16.4308 43.5753 16.6916C42.8031 16.8139 42.0623 17.0575 41.3277 17.3192C41.1468 17.3835 40.9622 17.5012 40.766 17.3545H40.7651Z" fill="#FAA113"/>
<path d="M37.2732 14.2457C36.8809 15.2201 36.5978 16.2288 36.6032 17.2829C36.6067 17.9339 36.699 18.5977 37.0358 19.1799C37.1362 19.3538 37.086 19.5123 37.1039 19.6789C37.1415 19.7993 37.0573 19.8636 36.9848 19.9297C36.415 20.445 35.8793 20.9919 35.4126 21.6049C35.3445 21.6946 35.2747 21.7906 35.1421 21.7833C34.8912 21.3967 34.8491 20.9421 34.8142 20.5102C34.6216 18.0888 35.2576 15.9726 37.1326 14.339C37.1747 14.3019 37.2266 14.2765 37.2732 14.2457Z" fill="#FAA113"/>
<path d="M25.779 24.6684C25.5192 24.1695 25.366 23.6479 25.349 23.0747C25.3374 22.6998 24.9979 22.7813 24.7649 22.784C24.558 22.7867 24.3296 22.7442 24.3296 23.1254C24.3314 24.5308 23.7769 25.3122 22.5093 25.7885C20.8887 25.8266 19.9938 25.0116 19.8639 23.3509C19.8487 23.1507 19.7511 23.1136 19.6167 23.0756C19.0604 22.918 18.5014 22.7695 17.946 22.6083C17.731 22.5458 17.6513 22.6373 17.5975 22.8347C17.5079 23.1625 17.4846 23.5111 17.3064 23.8109C17.2338 23.4903 17.3771 23.2014 17.4721 22.9189C17.5868 22.5757 17.5043 22.4336 17.155 22.4317C17.0672 22.4317 16.9875 22.4118 16.9498 22.3113C17.4121 22.333 17.7041 22.0997 17.8259 21.6113C17.8779 21.404 17.9433 21.2002 18.0033 20.9947C18.0069 20.9838 18.0167 20.9757 18.0239 20.9657C18.0445 20.9965 18.0651 21.0273 18.0857 21.0572C17.9872 21.4275 17.9075 21.8051 17.782 22.1664C17.705 22.3892 17.7731 22.4272 17.9702 22.4589C18.5551 22.5513 19.1383 22.6608 19.7215 22.7686C19.9374 22.8084 19.9248 22.6273 19.9867 22.5105C20.6218 21.3035 21.936 20.8226 23.2017 21.3053C23.7159 21.5018 24.0456 21.883 24.2051 22.3946C24.2776 22.6273 24.378 22.5875 24.5625 22.6011C25.2057 22.65 25.5497 22.334 25.9232 21.825C26.5539 20.9675 27.5088 20.8371 28.4709 21.3026C28.5596 21.3451 28.6519 21.3786 28.7424 21.4157C29.9974 22.2352 29.7018 23.8353 29.0891 24.624C28.9843 24.759 28.8705 24.8857 28.7612 25.017C27.7194 25.7369 26.8155 25.6953 25.9313 24.8423C25.8381 24.8223 25.8041 24.7481 25.7772 24.6684H25.779Z" fill="#11051D"/>
<path d="M35.1411 21.7843C35.7144 21.0055 36.389 20.3236 37.1039 19.6798C37.4156 19.4462 37.7264 19.2117 38.0382 18.978C38.0695 18.95 38.0973 18.9545 38.1215 18.988C38.0212 20.3254 38.0767 21.6765 37.7784 22.9958C37.7721 23.0239 37.7766 23.0547 37.7659 23.081C37.7032 23.234 37.7372 23.4875 37.5589 23.5174C37.361 23.5509 37.3359 23.2992 37.2588 23.157C36.9193 22.5331 36.3263 22.3547 35.4125 22.6074C35.3221 22.333 35.2316 22.0586 35.1411 21.7843Z" fill="#11051D"/>
<path d="M10.8502 0.986117C10.9237 0.648355 11.0374 0.329609 11.3322 0.122244C11.6439 -0.0977994 11.8894 -0.018113 12.0345 0.335043C12.1061 0.508904 12.1375 0.690009 12.1285 0.877453C12.0972 1.54392 12.1877 2.21582 12.0488 2.87867C12.0273 2.9819 11.996 3.10686 12.0972 3.20013C12.1393 3.91459 12.064 4.61547 11.8446 5.29643C11.7971 5.44312 11.6654 5.51647 11.514 5.53096C11.3868 5.54363 11.2614 5.56808 11.136 5.58891C10.4811 5.69576 10.4444 5.63781 10.4919 4.9813C10.5591 4.05585 10.7275 3.14037 10.7239 2.20767C10.7221 1.79928 10.9407 1.40809 10.8502 0.986117Z" fill="#FFCDBA"/>
<path d="M9.23052 3.22371C9.33354 2.67858 9.43387 2.13345 9.54226 1.58923C9.57003 1.44978 9.60318 1.30671 9.66499 1.18084C9.8119 0.883826 9.99465 0.510749 10.3539 0.591341C10.6728 0.662878 10.6432 1.06765 10.6719 1.36557C10.6862 1.5177 10.6181 1.6816 10.7292 1.82195C10.8179 2.4685 10.6593 3.09965 10.5993 3.73443C10.5527 4.21798 10.5017 4.70243 10.4461 5.18599C10.3834 5.73021 9.70172 6.27986 9.17766 6.19836C8.96983 6.16577 9.00567 5.99734 9.00746 5.86151C9.0191 5.14524 9.06479 4.43168 9.22066 3.7308C9.25829 3.56056 9.28516 3.39395 9.23141 3.22371H9.23052Z" fill="#FFCDBA"/>
<path d="M22.9321 33.989C21.9548 33.9881 21.1207 33.5725 20.3441 33.0319C19.0926 32.1598 18.2273 30.9627 17.6011 29.5555C19.0586 31.3023 20.8628 32.3672 23.1381 32.5239C23.105 32.7475 23.0727 32.9703 23.0396 33.1939C22.8855 33.443 22.9733 33.7246 22.9312 33.989H22.9321Z" fill="#FFB79C"/>
<path d="M7.47645 38.4758C7.7219 38.5166 7.66546 38.7683 7.77207 38.9069C8.14473 39.3904 8.48155 39.9138 8.95813 40.2977C9.48845 40.7261 10.0976 40.8393 10.7596 40.5748C10.3565 40.9968 9.83603 41.187 9.30033 41.2839C8.86048 41.3636 8.39645 41.3563 7.94854 41.2712C7.47645 41.1815 7.42717 41.2114 7.34745 41.7049C7.23368 42.4058 7.12708 43.1085 6.9927 43.8058C6.95239 44.0158 6.92462 43.8157 6.89685 43.7813C7.0572 42.7852 7.22472 41.791 7.37432 40.7931C7.46122 40.2153 7.51765 39.6331 7.59111 39.0536C7.61709 38.8462 7.56065 38.6587 7.47734 38.4758H7.47645Z" fill="#FAA113"/>
<path d="M9.23052 3.22364C9.40252 3.47085 9.27173 3.71896 9.22694 3.96255C9.09615 4.67067 9.14004 5.38785 9.10511 6.10141C9.96599 6.05522 10.2464 5.7727 10.3324 4.96588C10.4453 3.91546 10.5949 2.86867 10.7283 1.82098C10.7686 1.54298 10.809 1.26408 10.8493 0.986084C10.9953 1.16357 10.9236 1.37274 10.9084 1.562C10.8107 2.78356 10.7041 4.00421 10.5868 5.22395C10.5599 5.50376 10.611 5.60246 10.9147 5.53545C11.7191 5.35887 11.7182 5.36974 11.8866 4.54662C11.9771 4.1011 11.935 3.63385 12.0971 3.2001C12.2217 2.69119 12.3462 2.18319 12.4707 1.67428C12.5988 2.09173 12.3731 2.47386 12.3471 2.87773C12.2978 3.61845 12.2127 4.35646 12.1151 5.09265C12.0703 5.43041 12.3596 5.32356 12.5701 5.48384C11.1404 5.60971 9.86476 6.02263 8.58374 6.57409C8.98328 6.02987 8.89011 5.41864 8.94386 4.83639C9.03971 4.29941 9.13556 3.76152 9.23142 3.22455L9.23052 3.22364Z" fill="#FFB79C"/>
<path d="M76.4841 57.6739C76.39 57.5952 76.3184 57.5363 76.4841 57.4358C77.3566 56.9051 78.1315 56.2459 78.8724 55.545C78.9691 56.0567 79.2307 56.5312 79.2119 57.069C78.5499 57.2284 77.8887 57.3932 77.2249 57.5463C76.9813 57.6024 76.7313 57.6323 76.485 57.6739H76.4841Z" fill="#E56990"/>
<path d="M26.4374 12.5434C26.1301 12.6792 25.9142 12.4139 25.6517 12.3514C24.3985 12.0526 23.1425 12.0689 21.8651 12.1549C20.4622 12.2491 19.1517 12.6439 17.8483 13.1248C17.5293 13.2425 17.2758 13.5386 16.896 13.4906C18.2039 12.7444 19.6193 12.3315 21.092 12.0879C21.5641 12.0101 22.0371 12.0082 22.511 11.9883C23.027 11.9494 23.5439 11.9449 24.0599 11.9901C24.8867 12.0227 25.6876 12.1685 26.4365 12.5434H26.4374Z" fill="#05050C"/>
<path d="M13.3952 7.3955C13.1793 7.66987 12.8335 7.70791 12.5504 7.85732C11.4485 8.43957 10.7364 9.29982 10.568 10.573C10.5608 10.6291 10.5357 10.6826 10.5241 10.7387C10.5017 10.8474 10.4829 10.956 10.4479 11.1371C10.2912 9.4275 11.4002 7.94878 13.2411 7.32849C13.2921 7.35022 13.3432 7.37286 13.3943 7.39459L13.3952 7.3955Z" fill="#FFB79C"/>
<path d="M36.8638 26.9295C37.0689 26.7421 37.1988 26.8371 37.2723 27.0545C37.3959 27.4212 37.412 27.8097 37.4281 28.19C37.4559 28.8456 37.4362 29.5039 37.4362 30.2166C37.3735 30.0943 37.3323 30.0119 37.2911 29.9304C37.1943 29.6108 37.4039 29.3083 37.343 28.9905C37.266 28.6699 37.3681 28.3394 37.2866 28.0197C37.1881 27.6394 37.1818 27.2229 36.8647 26.9295H36.8638Z" fill="#924E34"/>
<path d="M54.6588 39.1165C54.6122 39.1708 54.5719 39.1817 54.5486 39.0984C54.2253 37.8977 53.8006 36.7377 53.2112 35.642C53.1995 35.6193 53.2372 35.5705 53.2524 35.5333C53.9278 36.6444 54.348 37.8587 54.6588 39.1165Z" fill="#55408B"/>
<path d="M11.0185 27.4176C10.7516 27.7653 10.7731 28.2552 10.4506 28.5803C10.627 28.0515 10.6682 27.5 10.7596 26.9585C10.8922 27.0844 10.9621 27.2474 11.0194 27.4176H11.0185Z" fill="#FAA113"/>
<path d="M80.441 63.4711C80.4392 63.1224 80.4374 62.7738 80.4347 62.4252C80.5404 62.7729 80.552 63.1215 80.441 63.4711Z" fill="#AFADB6"/>
<path d="M25.2549 32.0448C25.3579 31.7641 25.6123 31.7252 25.8524 31.6654C25.6974 31.8637 25.4681 31.9407 25.2549 32.0448Z" fill="#FFCDBA"/>
<path d="M32.9285 49.5161C32.8989 50.1708 32.8855 50.8264 32.8326 51.4793C32.8067 51.8025 32.9204 51.9628 33.2026 52.1023C34.8285 52.9073 36.4419 53.7413 38.0669 54.5481C39.2351 55.1285 40.3091 55.8249 41.1234 56.8771C41.1915 56.9649 41.2919 57.0256 41.3779 57.099C41.9171 57.5843 42.1671 58.2454 42.426 58.8946C42.6804 59.5339 42.8622 60.1986 42.9384 60.8859C42.9715 61.1874 43.079 61.3088 43.3684 61.1367C43.6407 61.0452 43.8933 60.9049 44.1612 60.8017C45.0955 60.3788 46.0191 59.9351 46.8755 59.361C47.5124 59.0467 48.0633 58.5976 48.6573 58.2164C49.9222 57.405 51.1369 56.5013 52.5872 56.0232C52.9106 55.9163 53.0728 55.9607 53.1319 56.3021C53.1471 56.7186 53.019 57.1153 52.9751 57.5246C52.9626 57.6414 52.9106 57.7419 52.7942 57.7926C50.7893 58.4735 49.107 59.6009 47.9496 61.4292C47.3673 62.3483 47.017 63.3616 47.0018 64.4591C46.9964 64.8738 46.8567 64.9852 46.4867 64.9354C46.3192 64.9127 46.1472 64.9254 45.977 64.9218C45.6249 64.9653 45.3221 64.8285 45.0176 64.671C44.335 64.3178 43.6219 64.0308 42.9205 63.7184C42.512 63.5363 42.4994 63.5001 42.6893 63.0836C42.7771 62.8907 42.8183 62.6879 42.8586 62.4823C42.864 62.4244 42.7816 62.5031 42.8354 62.485C42.8542 62.4787 42.8604 62.4905 42.8542 62.5194C42.7986 62.7875 42.7171 63.0456 42.5809 63.2846C42.4278 63.5536 42.1966 63.6704 41.9019 63.6088C41.5937 63.5445 41.5409 63.3091 41.5301 63.0202C41.4943 62.0911 41.4298 61.1639 41.0993 60.4684C41.463 61.5514 41.712 62.8201 41.4074 64.1385C41.3008 64.5994 41.0392 64.786 40.7033 64.738C40.362 64.6891 40.1775 64.4953 40.1443 64.0914C40.0529 62.9731 39.7994 61.8982 39.416 61.0036C39.7627 61.9209 40.0807 62.9921 40.0305 64.1403C40.0198 64.3839 40.0422 64.6583 39.7376 64.7407C39.4456 64.8204 39.2154 64.6918 39.0317 64.4573C38.7271 64.0661 38.591 63.5934 38.4109 63.1433C38.2308 62.6915 38.0347 62.2478 37.9272 61.9942C38.1386 62.4244 38.3751 63.0727 38.6205 63.7165C38.7029 63.9321 38.8113 64.1286 38.943 64.3187C39.2691 64.7878 39.4402 64.8584 39.9768 64.6655C40.1578 64.6003 40.3038 64.6601 40.4686 64.7045C40.964 64.8403 41.2211 64.7018 41.4011 64.2255C41.6188 63.6504 41.9422 63.4702 42.5209 63.6867C43.346 63.9945 44.1719 64.3051 44.9602 64.7063C45.1985 64.8276 45.3902 64.9888 45.401 65.2894C45.3499 66.0347 45.1716 66.7555 44.9584 67.4663C44.8277 67.9037 44.6825 68.3365 44.5526 68.7748C44.5043 68.9396 44.4353 69.0981 44.2821 69.1977C44.1585 69.2593 44.0358 69.2312 43.9094 69.2031C41.127 68.5819 38.3545 67.9227 35.65 66.9991C35.2872 66.875 34.936 66.7202 34.5822 66.5735C34.4236 66.5074 34.2704 66.4313 34.188 66.2647C34.1549 66.0419 34.3376 65.9713 34.4711 65.8826C36.9821 64.2119 37.3538 60.2502 35.0032 58.1095C34.3528 57.5173 33.595 57.1053 32.7511 56.8572C32.4842 56.7784 32.1903 56.7621 31.9673 56.5611C32.4403 55.6673 32.7296 54.7265 32.7914 53.705C32.8344 52.9833 32.7547 52.277 32.6813 51.5662C32.7296 51.4566 32.7359 51.3326 32.7036 51.2302C32.511 50.6208 32.7207 50.0186 32.7216 49.4128C32.7216 49.2806 32.7216 49.1195 32.9169 49.0706C32.9912 49.2209 32.9805 49.3685 32.9294 49.5188L32.9285 49.5161Z" fill="#924E34"/>
<path d="M31.9664 56.5583C33.9981 56.9486 35.6106 57.9221 36.3712 59.9631C37.2562 62.3365 36.2681 64.9752 34.3135 66.1207C34.2651 66.1488 34.2239 66.1895 34.1791 66.2249C34.137 66.3888 33.9856 66.4159 33.8656 66.482C33.1328 66.8832 32.3534 67.1648 31.5606 67.4156C30.4901 67.479 29.4304 67.6954 28.3527 67.6456C27.6898 67.6148 27.0287 67.5596 26.3756 67.4328C26.1678 67.393 25.96 67.3441 25.7942 67.1956C25.6643 67.0199 25.4699 66.9266 25.2988 66.8053C25.0838 66.6523 25.0516 66.4802 25.2764 66.3317C25.5255 66.1678 25.7154 65.9333 25.9797 65.7839C26.2699 65.62 26.4509 65.3402 26.5422 65.0078C26.7375 64.3006 27.0726 63.6604 27.4076 63.0111C27.7104 62.4243 28.0024 61.8186 28.2031 61.1802C28.2765 60.9456 28.3625 60.7202 28.5525 60.5535C28.6044 60.424 28.7898 60.4213 28.8185 60.2683C30.1569 59.2822 31.1387 57.9864 31.9682 56.5583H31.9664Z" fill="#55408B"/>
<path d="M23.7177 65.8907C23.3844 65.9233 23.156 65.811 23.1121 65.4433C23.053 65.3727 23.0288 65.2903 23.0592 65.2034C23.4507 64.0769 23.6809 62.8961 24.1512 61.7968C23.7705 62.6688 23.5618 63.5997 23.2724 64.5034C23.1793 64.7932 23.173 65.1273 22.9132 65.3474C22.7564 65.4243 22.5979 65.4741 22.4313 65.3754C22.0479 65.2323 21.9287 64.9145 21.8911 64.5423C21.8866 64.2779 21.8911 64.0135 21.8848 63.7491C21.8508 63.4792 21.9807 63.2456 22.0443 62.9975C22.1025 62.2061 22.4743 61.5106 22.6713 60.7618C22.4752 61.4952 22.1106 62.1762 22.0461 62.9513C21.995 63.2465 21.8705 63.4974 21.531 63.4503C21.1977 63.405 21.0857 63.1252 21.0535 62.8227C20.955 61.8837 21.2712 61.0461 21.7012 60.2447C22.1921 59.3292 22.9275 58.6084 23.612 57.8478C23.8055 57.6947 23.9362 57.4693 24.1647 57.3561C24.4997 57.1315 24.8321 56.9024 25.2576 56.9006C25.9957 56.7095 26.6344 56.9214 27.2096 57.3905C27.3215 57.5254 27.4676 57.6132 27.6207 57.6911C28.5936 58.3666 28.8552 59.2622 28.375 60.28C28.3069 60.347 28.3025 60.4331 28.3016 60.5209C28.2702 61.1883 27.9361 61.7397 27.6216 62.2939C27.3762 62.7268 27.0429 63.1071 26.8593 63.5789C26.5189 64.4147 26.0405 65.1508 25.3185 65.7005C24.9055 66.0147 24.6753 66.0129 24.3394 65.7394C24.265 65.5357 24.3922 65.3818 24.4719 65.2197C24.6843 64.7841 24.8554 64.3295 25.0793 63.8985C25.2925 63.4883 25.4806 63.0654 25.6679 62.6425C25.1993 63.6404 24.7273 64.6374 24.2632 65.6371C24.1091 65.7838 23.9452 65.9079 23.7177 65.8925V65.8907Z" fill="#FFCDBA"/>
<path d="M21.9896 64.5958C22.0129 64.9272 22.1858 65.1717 22.4321 65.3736C22.3533 65.4687 22.2879 65.4144 22.218 65.3582C20.9585 64.354 19.553 63.5825 18.1698 62.7766C16.1444 61.5976 14.0849 60.4829 11.9905 59.4334C11.9412 59.4089 11.9009 59.3664 11.8561 59.332C11.4494 59.025 10.989 58.8403 10.4989 58.7216C10.3511 58.7316 10.2194 58.709 10.1541 58.5496C10.6665 58.3458 11.195 58.4645 11.702 58.526C13.6701 58.7624 15.6356 58.9589 17.6234 58.9507C19.2878 58.9444 20.9173 58.7053 22.5432 58.3956C22.6229 58.3802 22.7152 58.3739 22.7609 58.2834C22.9625 58.1693 23.1649 58.0561 23.3665 57.942C23.4632 57.8324 23.568 57.76 23.7123 57.8623C23.104 58.6501 22.3426 59.312 21.8579 60.2013C21.4647 60.923 21.1457 61.6646 21.1457 62.5085C21.1457 62.5946 21.1466 62.6806 21.1538 62.7666C21.1762 63.0383 21.2577 63.2936 21.5426 63.3688C21.8606 63.4521 21.8705 63.127 21.9959 62.9586C22.0389 62.8988 22.0702 62.9052 22.089 62.9758C22.0541 63.2212 22.0201 63.4657 21.9851 63.7111C21.9484 64.0063 21.9439 64.3006 21.9878 64.5949L21.9896 64.5958Z" fill="#3C2774"/>
<path d="M32.9285 49.516L32.8953 49.1556C32.9768 49.8492 32.5755 50.5066 32.7475 51.2012C32.7762 51.3153 32.7887 51.4592 32.6803 51.5634C32.3937 49.5721 32.0201 47.5963 31.6609 45.6177C32.0613 45.701 32.4609 45.787 32.8613 45.8676C32.9759 45.8902 33.0924 45.8993 33.0888 46.0596C33.0664 47.2132 33.044 48.3669 32.9285 49.516Z" fill="#924E34"/>
<path d="M25.9133 51.9266C25.9644 50.1707 26.4472 48.4847 26.7321 46.7669C27.06 44.7937 27.3887 42.8206 27.7184 40.8474C27.7462 40.6808 27.7892 40.516 27.8787 40.3575C27.8223 41.0276 27.7883 41.7013 27.705 42.3687C27.455 44.3826 27.2078 46.3983 26.7697 48.3814C26.4857 49.6673 26.3191 50.9685 26.183 52.2761C26.1776 52.3286 26.1427 52.3784 26.122 52.4291C25.8811 52.3349 25.8031 52.1711 25.9115 51.9275L25.9133 51.9266Z" fill="#FAA113"/>
<path d="M21.6501 52.401C20.5455 53.9902 14.1763 56.4061 11.7603 56.1716C15.2522 55.5061 18.5971 54.443 21.6501 52.401Z" fill="#FAA113"/>
<path d="M22.7619 58.2843C22.6857 58.5786 22.4045 58.498 22.2307 58.5297C20.8323 58.7896 19.4196 59.0558 18.0024 59.0223C16.6246 58.9888 15.2415 59.0232 13.8619 58.8385C12.6365 58.6737 11.4038 58.4672 10.1541 58.5505C9.50736 58.3758 8.85968 58.2001 8.2129 58.0244C8.20484 58.0226 8.20036 58.0081 8.19409 57.999C8.22634 57.9791 8.25949 57.9592 8.29174 57.9393C8.30607 57.9393 8.3213 57.9366 8.33384 57.9411C9.81731 58.4373 11.3778 58.4056 12.9034 58.6058C16.2027 59.0386 19.4957 59.0522 22.761 58.2843H22.7619Z" fill="#3C2774"/>
<path d="M7.5938 13.0125C8.4932 13.3556 9.38902 13.7061 10.3126 13.9823C10.791 14.1253 11.2917 14.1063 11.7701 14.234C11.7746 14.4269 11.6375 14.4187 11.5085 14.4224C10.206 14.4631 9.01009 14.0701 7.86165 13.4969C7.68338 13.4082 7.54095 13.2533 7.5938 13.0125Z" fill="#FFB79C"/>
<path d="M23.7133 57.8632C23.5977 57.8895 23.4821 57.9166 23.3675 57.9429C23.0306 57.9248 22.9859 57.7672 23.1122 57.472C23.4311 56.7286 23.8055 56.034 24.5983 55.5297C24.3484 56.0576 24.0304 56.4506 24.0089 56.974C24.0017 57.1533 23.9838 57.2791 24.1648 57.3543C24.0662 57.5707 23.8924 57.7201 23.7133 57.8632Z" fill="#FAA113"/>
<path d="M26.7402 51.5851C27.5536 50.5411 28.5632 49.9036 29.9455 50.0666C28.7827 50.3708 27.6361 50.7104 26.7402 51.5851Z" fill="#FAA113"/>
<path d="M28.376 60.2782C28.6779 59.2505 28.4414 58.383 27.6217 57.6893C28.6824 58.038 29.1061 59.4922 28.376 60.2782Z" fill="#FFB79C"/>
<path d="M26.7366 63.5453C26.9059 63.1532 27.1523 62.8064 27.3968 62.4641C27.8214 61.871 28.0212 61.1765 28.3016 60.5182C28.4727 60.4349 28.6447 60.3515 28.8158 60.2673C28.9493 60.4711 28.6546 60.4104 28.6555 60.5317C28.4539 60.6585 28.3419 60.8387 28.2729 61.0723C28.0203 61.9344 27.5151 62.6643 27.0421 63.4104C26.9767 63.5127 26.897 63.6386 26.7357 63.5453H26.7366Z" fill="#3C2774"/>
<path d="M27.2105 57.3887C26.6085 57.0265 25.959 56.859 25.2576 56.8988C25.821 56.5674 26.853 56.8264 27.2105 57.3887Z" fill="#FFB79C"/>
<path d="M25.7655 67.0805C26.148 67.3332 26.5986 67.3576 27.0251 67.4147C28.4064 67.6003 29.7878 67.536 31.1566 67.2825C31.3402 67.2481 31.4871 67.3431 31.6546 67.3332C32.898 66.8786 35.005 67.1086 35.8327 68.4497C35.9537 68.6462 36.0639 68.8409 36.071 69.079C36.3765 70.0914 36.3407 71.0685 35.7727 71.9894C35.7172 72.3896 35.3947 72.5879 35.1241 72.7962C34.42 73.3377 33.6156 73.6356 32.7242 73.6746C31.6134 73.7226 30.5205 73.6039 29.4303 73.383C27.8752 73.0679 26.3281 72.7002 24.7488 72.5119C24.5714 72.4911 24.3761 72.4938 24.2328 72.348C24.9692 71.0866 25.4547 69.7337 25.6518 68.2831C25.7055 67.891 25.6661 67.4853 25.6688 67.086C25.6983 67.0515 25.7306 67.0497 25.7637 67.0805H25.7655Z" fill="#11051D"/>
<path d="M7.51053 68.2052C7.84019 67.9082 8.21912 67.9064 8.62493 67.9924C10.0726 68.3003 11.393 68.9622 12.7555 69.5028C14.4092 70.1593 16.0665 70.8077 17.7417 71.4062C17.8321 71.4388 17.9119 71.5013 17.997 71.5493C17.8751 71.7205 17.6817 71.7322 17.5034 71.7585C15.52 72.0528 13.5815 72.53 11.6931 73.2109C11.5695 73.2553 11.4432 73.2463 11.3195 73.2743C10.5518 73.5614 9.90684 74.0504 9.27081 74.5529C8.78259 74.9387 8.27376 75.2402 7.61265 75.2049C6.65412 75.1533 6.09513 74.6027 6.06378 73.6356C6.03601 72.7781 6.11484 71.9296 6.24563 71.0839C6.20711 70.718 6.28326 70.3685 6.38986 70.0235C6.54663 69.5182 6.86195 69.0845 7.02499 68.581C7.10114 68.3465 7.32599 68.3003 7.50963 68.2043L7.51053 68.2052Z" fill="#11051D"/>
<path d="M79.1384 69.6233C78.8992 69.3208 78.8168 68.9396 78.6439 68.6046C78.557 68.4361 78.531 68.2098 78.2793 68.1853C77.6809 68.5321 77.0771 68.8663 76.4133 69.0809C77.0243 70.2535 77.1972 71.4135 76.4975 72.5907C77.1031 72.7745 77.7087 72.9583 78.3143 73.1422C78.3143 73.1422 79.7959 73.7941 80.4983 73.7036C81.2006 73.613 81.1854 73.4274 81.2069 73.1892C81.2284 72.9511 81.4666 71.8925 79.5577 70.1503C79.3704 69.9792 79.1393 69.6242 79.1393 69.6242L79.1384 69.6233Z" fill="#FFCDBA"/>
<path d="M63.4373 32.6216C62.0757 32.4451 61.0267 31.7379 60.2321 30.6385C59.2664 29.3029 58.788 27.7888 58.763 26.1408C58.7316 24.0291 58.9538 21.9364 59.2754 19.8528C60.07 19.9497 60.646 19.5549 61.0455 18.576C61.1655 18.2826 61.2506 18.1595 61.6152 18.1848C62.262 18.2301 62.7691 17.8579 63.2223 17.3463C63.5341 18.0798 64.0169 18.6159 64.7085 18.9419C65.2335 19.1891 65.7763 19.3267 66.3595 19.1827C66.5915 19.1257 66.7187 19.1519 66.8083 19.448C67.1335 20.522 67.7821 21.3207 68.8866 21.653C69.0711 21.7082 69.0864 21.806 69.0944 21.9627C69.1222 22.4553 69.2064 22.9325 69.5298 23.3309C69.9007 23.7873 70.2787 23.8045 70.672 23.3844C71.5911 22.401 72.6929 22.6554 73.1131 23.9494C73.3944 24.8142 73.2591 25.6455 72.9106 26.4586C72.555 27.2582 71.6923 27.8106 70.8395 27.7608C70.6684 27.7508 70.5654 27.778 70.5188 27.9473C70.3217 28.4771 70.113 29.0013 69.8048 29.5365C70.0171 29.4315 70.078 29.263 70.19 29.1435C70.2626 29.0656 70.3414 28.9995 70.4238 29.1363C70.5071 29.3572 70.4794 29.5881 70.4776 29.8145C70.4731 30.2999 70.5098 30.7807 70.5537 31.2643C70.5976 31.7569 70.8063 32.1272 71.1799 32.4261C71.2964 32.5193 71.4603 32.5773 71.4773 32.7638C71.3017 33.644 70.9649 34.4436 70.3916 35.1435C69.3587 36.4049 68.0857 37.2217 66.458 37.4436C65.263 37.6066 64.2579 37.2824 63.4499 36.3606C62.916 35.7511 62.864 34.3557 63.3621 33.7164C63.5305 33.644 63.7016 33.6902 63.8646 33.7255C64.4935 33.8613 65.0785 33.7237 65.6375 33.443C66.6318 32.9431 67.421 32.1988 68.1377 31.2661C66.9418 32.0023 65.736 32.5266 64.3968 32.6787C64.0752 32.7149 63.75 32.7919 63.4391 32.6235L63.4373 32.6216Z" fill="#FFCDBA"/>
<path d="M52.7942 57.7907C52.8739 57.2664 52.9537 56.7412 53.0334 56.2169C52.9895 56.0675 53.0003 55.9127 52.985 55.7596C53.0289 55.536 53.0585 55.3096 53.0934 55.0832C53.303 53.8227 53.5288 52.5649 53.7823 51.3135C53.8504 50.9784 53.9301 50.6461 54.1093 50.35C54.2795 49.574 54.4524 48.7988 54.619 48.0219C54.748 47.4215 54.8707 46.8203 54.9961 46.2199C54.9388 45.7173 55.1063 45.2483 55.2084 44.7692C55.2308 44.6624 55.2586 44.5447 55.3858 44.503C55.6026 44.3844 55.7047 44.6135 55.866 44.6651C56.6668 44.9214 57.4614 45.2048 58.3178 45.1985C58.394 45.2057 58.4441 45.2437 58.4612 45.3216C58.6573 46.2941 59.0264 47.2151 59.2943 48.1659C59.3176 48.2492 59.3525 48.328 59.3337 48.4176C59.1536 49.4581 59.1724 50.5039 59.3203 51.5417C59.3776 51.9437 59.4161 52.3304 59.3382 52.7279C59.245 53.4025 58.9575 54.0174 58.7236 54.6449C58.4253 55.4472 58.1745 56.274 57.7212 57.0102C57.4811 57.4593 57.2473 57.913 56.9992 58.3576C56.9087 58.5188 57.0073 58.5803 57.1013 58.6727C58.0294 59.5837 58.5615 60.7147 58.8867 61.9625C58.9413 62.1726 58.9207 62.3591 58.815 62.5375C58.5812 62.9332 58.2677 62.9558 57.9568 62.6145C57.7974 62.4388 57.7597 62.207 57.6531 62.0078C57.4561 61.6229 57.5152 61.1901 57.439 60.8242C57.431 61.1955 57.6075 61.5939 57.5071 62.0105C57.5698 62.9685 57.6182 63.9257 57.3987 64.8737C57.3468 65.0992 57.2608 65.3111 57.1273 65.4967C56.8765 65.8472 56.7179 65.859 56.3685 65.5737C56.0989 65.1001 56.0926 64.5595 56.0004 64.0434C55.8678 63.3045 55.7549 62.561 55.6895 61.8529C55.7209 62.3627 55.8221 62.9051 55.8973 63.4512C55.9977 64.1837 56.1491 64.9082 56.2781 65.6362C56.2503 65.744 56.2368 65.8571 56.1921 65.9568C55.9636 66.4639 55.5435 66.5354 55.1744 66.1243C55.0642 66.0011 54.9926 65.8427 54.9039 65.7005C54.585 65.2441 54.5016 64.6981 54.361 64.1783C54.1845 63.5263 54.0466 62.8617 53.9928 62.513C54.1245 63.2175 54.3332 64.2363 54.6575 65.2278C54.6942 65.3401 54.7713 65.4687 54.6871 65.5991C54.3744 65.9522 54.2186 65.9694 53.8817 65.6597C53.2117 65.044 52.9528 64.2037 52.7217 63.367C52.2612 61.6972 52.22 60.0156 52.7154 58.3395C52.7682 58.1602 52.8175 57.9827 52.796 57.7925L52.7942 57.7907Z" fill="#FFCDBA"/>
<path d="M71.4756 32.762C70.5502 32.3699 70.3944 31.5567 70.3684 30.6784C70.3523 30.1486 70.3505 29.618 70.3415 29.0883C70.1695 28.8818 70.243 28.6518 70.3066 28.439C70.3558 28.2751 70.3944 28.1121 70.4266 27.9455C70.4633 27.6711 70.4705 27.5344 70.8772 27.6367C71.4935 27.7906 72.0086 27.3813 72.4583 26.9702C72.6249 26.8181 72.7602 26.6307 72.9098 26.4586C72.9071 26.6062 72.9546 26.7257 73.0531 26.8453C73.7841 27.7336 73.7904 29.1127 73.0594 29.9965C72.9304 30.1532 72.9564 30.2374 73.0478 30.3968C73.5951 31.3512 73.5342 32.3473 72.9035 33.1378C72.4279 33.0128 71.9513 32.8879 71.4756 32.762Z" fill="#974529"/>
<path d="M63.4374 32.6216C65.2353 32.6479 66.8209 31.9724 68.3474 31.0741C68.0222 31.6726 67.5833 32.1508 67.0969 32.5746C66.4071 33.1758 65.6689 33.7001 64.7337 33.8577C64.258 33.9374 63.8083 33.8604 63.3613 33.7155C63.2753 33.6005 63.3013 33.4873 63.3631 33.3732C63.4876 33.1324 63.4562 32.8761 63.4374 32.6216Z" fill="#FFB79C"/>
<path d="M73.5244 46.142C73.6166 47.0774 73.7098 48.0128 73.8021 48.9491C73.8504 49.4454 73.9006 49.9425 73.9418 50.4396C73.9561 50.6126 73.9929 50.7756 74.0762 50.9685C74.8466 50.455 75.6788 50.2567 76.5961 50.4686C75.0723 50.4451 73.8603 51.1043 72.8337 52.1774C72.6581 51.7029 72.8489 51.232 72.8686 50.762C72.9018 49.9833 73.0048 49.2081 73.0899 48.4321C73.1741 47.6687 73.1248 46.8954 73.2601 46.1366C73.3362 46.0705 73.4133 46.0632 73.4921 46.1311L73.5253 46.1429L73.5244 46.142Z" fill="#C2466E"/>
<path d="M55.3859 44.4279C55.256 45.0001 55.1261 45.5724 54.9962 46.1447C54.8296 45.7436 54.7015 45.7074 54.482 46.0687C54.3673 46.257 54.1057 46.2624 54.0681 46.4979C53.9499 46.5232 53.9248 46.4345 53.9024 46.353C53.6713 45.4909 53.2386 44.7185 52.8462 43.9289C52.8023 43.8411 52.7423 43.755 52.7934 43.6482C53.5199 43.8465 54.2607 43.8447 55.0043 43.8112C54.9648 44.1218 55.325 44.1797 55.385 44.4279H55.3859Z" fill="#6C3424"/>
<path d="M59.9043 51.0383C59.6839 51.0899 59.769 51.3018 59.718 51.434C59.5478 51.8723 59.4134 52.325 59.2656 52.7724C59.2423 52.7389 59.1921 52.6972 59.1984 52.6727C59.2978 52.3323 59.2772 52.0099 59.2011 51.6549C59.0103 50.773 59.1249 49.8683 59.1034 48.9728C59.0981 48.7582 59.1232 48.5472 59.2817 48.3796C59.3238 48.3796 59.3758 48.3778 59.3892 48.4231C59.5997 49.1376 59.8819 49.8394 59.7905 50.61C59.6884 50.7911 59.984 50.8635 59.9052 51.0383H59.9043Z" fill="#FFB79C"/>
<path d="M58.4154 45.2791C58.3832 45.2519 58.35 45.2247 58.3178 45.1976C57.946 43.1094 58.5785 41.177 59.2163 39.1794C59.296 39.3415 59.2503 39.4357 59.2208 39.5344C59.1885 39.644 59.167 39.7572 59.1384 39.8676C58.7245 41.4378 58.3841 43.0162 58.4907 44.6597C58.5041 44.8652 58.6062 45.0735 58.5122 45.2836C58.4781 45.3189 58.4459 45.3189 58.4154 45.2791Z" fill="#C2466E"/>
<path d="M73.4902 46.1303C73.4132 46.1321 73.3352 46.1339 73.2582 46.1357C73.0701 45.529 73.0925 44.8925 73.019 44.2713C72.9034 43.2906 72.8139 42.3072 72.6741 41.3292C72.6687 41.2921 72.6911 41.2504 72.7413 41.2061C73.0423 42.8405 73.3505 44.4714 73.4893 46.1303H73.4902Z" fill="#C2466E"/>
<path d="M58.4154 45.2791C58.4477 45.2809 58.4799 45.2827 58.5121 45.2836C58.8669 46.8366 59.5486 48.2945 59.8299 49.8683C59.8738 50.1146 59.9428 50.3709 59.7887 50.609C59.7421 49.8366 59.5818 49.0914 59.2799 48.3787C59.0111 47.4705 58.7406 46.5631 58.4763 45.6531C58.4414 45.5327 58.4351 45.4032 58.4154 45.2782V45.2791Z" fill="#C2466E"/>
<path d="M44.3591 69.2792C44.3331 69.2339 44.3063 69.1895 44.2803 69.1442C44.7282 67.8837 45.1429 66.6151 45.297 65.2758C45.3373 65.1355 45.4036 64.9761 45.5649 65.0141C45.9232 65.1002 46.3057 65.0304 46.6488 65.1943C46.8943 65.2686 47.0546 65.4198 47.0734 65.6906C47.1478 66.7736 47.7005 67.6293 48.3652 68.4216C48.7307 68.8572 49.1688 69.2221 49.631 69.5535C49.2843 69.6749 48.9385 69.7962 48.5918 69.9176C47.8895 70.1593 47.1738 70.1439 46.4589 70.0072C45.8175 69.885 45.1967 69.6785 44.5831 69.453C44.4944 69.4204 44.3896 69.3933 44.3591 69.2783V69.2792Z" fill="#55408B"/>
<path d="M37.7167 61.4328C37.9657 61.9481 38.2103 62.466 38.4647 62.9786C38.6734 63.4005 38.7549 63.8786 39.029 64.2716C39.0944 64.3649 39.1634 64.4555 39.2378 64.5415C39.3793 64.7054 39.5674 64.7045 39.7493 64.6511C39.9464 64.5931 39.9114 64.4093 39.9186 64.2544C39.9804 63.0275 39.6265 61.882 39.2476 60.741C39.2315 60.6912 39.2136 60.6423 39.2351 60.5771C39.6104 61.1322 39.8021 61.7651 39.9947 62.3972C40.1667 62.9613 40.2178 63.5472 40.2447 64.1304C40.2599 64.4736 40.4561 64.5768 40.7168 64.6357C40.9855 64.6963 41.1521 64.5379 41.2426 64.307C41.4684 63.7338 41.4692 63.1397 41.4173 62.5312C41.342 61.6646 41.2104 60.8143 40.8923 59.9976C41.2507 60.5427 41.4442 61.1494 41.523 61.7833C41.5723 62.1781 41.6654 62.5738 41.6215 62.9795C41.5956 63.223 41.6197 63.4657 41.9109 63.5164C42.1599 63.5599 42.3866 63.4757 42.5335 63.2448C42.7216 62.9496 42.8515 61.8593 42.9258 61.4573C43.0441 61.8349 42.8533 62.8681 42.7171 63.1307C42.6007 63.3543 42.6007 63.4721 42.8613 63.5771C43.7563 63.9384 44.6431 64.3233 45.4951 64.7806C45.6509 64.8639 45.8417 64.786 45.9761 64.92C45.9627 64.9236 45.9483 64.9263 45.9358 64.9327C45.8946 64.9517 45.8722 65.0069 45.9188 65.0087C46.2556 65.0178 46.5933 65.0142 46.9624 65.0142C46.906 65.2523 46.7474 65.16 46.6489 65.1962C46.3694 65.1853 46.0917 65.188 45.8149 65.1156C45.6294 65.0676 45.4189 65.0585 45.2971 65.2768C45.3338 64.9943 45.1099 64.8928 44.928 64.8122C44.111 64.45 43.2833 64.1123 42.4618 63.7618C42.2423 63.6686 42.0211 63.7709 41.7971 63.7528C41.523 63.731 41.5875 64.0598 41.5185 64.2454C41.3205 64.7806 40.8529 64.9943 40.3262 64.7724C40.2106 64.7235 40.1425 64.7135 40.0216 64.767C39.5719 64.9644 39.2001 64.8349 38.9036 64.4473C38.4584 63.8651 38.3106 63.1524 38.0535 62.4905C38.0535 62.4905 38.9189 64.3821 38.7271 64.6348C38.3231 65.1681 37.3279 65.1165 37.0484 64.5678C36.7689 64.019 36.6399 62.553 36.6399 62.553L36.656 62.437C36.656 62.437 36.9642 64.5433 37.2714 64.7407C37.5787 64.9381 37.8385 64.8494 38.1538 64.8294C39.0147 64.5759 38.5238 64.3694 38.3285 63.6233C38.1332 62.8771 37.7158 61.4337 37.7158 61.4337L37.7167 61.4328Z" fill="#4B261D"/>
<path d="M59.8962 63.8343C60.7061 62.3148 62.0113 61.3468 63.4885 60.5671C62.1367 61.4709 60.8601 62.4534 60.036 63.9085C59.9894 63.8841 59.9428 63.8587 59.8962 63.8334V63.8343Z" fill="#FFB79C"/>
<path d="M60.9631 64.478C61.8688 63.2075 63.054 62.283 64.4219 61.5848C63.7276 62.1137 63.0074 62.6081 62.349 63.1903C61.8885 63.5969 61.5418 64.1095 61.0778 64.5079C61.0393 64.4979 61.0008 64.488 60.9631 64.478Z" fill="#FFB79C"/>
<path d="M54.6843 65.5982C54.3153 64.449 53.9695 63.2945 53.9247 62.0739C54.2463 63.2845 54.4926 64.5142 54.9011 65.6996C54.8286 65.6661 54.756 65.6317 54.6843 65.5982Z" fill="#FFB79C"/>
<path d="M56.2771 65.6344C55.8677 64.3757 55.771 63.0645 55.6545 61.7551C55.9663 63.0129 56.0523 64.3141 56.3685 65.571C56.338 65.5918 56.3076 65.6127 56.2771 65.6335V65.6344Z" fill="#FFB79C"/>
<path d="M62.4126 64.68C62.9707 64.0027 63.7509 63.6405 64.481 63.2122C64.8143 63.0166 65.1502 62.8083 65.5506 62.7485C64.9263 63.1225 64.2902 63.4802 63.6802 63.8768C63.2717 64.1421 62.8068 64.3558 62.5658 64.8267C62.5147 64.7778 62.4637 64.7289 62.4126 64.68Z" fill="#FFB79C"/>
<path d="M57.5071 62.0096C57.4542 61.5469 57.4014 61.085 57.3485 60.6223C57.5949 61.0533 57.5841 61.5387 57.6531 62.0069C57.6047 62.0078 57.5554 62.0087 57.5071 62.0096Z" fill="#FFB79C"/>
<path d="M58.9493 73.2779C58.471 73.057 58.1109 72.7183 57.9174 72.2148C58.2614 72.5689 58.6053 72.9239 58.9493 73.2779Z" fill="#E6B5C9"/>
<path d="M53.1337 55.2055C53.2098 55.4319 53.1095 55.6293 53.0342 55.8303C53.002 55.8792 52.9617 55.9145 52.9025 55.9272C51.3178 56.2822 49.9974 57.1587 48.711 58.1005C48.1852 58.4853 47.6638 58.8774 47.1586 59.2912C47.086 59.351 47.0305 59.4524 46.9095 59.4198C46.0782 60.0555 45.1331 60.4747 44.1809 60.8804C43.9981 60.875 44.0886 60.7527 44.1047 60.6785C44.3851 59.3356 45.0561 58.2028 45.8928 57.2366C44.8196 58.3495 43.9757 59.6924 43.4078 61.2146C43.2573 61.2906 43.1068 61.3667 42.9285 61.4572C42.7556 60.1922 42.4806 58.9879 41.8544 57.8949C41.7012 57.6269 41.5382 57.3643 41.3796 57.0989C42.7287 57.2692 44.0339 57.0663 45.2764 56.5411C46.157 56.169 47.0009 55.7062 47.8609 55.2834C48.5121 54.9048 49.2154 54.6576 49.9472 54.5118C50.3728 54.4267 50.7866 54.2565 51.2319 54.2828C51.5293 54.4856 51.8661 54.5779 52.2083 54.6748C52.5523 54.7726 52.9366 54.8333 53.1346 55.2055H53.1337Z" fill="#FFC446"/>
<path d="M51.2409 54.3471C50.7616 54.5182 50.2465 54.4874 49.7574 54.6133C49.1043 54.7808 48.4916 55.0597 47.8592 55.2834C47.8117 55.0787 48.007 55.1095 48.0885 55.0769C48.7926 54.798 49.4761 54.4494 50.2393 54.3887C49.5684 53.6263 48.8186 54.0238 48.1046 54.2484C46.811 54.6558 45.556 55.1919 44.2114 55.4264C44.086 55.4482 43.9606 55.469 43.8127 55.4156C43.8961 55.2182 44.0904 55.2336 44.2311 55.1992C45.6044 54.8614 46.9445 54.4086 48.3017 54.0174C48.5588 53.9432 48.8222 53.8898 49.0837 53.8354C49.3426 53.7811 49.374 53.7114 49.193 53.4805C48.4907 52.5867 47.7445 51.7274 47.112 50.7766C46.3479 49.6293 46.0774 48.3144 45.7988 46.9996C45.4897 45.5354 45.3751 44.0431 45.2263 42.558C45.178 42.0744 45.0723 41.6036 45.0337 41.1218C45.023 40.9842 44.9845 40.8737 44.8868 40.7795C44.232 40.1448 44.0788 39.3244 43.9865 38.4569C43.9435 38.0566 43.9364 37.66 43.922 37.2607C43.9597 37.1927 44.0358 37.2217 44.0887 37.1927L44.3449 37.2607C44.4891 37.4843 44.4542 37.7506 44.5133 37.995C44.6736 38.6588 44.9746 39.2157 45.5659 39.5815C45.8194 39.6223 45.8427 39.8396 45.8902 40.0289C46.1222 40.9425 46.1849 41.8825 46.3175 42.8124C46.6453 45.1098 46.8084 47.4442 47.6827 49.6256C48.3178 51.2121 49.3032 52.4708 51.0241 52.9625C51.5589 53.3646 51.6494 53.9432 51.2409 54.3489V54.3471Z" fill="#3C2774"/>
<path d="M33.7437 40.2571C33.689 41.025 33.6397 41.7856 33.5806 42.5453C33.5385 43.085 33.4794 43.6238 33.4364 44.1635C33.4006 44.619 33.3791 45.0754 33.3459 45.5309C33.3379 45.6413 33.3262 45.8089 33.2026 45.8016C33.0333 45.7926 33.0001 45.6214 33.0145 45.4711C33.0996 44.5773 33.1757 43.6827 33.2805 42.7907C33.3719 42.0129 33.4964 41.2396 33.6057 40.4644C33.6174 40.3802 33.6147 40.2888 33.7437 40.2571Z" fill="#3C2774"/>
<path d="M44.0895 37.1909C44.0339 37.2135 43.9784 37.2362 43.9228 37.2597C43.0727 36.7988 42.6454 36.0762 42.6185 35.1064C42.623 34.8148 42.6857 34.545 42.9016 34.3322C42.9831 34.314 43.0154 34.3448 42.9939 34.4281C42.7475 34.6708 42.7108 34.9778 42.761 35.2965C42.8953 36.1459 43.285 36.8196 44.0895 37.1927V37.1909Z" fill="#4B261D"/>
<path d="M38.1217 18.9137C38.093 18.9137 38.0652 18.911 38.0375 18.9038C38.8966 18.2771 39.8202 17.7601 40.7652 17.2801C41.6243 17.0529 42.4467 16.7006 43.3246 16.5349C44.7059 16.2741 46.0282 16.3438 47.2331 17.1715C47.5206 17.3698 47.7544 17.6088 47.8548 17.9575C47.3155 17.7564 46.804 17.4884 46.2235 17.3942C44.9353 17.1851 43.6677 17.2675 42.3956 17.5355C40.922 17.847 39.5281 18.3948 38.1226 18.9128L38.1217 18.9137Z" fill="#6C3424"/>
<path d="M43.2341 31.486C43.2269 31.6816 43.3156 31.7668 43.5127 31.7568C43.6793 31.7477 43.8477 31.7613 44.0152 31.7649C44.0403 31.994 43.802 32.0864 43.7537 32.2775L43.7572 32.272C43.5808 32.5156 43.467 32.7846 43.3953 33.0789C43.3541 33.2509 43.312 33.4474 43.0863 33.4891C42.2836 33.2138 41.4863 32.9113 40.8369 32.3436C39.9169 31.5386 39.082 30.6539 38.5911 29.4875C39.1187 30.0028 39.6768 30.47 40.32 30.8241C41.034 31.2171 41.7847 31.4933 42.5981 31.5866C42.8901 31.6201 43.0791 31.5331 43.1499 31.2343C43.2439 31.2959 43.1579 31.419 43.235 31.486H43.2341Z" fill="#6C3424"/>
<path d="M40.052 21.0508C39.9141 20.6297 40.1371 20.378 40.4104 20.1932C41.1306 19.707 41.9422 19.5421 42.7995 19.5947C43.01 19.6073 43.1516 19.7314 43.1471 19.9514C43.1417 20.2159 42.9446 20.2629 42.7305 20.2729C40.9255 20.3553 40.9505 20.5482 40.052 21.0517V21.0508Z" fill="#11051D"/>
<path d="M43.0861 33.5633C43.3003 33.3107 43.3217 32.972 43.474 32.694C43.5439 32.5664 43.5959 32.4061 43.7571 32.3463C43.6881 32.6442 43.4714 32.9032 43.5135 33.2944C44.4523 32.8172 45.3866 32.9259 46.3245 33.1984C45.7629 33.1984 45.2021 33.1984 44.6404 33.1984C44.2803 33.1984 43.9408 33.2817 43.6192 33.4483C43.4884 33.5163 43.3701 33.5968 43.3038 33.7245C43.2537 33.8214 43.1928 33.9582 43.2241 34.0433C43.2805 34.1945 43.4266 34.0777 43.5206 34.0596C44.3439 33.9011 45.1062 34.0795 45.8417 34.4517C44.8921 34.2144 43.9452 34.0668 42.9939 34.4272C42.9634 34.3955 42.9321 34.3629 42.9016 34.3312C42.9634 34.075 43.0243 33.8187 43.0861 33.5633Z" fill="#4B261D"/>
<path d="M46.6936 19.3367C47.1012 19.324 47.447 19.4553 47.7928 19.5793C47.9674 19.6418 48.0669 19.7777 48.092 19.9624C48.1126 20.1145 48.0758 20.2368 47.8895 20.1716C47.3216 19.9732 46.7482 20.0285 46.1695 20.1027C46.011 20.1227 45.8023 20.1679 45.7395 19.9406C45.6724 19.6998 45.8372 19.5703 46.0244 19.477C46.2439 19.3665 46.4786 19.3213 46.6936 19.3367Z" fill="#11051D"/>
<path d="M52.7942 43.7225C53.3281 44.6226 53.7778 45.5607 54.0681 46.5713C54.0779 46.7497 54.0869 46.929 54.0967 47.1074C53.4007 45.2592 52.3167 43.6075 51.5051 41.8191C51.9423 42.1713 52.0372 42.74 52.3409 43.1801C52.478 43.3793 52.5962 43.5803 52.7942 43.7225Z" fill="#4B261D"/>
<path d="M42.3937 22.6327C42.3937 23.1018 42.202 23.3906 41.8938 23.387C41.617 23.3834 41.385 23.0619 41.3751 22.668C41.3644 22.2487 41.5892 21.9074 41.8804 21.901C42.2091 21.8938 42.3937 22.1573 42.3937 22.6336V22.6327Z" fill="#11051D"/>
<path d="M44.9853 22.2298C45.074 22.2271 45.1044 22.2914 45.1322 22.3566C45.4314 23.0529 45.7342 23.7484 46.0262 24.4475C46.1561 24.7581 46.1767 25.0931 46.1319 25.4218C46.0773 25.8148 45.9492 26.1734 45.5282 26.3337C45.074 26.5057 44.6368 26.5863 44.2167 26.2051C44.4102 26.0747 44.5598 26.2187 44.7174 26.2304C45.5846 26.2938 46.1687 25.5323 45.9089 24.6512C45.6939 23.9204 45.3185 23.2549 45.0471 22.5468C45.0095 22.4481 44.9038 22.3548 44.9862 22.2298H44.9853Z" fill="#11051D"/>
<path d="M47.3073 22.2714C47.2992 22.7776 47.0995 23.0801 46.8047 23.0438C46.3425 22.9868 46.3927 22.6074 46.3864 22.2841C46.3801 21.9563 46.4742 21.6475 46.8594 21.6566C47.2679 21.6665 47.2204 22.0604 47.3064 22.2714H47.3073Z" fill="#11051D"/>
<path d="M41.9906 27.4257C43.3728 28.1727 44.7372 28.4435 46.149 27.5289C46.0496 28.0686 45.0203 28.3882 43.8037 28.285C42.7234 28.1926 42.004 27.8449 41.9906 27.4257Z" fill="#11051D"/>
<path d="M43.234 31.5603C43.131 31.5024 43.1677 31.3955 43.1489 31.3086C43.1964 30.9265 43.4221 30.6657 43.7097 30.4375C44.5867 29.7448 46.1293 29.675 47.0538 30.3207C46.6256 30.2283 46.2413 30.1115 45.8489 30.0671C44.945 29.9648 44.1343 30.1794 43.5153 30.9038C43.3568 31.0895 43.243 31.305 43.234 31.5603Z" fill="#4B261D"/>
<path d="M43.7527 32.3518C43.707 32.1118 43.9095 32.0013 44.0143 31.8392C45.367 31.2869 45.9627 31.2923 47.5357 31.9126C47.0081 31.9352 46.6157 31.7867 46.2162 31.7215C45.2998 31.573 44.4326 31.5721 43.7536 32.3509L43.7527 32.3518Z" fill="#4B261D"/>
<path d="M45.5668 39.5797C45.0857 39.4366 44.8456 39.0337 44.6575 38.6262C44.4622 38.2024 44.2992 37.7496 44.3458 37.2588C44.3798 37.0324 44.3932 36.8015 44.4515 36.5824C44.5509 36.2084 44.4595 35.9739 44.051 35.8978C44.3466 35.743 44.4962 35.9286 44.6145 36.1559C44.7112 36.3424 44.6862 36.5444 44.6432 36.7436C44.4022 37.871 44.6494 38.8372 45.5659 39.5797H45.5668Z" fill="#4B261D"/>
<path d="M6.48756 70.019C5.67505 69.7292 4.90823 69.3435 4.1853 68.8708C4.42628 68.7838 4.56871 68.9831 4.74698 69.0736C5.01125 69.2076 5.27014 69.3525 5.59084 69.5246C5.26656 68.878 4.81417 68.3845 4.60634 67.7561C4.51676 67.4862 4.43703 67.2118 4.36447 66.9366C4.33938 66.8415 4.3358 66.7229 4.4218 66.6549C4.53826 66.5617 4.592 66.6948 4.66367 66.75C5.52455 67.412 6.46426 67.9163 7.51148 68.2061C7.04655 68.5756 6.92919 69.156 6.67389 69.6495C6.61207 69.769 6.54489 69.894 6.48756 70.0199V70.019Z" fill="#3C2774"/>
<path d="M25.7656 67.0805C25.7342 67.0823 25.702 67.0841 25.6706 67.0859C25.2173 66.9175 24.8841 66.5553 24.4729 66.3144C24.2239 66.1686 23.9874 66.0002 23.7186 65.8897C23.8826 65.7956 24.0465 65.7014 24.2095 65.6072C24.3081 65.5547 24.3421 65.6262 24.3762 65.696C24.6377 65.9196 24.911 65.8608 25.151 65.6842C25.6832 65.293 26.1472 64.833 26.4043 64.2037C26.4984 63.9746 26.716 63.8107 26.7366 63.5453C27.189 63.1161 27.4587 62.5556 27.7803 62.0358C27.9953 61.689 28.1619 61.3087 28.2631 60.9057C28.316 60.6956 28.419 60.5426 28.6564 60.5317C28.3706 60.8451 28.3187 61.267 28.1502 61.6347C27.6996 62.6199 27.2419 63.6015 26.7805 64.5813C26.6265 64.9091 26.656 65.2948 26.3649 65.5918C26.0728 65.8897 25.7235 66.0953 25.4063 66.347C25.2111 66.5019 25.0695 66.5798 25.3669 66.7609C25.5103 66.8487 25.633 66.9719 25.7647 67.0787L25.7656 67.0805Z" fill="#3C2774"/>
<path d="M22.9132 65.3465C23.3853 64.1268 23.5797 62.8101 24.1987 61.6393C23.8395 62.9079 23.4193 64.1594 23.1121 65.4434C23.0458 65.4108 22.9795 65.3791 22.9132 65.3465Z" fill="#FFB79C"/>
<path d="M23.6361 73.1222C23.7257 73.2517 23.5439 73.2807 23.5439 73.3776C22.8774 73.5813 22.3238 73.2155 21.7379 73.0117C21.7334 73.0099 21.7316 72.9846 21.7361 72.9728C21.7406 72.9601 21.754 72.9511 21.763 72.9402C22.0971 73.047 22.4277 73.1639 22.7654 73.2571C23.07 73.3422 23.3764 73.3658 23.637 73.1222H23.6361Z" fill="#E6B5C9"/>
<path d="M10.4999 58.7225C10.5438 58.6573 10.6074 58.6265 10.679 58.6573C11.0598 58.8212 11.4378 58.9923 11.8194 59.1553C11.926 59.2015 11.9466 59.2513 11.857 59.3328C11.4047 59.129 10.9523 58.9262 10.4999 58.7225Z" fill="#3C2774"/>
<path d="M20.5895 20.7872C20.4614 20.3544 20.6647 20.0873 20.9729 19.8998C21.5176 19.5684 22.1222 19.5222 22.7341 19.6236C22.9598 19.6608 23.1748 19.7966 23.1363 20.0882C23.0978 20.3798 22.8676 20.3662 22.6472 20.3671C21.557 20.3707 21.505 20.3825 20.5895 20.7872Z" fill="#11051D"/>
<path d="M27.068 19.5431C27.4532 19.5567 27.7936 19.6572 28.0632 19.9524C28.2111 20.1145 28.2111 20.3119 28.1277 20.4704C28.0337 20.6497 27.8751 20.4876 27.7623 20.445C27.4263 20.3183 27.0868 20.2576 26.7276 20.2784C26.5574 20.2884 26.3325 20.3681 26.277 20.1C26.2223 19.8356 26.4087 19.7034 26.612 19.6237C26.7527 19.5685 26.9139 19.5676 27.0662 19.5422L27.068 19.5431Z" fill="#11051D"/>
<path d="M45.3624 14.5347C39.8388 16.4046 40.5465 16.5884 38.7898 17.9005C39.1248 16.8275 42.8747 14.8951 45.3624 14.5347Z" fill="#FAA113"/>
<path d="M25.779 24.6683C25.8301 24.7263 25.882 24.7842 25.9331 24.8422C25.9994 25.1175 26.0737 25.3909 26.132 25.668C26.2377 26.1751 26.114 26.5147 25.7665 26.704C25.3329 26.9412 24.7846 26.8751 24.4174 26.5147C24.7945 26.5935 25.1358 26.579 25.4726 26.4839C25.865 26.3725 26.0334 26.0873 25.9617 25.6726C25.9035 25.3375 25.7512 25.0197 25.7799 24.6683H25.779Z" fill="#11051D"/>
<path d="M22.2655 21.3034C23.362 21.3088 24.0563 22.0459 24.0554 23.2041C24.0554 24.5171 23.1739 25.5747 22.0855 25.5702C20.9541 25.5657 20.0986 24.595 20.1111 23.3299C20.1218 22.218 21.101 21.297 22.2655 21.3034Z" fill="#FFCDBA"/>
<path d="M28.6733 24.6674C28.1618 25.2551 27.5222 25.4253 26.7993 25.189C26.0109 24.9309 25.7825 24.24 25.6849 23.5156C25.5353 22.4081 26.1919 21.4827 27.2418 21.2681C27.8653 21.1404 28.3607 21.4274 28.8175 21.8114C28.8229 21.8675 28.8489 21.9264 28.8355 21.9798C28.633 22.7884 28.5318 23.5998 28.7405 24.4247C28.7611 24.508 28.7082 24.5895 28.6742 24.6674H28.6733Z" fill="#FFCDBA"/>
<path d="M28.6733 24.6674C28.5121 23.8597 28.3894 23.0529 28.6653 22.2442C28.7145 22.0994 28.7665 21.9554 28.8176 21.8114C29.5691 22.5394 29.5029 23.8479 28.6733 24.6683V24.6674Z" fill="#FDFAF9"/>
<path d="M43.4059 61.2145C43.3674 61.1231 43.3334 61.0434 43.3827 60.932C43.9972 59.5402 44.7318 58.2299 45.8426 57.1705C45.9357 57.0817 46.0244 56.9885 46.2555 56.9486C45.237 58.1348 44.4209 59.3591 44.1799 60.8804C43.9318 61.0144 43.6863 61.1557 43.4059 61.2145Z" fill="#FAA113"/>
<path d="M46.9096 59.3464C48.1628 58.2462 49.477 57.2311 50.9569 56.4551C51.6126 56.111 52.2863 55.8194 53.0343 55.756C53.1319 55.8846 53.0253 56.0132 53.0334 56.1417C52.9546 56.0467 52.9393 55.9181 52.7279 55.9941C51.0644 56.5891 49.6445 57.6096 48.2014 58.5921C47.8386 58.8393 47.4802 59.0928 47.1192 59.3437C47.0493 59.3926 46.9804 59.456 46.9087 59.3464H46.9096Z" fill="#6C3424"/>
<path d="M24.3761 65.6969C24.3206 65.667 24.265 65.638 24.2095 65.6081C24.6807 64.5016 25.1976 63.4186 25.8488 62.4008C25.4072 63.3679 24.9646 64.3341 24.523 65.3012C24.4648 65.4288 24.3653 65.542 24.3761 65.6969Z" fill="#FFB79C"/>
<path d="M22.0909 62.9757C22.0595 62.9703 22.029 62.964 21.9977 62.9585C21.995 62.0765 22.4519 61.3458 22.7806 60.5734C22.5504 61.3748 22.3211 62.1752 22.0909 62.9766V62.9757Z" fill="#FFB79C"/>
<path d="M21.9896 64.5958C21.8866 64.3015 21.8973 64.0063 21.9869 63.712C21.9869 64.0063 21.9887 64.3015 21.9896 64.5958Z" fill="#9E6A65"/>
<path d="M49.6319 69.5544C51.2542 70.6655 53.0888 71.1463 54.9996 71.3899C55.7449 71.485 56.4938 71.5547 57.2463 71.4832C57.3968 71.4687 57.4757 71.513 57.5482 71.6425C57.6593 71.8399 57.7937 72.0247 57.9173 72.2148C58.1789 72.6504 58.548 72.98 58.9493 73.2779L58.9403 73.2707C59.046 73.4599 59.3246 73.4889 59.3632 73.7397C59.2377 73.8439 59.0729 73.8412 58.9314 73.9036C58.7791 73.9715 58.6581 73.9453 58.5928 73.7705C58.5551 73.6691 58.5363 73.4943 58.4037 73.5306C58.2291 73.5795 58.04 73.5731 57.8779 73.6582C57.8241 73.6863 57.8313 73.7578 57.8653 73.8095C57.9075 73.8756 57.9719 73.9145 58.0445 73.8783C58.462 73.6691 58.5005 73.9181 58.4844 74.2423C58.4772 74.3808 58.5829 74.4732 58.6313 74.5891C58.7486 74.8707 58.7522 75.1279 58.4199 75.2737C57.0743 75.2139 55.7476 75.0509 54.4944 74.5085C53.9497 74.2722 53.8109 73.7578 54.1755 73.3141C54.2274 73.2517 54.3224 73.1991 54.2776 73.1004C54.2337 73.0044 54.1307 73.0343 54.0501 73.0334C53.4015 73.0307 52.7529 73.0515 52.1052 73.028C50.7785 72.9791 49.4545 72.8931 48.1932 72.4177C47.8304 72.2809 47.5115 72.069 47.2472 71.7793C47.0904 71.6072 46.9292 71.4261 47.0286 71.1726C47.1245 70.9272 47.2642 70.7107 47.5724 70.6999C47.6217 70.6981 47.6691 70.6673 47.7175 70.6492C47.7175 70.6093 47.7157 70.5704 47.7148 70.5305H46.226C46.0988 70.4273 45.9563 70.3992 45.7996 70.4463C45.5443 70.4463 45.2881 70.4454 45.0327 70.4445C44.9226 70.1991 45.1474 70.1883 45.2719 70.0986C44.6296 69.7129 43.9201 69.9039 43.242 69.8414C43.0996 69.8414 42.9571 69.8414 42.8156 69.8414C42.7466 69.8107 42.6884 69.7599 42.6929 69.683C42.7072 69.4249 43.2698 68.9866 43.5161 69.0518C43.8171 69.1315 44.128 69.1768 44.4146 69.3072C45.2925 69.7083 46.2116 69.9782 47.1702 70.0524C47.6485 70.0896 48.1448 70.057 48.6062 69.8577C48.9215 69.6603 49.2467 69.4982 49.6346 69.5526L49.6319 69.5544Z" fill="#E0B1E4"/>
<path d="M11.3204 73.2752C12.4053 72.7274 13.586 72.482 14.746 72.1741C15.8148 71.8897 16.9086 71.7295 17.9979 71.5502C18.461 71.5764 18.8596 71.8073 19.2798 71.9667C20.1102 72.2818 20.9353 72.6142 21.7621 72.9392C22.3336 73.2064 22.8971 73.5124 23.5618 73.2888C23.8619 73.2824 24.1692 73.3413 24.4083 73.057C24.5329 72.9094 24.6959 72.9963 24.8052 73.1258C24.9494 73.2969 25.3015 73.3775 25.0766 73.7216C24.858 73.7886 24.6368 73.8076 24.4074 73.8113C23.036 73.833 21.6645 73.9009 20.293 73.8846C18.667 73.8656 17.0376 73.8312 15.417 73.7017C14.3268 73.6148 13.3208 73.9091 12.3085 74.1744C11.384 74.4171 10.5052 74.8345 9.58703 75.1107C9.00117 75.2864 8.38036 75.3443 7.76135 75.4141C8.6303 75.3072 9.2296 74.7277 9.87459 74.2296C10.3279 73.8801 10.8403 73.632 11.3446 73.3712C11.3545 73.3658 11.367 73.3467 11.3643 73.3413C11.3518 73.3178 11.3348 73.2969 11.3186 73.2743L11.3204 73.2752Z" fill="#E0B1E4"/>
<path d="M44.3456 69.4122C44.0858 69.1831 43.7382 69.2058 43.4372 69.0917C43.3916 69.0745 43.2894 69.0862 43.2805 69.1098C43.1855 69.3688 42.958 69.4883 42.7654 69.6477C42.743 69.6658 42.7958 69.7754 42.8138 69.8433C42.7197 69.8713 42.6247 69.9266 42.5316 69.9248C41.3876 69.8985 40.2517 70.114 39.0979 69.951C38.3642 69.8469 37.6037 69.9166 36.8566 69.9356C36.5197 69.9447 36.311 69.884 36.3083 69.4847C36.3074 69.3407 36.2017 69.1967 36.1417 69.0536C36.139 69.0482 36.1148 69.0473 36.1032 69.0518C36.0906 69.0564 36.0817 69.0699 36.0709 69.079C35.46 67.8013 34.411 67.2607 33.0502 67.2471C32.5835 67.2426 32.115 67.2299 31.6545 67.3331C31.7414 67.1077 31.9681 67.1729 32.1275 67.1176C32.8352 66.8731 33.5026 66.539 34.179 66.2239C35.2477 66.8052 36.4087 67.1285 37.5616 67.4771C39.7071 68.1255 41.8946 68.6 44.0688 69.1297C44.1369 69.146 44.2094 69.1397 44.2802 69.1442C44.3886 69.1496 44.4056 69.2239 44.4074 69.3117C44.3976 69.3525 44.377 69.386 44.3456 69.4122Z" fill="#E0B1E4"/>
<path d="M67.1791 74.7441C68.4646 74.5457 69.7555 74.3764 71.0231 74.0685C72.0399 73.8222 73.07 73.6112 74.0313 73.1902C74.6135 72.9357 75.2164 72.9511 75.8157 72.8868C76.0854 72.8578 76.3075 72.7772 76.4974 72.5898C76.7447 72.4775 76.966 72.6061 77.189 72.6749C77.5518 72.7872 77.9128 72.9022 78.2676 73.0389C78.367 73.0924 78.4709 73.1431 78.4826 73.2771C78.5623 73.5768 78.883 73.4709 79.0541 73.6212C79.1114 73.6719 79.2422 73.652 79.2485 73.7552C79.2566 73.882 79.1294 73.9037 79.0434 73.9354C78.7182 74.054 78.3742 73.9816 78.0365 74.0359C76.8683 74.2234 75.6912 74.3511 74.5177 74.4977C73.148 74.6689 71.7792 74.8491 70.4077 75.0003C69.6086 75.0882 68.8051 75.1352 68.0024 75.185C66.6408 75.2702 65.2782 75.348 63.9157 75.4205C63.5054 75.4422 63.0942 75.4368 62.683 75.444C62.3919 75.0972 62.4259 74.9732 62.8568 74.8265C63.6254 74.9279 64.3976 74.9505 65.1698 74.9215C65.8283 74.8971 66.4876 74.8536 67.1451 74.802C67.1559 74.802 67.1702 74.8038 67.1836 74.7984C67.2239 74.7803 67.2221 74.7603 67.1791 74.7431V74.7441Z" fill="#E0B1E4"/>
<path d="M25.0775 73.7217C25.1519 73.3351 24.6789 73.3496 24.6099 73.0688C24.5598 73.0842 24.4773 73.086 24.463 73.1186C24.2552 73.5732 23.878 73.3948 23.5439 73.3776C23.4857 73.2599 23.6147 73.211 23.6362 73.1223C23.835 72.8642 24.0348 72.6061 24.2337 72.348C25.5523 72.4178 26.8307 72.7347 28.1206 72.9864C29.6328 73.2816 31.1315 73.6792 32.6947 73.5642C33.939 73.4727 34.9889 72.9973 35.7736 71.9895C35.8668 71.9831 35.9286 71.9324 35.9796 71.8563C36.0889 71.6943 36.1024 71.39 36.2914 71.3846C36.4338 71.3809 36.5807 71.6227 36.7286 71.7513C36.8997 71.9007 37.0994 72.0239 37.2436 72.1959C37.6396 72.6668 37.3637 73.307 36.7474 73.5497C35.925 73.872 35.0614 73.9282 34.2113 73.9617C32.6365 74.0242 31.0562 74.0097 29.4805 73.9698C28.0122 73.9327 26.5512 73.7154 25.0784 73.7208L25.0775 73.7217Z" fill="#E0B1E4"/>
<path d="M6.4874 70.0189C6.40767 70.3739 6.32705 70.7298 6.24732 71.0847C6.21866 71.0567 6.20432 70.8448 6.15326 71.0503C6.06189 71.4216 6.00008 71.8074 5.98485 72.1886C5.97231 72.5082 5.95976 72.6232 5.60323 72.443C4.77997 72.0265 4.02927 71.5429 3.55718 70.7089C3.36637 70.373 3.2741 70.0198 3.3592 69.6377C3.48283 69.0826 3.70051 68.8952 4.18694 68.9024L4.18515 68.8707C4.92509 69.3108 5.76627 69.5408 6.4874 70.0189Z" fill="#E0B1E4"/>
<path d="M58.419 75.2738C58.6009 75.0021 58.7379 74.7332 58.411 74.4633C58.3733 74.4316 58.3411 74.3556 58.351 74.3094C58.4423 73.8883 58.4486 73.6864 57.9855 74.0721C57.8484 74.1862 57.7597 73.8729 57.6863 73.7452C57.5958 73.5886 57.7678 73.5089 57.8815 73.4917C58.0482 73.4663 58.2022 73.5198 58.3617 73.355C58.4853 73.2282 58.643 73.4247 58.651 73.5487C58.6708 73.863 58.7559 73.9227 59.0228 73.7425C59.1025 73.6891 59.2432 73.7262 59.3552 73.7226C59.6821 73.6991 59.8783 73.978 60.1533 74.0748C60.3244 74.2514 60.4937 74.4307 60.7768 74.342C60.9551 74.3719 61.1298 74.4126 61.2794 74.524C61.3493 74.6942 61.609 74.8527 61.4505 75.0302C61.308 75.1896 61.1504 75.5201 60.8207 75.2792C60.7867 75.3317 60.8494 75.3924 60.8064 75.444C60.5511 75.4087 60.2796 75.5291 60.0387 75.3598C59.7896 75.1877 59.4958 75.2466 59.2217 75.2022C59.2136 75.2004 59.2181 75.3082 59.1859 75.3571C58.9305 75.3218 58.6591 75.4431 58.4181 75.2729L58.419 75.2738Z" fill="#E0B1E4"/>
<path d="M60.8063 75.4449C60.7553 75.3788 60.7042 75.3118 60.6532 75.2457C60.6021 75.1795 60.5277 75.1071 60.6352 75.0401C60.697 75.0012 60.7768 75.0301 60.8216 75.0917C60.9013 75.2013 60.9461 75.4358 61.1253 75.2031C61.2292 75.0673 61.5857 74.9722 61.2596 74.7051C61.2345 74.6851 61.2417 74.6254 61.2336 74.5837C61.4164 74.4624 61.5884 74.5647 61.7541 74.6227C62.0847 74.7377 62.4367 74.7467 62.7682 74.8527C62.5514 75.0229 62.5621 75.2257 62.6831 75.4458C62.598 75.4458 62.5129 75.4458 62.4269 75.4458C62.2961 75.2792 62.176 75.098 61.9431 75.1017C61.8992 75.0437 61.9028 75.1515 61.9261 75.099C62.082 75.1859 62.1062 75.3009 62.0005 75.4449C61.6027 75.4449 61.2041 75.4449 60.8063 75.4449Z" fill="#E0B1E4"/>
<path d="M43.2413 69.8424C43.2807 69.7628 43.3381 69.6731 43.4286 69.7003C43.7654 69.8017 44.1067 69.7972 44.4453 69.7446C44.8834 69.6758 45.1862 70.0217 45.6385 70.067C45.4289 70.268 45.076 70.1132 45.0312 70.4464C44.5573 70.2979 44.0485 70.2436 43.6498 69.895C43.5387 69.7972 43.3784 69.8551 43.2413 69.8433V69.8424Z" fill="#E0B1E4"/>
<path d="M59.1866 75.3588C59.1499 75.2329 58.9349 75.1397 59.063 74.9966C59.1759 74.8707 59.2726 75.069 59.3864 75.1007C59.6704 75.1786 59.9517 75.1822 60.2294 75.089C60.2759 75.3144 60.0645 75.252 60.0386 75.3615C59.7546 75.3615 59.4706 75.3597 59.1857 75.3588H59.1866Z" fill="#E0B1E4"/>
<path d="M62.0006 75.4448C62.0275 75.2456 61.9236 75.1333 61.7363 75.0654C62.2873 74.9685 62.3786 75.0201 62.427 75.4439C62.2846 75.4439 62.143 75.4439 62.0006 75.4439V75.4448Z" fill="#E0B1E4"/>
<path d="M45.7987 70.4473C46.0101 70.1177 46.1051 70.3866 46.2251 70.5315C46.0809 70.5134 45.9187 70.5885 45.7987 70.4473Z" fill="#E0B1E4"/>
<path d="M62.7683 74.8517C62.2362 74.8834 61.7533 74.6235 61.2338 74.5828C61.0842 74.4605 60.9077 74.4216 60.7214 74.4116C60.4804 74.4261 60.3093 74.2731 60.1247 74.1536C59.8865 73.977 59.632 73.8285 59.3552 73.7216C59.2209 73.5668 58.9942 73.4989 58.9396 73.2698C60.1848 74.1988 61.6243 74.6652 63.1266 74.811C64.1801 74.9133 65.265 74.9368 66.3319 74.7684C66.6087 74.725 66.8971 74.7503 67.1793 74.7431C67.2671 74.7793 67.3782 74.715 67.4722 74.8264C66.4223 74.9033 65.3895 75.0537 64.3566 74.9966C63.8298 74.9676 63.287 75.0048 62.7683 74.8517Z" fill="#E0B1E4"/>
<path d="M44.3591 69.2792C45.7145 69.8705 47.1057 70.2155 48.5919 69.9185C48.6188 69.9266 48.66 69.9257 48.6707 69.9438C48.7316 70.0425 48.6349 70.0108 48.6008 70.019C47.8824 70.1793 47.1541 70.2617 46.4321 70.0869C45.7217 69.9149 45.0095 69.7374 44.3457 69.4123C44.3502 69.3679 44.3547 69.3235 44.3591 69.2792Z" fill="#E0B1E4"/>
<path d="M60.1246 74.1545C60.3396 74.2034 60.5349 74.2958 60.7213 74.4117C60.414 74.582 60.2778 74.3483 60.1246 74.1545Z" fill="#D9A4BA"/>
<path d="M63.1301 29.6044C62.6607 29.6343 62.1456 29.3346 61.7676 28.7732C61.6905 28.6591 61.5929 28.5241 61.6905 28.3793C61.8079 28.2045 61.9431 28.3476 62.0668 28.3856C63.1964 28.7333 64.2418 28.4915 65.2389 27.9202C65.349 27.8568 65.4476 27.7717 65.5578 27.7083C65.6366 27.663 65.7092 27.5643 65.8211 27.6431C65.9295 27.7191 65.9457 27.8314 65.9268 27.9482C65.8865 28.1936 65.7719 28.4046 65.6052 28.5866C64.997 29.2522 64.2427 29.5845 63.131 29.6035L63.1301 29.6044Z" fill="#11051D"/>
<path d="M65.3472 21.1432C65.8516 21.1721 66.3667 21.2491 66.8047 21.5914C66.9301 21.6892 67.0466 21.7942 67.0905 21.9554C67.1129 22.0387 67.1299 22.1302 67.0699 22.2017C66.9937 22.2923 66.9113 22.2153 66.8406 22.1854C66.2278 21.9283 65.5846 21.8404 64.9271 21.8459C64.7291 21.8477 64.5311 21.8486 64.5043 21.6032C64.4819 21.3931 64.6252 21.2681 64.8151 21.1939C64.9817 21.1296 65.151 21.1531 65.3472 21.1414V21.1432Z" fill="#B95D34"/>
<path d="M59.8433 21.8559C59.7887 21.3542 60.0144 21.1088 60.3826 20.9847C60.8672 20.8208 61.3608 20.8706 61.8464 20.9884C62.0623 21.0409 62.1931 21.2066 62.1626 21.433C62.1294 21.6784 61.9252 21.6883 61.7344 21.6603C61.1028 21.5679 60.4731 21.4782 59.8442 21.8559H59.8433Z" fill="#B85A31"/>
<path d="M60.3827 23.7954C60.3827 23.6886 60.3827 23.6741 60.3827 23.6605C60.3997 23.2286 60.6174 22.9216 60.8942 22.9388C61.1827 22.956 61.3582 23.3282 61.2848 23.7655C61.2821 23.78 61.2767 23.7927 61.274 23.8072C61.2248 24.1033 61.1379 24.4266 60.7858 24.3985C60.4051 24.3677 60.397 24.01 60.3836 23.7963L60.3827 23.7954Z" fill="#11051D"/>
<path d="M62.9796 26.8453C62.5514 27.1568 62.0417 27.1541 61.669 26.915C61.3143 26.6868 61.213 26.3183 61.3367 25.9742C61.6914 24.9871 62.2504 24.0843 62.5308 23.0602C62.5218 23.6316 62.2997 24.135 62.09 24.6403C61.9422 24.9962 61.7559 25.3358 61.6027 25.6907C61.3725 26.2259 61.5078 26.5283 62.047 26.7267C62.3158 26.8254 62.598 26.8489 62.9805 26.8462L62.9796 26.8453Z" fill="#11051D"/>
<path d="M65.8893 23.9023C65.8839 24.3396 65.677 24.6511 65.4109 24.6077C65.0365 24.547 64.9836 24.2473 64.9845 23.9312C64.9863 23.6089 65.0687 23.291 65.4378 23.282C65.8382 23.2711 65.8409 23.6397 65.8893 23.9032V23.9023Z" fill="#11051D"/>
<path d="M70.4266 27.9454C70.3979 28.3267 70.3692 28.707 70.3415 29.0882C70.1497 29.3399 70.0342 29.6723 69.5657 29.7574C69.9303 29.1434 70.1775 28.544 70.4266 27.9454Z" fill="#FFB79C"/>
<path d="M22.8622 23.0973C22.8622 23.6034 22.5692 23.9983 22.2002 23.9901C21.8795 23.9829 21.6609 23.6777 21.6654 23.2467C21.6707 22.7631 21.9466 22.3629 22.2835 22.3484C22.6221 22.3339 22.8613 22.6436 22.8613 23.0982L22.8622 23.0973Z" fill="#11051D"/>
<path d="M26.5986 23.1642C26.5852 22.8727 26.6703 22.5756 26.9623 22.3891C27.1048 22.2985 27.2615 22.333 27.3896 22.4561C27.6539 22.7115 27.6261 23.0266 27.5428 23.3354C27.4658 23.6197 27.3153 23.9185 26.982 23.876C26.6389 23.8316 26.595 23.5092 26.5995 23.1642H26.5986Z" fill="#11051D"/>
<path d="M25.4201 28.5152C24.0193 30.1693 22.0629 29.6508 21.4727 27.4864C21.3375 27.1966 21.841 27.4339 22.022 27.4864C23.1355 27.8141 24.23 28.2265 25.4778 27.9384C25.5845 27.9143 25.6929 27.9259 25.7336 28.0861C25.6845 28.3181 25.519 28.3634 25.4201 28.5152Z" fill="#FDFDFC"/>
</g>
<defs>
<clipPath id="clip0_153_9458">
<rect width="84" height="82" fill="white"/>
</clipPath>
</defs>
</svg>
