<svg width="123" height="84" viewBox="0 0 123 84" fill="none" xmlns="http://www.w3.org/2000/svg">
<g clip-path="url(#clip0_153_9249)">
<path d="M120.068 50.9614L119.745 53.1645C119.897 53.4544 119.798 53.7507 119.745 54.0342C119.212 56.8976 118.771 59.7787 118.08 62.6115C118.026 62.8305 118.008 63.064 117.801 63.2138C117.52 63.7517 117.326 64.3331 116.912 64.8049C116.383 65.4056 115.696 65.7374 114.967 66.0128C114.879 66.2254 114.67 66.2415 114.489 66.2801C113.549 66.4814 112.603 66.6554 111.644 66.7455C110.517 66.9662 109.37 67.0258 108.229 67.1256C106.65 67.2641 105.071 67.4316 103.481 67.3752C102.286 67.583 101.082 67.4719 99.8833 67.4767C99.2813 67.4702 98.6728 67.5765 98.079 67.3946C97.8017 67.2142 97.8098 66.9259 97.7984 66.6473C97.7658 65.8791 97.8751 65.1174 97.9615 64.3588C98.1915 62.3361 98.3221 60.3053 98.5293 58.2794C98.5602 57.9846 98.5113 57.6883 98.5113 57.392C98.7479 55.759 98.8082 54.1083 98.9697 52.4688C99.0023 52.1081 99.0937 51.7538 99.0856 51.3898C99.1851 50.0515 99.2862 48.7148 99.6859 47.4216C99.7658 47.0818 99.9796 46.8 100.115 46.4843C100.735 45.262 101.774 44.5598 103.079 44.2329C104.812 43.7997 106.585 43.6467 108.368 43.5823C108.579 43.5742 108.792 43.5871 108.988 43.6854C109.319 43.9173 109.688 43.9881 110.091 43.9865C111.965 43.9785 113.838 43.9865 115.713 43.9801C116.104 43.9785 116.51 43.9978 116.85 43.6773C114.337 43.5646 111.825 43.5952 109.316 43.5919C109.065 43.4373 109.244 43.2747 109.339 43.1603C110.295 42.0218 110.362 40.6368 110.318 39.2824C110.264 37.5946 110.115 35.902 109.724 34.2464C109.03 31.3218 108.347 28.3924 107.132 25.6208C106.68 24.5901 106.13 23.6158 105.358 22.7784C105.202 22.6077 105.066 22.4273 105.047 22.1857C105.061 21.8813 104.929 21.5496 105.207 21.2903C108.184 20.9972 111.166 21.0632 114.145 21.2114C115.566 21.2806 116.993 21.374 118.372 21.7928C120.856 22.5448 122.281 24.2262 122.824 26.6918C123.171 28.27 122.94 29.8451 122.772 31.4169C122.631 32.7294 122.454 34.0371 122.294 35.3464C122.168 36.1114 122.026 36.8747 121.989 37.651C122.166 37.9924 122.038 38.3418 121.989 38.6768C121.449 42.3728 120.971 46.0769 120.422 49.7713C120.36 50.1852 120.298 50.5975 120.072 50.963L120.068 50.9614Z" fill="#E56990"/>
<path d="M67.0467 71.6317C66.8379 71.5641 66.6307 71.4964 66.4219 71.4288C66.1576 71.3096 66.1593 71.089 66.1935 70.8539C66.3909 69.4431 66.5883 68.0339 66.7824 66.6232C66.8151 66.3832 66.8346 66.1417 66.8608 65.9001C66.7482 65.5297 66.8689 65.1673 66.9325 64.813C67.5492 61.4101 68.1218 57.9976 69.055 54.6607C69.3698 53.535 69.745 52.427 70.3568 51.4076C71.2475 49.9211 72.6016 49.0225 74.1677 48.3718C75.7208 47.7212 77.3783 47.5424 79.0276 47.3524C80.8009 47.1463 82.5841 47.0722 84.3639 46.945C84.5238 46.9337 84.682 46.9353 84.8386 46.9643C85.0735 47.0496 85.328 47.0271 85.5662 47.0867C85.6478 47.1076 85.7408 47.1382 85.7392 47.2493C85.7375 47.3315 85.6674 47.3653 85.607 47.3975C85.4504 47.4812 85.2742 47.5135 85.1045 47.5618C83.8631 47.9129 82.6314 48.2881 81.4943 48.9129C80.1125 49.6731 79.2413 50.8439 78.7193 52.2885C78.1581 53.8458 77.9509 55.4756 77.729 57.1005C77.4142 59.4164 77.238 61.7467 76.9639 64.0674C76.9313 64.3444 76.7828 64.5972 76.7959 64.8839C76.5789 65.462 76.3636 66.0418 76.2216 66.6457C75.7371 68.2916 75.2477 69.9359 74.6996 71.5641C74.5087 72.5738 73.706 72.5142 72.9507 72.54C71.2084 72.511 69.4791 72.358 67.7743 71.9957C67.497 71.9361 67.2213 71.8813 67.0435 71.6301L67.0467 71.6317Z" fill="#3C2774"/>
<path d="M105.201 21.2903C105.193 21.6043 105.185 21.9167 105.177 22.2308C104.798 22.1986 104.647 21.8572 104.405 21.651C102.627 20.1307 100.527 19.2595 98.3039 18.6201C97.268 18.3222 96.2141 18.1128 95.1553 17.9164C94.8878 17.7617 94.8143 17.4831 94.7116 17.2255C94.2499 16.0611 94.046 14.8388 93.9008 13.6068C93.8127 12.8595 93.9138 12.7532 94.6822 12.6324C95.7785 12.4585 96.3071 11.8401 96.325 10.7337C96.3348 10.17 96.3299 9.61765 95.9547 9.13774C95.4734 8.52093 94.8649 8.34539 94.2515 8.8237C93.4962 9.41473 92.6593 9.51297 91.7636 9.49848C91.5875 9.49526 91.4113 9.51297 91.2351 9.52102C90.7946 9.54035 90.6054 9.72716 90.5548 10.1926C90.4112 11.5389 89.4911 12.4005 88.2578 12.4295C86.9804 12.4585 85.9788 11.5937 85.7292 10.2699C85.69 10.0605 85.8303 9.67241 85.4747 9.68851C85.1516 9.70301 85.287 10.0815 85.2381 10.3005C85.1484 10.7063 85.1206 11.1154 84.8678 11.4858C84.6329 11.8272 84.7454 12.0559 85.1304 12.2202C85.2104 12.254 85.3001 12.2701 85.3784 12.312C85.5285 12.3925 85.6329 12.5068 85.6101 12.6872C85.5856 12.8901 85.4453 13.0012 85.256 13.0206C84.7895 13.0721 84.3474 12.9706 84.0831 12.5745C83.8841 12.2765 83.6769 12.1912 83.3375 12.2524C83.0765 12.2991 82.8073 12.2685 82.5822 12.0929C81.5039 11.642 80.8464 10.2232 81.1156 8.93804C81.2412 8.34056 81.4517 7.80266 82.0569 7.51439C82.1303 7.47896 82.22 7.47252 82.176 7.30181C81.8073 5.87494 82.1124 4.54792 82.8873 3.32075C83.7323 1.98246 84.9999 1.16435 86.46 0.605517C87.1827 0.328517 87.925 0.122378 88.7064 0.103053C89.2481 0.0579601 89.788 0.0499078 90.3297 0.109495C93.2564 0.415482 95.5583 1.65554 96.8683 4.37721C96.9596 4.56564 97.0493 4.75406 97.1391 4.94249C97.3675 5.05683 97.4197 5.28712 97.5127 5.49165C98.1962 6.98938 98.5796 8.58857 99.1082 10.1378C99.6286 12.2314 100.761 13.9111 102.573 15.1319C103.113 15.5168 103.57 15.9838 103.953 16.5217C104.084 16.7069 104.192 16.8953 104.219 17.1224C104.882 18.4349 105.056 19.8602 105.201 21.2935V21.2903Z" fill="#11051D"/>
<path d="M74.1774 48.5216C71.2622 49.5893 69.9212 51.8955 69.1821 54.6848C68.3877 57.6787 67.8411 60.7208 67.2636 63.7598C67.1282 64.4732 67.0793 65.2028 66.859 65.9001C65.4202 65.4492 64.717 64.3186 64.2064 63.0399C63.7007 61.7725 63.4837 60.4261 63.2341 59.0943C62.6925 56.2067 62.1541 53.3192 61.6745 50.4203C61.4673 49.1706 61.2862 47.9129 61.3025 46.6309C61.3335 43.9769 62.8948 42.2473 65.5735 41.9348C66.8395 41.7867 68.1038 41.7239 69.3746 41.8124C69.5998 41.7867 69.6748 41.9703 69.7678 42.1071C71.1398 44.1347 72.5216 46.1558 74.0176 48.0964C74.1122 48.2188 74.2133 48.3493 74.1774 48.5232V48.5216Z" fill="#E56990"/>
<path d="M74.1774 48.5216C72.471 46.3587 70.9669 44.0542 69.3746 41.8124C68.4823 40.4806 67.5768 39.16 66.8019 37.754C66.3239 36.8844 66.5213 36.5269 67.5458 36.4995C68.6878 36.4689 69.8282 36.4351 70.9701 36.4013C71.1398 36.2547 71.3453 36.2241 71.5591 36.2241C72.2067 36.2241 72.856 36.1999 73.5037 36.2402C73.9376 36.2128 74.3716 36.2209 74.8071 36.2418C75.3357 36.2547 75.8757 36.1355 76.3814 36.3835C77.1041 36.3835 77.8252 36.3852 78.5479 36.3868C79.2298 36.1355 79.9297 36.2241 80.6165 36.332C80.8987 36.3771 81.0684 36.6493 81.2169 36.8892C81.8335 37.8813 82.4763 38.8556 83.1207 39.8299C83.4714 40.3614 83.5155 40.9943 83.783 41.5483C83.6721 41.7866 83.4616 41.6997 83.2822 41.6916C82.7944 41.6707 82.3099 41.6626 81.8286 41.7754C81.5611 41.8382 81.3392 41.9493 81.2185 42.207C81.0439 42.463 81.2234 42.7078 81.2413 42.9591C81.1956 43.1765 81.088 43.3955 81.2674 43.6048C81.3653 43.7949 81.5448 43.9366 81.6051 44.1492C81.6524 44.3054 81.6214 44.4809 81.7307 44.6194C82.5203 45.4279 83.4829 45.9674 84.5302 46.3764C84.7439 46.4876 84.9674 46.5794 85.1681 46.7082C85.31 46.7984 85.5384 46.866 85.4112 47.1221C85.2464 47.135 85.0832 47.1624 84.9217 47.0995C83.1827 47.2155 81.442 47.3153 79.7029 47.4506C78.264 47.5617 76.8317 47.7373 75.4352 48.1222C75.0127 48.2381 74.5983 48.3863 74.1791 48.5184L74.1774 48.5216Z" fill="#E6D5F8"/>
<path d="M84.0147 40.5144C84.0931 40.4725 84.1665 40.4274 84.2154 40.3501C84.3296 39.9974 84.1926 39.6608 84.1371 39.321C83.6281 36.1404 82.8842 32.9823 83.1566 29.7227C83.2301 28.8369 83.2774 27.9463 83.4748 27.0735C83.4748 27.4552 83.4568 27.832 83.4079 28.2089C83.2121 29.771 83.1452 31.346 83.2969 32.9082C83.5041 35.0259 83.8777 37.1244 84.2236 39.226C84.2905 39.6335 84.3247 40.0602 84.5743 40.4194C85.682 40.5305 86.7963 40.5466 87.9007 40.706C88.1927 40.7479 88.32 40.5063 88.3526 40.2374C88.3787 39.7671 88.3918 39.2953 88.3461 38.8266C88.1046 36.398 88.0802 33.9598 87.9496 31.5248C87.8518 29.6953 88.0198 27.8674 88.0736 26.0396C88.0932 25.3471 88.1422 24.6481 88.1911 23.954C88.289 22.5304 88.4766 21.1116 88.4538 19.6799C88.4538 19.5011 88.4994 19.3111 88.3314 19.171C88.1797 19.0792 88.0214 19.1017 87.8697 19.1548C86.4945 19.6396 85.235 20.3353 84.0719 21.2034C84.0833 21.3257 84.005 21.3902 83.9169 21.453C81.9625 22.8138 80.9722 24.7754 80.4404 26.9978C79.6965 30.1044 79.1092 33.2415 78.548 36.3852C79.0945 36.3852 79.641 36.4061 80.1859 36.3755C80.5497 36.3546 80.7862 36.485 80.9722 36.7797C81.7275 37.9731 82.491 39.1616 83.248 40.3549C83.3133 40.4564 83.5368 40.7737 83.5025 40.8365L84.0131 40.5144H84.0147Z" fill="#55408B"/>
<path d="M88.3332 19.5332C88.3609 19.4125 88.3642 19.2933 88.2891 19.1854C88.2859 19.0952 88.343 19.0517 88.4164 19.0211C89.8308 18.604 90.9826 17.8696 91.5862 16.4718C90.5241 17.2802 89.3642 17.8648 88.0314 18.0838C87.4865 18.079 86.9334 18.1595 86.4 18.0355C84.7343 17.649 83.6739 16.6231 83.1992 15.0014C82.9268 14.0448 82.5679 13.1059 82.5809 12.0913C83.0556 12.1171 83.532 12.1509 83.9855 11.9592C84.1487 12.6469 84.5239 12.9465 85.1487 12.9062C85.3119 12.8949 85.4913 12.8885 85.5125 12.6872C85.5337 12.4939 85.382 12.4375 85.2123 12.3908C84.4097 12.1702 84.351 11.9431 84.8322 11.2539C85.1226 10.84 85.0541 10.323 85.1177 9.84954C85.1536 9.58864 85.1781 9.45175 85.5027 9.44853C85.8567 9.44531 85.8453 9.6273 85.8584 9.87047C85.9579 11.7338 87.4979 12.7564 89.1554 12.0704C89.9923 11.7241 90.2843 11.0107 90.4083 10.2038C90.5258 9.43726 90.5094 9.42921 91.2844 9.37284C91.6726 9.34385 92.0609 9.34063 92.4508 9.3197C93.0316 9.2891 93.5732 9.22307 94.0251 8.75765C94.3791 8.39207 94.8979 8.2584 95.3987 8.48226C96.0235 8.76087 96.3678 9.29393 96.4624 9.94778C96.5178 10.3407 96.5015 10.7514 96.4624 11.1492C96.3612 12.1444 95.6238 12.7709 94.4835 12.7999C94.1083 12.8096 94.0022 12.9062 94.0398 13.2718C94.2045 14.85 94.3987 16.4202 95.198 17.8406C95.8571 18.3334 95.5977 18.9519 95.4379 19.5558C94.9599 20.2 94.5096 20.8651 93.937 21.4416C93.4492 21.9328 92.8896 22.3226 92.2925 22.6624C91.0413 23.3726 89.7998 23.0312 89.0852 21.7879C88.6823 21.0873 88.4033 20.3417 88.3299 19.5316L88.3332 19.5332Z" fill="#FFCDBA"/>
<path d="M83.2007 15.0031C83.4699 15.4427 83.6722 15.9194 83.9886 16.3349C84.8174 17.4252 85.8941 17.9969 87.2889 17.955C87.5516 17.947 87.8159 17.955 88.0802 17.9534C88.4081 18.2739 88.6397 18.6218 88.4048 19.0985C88.3657 19.1274 88.3281 19.1564 88.289 19.1854C86.9806 19.514 85.8582 20.2193 84.7211 20.8957C84.5156 21.0181 84.3427 21.213 84.0718 21.2049C83.4617 19.9504 83.2529 18.6121 83.2268 17.2384C83.2121 16.4927 83.2088 15.7471 83.2007 15.0031Z" fill="#11051D"/>
<path d="M74.8301 36.3771C74.4043 36.4077 73.9801 36.4367 73.5543 36.3658C73.0943 35.8263 72.7517 35.232 72.6424 34.5234C72.2378 33.715 71.8365 32.9049 71.4237 32.1013C71.2361 31.7357 71.2427 31.4201 71.6391 31.2172C72.0469 31.0094 72.2411 31.2623 72.4091 31.5924C73.1726 33.0966 73.9475 34.5959 74.7191 36.0969C74.835 36.1597 74.9182 36.237 74.8268 36.3771H74.8301Z" fill="#55408B"/>
<path d="M72.6425 34.5234C72.9459 35.137 73.251 35.7522 73.5545 36.3658C72.6931 36.3771 71.8317 36.3884 70.9703 36.4012C71.0731 36.1452 71.1841 35.8923 71.2787 35.633C71.5136 34.9969 71.9165 34.5669 72.6425 34.5234Z" fill="#FFCDBA"/>
<path d="M74.8302 36.3771C74.7943 36.2837 74.7584 36.1903 74.7225 36.0969C75.1141 36.0775 75.4958 35.9229 75.8971 36.0566C76.0978 36.1226 76.2952 36.1677 76.3833 36.3851C75.8661 36.3835 75.349 36.3803 74.8318 36.3787L74.8302 36.3771Z" fill="#FFCDBA"/>
<path d="M83.3345 77.5824C83.5629 78.5261 83.6151 79.4731 83.4226 80.4313C83.2938 81.0771 82.9365 81.5119 82.328 81.8034C80.8043 82.5346 79.1517 82.8309 77.5366 83.2544C77.4355 83.2802 77.3392 83.3188 77.2397 83.3527C75.9232 83.5491 74.6083 83.7569 73.2885 83.9373C72.4467 84.0532 71.6065 84.021 70.7843 83.7778C70.2068 83.6071 70.0355 83.3655 70.0485 82.7536C70.0763 82.111 70.5641 81.7615 70.9654 81.3605C71.4483 80.8774 72.0421 80.5344 72.6033 80.1495C72.7338 80.0593 72.8806 79.9997 73.0487 80.0287C74.3587 80.8226 75.729 80.7276 77.1385 80.3395C78.2724 80.0271 79.3474 79.6035 80.3344 78.9674C81.2643 78.3683 82.2839 77.9141 83.1747 77.249C83.3313 77.3118 83.3786 77.4246 83.3329 77.5824H83.3345Z" fill="#55408B"/>
<path d="M64.2832 81.9886C63.231 82.0482 62.1836 82.2511 61.1249 82.1094C60.934 82.0836 60.7431 82.0578 60.5539 82.0208C60.0563 81.921 59.5538 81.776 59.4298 81.2204C59.3059 80.6648 59.6599 80.2461 60.0498 79.9143C60.7578 79.312 61.6045 78.9094 62.3876 78.415C62.8133 78.3747 63.1625 78.634 63.5605 78.7065C65.1054 78.9915 66.559 78.6485 67.9457 78.0301C69.365 77.3988 70.6342 76.484 72.0486 75.8366C72.202 75.7658 72.3325 75.6079 72.5315 75.7158C72.9524 76.3488 72.8513 77.0735 72.91 77.7708C72.8464 77.9544 72.8382 78.1444 72.8333 78.3377C72.8137 79.2959 72.3537 79.9385 71.4466 80.3024C70.1317 80.8291 68.7548 81.1463 67.391 81.5038C66.7597 81.6697 66.1087 81.7599 65.4774 81.921C65.0744 82.024 64.678 81.921 64.2832 81.9886Z" fill="#55408B"/>
<path d="M72.4662 75.7191C71.4563 76.2844 70.4269 76.8223 69.4383 77.423C68.1577 78.2008 66.7938 78.7323 65.3027 78.9175C64.2848 79.0431 63.2961 78.9384 62.3875 78.4134C63.4054 77.7595 64.4577 77.1621 65.4332 76.4422C66.1315 75.9284 66.6731 75.3728 66.7123 74.4227C66.7498 73.4886 66.9292 72.561 67.0483 71.6301C68.2001 71.9732 69.3845 72.1261 70.577 72.255C71.3813 72.342 72.197 72.2759 72.9947 72.4418C73.1448 72.5884 73.0975 72.7687 73.0632 72.9346C72.8854 73.7688 72.6897 74.5998 72.6146 75.4518C72.6048 75.5564 72.5624 75.6547 72.4694 75.7191H72.4662Z" fill="#FFCDBA"/>
<path d="M115.28 78.431C115.481 78.9576 115.984 79.1637 116.677 79.0462C117.232 78.9512 117.387 78.6146 117.308 78.1137C116.77 75.3067 116.233 72.4997 115.691 69.6942C115.455 68.4654 115.207 67.2383 114.966 66.0111C113.864 66.2559 112.755 66.4556 111.636 66.6038C111.489 66.8292 111.615 67.0402 111.677 67.2495C112.115 68.7457 112.633 70.2192 113.045 71.7234C113.558 73.3145 114.045 74.9137 114.533 76.5129L115.28 78.4294V78.431Z" fill="#55408B"/>
<path d="M95.2991 19.5317C95.5145 18.9551 95.5683 18.3866 95.2013 17.8423C96.2649 17.897 97.2796 18.1869 98.2927 18.472C100.529 19.1001 102.652 19.9633 104.425 21.5045C104.688 21.7332 104.926 21.9876 105.177 22.2308C105.311 22.5851 105.621 22.8073 105.841 23.0972C107.244 24.9428 107.949 27.0928 108.59 29.2653C109.283 31.6182 109.952 33.9807 110.241 36.4206C110.44 38.0987 110.613 39.7832 110.305 41.4742C110.158 42.2762 109.756 42.93 109.203 43.5114C109.172 43.6837 109.052 43.7272 108.897 43.7224C107.238 43.7369 105.593 43.9205 103.959 44.1798C102.357 44.4326 101.02 45.1122 100.201 46.5729C100.081 46.7452 99.8997 46.8 99.7023 46.8354C97.9045 47.1527 96.1001 47.3427 94.273 47.1543C94.0609 47.1317 93.8488 47.143 93.6368 47.1349C93.0168 47.1124 92.7721 46.9336 92.7362 46.341C92.653 44.9818 92.2909 43.6966 91.7868 42.4388C91.6155 42.0105 91.728 41.8172 92.1701 41.7029C94.8913 41.0023 97.5896 40.2245 100.29 39.4514C101.611 39.073 102.955 38.7525 104.319 38.5351C104.438 38.5158 104.569 38.519 104.701 38.3757C104.254 38.3193 103.882 38.4948 103.497 38.5544C102.877 38.651 102.742 38.5898 102.588 37.9875C102.174 36.3626 101.892 34.7086 101.536 33.0708C101.169 31.3814 100.833 29.6872 100.567 27.9592C100.417 28.0864 100.5 28.2153 100.515 28.328C100.843 30.8419 101.43 33.3059 101.965 35.7812C102.135 36.5671 102.285 37.3562 102.422 38.147C102.508 38.6478 102.441 38.7767 101.937 38.891C100.833 39.139 99.7496 39.4563 98.6614 39.7671C97.0317 40.2341 95.4068 40.7221 93.7705 41.1618C93.4932 41.2358 93.2077 41.413 92.914 41.194C92.7052 40.714 92.7803 40.1939 92.7395 39.6978C92.653 38.6221 92.6481 37.5366 92.7525 36.4576C92.7705 36.266 92.8031 36.0759 92.7982 35.8843C92.7085 32.6005 93.2599 29.3828 93.8195 26.1668C94.1017 24.5499 94.441 22.9442 94.7738 21.337C94.9011 20.7218 95.0218 20.105 95.2942 19.5317H95.2991Z" fill="#55408B"/>
<path d="M99.123 52.4156C98.999 53.9391 98.8783 55.4626 98.7494 56.9845C98.738 57.1134 98.7576 57.2712 98.6091 57.3581C98.4639 57.516 98.2649 57.5289 98.0724 57.5289C95.361 57.5208 92.6562 57.7479 89.9464 57.7447C89.6822 57.7447 89.4179 57.7575 89.1585 57.6963C88.7425 57.582 88.7506 57.2712 88.8159 56.9443C88.9072 56.4933 89.041 56.0488 88.9774 55.577C88.7784 56.0794 88.7294 56.6157 88.6299 57.1375C88.2416 59.1909 87.7881 61.2313 87.4194 63.2879C87.2204 64.4007 87.0475 65.5184 86.9447 66.6441C86.9267 66.7858 86.8664 66.9162 86.8468 67.058C86.4797 68.5621 86.0099 70.0405 85.6396 71.5447C85.4846 72.0101 85.3818 72.4884 85.2562 72.9603C85.0719 73.6592 84.9006 73.7977 84.1583 73.8589C83.9641 73.875 83.77 73.8686 83.5742 73.8654C81.6052 73.933 79.6442 73.8911 77.7143 73.4354C77.5577 73.4112 77.406 73.3677 77.2543 73.3242C76.4614 73.0988 76.3537 72.9506 76.3554 72.1051C76.4989 70.2885 76.6148 68.4703 76.8105 66.6586C77.0895 65.5731 77.0715 64.4506 77.1988 63.3475C77.5332 60.4406 77.7828 57.5224 78.2853 54.6365C78.4745 53.5478 78.7731 52.4865 79.2723 51.4993C79.9917 50.0789 81.1745 49.148 82.6541 48.5618C83.5237 48.2172 84.4079 47.9128 85.3117 47.6728C85.6999 47.5698 86.0425 47.4297 86.3036 47.1221C86.4488 47.0464 86.607 47.027 86.7652 47.0464C88.4635 47.2396 90.1357 47.1124 91.785 46.6711C91.9743 46.6212 92.1668 46.6099 92.356 46.6776C92.8112 47.4828 93.6464 47.2493 94.3349 47.3346C94.8439 47.3975 95.0918 47.5472 95.2713 48.0416C95.839 49.6134 96.8896 50.8052 98.4362 51.5154C98.8603 51.7103 99.1458 51.9261 99.1214 52.414L99.123 52.4156Z" fill="#55408B"/>
<path d="M103.494 67.2448C103.639 70.5527 103.784 73.8605 103.931 77.1684C103.986 78.3135 104.048 79.4601 104.092 80.6052C104.128 81.5344 103.573 81.9821 102.647 81.8114C102.206 81.7309 101.958 81.4861 101.893 81.0577C101.748 80.114 101.608 79.1686 101.462 78.2233C101.444 78.1057 101.407 77.9898 101.379 77.8738C101.172 76.8318 101.009 75.7834 100.82 74.7382C100.555 72.5287 100.179 70.3369 99.8506 68.137C99.8115 67.8712 99.6826 67.5942 99.8653 67.3269C101.074 67.2995 102.283 67.2705 103.492 67.2432L103.494 67.2448Z" fill="#55408B"/>
<path d="M99.1229 52.4157C99.0674 51.9518 98.7102 51.8311 98.3415 51.6459C96.7297 50.839 95.5991 49.599 95.0706 47.8693C94.9841 47.5891 94.8405 47.4957 94.542 47.4957C94.0509 47.4957 93.5583 47.4409 93.0672 47.391C92.6887 47.3524 92.3673 47.2332 92.4212 46.7549C92.2238 45.721 92.1259 44.6677 91.7866 43.6612C91.6316 43.2006 91.4717 42.7448 91.183 42.3455C91.0834 41.6836 91.1536 41.5354 91.7964 41.3663C92.1716 41.2681 92.5354 41.0007 92.9579 41.2101C94.6513 40.7318 96.343 40.2502 98.0364 39.7784C99.3562 39.4096 100.66 38.978 102.009 38.7267C102.368 38.6591 102.356 38.5222 102.302 38.2323C101.745 35.2482 100.957 32.3075 100.51 29.3023C100.443 28.8562 100.364 28.4118 100.309 27.964C100.289 27.8127 100.315 27.5936 100.482 27.5775C100.656 27.5598 100.704 27.7563 100.728 27.9222C101.007 29.7935 101.391 31.6472 101.785 33.496C102.108 35.0066 102.43 36.5172 102.746 38.0294C102.823 38.3966 102.955 38.5802 103.389 38.4175C103.73 38.2903 104.107 38.2339 104.472 38.2001C104.665 38.1824 105.002 38.0214 105.042 38.3531C105.077 38.6543 104.715 38.6462 104.521 38.672C104.17 38.7171 103.828 38.7879 103.484 38.8572C100.236 39.511 97.1082 40.5965 93.9074 41.4227C93.3119 41.5757 92.7148 41.7206 92.1145 41.8543C91.8388 41.9155 91.7605 42.0346 91.8779 42.2971C92.4587 43.5968 92.829 44.948 92.8845 46.3764C92.9008 46.8 93.1096 46.9691 93.5892 47.0061C94.9139 47.1092 96.2305 47.0786 97.5503 46.9852C98.4443 46.9208 99.3285 46.7774 100.203 46.5777C100.089 46.8483 99.9745 47.1189 99.8603 47.3894C99.0348 47.3685 98.2273 47.5682 97.4002 47.5891C96.9646 47.6004 96.5241 47.66 96.0853 47.6503C95.741 47.6423 95.6236 47.7566 95.7786 48.0819C96.4067 49.4121 97.2811 50.5057 98.6971 51.0935C98.8831 51.1708 99.1262 51.1659 99.2224 51.3995C99.1882 51.7393 99.1555 52.0807 99.1213 52.4205L99.1229 52.4157Z" fill="#3C2774"/>
<path d="M107.941 48.6955C107.838 50.3205 107.68 51.9406 107.456 53.5591C107.234 55.1728 107.03 56.7913 106.766 58.3969C106.399 60.6193 106.162 62.8804 105.161 64.9531C104.927 65.4346 104.6 65.8405 104.115 66.0981C103.954 66.1835 103.759 66.235 103.635 66.0675C103.528 65.9226 103.609 65.7567 103.743 65.652C104.975 64.6922 105.157 63.2476 105.487 61.8884C105.978 59.8657 106.288 57.8043 106.533 55.7413C106.758 53.8474 107.1 51.9696 107.221 50.0612C107.282 49.1046 107.358 48.1576 107.224 47.2026C107.13 46.5343 106.706 46.1574 106.105 45.9416C105.872 45.8579 105.64 45.7709 105.733 45.4794C105.833 45.1686 106.13 45.2926 106.326 45.3264C107.003 45.4424 107.747 46.3539 107.826 47.1881C107.875 47.689 108.04 48.1818 107.941 48.6955Z" fill="#C2466E"/>
<path d="M98.061 67.3043C97.8163 67.3076 97.5716 67.3108 97.3269 67.3124C97.0512 66.9533 97.1344 66.5361 97.1752 66.148C97.366 64.3073 97.5194 62.4633 97.7445 60.6258C97.8147 60.054 97.7967 59.4743 97.8913 58.9042C97.9615 58.4822 97.7739 58.3614 97.3628 58.3631C94.9206 58.3759 92.4784 58.3695 90.0378 58.3695C89.8437 58.3695 89.6479 58.3663 89.4538 58.3647C89.0378 58.3614 88.7703 58.2052 88.78 57.7495C88.7947 57.6029 88.829 57.4821 89.0215 57.5643C91.1602 57.6206 93.2957 57.4692 95.4312 57.4161C96.49 57.3903 97.5487 57.3775 98.6075 57.3597C98.7788 57.6899 98.7266 58.0474 98.6972 58.3856C98.552 60.0379 98.3987 61.6903 98.26 63.3426C98.1638 64.478 97.9582 65.6037 97.9615 66.7487C97.9615 66.942 97.9566 67.132 98.061 67.3059V67.3043Z" fill="#C2466E"/>
<path d="M99.2225 51.393C97.2943 50.8889 96.229 49.52 95.5095 47.7985C95.3953 47.5247 95.5454 47.5054 95.7526 47.5086C96.826 47.5215 97.8913 47.4184 98.955 47.2944C99.1279 47.2751 99.3123 47.2638 99.4673 47.1978C99.6973 47.0995 99.7642 47.2525 99.8604 47.3846C99.4363 48.6874 99.3824 50.0483 99.2225 51.393Z" fill="#55408B"/>
<path d="M118.351 26.55C118.205 27.3794 118.033 28.3151 117.882 29.2556C117.607 30.982 117.342 32.7116 117.078 34.4397C116.884 35.7071 116.695 36.9745 116.509 38.242C116.411 38.9103 116.311 39.5786 116.235 40.2486C116.205 40.5014 116.174 40.7237 115.851 40.6754C115.559 40.6319 115.579 40.3968 115.608 40.1826C115.921 37.9022 116.214 35.6169 116.559 33.3413C116.92 30.9788 117.334 28.6243 117.727 26.2666C117.742 26.1812 117.785 26.1023 117.806 26.017C117.847 25.8559 117.907 25.7013 118.111 25.7222C118.311 25.7432 118.349 25.901 118.351 26.0701C118.351 26.1925 118.351 26.3149 118.351 26.5484V26.55Z" fill="#C2466E"/>
<path d="M108.898 43.7223C109.001 43.6515 109.102 43.5822 109.205 43.5114C109.515 43.4373 109.828 43.4147 110.148 43.4163C112.271 43.4212 114.391 43.4179 116.514 43.4196C116.656 43.4196 116.798 43.4147 116.936 43.4357C117.098 43.4598 117.174 43.5726 117.174 43.7336C117.174 43.893 117.101 44.009 116.938 44.0331C116.608 44.0799 116.276 44.1459 115.944 44.1475C113.894 44.1588 111.841 44.1507 109.791 44.1572C109.412 44.1572 109.089 44.0831 108.898 43.7239V43.7223Z" fill="#C2466E"/>
<path d="M86.2856 47.1881C86.3117 47.5585 86.0539 47.6438 85.7603 47.7179C84.5808 48.0142 83.4339 48.4008 82.3164 48.8791C80.1483 49.8067 79.1238 51.5814 78.6442 53.733C78.1433 55.986 77.8921 58.2761 77.6702 60.571C77.4826 62.5019 77.251 64.4297 77.0356 66.3574C77.0258 66.4379 76.9769 66.5152 76.9459 66.5941C76.9263 66.578 76.9067 66.5619 76.8855 66.5474C76.7061 66.0466 76.7893 65.5344 76.8138 65.0239C76.8203 64.8967 76.8252 64.8967 76.711 64.8967C76.6033 64.3942 76.8415 63.9288 76.8725 63.4376C76.9475 62.2088 77.1107 60.9849 77.2575 59.7625C77.5479 57.334 77.7436 54.8893 78.4745 52.5316C79.1613 50.314 80.6459 48.8823 82.8515 48.1221C83.7667 47.8065 84.6819 47.5021 85.6412 47.267C85.4095 47.0995 85.1175 47.3024 84.9185 47.1027C85.0914 47.0898 85.2643 47.077 85.4373 47.0641C85.7603 46.8402 86.0474 46.8467 86.2856 47.1881Z" fill="#3D2574"/>
<path d="M76.8775 66.5007C76.6083 66.4958 76.5121 66.5297 76.2429 66.5248C76.4028 65.9515 76.517 65.6777 76.7128 64.8967C76.7666 64.7453 76.8204 64.5939 76.9199 64.3088C76.9199 65.1672 76.8775 65.7872 76.8775 66.4991V66.5007Z" fill="#C2466E"/>
<path d="M86.3641 2.53967C87.5795 5.4852 89.7704 7.47251 92.6498 8.82047C92.025 8.85912 91.4018 8.89938 90.777 8.93481C90.622 8.94286 90.4931 8.96058 90.423 8.73672C89.9597 7.26476 88.772 6.70271 87.2956 7.24544C86.6169 7.49506 86.0704 7.88962 85.9513 8.65298C85.8959 9.0105 85.6528 8.95575 85.4097 8.98151C85.0981 9.01372 85.1389 8.80758 85.1047 8.61916C84.8844 7.44675 84.0997 7.01192 82.7506 7.30502C82.6837 7.31952 82.6168 7.33723 82.5417 7.35656C82.7408 6.54167 85.1976 3.44958 86.3657 2.54128L86.3641 2.53967Z" fill="#FFCDBA"/>
<path d="M88.3036 7.61098C89.2742 7.62225 90.0997 8.56115 90.0916 9.64338C90.0834 10.7659 89.1258 11.7853 88.1078 11.7563C87.0262 11.7257 86.3328 10.7675 86.3492 9.32612C86.3622 8.25033 87.1078 7.59487 88.3036 7.60937V7.61098Z" fill="#FFCDBA"/>
<path d="M82.3606 7.95243C83.4406 7.32596 84.5434 7.83325 84.7065 9.03627C84.8175 9.85599 84.5597 10.5871 84.085 11.2394C83.7261 11.7338 83.1159 11.7982 82.5417 11.4584C82.3443 11.1669 82.3524 10.8223 82.3296 10.5002C82.2709 9.65146 82.2187 8.79953 82.359 7.95243H82.3606Z" fill="#FFCDBA"/>
<path d="M69.9341 49.7326C69.9243 49.8115 69.9276 49.9371 69.8933 50.0515C69.8574 50.1706 69.7677 50.2721 69.6372 50.293C69.4855 50.3172 69.4365 50.1867 69.3745 50.0805C69.2799 49.9194 69.2946 49.7455 69.2913 49.5715C69.2669 48.2349 69.1608 46.9062 68.7432 45.6227C68.474 44.7917 67.9161 44.1475 67.332 43.5178C67.1983 43.3729 66.8361 43.2521 67.0596 42.996C67.2798 42.7432 67.5572 42.9493 67.7562 43.1184C68.7938 43.9929 69.3223 45.1444 69.6062 46.4344C69.8444 47.5085 69.7595 48.6117 69.9325 49.7342L69.9341 49.7326Z" fill="#C2466E"/>
<path d="M86.2854 47.1881C86.0163 47.0528 85.7291 47.048 85.4371 47.0641C85.1663 46.7662 84.7487 46.7034 84.4469 46.4537C84.6834 46.2412 84.9477 46.3797 85.2038 46.3958C85.429 46.4103 85.6508 46.4924 85.8907 46.3958C84.3816 46.0157 82.8579 45.6743 81.6083 44.679C81.4125 44.5389 81.5446 44.3424 81.5169 44.1733C82.0243 44.2249 82.5006 44.4069 82.9884 44.5389C83.8318 44.7676 84.6948 44.89 85.5579 45.0301C84.0456 44.6629 82.4745 44.489 81.1286 43.6258C80.897 43.3874 80.9867 43.1813 81.1939 42.988C81.4011 42.8077 81.6311 42.8995 81.8513 42.9397C82.8775 43.133 83.9102 43.2747 84.9575 43.2811C85.0554 43.2811 85.1647 43.3343 85.3001 43.1893C84.6851 43.1459 84.1124 43.1153 83.5431 43.0492C82.9085 42.9768 82.2853 42.8495 81.6703 42.6901C81.4141 42.6241 81.1498 42.55 81.0503 42.2569C81.083 41.8511 81.3815 41.7142 81.7176 41.6385C82.3016 41.5064 82.8938 41.5161 83.486 41.5805C83.592 41.5918 83.6899 41.6304 83.7666 41.5257C84.3637 41.6868 84.9722 41.748 85.5905 41.7496C85.721 41.7496 85.8433 41.7303 85.8548 41.566C85.8678 41.384 85.7552 41.3309 85.5937 41.3099C85.106 41.2471 84.6165 41.1908 84.1336 41.1006C83.884 41.0539 83.5349 41.0023 83.5464 40.6883C83.5594 40.3469 83.915 40.3968 84.1679 40.363C84.3001 40.2631 84.4322 40.2503 84.5692 40.3533C85.6427 40.2728 86.7031 40.3388 87.7553 40.574C87.9919 40.6271 88.2301 40.6094 88.2219 40.2664C88.8663 40.9444 89.7358 41.2922 90.5042 41.7882C90.7669 41.9573 91.067 42.0733 91.271 42.3261C91.7881 42.7271 91.8322 43.3536 92.0116 43.9044C92.2759 44.7161 92.395 45.5632 92.5059 46.4087C92.5222 46.5375 92.4961 46.6486 92.4211 46.7533C91.8436 46.7114 91.3395 47.0174 90.7832 47.0867C89.4275 47.2541 88.0734 47.4168 86.7063 47.1929C86.5693 47.1704 86.4257 47.1865 86.2854 47.1849V47.1881Z" fill="#FFCDBA"/>
<path d="M81.0488 42.2584C81.778 42.7013 82.6182 42.7496 83.4306 42.8785C84.0032 42.9687 84.5889 42.9687 85.1697 43.0121C85.354 43.0266 85.633 42.9767 85.6167 43.2424C85.6004 43.5066 85.3426 43.4824 85.1175 43.4727C83.7944 43.4228 82.4909 43.2215 81.1924 42.988C81.1059 42.7512 80.8563 42.5467 81.0504 42.2568L81.0488 42.2584Z" fill="#FFB79C"/>
<path d="M83.5482 40.6754C83.9332 41.1183 84.315 41.0571 84.744 41.186C85.1584 41.2568 85.3558 41.2761 85.6625 41.3196C85.7604 41.3341 85.9072 41.2842 85.8991 41.5499C85.8909 41.814 85.7539 41.7899 85.6364 41.7802C84.9382 41.7303 84.452 41.7593 83.7668 41.5258C83.6804 41.2955 83.4487 40.9637 83.5499 40.6738L83.5482 40.6754Z" fill="#FFB79C"/>
<path d="M81.6068 44.6807C82.2104 44.9609 82.7814 45.3023 83.416 45.5229C84.1975 45.7951 84.974 46.0705 85.8044 46.1494C86.0148 46.1687 86.2122 46.2154 86.1665 46.4812C86.1209 46.7517 85.9137 46.6438 85.7489 46.6229C85.3149 46.5665 84.881 46.5118 84.4471 46.4554C83.3557 46.0882 82.4062 45.502 81.6068 44.6823V44.6807Z" fill="#FFB79C"/>
<path d="M81.1257 43.6273C82.2432 43.9913 83.3265 44.4664 84.506 44.6322C84.8714 44.6838 85.2368 44.7369 85.6006 44.7981C85.785 44.8287 85.8829 44.9511 85.8486 45.1347C85.8176 45.2974 85.6887 45.2861 85.5566 45.2571C84.302 44.9865 83.041 44.745 81.8109 44.3714C81.6804 44.3311 81.6054 44.2506 81.514 44.1733C81.3851 43.9913 81.2546 43.8093 81.1257 43.6273Z" fill="#FFB79C"/>
<path d="M91.2711 42.3277C90.2743 41.8799 89.3868 41.2454 88.4373 40.7156C88.2318 40.6012 88.3248 40.4015 88.222 40.2695C88.0311 36.4575 87.7049 32.6472 87.806 28.8256C87.8778 26.1071 88.0181 23.3919 88.284 20.6847C88.3215 20.303 88.3183 19.9181 88.3346 19.5348C88.545 19.5638 88.4814 19.7313 88.5059 19.8585C88.6723 20.7233 89.0034 21.5157 89.5614 22.2098C90.0997 22.8781 90.8045 23.0343 91.5941 22.7928C92.9547 22.3773 93.878 21.3981 94.7198 20.332C94.9237 20.0743 95.1065 19.7989 95.299 19.5332C95.0689 20.6734 94.8324 21.8104 94.6121 22.9522C93.7769 27.2779 92.9302 31.5956 92.9253 36.0324C92.9253 37.7588 92.9122 39.4836 92.9563 41.2084C92.5892 41.3034 92.2271 41.4177 91.8551 41.487C91.3608 41.5788 91.1275 41.8171 91.2694 42.3277H91.2711Z" fill="#F9F4FE"/>
<path d="M86.5645 20.2789C86.7717 20.3578 86.6771 20.4963 86.6249 20.6171C86.3541 21.2596 86.0735 21.8974 85.8076 22.5416C85.1925 24.0312 85.1876 24.0393 86.2888 25.2214C86.5254 25.4758 86.5237 25.6481 86.2758 25.8736C86.1224 26.0137 86.0376 26.244 85.8663 26.3471C84.5742 27.1201 85.0816 28.0864 85.5433 29.0543C86.1224 30.2685 86.7032 31.4796 87.2742 32.6971C87.3362 32.8308 87.5597 33.0015 87.3117 33.14C87.0556 33.2833 86.9822 33.0369 86.8957 32.8759C86.0099 31.2268 85.2774 29.51 84.5351 27.7965C84.3491 27.3665 84.5824 27.0589 84.8385 26.7642C85.1371 26.4212 85.4389 26.0797 85.7586 25.756C85.9169 25.5966 85.9479 25.479 85.7635 25.3341C85.7227 25.3019 85.7048 25.2439 85.6624 25.2133C84.4878 24.3694 84.9087 23.3709 85.3753 22.366C85.6477 21.7798 85.9185 21.1936 86.173 20.6009C86.2529 20.4157 86.39 20.3401 86.5629 20.2756L86.5645 20.2789Z" fill="#3C2774"/>
<path d="M84.5695 40.3549C84.4358 40.3582 84.302 40.3614 84.1682 40.3646C83.6886 38.0536 83.3313 35.72 83.0295 33.3833C82.8386 31.9097 82.8859 30.4039 83.0768 28.9142C83.1519 28.3296 83.1649 27.7354 83.2106 27.1476C83.2269 26.9414 83.2318 26.6531 83.501 26.6805C83.8273 26.7127 83.7261 27.0058 83.6967 27.2265C83.4096 29.4747 83.2497 31.7213 83.5989 33.9807C83.9137 36.0212 84.1405 38.0745 84.5744 40.0957C84.5924 40.1778 84.5728 40.2696 84.5712 40.3566L84.5695 40.3549Z" fill="#3C2774"/>
<path d="M88.405 19.0984C88.436 18.6781 88.1929 18.3334 88.0803 17.9534C89.4703 17.6731 90.6938 17.066 91.7901 16.0498C91.7852 16.8051 91.3888 17.2882 90.9777 17.7166C90.3267 18.393 89.498 18.8278 88.6056 19.1371C88.5502 19.1564 88.4719 19.1129 88.405 19.0984Z" fill="#FFB79C"/>
<path d="M88.3982 14.0335C88.3852 15.1834 87.2057 15.8695 86.1877 15.3235C85.7538 15.0916 85.4356 14.755 85.2073 14.3282C85.1387 14.1994 85.0719 14.0722 85.1926 13.945C85.3312 13.7984 85.4797 13.8499 85.6184 13.9514C85.8043 14.0899 86.0083 14.1994 86.2334 14.2429C86.8011 14.3508 87.3248 14.2912 87.7065 13.7936C87.8273 13.6357 87.9643 13.486 88.1894 13.552C88.439 13.6245 88.3885 13.8467 88.3982 14.0319V14.0335Z" fill="#11051D"/>
<path d="M91.5925 67.1932C91.4376 68.6137 91.2842 70.0341 91.1292 71.4529C90.9694 72.9023 90.8062 74.3533 90.6512 75.8028C90.6398 75.9107 90.6496 76.0588 90.6496 76.2569C90.6496 76.5967 90.568 76.6579 90.2254 76.703C89.7116 76.7723 89.1895 76.9204 88.7246 76.5403C88.6789 76.4904 88.6479 76.4324 88.6332 76.3664C88.5125 75.2794 88.599 74.1875 88.5745 73.0988C88.568 72.8395 88.5892 72.5786 88.4962 72.329C88.4652 70.8361 88.2825 69.3496 88.3379 67.8535C88.3477 67.5958 88.3135 67.3285 88.475 67.0966C89.5239 66.826 90.5648 66.8164 91.5942 67.1916L91.5925 67.1932Z" fill="#55408B"/>
<path d="M83.6413 73.7252C83.3998 74.9025 83.3232 76.099 83.1927 77.2908C82.9708 77.7594 82.4863 77.8915 82.0817 78.1105C80.682 78.8674 79.4046 79.8546 77.8368 80.2911C76.8759 80.56 75.9281 80.8322 74.8987 80.7629C74.1825 80.7146 73.5561 80.5278 72.9998 80.0946C74.0455 79.3457 75.207 78.7611 76.1793 77.9092C76.2968 77.8061 76.4077 77.6982 76.5219 77.5935C76.9787 77.2859 77.2381 76.8865 77.2919 76.318C77.3882 75.3067 77.5497 74.3001 77.6835 73.292C79.6509 73.6994 81.6412 73.7767 83.6429 73.7268L83.6413 73.7252Z" fill="#FFCDBA"/>
<path d="M98.2927 23.0828C98.3302 23.4564 98.1393 23.6625 97.8163 23.8155C97.3416 24.0426 96.9027 24.326 96.49 24.661C96.2355 24.8688 96.304 24.9767 96.49 25.1409C96.8701 25.4775 97.2339 25.835 97.632 26.1507C98.0056 26.447 98.0431 26.7852 97.8408 27.1685C97.4232 27.9544 97.0006 28.7387 96.5602 29.5133C95.6694 31.0803 94.9092 32.7117 94.087 34.3125C94.0054 34.4719 93.994 34.7731 93.7411 34.6749C93.4931 34.5782 93.6122 34.3238 93.6971 34.1337C94.5013 32.351 95.4084 30.6197 96.3611 28.911C96.6841 28.3313 96.9941 27.7434 97.3302 27.1717C97.5504 26.7965 97.4754 26.5195 97.1148 26.2972C96.72 26.0524 96.4264 25.6981 96.1017 25.3793C95.6776 24.9622 95.7151 24.5998 96.2208 24.2632C96.658 23.9717 97.1083 23.698 97.5651 23.4338C97.7723 23.3147 97.8555 23.2116 97.8082 22.9427C97.57 21.5738 97.2029 20.2355 96.8571 18.8923C96.8114 18.7184 96.6809 18.4897 96.9272 18.3963C97.1083 18.3271 97.2111 18.559 97.247 18.6814C97.6581 20.134 98.0202 21.5995 98.2943 23.0828H98.2927Z" fill="#3C2774"/>
<path d="M88.4995 67.1175C87.9089 67.0821 87.4587 67.0547 86.8698 67.0176C86.8991 66.9146 86.9644 66.7696 86.9937 66.6666C87.3673 65.1092 87.4929 63.5696 87.816 62.0011C88.0574 60.8238 88.276 59.6417 88.506 58.4613C88.5615 58.1794 88.5729 57.8638 88.8535 57.6705C88.9139 58.1021 89.1504 58.2149 89.5942 58.21C92.2647 58.1843 94.9353 58.2036 97.6059 58.1907C97.973 58.1891 98.1214 58.2261 98.0839 58.6561C97.9583 60.054 97.7984 61.4503 97.6744 62.8482C97.5423 64.3346 97.2845 65.813 97.3286 67.3124C95.4998 67.3252 93.6726 67.2367 91.8471 67.1465C91.7639 67.1416 91.6791 67.1755 91.5942 67.1916C90.5632 67.1545 89.5338 67.0708 88.5011 67.1159L88.4995 67.1175Z" fill="#E56990"/>
<path d="M88.8578 57.9534C88.3211 60.5672 87.7925 63.181 87.2411 65.7916C87.1547 66.199 87.1775 66.6596 86.8235 66.9817C86.8626 65.6241 87.1237 64.2954 87.3749 62.9668C87.8137 60.651 88.2754 58.34 88.7289 56.029C88.7485 55.9275 88.7632 55.8212 88.8007 55.7278C88.8595 55.5829 88.9312 55.4057 89.1335 55.475C89.3146 55.5362 89.2396 55.7004 89.2151 55.8357C89.1254 56.3301 89.0275 56.8229 88.9524 57.3189C88.9263 57.4929 88.8317 57.6942 89.0242 57.8472C88.9606 57.8713 88.8611 57.8423 88.8546 57.9551L88.8578 57.9534Z" fill="#3C2774"/>
<path d="M88.3919 10.0444C88.3201 10.3295 88.3413 10.7514 87.847 10.8126C87.4995 10.8545 87.2271 10.4647 87.2385 9.98965C87.2499 9.50329 87.5142 9.14416 87.8535 9.1506C88.1766 9.15704 88.3968 9.49685 88.3935 10.0444H88.3919Z" fill="#11051D"/>
<path d="M83.0931 9.79167C83.1225 9.43737 83.1617 9.03637 83.6168 9.03153C84.0867 9.0267 84.1209 9.4567 84.1323 9.79328C84.1438 10.1411 84.0883 10.5615 83.6266 10.5566C83.1894 10.5502 83.1225 10.1556 83.0931 9.79167Z" fill="#11051D"/>
<g clip-path="url(#clip1_153_9249)">
<path d="M39.3211 25.5407C40.1523 26.6094 40.7572 27.8035 41.2683 29.0437C42.4178 31.8375 43.2088 34.7353 43.8422 37.6792C44.0936 38.8469 44.2946 40.0211 44.3081 41.2152C44.3231 42.4587 44.0332 43.6 43.0764 44.4972C42.8535 44.705 42.5988 44.8633 42.3357 45.0101C42.2553 45.1437 42.1196 45.1981 41.9821 45.246C40.8008 45.6484 39.6378 45.6434 38.5017 45.0926C38.2151 44.9475 37.9336 44.7957 37.6755 44.6028C37.6102 44.5549 37.5264 44.5203 37.5331 44.4197C37.57 44.23 37.4795 44.0717 37.3806 43.9299C36.1255 42.119 35.6848 40.0327 35.2792 37.9348C35.105 37.036 34.9407 36.1338 34.8301 35.2251C34.8201 35.1377 34.8369 34.9926 34.7279 34.9975C34.5855 35.0041 34.6257 35.1558 34.6374 35.2465C34.733 35.9821 34.8486 36.7127 34.9843 37.4417C35.0949 38.0387 35.2005 38.6374 35.3429 39.2278C35.3764 39.3697 35.3865 39.5132 35.3697 39.6567C35.0916 40.887 34.8151 42.119 34.7145 43.379C34.6643 44.0024 34.6911 44.6275 34.7363 45.2509C34.7229 45.3103 34.6961 45.3598 34.6475 45.3977C34.304 45.4983 33.9504 45.5313 33.5968 45.5214C32.3953 45.4884 31.1955 45.5626 29.9974 45.6022C28.883 45.6401 27.7653 45.6583 26.6543 45.7605C26.4381 45.7803 26.2169 45.7985 26.0041 45.7259C25.8365 45.5841 26.0058 45.5395 26.0862 45.4967C26.3862 45.3367 26.6811 45.1685 26.9325 44.9376C26.9542 44.9178 26.9794 44.8996 27.0028 44.8831C27.3765 44.578 27.7385 44.2597 28.0166 43.8622C28.1507 43.6627 28.3049 43.478 28.4674 43.2999C28.5998 43.1795 28.702 43.036 28.7724 42.871C28.8093 42.7935 28.8646 42.7292 28.9199 42.6649C29.2466 42.2427 29.5097 41.7792 29.7661 41.3142C29.7795 41.2878 29.7946 41.2647 29.8113 41.2416C30.0577 40.8606 30.2722 40.4631 30.4682 40.0558C30.4816 40.0294 30.4984 40.0046 30.5152 39.9799C31.0179 39.1107 31.4251 38.1954 31.8591 37.2949C32.2076 36.5692 32.5311 35.8337 32.8628 35.0998C32.9533 34.8985 33.0187 34.699 33.0455 34.4829C33.074 34.412 33.1326 34.3691 33.193 34.3279C34.118 33.716 34.6039 32.8073 34.9491 31.8029C34.9759 31.7254 35.0044 31.6462 35.0162 31.5654C35.2022 30.218 35.8306 29.0223 36.3467 27.7886C36.5226 27.3681 36.6031 26.9261 36.5863 26.4379C36.3215 26.5253 36.1406 26.6803 35.9864 26.8551C35.5071 27.3994 35.0111 27.9304 34.5955 28.5258C34.5838 28.5423 34.5721 28.5605 34.5587 28.577C34.4531 28.7056 34.3425 28.8722 34.1515 28.7485C33.9604 28.6248 34.0593 28.4467 34.1465 28.3098C34.4933 27.7688 34.9173 27.2839 35.358 26.8156C35.6278 26.5286 35.8942 26.2367 36.226 26.014C36.5193 25.8161 36.7003 25.8656 36.846 26.1789C37.079 26.6836 37.0471 27.1998 36.903 27.7193C36.7371 28.318 36.4673 28.8804 36.1841 29.4296C35.9395 29.9046 35.7803 30.3977 35.6898 30.9189C35.5222 31.8953 35.1804 32.8089 34.624 33.6352C34.433 33.9172 34.5168 34.1861 34.5972 34.4631C34.6324 34.5819 34.7447 34.5934 34.8536 34.5984C35.0547 34.6099 35.2491 34.567 35.4435 34.5225C36.7271 34.2323 37.7141 33.5115 38.4832 32.4791C38.5905 32.3356 38.6508 32.1756 38.6759 31.9975C38.8888 30.5198 38.8619 29.0618 38.2989 27.6501C38.0174 26.9475 37.6001 26.3373 36.955 25.9035C36.7723 25.7815 36.6751 25.6083 36.5813 25.4203C36.4573 25.1712 36.2981 25.13 36.1121 25.2834C35.534 25.7567 34.8905 26.1493 34.3325 26.649C34.0375 26.9112 33.7175 27.1454 33.4443 27.4307C33.3723 27.5049 33.2985 27.5792 33.2114 27.6369C33.1025 27.7094 32.9785 27.7622 32.8679 27.6583C32.7472 27.5445 32.8243 27.4208 32.9064 27.3285C33.1946 27.0019 33.5047 26.6952 33.8381 26.4131C34.371 25.9662 34.9156 25.5308 35.487 25.13C35.5742 25.069 35.725 25.0179 35.6764 24.881C35.6211 24.7226 35.4585 24.7358 35.3262 24.7556C34.7665 24.8397 34.2705 25.0739 33.8113 25.3939C33.193 25.8243 32.6567 26.3422 32.1255 26.87C32.0166 26.9772 31.8926 27.1965 31.725 27.0613C31.5491 26.9211 31.715 26.7347 31.8172 26.6028C32.5143 25.6924 33.3589 24.9585 34.4246 24.4868C34.4883 24.4588 34.5888 24.4588 34.5888 24.3697C34.5888 24.2691 34.49 24.2394 34.4129 24.2229C34.1532 24.1652 33.8934 24.1718 33.6387 24.2543C33.0656 24.4423 32.5495 24.7276 32.097 25.1218C30.4967 26.5137 29.5449 28.2537 29.2299 30.3301C29.1561 30.8183 29.1042 31.3098 29.0958 31.8029C29.0941 31.9414 29.1042 32.0783 29.255 32.1443C30.1163 32.5154 30.8118 33.147 31.6278 33.5874C32.0803 33.8315 32.4791 34.1415 32.8612 34.478C32.7556 34.9761 32.4908 35.4115 32.2847 35.8683C31.7753 36.9948 31.2491 38.1162 30.6861 39.2179C30.1934 40.1828 29.6505 41.1212 29.0925 42.0497C29.0791 42.0761 29.0623 42.1008 29.0455 42.1256C28.7205 42.5775 28.4255 43.0492 28.0803 43.4862C28.0652 43.5093 28.0485 43.5324 28.0301 43.5538C27.9278 43.6643 27.8122 43.7633 27.7351 43.8952C27.7117 43.9299 27.6832 43.9629 27.6547 43.9942C27.4503 44.1987 27.2425 44.3999 27.0397 44.6061C26.9291 44.7116 26.8252 44.8254 26.6811 44.8897C26.0812 45.2856 25.4528 45.6138 24.7238 45.7193C24.568 45.7424 24.4155 45.7556 24.2597 45.7589C23.9916 45.7589 23.7251 45.7589 23.4587 45.7589C22.9911 45.7803 22.5538 45.6533 22.1231 45.4983C20.3787 44.8205 19.266 43.5027 18.4248 41.9227C17.6389 40.4466 17.1211 38.87 16.6737 37.2685C16.1492 35.39 15.7503 33.4851 15.437 31.5621C15.4219 31.473 15.4269 31.3724 15.2996 31.3246C15.189 31.4335 15.2275 31.5704 15.2493 31.694C15.6347 33.9931 16.1291 36.2658 16.8295 38.4939C17.3004 39.9931 17.845 41.4609 18.703 42.7952C19.3967 43.8721 20.253 44.7858 21.4059 45.4043C21.6087 45.5132 21.8248 45.5907 22.036 45.6781C22.1382 45.7193 22.2672 45.7408 22.2639 45.8941C22.1918 46.0706 22.0293 46.0624 21.8785 46.069C21.7578 46.0756 21.6355 46.0772 21.5148 46.0772C21.121 45.9073 20.801 45.6237 20.4139 45.434C19.762 45.114 19.0716 45.0365 18.3728 45.0316C17.0356 45.0233 15.6984 44.9656 14.3612 44.9442C13.4747 44.9293 12.5849 44.9178 11.6984 44.898C11.1438 44.8864 10.9963 44.7561 11.0399 44.2069C11.1203 43.1712 11.2879 42.1437 11.437 41.1146C11.871 38.1195 12.3738 35.1344 12.9418 32.1608C13.0072 31.8161 13.0792 31.4747 13.1613 31.1333C13.1882 31.0228 13.2099 30.9107 13.3071 30.8331C13.5752 29.7199 13.8651 28.6116 14.2824 27.5412C14.8739 26.019 15.7403 24.6699 16.8965 23.5038C17.0608 23.1328 17.4127 22.9464 17.716 22.7237C18.9945 21.7853 20.4507 21.2345 21.9941 20.8931C22.7381 20.7282 23.4888 20.5962 24.2429 20.4857C24.3468 20.4709 24.449 20.4445 24.5512 20.4857C24.7021 20.5731 24.6853 20.7249 24.7071 20.8667C24.9233 22.2438 25.5031 23.4115 26.6911 24.2361C28.387 25.4104 30.4632 25.0574 31.6597 23.4709C31.8591 23.2894 31.906 22.9975 32.1322 22.8359C32.8494 22.9398 33.5599 22.9118 34.2688 22.7633C34.743 22.6627 35.1586 22.4219 35.6077 22.2653C35.7518 22.2587 35.8674 22.3296 35.983 22.3988C37.2482 23.1476 38.319 24.1058 39.2038 25.2685C39.2641 25.3477 39.3529 25.4203 39.3211 25.539V25.5407Z" fill="#A569E5"/>
<path d="M13.307 30.8364C12.816 33.1767 12.4105 35.5318 12.0234 37.8903C11.7318 39.6715 11.4587 41.4576 11.2442 43.2503C11.1989 43.628 11.1587 44.004 11.1101 44.3817C11.0749 44.6638 11.2224 44.7775 11.4838 44.794C11.5357 44.7973 11.5877 44.7973 11.6396 44.799C13.1645 44.827 14.6911 44.832 16.216 44.8881C17.2282 44.926 18.2437 44.888 19.2525 45.0002C20.0736 45.0909 20.7774 45.4603 21.4192 45.9568C21.4594 45.9881 21.5013 46.0178 21.5432 46.0475C21.6873 46.0442 21.766 46.1415 21.8515 46.2338C22.49 46.9249 22.8502 47.7462 23.0094 48.6566C23.2122 49.8127 23.2759 50.9837 23.3915 52.1497C23.4937 53.1822 23.5876 54.2162 23.678 55.2487C23.7317 55.8622 23.8004 56.4757 23.8322 57.0909C23.8372 57.1948 23.8523 57.2937 23.8825 57.3927C23.921 57.6285 24.0987 57.6351 24.2863 57.6351C25.0706 57.6351 25.8548 57.6351 26.6391 57.6351C27.7065 57.6351 28.7723 57.6351 29.8397 57.6351C29.9838 57.6351 30.1346 57.6121 30.2687 57.6929C30.3592 57.7803 30.3625 57.8941 30.3675 58.0062C30.4228 59.1591 30.5485 60.3069 30.639 61.4581C30.6491 61.5769 30.691 61.7039 30.572 61.8012C30.4312 62.1986 30.5871 62.5912 30.6122 62.9837C30.6524 63.6648 30.7597 64.3427 30.8401 65.0205C30.8418 65.0403 30.8401 65.0617 30.8401 65.0815C30.8613 65.407 30.7066 65.5697 30.3759 65.5697C27.8891 65.5697 25.4024 65.5714 22.9156 65.573C22.7799 65.6687 22.6223 65.6637 22.4648 65.6637C21.7778 65.6637 21.0924 65.6687 20.4054 65.6621C20.154 65.6604 19.9093 65.6769 19.6731 65.766C19.6731 65.6043 19.5843 65.5648 19.4318 65.5664C19.0028 65.5747 18.5738 65.5549 18.1465 65.5714C17.3321 65.6027 16.521 65.512 15.7083 65.4955C14.7213 65.4757 13.736 65.385 12.7523 65.319C12.2345 65.2844 11.7167 65.2399 11.2006 65.1854C11.1084 65.1755 11.0682 65.2069 11.0196 65.258C10.103 65.1557 9.1847 65.0584 8.27143 64.9331C8.1491 64.9166 8.02007 64.9183 7.92623 64.8176C7.51735 64.7055 7.11518 64.5802 6.74149 64.374C5.62378 63.7588 5.06074 62.7544 4.73732 61.5917C4.49267 60.7127 4.43402 59.8006 4.28991 58.9034C4.13071 57.9155 3.98995 56.9243 3.83914 55.9348C3.6967 55.0062 3.55259 54.0777 3.40847 53.1508C3.24593 52.1019 3.06998 51.0546 2.92251 50.0024C2.77002 48.9073 2.57229 47.8138 2.65943 46.7006C2.70132 46.1629 2.84878 45.6434 3.17052 45.2031C3.7101 44.4658 3.95476 43.6577 3.91622 42.7506C3.87433 41.7759 3.90952 40.7962 3.83746 39.8248C3.75032 38.6621 3.77043 37.501 3.80059 36.3416C3.83243 35.103 3.95644 33.8595 4.60997 32.7495C5.31042 31.5588 6.34435 30.8413 7.76536 30.7886C8.86799 30.7473 9.97229 30.7671 11.0766 30.7869C11.715 30.7985 12.3468 30.716 12.9836 30.7193C13.1109 30.7193 13.2366 30.7094 13.3154 30.8347L13.307 30.8364Z" fill="#EED4FF"/>
<path d="M23.7953 57.368C23.735 56.7973 23.6713 56.2283 23.6177 55.6577C23.4753 54.1453 23.3379 52.6346 23.1971 51.1222C23.1116 50.2135 23.0664 49.3015 22.8636 48.4076C22.6575 47.4955 22.2453 46.694 21.5465 46.0491C21.6722 45.9518 21.8213 46.0029 21.9604 45.9898C22.0777 45.9782 22.185 45.9716 22.2503 45.8595C22.4129 45.7242 22.5888 45.7984 22.7564 45.8364C23.7601 46.059 24.7421 46.0029 25.7023 45.6286C25.7861 45.6055 25.8699 45.5609 25.957 45.6203C26.1698 45.7506 26.4011 45.6681 26.6206 45.6599C27.7065 45.617 28.789 45.5445 29.8749 45.5065C31.0764 45.4636 32.2779 45.4504 33.4793 45.4191C33.8765 45.4092 34.272 45.3845 34.6691 45.3663C34.6792 45.3762 34.6909 45.3878 34.701 45.3977C34.7194 45.4208 34.7395 45.4406 34.763 45.457C35.3595 45.3894 35.9527 45.3498 36.5459 45.4768C36.5711 45.6203 36.4521 45.6088 36.37 45.6302C36.2711 45.6583 36.1639 45.622 36.0583 45.6599C37.2196 46.0376 38.3138 46.5192 39.2807 47.2679C40.3984 48.1354 41.0419 49.2866 41.4223 50.6011C41.8127 51.9452 41.9535 53.324 41.9786 54.7176C42.0021 56.0139 41.9652 57.3102 41.9015 58.6033C41.8278 60.1123 41.7759 61.6214 41.6787 63.1288C41.62 64.0408 41.5949 64.9562 41.5279 65.8682C41.4474 66.965 41.4005 68.0634 41.3067 69.1585C41.2698 69.5873 41.2095 70.0177 41.2413 70.4499C41.1491 71.324 41.0721 72.1997 40.9698 73.0738C40.9598 73.1546 40.9531 73.2371 40.9397 73.3179C40.8509 73.8605 40.7889 73.9232 40.2426 74.0172C40.0884 74.0436 39.9359 74.0766 39.7834 74.1079C38.0976 74.4064 36.3968 74.4048 34.6942 74.3685C34.3725 74.3619 34.0491 74.3207 33.7257 74.3075C33.5296 74.2992 33.3269 74.286 33.1543 74.1706C32.918 74.1326 32.6817 74.0799 32.4438 74.0584C32.2058 74.037 32.1203 73.8951 32.0935 73.6956C31.8589 71.987 31.6344 70.2767 31.388 68.5697C31.197 67.2486 31.0445 65.9226 30.8501 64.5999C30.7529 63.9369 30.6893 63.2607 30.6423 62.5879C30.6239 62.3256 30.5921 62.0634 30.5669 61.8028C30.4647 60.5263 30.3608 59.2481 30.2586 57.9716C30.2536 57.9007 30.2636 57.8298 30.267 57.7588C30.1882 57.6269 30.0592 57.6945 29.957 57.6945C28.055 57.6896 26.1548 57.6846 24.2528 57.6978C23.9864 57.6995 23.8054 57.6665 23.7903 57.3663L23.7953 57.368Z" fill="#55408B"/>
<path d="M24.556 20.5055C23.2489 20.7463 21.9285 20.926 20.66 21.3384C19.2473 21.7968 17.9738 22.4895 16.8946 23.5071C16.2277 23.014 15.6529 22.4351 15.3982 21.6369C15.0764 20.6292 15.2507 19.6561 15.7886 18.7556C16.0919 18.246 16.4539 17.771 16.7773 17.2729C17.0739 16.8161 17.3152 16.3345 17.3521 15.7787C17.3839 15.5676 17.3889 15.3565 17.3487 15.147C17.1979 13.2125 18.0341 11.771 19.6746 10.7749C21.0588 9.93375 22.0743 8.79577 22.7345 7.34442C23.4869 5.68527 24.5912 4.34608 26.2669 3.5165C27.3076 3.00029 28.4119 2.71332 29.5782 2.66054C29.8949 2.63415 30.2116 2.62756 30.5266 2.66384C31.5522 2.72321 32.5124 3.02832 33.4441 3.43074C33.8395 3.60062 34.2283 3.79358 34.664 3.85295C35.0829 3.92387 35.5102 3.83316 35.9292 3.90078C36.9932 3.9651 37.8931 4.41535 38.6556 5.10803C40.1453 6.46207 41.0736 8.13277 41.3686 10.1135C41.5127 11.0816 41.3233 12.0283 40.9831 12.9453C40.8759 13.2339 40.8173 13.5357 40.8022 13.8425C40.7754 14.0965 40.7636 14.3505 40.8072 14.6044C40.8374 15.2279 41.0854 15.7837 41.3468 16.3362C41.6115 16.8969 41.9031 17.4428 42.0221 18.0629C42.1662 18.8117 41.997 19.4796 41.5898 20.1064C41.4222 20.3636 41.2379 20.6127 41.0669 20.8683C40.648 21.4917 40.4486 22.1712 40.4888 22.9233C40.5089 23.301 40.5391 23.6803 40.4603 24.058C40.3196 24.7342 39.9291 25.2191 39.3175 25.5407C38.3288 24.2114 37.1307 23.1097 35.6644 22.3032C35.6694 22.1927 35.7599 22.1481 35.8353 22.0987C37.2446 21.185 38.0339 19.8408 38.5131 18.2988C39.0293 16.6413 39.3108 14.9359 39.4834 13.2125C39.5292 12.7562 39.3454 12.4236 38.9321 12.2147C38.5098 12.0019 38.1361 11.7149 37.7993 11.3933C37.1323 10.7567 36.4453 10.135 35.9074 9.3796C35.7867 9.20973 35.6929 9.19324 35.5504 9.36311C34.6137 10.478 33.4055 11.2185 32.0599 11.7463C30.8048 12.2394 29.5145 12.6204 28.1672 12.7903C28.0214 12.8084 27.8756 12.8117 27.7298 12.8249C27.3562 12.8595 27.0797 12.7639 26.8685 12.4159C26.649 12.0547 26.2803 11.8353 25.8698 11.7084C25.3604 11.5517 24.9196 11.7051 24.5393 12.0415C24.0667 12.4621 23.9209 13.0261 23.8556 13.6215C23.8053 13.8441 23.8053 14.0651 23.8606 14.2861C23.9042 14.6143 23.9662 14.9359 24.127 15.2328C24.5057 15.9321 25.0788 16.3345 25.8999 16.3675C26.287 16.3823 26.3273 16.4269 26.334 16.8062C26.344 17.5203 26.2669 18.2246 26.0709 18.9106C25.9117 19.4697 25.6201 19.9513 25.1207 20.2845C24.9515 20.3983 24.7822 20.5335 24.5527 20.5055H24.556Z" fill="#11051D"/>
<path d="M41.1845 70.4746C41.0538 70.026 41.1929 69.5758 41.2214 69.1321C41.2465 68.7479 41.2834 68.3537 41.3018 67.9727C41.342 67.1332 41.4107 66.2971 41.4576 65.4576C41.523 64.2817 41.5816 63.1058 41.6436 61.9298C41.6922 60.9881 41.7157 60.0448 41.771 59.1047C41.8682 57.495 41.9235 55.8837 41.8766 54.2724C41.833 52.7666 41.6219 51.2806 41.0756 49.8557C40.5578 48.5049 39.6445 47.4972 38.3944 46.765C37.6186 46.3114 36.7991 45.9651 35.9311 45.7259C35.8657 45.7078 35.7853 45.6962 35.7686 45.5841C36.0199 45.4851 36.3048 45.627 36.5494 45.4967C36.6801 45.3581 36.8527 45.4142 37.0086 45.4043C37.1594 45.3944 37.3136 45.4142 37.4627 45.373C37.5633 45.3581 37.6638 45.3482 37.7442 45.4274C37.9906 45.5264 38.2553 45.4719 38.51 45.5016C39.0228 45.5593 39.5389 45.5907 40.0534 45.6484C40.1355 45.6583 40.2193 45.6484 40.3014 45.6336C41.8112 45.7226 43.2859 45.9865 44.7287 46.4433C47.1501 47.2119 48.556 48.8496 49.0571 51.2757C49.1442 51.6946 49.2665 52.1102 49.2263 52.5472C49.347 53.7941 49.5011 55.0393 49.4944 56.2943C49.5531 56.5434 49.476 56.799 49.5363 57.0464C49.5363 57.4175 49.5363 57.7902 49.5363 58.1613C49.4927 59.1377 49.5045 60.114 49.5313 61.0904C49.5363 61.2751 49.543 61.4598 49.5447 61.6445C49.5464 62.9013 49.5581 64.158 49.5413 65.4131C49.533 66.0596 49.4911 66.7061 49.5363 67.3526C49.5631 68.4625 49.4844 69.5708 49.4626 70.6808C49.4475 71.4197 49.3788 72.1585 49.3738 72.8974C49.3721 73.219 49.2531 73.3707 48.9448 73.4136C48.8107 73.4318 48.68 73.4647 48.5476 73.4928C48.4287 73.6115 48.2728 73.6297 48.117 73.6544C46.5133 73.91 44.9013 73.9414 43.2825 73.8309C42.9909 73.8111 42.6994 73.8127 42.4111 73.76C41.5733 73.6857 41.5666 73.6874 41.4426 72.876C41.337 72.1882 41.1979 71.5038 41.1694 70.8061C41.1644 70.694 41.1493 70.5802 41.1862 70.4713L41.1845 70.4746Z" fill="#3C2774"/>
<path d="M37.7459 45.4868C37.6738 45.3961 37.5766 45.4373 37.4878 45.439C37.2566 45.4769 37.0253 45.4588 36.7941 45.4489C36.2059 45.4043 35.6144 45.4423 35.0262 45.4274C34.9039 45.4241 34.7864 45.5264 34.6792 45.439C34.6825 45.3961 34.676 45.279 34.6793 45.2361C34.6676 44.9805 34.81 44.8898 35.0463 44.903C36.1925 44.9689 37.342 44.9294 38.4866 45.0102C39.7685 45.5957 41.0521 45.5759 42.3357 45.0102C42.4245 45.091 42.5351 45.0547 42.6357 45.0547C43.378 45.058 44.122 45.091 44.8627 45.0481C46.3977 44.9591 47.9326 44.9821 49.4676 45.0019C51.4852 45.0283 53.0067 46.3758 53.31 48.3648C53.4441 49.2356 53.3569 50.0998 53.2547 50.9656C53.1559 51.8183 53.0855 52.6743 52.995 53.5269C52.876 54.6435 52.747 55.76 52.6297 56.8766C52.5576 57.5577 52.504 58.2405 52.4303 58.9216C52.3582 59.5912 52.251 60.2575 52.199 60.9288C52.1521 61.5572 52.0616 62.1707 51.8052 62.7496C51.4098 63.6402 50.7612 64.2966 49.8899 64.7419C49.662 64.859 49.667 64.7122 49.667 64.5489C49.6704 62.6655 49.7005 60.7804 49.6569 58.8986C49.6335 57.9024 49.6536 56.9046 49.5949 55.9118C49.5262 54.7424 49.4726 53.5698 49.2682 52.4203C49.2883 52.3741 49.2196 52.4021 49.238 52.4269C49.2548 52.4516 49.2296 52.5044 49.2229 52.5456C49.0671 51.8068 48.9431 51.0613 48.7102 50.3373C48.0834 48.3895 46.706 47.1938 44.7923 46.5506C43.3881 46.0789 41.9402 45.8068 40.4572 45.7276C40.4086 45.7243 40.36 45.6996 40.3131 45.6847C40.0819 45.7556 39.8607 45.6567 39.6361 45.6352C39.0077 45.5759 38.3776 45.5396 37.7476 45.4835L37.7459 45.4868Z" fill="#EED4FF"/>
<path d="M52.1706 77.733C52.7068 78.0496 53.2565 78.3465 53.7491 78.7291C54.0373 78.9551 54.3021 79.2025 54.4747 79.529C54.711 79.976 54.5954 80.319 54.1345 80.5483C53.7843 80.7214 53.4006 80.7923 53.0202 80.8286C51.6545 80.9573 50.2871 80.9325 48.9197 80.8517C47.9209 80.7923 46.9323 80.6604 45.9469 80.4955C45.8749 80.5845 45.957 80.6555 45.9738 80.728C46.1262 81.3366 45.9268 81.6714 45.3169 81.833C44.5108 82.0458 43.6814 82.0375 42.8603 82.0507C40.8645 82.0837 38.8804 81.932 36.9098 81.5972C36.0685 81.4553 35.229 81.3069 34.4012 81.0942C33.2131 80.7907 32.8746 80.3982 32.8679 79.1942C32.8646 78.5494 32.9383 77.9029 33.1478 77.2827C33.1863 77.1673 33.2014 77.0386 33.3354 76.9809C33.498 76.9232 33.617 77.0287 33.7443 77.0898C35.5759 77.9705 37.4979 78.5922 39.4971 78.9666C40.4556 79.1464 41.4258 79.2025 42.3743 78.8677C42.5536 78.805 42.7178 78.7192 42.8636 78.5988C43.0865 78.4141 43.0865 78.3465 42.8552 78.1766C42.562 77.9622 42.2486 77.7742 41.9369 77.5878C41.8213 77.5202 41.694 77.4609 41.647 77.3207C41.6923 76.7467 41.885 76.2157 42.1363 75.7027C42.1715 75.6302 42.2302 75.5675 42.324 75.5609C42.6122 75.6681 42.8368 75.8759 43.0831 76.0458C44.226 76.8308 45.5247 77.2563 46.8368 77.6538C47.9528 77.9903 49.0873 78.203 50.2653 78.1618C50.8501 78.142 51.4081 78.0529 51.931 77.7907C52.008 77.7528 52.0868 77.733 52.1723 77.733H52.1706Z" fill="#A569E5"/>
<path d="M19.6716 65.7693C19.7084 65.6621 19.7352 65.5812 19.8961 65.5812C20.9015 65.5878 21.9087 65.5796 22.9141 65.5763C22.7532 66.5461 22.5923 67.5158 22.4332 68.4856C22.1918 69.9534 21.9556 71.4196 21.7143 72.8874C21.4529 74.4757 21.1881 76.0639 20.925 77.6505C20.8848 77.8929 20.8479 78.137 20.7943 78.3762C20.6636 78.9649 20.0972 79.3773 19.5626 79.2816C18.9577 79.1728 18.6075 78.6384 18.6728 77.9985C18.7851 76.8951 18.8722 75.7885 18.9661 74.6818C19.0666 73.5043 19.1655 72.3267 19.261 71.1491C19.3548 70.0012 19.4453 68.855 19.5341 67.7071C19.5844 67.0623 19.6263 66.4158 19.6732 65.7693H19.6716Z" fill="#55408B"/>
<path d="M7.92126 64.821C8.7742 64.9166 9.62715 65.0106 10.4801 65.1047C10.6141 65.1195 10.7482 65.1343 10.8823 65.1376C10.9711 65.1409 11.018 65.169 11.0146 65.2597C10.5924 66.9601 10.1684 68.6604 9.75115 70.3625C9.20319 72.5923 8.66025 74.8221 8.11062 77.0502C7.95645 77.6753 7.42022 78.0398 6.83706 77.9243C6.393 77.8353 5.88358 77.3933 6.01596 76.6099C6.55722 73.3823 7.07167 70.1497 7.59449 66.9188C7.70844 66.2196 7.81234 65.5203 7.92126 64.8193V64.821Z" fill="#55408B"/>
<path d="M41.6652 77.3108C42.0909 77.6241 42.5684 77.8567 42.9974 78.17C43.222 78.335 43.1885 78.4356 43.0091 78.5889C42.5433 78.9848 41.9819 79.1183 41.3921 79.1645C39.904 79.2783 38.4998 78.8792 37.1005 78.4669C35.8019 78.0826 34.535 77.6093 33.3335 76.9826C33.2883 76.3427 33.2581 75.6994 33.1911 75.0612C33.1592 74.7643 33.1626 74.4691 33.1559 74.1739C34.1362 74.2283 35.1131 74.2976 36.0968 74.2992C37.3435 74.3025 38.5785 74.1937 39.8102 74.0271C39.9174 74.1228 39.8957 74.253 39.8973 74.3734C39.9024 74.7544 39.9107 75.1354 39.8973 75.5147C39.8839 75.8545 40.0197 76.1118 40.2794 76.3179C40.6397 76.5999 41.0201 76.8539 41.4055 77.0997C41.501 77.1607 41.6133 77.2019 41.6669 77.3124L41.6652 77.3108Z" fill="#FFCDBA"/>
<path d="M52.1704 77.733C51.6877 78.076 51.1297 78.1964 50.5516 78.236C49.144 78.33 47.795 78.043 46.4628 77.6291C45.0217 77.1805 43.6342 76.6313 42.4377 75.6928C42.3975 75.6615 42.359 75.6252 42.3204 75.5922C42.2367 75.5147 42.2333 75.4108 42.2316 75.3102C42.2249 74.8732 42.2232 74.4361 42.2316 73.9991C42.235 73.877 42.245 73.7517 42.3791 73.6857C43.2722 73.7533 44.1671 73.8044 45.0636 73.8061C46.2349 73.8061 47.3912 73.6857 48.5441 73.4977C48.5441 73.9595 48.5558 74.4213 48.5357 74.8814C48.5256 75.109 48.6061 75.2657 48.767 75.4174C49.397 76.0078 50.1377 76.4449 50.8599 76.9083C51.2939 77.1871 51.733 77.4592 52.1704 77.7346V77.733Z" fill="#FFCDBA"/>
<path d="M49.533 67.3576C49.4509 67.2702 49.4844 67.1613 49.4844 67.0623C49.4827 64.2042 49.4827 61.3477 49.4844 58.4895C49.4844 58.3807 49.4492 58.2619 49.533 58.163C49.5397 59.1294 49.5464 60.0942 49.5531 61.0607C49.5967 61.5208 49.5732 61.981 49.5698 62.4395C49.5648 63.5445 49.5967 64.6495 49.5531 65.7545C49.5464 66.2888 49.538 66.8216 49.5313 67.3559L49.533 67.3576Z" fill="#06003D"/>
<path d="M49.5547 65.7562C49.5547 64.191 49.5547 62.6275 49.5547 61.0624C49.6217 61.13 49.605 61.2158 49.605 61.2966C49.605 62.705 49.605 64.1151 49.605 65.5236C49.605 65.6044 49.6217 65.6902 49.5547 65.7578V65.7562Z" fill="#EED4FF"/>
<path d="M49.5327 57.0497C49.464 56.8023 49.4892 56.5483 49.4908 56.2976C49.5746 56.545 49.5495 56.7973 49.5327 57.0497Z" fill="#9477BA"/>
<path d="M23.7938 13.6018C23.7971 13.3643 23.8441 13.135 23.9161 12.9074C24.1289 12.2345 24.5378 11.7266 25.2584 11.5897C25.9421 11.4594 26.5319 11.7695 26.8771 12.3104C27.1771 12.7804 27.5457 12.792 27.9797 12.7326C29.9219 12.4671 31.7786 11.936 33.4845 10.963C34.3559 10.4649 35.125 9.83983 35.74 9.01355C36.4505 9.99321 37.2549 10.8492 38.1749 11.5979C38.5703 11.9195 38.9893 12.2016 39.4752 12.3747C39.5691 12.4077 39.6579 12.4259 39.6411 12.5792C39.3965 14.9146 39.1082 17.2433 38.1698 19.4319C37.6504 20.6441 36.8175 21.6122 35.668 22.3032C34.8234 22.7733 33.9168 23.0075 32.9466 22.9844C32.6668 22.9778 32.3886 22.9201 32.1104 22.8871C31.9797 22.9745 31.8507 22.9267 31.72 22.8871C30.3459 22.4715 29.2349 21.6864 28.3652 20.5715C28.397 21.2114 28.9332 22.1218 29.5365 22.61C30.0945 23.0619 30.7212 23.3357 31.4384 23.4115C31.539 23.4214 31.6513 23.405 31.7267 23.499C30.6475 25.0179 28.5763 25.544 26.7732 24.3929C25.4729 23.5616 24.8294 22.3214 24.6199 20.8371C24.6048 20.7266 24.5763 20.6161 24.5562 20.5056C25.7259 20.0273 26.0527 19.0328 26.1867 17.9245C26.237 17.5072 26.2638 17.0883 26.2554 16.6661C26.2521 16.5193 26.2336 16.455 26.056 16.4484C24.7087 16.3956 23.891 15.6122 23.7904 14.2945C23.7703 14.0636 23.7619 13.8327 23.7938 13.6034V13.6018Z" fill="#FFCDBA"/>
<path d="M38.4865 45.0101C38.386 45.0942 38.2653 45.0514 38.1547 45.0547C37.1208 45.0827 36.0886 45.0398 35.058 44.992C34.8519 44.9821 34.7245 45.0316 34.6793 45.2361C34.4815 43.8639 34.6843 42.5165 34.9558 41.174C35.0613 40.6528 35.187 40.1333 35.3043 39.6138C35.4853 39.6698 35.4635 39.8414 35.4937 39.9684C35.7501 41.0173 36.0567 42.0464 36.5678 43.0096C36.8443 43.5307 37.2314 43.9744 37.5615 44.4593C37.8699 44.6423 38.1782 44.8271 38.4865 45.0101Z" fill="white"/>
<path d="M24.1975 36.3747C24.3383 36.3367 24.3969 36.2328 24.4757 36.1553C25.7258 34.9266 26.9725 33.6946 28.2209 32.4643C28.3449 32.3423 28.4622 32.2087 28.6499 32.1691C28.6985 32.1592 28.7421 32.1147 28.7907 32.1641C28.8443 32.2169 28.8376 32.2812 28.8007 32.334C28.7354 32.4264 28.6667 32.5187 28.5879 32.5979C27.8673 33.3137 27.1384 34.0228 26.4212 34.7419C25.2063 35.9607 23.9964 37.1845 22.7865 38.4082C22.6927 38.5039 22.5838 38.5896 22.4665 38.4775C22.3559 38.3719 22.4162 38.2482 22.5117 38.1526C22.9055 37.7551 23.296 37.3527 23.6998 36.9651C23.8439 36.8282 23.8875 36.693 23.8623 36.5017C23.6194 34.6578 23.4468 32.8073 23.3228 30.9519C23.3127 30.8134 23.2825 30.6237 23.487 30.6122C23.7233 30.599 23.6814 30.8018 23.6914 30.9503C23.8221 32.7595 23.9914 34.5638 24.1992 36.3763L24.1975 36.3747Z" fill="#3C2774"/>
<path d="M37.5614 44.4577C37.4558 44.4495 37.4122 44.3719 37.3486 44.2994C36.3448 43.1218 35.8471 41.7183 35.4768 40.257C35.4215 40.041 35.3611 39.8266 35.3025 39.6122C35.1651 38.8766 35.0193 38.1411 34.8903 37.4038C34.7663 36.6963 34.6607 35.9855 34.5467 35.2763C34.5367 35.2153 34.5384 35.1526 34.535 35.0916C34.525 34.9563 34.5467 34.8277 34.7143 34.826C34.8501 34.826 34.907 34.9316 34.9121 35.0586C34.9405 35.6655 35.0662 36.2593 35.1718 36.8563C35.4919 38.6457 35.8086 40.4368 36.4923 42.1388C36.7788 42.8497 37.2396 43.4681 37.5815 44.1476C37.6251 44.235 37.7993 44.3719 37.5597 44.4561L37.5614 44.4577Z" fill="#3C2774"/>
<path d="M31.7266 23.4989C29.7291 23.517 28.2662 21.7029 28.2695 20.3439C28.5745 20.7364 28.8862 21.0514 29.2029 21.3631C29.9603 22.1053 30.8887 22.5506 31.8925 22.8606C31.9612 22.8821 32.0366 22.8771 32.1103 22.8854C32.0114 23.108 31.9008 23.3241 31.7266 23.4989Z" fill="#FFA986"/>
<path d="M39.0311 32.3174C39.1853 32.3142 39.2439 32.4345 39.3109 32.5351C40.0617 33.65 40.8191 34.7583 41.5547 35.8831C42.0122 36.5841 42.4328 37.3064 42.8668 38.0222C42.9339 38.1327 43.0378 38.2729 42.8568 38.3653C42.6892 38.4494 42.6121 38.3026 42.5451 38.1888C41.4425 36.2955 40.2158 34.4813 38.9607 32.6852C38.9021 32.6011 38.8317 32.517 38.8786 32.4032C38.9054 32.3389 38.9641 32.3174 39.0311 32.3191V32.3174Z" fill="#3C2774"/>
<path d="M25.7509 45.6765C24.9499 46.0723 24.097 46.0938 23.229 46.0146C22.8972 45.9849 22.5872 45.8381 22.247 45.8596C19.7535 44.9607 18.485 42.9684 17.5365 40.709C16.583 38.4396 16.0133 36.0597 15.5206 33.6617C15.3866 33.0069 15.2642 32.3505 15.1637 31.6908C15.1386 31.5276 14.9961 31.2389 15.2894 31.2043C15.5491 31.173 15.4921 31.4566 15.5223 31.6265C16.0887 34.8393 16.7523 38.0289 18.0795 41.0388C18.7497 42.5578 19.6345 43.93 21.0723 44.8783C21.4041 45.0976 21.7661 45.2527 22.1247 45.4209C22.4632 45.6402 22.8536 45.6848 23.239 45.7194C24.1942 45.8052 25.1292 45.7276 25.9956 45.2658C26.2419 45.1339 26.4715 44.9756 26.6944 44.8074C26.7916 44.7232 26.8887 44.6391 26.9859 44.5567C27.249 44.3967 27.4602 44.1839 27.6277 43.9283L27.673 43.8772C27.7903 43.7601 27.9294 43.6611 27.9997 43.5044C28.3952 43.0723 28.7103 42.5858 29.0052 42.0844C29.3923 41.5633 29.6805 40.9811 30.0056 40.422C30.6021 39.3961 31.1032 38.3208 31.6143 37.2521C32.0047 36.4357 32.37 35.6095 32.7454 34.7865C32.7588 34.7584 32.7672 34.7288 32.7806 34.7007C32.8275 34.6084 32.8795 34.4896 33.0051 34.5424C33.1157 34.5886 33.0604 34.704 33.0336 34.7898C32.9599 35.0141 32.8459 35.2235 32.7488 35.4396C32.0399 36.9948 31.3244 38.5468 30.5334 40.0641C30.2787 40.4632 30.0626 40.8821 29.8414 41.2994C29.5381 41.7711 29.2364 42.2444 28.9583 42.7309C28.913 42.787 28.8678 42.8414 28.8225 42.8975C28.7186 43.0476 28.5946 43.1845 28.5192 43.3511C28.3701 43.5292 28.2209 43.7073 28.0701 43.8854C27.745 44.2664 27.3697 44.5979 27.0127 44.9475C26.619 45.2395 26.2034 45.4901 25.7476 45.6782L25.7509 45.6765Z" fill="#3C2774"/>
<path d="M26.6945 44.8073C26.3074 45.2229 25.7996 45.434 25.2718 45.5972C24.2328 45.9205 23.1989 45.8694 22.175 45.5181C22.1482 45.5082 22.1231 45.4884 22.103 45.4686C22.0979 45.4637 22.118 45.4373 22.1264 45.4191C22.5521 45.556 22.9794 45.6781 23.4318 45.688C23.7234 45.7209 24.015 45.7193 24.3065 45.688C25.0807 45.6302 25.7879 45.3894 26.428 44.9524C26.5101 44.8963 26.5805 44.8089 26.6961 44.8073H26.6945Z" fill="#3C2774"/>
<path d="M29.0068 42.0844C28.7671 42.6237 28.4521 43.1118 28.0013 43.506C28.3365 43.0327 28.6716 42.5593 29.0068 42.0844Z" fill="#3C2774"/>
<path d="M28.9598 42.7292C28.9514 42.6468 28.9531 42.5692 29.0134 42.4983C29.2883 42.1751 29.4692 41.7924 29.6921 41.4379C29.7307 41.3752 29.7608 41.3109 29.8429 41.296C29.6016 41.8056 29.2983 42.2773 28.9598 42.7292Z" fill="#3C2774"/>
<path d="M27.0161 44.9458C27.3228 44.5467 27.6998 44.2168 28.0735 43.8837C27.797 44.3125 27.435 44.6555 27.0161 44.9458Z" fill="#3C2774"/>
<path d="M25.751 45.6764C25.7694 45.6418 25.7811 45.5824 25.8063 45.5758C26.2168 45.4736 26.5436 45.2278 26.8737 44.9837C26.9106 44.9573 26.9692 44.9573 27.0178 44.9458C26.7162 45.2493 26.3559 45.4653 25.9554 45.6203C25.8884 45.6385 25.8197 45.6583 25.7527 45.6764H25.751Z" fill="#3C2774"/>
<path d="M29.843 41.296C29.9989 40.8441 30.2268 40.4301 30.5351 40.0607C30.3441 40.4944 30.1279 40.9133 29.843 41.296Z" fill="#3C2774"/>
<path d="M27.6276 43.9282C27.5087 44.2317 27.2992 44.4461 26.9858 44.5566C27.2003 44.3471 27.4148 44.1377 27.6276 43.9282Z" fill="#3C2774"/>
<path d="M24.3049 45.688C24.0133 45.7655 23.7218 45.7672 23.4302 45.688C23.7218 45.688 24.0133 45.688 24.3049 45.688Z" fill="#4D3585"/>
<path d="M28.5227 43.3493C28.5512 43.1514 28.6601 43.0046 28.826 42.8958C28.7841 43.0854 28.6534 43.2174 28.5227 43.3493Z" fill="#3C2774"/>
<path d="M28 43.5044C27.9849 43.7089 27.8341 43.798 27.6732 43.8771C27.7553 43.7303 27.8609 43.6017 28 43.5044Z" fill="#3C2774"/>
<path d="M16.7558 48.7078C16.744 48.2641 16.7574 47.8221 16.8948 47.395C16.9317 47.2795 16.9753 47.1575 17.0473 47.0602C17.1278 46.9497 17.2501 46.8722 17.3992 46.953C17.535 47.0255 17.5852 47.141 17.5383 47.2911C17.0959 48.6995 17.3121 50.1245 17.4478 51.5429C17.5668 52.7798 17.6958 54.0167 17.8467 55.2504C18.1433 57.6533 18.398 60.0662 19.0364 62.4147C19.1805 62.9425 19.3732 63.4505 19.7034 63.9007C19.8173 64.0557 19.876 64.2289 19.6765 64.3559C19.4688 64.4879 19.3431 64.3312 19.2442 64.1811C18.7985 63.5049 18.5957 62.7363 18.4147 61.9678C18.0561 60.4472 17.8316 58.9018 17.6456 57.3515C17.4646 55.8425 17.2669 54.335 17.1093 52.8227C16.9669 51.4538 16.8044 50.0849 16.7541 48.7078H16.7558Z" fill="#A569E5"/>
<path d="M8.28161 45.3153C6.96114 45.274 5.63899 45.2328 4.31852 45.1899C4.02862 45.18 3.72196 45.1536 3.70521 44.9095C3.68845 44.6539 4.01689 44.6127 4.29171 44.6127C5.37926 44.6127 6.4668 44.6308 7.55435 44.6473C8.0822 44.6556 8.61173 44.6704 9.13958 44.6918C9.45294 44.705 9.81658 44.7232 9.80317 45.0085C9.78976 45.2806 9.45127 45.3103 9.12283 45.3153C8.84298 45.3186 8.56313 45.3153 8.28161 45.3153Z" fill="#A569E5"/>
<path d="M23.7953 57.368C23.8037 57.3284 23.8137 57.2888 23.8221 57.2476C23.8355 57.2509 23.8607 57.2525 23.8607 57.2558C23.8774 57.5263 24.0227 57.6615 24.2964 57.6615C26.1765 57.6615 28.0584 57.6615 29.9385 57.6632C30.0525 57.6632 30.1966 57.6038 30.2703 57.7588C30.1647 57.6929 30.0458 57.7225 29.9335 57.7225C28.0114 57.7209 26.0877 57.7126 24.1656 57.7291C23.8657 57.7308 23.745 57.6615 23.7936 57.368H23.7953Z" fill="#1F035F"/>
<path d="M36.7924 45.4159C37.0237 45.4241 37.2566 45.4324 37.4879 45.439C37.1812 45.5544 36.8595 45.4554 36.5478 45.4983C35.9311 45.495 35.3144 45.4901 34.6978 45.4868C34.6894 45.4868 34.676 45.4785 34.6743 45.4736C34.6743 45.4554 34.676 45.4373 34.6777 45.4208C35.3831 45.3845 36.087 45.3928 36.7924 45.4175V45.4159Z" fill="#3C2774"/>
<path d="M23.7938 13.6017C23.7938 13.8326 23.7904 14.0635 23.7904 14.2927C23.705 14.0618 23.7234 13.8309 23.7938 13.6017Z" fill="#835C60"/>
<path d="M37.7458 45.4868C38.6088 45.4604 39.4584 45.5924 40.3113 45.688C39.9829 45.8348 39.6561 45.6765 39.331 45.66C38.763 45.6303 38.1982 45.5429 37.6201 45.5528C37.6352 45.528 37.6402 45.505 37.6536 45.5017C37.6821 45.4918 37.7156 45.4918 37.7458 45.4885V45.4868Z" fill="#3C2774"/>
<path d="M35.3026 18.4259C35.1083 18.4556 34.8854 18.3813 34.6558 18.3632C34.4765 18.3484 34.3441 18.2642 34.3592 18.0795C34.3743 17.8882 34.5184 17.8371 34.6994 17.8585C34.9273 17.8849 35.1552 17.9179 35.3847 17.9245C35.7718 17.9344 35.8858 17.7992 35.7216 17.4611C35.4417 16.8871 35.4099 16.2769 35.3613 15.665C35.3462 15.4803 35.3512 15.289 35.5992 15.2824C35.8506 15.2758 35.8523 15.4704 35.8573 15.6535C35.8724 16.1994 35.9361 16.7337 36.174 17.2384C36.2578 17.4165 36.3064 17.6078 36.2796 17.8058C36.2193 18.2659 35.9662 18.4308 35.301 18.4259H35.3026Z" fill="#11051D"/>
<path d="M33.8482 15.2015C33.8516 15.4653 33.7762 15.7061 33.6237 15.9222C33.4628 16.1481 33.2567 16.2867 32.9651 16.2256C32.6551 16.1613 32.516 15.9304 32.4808 15.6501C32.4356 15.279 32.5378 14.9343 32.8009 14.6556C32.9685 14.4774 33.1679 14.3537 33.4393 14.451C33.7108 14.5484 33.8113 14.7595 33.8482 15.0167C33.8566 15.0778 33.8482 15.1404 33.8482 15.2015Z" fill="#11051D"/>
<path d="M33.6837 19.1829C34.4596 19.2175 35.0796 19.4368 35.5354 19.9992C35.6494 20.1394 35.7013 20.3044 35.5388 20.4346C35.4047 20.5418 35.2572 20.494 35.1601 20.3571C34.649 19.6364 33.4659 19.4995 32.618 20.0322C32.5912 20.0487 32.5644 20.0652 32.5392 20.0834C32.3918 20.184 32.2443 20.2087 32.1337 20.0438C32.0197 19.8723 32.127 19.7519 32.2644 19.6578C32.7118 19.3511 33.2112 19.1994 33.6837 19.1829Z" fill="#11051D"/>
<path d="M32.2779 13.5506C32.2042 13.5506 32.1321 13.5506 32.0584 13.5506C31.8992 13.5523 31.8255 13.4451 31.8154 13.3197C31.8037 13.1812 31.8623 13.0591 32.0349 13.0377C32.2611 13.0097 32.489 12.9833 32.7153 12.9437C33.2297 12.853 33.6771 12.6287 34.0609 12.2807C34.2067 12.1488 34.3659 12.0201 34.5385 12.218C34.6993 12.4027 34.582 12.5594 34.4279 12.6897C33.8095 13.2158 33.0957 13.511 32.2762 13.5523L32.2779 13.5506Z" fill="#11051D"/>
<path d="M36.6768 15.8843C36.6768 15.3648 36.9616 15.0102 37.3621 15.03C37.7224 15.0481 37.9486 15.4175 37.8866 15.8909C37.8196 16.4021 37.518 16.7073 37.1594 16.6297C36.8778 16.5687 36.6784 16.2603 36.6784 15.8843H36.6768Z" fill="#11051D"/>
<path d="M38.5571 14.23C38.3627 14.2152 38.1582 14.0931 37.9555 13.9711C37.5013 13.699 37.1478 13.3279 36.8528 12.8958C36.7422 12.7342 36.7087 12.561 36.8981 12.4406C37.0774 12.3268 37.2014 12.4323 37.3103 12.5841C37.6807 13.092 38.1163 13.5242 38.7397 13.7287C38.8905 13.7781 38.9559 13.8853 38.924 14.0371C38.8972 14.1641 38.7783 14.2317 38.5571 14.23Z" fill="#11051D"/>
<path d="M28.6129 31.9442C28.6062 32.0547 28.6565 32.1586 28.7453 32.2262C29.4524 32.749 32.5911 35.0464 32.9631 34.8699C33.3535 34.6836 34.0355 33.7847 34.126 33.6643C34.1327 33.6544 34.1394 33.6462 34.1445 33.6363C34.2316 33.4895 34.9371 32.2625 35.2722 30.7649C35.4297 30.13 35.7917 28.964 36.2341 28.1492C36.2425 28.1327 36.2492 28.1162 36.2559 28.0997C36.4503 27.4912 36.7016 27.1052 36.5441 26.5758C36.4788 26.3581 36.2123 26.2724 36.0246 26.406C35.475 26.7985 34.2165 28.3422 34.2165 28.3422C34.3908 28.4791 36.2676 26.0629 36.2676 26.0629C36.281 26.0481 36.2927 26.0316 36.3045 26.0134C36.4302 25.8056 37.1893 24.4879 35.8135 25.1426C35.7917 25.1525 35.7716 25.1641 35.7532 25.1789C35.036 25.7199 32.886 27.7402 32.824 27.5538C32.7402 27.3098 35.5705 25.1954 35.5705 25.1954C35.6275 25.1476 35.666 25.0816 35.6794 25.0107C35.7079 24.8573 35.6794 24.6116 35.227 24.567C35.1901 24.5637 35.1516 24.567 35.1164 24.5753C34.6237 24.6891 31.336 26.7391 31.6677 26.8991C31.7683 26.9486 32.6212 26.2278 34.4059 24.6676C34.6153 24.4846 34.7075 24.2092 34.4629 24.0756C34.2802 23.9766 33.9467 23.9535 33.3636 24.1382C33.3535 24.1415 33.3435 24.1448 33.3334 24.1498C32.3464 24.5456 30.0339 25.9013 29.3603 27.8705C28.7956 29.5214 28.6481 31.3752 28.6146 31.9458L28.6129 31.9442Z" fill="#FFCDBA" stroke="#FFB79C" stroke-width="0.3" stroke-miterlimit="10"/>
<path d="M34.3911 33.7243C34.3911 33.7243 34.1448 34.7089 34.6073 34.7749C35.0698 34.8408 35.9445 34.7089 36.5628 34.3626C37.1812 34.0162 38.2654 33.1504 38.4447 32.9376C38.624 32.7249 38.872 32.2829 38.8636 32.2614C38.8552 32.24 39.5574 29.4181 38.572 27.7128C37.7057 26.2433 36.9298 25.6116 36.9298 25.6116C36.9298 25.6116 36.6718 25.5621 36.5997 25.8442C36.5276 26.1262 36.4606 26.2763 36.5947 26.362C36.7287 26.4478 36.8511 26.4445 36.8192 26.8519C36.7656 27.5462 36.3333 28.356 36.2545 28.6891C36.1757 29.0223 35.4786 30.7375 35.4083 31.1284C35.3379 31.5192 34.5201 33.5924 34.3928 33.7243H34.3911Z" fill="#FFCDBA" stroke="#FFB79C" stroke-width="0.3" stroke-miterlimit="10"/>
</g>
</g>
<defs>
<clipPath id="clip0_153_9249">
<rect width="123" height="84" fill="white"/>
</clipPath>
<clipPath id="clip1_153_9249">
<rect width="51.9626" height="79.4595" fill="white" transform="translate(2.63098 2.5946)"/>
</clipPath>
</defs>
</svg>
