<svg width="426" height="329" viewBox="0 0 426 329" fill="none" xmlns="http://www.w3.org/2000/svg">
<path d="M60.8405 113.305C34.7995 115.994 11.2623 147.827 4.25127 163.229C-1.99995 185 0.999625 328.5 0.999625 328.5H422.903C425.24 272.912 428.5 176.5 418.903 157.832C411.892 158.252 400.92 140.142 399.372 129.688C397.87 119.542 367.11 111.119 343.284 108.264C290.702 101.964 240.122 104.064 228.604 108.264C217.086 112.465 189.042 116.246 162.5 113.305C135.958 110.365 128.714 103.254 106.412 104.064C88.1196 104.728 86.8814 110.617 60.8405 113.305Z" fill="#F9F4FE"/>
<path d="M192.267 125.661C218.833 122.604 224.183 117.846 239.184 117.846C254.186 117.846 260.463 117.228 275.757 112.343C291.051 107.458 311.805 104.536 314.067 117.846C316.33 131.156 333.9 114.862 370.223 125.661C395.157 133.075 391.188 148.717 365.668 163.774C340.148 178.83 320.884 177.272 282.001 177.272C226.147 177.272 218.914 184.501 190.185 184.501C172.901 184.501 164.344 177.272 122.052 177.272C96.6856 177.272 76.9248 171.661 48.5995 166.352C20.2742 161.042 42.2082 133.121 60.1226 126.204C94.7701 112.827 120.594 111.743 147.482 121.696C159.657 126.204 173.582 127.811 192.267 125.661Z" fill="#FBCDFF"/>
<ellipse cx="119.647" cy="159.106" rx="51.6581" ry="6.16272" fill="black" fill-opacity="0.15"/>
<ellipse cx="270.815" cy="161.191" rx="68.1524" ry="4.8033" fill="black" fill-opacity="0.15"/>
<path d="M324.36 75.123C331.317 76.4709 336.615 80.1081 339.959 86.4304C342.673 91.56 344.299 97.0559 345.375 102.731C346.68 109.628 346.851 116.6 346.517 123.575C346.145 131.286 344.329 138.712 341.21 145.776C337.864 153.347 331.97 158.26 324.427 161.357C319.303 163.461 313.972 164.641 308.444 164.986C300.653 165.475 292.899 165.061 285.157 164.2C278.433 163.453 271.757 162.461 265.292 160.375C262.136 159.356 259.098 158.081 256.611 155.813C253.877 153.32 252.115 150.309 251.885 146.53C251.887 145.899 252.465 145.866 252.84 145.666C256.14 143.909 259.483 142.224 262.463 139.924C263.474 139.143 264.338 138.215 265.228 137.311C265.838 136.693 266.429 136.57 267.189 137.02C270.724 139.1 274.56 140.467 278.443 141.724C286.109 143.866 293.266 142.933 299.749 138.143C301.469 136.872 302.929 135.295 304.464 133.805C305.39 132.906 306.267 131.925 307.471 131.355C307.799 131.283 308.083 131.139 308.35 130.917C311.996 127.913 316 125.469 320.239 123.409C322.154 122.479 324.069 121.537 326.091 120.837C322.817 121.939 317.123 124.814 313.619 127.103C313.258 127.338 312.924 127.804 312.389 127.424C312.376 127.392 312.346 127.357 312.352 127.333C312.793 125.586 313.464 123.939 314.513 122.457C315.192 122.278 315.837 122.527 316.492 122.621C318.979 122.974 320.996 122.153 322.659 120.294C324.676 118.039 325.508 115.263 326.171 112.423C326.856 109.495 327.249 106.513 327.447 103.512C327.522 102.378 328.001 101.348 328.086 100.196C328.247 98.0588 328.19 95.9273 328.233 93.7931C328.244 93.2261 328.244 92.6565 328.479 92.1216C329.94 89.5969 330.689 86.9172 330.226 83.978C329.937 82.1273 329.036 80.5949 327.768 79.255C326.738 78.1638 325.564 77.2037 324.676 75.9788C324.497 75.7328 324.144 75.5215 324.366 75.1204L324.36 75.123Z" fill="#E56990"/>
<path d="M278.6 141.505C276.329 140.959 274.182 140.058 272.031 139.181C270.368 138.501 268.734 137.75 267.204 136.79C266.795 136.533 266.393 136.346 265.968 136.83C262.376 140.9 257.591 143.211 252.9 145.658C252.638 145.795 252.333 145.869 252.157 146.14C249.996 146.907 248 148.044 245.893 148.929C241.022 150.978 236.16 153.04 231.295 155.096C230.38 154.885 230.765 154.291 231.001 153.866C231.84 152.342 232.934 151.004 234.079 149.689C236.599 146.795 239.586 144.342 241.918 141.272C243.889 138.675 245.435 135.846 246.674 132.842C246.823 132.476 246.968 132.102 246.981 131.84C246.47 133.369 245.738 134.95 244.908 136.488C243.074 139.895 240.739 142.922 237.925 145.575C235.395 147.961 233.188 150.638 230.91 153.254C229.992 154.305 229.163 155.431 228.92 156.864C228.647 158.332 228.417 159.809 228.093 161.266C227.69 163.09 226.665 164.315 224.675 164.491C219.805 164.922 215.178 166.417 210.495 167.682C208.772 168.147 207.002 168.214 205.242 167.965C204.354 167.84 203.364 167.639 203.075 166.626C202.773 165.556 203.426 164.778 204.209 164.146C205.196 163.349 206.296 162.718 207.406 162.108C207.812 161.884 208.203 161.635 208.604 161.4C208.804 160.86 209.339 160.755 209.767 160.536C212.049 159.373 214.322 158.201 216.373 156.634C218.029 155.372 219.267 153.804 220.11 151.914C220.326 151.43 220.586 150.97 220.851 150.515C222.159 148.68 222.926 146.567 223.854 144.546C227.965 135.584 231.857 126.517 236.478 117.796C237.15 116.531 237.888 115.298 238.634 114.073C240.712 110.661 243.889 109.179 247.76 109.021C252.21 108.842 256.503 109.81 260.769 110.92C260.961 110.971 261.159 110.998 261.357 111.035C261.79 111.763 262.48 112.102 263.253 112.381C265.043 113.028 266.832 113.678 268.597 114.384C269.121 114.592 269.67 114.779 270.001 115.293C270.381 116.293 270.715 117.299 270.352 118.382C270.095 118.727 269.712 118.706 269.349 118.711C265.045 118.778 261.14 120.064 257.642 122.565C255.267 124.26 252.716 125.646 250.097 126.911C249.291 126.83 248.746 127.215 248.463 128.063C248.276 128.628 248.062 129.187 247.872 129.938C248.95 129.219 249.862 128.505 250.752 127.766C253.649 125.573 256.441 123.223 259.608 121.417C262.922 119.529 266.482 118.553 270.336 118.869C272.505 119.109 274.652 119.484 276.776 119.987C277.161 120.077 277.554 120.147 277.899 120.364C279.844 122.664 280.553 125.429 280.729 128.333C280.97 132.337 280.226 136.247 279.296 140.12C279.172 140.625 279.106 141.187 278.603 141.516L278.6 141.505Z" fill="#FFCDBA"/>
<path d="M80.4284 128.779C79.7411 128.98 79.3238 128.98 79.4121 128.004C80.3536 117.659 82.2873 107.512 85.3684 97.5877C85.1838 97.1036 85.4085 96.6623 85.5449 96.2264C87.698 89.3639 90.2976 82.6859 93.9056 76.4411C95.4917 73.6972 97.19 71.0147 99.327 68.6452C103.269 64.2752 108.038 62.1571 113.933 63.6601C116.391 64.2859 118.616 65.5616 120.569 67.2358C120.665 67.6236 120.416 67.8723 120.178 68.097C119.437 68.7923 118.851 69.5786 118.552 70.5654C118.482 70.7928 118.365 70.9987 118.076 70.996C117.351 70.5895 117.578 69.7444 117.252 69.263C118.825 74.2427 120.427 79.3214 122.138 84.3654C122.647 85.7801 123 87.243 123.398 88.6872C123.751 89.9656 123.644 90.1876 122.529 90.907C117.838 93.3246 113.24 95.9135 108.632 98.4863C108.282 98.6815 107.907 98.8259 107.522 98.9463C107.049 98.9409 106.741 99.2966 106.372 99.4999C105.738 99.8475 105.297 99.7967 104.871 99.1388C103.13 96.451 101.624 93.6349 100.25 90.7465C99.664 89.5163 99.081 88.2834 98.5674 87.0184C99.9047 90.2651 101.469 93.4022 103.2 96.4564C103.759 97.4432 104.411 98.3713 104.984 99.3447C105.31 99.901 105.623 99.8556 106.126 99.6389C106.597 99.4357 106.958 98.9249 107.567 99.0639C108.332 99.7807 108.589 100.706 108.659 101.709C107.781 103.439 106.607 104.985 105.61 106.643C103.219 110.623 100.937 114.664 98.8536 118.814C98.0593 120.395 97.1392 121.911 96.4385 123.54C96.3315 123.789 96.1603 123.995 95.9437 124.161C95.7779 124.284 95.596 124.383 95.4141 124.479C90.9716 126.552 86.3205 127.953 81.5063 128.83C81.1452 128.897 80.7815 128.975 80.4311 128.779H80.4284Z" fill="#E56990"/>
<path d="M80.4281 128.779C85.6114 127.811 90.6611 126.41 95.4539 124.171C95.5609 124.829 95.0179 125.161 94.7023 125.586C92.5654 128.477 90.2732 131.261 88.6631 134.511C90.2839 131.277 92.5734 128.498 94.705 125.61C95.0982 125.075 95.5529 124.58 95.8123 123.957C96.7912 122.486 97.4598 120.85 98.2676 119.29C101.399 113.257 104.67 107.309 108.5 101.685C109.057 101.832 109.102 102.356 109.271 102.768C110.763 106.41 112.387 109.989 114.467 113.34C115.666 115.268 116.968 117.116 118.83 118.499C120.17 119.494 121.622 120.173 123.291 120.374C123.815 120.438 124.355 120.481 124.807 120.815C125.067 121.205 124.984 121.652 125.003 122.08C125.053 123.444 124.912 124.813 125.147 126.174C125.251 126.776 124.989 127.356 124.826 127.931C123.617 132.184 121.745 136.174 119.964 140.202C118.316 143.932 116.447 147.543 114.066 150.87C112.855 152.565 111.386 154.023 109.835 155.39C108.942 156.176 107.99 156.938 106.711 157.034C102.188 159.193 97.6337 159.08 93.1377 157.042C86.593 154.079 82.9075 148.781 81.2037 141.969C80.158 137.792 80.0216 133.545 80.4254 129.271C80.4415 129.108 80.4254 128.942 80.4254 128.777L80.4281 128.779Z" fill="#55408B"/>
<path d="M120.509 67.3481C118.453 65.9895 116.404 64.556 113.994 63.9302C109.506 62.7642 105.433 63.6975 101.819 66.642C98.5457 69.3111 96.3846 72.8413 94.2583 76.3876C90.5407 82.5895 88.0721 89.329 85.8281 96.1622C85.673 96.6355 85.5205 97.1116 85.3654 97.5849C82.8887 95.7583 81.1636 93.3942 80.3078 90.4256C80.0965 89.6928 79.9601 88.9413 79.9654 88.1737C79.8771 87.4917 79.8825 86.8071 79.9627 86.1251C80.495 80.3938 83.2926 76.2244 88.5027 73.7025C89.4575 73.2398 90.4284 72.7905 91.3324 72.2369C93.3089 71.0307 94.261 69.1774 94.6515 66.9309C95.3897 62.6705 97.1308 58.9611 100.696 56.2841C102.616 54.8426 104.807 54.0001 107.147 53.9038C114.497 53.6043 120.017 50.2238 124.243 44.3455C126.19 41.639 128.798 39.6599 132.088 38.8255C136.947 37.5953 141.291 38.7961 145.166 41.8824C147.121 43.4389 148.868 45.2361 149.775 47.5655C150.382 49.1247 151.304 50.3228 152.353 51.5664C154.196 53.7487 155.14 56.3643 155.276 59.2393C155.34 60.194 155.37 61.1488 155.263 62.1036C155.231 63.9382 154.637 65.6311 153.794 67.217C152.61 69.4475 152.527 71.702 153.34 74.0502C153.674 75.0183 153.987 76.0025 154.204 77.0054C154.969 80.5409 153.356 84.0926 150.194 85.9352C149.86 86.1305 149.528 86.331 149.194 86.5263C149.331 86.8258 149.066 86.8071 148.994 86.7028C148.095 85.3977 146.739 84.6542 145.479 83.7904C144.203 80.8592 142.484 78.1794 140.726 75.5238C140.598 75.3285 140.462 75.1413 140.464 74.8926C141.192 73.8148 142.227 73.0098 143.045 72.0096C143.89 70.9773 144.722 69.9342 145.57 68.9046C145.84 68.5756 145.878 68.3242 145.621 67.9391C144.685 66.5377 144.11 64.9705 143.69 63.3472C143.398 62.2159 143.123 61.0793 142.708 59.9854C141.978 58.0545 140.702 57.4555 138.769 58.1241C138.579 58.1882 138.386 58.2524 138.21 58.3434C135.051 59.9614 131.967 58.5974 130.122 56.2493C129.79 55.8294 129.466 55.4015 129.049 55.0645C128.204 54.3799 127.236 54.3959 126.401 55.0939C124.896 56.3563 124.607 58.3647 125.808 59.9239C126.294 60.5551 126.375 61.0472 125.947 61.7131C125.476 62.4432 125.326 63.3311 124.88 64.08C124.54 64.4169 124.157 64.7084 123.796 65.0214C122.959 65.6231 122.194 66.3158 121.365 66.9309C121.108 67.1234 120.905 67.4337 120.509 67.3508V67.3481Z" fill="#11051D"/>
<path d="M124.749 120.863C120.084 120.641 117.089 117.916 114.716 114.217C112.25 110.374 110.397 106.231 108.698 102.014C108.65 101.896 108.567 101.794 108.5 101.687C108.289 100.805 108 99.9545 107.506 99.1842C107.366 99.0692 107.366 98.9409 107.468 98.8045C112.416 96.1434 117.252 93.2791 122.285 90.7812C122.764 91.0086 122.852 91.4953 123.023 91.9179C124.061 94.4746 125.059 97.0474 126.297 99.5159C126.436 99.7913 126.541 100.086 126.685 100.358C127.14 101.139 127.565 101.936 127.926 102.76C128.239 103.469 128.739 103.667 129.491 103.736C133.874 104.14 138.036 103.07 142.189 101.928C142.789 101.746 143.385 101.564 143.987 101.393C146.129 100.647 148.271 99.917 150.202 98.6761C151.147 98.0717 151.556 97.2961 151.553 96.1862C151.553 95.5283 151.259 94.7822 151.877 94.2125C154.546 97.2319 156.509 100.65 157.376 104.6C157.879 106.892 156.161 109.368 153.674 110.219C152.952 110.465 152.203 110.708 151.452 110.767C150.657 110.829 150.566 111.203 150.577 111.858C150.585 112.417 150.494 112.992 150.363 113.538C150.047 114.854 149.293 115.816 147.98 116.282C147.64 116.616 147.22 116.787 146.771 116.929C145.065 117.461 143.35 117.964 141.63 118.459C141.366 118.52 141.104 118.598 140.844 118.675C136.543 119.775 132.197 120.609 127.784 121.101C126.987 121.189 126.187 121.155 125.388 121.13C125.147 121.106 124.925 121.031 124.743 120.866L124.749 120.863Z" fill="#FFCDBA"/>
<path d="M156.526 46.1589C157.403 44.3965 158.082 42.5672 158.497 40.5667C158.783 39.4542 158.561 38.0876 158.355 37.5875C157.981 36.8092 157.365 36.4936 156.563 36.384C152.91 35.8785 149.526 34.667 146.584 32.3991C144.281 30.6233 142.736 28.2859 141.682 25.5981C140.636 22.9264 140.189 20.1396 140.312 17.2914C140.502 12.8839 141.797 8.89373 144.897 5.58014C147.881 2.38689 151.554 0.763528 155.838 0.263414C158.823 -0.086934 161.816 -0.0361202 164.79 0.118995C171.051 1.26364 174.293 2.85492 177.973 7.19548C179.599 9.68803 180.287 12.5176 180.645 15.4728C181.011 18.4949 180.725 21.4501 180.081 24.3732C178.912 29.6712 175.603 33.156 170.623 35.1457C169.075 35.7635 167.491 36.2556 165.817 36.3813C165.255 36.4241 165.095 36.8172 164.996 37.2451C164.327 40.1201 161.805 44.3537 156.531 46.1643L156.526 46.1589Z" fill="#A569E5" fill-opacity="0.22"/>
<path d="M269.548 115.632C267.183 114.511 264.701 113.696 262.249 112.805C261.575 112.559 261.04 112.251 261.083 111.425C260.97 110.617 260.858 109.812 260.746 109.005C261.035 108.703 261.417 108.759 261.778 108.743C262.145 108.727 262.514 108.761 262.877 108.713C263.303 108.657 263.872 108.636 263.888 108.106C263.904 107.539 263.313 107.585 262.904 107.502C262.436 107.408 261.583 107.627 261.599 107.141C261.618 106.526 262.449 106.79 262.936 106.729C263.402 106.67 263.862 106.606 264.314 106.488C264.573 106.421 264.883 106.344 264.934 106.052C264.993 105.705 264.643 105.664 264.41 105.555C264.175 105.445 263.888 105.416 263.709 105.084C263.95 104.696 264.351 104.766 264.731 104.777C265.03 104.787 265.397 104.857 265.482 104.474C265.576 104.073 265.244 103.878 264.923 103.758C264.266 103.514 263.573 103.394 262.888 103.241C262.476 103.148 262.022 103.132 261.69 102.693C261.955 102.287 262.353 102.372 262.73 102.404C263.212 102.444 263.776 102.471 263.859 101.88C263.937 101.329 263.345 101.27 262.958 101.131C262.233 100.872 261.479 100.738 260.711 100.663C260.355 100.628 259.962 100.703 259.705 100.353C259.363 97.6546 259.026 94.9561 258.676 92.2576C258.403 90.1635 258.395 90.1662 260.494 90.5781C260.957 90.5781 261.401 90.6663 261.848 90.792C264.142 91.4419 266.357 92.3298 268.66 92.9529C269.008 93.0465 269.366 93.1615 269.561 93.5146C271.321 94.3142 273.038 93.8703 274.75 93.3274C275.039 92.9369 275.491 92.9128 275.908 92.8192C281.003 91.6612 286.106 90.5353 291.223 89.4575C292.333 89.3692 292.763 89.6474 292.878 90.6583C293.159 93.1375 293.402 95.6193 293.67 98.0985C293.702 98.398 293.686 98.6976 293.517 98.965C293.073 99.3769 292.514 99.2726 291.99 99.2699C290.57 99.2565 289.195 99.4945 287.847 99.9198C287.561 100.011 287.275 100.107 287.026 100.286C286.828 100.431 286.67 100.612 286.716 100.869C286.767 101.15 287.015 101.201 287.248 101.246C287.545 101.302 287.847 101.292 288.147 101.292C289.35 101.292 290.554 101.273 291.757 101.302C292.191 101.313 292.91 101.147 292.932 101.696C292.95 102.177 292.207 102.169 291.774 102.212C290.712 102.316 289.655 102.525 288.58 102.493C288.008 102.477 287.443 102.557 286.898 102.72C286.582 102.813 286.21 102.915 286.245 103.351C286.275 103.72 286.612 103.811 286.9 103.873C288.179 104.148 289.479 104.218 290.779 104.295C291.311 104.327 291.848 104.271 292.381 104.322C292.688 104.351 293.167 104.29 293.154 104.726C293.146 105.057 292.696 105.063 292.41 105.065C291.041 105.089 289.671 105.148 288.302 105.02C287.77 104.969 286.97 104.651 286.847 105.368C286.737 106.007 287.588 106.098 288.107 106.266C289.222 106.627 290.372 106.83 291.544 106.932C292.188 106.988 292.881 106.975 293.456 107.47C293.119 107.967 292.624 107.873 292.18 107.895C291.348 107.938 290.506 107.828 289.679 107.991C289.39 108.047 289.019 108.111 288.992 108.467C288.965 108.834 289.337 108.933 289.615 109.01C291.105 109.422 292.651 109.481 294.17 109.708C294.601 109.772 295.045 109.783 295.333 110.19C295.601 110.783 295.558 111.43 295.649 112.054C295.817 113.225 295.462 113.73 294.29 113.966C291.348 114.557 288.385 115.025 285.427 115.533C282.733 115.996 280.043 116.469 277.376 117.068C277.09 117.162 276.799 117.242 276.502 117.277C275.493 117.397 275.172 117.135 275.068 116.119C274.432 109.938 273.586 103.787 272.779 97.6278C272.682 96.9004 272.64 96.1649 272.527 95.4375C272.431 94.8331 272.217 94.4105 271.511 94.5014C270.746 94.5977 271 95.1754 271.048 95.5872C271.506 99.4009 272.035 103.204 272.538 107.012C272.923 109.925 273.348 112.834 273.72 115.75C273.902 117.172 273.444 117.719 272.265 116.87C271.345 116.49 270.342 116.284 269.548 115.632Z" fill="#55408B"/>
<path d="M293.41 98.9784C293.14 96.1703 292.87 93.3622 292.602 90.5541C292.511 89.5913 291.869 89.6073 291.163 89.725C290.104 89.0564 288.946 88.9441 287.737 89.1339C286.855 89.273 285.969 89.3131 285.081 89.166C284.504 88.9467 284.627 88.4814 284.744 88.0695C285.787 84.3655 286.943 80.7096 289.256 77.5431C289.639 77.0189 290.142 76.6578 290.599 76.2326C292.814 75.5052 295.084 75.0639 297.414 74.9168C297.729 75.227 297.598 75.5961 297.558 75.9571C297.438 77.0911 297.424 78.2331 297.529 79.359C297.906 83.5016 301.463 85.4941 305.325 83.8092C308.289 82.5175 310.297 80.2683 311.848 77.5377C312.375 76.6097 312.846 75.6469 313.25 74.6547C313.402 74.2803 313.579 73.9192 313.993 73.7534C314.411 73.6144 314.823 73.7534 315.237 73.7748C316.633 74.0102 317.992 74.414 319.361 74.767C319.736 74.8633 320.137 74.9623 320.34 75.3607C320.025 76.0053 319.367 76.3342 318.944 76.8985C316.609 80.0196 315.582 83.6273 314.98 87.3876C314.347 91.3591 314.157 95.376 314.413 99.3769C314.579 101.944 314.347 104.525 314.737 107.079C314.823 107.635 314.78 108.213 314.732 108.78C314.684 109.339 314.405 109.668 313.814 109.566C307.395 108.462 301.059 107.186 296.796 101.514C295.919 100.348 294.769 99.5133 293.41 98.9704V98.9784Z" fill="#FFC446"/>
<path d="M314.098 73.8819C313.692 74.0798 313.617 74.489 313.459 74.8554C312.135 77.9603 310.48 80.854 307.639 82.8197C305.791 84.0981 303.783 85.0823 301.392 84.5501C299.661 84.165 298.49 83.0952 297.808 81.5146C296.984 79.6131 297.131 77.61 297.364 75.6149C297.39 75.3849 297.398 75.1495 297.414 74.9195C299.977 74.4248 299.939 74.4248 299.987 71.7504C300.003 70.8758 299.814 70.4854 298.896 70.1698C295.636 69.0465 294.02 66.3935 293.044 63.2912C292.162 60.4884 292.041 57.6081 292.314 54.685C292.458 53.1285 292.405 51.5506 292.44 49.9834C293.146 45.501 298.014 43.3241 301.434 43.8322C302.857 44.0435 304.245 44.3965 305.524 45.1079C308.319 46.6671 309.482 49.2238 309.926 52.2352C310.073 53.2408 310.167 54.2597 310.555 55.3696C311.114 54.8294 311.483 54.3159 311.964 53.9174C312.999 53.0616 314.12 52.7139 315.39 53.3531C316.629 53.9762 317.19 55.0514 317.134 56.3832C317.04 58.6003 315.963 60.3868 313.975 61.2399C312.558 61.8497 312.05 62.7242 311.935 64.0775C311.921 64.2433 311.887 64.4091 311.849 64.5723C311.678 66.6529 311.632 68.7363 311.937 70.8063C312.114 71.9964 312.545 73.0528 313.815 73.5101C313.97 73.5663 314.088 73.6947 314.096 73.8845L314.098 73.8819Z" fill="#FFCDBA"/>
<path d="M311.637 64.457C311.71 63.9623 311.803 63.4702 311.851 62.9754C311.937 62.0848 312.357 61.5687 313.256 61.2878C315.441 60.6059 317.029 58.1962 316.869 55.9711C316.714 53.7808 314.542 52.6201 312.651 53.7246C311.948 54.1365 311.405 54.7168 310.979 55.4122C310.867 55.594 310.803 55.9069 310.506 55.8454C310.228 55.7893 310.223 55.4817 310.182 55.2704C309.928 53.9332 309.712 52.5853 309.458 51.2481C308.837 48.0041 307.01 45.7549 303.865 44.6744C300.618 43.5592 297.564 43.84 294.865 46.1507C293.667 47.1777 293.073 48.5951 292.439 49.9831C292.319 48.5095 292.359 47.0199 292.723 45.6051C293.811 41.3582 296.89 39.1598 300.928 38.2478C303.41 37.6862 305.981 37.8306 308.473 38.427C311.413 39.133 313.494 41.064 315.264 43.3934C315.36 43.5191 315.449 43.6501 315.564 43.8106C316.037 40.1761 313.28 37.2636 308.813 36.7341C310.297 35.56 311.974 35.0813 313.697 34.8326C318.72 34.1078 323.764 36.9989 325.644 41.6309C326.714 44.2706 326.765 47.0386 326.401 49.7986C325.872 53.7968 324.352 57.5223 323.023 61.2985C322.504 62.7748 322.092 64.2805 322.055 65.8611C321.956 66.7517 321.935 67.6396 322.068 68.5275C322.218 70.9398 322.991 73.1355 324.358 75.1252C325.088 76.3448 326.147 77.2755 327.166 78.2249C330.951 81.7471 331.472 85.8897 329.581 90.5058C329.34 91.0915 329.271 91.7948 328.666 92.1906C328.281 91.3883 328.265 90.5272 328.233 89.6606C328.129 86.9488 327.714 84.2931 326.773 81.731C325.866 79.2652 324.275 77.4439 321.886 76.3127C321.325 76.0479 320.667 75.9195 320.263 75.3766C318.602 74.7054 316.813 74.4754 315.117 73.9244C314.735 73.7773 314.443 73.5233 314.192 73.1997C312.186 70.6215 311.287 67.7225 311.637 64.457Z" fill="#11051D"/>
<path d="M125.315 120.863C130.651 120.783 135.802 119.545 140.959 118.349C141.569 119.168 141.28 120.09 141.184 120.952C140.983 122.767 140.83 124.586 140.657 126.402C140.459 128.451 140.341 130.507 140.111 132.553C139.993 133.61 139.953 134.677 139.902 135.733C139.731 139.317 139.309 142.887 139.231 146.476C139.212 147.367 139.028 148.257 139.063 149.159C139.287 150.504 138.64 151.295 137.431 151.731C134.954 152.863 132.376 153.526 129.632 153.424C129.164 153.408 128.696 153.414 128.346 153.028C127.722 152.518 127.963 151.737 127.757 151.092C127.631 150.702 127.637 150.268 127.369 149.921C126.85 148.739 126.816 147.458 126.669 146.211C126.051 141.018 125.46 135.821 125.176 130.593C125.021 127.734 125.182 124.872 124.949 122.021C124.914 121.609 124.831 121.133 125.318 120.863H125.315Z" fill="#55408B"/>
<path d="M125.316 120.863C125.003 121.535 125.083 122.265 125.182 122.936C125.433 124.634 125.251 126.338 125.342 128.033C125.559 132.016 125.824 135.992 126.284 139.961C126.655 143.16 126.944 146.366 127.482 149.544C127.501 149.659 127.41 149.795 127.367 149.921C123.81 153.959 119.423 156.454 114.045 157.182C111.582 157.516 109.15 157.302 106.708 157.037C108.051 156.406 109.255 155.588 110.362 154.585C113.248 151.967 115.361 148.781 117.153 145.377C119.702 140.534 121.849 135.503 123.77 130.382C124.457 128.55 125.077 126.715 124.775 124.666C124.593 123.423 124.743 122.131 124.746 120.863C124.936 120.863 125.123 120.863 125.313 120.863H125.316Z" fill="#3C2774"/>
<path d="M128.343 153.028C131.192 153.44 133.891 152.854 136.528 151.822C136.803 151.715 137.087 151.622 137.367 151.523C137.464 151.485 137.573 151.472 137.651 151.539C139.446 153.154 141.633 154.085 143.8 155.05C147.095 156.518 150.43 157.893 153.648 159.532C154.118 159.773 154.693 159.773 155.081 160.188C154.939 160.378 154.461 160.172 154.538 160.586C154.776 161.843 153.894 162.223 152.998 162.541C151.511 163.071 149.941 163.271 148.381 163.314C142.674 163.472 136.966 163.469 131.326 162.37C130.871 162.282 130.416 162.159 129.978 162.009C127.453 161.145 126.624 159.677 127.201 157.061C127.504 155.695 127.862 154.341 128.343 153.026V153.028Z" fill="#FFCDBA"/>
<path d="M141.587 118.231C143.722 117.582 145.853 116.932 147.988 116.282C147.53 119.333 147.044 122.382 146.621 125.439C146.148 128.862 145.701 132.288 145.294 135.719C144.896 139.086 144.562 142.462 144.2 145.831C144.134 146.46 144.048 147.086 144.011 147.717C143.979 148.294 143.46 148.185 143.157 148.383C142.002 149.225 140.609 149.244 139.282 149.474C139.121 149.501 138.964 149.396 138.916 149.204C139.1 146.722 139.22 144.235 139.41 141.755C139.584 139.477 139.683 137.19 139.935 134.914C140.058 133.799 140.124 132.662 140.173 131.537C140.261 129.384 140.574 127.249 140.721 125.102C140.857 123.115 141.151 121.141 141.28 119.154C141.301 118.812 141.349 118.493 141.587 118.229V118.231Z" fill="#55408B"/>
<path d="M151.885 94.2098C151.864 94.8089 151.773 95.416 151.834 96.007C151.989 97.5422 151.294 98.4916 149.975 99.1842C148.063 100.193 146.113 101.083 144.008 101.599C143.645 100.468 144.113 99.3768 144.204 98.2723C144.543 94.0895 144.273 90.0297 142.227 86.2428C141.796 85.4458 141.331 84.689 140.721 84.0203C140.483 83.7609 140.138 83.5256 140.368 83.0843C142.248 82.3756 144.011 82.6216 145.667 83.7422C147.068 84.3894 148.25 85.3121 149.2 86.5316C151.069 88.7487 151.93 91.3215 151.89 94.2098H151.885Z" fill="#55408B"/>
<path d="M138.985 149.306C140.376 148.998 141.767 148.691 143.157 148.383C145.294 150.461 147.758 152.09 150.357 153.51C152.045 154.433 153.77 155.288 155.567 155.986C156.311 156.275 157.012 156.663 157.654 157.142C158.151 157.511 158.611 157.965 158.544 158.607C158.475 159.271 157.905 159.57 157.317 159.781C156.592 160.038 155.843 160.164 155.075 160.191C154.487 160.236 153.979 160.006 153.473 159.744C149.237 157.554 144.735 155.938 140.488 153.777C139.335 153.192 138.188 152.574 137.364 151.523C138.255 151.074 139.049 150.56 138.822 149.357C138.846 149.239 138.897 149.217 138.985 149.306Z" fill="#FFB79C"/>
<path d="M220.576 150.905C219.947 153.344 218.589 155.318 216.663 156.904C214.146 158.974 211.204 160.324 208.329 161.79C206.703 161.67 205.058 161.64 203.491 161.151C202.576 160.867 201.351 160.728 201.34 159.436C201.33 158.27 202.493 158.179 203.29 157.909C205.679 157.102 208.104 156.406 210.504 155.625C214.055 154.47 217.433 152.93 220.579 150.905H220.576Z" fill="#FFB79C"/>
<path d="M290.601 76.2329C289.97 77.1208 289.312 77.9927 288.708 78.8993C286.75 81.8518 285.841 85.2216 284.888 88.5726C284.835 88.7598 284.883 88.8935 285.022 89.0085C284.918 89.4097 284.557 89.4525 284.247 89.5194C282.794 89.8349 281.35 90.1826 279.93 90.6212C279.678 90.6988 279.414 90.7603 279.178 90.557C280.179 87.107 281.345 83.7319 283.559 80.8275C285.362 78.4634 287.777 77.0352 290.601 76.2302V76.2329Z" fill="#FFCDBA"/>
<path d="M259.389 100.373C260.657 100.416 261.916 100.512 263.104 101.012C263.553 101.202 264.168 101.341 263.97 102.013C263.799 102.598 263.238 102.751 262.676 102.745C262.32 102.745 261.965 102.585 261.553 102.732C262.631 102.989 263.671 103.203 264.69 103.492C265.217 103.639 265.725 103.944 265.573 104.62C265.479 105.035 265.163 105.332 264.671 105.16C264.316 105.035 263.968 104.963 263.47 105.123C263.831 105.222 264.075 105.305 264.326 105.353C264.706 105.425 265.091 105.554 265.102 105.984C265.113 106.409 264.717 106.57 264.366 106.704C263.417 107.067 262.414 107.011 261.416 107.153C262.013 107.217 262.614 107.249 263.203 107.356C263.591 107.426 264.021 107.546 264.048 108.062C264.075 108.627 263.633 108.776 263.216 108.905C262.299 109.18 261.357 108.966 260.429 109.025C259.45 108.636 259.074 107.863 259.301 106.706C259.333 106.538 259.266 106.474 259.143 106.404C258.798 106.209 258.798 105.875 258.779 105.535C258.742 104.813 259.025 104.139 258.68 103.334C258.474 102.852 258.661 102.069 258.453 101.39C258.26 100.764 258.771 100.44 259.389 100.379V100.373Z" fill="#FFB79C"/>
<path d="M278.512 90.9005C278.959 90.6799 279.414 90.4725 279.89 90.3253C281.578 89.8031 283.321 89.489 285.023 89.0085C286.705 89.0379 288.371 88.5993 290.07 88.9042C290.642 89.0058 290.971 89.2198 291.166 89.7253C288.123 90.4019 285.079 91.0839 282.033 91.7551C279.607 92.2873 276.798 92.911 274.369 93.4352C270.057 94.6963 271.114 94.0561 274.6 92.7413C276.161 91.961 277.324 91.4872 278.512 90.9005Z" fill="#FFB79C"/>
<path d="M228.642 157.257C228.345 155.527 229.6 154.494 230.517 153.398C233.082 150.333 235.805 147.412 238.645 144.591C242.189 141.071 244.727 136.875 246.476 132.2C246.589 131.904 247.126 130.518 247.57 130.371C247.519 131.813 246.337 134.038 245.775 135.257C243.946 139.229 241.443 142.722 238.305 145.781C235.732 148.29 233.146 150.806 231.223 153.882C230.937 154.336 230.217 154.85 231.014 155.492C230.145 155.976 229.297 156.487 228.642 157.257Z" fill="#FFB79C"/>
<path d="M269.561 93.5174C266.539 92.5386 263.517 91.5598 260.494 90.5782C260.361 90.0835 260.222 89.5914 260.65 89.1581C261.051 88.7543 261.468 89.0485 261.864 89.1528C265.164 90.038 268.536 91.9184 271.363 93.8975C271.131 94.1288 270.438 93.8975 269.561 93.5147V93.5174Z" fill="#FFB79C"/>
<path d="M320.263 75.374C324.331 76.5668 326.599 79.4017 327.621 83.3972C328.359 86.2829 328.536 89.2328 328.667 92.188C328.394 93.2685 328.498 94.3757 328.53 95.4642C328.589 97.4352 328.691 99.4731 328.236 101.337C327.426 104.675 327.501 108.117 326.696 111.441C326.201 113.479 325.749 115.533 324.856 117.429C323.545 120.205 321.718 122.449 318.418 122.987C317.426 123.147 316.498 122.901 315.553 122.762C315.19 122.708 314.831 122.655 314.468 122.642C313.176 122.527 312.06 121.89 310.94 121.344C305.7 118.788 300.897 115.594 296.786 111.428C296.31 110.946 295.729 110.628 295.208 110.219C293.467 109.954 291.72 109.716 289.984 109.417C289.359 109.31 288.42 109.275 288.465 108.454C288.516 107.569 289.468 107.651 290.14 107.625C291.201 107.582 292.266 107.614 293.336 107.542C291.619 107.194 289.845 107.175 288.176 106.606C287.802 106.477 287.42 106.362 287.05 106.221C286.585 106.044 286.208 105.75 286.326 105.199C286.451 104.613 286.954 104.544 287.436 104.621C288.96 104.865 290.498 104.801 292.03 104.83C292.354 104.835 292.694 104.924 293.242 104.613C291.573 104.576 290.129 104.635 288.701 104.407C288.045 104.303 287.382 104.263 286.721 104.191C286.2 104.135 285.828 103.891 285.807 103.327C285.783 102.749 286.162 102.471 286.671 102.415C288.094 102.257 289.522 102.142 290.945 102.003C291.6 101.939 292.252 101.856 292.905 101.575C292.057 101.575 291.207 101.573 290.359 101.575C289.324 101.581 288.289 101.578 287.256 101.607C286.772 101.621 286.358 101.506 286.243 101.008C286.13 100.521 286.438 100.195 286.866 99.992C288.366 99.2752 289.968 99.0265 291.611 98.9944C292.21 98.981 292.811 98.9837 293.413 98.981C295.168 98.9409 296.136 100.219 297.035 101.367C299.608 104.653 302.94 106.691 306.909 107.785C309.183 108.414 311.485 108.919 313.815 109.31C314.339 109.398 314.497 109.28 314.478 108.796C314.361 105.934 314.203 103.076 314.136 100.211C314.072 97.5449 313.983 94.8812 314.205 92.2094C314.398 89.888 314.569 87.572 315.08 85.2961C315.799 82.0841 316.859 79.0192 318.961 76.409C319.322 75.9624 319.723 75.5853 320.266 75.3767L320.263 75.374Z" fill="#FFCDBA"/>
<path d="M278.323 141.9C279.318 138.199 280.056 134.463 280.176 130.612C280.286 127.081 279.518 123.821 277.518 120.879C278.684 120.481 279.877 120.724 281.048 120.794C283.137 120.919 285.228 121.104 287.32 121.107C290.754 121.112 294.14 121.596 297.539 121.925C298.794 121.973 299.842 122.602 300.843 123.244C302.763 124.476 304.448 126.004 305.895 127.774C306.673 128.723 307.689 129.483 308.206 130.644C308.246 131.085 307.957 131.272 307.609 131.411C305.282 133.216 303.295 135.391 301.121 137.362C297.454 140.691 293.108 142.355 288.245 142.93C285.044 143.31 281.933 142.946 278.847 142.136C278.657 142.085 278.44 142.101 278.323 141.898V141.9Z" fill="#55408B"/>
<path d="M308.107 130.67C306.31 128.619 304.582 126.504 302.472 124.744C301.073 123.578 299.565 122.652 297.831 122.099C293.055 121.251 288.184 120.981 283.461 119.807C281.674 119.363 279.979 118.678 278.387 117.745C277.994 117.515 277.534 117.336 277.4 116.82C280.016 116.073 282.712 115.731 285.381 115.242C288.457 114.677 291.541 114.161 294.622 113.637C295.234 113.533 295.483 113.209 295.424 112.605C295.344 111.81 295.28 111.013 295.21 110.216C295.756 110.182 296.168 110.441 296.526 110.816C299.68 114.11 303.333 116.753 307.225 119.096C309.538 120.489 312.015 121.543 314.47 122.642C313.799 124.246 313.127 125.848 312.453 127.453C312.443 127.707 312.293 127.892 312.103 128.025C310.94 128.838 309.835 129.732 308.666 130.539C308.506 130.652 308.319 130.737 308.107 130.673V130.67Z" fill="#FFC446"/>
<path d="M308.107 130.67C309.554 129.598 311.004 128.523 312.451 127.45C314.17 126.445 315.853 125.367 317.621 124.45C320.397 123.008 323.173 121.543 326.169 120.58C326.39 120.508 326.596 120.387 326.824 120.564C326.808 120.935 326.489 120.935 326.259 121.026C320.132 123.407 314.416 126.522 309.169 130.494C308.698 130.85 308.449 131.668 307.607 131.414C307.66 131.09 308.126 131.042 308.104 130.67H308.107Z" fill="#C2466E"/>
<path d="M277.365 117.043C280.641 119.255 284.361 120.119 288.199 120.675C291.412 121.14 294.68 121.293 297.796 122.322C297.01 122.609 296.218 122.317 295.464 122.229C292.292 121.868 289.117 121.697 285.926 121.632C283.11 121.574 280.296 121.29 277.482 121.106C274.955 120.624 272.425 120.143 269.895 119.661C269.748 119.464 269.745 119.26 269.887 119.057C270.042 117.958 269.705 116.696 269.512 115.637C270.697 115.76 271.689 116.655 272.797 116.995C273.003 117.059 273.208 117.321 273.425 117.099C273.602 116.92 273.511 116.658 273.481 116.428C272.96 112.588 272.436 108.747 271.914 104.907C271.473 101.657 271.05 98.4053 270.585 95.1585C270.513 94.645 270.571 94.4311 271.138 94.391C272.604 94.2867 272.708 94.3455 272.906 96.1882C273.414 100.866 274.054 105.527 274.698 110.189C274.987 112.288 275.148 114.409 275.313 116.524C275.356 117.089 275.535 117.332 276.089 117.252C276.514 117.19 276.94 117.113 277.365 117.041V117.043Z" fill="#3C2774"/>
<path d="M269.922 118.833C269.925 119.034 269.927 119.237 269.93 119.438C264.824 119.269 260.376 120.997 256.364 124.064C254.5 125.49 252.346 126.614 250.557 128.138C250.511 128.179 250.2 127.614 250.104 127.595C249.863 127.414 249.802 127.384 249.675 127.284C249.78 127.025 249.961 126.819 250.216 126.723C253.005 125.658 255.45 123.973 257.886 122.313C261.54 119.82 265.568 118.809 269.919 118.836L269.922 118.833Z" fill="#FFB79C"/>
<path d="M120.509 67.3483C121.603 66.5272 122.555 65.527 123.721 64.7969C124.168 65.2863 123.882 65.8105 123.772 66.3079C123.259 68.6507 123.234 71.0042 123.676 73.347C123.994 75.0345 124.676 75.5025 126.401 75.4651C127.418 75.4437 127.525 75.2511 127.011 74.3873C125.842 72.4189 125.026 70.3195 124.738 68.0356C124.572 66.7091 124.663 65.3746 124.655 64.0454C125.155 63.0719 125.385 61.9754 126.005 61.0581C126.195 60.7772 126.104 60.6355 125.874 60.3975C124.657 59.1512 124.465 57.2845 125.353 55.8082C126.522 53.8639 128.576 53.7329 129.926 55.5541C130.63 56.5009 131.355 57.3888 132.411 57.9691C134.23 58.964 136.046 59.0095 137.963 58.2045C140.994 56.9314 142.216 57.5439 143.208 60.7184C143.872 62.8392 143.783 64.1628 144.855 66.1445C144.949 66.3184 145.087 66.6071 145.607 67.5569C146.128 68.5067 146.075 68.747 145.57 69.3514C143.965 71.2636 142.481 73.2828 140.558 74.9061C140.486 75.1763 140.33 75.3849 140.103 75.5453C137.434 77.4121 134.537 78.6797 131.28 77.626C129.431 77.0269 127.763 76.7863 125.81 77.1206C122.986 77.6046 120.926 75.9706 119.271 73.8257C119.027 73.5101 118.835 73.1517 118.538 72.8763C118.279 72.2478 117.736 71.6808 118.105 70.9106C118.525 69.4664 119.45 68.3672 120.501 67.3483H120.509Z" fill="#FFCDBA"/>
<path d="M142.395 102.158C139.25 103.175 136.014 103.795 132.737 104.132C131.397 104.271 130.015 103.939 128.643 104.02C128.201 104.046 128.108 103.68 127.958 103.399C127.431 102.399 126.92 101.388 126.404 100.382C126.768 97.4166 127.514 94.5255 127.977 91.926C127.589 93.8115 127.148 96.0339 126.714 98.259C126.621 98.7404 126.704 99.3608 126.112 99.6497C124.751 97.1946 123.852 94.5362 122.743 91.9715C122.574 91.5783 122.438 91.1718 122.288 90.7733C123.387 90.3989 123.446 89.6608 123.13 88.6739C122.678 87.2645 122.328 85.823 121.932 84.3975C121.964 84.2932 122.015 84.197 122.082 84.106C124.385 81.8889 127.03 80.5571 130.33 80.6266C132.186 80.6641 134 80.8031 135.738 81.4744C136.902 81.9237 137.988 82.4987 138.803 83.4856C141.459 86.7858 142.168 90.7439 142.682 94.7849C142.936 96.7854 142.847 98.7832 142.879 100.784C142.887 101.31 142.762 101.77 142.393 102.156L142.395 102.158Z" fill="#55408B"/>
<path d="M107.47 98.802C107.484 98.9304 107.494 99.056 107.508 99.1817C107.382 99.2192 107.243 99.2352 107.131 99.2967C105.325 100.284 105.299 100.302 104.229 98.6014C101.955 94.9856 100.022 91.1933 98.4088 87.2378C98.2805 86.9223 98.1761 86.6174 98.3874 86.1333C99.0935 87.6524 99.7675 89.0671 100.412 90.4926C101.771 93.5013 103.397 96.3656 105.154 99.1577C105.406 99.5562 105.611 99.6123 106.034 99.4117C106.502 99.1898 106.877 98.7217 107.473 98.7966L107.47 98.802Z" fill="#C2466E"/>
<path d="M122.146 84.2718C122.074 84.3146 122.004 84.3574 121.932 84.4002C120.811 81.2016 119.682 78.0083 118.717 74.7563C118.187 72.9698 117.623 71.1939 117.061 69.4181C116.93 69.0063 116.821 68.6131 117.083 68.0515C117.575 69.0464 117.575 70.0814 118.11 70.9105C118.3 71.5175 118.49 72.1273 118.68 72.7344C119.022 73.2693 119.241 73.8603 119.423 74.4647C120.217 77.1178 121.137 79.7307 122.036 82.3516C122.245 82.9613 122.579 83.6059 122.146 84.2718Z" fill="#C2466E"/>
<path d="M95.8124 123.96C95.6064 125.295 94.5607 126.116 93.8466 127.129C92.0653 129.651 90.0433 132.01 88.8023 134.882C88.7221 135.064 88.6071 135.297 88.377 135.166C88.1631 135.046 88.2861 134.818 88.369 134.631C89.1874 132.796 90.2974 131.141 91.4849 129.531C92.8035 127.742 94.1301 125.958 95.454 124.171C95.5743 124.099 95.6947 124.03 95.815 123.958L95.8124 123.96Z" fill="#3C2774"/>
<path d="M122.146 84.272C122.146 83.2852 121.796 82.3732 121.462 81.4746C120.494 78.8858 119.713 76.2381 118.873 73.6092C118.782 73.3257 118.744 73.0288 118.68 72.7373C119.445 73.2882 119.82 74.1708 120.486 74.8233C122.516 76.8104 124.829 77.471 127.533 76.5403C128.319 76.2702 128.943 76.3718 129.694 76.765C132.93 78.4605 136.017 77.7197 138.988 75.976C139.534 75.6551 140.037 75.2646 140.561 74.9063C142.479 77.7251 144.42 80.5332 145.661 83.7425C143.952 83.0899 142.203 82.7984 140.384 83.1916C139.847 83.6462 139.253 83.7478 138.6 83.4697C135.736 81.1055 132.355 80.6348 128.822 80.9531C126.576 81.1563 124.655 82.2422 122.922 83.6542C122.665 83.8628 122.403 84.0661 122.146 84.272Z" fill="#E56990"/>
<path d="M124.655 64.0454C125.128 64.3957 124.946 64.9092 124.925 65.3425C124.77 68.3512 125.513 71.1326 126.957 73.7482C127.07 73.9514 127.166 74.168 127.302 74.3526C128.217 75.5748 129.225 76.0642 128.899 76.3343C128.691 76.5108 128.479 76.3236 126.083 75.9545C123.149 75.54 123.192 74.7644 123.141 72.0071C123.101 69.8221 122.943 67.6157 123.686 65.4896C123.759 65.281 123.711 65.0269 123.719 64.7942C124.029 64.5428 124.342 64.2941 124.652 64.0427L124.655 64.0454Z" fill="#FFB79C"/>
<path d="M138.6 83.4698C139.194 83.3762 139.79 83.2853 140.384 83.1917C142.527 85.4168 143.658 88.1473 144.249 91.1133C144.728 93.5069 144.701 95.9272 144.452 98.3556C144.34 99.444 144.228 100.53 144.003 101.602C143.465 101.789 142.928 101.974 142.393 102.161C142.794 100.246 142.679 98.2994 142.535 96.3899C142.326 93.6218 141.949 90.8565 141.031 88.1981C140.526 86.7352 139.881 85.3659 138.889 84.1732C138.715 83.9619 138.536 83.7693 138.595 83.4698H138.6Z" fill="#3C2774"/>
<path d="M138.986 149.306C138.935 149.335 138.882 149.351 138.823 149.356C138.833 146.396 139.08 143.449 139.334 140.504C139.425 139.445 139.486 138.378 139.537 137.322C139.727 133.404 140.16 129.504 140.401 125.592C140.551 123.177 141.112 120.791 140.957 118.349C141.142 118.167 141.372 118.245 141.588 118.234C141.342 120.746 141.093 123.257 140.847 125.765C140.692 127.351 140.508 128.937 140.401 130.529C140.104 134.941 139.906 139.362 139.534 143.767C139.379 145.612 139.483 147.492 138.986 149.306Z" fill="#3C2774"/>
<path d="M126.113 99.6551C126.819 97.43 127.006 95.0979 127.549 92.8407C127.707 92.1828 127.742 91.4821 128.25 90.7573C128.437 91.7602 128.063 92.5224 127.926 93.306C127.554 95.4643 127.126 97.6145 126.704 99.7621C126.661 99.9814 126.506 100.179 126.404 100.385C126.308 100.142 126.209 99.8985 126.113 99.6551Z" fill="#3C2774"/>
<path d="M304.066 55.4204C303.996 56.0569 303.78 56.6159 303.047 56.664C302.303 56.7148 302.054 56.1452 302.084 55.5488C302.111 54.947 302.322 54.2998 303.079 54.2758C303.785 54.2544 303.999 54.7973 304.068 55.4204H304.066Z" fill="#11051D"/>
<path d="M305.648 52.5052C305.547 52.893 305.279 52.9652 304.98 52.7593C304.081 52.1442 303.137 52.1201 302.131 52.4384C301.901 52.5106 301.559 52.5721 301.457 52.2244C301.358 51.8928 301.634 51.7644 301.885 51.6601C303.024 51.176 304.137 51.1707 305.196 51.8794C305.413 52.0238 305.632 52.1896 305.651 52.5079L305.648 52.5052Z" fill="#11051D"/>
<path d="M296.86 55.22C296.783 55.7228 296.62 56.3165 295.828 56.2711C295.148 56.231 295.004 55.7202 295.009 55.1345C295.017 54.4391 295.333 53.9176 296.039 53.9443C296.654 53.9684 296.887 54.4953 296.86 55.22Z" fill="#11051D"/>
<path d="M300.289 64.4945C299.441 64.5774 298.617 64.3421 297.828 63.9516C297.636 63.858 297.294 63.8313 297.486 63.505C297.644 63.2376 297.81 63.5157 297.973 63.5879C299.278 64.1469 300.597 64.3501 301.918 63.6441C302.268 63.4569 302.595 63.2162 302.806 62.8551C302.921 62.6599 303.06 62.3684 303.325 62.5663C303.614 62.7829 303.4 63.0343 303.231 63.2509C302.496 64.2003 301.517 64.5855 300.292 64.4919L300.289 64.4945Z" fill="#11051D"/>
<path d="M295.51 50.8522C296.21 50.7693 296.71 51.0875 297.144 51.5288C297.301 51.6893 297.457 51.8925 297.245 52.1412C297.05 52.3712 296.799 52.3525 296.625 52.1894C295.833 51.4459 295.012 51.5395 294.151 52.0316C293.977 52.1332 293.742 52.1813 293.632 51.946C293.544 51.7588 293.603 51.5609 293.792 51.4218C294.317 51.0367 294.876 50.7612 295.512 50.8522H295.51Z" fill="#11051D"/>
<path d="M298.845 55.3804C298.39 56.6454 297.975 57.9264 297.462 59.1673C297.122 59.9884 297.034 60.1315 297.858 60.443C298.11 60.4751 298.865 60.7035 299.115 60.8253C297.959 60.8253 297.496 60.594 297.045 60.443C296.772 60.3895 296.836 60.1569 296.895 59.9589C297.376 58.357 297.826 56.7443 298.845 55.3777V55.3804Z" fill="#11051D"/>
<path d="M138.135 65.9655C137.533 66.1714 136.88 66.1901 136.268 66.0136C135.749 65.8638 135.251 65.6151 134.869 65.1043C134.594 64.7406 134.484 64.3234 134.588 63.8794C134.65 63.6173 134.866 63.2162 135.12 63.3713C135.238 63.4462 135.153 63.8313 135.203 64.0854C135.468 65.444 136.722 65.8211 138.028 65.2594C138.226 65.1738 138.314 65.1016 138.536 65.1631C138.539 65.1631 138.541 65.1631 138.544 65.1631C138.798 65.2327 138.849 65.5777 138.629 65.7248C138.493 65.8157 138.357 65.8879 138.135 65.9628V65.9655Z" fill="#11051D"/>
<path d="M140.026 63.8232C140.029 64.1067 139.828 64.1709 139.628 64.1228C138.531 63.85 137.571 63.2429 136.541 62.8043C136.383 62.7374 136.33 62.5529 136.445 62.3817C136.539 62.24 136.686 62.0742 136.844 62.1464C137.887 62.6305 138.919 63.1386 139.951 63.6441C139.994 63.6655 140.002 63.7617 140.026 63.8232Z" fill="#11051D"/>
<path d="M136.779 71.3014C138.41 72.1385 138.68 70.7933 139.237 69.9267C139.975 68.7794 140.387 67.4904 140.868 66.2307C140.689 68.2873 139.705 70.0257 138.568 71.6544C138.073 72.3658 137.405 71.6303 136.779 71.3014Z" fill="#11051D"/>
<path d="M130.478 71.031C132.681 70.7769 134.612 72.0526 135.412 74.3553C134.225 72.5527 132.679 71.3038 130.478 71.031Z" fill="#11051D"/>
<path d="M142.077 68.9718C142.107 68.8273 142.128 68.6268 142.184 68.4396C142.259 68.1882 142.35 67.8699 142.685 67.9501C143.005 68.0277 142.858 68.3112 142.805 68.5305C142.636 69.2365 142.882 69.7554 143.508 70.1137C143.679 70.2127 143.891 70.3411 143.776 70.5711C143.639 70.8439 143.359 70.7529 143.161 70.6673C142.46 70.3544 142.118 69.7794 142.075 68.9718H142.077Z" fill="#11051D"/>
<path d="M145.827 68.2841C145.789 68.5756 145.669 68.7922 145.441 68.6398C144.733 68.1637 143.944 67.7626 143.556 66.9281C143.481 66.765 143.452 66.6099 143.609 66.4815C143.767 66.3531 143.938 66.3772 144.035 66.5404C144.396 67.1688 144.989 67.5379 145.546 67.9524C145.671 68.046 145.754 68.1958 145.829 68.2841H145.827Z" fill="#11051D"/>
<path d="M287.708 46.2712C286.83 44.5088 286.151 42.6795 285.736 40.6791C285.45 39.5665 285.672 38.1999 285.878 37.6998C286.253 36.9215 286.868 36.6059 287.67 36.4963C291.324 35.9908 294.707 34.7793 297.649 32.5114C299.952 30.7356 301.498 28.3982 302.552 25.7104C303.597 23.0387 304.044 20.2519 303.921 17.4037C303.731 12.9963 302.437 9.00603 299.337 5.69244C296.352 2.4992 292.68 0.875833 288.395 0.375718C285.41 0.0253707 282.417 0.0761845 279.443 0.2313C273.182 1.37595 269.94 2.96722 266.26 7.30779C264.634 9.80033 263.947 12.6299 263.588 15.5851C263.222 18.6072 263.508 21.5624 264.153 24.4855C265.321 29.7835 268.63 33.2683 273.61 35.258C275.159 35.8758 276.742 36.3679 278.416 36.4936C278.978 36.5364 279.138 36.9295 279.237 37.3574C279.906 40.2324 282.428 44.466 287.702 46.2766L287.708 46.2712Z" fill="#A569E5" fill-opacity="0.22"/>
<path d="M151.642 110.615C149.093 110.925 146.536 111.016 143.971 111.008C141.43 111 138.892 111.037 136.351 110.992C135.474 110.976 134.829 111.257 134.233 111.883C133.037 113.142 131.815 114.38 130.547 115.565C129.429 116.614 128.212 117.55 126.816 118.216C126.522 118.355 126.18 118.598 125.907 118.266C125.679 117.988 125.8 117.635 125.952 117.322C126.15 116.918 126.487 116.662 126.83 116.389C127.707 115.686 128.485 114.883 129.373 113.872C128.683 113.899 128.434 114.113 128.188 114.34C127.356 115.108 126.543 115.9 125.679 116.63C124.61 117.534 123.5 118.376 122.021 118.526C121.638 118.566 121.352 118.467 121.13 118.216C120.844 117.892 121.093 117.579 121.258 117.304C121.507 116.892 121.9 116.632 122.336 116.44C124.003 115.704 125.302 114.415 126.822 113.46C127.044 113.321 127.322 113.059 127.14 112.811C126.883 112.455 126.693 112.864 126.514 113.003C124.81 114.348 122.951 115.453 121.119 116.608C121.055 116.648 120.988 116.683 120.921 116.715C120.258 117.001 119.434 117.368 119.145 116.707C118.907 116.162 119.838 115.415 120.213 115.143C121.812 114.316 123.227 113.196 124.711 112.185C124.901 112.056 125.104 111.816 124.928 111.591C124.698 111.297 124.529 111.62 124.366 111.749C122.764 113.008 121.042 114.078 119.226 115.001C118.889 115.172 118.552 115.354 118.258 114.931C118.011 114.576 117.923 114.22 118.18 113.816C118.346 113.554 118.557 113.364 118.811 113.193C120.245 112.222 121.681 111.251 123.096 110.251C123.962 109.636 124.864 109.061 125.615 108.294C125.888 108.018 126.129 107.721 125.934 107.325C125.722 106.897 125.351 106.999 124.973 107.101C124.265 107.293 123.559 107.446 122.941 107.895C122.136 108.478 121.189 108.467 120.255 108.387C119.413 108.315 119.1 107.531 119.63 106.865C119.814 106.633 120.036 106.403 120.29 106.261C121.815 105.416 123.43 104.87 125.161 104.547C126.19 104.354 127.8 104.656 128.761 104.055C128.766 104.001 128.373 103.985 128.33 103.953C127.276 103.485 126.062 103.865 125.043 104.031C123.171 104.335 121.341 104.881 119.747 106.004C119.055 106.491 118.645 107.122 118.891 107.951C119.129 108.767 119.814 108.981 120.627 109.013C121.614 109.05 122.449 108.684 123.286 108.256C123.668 108.061 124.029 107.788 124.489 107.799C124.647 107.801 124.858 107.764 124.898 107.978C124.917 108.082 124.842 108.237 124.759 108.32C124.572 108.505 124.361 108.673 124.142 108.823C122.523 109.936 120.911 111.056 119.277 112.147C118.683 112.543 118.175 113.035 117.76 113.586C117.487 113.95 117.148 114.463 117.621 114.937C118.025 115.338 118.354 115.945 119.111 115.645C119.191 115.613 119.269 115.576 119.349 115.541C119.036 115.889 118.803 116.148 118.75 116.675C118.661 117.542 120.215 117.625 120.218 117.625C120.368 117.694 120.488 117.793 120.419 117.999C120.135 118.833 120.881 118.954 121.494 119.01C122.604 119.112 123.607 118.777 124.503 118.146C124.973 117.814 125.187 117.798 125.198 118.462C125.214 119.323 125.8 119.403 126.364 119.079C127.257 118.569 128.191 118.13 129.033 117.512C131.12 115.98 132.823 114.052 134.65 112.252C135.11 111.8 135.562 111.572 136.225 111.583C138.531 111.623 140.836 111.623 143.142 111.591C144.605 111.57 146.068 111.69 147.533 111.436C148.395 111.286 149.494 111.118 150.278 111L151.291 110.786C151.545 110.781 151.901 110.717 152.152 110.65C152.045 110.497 151.805 110.588 151.628 110.61L151.642 110.615Z" fill="#FFB79C"/>
<path d="M158.451 16.9316C161.769 17.8088 163.73 17.2643 163.428 15.3889C163.127 13.5136 160.412 10.5796 157.878 11.6685C155.344 12.7574 153.293 13.3018 152.81 16.9316C152.327 20.5613 148.315 21.62 153.685 24.554C159.054 27.4881 167.44 30.0894 170.246 26.7924C173.051 23.4953 175.495 17.5365 172.388 13.6346C169.28 9.73261 166.928 4.651 163.428 7.37329C160.671 9.51847 157.895 9.74785 160.753 13.7596C162.874 16.7362 165.202 19.6449 166.269 23.1405C168.472 30.3567 167.305 33.5741 159.718 28.577C150.487 22.4972 148.225 23.9793 148.134 19.6841C148.044 15.389 152.991 5.40719 158.934 7.37329C164.876 9.3394 168.707 7.97824 167.621 12.4549C166.535 16.9316 167.139 17.1736 161.286 20.8638C155.434 24.554 153.293 23.2534 152.81 26.7924C152.327 30.3313 161.166 29.6356 164.394 29.7264C167.621 29.8171 173.956 31.9647 174.831 26.7924C175.706 21.62 182.885 20.4706 174.318 17.9298C165.751 15.3889 157.184 10.3073 153.685 9.82336C150.185 9.3394 147.38 7.948 145.811 11.6685C144.243 15.3889 143.458 17.9298 144.243 21.8317C145.027 25.7337 141.618 28.6375 148.918 30.2104C156.219 31.7832 164.702 41.765 158.934 28.577C153.165 15.389 149.099 5.13496 150.366 4.65099C151.633 4.16703 157.787 2.11018 163.428 6.49611C169.069 10.882 178.721 16.4779 175.706 19.6841C172.691 22.8904 172.515 25.7132 165.57 26.7924C158.625 27.8715 150.366 19.2607 153.685 18.5952C157.003 17.9298 168.556 19.7144 169.642 20.8638C170.728 22.0132 172.026 27.4276 174.831 29.1517C177.636 30.8758 194.288 34.5055 200.774 33.2049C207.259 31.9042 223.73 27.0041 224.635 22.7997C225.54 18.5952 220.864 15.7519 218.541 17.9298L218.021 18.5484C217.618 19.0282 216.874 19.0234 216.424 18.587C216.183 18.3535 215.913 18.1153 215.645 17.9298C214.861 17.3853 213.564 17.0828 212.146 17.9298C210.586 18.8618 208.194 22.6484 214.378 25.7337C220.562 28.819 228.647 30.3616 239.959 28.577C249.009 27.1493 256.007 23.8886 256.852 21.8317C257.697 19.7749 254.451 17.8632 253.172 21.8317C252.039 25.3477 261.114 28.0627 267.387 29.3164C268.885 29.6157 270.363 29.9831 271.829 30.4104C280.087 32.8166 294.171 35.0727 298.27 28.577C303.881 19.6841 298.722 10.1863 294.167 6.49611C289.612 2.80589 276.792 -1.06582 270.668 7.37329C266.264 13.6346 264.936 20.5311 267.289 24.554C269.642 28.577 287.41 36.2599 292.84 30.9968C298.27 25.7337 301.739 15.3889 294.167 8.52272C286.595 1.65649 274.891 1.32375 270.336 10.3073C265.781 19.2909 266.565 22.3909 270.668 26.7924" stroke="#55408B" stroke-width="2" stroke-linecap="round"/>
</svg>
