<svg width="67" height="83" viewBox="0 0 67 83" fill="none" xmlns="http://www.w3.org/2000/svg">
<g clip-path="url(#clip0_335_2)">
<path d="M39.9126 53.1485C36.294 53.3086 32.7855 52.488 29.4263 51.0194C29.0359 50.8493 28.8525 50.8793 28.6219 51.2121C27.7022 52.538 26.7641 53.8515 25.813 55.1599C25.6086 55.4401 25.6295 55.6278 25.8261 55.9155C26.8925 57.4816 26.8742 59.0703 25.7789 60.6139C20.9943 67.3687 16.2097 74.1211 11.4042 80.8635C9.61714 83.3678 6.01953 83.7806 3.14248 81.524C1.6961 80.3882 0.613933 78.9847 0.150148 77.2784C-0.287435 75.6698 0.27592 74.1837 1.26376 72.8077C4.73822 67.9642 8.17338 63.0932 11.6216 58.2321C12.7431 56.651 13.8724 55.0774 14.9782 53.4887C16.0446 51.9551 17.4884 51.1645 19.4379 51.4072C19.8283 51.4547 19.9698 51.3272 20.1506 51.0695C21.031 49.8211 21.9035 48.5677 22.8259 47.3493C23.1875 46.8714 22.7001 46.7964 22.5167 46.6488C20.5829 45.0801 18.9269 43.2813 17.5329 41.2599C15.6411 38.5179 14.4358 35.5407 13.6812 32.3209C13.0156 29.4839 12.9606 26.6543 13.2357 23.8348C13.5921 20.1471 14.8288 16.6571 16.7678 13.4273C19.7864 8.39862 23.929 4.51332 29.4918 2.07906C33.2493 0.432867 37.2006 -0.230112 41.3039 0.070105C53.4986 0.965752 62.6302 8.68133 65.8243 18.9362C66.3457 20.6074 66.6628 22.3237 66.8279 24.08C66.93 25.1732 67.0401 26.264 66.9877 27.3523C66.4663 38.2702 60.9847 46.1209 50.7735 50.9494C47.4117 52.538 43.7932 53.2736 39.9126 53.146V53.1485ZM40.0855 47.8997C41.6865 47.9847 43.4525 47.7546 45.1609 47.3118C57.2901 44.167 64.3701 32.0282 60.7593 20.3423C57.974 11.3332 49.8512 5.90933 40.6279 5.3239C37.3107 5.11375 34.1401 5.75672 31.1478 7.21277C24.7963 10.3075 20.955 15.2736 19.0815 21.7433C18.3767 24.1825 18.1382 26.6918 18.3688 29.1811C18.5339 30.9799 19.0632 32.7462 19.768 34.4775C22.8154 41.9404 30.6369 47.7721 40.0855 47.8972V47.8997Z" fill="#D88ADE"/>
</g>
<defs>
<clipPath id="clip0_335_2">
<rect width="67" height="83" fill="white"/>
</clipPath>
</defs>
</svg>
