<svg width="82" height="91" viewBox="0 0 82 91" fill="none" xmlns="http://www.w3.org/2000/svg">
<g clip-path="url(#clip0_335_15)">
<path d="M43.7966 26.71C43.3449 28.0207 42.8471 29.3159 42.4537 30.6452C42.1956 31.5222 42.6535 32.396 42.6596 33.2822C42.675 35.2932 42.7119 37.3042 42.6811 39.3152C42.6719 39.9194 42.8563 40.1611 43.4217 40.3625C47.2353 41.7352 50.2192 44.1769 52.4195 47.6008C52.6254 47.92 52.7514 48.2671 53.2553 48.3104C57.3055 48.6513 60.0805 50.6592 61.2605 54.7276C63.6052 53.42 65.7348 51.7964 68.313 51.0217C68.9676 50.8234 69.155 50.0611 69.3087 49.4476C69.9878 46.7053 70.6116 43.9476 71.2723 41.1991C71.5581 40.0124 71.9761 38.8721 72.5722 37.8061C73.783 35.6526 75.8911 34.565 77.9408 35.0267C80.307 35.5596 81.8404 37.3599 81.9602 39.938C82.0832 42.6121 81.9049 45.2769 81.6099 47.9479C81.4163 49.6986 81.3118 51.471 81.149 53.231C80.4483 60.9094 78.709 68.1632 72.9379 73.7965C70.7837 75.8974 68.3806 77.6976 66.1128 79.6591C64.733 80.852 63.4485 82.1411 62.1762 83.4518C60.8733 84.7966 60.4707 86.4481 60.4093 88.2391C60.3939 88.6326 60.4339 89.0293 60.4093 89.4228C60.3447 90.4825 59.7855 91.0186 58.7929 91.0031C58.0492 90.9907 57.3947 90.247 57.3701 89.336C57.2717 85.565 58.5194 82.4044 61.3619 79.845C63.8326 77.6202 66.4108 75.5286 68.9276 73.3627C72.2649 70.4903 74.88 67.0973 76.2506 62.8553C77.108 60.2029 77.7594 57.4947 77.9315 54.675C78.0667 52.4564 78.4324 50.2533 78.6936 48.044C78.7151 47.8673 78.7367 47.6845 78.7305 47.5079C78.6353 45.1127 79.0624 42.7391 78.9794 40.3377C78.9426 39.3152 78.6906 38.5839 77.7072 38.2461C76.773 37.9239 75.8235 38.2926 75.2334 39.2501C74.5021 40.44 74.2132 41.8033 73.8875 43.1419C73.3558 45.3451 72.8703 47.5575 72.3602 49.7637C72.2803 50.1107 72.2373 50.4949 72.056 50.7862C71.4567 51.7437 71.635 52.4595 72.2834 53.4107C73.5033 55.2017 73.3835 58.5482 71.512 60.3175C67.7415 63.8778 63.7957 67.2305 59.8776 70.6204C59.4351 71.0047 58.9189 71.4849 58.2367 71.4044C57.5852 71.3269 57.0781 71.0047 56.8169 70.3354C56.5465 69.6413 57.0044 69.2168 57.3885 68.8604C59.137 67.2243 60.9317 65.641 62.711 64.0421C64.6777 62.2759 66.6536 60.519 68.6173 58.7465C69.8096 57.6713 70.1906 56.2553 69.5576 55.3536C68.9553 54.4984 67.5386 54.4457 66.1312 55.3102C60.649 58.6846 55.2036 62.1209 49.6999 65.455C46.7098 67.2677 45.1334 70.0689 44.0025 73.2171C42.9331 76.1917 42.4261 79.2717 42.4537 82.4416C42.4722 84.5611 42.4537 86.6805 42.4506 88.7969C42.4506 89.4631 42.3554 90.1293 41.7592 90.5073C41.3229 90.7831 40.7912 90.9907 40.275 90.6684C39.6819 90.2997 39.4299 89.7296 39.433 89.0324C39.4483 86.8788 39.4483 84.7222 39.4791 82.5687C39.5344 78.556 38.7354 74.7292 37.1036 71.0697C35.9789 68.5475 34.298 66.5829 31.9041 65.1514C26.2621 61.777 20.6784 58.2973 15.0794 54.8516C14.2774 54.3589 13.5275 54.4643 12.8484 55.0127C12.117 55.6046 11.905 56.373 12.2645 57.2964C12.4827 57.8572 12.8453 58.2725 13.2725 58.6567C16.8003 61.8421 20.3342 65.0212 23.859 68.2066C24.1417 68.4638 24.406 68.721 24.6211 69.0711C25.0943 69.8396 25.0237 70.5678 24.4644 71.1193C23.8405 71.7328 23.0508 71.5252 22.4239 71.017C21.3975 70.1866 20.4111 69.3066 19.4246 68.4266C16.6559 65.9508 13.8902 63.4657 11.1306 60.9745C9.72624 59.7071 8.81049 58.1795 8.8658 56.215C8.89961 54.9662 9.46504 53.8972 10.1841 52.9057C10.3777 52.6392 10.6481 52.4564 10.4238 51.9823C9.23456 49.4724 9.03175 46.6744 8.23891 44.0436C7.83635 42.7112 7.54441 41.3417 7.13263 40.0124C6.70856 38.6397 5.62379 37.9673 4.38537 38.2059C3.4942 38.3794 2.86423 39.3369 2.92569 40.6445C3.09778 44.3783 3.36513 48.1028 3.73696 51.8212C4.09343 55.397 4.61277 58.9294 5.69139 62.3564C6.6348 65.3621 8.23276 67.9928 10.1626 70.4717C12.1631 73.0404 14.9196 74.692 17.2797 76.8176C18.8469 78.2306 20.4756 79.5692 21.8892 81.1433C23.4349 82.8599 24.4767 84.7718 24.3015 87.2042C24.2523 87.8611 24.492 88.5304 24.5135 89.1997C24.5473 90.3183 24.0249 90.9535 23.1215 91C22.2856 91.0434 21.5727 90.3679 21.4774 89.3701C21.4282 88.8372 21.459 88.2918 21.4774 87.7557C21.5419 86.0453 20.9212 84.6199 19.778 83.3774C17.5378 80.9481 14.9964 78.8627 12.409 76.8393C6.62558 72.3185 2.99022 66.4373 1.70878 59.2175C1.28163 56.8161 0.931311 54.3682 0.679325 51.9172C0.313638 48.3724 0.0862355 44.8307 0.0094104 41.2735C-0.0151736 40.1642 0.0094104 39.0704 0.461142 38.0106C1.9454 34.5526 6.24761 33.8771 8.68757 36.734C9.93521 38.1966 10.4054 39.9845 10.8202 41.7941C11.3795 44.2389 12.1109 46.6372 12.5688 49.1099C12.7685 50.182 13.2848 51.0248 14.6 51.3905C16.8679 52.0226 18.7609 53.5161 20.7952 54.7308C21.167 54.4922 21.0687 54.0398 21.1947 53.702C22.3778 50.5383 25.2449 48.3941 28.576 48.3166C29.1968 48.3011 29.5072 48.0966 29.8298 47.5823C31.8549 44.3163 34.6729 41.9707 38.2191 40.567C39.0365 40.2447 39.2056 39.8357 39.2301 39.0146C39.2977 36.514 39.4606 34.0165 39.4391 31.5098C39.4237 29.7467 38.9044 28.1447 38.173 26.583C38.087 26.2731 38.0255 25.957 37.9118 25.6596C36.7656 22.6013 34.9833 19.9303 32.9889 17.3863C31.9287 16.0353 30.8869 14.6688 29.8513 13.2992C29.5901 12.9522 29.08 12.5927 29.5717 12.1125C30.0572 11.6353 30.4137 12.1868 30.7702 12.4099C31.0682 12.5958 31.3202 12.8654 31.5753 13.1133C35.0509 16.4753 37.8135 20.3734 40.0691 24.6494C40.3272 25.139 40.5792 25.6286 40.8988 26.239C41.0924 25.9013 41.203 25.7278 41.2983 25.5449C43.812 20.6398 47.0847 16.339 51.2978 12.7942C51.6942 12.4595 52.0845 11.5826 52.61 12.035C53.1601 12.506 52.5301 13.1877 52.2228 13.7268C52.1368 13.8818 52.0077 14.0119 51.8971 14.1544C50.8553 15.4744 49.7951 16.779 48.778 18.1207C46.7682 20.7762 44.7923 23.4596 43.7997 26.7162L43.7966 26.71Z" fill="#FFC446"/>
<path d="M43.7961 26.71C44.7887 23.4534 46.7647 20.77 48.7744 18.1145C49.7885 16.7728 50.8518 15.4683 51.8935 14.1483C52.0041 14.0088 52.1301 13.8756 52.2192 13.7206C52.5235 13.1815 53.1565 12.4998 52.6064 12.0288C52.081 11.5795 51.6938 12.4564 51.2943 12.788C47.0812 16.3328 43.8054 20.6336 41.2947 25.5387C41.1995 25.7216 41.0888 25.8951 40.8952 26.2328C40.5756 25.6224 40.3237 25.1297 40.0655 24.6432C37.8099 20.3672 35.0473 16.4691 31.5717 13.1071C31.3136 12.8592 31.0647 12.5897 30.7666 12.4037C30.4071 12.1775 30.0506 11.6291 29.5681 12.1063C29.0765 12.5897 29.5866 12.9491 29.8478 13.293C30.8834 14.6626 31.9282 16.026 32.9853 17.3801C34.9797 19.9272 36.762 22.5982 37.9083 25.6534C38.0189 25.9509 38.0834 26.27 38.1695 26.5768C29.4391 26.6264 23.3576 22.2015 18.9601 14.9694C17.3038 12.2426 16.1053 9.31442 15.4108 6.18482C14.7317 3.13269 15.0052 2.68649 17.9276 2.05747C19.4149 1.73832 20.9084 2.02029 22.362 2.2124C26.6027 2.76706 30.4071 4.4465 33.6952 7.21356C37.7915 10.6592 39.9303 15.1894 40.7447 20.426C40.7662 20.5655 40.7447 20.7173 40.7815 20.8536C40.8553 21.1201 40.9567 21.3773 41.0673 21.6965C42.0415 10.4764 49.979 1.88705 60.839 0.28197C62.0621 0.10225 63.2944 -0.0340886 64.5451 0.00309471C66.3766 0.0588697 67.025 0.818029 66.7976 2.69889C66.0631 8.75047 63.7461 14.1266 59.911 18.8117C56.5553 22.908 52.2623 25.5171 47.0627 26.4745C46.0056 26.6697 44.9055 26.9331 43.7961 26.7069V26.71Z" fill="#05C5C8"/>
</g>
<defs>
<clipPath id="clip0_335_15">
<rect width="82" height="91" fill="white"/>
</clipPath>
</defs>
</svg>
