<svg width="80" height="99" viewBox="0 0 80 99" fill="none" xmlns="http://www.w3.org/2000/svg">
<g clip-path="url(#clip0_335_20)">
<path d="M49.7638 98.7546C46.0378 99.1273 42.3025 98.8571 38.5734 98.9782C35.6268 99.0745 32.6926 98.8199 29.7646 98.6987C26.8738 98.5807 23.9738 98.236 21.083 97.9316C17.2049 97.5217 13.3578 96.9409 9.61942 95.8974C7.0578 95.1831 4.47445 94.3197 2.42205 92.447C0.866456 91.0277 0.0312142 89.2947 0.00326932 87.1518C-0.0867753 79.9683 0.975131 72.9961 4.15774 66.5021C6.84356 61.0205 10.967 56.8651 16.5497 54.2563C20.2198 52.542 24.0638 51.4643 28.0879 50.955C33.6365 50.2531 39.1975 49.955 44.7803 50.3401C50.7512 50.7531 56.6941 51.2935 62.2831 53.7408C68.9371 56.6539 73.6908 61.3746 76.5443 68.0829C78.1154 71.7786 79.1587 75.5738 79.5437 79.5646C79.7735 81.9436 79.9132 84.3256 79.9971 86.717C80.1026 89.7078 78.7085 91.7917 76.3798 93.3849C73.3555 95.4533 69.8717 96.3074 66.3569 97.0123C63.5562 97.5714 60.7244 97.913 57.8678 98.1428C55.1696 98.3602 52.4713 98.6087 49.7669 98.7577L49.7638 98.7546Z" fill="#55408B"/>
<path d="M17.7109 22.9013C17.5122 13.1992 23.4831 4.8635 31.6181 1.67085C34.3257 0.611815 37.1916 -0.127339 40.1848 0.0186281C49.9686 0.493798 57.8242 6.57163 60.8826 16.4104C61.485 18.3515 61.7738 20.3702 61.7675 22.3796C61.7458 27.7276 60.3175 32.6625 56.9828 36.9421C53.8343 40.9826 49.8258 43.7374 44.8298 44.9766C33.2389 47.8493 22.3125 40.7684 18.8287 30.032C18.0649 27.6779 17.6395 25.2679 17.7109 22.9013Z" fill="#55408B"/>
</g>
<defs>
<clipPath id="clip0_335_20">
<rect width="80" height="99" fill="white"/>
</clipPath>
</defs>
</svg>
